M48
; DRILL file {KiCad 9.0.1} date 2025-10-27T16:29:29+0000
; FORMAT={-:-/ absolute / metric / decimal}
; #@! TF.CreationDate,2025-10-27T16:29:29+00:00
; #@! TF.GenerationSoftware,Kicad,Pcbnew,9.0.1
; #@! TF.FileFunction,Plated,1,2,PTH
FMAT,2
METRIC
; #@! TA.AperFunction,Plated,PTH,ViaDrill
T1C0.300
; #@! TA.AperFunction,Plated,PTH,ComponentDrill
T2C0.400
; #@! TA.AperFunction,Plated,PTH,ComponentDrill
T3C0.800
; #@! TA.AperFunction,Plated,PTH,ComponentDrill
T4C0.813
; #@! TA.AperFunction,Plated,PTH,ComponentDrill
T5C0.900
; #@! TA.AperFunction,Plated,PTH,ComponentDrill
T6C1.000
; #@! TA.AperFunction,Plated,PTH,ComponentDrill
T7C1.100
; #@! TA.AperFunction,Plated,PTH,ComponentDrill
T8C1.220
; #@! TA.AperFunction,Plated,PTH,ComponentDrill
T9C1.420
; #@! TA.AperFunction,Plated,PTH,ComponentDrill
T10C1.430
; #@! TA.AperFunction,Plated,PTH,ComponentDrill
T11C3.200
%
G90
G05
T1
X55.0Y-88.5
X58.5Y-95.0
X65.5Y-59.0
X69.0Y-51.0
X70.0Y-47.5
X72.0Y-47.5
X72.0Y-51.0
X90.0Y-75.0
X93.5Y-72.0
X124.0Y-124.0
X126.0Y-121.0
X158.5Y-55.5
X160.5Y-74.0
X162.5Y-72.0
X164.0Y-70.5
X167.5Y-55.5
X168.5Y-122.5
X176.5Y-71.5
X179.5Y-71.5
X187.0Y-84.5
X189.0Y-86.5
X201.0Y-65.5
X201.5Y-58.5
X201.5Y-64.0
X204.0Y-52.0
X205.0Y-91.5
X205.5Y-65.5
X206.5Y-51.0
X208.5Y-51.0
X208.5Y-90.0
X209.0Y-52.0
X209.0Y-89.0
X209.5Y-91.0
X211.0Y-55.5
X213.0Y-93.5
X222.0Y-78.5
X226.0Y-85.0
X231.5Y-53.5
X232.0Y-174.0
X233.0Y-46.0
X233.5Y-66.0
X234.5Y-64.0
X235.5Y-53.5
X237.5Y-51.5
X247.5Y-51.0
X251.0Y-128.0
X256.0Y-67.5
X258.0Y-68.5
X258.5Y-53.5
X260.0Y-56.0
X262.5Y-56.0
X265.0Y-107.5
X265.0Y-113.0
X266.5Y-107.5
X266.5Y-113.0
X268.0Y-107.5
X268.0Y-113.0
X269.5Y-107.5
X269.5Y-113.0
X271.0Y-107.5
X271.0Y-113.0
X272.5Y-107.5
X272.5Y-113.0
X272.5Y-174.0
X274.0Y-107.5
X274.0Y-113.0
X275.0Y-179.0
X275.5Y-107.5
X275.5Y-113.0
X276.5Y-184.0
X279.0Y-187.0
X280.5Y-179.0
X282.5Y-179.0
X284.5Y-179.0
X286.5Y-179.0
X288.5Y-187.0
T3
X39.5Y-44.38
X39.5Y-52.0
X39.5Y-94.0
X39.5Y-101.62
X51.5Y-55.38
X51.5Y-63.0
X56.0Y-44.38
X56.0Y-52.0
X56.0Y-93.88
X56.0Y-101.5
X57.187Y-154.0
X64.807Y-154.0
X68.0Y-55.38
X68.0Y-63.0
X84.5Y-55.38
X84.5Y-63.0
X99.687Y-153.5
X101.0Y-55.38
X101.0Y-63.0
X107.307Y-153.5
X112.187Y-153.5
X117.5Y-55.38
X117.5Y-63.0
X119.807Y-153.5
X124.687Y-153.5
X125.0Y-59.38
X125.0Y-67.0
X132.307Y-153.5
X137.187Y-153.5
X141.5Y-59.38
X141.5Y-67.0
X144.807Y-153.5
X158.0Y-59.38
X158.0Y-67.0
X158.0Y-93.69
X158.0Y-101.31
X173.0Y-93.88
X173.0Y-101.5
X174.5Y-59.38
X174.5Y-67.0
X179.687Y-153.5
X185.5Y-111.38
X185.5Y-119.0
X187.307Y-153.5
X192.187Y-153.5
X199.807Y-153.5
X205.5Y-54.38
X205.5Y-62.0
X219.19Y-44.08
X223.5Y-93.88
X223.5Y-101.5
X226.81Y-44.08
X227.0Y-74.38
X227.0Y-82.0
X227.0Y-93.88
X227.0Y-101.5
X230.0Y-35.96
X230.0Y-38.5
X230.0Y-41.04
X230.0Y-43.58
X237.62Y-35.96
X237.62Y-38.5
X237.62Y-41.04
X237.62Y-43.58
X250.0Y-174.0
X255.08Y-174.0
X302.0Y-173.5
X307.08Y-173.5
T4
X218.69Y-34.08
X226.31Y-34.08
X241.0Y-36.27
X241.0Y-43.89
T6
X43.497Y-87.216
X43.497Y-124.216
X45.997Y-87.216
X45.997Y-124.216
X48.497Y-87.216
X48.497Y-124.216
X59.873Y-87.216
X59.875Y-124.216
X62.373Y-87.216
X62.375Y-124.216
X64.873Y-87.216
X64.875Y-124.216
X76.248Y-87.216
X76.248Y-124.216
X78.748Y-87.216
X78.748Y-124.216
X81.248Y-87.216
X81.248Y-124.216
X92.623Y-87.216
X92.623Y-106.716
X92.623Y-124.216
X95.123Y-87.216
X95.123Y-106.716
X95.123Y-124.216
X97.623Y-87.216
X97.623Y-106.716
X97.623Y-124.216
X108.999Y-87.216
X111.499Y-87.216
X112.622Y-124.216
X113.999Y-87.216
X115.122Y-124.216
X117.622Y-124.216
X128.997Y-106.716
X128.997Y-124.216
X128.999Y-87.216
X131.497Y-106.716
X131.497Y-124.216
X131.499Y-87.216
X133.997Y-106.716
X133.997Y-124.216
X133.999Y-87.216
X145.248Y-87.216
X145.366Y-124.216
X145.373Y-106.716
X147.748Y-87.216
X147.866Y-124.216
X147.873Y-106.716
X150.248Y-87.216
X150.366Y-124.216
X150.373Y-106.716
X161.748Y-87.216
X161.748Y-124.216
X164.248Y-87.216
X164.248Y-124.216
X166.748Y-87.216
X166.748Y-124.216
X181.748Y-87.216
X184.248Y-87.216
X186.748Y-87.216
X198.248Y-87.216
X198.248Y-124.216
X200.748Y-87.216
X200.748Y-124.216
X203.248Y-87.216
X203.248Y-124.216
X214.623Y-124.216
X217.123Y-124.216
X219.623Y-124.216
X221.877Y-156.6
X224.417Y-156.6
X224.618Y-67.216
X226.957Y-156.6
X227.118Y-67.216
X229.497Y-156.6
X229.618Y-67.216
X230.986Y-124.216
X232.037Y-156.6
X232.277Y-170.2
X233.486Y-124.216
X234.577Y-156.6
X234.817Y-170.2
X235.986Y-124.216
X237.117Y-156.6
X237.357Y-170.2
X239.657Y-156.6
X239.897Y-170.2
X242.197Y-156.6
X242.437Y-170.2
X244.737Y-156.6
X244.977Y-170.2
X247.277Y-156.6
X247.367Y-67.216
X247.372Y-124.216
X247.517Y-170.2
X249.817Y-156.6
X249.867Y-67.216
X249.872Y-124.216
X250.057Y-170.2
X252.357Y-156.6
X252.367Y-67.216
X252.372Y-124.216
X254.897Y-156.6
X257.437Y-156.6
X259.977Y-156.6
X262.38Y-156.6
X264.92Y-156.6
X267.46Y-156.6
X270.0Y-156.6
X272.54Y-156.6
X272.78Y-170.2
X275.08Y-156.6
X275.32Y-170.2
X277.62Y-156.6
X277.86Y-170.2
X280.16Y-156.6
X280.4Y-170.2
X282.7Y-156.6
X282.94Y-170.2
X285.24Y-156.6
X285.48Y-170.2
X287.78Y-156.6
X288.02Y-170.2
X290.32Y-156.6
X290.56Y-170.2
X292.86Y-156.6
X295.4Y-156.6
X297.94Y-156.6
X300.48Y-156.6
T7
X42.747Y-47.466
X42.747Y-51.966
X42.747Y-96.966
X42.747Y-101.466
X49.247Y-47.466
X49.247Y-51.966
X49.247Y-96.966
X49.247Y-101.466
X59.123Y-47.466
X59.123Y-51.966
X59.125Y-96.966
X59.125Y-101.466
X65.623Y-47.466
X65.623Y-51.966
X65.625Y-96.966
X65.625Y-101.466
X128.249Y-62.466
X128.249Y-66.966
X134.749Y-62.466
X134.749Y-66.966
X144.498Y-62.466
X144.498Y-66.966
X150.998Y-62.466
X150.998Y-66.966
X160.994Y-96.966
X160.994Y-101.466
X160.998Y-62.466
X160.998Y-66.966
X167.494Y-96.966
X167.494Y-101.466
X167.498Y-62.466
X167.498Y-66.966
X175.998Y-96.966
X175.998Y-101.466
X175.998Y-114.466
X175.998Y-118.966
X177.498Y-62.466
X177.498Y-66.966
X182.498Y-96.966
X182.498Y-101.466
X182.498Y-114.466
X182.498Y-118.966
X183.998Y-62.466
X183.998Y-66.966
X208.868Y-57.466
X208.868Y-61.966
X213.873Y-96.966
X213.873Y-101.466
X215.368Y-57.466
X215.368Y-61.966
X220.373Y-96.966
X220.373Y-101.466
X230.236Y-96.966
X230.236Y-101.466
X230.25Y-77.466
X230.25Y-81.966
X236.736Y-96.966
X236.736Y-101.466
X236.75Y-77.466
X236.75Y-81.966
X282.76Y-24.8
X282.76Y-27.34
X282.76Y-29.88
X282.76Y-32.42
X282.76Y-34.96
X282.76Y-37.5
X282.76Y-40.04
X282.76Y-42.58
X282.76Y-45.12
X282.76Y-47.66
X282.76Y-50.2
X282.76Y-52.74
X282.76Y-55.28
X282.76Y-57.82
X282.76Y-60.36
X282.76Y-62.9
X282.76Y-65.44
X282.76Y-67.98
X282.76Y-70.52
X282.76Y-73.06
X298.0Y-24.8
X298.0Y-27.34
X298.0Y-29.88
X298.0Y-32.42
X298.0Y-34.96
X298.0Y-37.5
X298.0Y-40.04
X298.0Y-42.58
X298.0Y-45.12
X298.0Y-47.66
X298.0Y-50.2
X298.0Y-52.74
X298.0Y-55.28
X298.0Y-57.82
X298.0Y-60.36
X298.0Y-62.9
X298.0Y-65.44
X298.0Y-67.98
X298.0Y-70.52
X298.0Y-73.06
T8
X45.997Y-150.22
X45.997Y-164.72
X60.997Y-156.92
X75.997Y-150.22
X75.997Y-164.72
X88.497Y-150.22
X88.497Y-164.72
X103.497Y-156.72
X115.997Y-156.72
X128.497Y-156.72
X140.997Y-156.72
X155.997Y-150.22
X155.997Y-164.72
X168.497Y-150.22
X168.497Y-164.72
X183.497Y-156.72
X195.997Y-156.72
X210.997Y-150.22
X210.997Y-164.72
T9
X45.997Y-153.32
X45.997Y-167.82
X60.997Y-160.02
X75.997Y-153.32
X75.997Y-167.82
X88.497Y-153.32
X88.497Y-167.82
X103.497Y-159.82
X115.997Y-159.82
X128.497Y-159.82
X140.997Y-159.82
X155.997Y-153.32
X155.997Y-167.82
X168.497Y-153.32
X168.497Y-167.82
X183.497Y-159.82
X195.997Y-159.82
X210.997Y-153.32
X210.997Y-167.82
T10
X45.997Y-161.62
X45.997Y-176.12
X60.997Y-168.32
X75.997Y-161.62
X75.997Y-176.12
X88.497Y-161.62
X88.497Y-176.12
X103.497Y-168.12
X115.997Y-168.12
X128.497Y-168.12
X140.997Y-168.12
X155.997Y-161.62
X155.997Y-176.12
X168.497Y-161.62
X168.497Y-176.12
X183.497Y-168.12
X195.997Y-168.12
X210.997Y-161.62
X210.997Y-176.12
T11
X29.0Y-32.0
X29.0Y-193.0
X312.5Y-32.0
X312.75Y-193.0
T2
G00X206.0Y-33.0
M15
G01X206.0Y-34.0
M16
G05
G00X211.5Y-28.5
M15
G01X210.5Y-28.5
M16
G05
G00X216.0Y-34.0
M15
G01X216.0Y-33.0
M16
G05
G00X244.0Y-33.0
M15
G01X244.0Y-34.0
M16
G05
G00X249.5Y-28.5
M15
G01X248.5Y-28.5
M16
G05
G00X254.0Y-34.0
M15
G01X254.0Y-33.0
M16
G05
T5
G00X45.347Y-60.016
M15
G01X46.647Y-60.016
M16
G05
G00X45.347Y-64.716
M15
G01X46.647Y-64.716
M16
G05
G00X45.347Y-69.416
M15
G01X46.647Y-69.416
M16
G05
G00X61.723Y-60.016
M15
G01X63.023Y-60.016
M16
G05
G00X61.723Y-64.716
M15
G01X63.023Y-64.716
M16
G05
G00X61.723Y-69.416
M15
G01X63.023Y-69.416
M16
G05
G00X78.098Y-60.016
M15
G01X79.398Y-60.016
M16
G05
G00X78.098Y-64.716
M15
G01X79.398Y-64.716
M16
G05
G00X78.098Y-69.416
M15
G01X79.398Y-69.416
M16
G05
G00X94.474Y-60.016
M15
G01X95.773Y-60.016
M16
G05
G00X94.474Y-64.716
M15
G01X95.773Y-64.716
M16
G05
G00X94.474Y-69.416
M15
G01X95.773Y-69.416
M16
G05
G00X110.849Y-60.016
M15
G01X112.149Y-60.016
M16
G05
G00X110.849Y-64.716
M15
G01X112.149Y-64.716
M16
G05
G00X110.849Y-69.416
M15
G01X112.149Y-69.416
M16
G05
T7
G00X41.197Y-80.316
M15
G01X41.197Y-79.116
M16
G05
G00X41.197Y-117.316
M15
G01X41.197Y-116.116
M16
G05
G00X50.797Y-80.316
M15
G01X50.797Y-79.116
M16
G05
G00X50.797Y-117.316
M15
G01X50.797Y-116.116
M16
G05
G00X57.573Y-80.316
M15
G01X57.573Y-79.116
M16
G05
G00X57.575Y-117.316
M15
G01X57.575Y-116.116
M16
G05
G00X67.173Y-80.316
M15
G01X67.173Y-79.116
M16
G05
G00X67.175Y-117.316
M15
G01X67.175Y-116.116
M16
G05
G00X73.948Y-80.316
M15
G01X73.948Y-79.116
M16
G05
G00X73.948Y-117.316
M15
G01X73.948Y-116.116
M16
G05
G00X83.548Y-80.316
M15
G01X83.548Y-79.116
M16
G05
G00X83.548Y-117.316
M15
G01X83.548Y-116.116
M16
G05
G00X90.323Y-80.316
M15
G01X90.323Y-79.116
M16
G05
G00X90.323Y-99.816
M15
G01X90.323Y-98.616
M16
G05
G00X90.323Y-117.316
M15
G01X90.323Y-116.116
M16
G05
G00X99.923Y-80.316
M15
G01X99.923Y-79.116
M16
G05
G00X99.923Y-99.816
M15
G01X99.923Y-98.616
M16
G05
G00X99.923Y-117.316
M15
G01X99.923Y-116.116
M16
G05
G00X106.699Y-80.316
M15
G01X106.699Y-79.116
M16
G05
G00X110.322Y-117.316
M15
G01X110.322Y-116.116
M16
G05
G00X116.299Y-80.316
M15
G01X116.299Y-79.116
M16
G05
G00X119.922Y-117.316
M15
G01X119.922Y-116.116
M16
G05
G00X126.697Y-99.816
M15
G01X126.697Y-98.616
M16
G05
G00X126.697Y-117.316
M15
G01X126.697Y-116.116
M16
G05
G00X126.699Y-80.316
M15
G01X126.699Y-79.116
M16
G05
G00X136.297Y-99.816
M15
G01X136.297Y-98.616
M16
G05
G00X136.297Y-117.316
M15
G01X136.297Y-116.116
M16
G05
G00X136.299Y-80.316
M15
G01X136.299Y-79.116
M16
G05
G00X142.948Y-80.316
M15
G01X142.948Y-79.116
M16
G05
G00X143.066Y-117.316
M15
G01X143.066Y-116.116
M16
G05
G00X143.073Y-99.816
M15
G01X143.073Y-98.616
M16
G05
G00X152.548Y-80.316
M15
G01X152.548Y-79.116
M16
G05
G00X152.666Y-117.316
M15
G01X152.666Y-116.116
M16
G05
G00X152.673Y-99.816
M15
G01X152.673Y-98.616
M16
G05
G00X159.448Y-80.316
M15
G01X159.448Y-79.116
M16
G05
G00X159.448Y-117.316
M15
G01X159.448Y-116.116
M16
G05
G00X169.048Y-80.316
M15
G01X169.048Y-79.116
M16
G05
G00X169.048Y-117.316
M15
G01X169.048Y-116.116
M16
G05
G00X179.448Y-80.316
M15
G01X179.448Y-79.116
M16
G05
G00X189.048Y-80.316
M15
G01X189.048Y-79.116
M16
G05
G00X195.948Y-80.316
M15
G01X195.948Y-79.116
M16
G05
G00X195.948Y-117.316
M15
G01X195.948Y-116.116
M16
G05
G00X205.548Y-80.316
M15
G01X205.548Y-79.116
M16
G05
G00X205.548Y-117.316
M15
G01X205.548Y-116.116
M16
G05
G00X212.323Y-117.316
M15
G01X212.323Y-116.116
M16
G05
G00X221.923Y-117.316
M15
G01X221.923Y-116.116
M16
G05
G00X222.318Y-60.316
M15
G01X222.318Y-59.116
M16
G05
G00X228.686Y-117.316
M15
G01X228.686Y-116.116
M16
G05
G00X231.918Y-60.316
M15
G01X231.918Y-59.116
M16
G05
G00X238.286Y-117.316
M15
G01X238.286Y-116.116
M16
G05
G00X245.067Y-60.316
M15
G01X245.067Y-59.116
M16
G05
G00X245.072Y-117.316
M15
G01X245.072Y-116.116
M16
G05
G00X254.667Y-60.316
M15
G01X254.667Y-59.116
M16
G05
G00X254.672Y-117.316
M15
G01X254.672Y-116.116
M16
G05
M30
