M48
; DRILL file {KiCad 9.0.1} date 2025-10-07T14:41:51+0100
; FORMAT={-:-/ absolute / metric / decimal}
; #@! TF.CreationDate,2025-10-07T14:41:51+01:00
; #@! TF.GenerationSoftware,Kicad,Pcbnew,9.0.1
; #@! TF.FileFunction,Plated,1,2,PTH
FMAT,2
METRIC
; #@! TA.AperFunction,Plated,PTH,ViaDrill
T1C0.300
; #@! TA.AperFunction,Plated,PTH,ComponentDrill
T2C0.400
; #@! TA.AperFunction,Plated,PTH,ComponentDrill
T3C0.800
; #@! TA.AperFunction,Plated,PTH,ComponentDrill
T4C0.813
; #@! TA.AperFunction,Plated,PTH,ComponentDrill
T5C0.900
; #@! TA.AperFunction,Plated,PTH,ComponentDrill
T6C1.000
; #@! TA.AperFunction,Plated,PTH,ComponentDrill
T7C1.100
; #@! TA.AperFunction,Plated,PTH,ComponentDrill
T8C1.220
; #@! TA.AperFunction,Plated,PTH,ComponentDrill
T9C1.420
; #@! TA.AperFunction,Plated,PTH,ComponentDrill
T10C1.430
%
G90
G05
T1
X53.0Y-82.5
X132.0Y-67.5
X134.5Y-67.5
X138.0Y-44.0
X157.5Y-109.5
X157.5Y-113.0
X164.5Y-122.0
X173.0Y-122.0
X175.0Y-122.0
X184.5Y-122.5
X185.5Y-106.0
X185.5Y-109.0
X186.5Y-122.5
X187.5Y-139.5
X196.0Y-101.0
X196.0Y-103.5
X197.0Y-101.0
X197.0Y-103.5
X200.0Y-186.5
X205.0Y-53.0
X207.0Y-53.0
X215.0Y-186.5
X221.0Y-35.0
X223.5Y-36.0
X236.5Y-101.25
X236.5Y-103.5
X237.5Y-101.25
X237.5Y-103.5
X238.5Y-101.5
X238.5Y-103.5
X243.5Y-175.0
X244.5Y-101.5
X244.5Y-103.5
X245.0Y-175.0
X246.0Y-182.0
X246.5Y-175.0
X248.5Y-175.0
X249.0Y-183.0
X250.0Y-175.0
X251.5Y-175.0
X251.5Y-184.0
X253.0Y-175.0
X254.0Y-185.0
X254.5Y-175.0
X255.0Y-190.5
X255.0Y-193.5
X256.0Y-175.0
X256.5Y-186.0
X257.5Y-175.0
X257.5Y-190.5
X258.0Y-195.5
X259.0Y-175.0
X259.5Y-187.0
X265.5Y-97.5
X283.0Y-62.0
X285.0Y-54.0
X285.0Y-194.5
X286.0Y-63.5
X287.0Y-194.5
X289.5Y-186.0
X290.0Y-64.5
X292.0Y-185.0
X294.5Y-184.0
X297.0Y-183.0
X299.5Y-182.0
X310.5Y-166.5
X310.5Y-167.5
X310.5Y-168.5
X310.5Y-169.5
X310.5Y-170.5
X310.5Y-171.5
X310.5Y-172.5
X310.5Y-173.5
X313.0Y-95.0
X315.0Y-133.5
X315.5Y-134.5
X316.0Y-135.5
X316.5Y-56.0
X316.5Y-58.0
X316.5Y-136.5
X317.0Y-97.0
X319.0Y-107.5
X319.5Y-105.5
X320.0Y-56.0
X320.0Y-58.0
X320.0Y-74.0
X321.0Y-37.0
X321.0Y-193.0
X322.0Y-95.5
X324.5Y-26.0
X325.0Y-94.5
X326.5Y-36.5
X335.0Y-30.5
X335.0Y-35.0
X336.5Y-26.0
X337.0Y-60.0
X337.0Y-63.5
X339.25Y-161.25
X340.0Y-162.5
X340.5Y-145.5
X341.5Y-144.5
X344.5Y-42.5
X344.5Y-54.0
X344.5Y-116.0
X346.5Y-33.0
X346.5Y-54.0
T3
X45.0Y-59.0
X52.0Y-42.38
X52.0Y-50.0
X52.0Y-102.19
X52.0Y-109.81
X52.62Y-59.0
X65.0Y-59.0
X72.0Y-42.38
X72.0Y-50.0
X72.0Y-102.19
X72.0Y-109.81
X72.62Y-59.0
X85.0Y-59.0
X92.62Y-59.0
X105.0Y-59.0
X108.0Y-102.38
X108.0Y-110.0
X112.62Y-59.0
X125.5Y-59.0
X128.0Y-102.19
X128.0Y-109.81
X132.5Y-42.38
X132.5Y-50.0
X133.12Y-59.0
X172.5Y-62.38
X172.5Y-70.0
X192.5Y-102.38
X192.5Y-110.0
X212.5Y-62.38
X212.5Y-70.0
X212.5Y-102.5
X212.5Y-110.12
X232.5Y-102.38
X232.5Y-110.0
X261.8Y-168.3
X261.8Y-173.3
X262.5Y-102.38
X262.5Y-110.0
X264.3Y-168.3
X264.3Y-173.3
X266.8Y-168.3
X266.8Y-173.3
X269.55Y-168.3
X269.55Y-173.3
X272.05Y-168.3
X272.05Y-173.3
X274.55Y-168.3
X274.55Y-173.3
X277.05Y-168.3
X277.05Y-173.3
X279.55Y-168.3
X279.55Y-173.3
X282.05Y-168.3
X282.05Y-173.3
X282.5Y-102.38
X282.5Y-110.0
X284.55Y-168.3
X284.55Y-173.3
X287.05Y-168.3
X287.05Y-173.3
X289.55Y-168.3
X289.55Y-173.3
X289.755Y-48.0
X289.755Y-55.62
X289.945Y-43.5
X292.295Y-48.0
X292.295Y-55.62
X292.3Y-168.3
X292.3Y-173.3
X294.8Y-168.3
X294.8Y-173.3
X294.835Y-48.0
X294.835Y-55.62
X297.3Y-168.3
X297.3Y-173.3
X297.375Y-48.0
X297.375Y-55.62
X297.565Y-43.5
X299.8Y-168.3
X299.8Y-173.3
X312.0Y-154.5
X312.0Y-159.5
X312.5Y-102.38
X312.5Y-110.0
X314.5Y-154.5
X314.5Y-159.5
X317.0Y-154.5
X317.0Y-159.5
X319.5Y-154.5
X319.5Y-159.5
X322.25Y-154.5
X322.25Y-159.5
X324.75Y-154.5
X324.75Y-159.5
X327.25Y-154.5
X327.25Y-159.5
X329.75Y-154.5
X329.75Y-159.5
X332.25Y-154.5
X332.25Y-159.5
X332.88Y-51.75
X332.94Y-46.75
X332.94Y-49.25
X333.0Y-36.75
X333.0Y-39.25
X333.0Y-41.75
X333.0Y-44.25
X335.0Y-154.5
X335.0Y-159.5
X337.5Y-154.5
X337.5Y-159.5
X340.5Y-51.75
X340.56Y-46.75
X340.56Y-49.25
X340.62Y-36.75
X340.62Y-39.25
X340.62Y-41.75
X340.62Y-44.25
T4
X289.945Y-59.0
X291.635Y-39.5
X297.565Y-59.0
X299.255Y-39.5
X303.19Y-57.0
X303.19Y-59.5
X310.81Y-57.0
X310.81Y-59.5
X332.5Y-54.5
X332.5Y-57.0
X332.5Y-59.5
X332.5Y-62.0
X332.5Y-64.5
X332.5Y-67.0
X340.12Y-54.5
X340.12Y-57.0
X340.12Y-59.5
X340.12Y-62.0
X340.12Y-64.5
X340.12Y-67.0
T6
X42.5Y-80.0
X42.5Y-120.0
X45.0Y-80.0
X45.0Y-120.0
X47.5Y-80.0
X47.5Y-120.0
X62.5Y-80.0
X62.5Y-120.0
X65.0Y-80.0
X65.0Y-120.0
X67.5Y-80.0
X67.5Y-120.0
X82.5Y-80.0
X82.5Y-120.0
X85.0Y-80.0
X85.0Y-120.0
X87.5Y-80.0
X87.5Y-120.0
X102.5Y-80.0
X105.0Y-80.0
X107.5Y-80.0
X112.5Y-120.0
X115.0Y-120.0
X117.5Y-120.0
X123.0Y-80.0
X125.5Y-80.0
X128.0Y-80.0
X132.5Y-120.0
X135.0Y-120.0
X137.5Y-120.0
X163.0Y-80.0
X163.0Y-100.0
X163.0Y-120.0
X165.5Y-80.0
X165.5Y-100.0
X165.5Y-120.0
X168.0Y-80.0
X168.0Y-100.0
X168.0Y-120.0
X183.0Y-60.0
X183.0Y-80.0
X183.0Y-120.0
X185.5Y-60.0
X185.5Y-80.0
X185.5Y-120.0
X188.0Y-60.0
X188.0Y-80.0
X188.0Y-120.0
X203.0Y-80.0
X203.0Y-120.0
X205.5Y-80.0
X205.5Y-120.0
X208.0Y-80.0
X208.0Y-120.0
X223.0Y-60.0
X223.0Y-80.0
X223.0Y-120.0
X225.5Y-60.0
X225.5Y-80.0
X225.5Y-120.0
X228.0Y-60.0
X228.0Y-80.0
X228.0Y-120.0
X253.0Y-80.0
X253.0Y-120.0
X255.5Y-80.0
X255.5Y-120.0
X258.0Y-80.0
X258.0Y-120.0
X261.8Y-176.3
X264.34Y-176.3
X266.88Y-176.3
X269.42Y-176.3
X271.96Y-176.3
X272.2Y-189.9
X273.0Y-80.0
X273.0Y-120.0
X274.5Y-176.3
X274.74Y-189.9
X275.5Y-80.0
X275.5Y-120.0
X277.04Y-176.3
X277.28Y-189.9
X278.0Y-80.0
X278.0Y-120.0
X279.58Y-176.3
X279.82Y-189.9
X282.12Y-176.3
X282.36Y-189.9
X284.66Y-176.3
X284.9Y-189.9
X287.2Y-176.3
X287.44Y-189.9
X289.74Y-176.3
X289.98Y-189.9
X292.28Y-176.3
X294.82Y-176.3
X297.36Y-176.3
X299.9Y-176.3
X303.0Y-120.0
X305.5Y-120.0
X308.0Y-120.0
X312.02Y-176.4
X314.56Y-176.4
X317.1Y-176.4
X319.64Y-176.4
X322.18Y-176.4
X322.42Y-190.0
X324.72Y-176.4
X324.96Y-190.0
X327.26Y-176.4
X327.5Y-190.0
X329.8Y-176.4
X330.04Y-190.0
X332.34Y-176.4
X332.58Y-190.0
X333.0Y-120.0
X334.88Y-176.4
X335.12Y-190.0
X335.5Y-120.0
X337.42Y-176.4
X337.66Y-190.0
X338.0Y-120.0
X339.96Y-176.4
X340.2Y-190.0
X342.5Y-176.4
X345.04Y-176.4
X347.58Y-176.4
X350.12Y-176.4
T7
X41.747Y-45.25
X41.747Y-49.75
X41.75Y-105.25
X41.75Y-109.75
X48.247Y-45.25
X48.247Y-49.75
X48.25Y-105.25
X48.25Y-109.75
X61.75Y-45.25
X61.75Y-49.75
X61.75Y-105.25
X61.75Y-109.75
X68.25Y-45.25
X68.25Y-49.75
X68.25Y-105.25
X68.25Y-109.75
X111.75Y-105.25
X111.75Y-109.75
X118.25Y-105.25
X118.25Y-109.75
X122.25Y-45.25
X122.25Y-49.75
X128.75Y-45.25
X128.75Y-49.75
X131.75Y-105.25
X131.75Y-109.75
X138.25Y-105.25
X138.25Y-109.75
X162.25Y-65.25
X162.25Y-69.75
X168.75Y-65.25
X168.75Y-69.75
X182.25Y-105.25
X182.25Y-109.75
X188.75Y-105.25
X188.75Y-109.75
X202.25Y-65.25
X202.25Y-69.75
X202.25Y-105.25
X202.25Y-109.75
X208.75Y-65.25
X208.75Y-69.75
X208.75Y-105.25
X208.75Y-109.75
X222.25Y-105.25
X222.25Y-109.75
X228.75Y-105.25
X228.75Y-109.75
X252.25Y-105.25
X252.25Y-109.75
X258.75Y-105.25
X258.75Y-109.75
X272.25Y-105.25
X272.25Y-109.75
X278.75Y-105.25
X278.75Y-109.75
X302.25Y-105.25
X302.25Y-109.75
X308.75Y-105.25
X308.75Y-109.75
X314.255Y-26.5
X314.255Y-29.04
X314.255Y-31.58
X314.255Y-34.12
X314.255Y-36.66
X314.255Y-39.2
X314.255Y-41.74
X314.255Y-44.28
X314.255Y-46.82
X314.255Y-49.36
X314.255Y-51.9
X314.255Y-54.44
X314.255Y-56.98
X314.255Y-59.52
X314.255Y-62.06
X314.255Y-64.6
X314.255Y-67.14
X314.255Y-69.68
X314.255Y-72.22
X314.255Y-74.76
X329.495Y-26.5
X329.495Y-29.04
X329.495Y-31.58
X329.495Y-34.12
X329.495Y-36.66
X329.495Y-39.2
X329.495Y-41.74
X329.495Y-44.28
X329.495Y-46.82
X329.495Y-49.36
X329.495Y-51.9
X329.495Y-54.44
X329.495Y-56.98
X329.495Y-59.52
X329.495Y-62.06
X329.495Y-64.6
X329.495Y-67.14
X329.495Y-69.68
X329.495Y-72.22
X329.495Y-74.76
T8
X50.0Y-151.72
X50.0Y-171.72
X65.0Y-161.72
X80.0Y-161.72
X95.0Y-161.72
X110.0Y-151.72
X110.0Y-171.72
X125.0Y-151.72
X125.0Y-171.72
X140.0Y-161.72
X155.0Y-161.72
X170.0Y-151.72
X170.0Y-171.72
X185.0Y-151.72
X185.0Y-171.72
X200.0Y-161.72
X215.0Y-161.72
X230.0Y-151.72
X230.0Y-171.72
T9
X50.0Y-154.82
X50.0Y-174.82
X65.0Y-164.82
X80.0Y-164.82
X95.0Y-164.82
X110.0Y-154.82
X110.0Y-174.82
X125.0Y-154.82
X125.0Y-174.82
X140.0Y-164.82
X155.0Y-164.82
X170.0Y-154.82
X170.0Y-174.82
X185.0Y-154.82
X185.0Y-174.82
X200.0Y-164.82
X215.0Y-164.82
X230.0Y-154.82
X230.0Y-174.82
T10
X50.0Y-163.12
X50.0Y-183.12
X65.0Y-173.12
X80.0Y-173.12
X95.0Y-173.12
X110.0Y-163.12
X110.0Y-183.12
X125.0Y-163.12
X125.0Y-183.12
X140.0Y-173.12
X155.0Y-173.12
X170.0Y-163.12
X170.0Y-183.12
X185.0Y-163.12
X185.0Y-183.12
X200.0Y-173.12
X215.0Y-173.12
X230.0Y-163.12
X230.0Y-183.12
T2
G00X270.495Y-34.5
M15
G01X270.495Y-35.5
M16
G05
G00X275.995Y-30.0
M15
G01X274.995Y-30.0
M16
G05
G00X280.495Y-35.5
M15
G01X280.495Y-34.5
M16
G05
G00X289.255Y-34.5
M15
G01X289.255Y-35.5
M16
G05
G00X294.755Y-30.0
M15
G01X293.755Y-30.0
M16
G05
G00X299.255Y-35.5
M15
G01X299.255Y-34.5
M16
G05
T5
G00X44.347Y-62.8
M15
G01X45.647Y-62.8
M16
G05
G00X44.347Y-67.5
M15
G01X45.647Y-67.5
M16
G05
G00X44.347Y-72.2
M15
G01X45.647Y-72.2
M16
G05
G00X64.35Y-62.8
M15
G01X65.65Y-62.8
M16
G05
G00X64.35Y-67.5
M15
G01X65.65Y-67.5
M16
G05
G00X64.35Y-72.2
M15
G01X65.65Y-72.2
M16
G05
G00X84.35Y-62.8
M15
G01X85.65Y-62.8
M16
G05
G00X84.35Y-67.5
M15
G01X85.65Y-67.5
M16
G05
G00X84.35Y-72.2
M15
G01X85.65Y-72.2
M16
G05
G00X104.35Y-62.8
M15
G01X105.65Y-62.8
M16
G05
G00X104.35Y-67.5
M15
G01X105.65Y-67.5
M16
G05
G00X104.35Y-72.2
M15
G01X105.65Y-72.2
M16
G05
G00X124.85Y-62.8
M15
G01X126.15Y-62.8
M16
G05
G00X124.85Y-67.5
M15
G01X126.15Y-67.5
M16
G05
G00X124.85Y-72.2
M15
G01X126.15Y-72.2
M16
G05
T7
G00X40.2Y-86.9
M15
G01X40.2Y-88.1
M16
G05
G00X40.2Y-126.9
M15
G01X40.2Y-128.1
M16
G05
G00X49.8Y-86.9
M15
G01X49.8Y-88.1
M16
G05
G00X49.8Y-126.9
M15
G01X49.8Y-128.1
M16
G05
G00X60.2Y-86.9
M15
G01X60.2Y-88.1
M16
G05
G00X60.2Y-126.9
M15
G01X60.2Y-128.1
M16
G05
G00X69.8Y-86.9
M15
G01X69.8Y-88.1
M16
G05
G00X69.8Y-126.9
M15
G01X69.8Y-128.1
M16
G05
G00X80.2Y-86.9
M15
G01X80.2Y-88.1
M16
G05
G00X80.2Y-126.9
M15
G01X80.2Y-128.1
M16
G05
G00X89.8Y-86.9
M15
G01X89.8Y-88.1
M16
G05
G00X89.8Y-126.9
M15
G01X89.8Y-128.1
M16
G05
G00X100.2Y-86.9
M15
G01X100.2Y-88.1
M16
G05
G00X109.8Y-86.9
M15
G01X109.8Y-88.1
M16
G05
G00X110.2Y-126.9
M15
G01X110.2Y-128.1
M16
G05
G00X119.8Y-126.9
M15
G01X119.8Y-128.1
M16
G05
G00X120.7Y-86.9
M15
G01X120.7Y-88.1
M16
G05
G00X130.2Y-126.9
M15
G01X130.2Y-128.1
M16
G05
G00X130.3Y-86.9
M15
G01X130.3Y-88.1
M16
G05
G00X139.8Y-126.9
M15
G01X139.8Y-128.1
M16
G05
G00X160.7Y-86.9
M15
G01X160.7Y-88.1
M16
G05
G00X160.7Y-106.9
M15
G01X160.7Y-108.1
M16
G05
G00X160.7Y-126.9
M15
G01X160.7Y-128.1
M16
G05
G00X170.3Y-86.9
M15
G01X170.3Y-88.1
M16
G05
G00X170.3Y-106.9
M15
G01X170.3Y-108.1
M16
G05
G00X170.3Y-126.9
M15
G01X170.3Y-128.1
M16
G05
G00X180.7Y-66.9
M15
G01X180.7Y-68.1
M16
G05
G00X180.7Y-86.9
M15
G01X180.7Y-88.1
M16
G05
G00X180.7Y-126.9
M15
G01X180.7Y-128.1
M16
G05
G00X190.3Y-66.9
M15
G01X190.3Y-68.1
M16
G05
G00X190.3Y-86.9
M15
G01X190.3Y-88.1
M16
G05
G00X190.3Y-126.9
M15
G01X190.3Y-128.1
M16
G05
G00X200.7Y-86.9
M15
G01X200.7Y-88.1
M16
G05
G00X200.7Y-126.9
M15
G01X200.7Y-128.1
M16
G05
G00X210.3Y-86.9
M15
G01X210.3Y-88.1
M16
G05
G00X210.3Y-126.9
M15
G01X210.3Y-128.1
M16
G05
G00X220.7Y-66.9
M15
G01X220.7Y-68.1
M16
G05
G00X220.7Y-86.9
M15
G01X220.7Y-88.1
M16
G05
G00X220.7Y-126.9
M15
G01X220.7Y-128.1
M16
G05
G00X230.3Y-66.9
M15
G01X230.3Y-68.1
M16
G05
G00X230.3Y-86.9
M15
G01X230.3Y-88.1
M16
G05
G00X230.3Y-126.9
M15
G01X230.3Y-128.1
M16
G05
G00X250.7Y-86.9
M15
G01X250.7Y-88.1
M16
G05
G00X250.7Y-126.9
M15
G01X250.7Y-128.1
M16
G05
G00X260.3Y-86.9
M15
G01X260.3Y-88.1
M16
G05
G00X260.3Y-126.9
M15
G01X260.3Y-128.1
M16
G05
G00X270.7Y-86.9
M15
G01X270.7Y-88.1
M16
G05
G00X270.7Y-126.9
M15
G01X270.7Y-128.1
M16
G05
G00X280.3Y-86.9
M15
G01X280.3Y-88.1
M16
G05
G00X280.3Y-126.9
M15
G01X280.3Y-128.1
M16
G05
G00X300.7Y-126.9
M15
G01X300.7Y-128.1
M16
G05
G00X310.3Y-126.9
M15
G01X310.3Y-128.1
M16
G05
G00X330.7Y-126.9
M15
G01X330.7Y-128.1
M16
G05
G00X340.3Y-126.9
M15
G01X340.3Y-128.1
M16
G05
M30
