M48
; DRILL file {KiCad 9.0.7} date 2026-03-24T07:11:37+0000
; FORMAT={-:-/ absolute / inch / decimal}
; #@! TF.CreationDate,2026-03-24T07:11:37+00:00
; #@! TF.GenerationSoftware,Kicad,Pcbnew,9.0.7
; #@! TF.FileFunction,Plated,1,2,PTH
FMAT,2
INCH
; #@! TA.AperFunction,Plated,PTH,ComponentDrill
T1C0.0906
; #@! TA.AperFunction,Plated,PTH,ComponentDrill
T2C0.1378
; #@! TA.AperFunction,Plated,PTH,ComponentDrill
T3C0.2362
; #@! TA.AperFunction,Plated,PTH,ComponentDrill
T4C0.2756
%
G90
G05
T2
X5.561Y-12.124
X6.25Y-12.124
X6.4469Y-8.9862
X7.4311Y-8.9921
X9.2028Y-8.9921
X9.2047Y-9.6811
X10.4823Y-8.9929
X10.4843Y-9.6819
X10.6791Y-12.124
X10.6791Y-12.813
X10.6791Y-13.502
X11.4764Y-9.3307
X11.9587Y-12.126
X11.9587Y-13.502
X12.4606Y-9.3307
T3
X3.9173Y-15.2075
X3.9173Y-15.7783
X4.5079Y-15.4831
X5.0984Y-15.2075
X5.0984Y-15.7783
X5.4626Y-9.676
X5.5906Y-15.2075
X5.5906Y-15.7783
X5.9547Y-9.676
X6.1811Y-15.4634
X6.4469Y-9.676
X6.6732Y-15.4634
X6.9488Y-9.6858
X7.1654Y-15.4634
X7.4311Y-9.6858
X7.6575Y-15.4634
X8.248Y-15.2173
X8.248Y-15.7882
X8.7402Y-15.2075
X8.7402Y-15.7783
X9.3307Y-15.4634
X9.8228Y-15.4634
X10.4134Y-15.2075
X10.4134Y-15.7783
T4
X6.937Y-12.126
X8.2205Y-12.122
X9.6929Y-12.122
X12.748Y-12.126
X12.748Y-13.3071
T1
G00X5.4626Y-10.3256
M15
G01X5.4626Y-11.1799
M16
G05
G00X5.4626Y-12.8846
M15
G01X5.4626Y-13.739
M16
G05
G00X5.9547Y-10.3256
M15
G01X5.9547Y-11.1799
M16
G05
G00X5.9547Y-12.8846
M15
G01X5.9547Y-13.739
M16
G05
G00X6.4469Y-10.3256
M15
G01X6.4469Y-11.1799
M16
G05
G00X6.4469Y-12.8846
M15
G01X6.4469Y-13.739
M16
G05
G00X6.939Y-10.3256
M15
G01X6.939Y-11.1799
M16
G05
G00X6.939Y-12.8846
M15
G01X6.939Y-13.739
M16
G05
G00X7.4311Y-10.3256
M15
G01X7.4311Y-11.1799
M16
G05
G00X8.2185Y-10.3256
M15
G01X8.2185Y-11.1799
M16
G05
G00X8.2185Y-12.8846
M15
G01X8.2185Y-13.739
M16
G05
G00X8.7106Y-10.3256
M15
G01X8.7106Y-11.1799
M16
G05
G00X8.7106Y-12.8846
M15
G01X8.7106Y-13.739
M16
G05
G00X9.2028Y-10.3256
M15
G01X9.2028Y-11.1799
M16
G05
G00X9.2028Y-12.8846
M15
G01X9.2028Y-13.739
M16
G05
G00X9.6949Y-12.8846
M15
G01X9.6949Y-13.739
M16
G05
G00X9.9902Y-10.3256
M15
G01X9.9902Y-11.1799
M16
G05
G00X10.4823Y-10.3256
M15
G01X10.4823Y-11.1799
M16
G05
G00X11.2697Y-10.3256
M15
G01X11.2697Y-11.1799
M16
G05
G00X11.7618Y-10.3256
M15
G01X11.7618Y-11.1799
M16
G05
G00X12.2539Y-10.3256
M15
G01X12.2539Y-11.1799
M16
G05
G00X12.7461Y-10.3256
M15
G01X12.7461Y-11.1799
M16
G05
M30
