%TF.GenerationSoftware,KiCad,Pcbnew,9.0.7*%
%TF.CreationDate,2026-03-24T07:11:35+00:00*%
%TF.ProjectId,WEASEL_KiCad,57454153-454c-45f4-9b69-4361642e6b69,rev?*%
%TF.SameCoordinates,Original*%
%TF.FileFunction,Soldermask,Bot*%
%TF.FilePolarity,Negative*%
%FSLAX46Y46*%
G04 Gerber Fmt 4.6, Leading zero omitted, Abs format (unit mm)*
G04 Created by KiCad (PCBNEW 9.0.7) date 2026-03-24 07:11:35*
%MOMM*%
%LPD*%
G01*
G04 APERTURE LIST*
%ADD10C,7.000000*%
%ADD11C,4.000000*%
%ADD12C,8.000000*%
%ADD13O,3.300000X25.000000*%
%ADD14C,2.200000*%
G04 APERTURE END LIST*
D10*
%TO.C,REF\u002A\u002A*%
X222000000Y-400770000D03*
%TD*%
D11*
%TO.C,REF\u002A\u002A*%
X271250000Y-342950000D03*
%TD*%
%TO.C,REF\u002A\u002A*%
X303750000Y-342950000D03*
%TD*%
%TO.C,REF\u002A\u002A*%
X233800000Y-245900000D03*
%TD*%
D12*
%TO.C,REF\u002A\u002A*%
X208800000Y-307900000D03*
%TD*%
D10*
%TO.C,REF\u002A\u002A*%
X142000000Y-400770000D03*
%TD*%
%TO.C,REF\u002A\u002A*%
X264500000Y-386270000D03*
%TD*%
%TO.C,REF\u002A\u002A*%
X209500000Y-386520000D03*
%TD*%
%TO.C,REF\u002A\u002A*%
X222000000Y-386270000D03*
%TD*%
%TO.C,REF\u002A\u002A*%
X99500000Y-400770000D03*
%TD*%
D11*
%TO.C,REF\u002A\u002A*%
X316500000Y-237000000D03*
%TD*%
%TO.C,REF\u002A\u002A*%
X163750000Y-228250000D03*
%TD*%
%TO.C,*%
X266250000Y-228420000D03*
%TD*%
D12*
%TO.C,REF\u002A\u002A*%
X176200000Y-308000000D03*
%TD*%
D10*
%TO.C,REF\u002A\u002A*%
X194500000Y-392770000D03*
%TD*%
%TO.C,REF\u002A\u002A*%
X209500000Y-401020000D03*
%TD*%
%TO.C,REF\u002A\u002A*%
X264500000Y-400770000D03*
%TD*%
%TO.C,REF\u002A\u002A*%
X249500000Y-392770000D03*
%TD*%
%TO.C,REF\u002A\u002A*%
X114500000Y-393270000D03*
%TD*%
D12*
%TO.C,REF\u002A\u002A*%
X323800000Y-308000000D03*
%TD*%
D11*
%TO.C,REF\u002A\u002A*%
X141250000Y-307950000D03*
%TD*%
D10*
%TO.C,REF\u002A\u002A*%
X182000000Y-392770000D03*
%TD*%
D11*
%TO.C,REF\u002A\u002A*%
X291500000Y-237000000D03*
%TD*%
%TO.C,REF\u002A\u002A*%
X271250000Y-307950000D03*
%TD*%
%TO.C,REF\u002A\u002A*%
X188750000Y-228400000D03*
%TD*%
D10*
%TO.C,REF\u002A\u002A*%
X129500000Y-400770000D03*
%TD*%
%TO.C,REF\u002A\u002A*%
X99500000Y-386270000D03*
%TD*%
%TO.C,REF\u002A\u002A*%
X157000000Y-392770000D03*
%TD*%
D11*
%TO.C,REF\u002A\u002A*%
X303750000Y-308000000D03*
%TD*%
D10*
%TO.C,REF\u002A\u002A*%
X129500000Y-386270000D03*
%TD*%
D11*
%TO.C,*%
X266300000Y-245920000D03*
%TD*%
D12*
%TO.C,REF\u002A\u002A*%
X246200000Y-307900000D03*
%TD*%
D11*
%TO.C,REF\u002A\u002A*%
X233750000Y-228400000D03*
%TD*%
%TO.C,REF\u002A\u002A*%
X271250000Y-325450000D03*
%TD*%
D10*
%TO.C,REF\u002A\u002A*%
X237000000Y-392770000D03*
%TD*%
%TO.C,REF\u002A\u002A*%
X169500000Y-392770000D03*
%TD*%
D11*
%TO.C,REF\u002A\u002A*%
X158750000Y-307950000D03*
%TD*%
D12*
%TO.C,REF\u002A\u002A*%
X323800000Y-338000000D03*
%TD*%
D13*
%TO.C,REF\u002A\u002A*%
X286250000Y-273120000D03*
%TD*%
%TO.C,REF\u002A\u002A*%
X151250000Y-273120000D03*
%TD*%
%TO.C,REF\u002A\u002A*%
X233750000Y-273120000D03*
%TD*%
%TO.C,REF\u002A\u002A*%
X138750000Y-338120000D03*
%TD*%
%TO.C,REF\u002A\u002A*%
X323750000Y-273120000D03*
%TD*%
%TO.C,REF\u002A\u002A*%
X208750000Y-273120000D03*
%TD*%
%TO.C,REF\u002A\u002A*%
X221250000Y-338120000D03*
%TD*%
%TO.C,REF\u002A\u002A*%
X176250000Y-273120000D03*
%TD*%
%TO.C,REF\u002A\u002A*%
X311250000Y-273120000D03*
%TD*%
%TO.C,REF\u002A\u002A*%
X221250000Y-273120000D03*
%TD*%
%TO.C,REF\u002A\u002A*%
X163750000Y-338120000D03*
%TD*%
%TO.C,REF\u002A\u002A*%
X151250000Y-338120000D03*
%TD*%
%TO.C,REF\u002A\u002A*%
X253750000Y-273120000D03*
%TD*%
%TO.C,REF\u002A\u002A*%
X208750000Y-338120000D03*
%TD*%
%TO.C,REF\u002A\u002A*%
X233750000Y-338120000D03*
%TD*%
%TO.C,REF\u002A\u002A*%
X188750000Y-273120000D03*
%TD*%
%TO.C,REF\u002A\u002A*%
X138750000Y-273120000D03*
%TD*%
%TO.C,REF\u002A\u002A*%
X246250000Y-338120000D03*
%TD*%
%TO.C,REF\u002A\u002A*%
X163750000Y-273120000D03*
%TD*%
%TO.C,REF\u002A\u002A*%
X298750000Y-273120000D03*
%TD*%
%TO.C,REF\u002A\u002A*%
X266250000Y-273120000D03*
%TD*%
%TO.C,REF\u002A\u002A*%
X176250000Y-338120000D03*
%TD*%
D14*
%TO.C,REF\u002A\u002A*%
X19500000Y-217000000D03*
%TD*%
%TO.C,REF\u002A\u002A*%
X344500000Y-217000000D03*
%TD*%
%TO.C,REF\u002A\u002A*%
X244500000Y-407000000D03*
%TD*%
%TO.C,REF\u002A\u002A*%
X344500000Y-407000000D03*
%TD*%
%TO.C,REF\u002A\u002A*%
X244500000Y-217000000D03*
%TD*%
%TO.C,REF\u002A\u002A*%
X119500000Y-217000000D03*
%TD*%
%TO.C,REF\u002A\u002A*%
X19500000Y-407000000D03*
%TD*%
%TO.C,REF\u002A\u002A*%
X119500000Y-407000000D03*
%TD*%
D10*
%TO.C,REF\u002A\u002A*%
X176500000Y-246020000D03*
%TD*%
%TO.C,REF\u002A\u002A*%
X151250000Y-245770000D03*
%TD*%
%TO.C,REF\u002A\u002A*%
X163750000Y-245770000D03*
%TD*%
%TO.C,REF\u002A\u002A*%
X138750000Y-245770000D03*
%TD*%
%TO.C,REF\u002A\u002A*%
X188750000Y-246020000D03*
%TD*%
%TO.C,REF\u002A\u002A*%
X142000000Y-386270000D03*
%TD*%
M02*
