%TF.GenerationSoftware,KiCad,Pcbnew,9.0.7*%
%TF.CreationDate,2026-03-24T07:11:35+00:00*%
%TF.ProjectId,WEASEL_KiCad,57454153-454c-45f4-9b69-4361642e6b69,rev?*%
%TF.SameCoordinates,Original*%
%TF.FileFunction,Copper,L1,Top*%
%TF.FilePolarity,Positive*%
%FSLAX46Y46*%
G04 Gerber Fmt 4.6, Leading zero omitted, Abs format (unit mm)*
G04 Created by KiCad (PCBNEW 9.0.7) date 2026-03-24 07:11:35*
%MOMM*%
%LPD*%
G01*
G04 APERTURE LIST*
%TA.AperFunction,ComponentPad*%
%ADD10C,7.000000*%
%TD*%
%TA.AperFunction,ComponentPad*%
%ADD11C,4.000000*%
%TD*%
%TA.AperFunction,ComponentPad*%
%ADD12C,8.000000*%
%TD*%
%TA.AperFunction,ComponentPad*%
%ADD13O,3.300000X25.000000*%
%TD*%
G04 APERTURE END LIST*
D10*
%TO.P,REF\u002A\u002A,*%
%TO.N,*%
X222000000Y-400770000D03*
%TD*%
D11*
%TO.P,REF\u002A\u002A,*%
%TO.N,*%
X271250000Y-342950000D03*
%TD*%
%TO.P,REF\u002A\u002A,*%
%TO.N,*%
X303750000Y-342950000D03*
%TD*%
%TO.P,REF\u002A\u002A,*%
%TO.N,*%
X233800000Y-245900000D03*
%TD*%
D12*
%TO.P,REF\u002A\u002A,*%
%TO.N,*%
X208800000Y-307900000D03*
%TD*%
D10*
%TO.P,REF\u002A\u002A,*%
%TO.N,*%
X142000000Y-400770000D03*
%TD*%
%TO.P,REF\u002A\u002A,*%
%TO.N,*%
X264500000Y-386270000D03*
%TD*%
%TO.P,REF\u002A\u002A,*%
%TO.N,*%
X209500000Y-386520000D03*
%TD*%
%TO.P,REF\u002A\u002A,*%
%TO.N,*%
X222000000Y-386270000D03*
%TD*%
%TO.P,REF\u002A\u002A,*%
%TO.N,*%
X99500000Y-400770000D03*
%TD*%
D11*
%TO.P,REF\u002A\u002A,*%
%TO.N,*%
X316500000Y-237000000D03*
%TD*%
%TO.P,REF\u002A\u002A,*%
%TO.N,*%
X163750000Y-228250000D03*
%TD*%
%TO.P,,*%
%TO.N,*%
X266250000Y-228420000D03*
%TD*%
D12*
%TO.P,REF\u002A\u002A,*%
%TO.N,*%
X176200000Y-308000000D03*
%TD*%
D10*
%TO.P,REF\u002A\u002A,*%
%TO.N,*%
X194500000Y-392770000D03*
%TD*%
%TO.P,REF\u002A\u002A,*%
%TO.N,*%
X209500000Y-401020000D03*
%TD*%
%TO.P,REF\u002A\u002A,*%
%TO.N,*%
X264500000Y-400770000D03*
%TD*%
%TO.P,REF\u002A\u002A,*%
%TO.N,*%
X249500000Y-392770000D03*
%TD*%
%TO.P,REF\u002A\u002A,*%
%TO.N,*%
X114500000Y-393270000D03*
%TD*%
D12*
%TO.P,REF\u002A\u002A,*%
%TO.N,*%
X323800000Y-308000000D03*
%TD*%
D11*
%TO.P,REF\u002A\u002A,*%
%TO.N,*%
X141250000Y-307950000D03*
%TD*%
D10*
%TO.P,REF\u002A\u002A,*%
%TO.N,*%
X182000000Y-392770000D03*
%TD*%
D11*
%TO.P,REF\u002A\u002A,*%
%TO.N,*%
X291500000Y-237000000D03*
%TD*%
%TO.P,REF\u002A\u002A,*%
%TO.N,*%
X271250000Y-307950000D03*
%TD*%
%TO.P,REF\u002A\u002A,*%
%TO.N,*%
X188750000Y-228400000D03*
%TD*%
D10*
%TO.P,REF\u002A\u002A,*%
%TO.N,*%
X129500000Y-400770000D03*
%TD*%
%TO.P,REF\u002A\u002A,*%
%TO.N,*%
X99500000Y-386270000D03*
%TD*%
%TO.P,REF\u002A\u002A,*%
%TO.N,*%
X157000000Y-392770000D03*
%TD*%
D11*
%TO.P,REF\u002A\u002A,*%
%TO.N,*%
X303750000Y-308000000D03*
%TD*%
D10*
%TO.P,REF\u002A\u002A,*%
%TO.N,*%
X129500000Y-386270000D03*
%TD*%
D11*
%TO.P,,*%
%TO.N,*%
X266300000Y-245920000D03*
%TD*%
D12*
%TO.P,REF\u002A\u002A,*%
%TO.N,*%
X246200000Y-307900000D03*
%TD*%
D11*
%TO.P,REF\u002A\u002A,*%
%TO.N,*%
X233750000Y-228400000D03*
%TD*%
%TO.P,REF\u002A\u002A,*%
%TO.N,*%
X271250000Y-325450000D03*
%TD*%
D10*
%TO.P,REF\u002A\u002A,*%
%TO.N,*%
X237000000Y-392770000D03*
%TD*%
%TO.P,REF\u002A\u002A,*%
%TO.N,*%
X169500000Y-392770000D03*
%TD*%
D11*
%TO.P,REF\u002A\u002A,*%
%TO.N,*%
X158750000Y-307950000D03*
%TD*%
D12*
%TO.P,REF\u002A\u002A,*%
%TO.N,*%
X323800000Y-338000000D03*
%TD*%
D13*
%TO.P,REF\u002A\u002A,*%
%TO.N,*%
X286250000Y-273120000D03*
%TD*%
%TO.P,REF\u002A\u002A,*%
%TO.N,*%
X151250000Y-273120000D03*
%TD*%
%TO.P,REF\u002A\u002A,*%
%TO.N,*%
X233750000Y-273120000D03*
%TD*%
%TO.P,REF\u002A\u002A,*%
%TO.N,*%
X138750000Y-338120000D03*
%TD*%
%TO.P,REF\u002A\u002A,*%
%TO.N,*%
X323750000Y-273120000D03*
%TD*%
%TO.P,REF\u002A\u002A,*%
%TO.N,*%
X208750000Y-273120000D03*
%TD*%
%TO.P,REF\u002A\u002A,*%
%TO.N,*%
X221250000Y-338120000D03*
%TD*%
%TO.P,REF\u002A\u002A,*%
%TO.N,*%
X176250000Y-273120000D03*
%TD*%
%TO.P,REF\u002A\u002A,*%
%TO.N,*%
X311250000Y-273120000D03*
%TD*%
%TO.P,REF\u002A\u002A,*%
%TO.N,*%
X221250000Y-273120000D03*
%TD*%
%TO.P,REF\u002A\u002A,*%
%TO.N,*%
X163750000Y-338120000D03*
%TD*%
%TO.P,REF\u002A\u002A,*%
%TO.N,*%
X151250000Y-338120000D03*
%TD*%
%TO.P,REF\u002A\u002A,*%
%TO.N,*%
X253750000Y-273120000D03*
%TD*%
%TO.P,REF\u002A\u002A,*%
%TO.N,*%
X208750000Y-338120000D03*
%TD*%
%TO.P,REF\u002A\u002A,*%
%TO.N,*%
X233750000Y-338120000D03*
%TD*%
%TO.P,REF\u002A\u002A,*%
%TO.N,*%
X188750000Y-273120000D03*
%TD*%
%TO.P,REF\u002A\u002A,*%
%TO.N,*%
X138750000Y-273120000D03*
%TD*%
%TO.P,REF\u002A\u002A,*%
%TO.N,*%
X246250000Y-338120000D03*
%TD*%
%TO.P,REF\u002A\u002A,*%
%TO.N,*%
X163750000Y-273120000D03*
%TD*%
%TO.P,REF\u002A\u002A,*%
%TO.N,*%
X298750000Y-273120000D03*
%TD*%
%TO.P,REF\u002A\u002A,*%
%TO.N,*%
X266250000Y-273120000D03*
%TD*%
%TO.P,REF\u002A\u002A,*%
%TO.N,*%
X176250000Y-338120000D03*
%TD*%
D10*
%TO.P,REF\u002A\u002A,*%
%TO.N,*%
X176500000Y-246020000D03*
%TD*%
%TO.P,REF\u002A\u002A,*%
%TO.N,*%
X151250000Y-245770000D03*
%TD*%
%TO.P,REF\u002A\u002A,*%
%TO.N,*%
X163750000Y-245770000D03*
%TD*%
%TO.P,REF\u002A\u002A,*%
%TO.N,*%
X138750000Y-245770000D03*
%TD*%
%TO.P,REF\u002A\u002A,*%
%TO.N,*%
X188750000Y-246020000D03*
%TD*%
%TO.P,REF\u002A\u002A,*%
%TO.N,*%
X142000000Y-386270000D03*
%TD*%
%TA.AperFunction,Conductor*%
%TO.N,GND*%
G36*
X345503032Y-212500648D02*
G01*
X345836929Y-212517052D01*
X345849037Y-212518245D01*
X345952146Y-212533539D01*
X346176699Y-212566849D01*
X346188617Y-212569219D01*
X346509951Y-212649709D01*
X346521588Y-212653240D01*
X346592806Y-212678722D01*
X346833467Y-212764832D01*
X346844688Y-212769479D01*
X347144163Y-212911120D01*
X347154871Y-212916844D01*
X347438988Y-213087137D01*
X347449106Y-213093897D01*
X347715170Y-213291224D01*
X347724576Y-213298944D01*
X347970013Y-213521395D01*
X347978604Y-213529986D01*
X348165755Y-213736475D01*
X348201055Y-213775423D01*
X348208775Y-213784829D01*
X348406102Y-214050893D01*
X348412862Y-214061011D01*
X348541776Y-214276092D01*
X348583148Y-214345116D01*
X348588885Y-214355848D01*
X348730514Y-214655297D01*
X348735170Y-214666540D01*
X348846759Y-214978411D01*
X348850292Y-214990055D01*
X348930777Y-215311369D01*
X348933151Y-215323305D01*
X348981754Y-215650962D01*
X348982947Y-215663071D01*
X348999351Y-215996966D01*
X348999500Y-216003051D01*
X348999500Y-407996948D01*
X348999351Y-408003033D01*
X348982947Y-408336928D01*
X348981754Y-408349037D01*
X348933151Y-408676694D01*
X348930777Y-408688630D01*
X348850292Y-409009944D01*
X348846759Y-409021588D01*
X348735170Y-409333459D01*
X348730514Y-409344702D01*
X348588885Y-409644151D01*
X348583148Y-409654883D01*
X348412862Y-409938988D01*
X348406102Y-409949106D01*
X348208775Y-410215170D01*
X348201055Y-410224576D01*
X347978611Y-410470006D01*
X347970006Y-410478611D01*
X347724576Y-410701055D01*
X347715170Y-410708775D01*
X347449106Y-410906102D01*
X347438988Y-410912862D01*
X347154883Y-411083148D01*
X347144151Y-411088885D01*
X346844702Y-411230514D01*
X346833459Y-411235170D01*
X346521588Y-411346759D01*
X346509944Y-411350292D01*
X346188630Y-411430777D01*
X346176694Y-411433151D01*
X345849037Y-411481754D01*
X345836928Y-411482947D01*
X345521989Y-411498419D01*
X345503031Y-411499351D01*
X345496949Y-411499500D01*
X18503051Y-411499500D01*
X18496968Y-411499351D01*
X18476900Y-411498365D01*
X18163071Y-411482947D01*
X18150962Y-411481754D01*
X17823305Y-411433151D01*
X17811369Y-411430777D01*
X17490055Y-411350292D01*
X17478411Y-411346759D01*
X17166540Y-411235170D01*
X17155301Y-411230515D01*
X16855844Y-411088883D01*
X16845121Y-411083150D01*
X16561011Y-410912862D01*
X16550893Y-410906102D01*
X16284829Y-410708775D01*
X16275423Y-410701055D01*
X16236475Y-410665755D01*
X16029986Y-410478604D01*
X16021395Y-410470013D01*
X15798944Y-410224576D01*
X15791224Y-410215170D01*
X15593897Y-409949106D01*
X15587137Y-409938988D01*
X15416844Y-409654871D01*
X15411120Y-409644163D01*
X15269479Y-409344688D01*
X15264829Y-409333459D01*
X15153240Y-409021588D01*
X15149707Y-409009944D01*
X15140958Y-408975015D01*
X15069219Y-408688617D01*
X15066848Y-408676694D01*
X15018245Y-408349037D01*
X15017052Y-408336927D01*
X15000649Y-408003032D01*
X15000500Y-407996948D01*
X15000500Y-406893713D01*
X18149500Y-406893713D01*
X18149500Y-407106286D01*
X18182753Y-407316239D01*
X18248444Y-407518414D01*
X18344951Y-407707820D01*
X18469890Y-407879786D01*
X18620213Y-408030109D01*
X18792179Y-408155048D01*
X18792181Y-408155049D01*
X18792184Y-408155051D01*
X18981588Y-408251557D01*
X19183757Y-408317246D01*
X19393713Y-408350500D01*
X19393714Y-408350500D01*
X19606286Y-408350500D01*
X19606287Y-408350500D01*
X19816243Y-408317246D01*
X20018412Y-408251557D01*
X20207816Y-408155051D01*
X20229789Y-408139086D01*
X20379786Y-408030109D01*
X20379788Y-408030106D01*
X20379792Y-408030104D01*
X20530104Y-407879792D01*
X20530106Y-407879788D01*
X20530109Y-407879786D01*
X20655048Y-407707820D01*
X20655047Y-407707820D01*
X20655051Y-407707816D01*
X20751557Y-407518412D01*
X20817246Y-407316243D01*
X20850500Y-407106287D01*
X20850500Y-406893713D01*
X118149500Y-406893713D01*
X118149500Y-407106286D01*
X118182753Y-407316239D01*
X118248444Y-407518414D01*
X118344951Y-407707820D01*
X118469890Y-407879786D01*
X118620213Y-408030109D01*
X118792179Y-408155048D01*
X118792181Y-408155049D01*
X118792184Y-408155051D01*
X118981588Y-408251557D01*
X119183757Y-408317246D01*
X119393713Y-408350500D01*
X119393714Y-408350500D01*
X119606286Y-408350500D01*
X119606287Y-408350500D01*
X119816243Y-408317246D01*
X120018412Y-408251557D01*
X120207816Y-408155051D01*
X120229789Y-408139086D01*
X120379786Y-408030109D01*
X120379788Y-408030106D01*
X120379792Y-408030104D01*
X120530104Y-407879792D01*
X120530106Y-407879788D01*
X120530109Y-407879786D01*
X120655048Y-407707820D01*
X120655047Y-407707820D01*
X120655051Y-407707816D01*
X120751557Y-407518412D01*
X120817246Y-407316243D01*
X120850500Y-407106287D01*
X120850500Y-406893713D01*
X243149500Y-406893713D01*
X243149500Y-407106286D01*
X243182753Y-407316239D01*
X243248444Y-407518414D01*
X243344951Y-407707820D01*
X243469890Y-407879786D01*
X243620213Y-408030109D01*
X243792179Y-408155048D01*
X243792181Y-408155049D01*
X243792184Y-408155051D01*
X243981588Y-408251557D01*
X244183757Y-408317246D01*
X244393713Y-408350500D01*
X244393714Y-408350500D01*
X244606286Y-408350500D01*
X244606287Y-408350500D01*
X244816243Y-408317246D01*
X245018412Y-408251557D01*
X245207816Y-408155051D01*
X245229789Y-408139086D01*
X245379786Y-408030109D01*
X245379788Y-408030106D01*
X245379792Y-408030104D01*
X245530104Y-407879792D01*
X245530106Y-407879788D01*
X245530109Y-407879786D01*
X245655048Y-407707820D01*
X245655047Y-407707820D01*
X245655051Y-407707816D01*
X245751557Y-407518412D01*
X245817246Y-407316243D01*
X245850500Y-407106287D01*
X245850500Y-406893713D01*
X343149500Y-406893713D01*
X343149500Y-407106286D01*
X343182753Y-407316239D01*
X343248444Y-407518414D01*
X343344951Y-407707820D01*
X343469890Y-407879786D01*
X343620213Y-408030109D01*
X343792179Y-408155048D01*
X343792181Y-408155049D01*
X343792184Y-408155051D01*
X343981588Y-408251557D01*
X344183757Y-408317246D01*
X344393713Y-408350500D01*
X344393714Y-408350500D01*
X344606286Y-408350500D01*
X344606287Y-408350500D01*
X344816243Y-408317246D01*
X345018412Y-408251557D01*
X345207816Y-408155051D01*
X345229789Y-408139086D01*
X345379786Y-408030109D01*
X345379788Y-408030106D01*
X345379792Y-408030104D01*
X345530104Y-407879792D01*
X345530106Y-407879788D01*
X345530109Y-407879786D01*
X345655048Y-407707820D01*
X345655047Y-407707820D01*
X345655051Y-407707816D01*
X345751557Y-407518412D01*
X345817246Y-407316243D01*
X345850500Y-407106287D01*
X345850500Y-406893713D01*
X345817246Y-406683757D01*
X345751557Y-406481588D01*
X345655051Y-406292184D01*
X345655049Y-406292181D01*
X345655048Y-406292179D01*
X345530109Y-406120213D01*
X345379786Y-405969890D01*
X345207820Y-405844951D01*
X345018414Y-405748444D01*
X345018413Y-405748443D01*
X345018412Y-405748443D01*
X344816243Y-405682754D01*
X344816241Y-405682753D01*
X344816240Y-405682753D01*
X344654957Y-405657208D01*
X344606287Y-405649500D01*
X344393713Y-405649500D01*
X344345042Y-405657208D01*
X344183760Y-405682753D01*
X343981585Y-405748444D01*
X343792179Y-405844951D01*
X343620213Y-405969890D01*
X343469890Y-406120213D01*
X343344951Y-406292179D01*
X343248444Y-406481585D01*
X343182753Y-406683760D01*
X343149500Y-406893713D01*
X245850500Y-406893713D01*
X245817246Y-406683757D01*
X245751557Y-406481588D01*
X245655051Y-406292184D01*
X245655049Y-406292181D01*
X245655048Y-406292179D01*
X245530109Y-406120213D01*
X245379786Y-405969890D01*
X245207820Y-405844951D01*
X245018414Y-405748444D01*
X245018413Y-405748443D01*
X245018412Y-405748443D01*
X244816243Y-405682754D01*
X244816241Y-405682753D01*
X244816240Y-405682753D01*
X244654957Y-405657208D01*
X244606287Y-405649500D01*
X244393713Y-405649500D01*
X244345042Y-405657208D01*
X244183760Y-405682753D01*
X243981585Y-405748444D01*
X243792179Y-405844951D01*
X243620213Y-405969890D01*
X243469890Y-406120213D01*
X243344951Y-406292179D01*
X243248444Y-406481585D01*
X243182753Y-406683760D01*
X243149500Y-406893713D01*
X120850500Y-406893713D01*
X120817246Y-406683757D01*
X120751557Y-406481588D01*
X120655051Y-406292184D01*
X120655049Y-406292181D01*
X120655048Y-406292179D01*
X120530109Y-406120213D01*
X120379786Y-405969890D01*
X120207820Y-405844951D01*
X120018414Y-405748444D01*
X120018413Y-405748443D01*
X120018412Y-405748443D01*
X119816243Y-405682754D01*
X119816241Y-405682753D01*
X119816240Y-405682753D01*
X119654957Y-405657208D01*
X119606287Y-405649500D01*
X119393713Y-405649500D01*
X119345042Y-405657208D01*
X119183760Y-405682753D01*
X118981585Y-405748444D01*
X118792179Y-405844951D01*
X118620213Y-405969890D01*
X118469890Y-406120213D01*
X118344951Y-406292179D01*
X118248444Y-406481585D01*
X118182753Y-406683760D01*
X118149500Y-406893713D01*
X20850500Y-406893713D01*
X20817246Y-406683757D01*
X20751557Y-406481588D01*
X20655051Y-406292184D01*
X20655049Y-406292181D01*
X20655048Y-406292179D01*
X20530109Y-406120213D01*
X20379786Y-405969890D01*
X20207820Y-405844951D01*
X20018414Y-405748444D01*
X20018413Y-405748443D01*
X20018412Y-405748443D01*
X19816243Y-405682754D01*
X19816241Y-405682753D01*
X19816240Y-405682753D01*
X19654957Y-405657208D01*
X19606287Y-405649500D01*
X19393713Y-405649500D01*
X19345042Y-405657208D01*
X19183760Y-405682753D01*
X18981585Y-405748444D01*
X18792179Y-405844951D01*
X18620213Y-405969890D01*
X18469890Y-406120213D01*
X18344951Y-406292179D01*
X18248444Y-406481585D01*
X18182753Y-406683760D01*
X18149500Y-406893713D01*
X15000500Y-406893713D01*
X15000500Y-400573471D01*
X95499500Y-400573471D01*
X95499500Y-400966528D01*
X95538026Y-401357702D01*
X95614704Y-401743194D01*
X95614707Y-401743205D01*
X95728810Y-402119354D01*
X95879230Y-402482499D01*
X95879232Y-402482504D01*
X96064511Y-402829137D01*
X96064522Y-402829155D01*
X96282887Y-403155960D01*
X96282897Y-403155974D01*
X96532254Y-403459817D01*
X96810182Y-403737745D01*
X96810187Y-403737749D01*
X96810188Y-403737750D01*
X97114031Y-403987107D01*
X97440851Y-404205482D01*
X97440860Y-404205487D01*
X97440862Y-404205488D01*
X97787495Y-404390767D01*
X97787497Y-404390767D01*
X97787503Y-404390771D01*
X98150647Y-404541190D01*
X98526785Y-404655290D01*
X98526791Y-404655291D01*
X98526794Y-404655292D01*
X98526805Y-404655295D01*
X98912297Y-404731973D01*
X99303468Y-404770500D01*
X99303471Y-404770500D01*
X99696529Y-404770500D01*
X99696532Y-404770500D01*
X100087703Y-404731973D01*
X100162748Y-404717045D01*
X100473194Y-404655295D01*
X100473205Y-404655292D01*
X100473205Y-404655291D01*
X100473215Y-404655290D01*
X100849353Y-404541190D01*
X101212497Y-404390771D01*
X101559149Y-404205482D01*
X101885969Y-403987107D01*
X102189812Y-403737750D01*
X102467750Y-403459812D01*
X102717107Y-403155969D01*
X102935482Y-402829149D01*
X103120771Y-402482497D01*
X103271190Y-402119353D01*
X103385290Y-401743215D01*
X103385292Y-401743205D01*
X103385295Y-401743194D01*
X103461973Y-401357702D01*
X103475877Y-401216532D01*
X103500500Y-400966532D01*
X103500500Y-400573471D01*
X125499500Y-400573471D01*
X125499500Y-400966528D01*
X125538026Y-401357702D01*
X125614704Y-401743194D01*
X125614707Y-401743205D01*
X125728810Y-402119354D01*
X125879230Y-402482499D01*
X125879232Y-402482504D01*
X126064511Y-402829137D01*
X126064522Y-402829155D01*
X126282887Y-403155960D01*
X126282897Y-403155974D01*
X126532254Y-403459817D01*
X126810182Y-403737745D01*
X126810187Y-403737749D01*
X126810188Y-403737750D01*
X127114031Y-403987107D01*
X127440851Y-404205482D01*
X127440860Y-404205487D01*
X127440862Y-404205488D01*
X127787495Y-404390767D01*
X127787497Y-404390767D01*
X127787503Y-404390771D01*
X128150647Y-404541190D01*
X128526785Y-404655290D01*
X128526791Y-404655291D01*
X128526794Y-404655292D01*
X128526805Y-404655295D01*
X128912297Y-404731973D01*
X129303468Y-404770500D01*
X129303471Y-404770500D01*
X129696529Y-404770500D01*
X129696532Y-404770500D01*
X130087703Y-404731973D01*
X130162748Y-404717045D01*
X130473194Y-404655295D01*
X130473205Y-404655292D01*
X130473205Y-404655291D01*
X130473215Y-404655290D01*
X130849353Y-404541190D01*
X131212497Y-404390771D01*
X131559149Y-404205482D01*
X131885969Y-403987107D01*
X132189812Y-403737750D01*
X132467750Y-403459812D01*
X132717107Y-403155969D01*
X132935482Y-402829149D01*
X133120771Y-402482497D01*
X133271190Y-402119353D01*
X133385290Y-401743215D01*
X133385292Y-401743205D01*
X133385295Y-401743194D01*
X133461973Y-401357702D01*
X133475877Y-401216532D01*
X133500500Y-400966532D01*
X133500500Y-400573471D01*
X137999500Y-400573471D01*
X137999500Y-400966528D01*
X138038026Y-401357702D01*
X138114704Y-401743194D01*
X138114707Y-401743205D01*
X138228810Y-402119354D01*
X138379230Y-402482499D01*
X138379232Y-402482504D01*
X138564511Y-402829137D01*
X138564522Y-402829155D01*
X138782887Y-403155960D01*
X138782897Y-403155974D01*
X139032254Y-403459817D01*
X139310182Y-403737745D01*
X139310187Y-403737749D01*
X139310188Y-403737750D01*
X139614031Y-403987107D01*
X139940851Y-404205482D01*
X139940860Y-404205487D01*
X139940862Y-404205488D01*
X140287495Y-404390767D01*
X140287497Y-404390767D01*
X140287503Y-404390771D01*
X140650647Y-404541190D01*
X141026785Y-404655290D01*
X141026791Y-404655291D01*
X141026794Y-404655292D01*
X141026805Y-404655295D01*
X141412297Y-404731973D01*
X141803468Y-404770500D01*
X141803471Y-404770500D01*
X142196529Y-404770500D01*
X142196532Y-404770500D01*
X142587703Y-404731973D01*
X142662748Y-404717045D01*
X142973194Y-404655295D01*
X142973205Y-404655292D01*
X142973205Y-404655291D01*
X142973215Y-404655290D01*
X143349353Y-404541190D01*
X143712497Y-404390771D01*
X144059149Y-404205482D01*
X144385969Y-403987107D01*
X144689812Y-403737750D01*
X144967750Y-403459812D01*
X145217107Y-403155969D01*
X145435482Y-402829149D01*
X145620771Y-402482497D01*
X145771190Y-402119353D01*
X145885290Y-401743215D01*
X145885292Y-401743205D01*
X145885295Y-401743194D01*
X145961973Y-401357702D01*
X145975877Y-401216532D01*
X146000500Y-400966532D01*
X146000500Y-400823471D01*
X205499500Y-400823471D01*
X205499500Y-401216528D01*
X205538026Y-401607702D01*
X205614704Y-401993194D01*
X205614707Y-401993205D01*
X205728810Y-402369354D01*
X205879230Y-402732499D01*
X205879232Y-402732504D01*
X206064511Y-403079137D01*
X206064522Y-403079155D01*
X206282887Y-403405960D01*
X206282897Y-403405974D01*
X206532254Y-403709817D01*
X206810182Y-403987745D01*
X206810187Y-403987749D01*
X206810188Y-403987750D01*
X207114031Y-404237107D01*
X207440851Y-404455482D01*
X207440860Y-404455487D01*
X207440862Y-404455488D01*
X207787495Y-404640767D01*
X207787497Y-404640767D01*
X207787503Y-404640771D01*
X208150647Y-404791190D01*
X208526785Y-404905290D01*
X208526791Y-404905291D01*
X208526794Y-404905292D01*
X208526805Y-404905295D01*
X208912297Y-404981973D01*
X209303468Y-405020500D01*
X209303471Y-405020500D01*
X209696529Y-405020500D01*
X209696532Y-405020500D01*
X210087703Y-404981973D01*
X210162748Y-404967045D01*
X210473194Y-404905295D01*
X210473205Y-404905292D01*
X210473205Y-404905291D01*
X210473215Y-404905290D01*
X210849353Y-404791190D01*
X211212497Y-404640771D01*
X211559149Y-404455482D01*
X211885969Y-404237107D01*
X212189812Y-403987750D01*
X212467750Y-403709812D01*
X212717107Y-403405969D01*
X212935482Y-403079149D01*
X213120771Y-402732497D01*
X213271190Y-402369353D01*
X213385290Y-401993215D01*
X213385292Y-401993205D01*
X213385295Y-401993194D01*
X213461973Y-401607702D01*
X213500500Y-401216528D01*
X213500500Y-400823471D01*
X213476774Y-400582578D01*
X213475877Y-400573471D01*
X217999500Y-400573471D01*
X217999500Y-400966528D01*
X218038026Y-401357702D01*
X218114704Y-401743194D01*
X218114707Y-401743205D01*
X218228810Y-402119354D01*
X218379230Y-402482499D01*
X218379232Y-402482504D01*
X218564511Y-402829137D01*
X218564522Y-402829155D01*
X218782887Y-403155960D01*
X218782897Y-403155974D01*
X219032254Y-403459817D01*
X219310182Y-403737745D01*
X219310187Y-403737749D01*
X219310188Y-403737750D01*
X219614031Y-403987107D01*
X219940851Y-404205482D01*
X219940860Y-404205487D01*
X219940862Y-404205488D01*
X220287495Y-404390767D01*
X220287497Y-404390767D01*
X220287503Y-404390771D01*
X220650647Y-404541190D01*
X221026785Y-404655290D01*
X221026791Y-404655291D01*
X221026794Y-404655292D01*
X221026805Y-404655295D01*
X221412297Y-404731973D01*
X221803468Y-404770500D01*
X221803471Y-404770500D01*
X222196529Y-404770500D01*
X222196532Y-404770500D01*
X222587703Y-404731973D01*
X222662748Y-404717045D01*
X222973194Y-404655295D01*
X222973205Y-404655292D01*
X222973205Y-404655291D01*
X222973215Y-404655290D01*
X223349353Y-404541190D01*
X223712497Y-404390771D01*
X224059149Y-404205482D01*
X224385969Y-403987107D01*
X224689812Y-403737750D01*
X224967750Y-403459812D01*
X225217107Y-403155969D01*
X225435482Y-402829149D01*
X225620771Y-402482497D01*
X225771190Y-402119353D01*
X225885290Y-401743215D01*
X225885292Y-401743205D01*
X225885295Y-401743194D01*
X225961973Y-401357702D01*
X225975877Y-401216532D01*
X226000500Y-400966532D01*
X226000500Y-400573471D01*
X260499500Y-400573471D01*
X260499500Y-400966528D01*
X260538026Y-401357702D01*
X260614704Y-401743194D01*
X260614707Y-401743205D01*
X260728810Y-402119354D01*
X260879230Y-402482499D01*
X260879232Y-402482504D01*
X261064511Y-402829137D01*
X261064522Y-402829155D01*
X261282887Y-403155960D01*
X261282897Y-403155974D01*
X261532254Y-403459817D01*
X261810182Y-403737745D01*
X261810187Y-403737749D01*
X261810188Y-403737750D01*
X262114031Y-403987107D01*
X262440851Y-404205482D01*
X262440860Y-404205487D01*
X262440862Y-404205488D01*
X262787495Y-404390767D01*
X262787497Y-404390767D01*
X262787503Y-404390771D01*
X263150647Y-404541190D01*
X263526785Y-404655290D01*
X263526791Y-404655291D01*
X263526794Y-404655292D01*
X263526805Y-404655295D01*
X263912297Y-404731973D01*
X264303468Y-404770500D01*
X264303471Y-404770500D01*
X264696529Y-404770500D01*
X264696532Y-404770500D01*
X265087703Y-404731973D01*
X265162748Y-404717045D01*
X265473194Y-404655295D01*
X265473205Y-404655292D01*
X265473205Y-404655291D01*
X265473215Y-404655290D01*
X265849353Y-404541190D01*
X266212497Y-404390771D01*
X266559149Y-404205482D01*
X266885969Y-403987107D01*
X267189812Y-403737750D01*
X267467750Y-403459812D01*
X267717107Y-403155969D01*
X267935482Y-402829149D01*
X268120771Y-402482497D01*
X268271190Y-402119353D01*
X268385290Y-401743215D01*
X268385292Y-401743205D01*
X268385295Y-401743194D01*
X268461973Y-401357702D01*
X268475877Y-401216532D01*
X268500500Y-400966532D01*
X268500500Y-400573468D01*
X268461973Y-400182297D01*
X268435018Y-400046785D01*
X268385295Y-399796805D01*
X268385292Y-399796794D01*
X268385291Y-399796791D01*
X268385290Y-399796785D01*
X268271190Y-399420647D01*
X268120771Y-399057503D01*
X268069115Y-398960862D01*
X267935488Y-398710862D01*
X267935487Y-398710860D01*
X267935482Y-398710851D01*
X267717107Y-398384031D01*
X267467750Y-398080188D01*
X267467749Y-398080187D01*
X267467745Y-398080182D01*
X267189817Y-397802254D01*
X266885974Y-397552897D01*
X266885973Y-397552896D01*
X266885969Y-397552893D01*
X266559149Y-397334518D01*
X266559144Y-397334515D01*
X266559137Y-397334511D01*
X266212504Y-397149232D01*
X266212499Y-397149230D01*
X266177437Y-397134707D01*
X265992316Y-397058027D01*
X265849354Y-396998810D01*
X265473205Y-396884707D01*
X265473194Y-396884704D01*
X265087702Y-396808026D01*
X264793089Y-396779010D01*
X264696532Y-396769500D01*
X264303468Y-396769500D01*
X264214251Y-396778287D01*
X263912297Y-396808026D01*
X263526805Y-396884704D01*
X263526794Y-396884707D01*
X263150645Y-396998810D01*
X262787500Y-397149230D01*
X262787495Y-397149232D01*
X262440862Y-397334511D01*
X262440844Y-397334522D01*
X262114039Y-397552887D01*
X262114025Y-397552897D01*
X261810182Y-397802254D01*
X261532254Y-398080182D01*
X261282897Y-398384025D01*
X261282887Y-398384039D01*
X261064522Y-398710844D01*
X261064511Y-398710862D01*
X260879232Y-399057495D01*
X260879230Y-399057500D01*
X260728810Y-399420645D01*
X260614707Y-399796794D01*
X260614704Y-399796805D01*
X260538026Y-400182297D01*
X260499500Y-400573471D01*
X226000500Y-400573471D01*
X226000500Y-400573468D01*
X225961973Y-400182297D01*
X225935018Y-400046785D01*
X225885295Y-399796805D01*
X225885292Y-399796794D01*
X225885291Y-399796791D01*
X225885290Y-399796785D01*
X225771190Y-399420647D01*
X225620771Y-399057503D01*
X225569115Y-398960862D01*
X225435488Y-398710862D01*
X225435487Y-398710860D01*
X225435482Y-398710851D01*
X225217107Y-398384031D01*
X224967750Y-398080188D01*
X224967749Y-398080187D01*
X224967745Y-398080182D01*
X224689817Y-397802254D01*
X224385974Y-397552897D01*
X224385973Y-397552896D01*
X224385969Y-397552893D01*
X224059149Y-397334518D01*
X224059144Y-397334515D01*
X224059137Y-397334511D01*
X223712504Y-397149232D01*
X223712499Y-397149230D01*
X223677437Y-397134707D01*
X223492316Y-397058027D01*
X223349354Y-396998810D01*
X222973205Y-396884707D01*
X222973194Y-396884704D01*
X222587702Y-396808026D01*
X222293089Y-396779010D01*
X222196532Y-396769500D01*
X221803468Y-396769500D01*
X221714251Y-396778287D01*
X221412297Y-396808026D01*
X221026805Y-396884704D01*
X221026794Y-396884707D01*
X220650645Y-396998810D01*
X220287500Y-397149230D01*
X220287495Y-397149232D01*
X219940862Y-397334511D01*
X219940844Y-397334522D01*
X219614039Y-397552887D01*
X219614025Y-397552897D01*
X219310182Y-397802254D01*
X219032254Y-398080182D01*
X218782897Y-398384025D01*
X218782887Y-398384039D01*
X218564522Y-398710844D01*
X218564511Y-398710862D01*
X218379232Y-399057495D01*
X218379230Y-399057500D01*
X218228810Y-399420645D01*
X218114707Y-399796794D01*
X218114704Y-399796805D01*
X218038026Y-400182297D01*
X217999500Y-400573471D01*
X213475877Y-400573471D01*
X213461973Y-400432297D01*
X213385295Y-400046805D01*
X213385292Y-400046794D01*
X213385291Y-400046791D01*
X213385290Y-400046785D01*
X213271190Y-399670647D01*
X213120771Y-399307503D01*
X212987143Y-399057503D01*
X212935488Y-398960862D01*
X212935487Y-398960860D01*
X212935482Y-398960851D01*
X212717107Y-398634031D01*
X212467750Y-398330188D01*
X212467749Y-398330187D01*
X212467745Y-398330182D01*
X212189817Y-398052254D01*
X211885974Y-397802897D01*
X211885973Y-397802896D01*
X211885969Y-397802893D01*
X211559149Y-397584518D01*
X211559144Y-397584515D01*
X211559137Y-397584511D01*
X211212504Y-397399232D01*
X211212499Y-397399230D01*
X210849354Y-397248810D01*
X210473205Y-397134707D01*
X210473194Y-397134704D01*
X210087702Y-397058026D01*
X209793089Y-397029010D01*
X209696532Y-397019500D01*
X209303468Y-397019500D01*
X209214251Y-397028287D01*
X208912297Y-397058026D01*
X208526805Y-397134704D01*
X208526794Y-397134707D01*
X208150645Y-397248810D01*
X207787500Y-397399230D01*
X207787495Y-397399232D01*
X207440862Y-397584511D01*
X207440844Y-397584522D01*
X207114039Y-397802887D01*
X207114025Y-397802897D01*
X206810182Y-398052254D01*
X206532254Y-398330182D01*
X206282897Y-398634025D01*
X206282887Y-398634039D01*
X206064522Y-398960844D01*
X206064511Y-398960862D01*
X205879232Y-399307495D01*
X205879230Y-399307500D01*
X205728810Y-399670645D01*
X205614707Y-400046794D01*
X205614704Y-400046805D01*
X205538026Y-400432297D01*
X205499500Y-400823471D01*
X146000500Y-400823471D01*
X146000500Y-400573468D01*
X145961973Y-400182297D01*
X145935018Y-400046785D01*
X145885295Y-399796805D01*
X145885292Y-399796794D01*
X145885291Y-399796791D01*
X145885290Y-399796785D01*
X145771190Y-399420647D01*
X145620771Y-399057503D01*
X145569115Y-398960862D01*
X145435488Y-398710862D01*
X145435487Y-398710860D01*
X145435482Y-398710851D01*
X145217107Y-398384031D01*
X144967750Y-398080188D01*
X144967749Y-398080187D01*
X144967745Y-398080182D01*
X144689817Y-397802254D01*
X144385974Y-397552897D01*
X144385973Y-397552896D01*
X144385969Y-397552893D01*
X144059149Y-397334518D01*
X144059144Y-397334515D01*
X144059137Y-397334511D01*
X143712504Y-397149232D01*
X143712499Y-397149230D01*
X143677437Y-397134707D01*
X143492316Y-397058027D01*
X143349354Y-396998810D01*
X142973205Y-396884707D01*
X142973194Y-396884704D01*
X142587702Y-396808026D01*
X142293089Y-396779010D01*
X142196532Y-396769500D01*
X141803468Y-396769500D01*
X141714251Y-396778287D01*
X141412297Y-396808026D01*
X141026805Y-396884704D01*
X141026794Y-396884707D01*
X140650645Y-396998810D01*
X140287500Y-397149230D01*
X140287495Y-397149232D01*
X139940862Y-397334511D01*
X139940844Y-397334522D01*
X139614039Y-397552887D01*
X139614025Y-397552897D01*
X139310182Y-397802254D01*
X139032254Y-398080182D01*
X138782897Y-398384025D01*
X138782887Y-398384039D01*
X138564522Y-398710844D01*
X138564511Y-398710862D01*
X138379232Y-399057495D01*
X138379230Y-399057500D01*
X138228810Y-399420645D01*
X138114707Y-399796794D01*
X138114704Y-399796805D01*
X138038026Y-400182297D01*
X137999500Y-400573471D01*
X133500500Y-400573471D01*
X133500500Y-400573468D01*
X133461973Y-400182297D01*
X133435018Y-400046785D01*
X133385295Y-399796805D01*
X133385292Y-399796794D01*
X133385291Y-399796791D01*
X133385290Y-399796785D01*
X133271190Y-399420647D01*
X133120771Y-399057503D01*
X133069115Y-398960862D01*
X132935488Y-398710862D01*
X132935487Y-398710860D01*
X132935482Y-398710851D01*
X132717107Y-398384031D01*
X132467750Y-398080188D01*
X132467749Y-398080187D01*
X132467745Y-398080182D01*
X132189817Y-397802254D01*
X131885974Y-397552897D01*
X131885973Y-397552896D01*
X131885969Y-397552893D01*
X131559149Y-397334518D01*
X131559144Y-397334515D01*
X131559137Y-397334511D01*
X131212504Y-397149232D01*
X131212499Y-397149230D01*
X131177437Y-397134707D01*
X130992316Y-397058027D01*
X130849354Y-396998810D01*
X130473205Y-396884707D01*
X130473194Y-396884704D01*
X130087702Y-396808026D01*
X129793089Y-396779010D01*
X129696532Y-396769500D01*
X129303468Y-396769500D01*
X129214251Y-396778287D01*
X128912297Y-396808026D01*
X128526805Y-396884704D01*
X128526794Y-396884707D01*
X128150645Y-396998810D01*
X127787500Y-397149230D01*
X127787495Y-397149232D01*
X127440862Y-397334511D01*
X127440844Y-397334522D01*
X127114039Y-397552887D01*
X127114025Y-397552897D01*
X126810182Y-397802254D01*
X126532254Y-398080182D01*
X126282897Y-398384025D01*
X126282887Y-398384039D01*
X126064522Y-398710844D01*
X126064511Y-398710862D01*
X125879232Y-399057495D01*
X125879230Y-399057500D01*
X125728810Y-399420645D01*
X125614707Y-399796794D01*
X125614704Y-399796805D01*
X125538026Y-400182297D01*
X125499500Y-400573471D01*
X103500500Y-400573471D01*
X103500500Y-400573468D01*
X103461973Y-400182297D01*
X103435018Y-400046785D01*
X103385295Y-399796805D01*
X103385292Y-399796794D01*
X103385291Y-399796791D01*
X103385290Y-399796785D01*
X103271190Y-399420647D01*
X103120771Y-399057503D01*
X103069115Y-398960862D01*
X102935488Y-398710862D01*
X102935487Y-398710860D01*
X102935482Y-398710851D01*
X102717107Y-398384031D01*
X102467750Y-398080188D01*
X102467749Y-398080187D01*
X102467745Y-398080182D01*
X102189817Y-397802254D01*
X101885974Y-397552897D01*
X101885973Y-397552896D01*
X101885969Y-397552893D01*
X101559149Y-397334518D01*
X101559144Y-397334515D01*
X101559137Y-397334511D01*
X101212504Y-397149232D01*
X101212499Y-397149230D01*
X101177437Y-397134707D01*
X100992316Y-397058027D01*
X100849354Y-396998810D01*
X100473205Y-396884707D01*
X100473194Y-396884704D01*
X100087702Y-396808026D01*
X99793089Y-396779010D01*
X99696532Y-396769500D01*
X99303468Y-396769500D01*
X99214251Y-396778287D01*
X98912297Y-396808026D01*
X98526805Y-396884704D01*
X98526794Y-396884707D01*
X98150645Y-396998810D01*
X97787500Y-397149230D01*
X97787495Y-397149232D01*
X97440862Y-397334511D01*
X97440844Y-397334522D01*
X97114039Y-397552887D01*
X97114025Y-397552897D01*
X96810182Y-397802254D01*
X96532254Y-398080182D01*
X96282897Y-398384025D01*
X96282887Y-398384039D01*
X96064522Y-398710844D01*
X96064511Y-398710862D01*
X95879232Y-399057495D01*
X95879230Y-399057500D01*
X95728810Y-399420645D01*
X95614707Y-399796794D01*
X95614704Y-399796805D01*
X95538026Y-400182297D01*
X95499500Y-400573471D01*
X15000500Y-400573471D01*
X15000500Y-393073471D01*
X110499500Y-393073471D01*
X110499500Y-393466528D01*
X110538026Y-393857702D01*
X110614704Y-394243194D01*
X110614707Y-394243205D01*
X110728810Y-394619354D01*
X110879230Y-394982499D01*
X110879232Y-394982504D01*
X111064511Y-395329137D01*
X111064522Y-395329155D01*
X111282887Y-395655960D01*
X111282897Y-395655974D01*
X111532254Y-395959817D01*
X111810182Y-396237745D01*
X111810187Y-396237749D01*
X111810188Y-396237750D01*
X112114031Y-396487107D01*
X112440851Y-396705482D01*
X112440860Y-396705487D01*
X112440862Y-396705488D01*
X112787495Y-396890767D01*
X112787497Y-396890767D01*
X112787503Y-396890771D01*
X113150647Y-397041190D01*
X113526785Y-397155290D01*
X113526791Y-397155291D01*
X113526794Y-397155292D01*
X113526805Y-397155295D01*
X113912297Y-397231973D01*
X114303468Y-397270500D01*
X114303471Y-397270500D01*
X114696529Y-397270500D01*
X114696532Y-397270500D01*
X115087703Y-397231973D01*
X115162748Y-397217045D01*
X115473194Y-397155295D01*
X115473205Y-397155292D01*
X115473205Y-397155291D01*
X115473215Y-397155290D01*
X115849353Y-397041190D01*
X116212497Y-396890771D01*
X116559149Y-396705482D01*
X116885969Y-396487107D01*
X117189812Y-396237750D01*
X117467750Y-395959812D01*
X117717107Y-395655969D01*
X117935482Y-395329149D01*
X118120771Y-394982497D01*
X118271190Y-394619353D01*
X118385290Y-394243215D01*
X118385292Y-394243205D01*
X118385295Y-394243194D01*
X118461973Y-393857702D01*
X118500500Y-393466528D01*
X118500500Y-393073471D01*
X118461973Y-392682297D01*
X118444532Y-392594615D01*
X118440326Y-392573471D01*
X152999500Y-392573471D01*
X152999500Y-392966528D01*
X153038026Y-393357702D01*
X153114704Y-393743194D01*
X153114707Y-393743205D01*
X153228810Y-394119354D01*
X153379230Y-394482499D01*
X153379232Y-394482504D01*
X153564511Y-394829137D01*
X153564522Y-394829155D01*
X153782887Y-395155960D01*
X153782897Y-395155974D01*
X154032254Y-395459817D01*
X154310182Y-395737745D01*
X154310187Y-395737749D01*
X154310188Y-395737750D01*
X154614031Y-395987107D01*
X154940851Y-396205482D01*
X154940860Y-396205487D01*
X154940862Y-396205488D01*
X155287495Y-396390767D01*
X155287497Y-396390767D01*
X155287503Y-396390771D01*
X155650647Y-396541190D01*
X156026785Y-396655290D01*
X156026791Y-396655291D01*
X156026794Y-396655292D01*
X156026805Y-396655295D01*
X156412297Y-396731973D01*
X156803468Y-396770500D01*
X156803471Y-396770500D01*
X157196529Y-396770500D01*
X157196532Y-396770500D01*
X157587703Y-396731973D01*
X157662748Y-396717045D01*
X157973194Y-396655295D01*
X157973205Y-396655292D01*
X157973205Y-396655291D01*
X157973215Y-396655290D01*
X158349353Y-396541190D01*
X158712497Y-396390771D01*
X159059149Y-396205482D01*
X159385969Y-395987107D01*
X159689812Y-395737750D01*
X159967750Y-395459812D01*
X160217107Y-395155969D01*
X160435482Y-394829149D01*
X160620771Y-394482497D01*
X160771190Y-394119353D01*
X160885290Y-393743215D01*
X160885292Y-393743205D01*
X160885295Y-393743194D01*
X160961973Y-393357702D01*
X160989967Y-393073471D01*
X161000500Y-392966532D01*
X161000500Y-392573471D01*
X165499500Y-392573471D01*
X165499500Y-392966528D01*
X165538026Y-393357702D01*
X165614704Y-393743194D01*
X165614707Y-393743205D01*
X165728810Y-394119354D01*
X165879230Y-394482499D01*
X165879232Y-394482504D01*
X166064511Y-394829137D01*
X166064522Y-394829155D01*
X166282887Y-395155960D01*
X166282897Y-395155974D01*
X166532254Y-395459817D01*
X166810182Y-395737745D01*
X166810187Y-395737749D01*
X166810188Y-395737750D01*
X167114031Y-395987107D01*
X167440851Y-396205482D01*
X167440860Y-396205487D01*
X167440862Y-396205488D01*
X167787495Y-396390767D01*
X167787497Y-396390767D01*
X167787503Y-396390771D01*
X168150647Y-396541190D01*
X168526785Y-396655290D01*
X168526791Y-396655291D01*
X168526794Y-396655292D01*
X168526805Y-396655295D01*
X168912297Y-396731973D01*
X169303468Y-396770500D01*
X169303471Y-396770500D01*
X169696529Y-396770500D01*
X169696532Y-396770500D01*
X170087703Y-396731973D01*
X170162748Y-396717045D01*
X170473194Y-396655295D01*
X170473205Y-396655292D01*
X170473205Y-396655291D01*
X170473215Y-396655290D01*
X170849353Y-396541190D01*
X171212497Y-396390771D01*
X171559149Y-396205482D01*
X171885969Y-395987107D01*
X172189812Y-395737750D01*
X172467750Y-395459812D01*
X172717107Y-395155969D01*
X172935482Y-394829149D01*
X173120771Y-394482497D01*
X173271190Y-394119353D01*
X173385290Y-393743215D01*
X173385292Y-393743205D01*
X173385295Y-393743194D01*
X173461973Y-393357702D01*
X173489967Y-393073471D01*
X173500500Y-392966532D01*
X173500500Y-392573471D01*
X177999500Y-392573471D01*
X177999500Y-392966528D01*
X178038026Y-393357702D01*
X178114704Y-393743194D01*
X178114707Y-393743205D01*
X178228810Y-394119354D01*
X178379230Y-394482499D01*
X178379232Y-394482504D01*
X178564511Y-394829137D01*
X178564522Y-394829155D01*
X178782887Y-395155960D01*
X178782897Y-395155974D01*
X179032254Y-395459817D01*
X179310182Y-395737745D01*
X179310187Y-395737749D01*
X179310188Y-395737750D01*
X179614031Y-395987107D01*
X179940851Y-396205482D01*
X179940860Y-396205487D01*
X179940862Y-396205488D01*
X180287495Y-396390767D01*
X180287497Y-396390767D01*
X180287503Y-396390771D01*
X180650647Y-396541190D01*
X181026785Y-396655290D01*
X181026791Y-396655291D01*
X181026794Y-396655292D01*
X181026805Y-396655295D01*
X181412297Y-396731973D01*
X181803468Y-396770500D01*
X181803471Y-396770500D01*
X182196529Y-396770500D01*
X182196532Y-396770500D01*
X182587703Y-396731973D01*
X182662748Y-396717045D01*
X182973194Y-396655295D01*
X182973205Y-396655292D01*
X182973205Y-396655291D01*
X182973215Y-396655290D01*
X183349353Y-396541190D01*
X183712497Y-396390771D01*
X184059149Y-396205482D01*
X184385969Y-395987107D01*
X184689812Y-395737750D01*
X184967750Y-395459812D01*
X185217107Y-395155969D01*
X185435482Y-394829149D01*
X185620771Y-394482497D01*
X185771190Y-394119353D01*
X185885290Y-393743215D01*
X185885292Y-393743205D01*
X185885295Y-393743194D01*
X185961973Y-393357702D01*
X185989967Y-393073471D01*
X186000500Y-392966532D01*
X186000500Y-392573471D01*
X190499500Y-392573471D01*
X190499500Y-392966528D01*
X190538026Y-393357702D01*
X190614704Y-393743194D01*
X190614707Y-393743205D01*
X190728810Y-394119354D01*
X190879230Y-394482499D01*
X190879232Y-394482504D01*
X191064511Y-394829137D01*
X191064522Y-394829155D01*
X191282887Y-395155960D01*
X191282897Y-395155974D01*
X191532254Y-395459817D01*
X191810182Y-395737745D01*
X191810187Y-395737749D01*
X191810188Y-395737750D01*
X192114031Y-395987107D01*
X192440851Y-396205482D01*
X192440860Y-396205487D01*
X192440862Y-396205488D01*
X192787495Y-396390767D01*
X192787497Y-396390767D01*
X192787503Y-396390771D01*
X193150647Y-396541190D01*
X193526785Y-396655290D01*
X193526791Y-396655291D01*
X193526794Y-396655292D01*
X193526805Y-396655295D01*
X193912297Y-396731973D01*
X194303468Y-396770500D01*
X194303471Y-396770500D01*
X194696529Y-396770500D01*
X194696532Y-396770500D01*
X195087703Y-396731973D01*
X195162748Y-396717045D01*
X195473194Y-396655295D01*
X195473205Y-396655292D01*
X195473205Y-396655291D01*
X195473215Y-396655290D01*
X195849353Y-396541190D01*
X196212497Y-396390771D01*
X196559149Y-396205482D01*
X196885969Y-395987107D01*
X197189812Y-395737750D01*
X197467750Y-395459812D01*
X197717107Y-395155969D01*
X197935482Y-394829149D01*
X198120771Y-394482497D01*
X198271190Y-394119353D01*
X198385290Y-393743215D01*
X198385292Y-393743205D01*
X198385295Y-393743194D01*
X198461973Y-393357702D01*
X198489967Y-393073471D01*
X198500500Y-392966532D01*
X198500500Y-392573471D01*
X232999500Y-392573471D01*
X232999500Y-392966528D01*
X233038026Y-393357702D01*
X233114704Y-393743194D01*
X233114707Y-393743205D01*
X233228810Y-394119354D01*
X233379230Y-394482499D01*
X233379232Y-394482504D01*
X233564511Y-394829137D01*
X233564522Y-394829155D01*
X233782887Y-395155960D01*
X233782897Y-395155974D01*
X234032254Y-395459817D01*
X234310182Y-395737745D01*
X234310187Y-395737749D01*
X234310188Y-395737750D01*
X234614031Y-395987107D01*
X234940851Y-396205482D01*
X234940860Y-396205487D01*
X234940862Y-396205488D01*
X235287495Y-396390767D01*
X235287497Y-396390767D01*
X235287503Y-396390771D01*
X235650647Y-396541190D01*
X236026785Y-396655290D01*
X236026791Y-396655291D01*
X236026794Y-396655292D01*
X236026805Y-396655295D01*
X236412297Y-396731973D01*
X236803468Y-396770500D01*
X236803471Y-396770500D01*
X237196529Y-396770500D01*
X237196532Y-396770500D01*
X237587703Y-396731973D01*
X237662748Y-396717045D01*
X237973194Y-396655295D01*
X237973205Y-396655292D01*
X237973205Y-396655291D01*
X237973215Y-396655290D01*
X238349353Y-396541190D01*
X238712497Y-396390771D01*
X239059149Y-396205482D01*
X239385969Y-395987107D01*
X239689812Y-395737750D01*
X239967750Y-395459812D01*
X240217107Y-395155969D01*
X240435482Y-394829149D01*
X240620771Y-394482497D01*
X240771190Y-394119353D01*
X240885290Y-393743215D01*
X240885292Y-393743205D01*
X240885295Y-393743194D01*
X240961973Y-393357702D01*
X240989967Y-393073471D01*
X241000500Y-392966532D01*
X241000500Y-392573471D01*
X245499500Y-392573471D01*
X245499500Y-392966528D01*
X245538026Y-393357702D01*
X245614704Y-393743194D01*
X245614707Y-393743205D01*
X245728810Y-394119354D01*
X245879230Y-394482499D01*
X245879232Y-394482504D01*
X246064511Y-394829137D01*
X246064522Y-394829155D01*
X246282887Y-395155960D01*
X246282897Y-395155974D01*
X246532254Y-395459817D01*
X246810182Y-395737745D01*
X246810187Y-395737749D01*
X246810188Y-395737750D01*
X247114031Y-395987107D01*
X247440851Y-396205482D01*
X247440860Y-396205487D01*
X247440862Y-396205488D01*
X247787495Y-396390767D01*
X247787497Y-396390767D01*
X247787503Y-396390771D01*
X248150647Y-396541190D01*
X248526785Y-396655290D01*
X248526791Y-396655291D01*
X248526794Y-396655292D01*
X248526805Y-396655295D01*
X248912297Y-396731973D01*
X249303468Y-396770500D01*
X249303471Y-396770500D01*
X249696529Y-396770500D01*
X249696532Y-396770500D01*
X250087703Y-396731973D01*
X250162748Y-396717045D01*
X250473194Y-396655295D01*
X250473205Y-396655292D01*
X250473205Y-396655291D01*
X250473215Y-396655290D01*
X250849353Y-396541190D01*
X251212497Y-396390771D01*
X251559149Y-396205482D01*
X251885969Y-395987107D01*
X252189812Y-395737750D01*
X252467750Y-395459812D01*
X252717107Y-395155969D01*
X252935482Y-394829149D01*
X253120771Y-394482497D01*
X253271190Y-394119353D01*
X253385290Y-393743215D01*
X253385292Y-393743205D01*
X253385295Y-393743194D01*
X253461973Y-393357702D01*
X253489967Y-393073471D01*
X253500500Y-392966532D01*
X253500500Y-392573468D01*
X253461973Y-392182297D01*
X253409928Y-391920647D01*
X253385295Y-391796805D01*
X253385292Y-391796794D01*
X253385291Y-391796791D01*
X253385290Y-391796785D01*
X253271190Y-391420647D01*
X253120771Y-391057503D01*
X253028048Y-390884031D01*
X252935488Y-390710862D01*
X252935487Y-390710860D01*
X252935482Y-390710851D01*
X252717107Y-390384031D01*
X252467750Y-390080188D01*
X252467749Y-390080187D01*
X252467745Y-390080182D01*
X252189817Y-389802254D01*
X251885974Y-389552897D01*
X251885973Y-389552896D01*
X251885969Y-389552893D01*
X251559149Y-389334518D01*
X251559144Y-389334515D01*
X251559137Y-389334511D01*
X251212504Y-389149232D01*
X251212499Y-389149230D01*
X250849354Y-388998810D01*
X250473205Y-388884707D01*
X250473194Y-388884704D01*
X250087702Y-388808026D01*
X249793089Y-388779010D01*
X249696532Y-388769500D01*
X249303468Y-388769500D01*
X249214251Y-388778287D01*
X248912297Y-388808026D01*
X248526805Y-388884704D01*
X248526794Y-388884707D01*
X248150645Y-388998810D01*
X247787500Y-389149230D01*
X247787495Y-389149232D01*
X247440862Y-389334511D01*
X247440844Y-389334522D01*
X247114039Y-389552887D01*
X247114025Y-389552897D01*
X246810182Y-389802254D01*
X246532254Y-390080182D01*
X246282897Y-390384025D01*
X246282887Y-390384039D01*
X246064522Y-390710844D01*
X246064511Y-390710862D01*
X245879232Y-391057495D01*
X245879230Y-391057500D01*
X245728810Y-391420645D01*
X245614707Y-391796794D01*
X245614704Y-391796805D01*
X245538026Y-392182297D01*
X245499500Y-392573471D01*
X241000500Y-392573471D01*
X241000500Y-392573468D01*
X240961973Y-392182297D01*
X240909928Y-391920647D01*
X240885295Y-391796805D01*
X240885292Y-391796794D01*
X240885291Y-391796791D01*
X240885290Y-391796785D01*
X240771190Y-391420647D01*
X240620771Y-391057503D01*
X240528048Y-390884031D01*
X240435488Y-390710862D01*
X240435487Y-390710860D01*
X240435482Y-390710851D01*
X240217107Y-390384031D01*
X239967750Y-390080188D01*
X239967749Y-390080187D01*
X239967745Y-390080182D01*
X239689817Y-389802254D01*
X239385974Y-389552897D01*
X239385973Y-389552896D01*
X239385969Y-389552893D01*
X239059149Y-389334518D01*
X239059144Y-389334515D01*
X239059137Y-389334511D01*
X238712504Y-389149232D01*
X238712499Y-389149230D01*
X238349354Y-388998810D01*
X237973205Y-388884707D01*
X237973194Y-388884704D01*
X237587702Y-388808026D01*
X237293089Y-388779010D01*
X237196532Y-388769500D01*
X236803468Y-388769500D01*
X236714251Y-388778287D01*
X236412297Y-388808026D01*
X236026805Y-388884704D01*
X236026794Y-388884707D01*
X235650645Y-388998810D01*
X235287500Y-389149230D01*
X235287495Y-389149232D01*
X234940862Y-389334511D01*
X234940844Y-389334522D01*
X234614039Y-389552887D01*
X234614025Y-389552897D01*
X234310182Y-389802254D01*
X234032254Y-390080182D01*
X233782897Y-390384025D01*
X233782887Y-390384039D01*
X233564522Y-390710844D01*
X233564511Y-390710862D01*
X233379232Y-391057495D01*
X233379230Y-391057500D01*
X233228810Y-391420645D01*
X233114707Y-391796794D01*
X233114704Y-391796805D01*
X233038026Y-392182297D01*
X232999500Y-392573471D01*
X198500500Y-392573471D01*
X198500500Y-392573468D01*
X198461973Y-392182297D01*
X198409928Y-391920647D01*
X198385295Y-391796805D01*
X198385292Y-391796794D01*
X198385291Y-391796791D01*
X198385290Y-391796785D01*
X198271190Y-391420647D01*
X198120771Y-391057503D01*
X198028048Y-390884031D01*
X197935488Y-390710862D01*
X197935487Y-390710860D01*
X197935482Y-390710851D01*
X197717107Y-390384031D01*
X197467750Y-390080188D01*
X197467749Y-390080187D01*
X197467745Y-390080182D01*
X197189817Y-389802254D01*
X196885974Y-389552897D01*
X196885973Y-389552896D01*
X196885969Y-389552893D01*
X196559149Y-389334518D01*
X196559144Y-389334515D01*
X196559137Y-389334511D01*
X196212504Y-389149232D01*
X196212499Y-389149230D01*
X195849354Y-388998810D01*
X195473205Y-388884707D01*
X195473194Y-388884704D01*
X195087702Y-388808026D01*
X194793089Y-388779010D01*
X194696532Y-388769500D01*
X194303468Y-388769500D01*
X194214251Y-388778287D01*
X193912297Y-388808026D01*
X193526805Y-388884704D01*
X193526794Y-388884707D01*
X193150645Y-388998810D01*
X192787500Y-389149230D01*
X192787495Y-389149232D01*
X192440862Y-389334511D01*
X192440844Y-389334522D01*
X192114039Y-389552887D01*
X192114025Y-389552897D01*
X191810182Y-389802254D01*
X191532254Y-390080182D01*
X191282897Y-390384025D01*
X191282887Y-390384039D01*
X191064522Y-390710844D01*
X191064511Y-390710862D01*
X190879232Y-391057495D01*
X190879230Y-391057500D01*
X190728810Y-391420645D01*
X190614707Y-391796794D01*
X190614704Y-391796805D01*
X190538026Y-392182297D01*
X190499500Y-392573471D01*
X186000500Y-392573471D01*
X186000500Y-392573468D01*
X185961973Y-392182297D01*
X185909928Y-391920647D01*
X185885295Y-391796805D01*
X185885292Y-391796794D01*
X185885291Y-391796791D01*
X185885290Y-391796785D01*
X185771190Y-391420647D01*
X185620771Y-391057503D01*
X185528048Y-390884031D01*
X185435488Y-390710862D01*
X185435487Y-390710860D01*
X185435482Y-390710851D01*
X185217107Y-390384031D01*
X184967750Y-390080188D01*
X184967749Y-390080187D01*
X184967745Y-390080182D01*
X184689817Y-389802254D01*
X184385974Y-389552897D01*
X184385973Y-389552896D01*
X184385969Y-389552893D01*
X184059149Y-389334518D01*
X184059144Y-389334515D01*
X184059137Y-389334511D01*
X183712504Y-389149232D01*
X183712499Y-389149230D01*
X183349354Y-388998810D01*
X182973205Y-388884707D01*
X182973194Y-388884704D01*
X182587702Y-388808026D01*
X182293089Y-388779010D01*
X182196532Y-388769500D01*
X181803468Y-388769500D01*
X181714251Y-388778287D01*
X181412297Y-388808026D01*
X181026805Y-388884704D01*
X181026794Y-388884707D01*
X180650645Y-388998810D01*
X180287500Y-389149230D01*
X180287495Y-389149232D01*
X179940862Y-389334511D01*
X179940844Y-389334522D01*
X179614039Y-389552887D01*
X179614025Y-389552897D01*
X179310182Y-389802254D01*
X179032254Y-390080182D01*
X178782897Y-390384025D01*
X178782887Y-390384039D01*
X178564522Y-390710844D01*
X178564511Y-390710862D01*
X178379232Y-391057495D01*
X178379230Y-391057500D01*
X178228810Y-391420645D01*
X178114707Y-391796794D01*
X178114704Y-391796805D01*
X178038026Y-392182297D01*
X177999500Y-392573471D01*
X173500500Y-392573471D01*
X173500500Y-392573468D01*
X173461973Y-392182297D01*
X173409928Y-391920647D01*
X173385295Y-391796805D01*
X173385292Y-391796794D01*
X173385291Y-391796791D01*
X173385290Y-391796785D01*
X173271190Y-391420647D01*
X173120771Y-391057503D01*
X173028048Y-390884031D01*
X172935488Y-390710862D01*
X172935487Y-390710860D01*
X172935482Y-390710851D01*
X172717107Y-390384031D01*
X172467750Y-390080188D01*
X172467749Y-390080187D01*
X172467745Y-390080182D01*
X172189817Y-389802254D01*
X171885974Y-389552897D01*
X171885973Y-389552896D01*
X171885969Y-389552893D01*
X171559149Y-389334518D01*
X171559144Y-389334515D01*
X171559137Y-389334511D01*
X171212504Y-389149232D01*
X171212499Y-389149230D01*
X170849354Y-388998810D01*
X170473205Y-388884707D01*
X170473194Y-388884704D01*
X170087702Y-388808026D01*
X169793089Y-388779010D01*
X169696532Y-388769500D01*
X169303468Y-388769500D01*
X169214251Y-388778287D01*
X168912297Y-388808026D01*
X168526805Y-388884704D01*
X168526794Y-388884707D01*
X168150645Y-388998810D01*
X167787500Y-389149230D01*
X167787495Y-389149232D01*
X167440862Y-389334511D01*
X167440844Y-389334522D01*
X167114039Y-389552887D01*
X167114025Y-389552897D01*
X166810182Y-389802254D01*
X166532254Y-390080182D01*
X166282897Y-390384025D01*
X166282887Y-390384039D01*
X166064522Y-390710844D01*
X166064511Y-390710862D01*
X165879232Y-391057495D01*
X165879230Y-391057500D01*
X165728810Y-391420645D01*
X165614707Y-391796794D01*
X165614704Y-391796805D01*
X165538026Y-392182297D01*
X165499500Y-392573471D01*
X161000500Y-392573471D01*
X161000500Y-392573468D01*
X160961973Y-392182297D01*
X160909928Y-391920647D01*
X160885295Y-391796805D01*
X160885292Y-391796794D01*
X160885291Y-391796791D01*
X160885290Y-391796785D01*
X160771190Y-391420647D01*
X160620771Y-391057503D01*
X160528048Y-390884031D01*
X160435488Y-390710862D01*
X160435487Y-390710860D01*
X160435482Y-390710851D01*
X160217107Y-390384031D01*
X159967750Y-390080188D01*
X159967749Y-390080187D01*
X159967745Y-390080182D01*
X159689817Y-389802254D01*
X159385974Y-389552897D01*
X159385973Y-389552896D01*
X159385969Y-389552893D01*
X159059149Y-389334518D01*
X159059144Y-389334515D01*
X159059137Y-389334511D01*
X158712504Y-389149232D01*
X158712499Y-389149230D01*
X158349354Y-388998810D01*
X157973205Y-388884707D01*
X157973194Y-388884704D01*
X157587702Y-388808026D01*
X157293089Y-388779010D01*
X157196532Y-388769500D01*
X156803468Y-388769500D01*
X156714251Y-388778287D01*
X156412297Y-388808026D01*
X156026805Y-388884704D01*
X156026794Y-388884707D01*
X155650645Y-388998810D01*
X155287500Y-389149230D01*
X155287495Y-389149232D01*
X154940862Y-389334511D01*
X154940844Y-389334522D01*
X154614039Y-389552887D01*
X154614025Y-389552897D01*
X154310182Y-389802254D01*
X154032254Y-390080182D01*
X153782897Y-390384025D01*
X153782887Y-390384039D01*
X153564522Y-390710844D01*
X153564511Y-390710862D01*
X153379232Y-391057495D01*
X153379230Y-391057500D01*
X153228810Y-391420645D01*
X153114707Y-391796794D01*
X153114704Y-391796805D01*
X153038026Y-392182297D01*
X152999500Y-392573471D01*
X118440326Y-392573471D01*
X118385295Y-392296805D01*
X118385292Y-392296794D01*
X118385291Y-392296791D01*
X118385290Y-392296785D01*
X118271190Y-391920647D01*
X118120771Y-391557503D01*
X117935482Y-391210851D01*
X117717107Y-390884031D01*
X117467750Y-390580188D01*
X117467749Y-390580187D01*
X117467745Y-390580182D01*
X117189817Y-390302254D01*
X116885974Y-390052897D01*
X116885973Y-390052896D01*
X116885969Y-390052893D01*
X116559149Y-389834518D01*
X116559144Y-389834515D01*
X116559137Y-389834511D01*
X116212504Y-389649232D01*
X116212499Y-389649230D01*
X115849354Y-389498810D01*
X115473205Y-389384707D01*
X115473194Y-389384704D01*
X115087702Y-389308026D01*
X114793089Y-389279010D01*
X114696532Y-389269500D01*
X114303468Y-389269500D01*
X114214251Y-389278287D01*
X113912297Y-389308026D01*
X113526805Y-389384704D01*
X113526794Y-389384707D01*
X113150645Y-389498810D01*
X112787500Y-389649230D01*
X112787495Y-389649232D01*
X112440862Y-389834511D01*
X112440844Y-389834522D01*
X112114039Y-390052887D01*
X112114025Y-390052897D01*
X111810182Y-390302254D01*
X111532254Y-390580182D01*
X111282897Y-390884025D01*
X111282887Y-390884039D01*
X111064522Y-391210844D01*
X111064511Y-391210862D01*
X110879232Y-391557495D01*
X110879230Y-391557500D01*
X110728810Y-391920645D01*
X110614707Y-392296794D01*
X110614704Y-392296805D01*
X110538026Y-392682297D01*
X110499500Y-393073471D01*
X15000500Y-393073471D01*
X15000500Y-386073471D01*
X95499500Y-386073471D01*
X95499500Y-386466528D01*
X95538026Y-386857702D01*
X95614704Y-387243194D01*
X95614707Y-387243205D01*
X95728810Y-387619354D01*
X95879230Y-387982499D01*
X95879232Y-387982504D01*
X96064511Y-388329137D01*
X96064522Y-388329155D01*
X96282887Y-388655960D01*
X96282897Y-388655974D01*
X96532254Y-388959817D01*
X96810182Y-389237745D01*
X96810187Y-389237749D01*
X96810188Y-389237750D01*
X97114031Y-389487107D01*
X97440851Y-389705482D01*
X97440860Y-389705487D01*
X97440862Y-389705488D01*
X97787495Y-389890767D01*
X97787497Y-389890767D01*
X97787503Y-389890771D01*
X98150647Y-390041190D01*
X98526785Y-390155290D01*
X98526791Y-390155291D01*
X98526794Y-390155292D01*
X98526805Y-390155295D01*
X98912297Y-390231973D01*
X99303468Y-390270500D01*
X99303471Y-390270500D01*
X99696529Y-390270500D01*
X99696532Y-390270500D01*
X100087703Y-390231973D01*
X100162748Y-390217045D01*
X100473194Y-390155295D01*
X100473205Y-390155292D01*
X100473205Y-390155291D01*
X100473215Y-390155290D01*
X100849353Y-390041190D01*
X101212497Y-389890771D01*
X101559149Y-389705482D01*
X101885969Y-389487107D01*
X102189812Y-389237750D01*
X102467750Y-388959812D01*
X102717107Y-388655969D01*
X102935482Y-388329149D01*
X103120771Y-387982497D01*
X103271190Y-387619353D01*
X103385290Y-387243215D01*
X103385292Y-387243205D01*
X103385295Y-387243194D01*
X103461973Y-386857702D01*
X103475877Y-386716532D01*
X103500500Y-386466532D01*
X103500500Y-386073471D01*
X125499500Y-386073471D01*
X125499500Y-386466528D01*
X125538026Y-386857702D01*
X125614704Y-387243194D01*
X125614707Y-387243205D01*
X125728810Y-387619354D01*
X125879230Y-387982499D01*
X125879232Y-387982504D01*
X126064511Y-388329137D01*
X126064522Y-388329155D01*
X126282887Y-388655960D01*
X126282897Y-388655974D01*
X126532254Y-388959817D01*
X126810182Y-389237745D01*
X126810187Y-389237749D01*
X126810188Y-389237750D01*
X127114031Y-389487107D01*
X127440851Y-389705482D01*
X127440860Y-389705487D01*
X127440862Y-389705488D01*
X127787495Y-389890767D01*
X127787497Y-389890767D01*
X127787503Y-389890771D01*
X128150647Y-390041190D01*
X128526785Y-390155290D01*
X128526791Y-390155291D01*
X128526794Y-390155292D01*
X128526805Y-390155295D01*
X128912297Y-390231973D01*
X129303468Y-390270500D01*
X129303471Y-390270500D01*
X129696529Y-390270500D01*
X129696532Y-390270500D01*
X130087703Y-390231973D01*
X130162748Y-390217045D01*
X130473194Y-390155295D01*
X130473205Y-390155292D01*
X130473205Y-390155291D01*
X130473215Y-390155290D01*
X130849353Y-390041190D01*
X131212497Y-389890771D01*
X131559149Y-389705482D01*
X131885969Y-389487107D01*
X132189812Y-389237750D01*
X132467750Y-388959812D01*
X132717107Y-388655969D01*
X132935482Y-388329149D01*
X133120771Y-387982497D01*
X133271190Y-387619353D01*
X133385290Y-387243215D01*
X133385292Y-387243205D01*
X133385295Y-387243194D01*
X133461973Y-386857702D01*
X133475877Y-386716532D01*
X133500500Y-386466532D01*
X133500500Y-386073471D01*
X137999500Y-386073471D01*
X137999500Y-386466528D01*
X138038026Y-386857702D01*
X138114704Y-387243194D01*
X138114707Y-387243205D01*
X138228810Y-387619354D01*
X138379230Y-387982499D01*
X138379232Y-387982504D01*
X138564511Y-388329137D01*
X138564522Y-388329155D01*
X138782887Y-388655960D01*
X138782897Y-388655974D01*
X139032254Y-388959817D01*
X139310182Y-389237745D01*
X139310187Y-389237749D01*
X139310188Y-389237750D01*
X139614031Y-389487107D01*
X139940851Y-389705482D01*
X139940860Y-389705487D01*
X139940862Y-389705488D01*
X140287495Y-389890767D01*
X140287497Y-389890767D01*
X140287503Y-389890771D01*
X140650647Y-390041190D01*
X141026785Y-390155290D01*
X141026791Y-390155291D01*
X141026794Y-390155292D01*
X141026805Y-390155295D01*
X141412297Y-390231973D01*
X141803468Y-390270500D01*
X141803471Y-390270500D01*
X142196529Y-390270500D01*
X142196532Y-390270500D01*
X142587703Y-390231973D01*
X142662748Y-390217045D01*
X142973194Y-390155295D01*
X142973205Y-390155292D01*
X142973205Y-390155291D01*
X142973215Y-390155290D01*
X143349353Y-390041190D01*
X143712497Y-389890771D01*
X144059149Y-389705482D01*
X144385969Y-389487107D01*
X144689812Y-389237750D01*
X144967750Y-388959812D01*
X145217107Y-388655969D01*
X145435482Y-388329149D01*
X145620771Y-387982497D01*
X145771190Y-387619353D01*
X145885290Y-387243215D01*
X145885292Y-387243205D01*
X145885295Y-387243194D01*
X145961973Y-386857702D01*
X145975877Y-386716532D01*
X146000500Y-386466532D01*
X146000500Y-386323471D01*
X205499500Y-386323471D01*
X205499500Y-386716528D01*
X205538026Y-387107702D01*
X205614704Y-387493194D01*
X205614707Y-387493205D01*
X205728810Y-387869354D01*
X205879230Y-388232499D01*
X205879232Y-388232504D01*
X206064511Y-388579137D01*
X206064522Y-388579155D01*
X206282887Y-388905960D01*
X206282897Y-388905974D01*
X206532254Y-389209817D01*
X206810182Y-389487745D01*
X206810187Y-389487749D01*
X206810188Y-389487750D01*
X207114031Y-389737107D01*
X207440851Y-389955482D01*
X207440860Y-389955487D01*
X207440862Y-389955488D01*
X207787495Y-390140767D01*
X207787497Y-390140767D01*
X207787503Y-390140771D01*
X208150647Y-390291190D01*
X208526785Y-390405290D01*
X208526791Y-390405291D01*
X208526794Y-390405292D01*
X208526805Y-390405295D01*
X208912297Y-390481973D01*
X209303468Y-390520500D01*
X209303471Y-390520500D01*
X209696529Y-390520500D01*
X209696532Y-390520500D01*
X210087703Y-390481973D01*
X210162748Y-390467045D01*
X210473194Y-390405295D01*
X210473205Y-390405292D01*
X210473205Y-390405291D01*
X210473215Y-390405290D01*
X210849353Y-390291190D01*
X211212497Y-390140771D01*
X211559149Y-389955482D01*
X211885969Y-389737107D01*
X212189812Y-389487750D01*
X212467750Y-389209812D01*
X212717107Y-388905969D01*
X212935482Y-388579149D01*
X213120771Y-388232497D01*
X213271190Y-387869353D01*
X213385290Y-387493215D01*
X213385292Y-387493205D01*
X213385295Y-387493194D01*
X213461973Y-387107702D01*
X213500500Y-386716528D01*
X213500500Y-386323471D01*
X213476774Y-386082578D01*
X213475877Y-386073471D01*
X217999500Y-386073471D01*
X217999500Y-386466528D01*
X218038026Y-386857702D01*
X218114704Y-387243194D01*
X218114707Y-387243205D01*
X218228810Y-387619354D01*
X218379230Y-387982499D01*
X218379232Y-387982504D01*
X218564511Y-388329137D01*
X218564522Y-388329155D01*
X218782887Y-388655960D01*
X218782897Y-388655974D01*
X219032254Y-388959817D01*
X219310182Y-389237745D01*
X219310187Y-389237749D01*
X219310188Y-389237750D01*
X219614031Y-389487107D01*
X219940851Y-389705482D01*
X219940860Y-389705487D01*
X219940862Y-389705488D01*
X220287495Y-389890767D01*
X220287497Y-389890767D01*
X220287503Y-389890771D01*
X220650647Y-390041190D01*
X221026785Y-390155290D01*
X221026791Y-390155291D01*
X221026794Y-390155292D01*
X221026805Y-390155295D01*
X221412297Y-390231973D01*
X221803468Y-390270500D01*
X221803471Y-390270500D01*
X222196529Y-390270500D01*
X222196532Y-390270500D01*
X222587703Y-390231973D01*
X222662748Y-390217045D01*
X222973194Y-390155295D01*
X222973205Y-390155292D01*
X222973205Y-390155291D01*
X222973215Y-390155290D01*
X223349353Y-390041190D01*
X223712497Y-389890771D01*
X224059149Y-389705482D01*
X224385969Y-389487107D01*
X224689812Y-389237750D01*
X224967750Y-388959812D01*
X225217107Y-388655969D01*
X225435482Y-388329149D01*
X225620771Y-387982497D01*
X225771190Y-387619353D01*
X225885290Y-387243215D01*
X225885292Y-387243205D01*
X225885295Y-387243194D01*
X225961973Y-386857702D01*
X225975877Y-386716532D01*
X226000500Y-386466532D01*
X226000500Y-386073471D01*
X260499500Y-386073471D01*
X260499500Y-386466528D01*
X260538026Y-386857702D01*
X260614704Y-387243194D01*
X260614707Y-387243205D01*
X260728810Y-387619354D01*
X260879230Y-387982499D01*
X260879232Y-387982504D01*
X261064511Y-388329137D01*
X261064522Y-388329155D01*
X261282887Y-388655960D01*
X261282897Y-388655974D01*
X261532254Y-388959817D01*
X261810182Y-389237745D01*
X261810187Y-389237749D01*
X261810188Y-389237750D01*
X262114031Y-389487107D01*
X262440851Y-389705482D01*
X262440860Y-389705487D01*
X262440862Y-389705488D01*
X262787495Y-389890767D01*
X262787497Y-389890767D01*
X262787503Y-389890771D01*
X263150647Y-390041190D01*
X263526785Y-390155290D01*
X263526791Y-390155291D01*
X263526794Y-390155292D01*
X263526805Y-390155295D01*
X263912297Y-390231973D01*
X264303468Y-390270500D01*
X264303471Y-390270500D01*
X264696529Y-390270500D01*
X264696532Y-390270500D01*
X265087703Y-390231973D01*
X265162748Y-390217045D01*
X265473194Y-390155295D01*
X265473205Y-390155292D01*
X265473205Y-390155291D01*
X265473215Y-390155290D01*
X265849353Y-390041190D01*
X266212497Y-389890771D01*
X266559149Y-389705482D01*
X266885969Y-389487107D01*
X267189812Y-389237750D01*
X267467750Y-388959812D01*
X267717107Y-388655969D01*
X267935482Y-388329149D01*
X268120771Y-387982497D01*
X268271190Y-387619353D01*
X268385290Y-387243215D01*
X268385292Y-387243205D01*
X268385295Y-387243194D01*
X268461973Y-386857702D01*
X268475877Y-386716532D01*
X268500500Y-386466532D01*
X268500500Y-386073468D01*
X268461973Y-385682297D01*
X268435018Y-385546785D01*
X268385295Y-385296805D01*
X268385292Y-385296794D01*
X268385291Y-385296791D01*
X268385290Y-385296785D01*
X268271190Y-384920647D01*
X268120771Y-384557503D01*
X268069115Y-384460862D01*
X267935488Y-384210862D01*
X267935487Y-384210860D01*
X267935482Y-384210851D01*
X267717107Y-383884031D01*
X267467750Y-383580188D01*
X267467749Y-383580187D01*
X267467745Y-383580182D01*
X267189817Y-383302254D01*
X266885974Y-383052897D01*
X266885973Y-383052896D01*
X266885969Y-383052893D01*
X266559149Y-382834518D01*
X266559144Y-382834515D01*
X266559137Y-382834511D01*
X266212504Y-382649232D01*
X266212499Y-382649230D01*
X266177437Y-382634707D01*
X265992316Y-382558027D01*
X265849354Y-382498810D01*
X265473205Y-382384707D01*
X265473194Y-382384704D01*
X265087702Y-382308026D01*
X264793089Y-382279010D01*
X264696532Y-382269500D01*
X264303468Y-382269500D01*
X264214251Y-382278287D01*
X263912297Y-382308026D01*
X263526805Y-382384704D01*
X263526794Y-382384707D01*
X263150645Y-382498810D01*
X262787500Y-382649230D01*
X262787495Y-382649232D01*
X262440862Y-382834511D01*
X262440844Y-382834522D01*
X262114039Y-383052887D01*
X262114025Y-383052897D01*
X261810182Y-383302254D01*
X261532254Y-383580182D01*
X261282897Y-383884025D01*
X261282887Y-383884039D01*
X261064522Y-384210844D01*
X261064511Y-384210862D01*
X260879232Y-384557495D01*
X260879230Y-384557500D01*
X260728810Y-384920645D01*
X260614707Y-385296794D01*
X260614704Y-385296805D01*
X260538026Y-385682297D01*
X260499500Y-386073471D01*
X226000500Y-386073471D01*
X226000500Y-386073468D01*
X225961973Y-385682297D01*
X225935018Y-385546785D01*
X225885295Y-385296805D01*
X225885292Y-385296794D01*
X225885291Y-385296791D01*
X225885290Y-385296785D01*
X225771190Y-384920647D01*
X225620771Y-384557503D01*
X225569115Y-384460862D01*
X225435488Y-384210862D01*
X225435487Y-384210860D01*
X225435482Y-384210851D01*
X225217107Y-383884031D01*
X224967750Y-383580188D01*
X224967749Y-383580187D01*
X224967745Y-383580182D01*
X224689817Y-383302254D01*
X224385974Y-383052897D01*
X224385973Y-383052896D01*
X224385969Y-383052893D01*
X224059149Y-382834518D01*
X224059144Y-382834515D01*
X224059137Y-382834511D01*
X223712504Y-382649232D01*
X223712499Y-382649230D01*
X223677437Y-382634707D01*
X223492316Y-382558027D01*
X223349354Y-382498810D01*
X222973205Y-382384707D01*
X222973194Y-382384704D01*
X222587702Y-382308026D01*
X222293089Y-382279010D01*
X222196532Y-382269500D01*
X221803468Y-382269500D01*
X221714251Y-382278287D01*
X221412297Y-382308026D01*
X221026805Y-382384704D01*
X221026794Y-382384707D01*
X220650645Y-382498810D01*
X220287500Y-382649230D01*
X220287495Y-382649232D01*
X219940862Y-382834511D01*
X219940844Y-382834522D01*
X219614039Y-383052887D01*
X219614025Y-383052897D01*
X219310182Y-383302254D01*
X219032254Y-383580182D01*
X218782897Y-383884025D01*
X218782887Y-383884039D01*
X218564522Y-384210844D01*
X218564511Y-384210862D01*
X218379232Y-384557495D01*
X218379230Y-384557500D01*
X218228810Y-384920645D01*
X218114707Y-385296794D01*
X218114704Y-385296805D01*
X218038026Y-385682297D01*
X217999500Y-386073471D01*
X213475877Y-386073471D01*
X213461973Y-385932297D01*
X213385295Y-385546805D01*
X213385292Y-385546794D01*
X213385291Y-385546791D01*
X213385290Y-385546785D01*
X213271190Y-385170647D01*
X213120771Y-384807503D01*
X212987143Y-384557503D01*
X212935488Y-384460862D01*
X212935487Y-384460860D01*
X212935482Y-384460851D01*
X212717107Y-384134031D01*
X212467750Y-383830188D01*
X212467749Y-383830187D01*
X212467745Y-383830182D01*
X212189817Y-383552254D01*
X211885974Y-383302897D01*
X211885973Y-383302896D01*
X211885969Y-383302893D01*
X211559149Y-383084518D01*
X211559144Y-383084515D01*
X211559137Y-383084511D01*
X211212504Y-382899232D01*
X211212499Y-382899230D01*
X210849354Y-382748810D01*
X210473205Y-382634707D01*
X210473194Y-382634704D01*
X210087702Y-382558026D01*
X209793089Y-382529010D01*
X209696532Y-382519500D01*
X209303468Y-382519500D01*
X209214251Y-382528287D01*
X208912297Y-382558026D01*
X208526805Y-382634704D01*
X208526794Y-382634707D01*
X208150645Y-382748810D01*
X207787500Y-382899230D01*
X207787495Y-382899232D01*
X207440862Y-383084511D01*
X207440844Y-383084522D01*
X207114039Y-383302887D01*
X207114025Y-383302897D01*
X206810182Y-383552254D01*
X206532254Y-383830182D01*
X206282897Y-384134025D01*
X206282887Y-384134039D01*
X206064522Y-384460844D01*
X206064511Y-384460862D01*
X205879232Y-384807495D01*
X205879230Y-384807500D01*
X205728810Y-385170645D01*
X205614707Y-385546794D01*
X205614704Y-385546805D01*
X205538026Y-385932297D01*
X205499500Y-386323471D01*
X146000500Y-386323471D01*
X146000500Y-386073468D01*
X145961973Y-385682297D01*
X145935018Y-385546785D01*
X145885295Y-385296805D01*
X145885292Y-385296794D01*
X145885291Y-385296791D01*
X145885290Y-385296785D01*
X145771190Y-384920647D01*
X145620771Y-384557503D01*
X145569115Y-384460862D01*
X145435488Y-384210862D01*
X145435487Y-384210860D01*
X145435482Y-384210851D01*
X145217107Y-383884031D01*
X144967750Y-383580188D01*
X144967749Y-383580187D01*
X144967745Y-383580182D01*
X144689817Y-383302254D01*
X144385974Y-383052897D01*
X144385973Y-383052896D01*
X144385969Y-383052893D01*
X144059149Y-382834518D01*
X144059144Y-382834515D01*
X144059137Y-382834511D01*
X143712504Y-382649232D01*
X143712499Y-382649230D01*
X143677437Y-382634707D01*
X143492316Y-382558027D01*
X143349354Y-382498810D01*
X142973205Y-382384707D01*
X142973194Y-382384704D01*
X142587702Y-382308026D01*
X142293089Y-382279010D01*
X142196532Y-382269500D01*
X141803468Y-382269500D01*
X141714251Y-382278287D01*
X141412297Y-382308026D01*
X141026805Y-382384704D01*
X141026794Y-382384707D01*
X140650645Y-382498810D01*
X140287500Y-382649230D01*
X140287495Y-382649232D01*
X139940862Y-382834511D01*
X139940844Y-382834522D01*
X139614039Y-383052887D01*
X139614025Y-383052897D01*
X139310182Y-383302254D01*
X139032254Y-383580182D01*
X138782897Y-383884025D01*
X138782887Y-383884039D01*
X138564522Y-384210844D01*
X138564511Y-384210862D01*
X138379232Y-384557495D01*
X138379230Y-384557500D01*
X138228810Y-384920645D01*
X138114707Y-385296794D01*
X138114704Y-385296805D01*
X138038026Y-385682297D01*
X137999500Y-386073471D01*
X133500500Y-386073471D01*
X133500500Y-386073468D01*
X133461973Y-385682297D01*
X133435018Y-385546785D01*
X133385295Y-385296805D01*
X133385292Y-385296794D01*
X133385291Y-385296791D01*
X133385290Y-385296785D01*
X133271190Y-384920647D01*
X133120771Y-384557503D01*
X133069115Y-384460862D01*
X132935488Y-384210862D01*
X132935487Y-384210860D01*
X132935482Y-384210851D01*
X132717107Y-383884031D01*
X132467750Y-383580188D01*
X132467749Y-383580187D01*
X132467745Y-383580182D01*
X132189817Y-383302254D01*
X131885974Y-383052897D01*
X131885973Y-383052896D01*
X131885969Y-383052893D01*
X131559149Y-382834518D01*
X131559144Y-382834515D01*
X131559137Y-382834511D01*
X131212504Y-382649232D01*
X131212499Y-382649230D01*
X131177437Y-382634707D01*
X130992316Y-382558027D01*
X130849354Y-382498810D01*
X130473205Y-382384707D01*
X130473194Y-382384704D01*
X130087702Y-382308026D01*
X129793089Y-382279010D01*
X129696532Y-382269500D01*
X129303468Y-382269500D01*
X129214251Y-382278287D01*
X128912297Y-382308026D01*
X128526805Y-382384704D01*
X128526794Y-382384707D01*
X128150645Y-382498810D01*
X127787500Y-382649230D01*
X127787495Y-382649232D01*
X127440862Y-382834511D01*
X127440844Y-382834522D01*
X127114039Y-383052887D01*
X127114025Y-383052897D01*
X126810182Y-383302254D01*
X126532254Y-383580182D01*
X126282897Y-383884025D01*
X126282887Y-383884039D01*
X126064522Y-384210844D01*
X126064511Y-384210862D01*
X125879232Y-384557495D01*
X125879230Y-384557500D01*
X125728810Y-384920645D01*
X125614707Y-385296794D01*
X125614704Y-385296805D01*
X125538026Y-385682297D01*
X125499500Y-386073471D01*
X103500500Y-386073471D01*
X103500500Y-386073468D01*
X103461973Y-385682297D01*
X103435018Y-385546785D01*
X103385295Y-385296805D01*
X103385292Y-385296794D01*
X103385291Y-385296791D01*
X103385290Y-385296785D01*
X103271190Y-384920647D01*
X103120771Y-384557503D01*
X103069115Y-384460862D01*
X102935488Y-384210862D01*
X102935487Y-384210860D01*
X102935482Y-384210851D01*
X102717107Y-383884031D01*
X102467750Y-383580188D01*
X102467749Y-383580187D01*
X102467745Y-383580182D01*
X102189817Y-383302254D01*
X101885974Y-383052897D01*
X101885973Y-383052896D01*
X101885969Y-383052893D01*
X101559149Y-382834518D01*
X101559144Y-382834515D01*
X101559137Y-382834511D01*
X101212504Y-382649232D01*
X101212499Y-382649230D01*
X101177437Y-382634707D01*
X100992316Y-382558027D01*
X100849354Y-382498810D01*
X100473205Y-382384707D01*
X100473194Y-382384704D01*
X100087702Y-382308026D01*
X99793089Y-382279010D01*
X99696532Y-382269500D01*
X99303468Y-382269500D01*
X99214251Y-382278287D01*
X98912297Y-382308026D01*
X98526805Y-382384704D01*
X98526794Y-382384707D01*
X98150645Y-382498810D01*
X97787500Y-382649230D01*
X97787495Y-382649232D01*
X97440862Y-382834511D01*
X97440844Y-382834522D01*
X97114039Y-383052887D01*
X97114025Y-383052897D01*
X96810182Y-383302254D01*
X96532254Y-383580182D01*
X96282897Y-383884025D01*
X96282887Y-383884039D01*
X96064522Y-384210844D01*
X96064511Y-384210862D01*
X95879232Y-384557495D01*
X95879230Y-384557500D01*
X95728810Y-384920645D01*
X95614707Y-385296794D01*
X95614704Y-385296805D01*
X95538026Y-385682297D01*
X95499500Y-386073471D01*
X15000500Y-386073471D01*
X15000500Y-327129041D01*
X136599500Y-327129041D01*
X136599500Y-349110958D01*
X136636295Y-349390439D01*
X136709259Y-349662743D01*
X136817135Y-349923179D01*
X136817140Y-349923190D01*
X136958083Y-350167309D01*
X136958088Y-350167317D01*
X137129700Y-350390965D01*
X137129704Y-350390970D01*
X137329029Y-350590295D01*
X137329033Y-350590298D01*
X137329035Y-350590300D01*
X137552683Y-350761912D01*
X137552690Y-350761916D01*
X137796809Y-350902859D01*
X137796814Y-350902861D01*
X137796817Y-350902863D01*
X138057261Y-351010742D01*
X138329558Y-351083704D01*
X138609049Y-351120500D01*
X138609056Y-351120500D01*
X138890944Y-351120500D01*
X138890951Y-351120500D01*
X139170442Y-351083704D01*
X139442739Y-351010742D01*
X139703183Y-350902863D01*
X139947317Y-350761912D01*
X140170965Y-350590300D01*
X140370300Y-350390965D01*
X140541912Y-350167317D01*
X140682863Y-349923183D01*
X140790742Y-349662739D01*
X140863704Y-349390442D01*
X140900500Y-349110951D01*
X140900500Y-327129049D01*
X140900499Y-327129041D01*
X149099500Y-327129041D01*
X149099500Y-349110958D01*
X149136295Y-349390439D01*
X149209259Y-349662743D01*
X149317135Y-349923179D01*
X149317140Y-349923190D01*
X149458083Y-350167309D01*
X149458088Y-350167317D01*
X149629700Y-350390965D01*
X149629704Y-350390970D01*
X149829029Y-350590295D01*
X149829033Y-350590298D01*
X149829035Y-350590300D01*
X150052683Y-350761912D01*
X150052690Y-350761916D01*
X150296809Y-350902859D01*
X150296814Y-350902861D01*
X150296817Y-350902863D01*
X150557261Y-351010742D01*
X150829558Y-351083704D01*
X151109049Y-351120500D01*
X151109056Y-351120500D01*
X151390944Y-351120500D01*
X151390951Y-351120500D01*
X151670442Y-351083704D01*
X151942739Y-351010742D01*
X152203183Y-350902863D01*
X152447317Y-350761912D01*
X152670965Y-350590300D01*
X152870300Y-350390965D01*
X153041912Y-350167317D01*
X153182863Y-349923183D01*
X153290742Y-349662739D01*
X153363704Y-349390442D01*
X153400500Y-349110951D01*
X153400500Y-327129049D01*
X153400499Y-327129041D01*
X161599500Y-327129041D01*
X161599500Y-349110958D01*
X161636295Y-349390439D01*
X161709259Y-349662743D01*
X161817135Y-349923179D01*
X161817140Y-349923190D01*
X161958083Y-350167309D01*
X161958088Y-350167317D01*
X162129700Y-350390965D01*
X162129704Y-350390970D01*
X162329029Y-350590295D01*
X162329033Y-350590298D01*
X162329035Y-350590300D01*
X162552683Y-350761912D01*
X162552690Y-350761916D01*
X162796809Y-350902859D01*
X162796814Y-350902861D01*
X162796817Y-350902863D01*
X163057261Y-351010742D01*
X163329558Y-351083704D01*
X163609049Y-351120500D01*
X163609056Y-351120500D01*
X163890944Y-351120500D01*
X163890951Y-351120500D01*
X164170442Y-351083704D01*
X164442739Y-351010742D01*
X164703183Y-350902863D01*
X164947317Y-350761912D01*
X165170965Y-350590300D01*
X165370300Y-350390965D01*
X165541912Y-350167317D01*
X165682863Y-349923183D01*
X165790742Y-349662739D01*
X165863704Y-349390442D01*
X165900500Y-349110951D01*
X165900500Y-327129049D01*
X165900499Y-327129041D01*
X174099500Y-327129041D01*
X174099500Y-349110958D01*
X174136295Y-349390439D01*
X174209259Y-349662743D01*
X174317135Y-349923179D01*
X174317140Y-349923190D01*
X174458083Y-350167309D01*
X174458088Y-350167317D01*
X174629700Y-350390965D01*
X174629704Y-350390970D01*
X174829029Y-350590295D01*
X174829033Y-350590298D01*
X174829035Y-350590300D01*
X175052683Y-350761912D01*
X175052690Y-350761916D01*
X175296809Y-350902859D01*
X175296814Y-350902861D01*
X175296817Y-350902863D01*
X175557261Y-351010742D01*
X175829558Y-351083704D01*
X176109049Y-351120500D01*
X176109056Y-351120500D01*
X176390944Y-351120500D01*
X176390951Y-351120500D01*
X176670442Y-351083704D01*
X176942739Y-351010742D01*
X177203183Y-350902863D01*
X177447317Y-350761912D01*
X177670965Y-350590300D01*
X177870300Y-350390965D01*
X178041912Y-350167317D01*
X178182863Y-349923183D01*
X178290742Y-349662739D01*
X178363704Y-349390442D01*
X178400500Y-349110951D01*
X178400500Y-327129049D01*
X178400499Y-327129041D01*
X206599500Y-327129041D01*
X206599500Y-349110958D01*
X206636295Y-349390439D01*
X206709259Y-349662743D01*
X206817135Y-349923179D01*
X206817140Y-349923190D01*
X206958083Y-350167309D01*
X206958088Y-350167317D01*
X207129700Y-350390965D01*
X207129704Y-350390970D01*
X207329029Y-350590295D01*
X207329033Y-350590298D01*
X207329035Y-350590300D01*
X207552683Y-350761912D01*
X207552690Y-350761916D01*
X207796809Y-350902859D01*
X207796814Y-350902861D01*
X207796817Y-350902863D01*
X208057261Y-351010742D01*
X208329558Y-351083704D01*
X208609049Y-351120500D01*
X208609056Y-351120500D01*
X208890944Y-351120500D01*
X208890951Y-351120500D01*
X209170442Y-351083704D01*
X209442739Y-351010742D01*
X209703183Y-350902863D01*
X209947317Y-350761912D01*
X210170965Y-350590300D01*
X210370300Y-350390965D01*
X210541912Y-350167317D01*
X210682863Y-349923183D01*
X210790742Y-349662739D01*
X210863704Y-349390442D01*
X210900500Y-349110951D01*
X210900500Y-327129049D01*
X210900499Y-327129041D01*
X219099500Y-327129041D01*
X219099500Y-349110958D01*
X219136295Y-349390439D01*
X219209259Y-349662743D01*
X219317135Y-349923179D01*
X219317140Y-349923190D01*
X219458083Y-350167309D01*
X219458088Y-350167317D01*
X219629700Y-350390965D01*
X219629704Y-350390970D01*
X219829029Y-350590295D01*
X219829033Y-350590298D01*
X219829035Y-350590300D01*
X220052683Y-350761912D01*
X220052690Y-350761916D01*
X220296809Y-350902859D01*
X220296814Y-350902861D01*
X220296817Y-350902863D01*
X220557261Y-351010742D01*
X220829558Y-351083704D01*
X221109049Y-351120500D01*
X221109056Y-351120500D01*
X221390944Y-351120500D01*
X221390951Y-351120500D01*
X221670442Y-351083704D01*
X221942739Y-351010742D01*
X222203183Y-350902863D01*
X222447317Y-350761912D01*
X222670965Y-350590300D01*
X222870300Y-350390965D01*
X223041912Y-350167317D01*
X223182863Y-349923183D01*
X223290742Y-349662739D01*
X223363704Y-349390442D01*
X223400500Y-349110951D01*
X223400500Y-327129049D01*
X223400499Y-327129041D01*
X231599500Y-327129041D01*
X231599500Y-349110958D01*
X231636295Y-349390439D01*
X231709259Y-349662743D01*
X231817135Y-349923179D01*
X231817140Y-349923190D01*
X231958083Y-350167309D01*
X231958088Y-350167317D01*
X232129700Y-350390965D01*
X232129704Y-350390970D01*
X232329029Y-350590295D01*
X232329033Y-350590298D01*
X232329035Y-350590300D01*
X232552683Y-350761912D01*
X232552690Y-350761916D01*
X232796809Y-350902859D01*
X232796814Y-350902861D01*
X232796817Y-350902863D01*
X233057261Y-351010742D01*
X233329558Y-351083704D01*
X233609049Y-351120500D01*
X233609056Y-351120500D01*
X233890944Y-351120500D01*
X233890951Y-351120500D01*
X234170442Y-351083704D01*
X234442739Y-351010742D01*
X234703183Y-350902863D01*
X234947317Y-350761912D01*
X235170965Y-350590300D01*
X235370300Y-350390965D01*
X235541912Y-350167317D01*
X235682863Y-349923183D01*
X235790742Y-349662739D01*
X235863704Y-349390442D01*
X235900500Y-349110951D01*
X235900500Y-327129049D01*
X235900499Y-327129041D01*
X244099500Y-327129041D01*
X244099500Y-349110958D01*
X244136295Y-349390439D01*
X244209259Y-349662743D01*
X244317135Y-349923179D01*
X244317140Y-349923190D01*
X244458083Y-350167309D01*
X244458088Y-350167317D01*
X244629700Y-350390965D01*
X244629704Y-350390970D01*
X244829029Y-350590295D01*
X244829033Y-350590298D01*
X244829035Y-350590300D01*
X245052683Y-350761912D01*
X245052690Y-350761916D01*
X245296809Y-350902859D01*
X245296814Y-350902861D01*
X245296817Y-350902863D01*
X245557261Y-351010742D01*
X245829558Y-351083704D01*
X246109049Y-351120500D01*
X246109056Y-351120500D01*
X246390944Y-351120500D01*
X246390951Y-351120500D01*
X246670442Y-351083704D01*
X246942739Y-351010742D01*
X247203183Y-350902863D01*
X247447317Y-350761912D01*
X247670965Y-350590300D01*
X247870300Y-350390965D01*
X248041912Y-350167317D01*
X248182863Y-349923183D01*
X248290742Y-349662739D01*
X248363704Y-349390442D01*
X248400500Y-349110951D01*
X248400500Y-342809568D01*
X268749500Y-342809568D01*
X268749500Y-343090431D01*
X268780942Y-343369494D01*
X268780945Y-343369512D01*
X268843439Y-343643317D01*
X268843443Y-343643329D01*
X268936200Y-343908411D01*
X269058053Y-344161442D01*
X269058055Y-344161445D01*
X269207477Y-344399248D01*
X269382584Y-344618825D01*
X269581175Y-344817416D01*
X269800752Y-344992523D01*
X270038555Y-345141945D01*
X270291592Y-345263801D01*
X270490680Y-345333465D01*
X270556670Y-345356556D01*
X270556682Y-345356560D01*
X270830491Y-345419055D01*
X270830497Y-345419055D01*
X270830505Y-345419057D01*
X271016547Y-345440018D01*
X271109569Y-345450499D01*
X271109572Y-345450500D01*
X271109575Y-345450500D01*
X271390428Y-345450500D01*
X271390429Y-345450499D01*
X271533055Y-345434429D01*
X271669494Y-345419057D01*
X271669499Y-345419056D01*
X271669509Y-345419055D01*
X271943318Y-345356560D01*
X272208408Y-345263801D01*
X272461445Y-345141945D01*
X272699248Y-344992523D01*
X272918825Y-344817416D01*
X273117416Y-344618825D01*
X273292523Y-344399248D01*
X273441945Y-344161445D01*
X273563801Y-343908408D01*
X273656560Y-343643318D01*
X273719055Y-343369509D01*
X273750500Y-343090425D01*
X273750500Y-342809575D01*
X273750499Y-342809568D01*
X301249500Y-342809568D01*
X301249500Y-343090431D01*
X301280942Y-343369494D01*
X301280945Y-343369512D01*
X301343439Y-343643317D01*
X301343443Y-343643329D01*
X301436200Y-343908411D01*
X301558053Y-344161442D01*
X301558055Y-344161445D01*
X301707477Y-344399248D01*
X301882584Y-344618825D01*
X302081175Y-344817416D01*
X302300752Y-344992523D01*
X302538555Y-345141945D01*
X302791592Y-345263801D01*
X302990680Y-345333465D01*
X303056670Y-345356556D01*
X303056682Y-345356560D01*
X303330491Y-345419055D01*
X303330497Y-345419055D01*
X303330505Y-345419057D01*
X303516547Y-345440018D01*
X303609569Y-345450499D01*
X303609572Y-345450500D01*
X303609575Y-345450500D01*
X303890428Y-345450500D01*
X303890429Y-345450499D01*
X304033055Y-345434429D01*
X304169494Y-345419057D01*
X304169499Y-345419056D01*
X304169509Y-345419055D01*
X304443318Y-345356560D01*
X304708408Y-345263801D01*
X304961445Y-345141945D01*
X305199248Y-344992523D01*
X305418825Y-344817416D01*
X305617416Y-344618825D01*
X305792523Y-344399248D01*
X305941945Y-344161445D01*
X306063801Y-343908408D01*
X306156560Y-343643318D01*
X306219055Y-343369509D01*
X306250500Y-343090425D01*
X306250500Y-342809575D01*
X306219055Y-342530491D01*
X306156560Y-342256682D01*
X306063801Y-341991592D01*
X305941945Y-341738555D01*
X305792523Y-341500752D01*
X305617416Y-341281175D01*
X305418825Y-341082584D01*
X305199248Y-340907477D01*
X304961445Y-340758055D01*
X304961442Y-340758053D01*
X304708411Y-340636200D01*
X304443329Y-340543443D01*
X304443317Y-340543439D01*
X304169512Y-340480945D01*
X304169494Y-340480942D01*
X303890431Y-340449500D01*
X303890425Y-340449500D01*
X303609575Y-340449500D01*
X303609568Y-340449500D01*
X303330505Y-340480942D01*
X303330487Y-340480945D01*
X303056682Y-340543439D01*
X303056670Y-340543443D01*
X302791588Y-340636200D01*
X302538557Y-340758053D01*
X302300753Y-340907476D01*
X302081175Y-341082583D01*
X301882583Y-341281175D01*
X301707476Y-341500753D01*
X301558053Y-341738557D01*
X301436200Y-341991588D01*
X301343443Y-342256670D01*
X301343439Y-342256682D01*
X301280945Y-342530487D01*
X301280942Y-342530505D01*
X301249500Y-342809568D01*
X273750499Y-342809568D01*
X273719055Y-342530491D01*
X273656560Y-342256682D01*
X273563801Y-341991592D01*
X273441945Y-341738555D01*
X273292523Y-341500752D01*
X273117416Y-341281175D01*
X272918825Y-341082584D01*
X272699248Y-340907477D01*
X272461445Y-340758055D01*
X272461442Y-340758053D01*
X272208411Y-340636200D01*
X271943329Y-340543443D01*
X271943317Y-340543439D01*
X271669512Y-340480945D01*
X271669494Y-340480942D01*
X271390431Y-340449500D01*
X271390425Y-340449500D01*
X271109575Y-340449500D01*
X271109568Y-340449500D01*
X270830505Y-340480942D01*
X270830487Y-340480945D01*
X270556682Y-340543439D01*
X270556670Y-340543443D01*
X270291588Y-340636200D01*
X270038557Y-340758053D01*
X269800753Y-340907476D01*
X269581175Y-341082583D01*
X269382583Y-341281175D01*
X269207476Y-341500753D01*
X269058053Y-341738557D01*
X268936200Y-341991588D01*
X268843443Y-342256670D01*
X268843439Y-342256682D01*
X268780945Y-342530487D01*
X268780942Y-342530505D01*
X268749500Y-342809568D01*
X248400500Y-342809568D01*
X248400500Y-337803499D01*
X319299500Y-337803499D01*
X319299500Y-338196500D01*
X319333751Y-338587995D01*
X319333751Y-338587999D01*
X319401991Y-338975005D01*
X319401993Y-338975015D01*
X319503707Y-339354616D01*
X319503708Y-339354618D01*
X319503708Y-339354619D01*
X319638124Y-339723921D01*
X319804195Y-340080062D01*
X319804207Y-340080086D01*
X320000695Y-340420412D01*
X320000704Y-340420427D01*
X320226115Y-340742347D01*
X320418793Y-340971971D01*
X320478722Y-341043391D01*
X320756609Y-341321278D01*
X320863738Y-341411170D01*
X321057652Y-341573884D01*
X321057658Y-341573888D01*
X321057659Y-341573889D01*
X321379579Y-341799300D01*
X321698546Y-341983455D01*
X321712631Y-341991588D01*
X321719920Y-341995796D01*
X321719934Y-341995802D01*
X321719937Y-341995804D01*
X322076078Y-342161875D01*
X322076083Y-342161876D01*
X322076092Y-342161881D01*
X322445384Y-342296293D01*
X322824985Y-342398007D01*
X323212007Y-342466249D01*
X323603502Y-342500499D01*
X323603503Y-342500500D01*
X323603504Y-342500500D01*
X323996497Y-342500500D01*
X323996497Y-342500499D01*
X324387993Y-342466249D01*
X324775015Y-342398007D01*
X325154616Y-342296293D01*
X325523908Y-342161881D01*
X325880080Y-341995796D01*
X326220421Y-341799300D01*
X326542341Y-341573889D01*
X326843391Y-341321278D01*
X327121278Y-341043391D01*
X327373889Y-340742341D01*
X327599300Y-340420421D01*
X327795796Y-340080080D01*
X327961881Y-339723908D01*
X328096293Y-339354616D01*
X328198007Y-338975015D01*
X328266249Y-338587993D01*
X328300500Y-338196496D01*
X328300500Y-337803504D01*
X328266249Y-337412007D01*
X328198007Y-337024985D01*
X328096293Y-336645384D01*
X327961881Y-336276092D01*
X327961876Y-336276083D01*
X327961875Y-336276078D01*
X327795804Y-335919937D01*
X327795792Y-335919913D01*
X327783455Y-335898546D01*
X327599300Y-335579579D01*
X327373889Y-335257659D01*
X327373888Y-335257658D01*
X327373884Y-335257652D01*
X327121275Y-334956606D01*
X326843393Y-334678724D01*
X326542347Y-334426115D01*
X326220427Y-334200704D01*
X326220424Y-334200702D01*
X326220421Y-334200700D01*
X326119305Y-334142320D01*
X325880086Y-334004207D01*
X325880062Y-334004195D01*
X325523921Y-333838124D01*
X325523910Y-333838120D01*
X325523908Y-333838119D01*
X325154616Y-333703707D01*
X324913960Y-333639223D01*
X324775016Y-333601993D01*
X324775005Y-333601991D01*
X324387997Y-333533751D01*
X323996500Y-333499500D01*
X323996496Y-333499500D01*
X323603504Y-333499500D01*
X323603499Y-333499500D01*
X323212004Y-333533751D01*
X323212000Y-333533751D01*
X322824994Y-333601991D01*
X322824983Y-333601993D01*
X322621555Y-333656502D01*
X322445384Y-333703707D01*
X322445381Y-333703708D01*
X322445380Y-333703708D01*
X322076078Y-333838124D01*
X321719937Y-334004195D01*
X321719913Y-334004207D01*
X321379587Y-334200695D01*
X321379572Y-334200704D01*
X321057652Y-334426115D01*
X320756606Y-334678724D01*
X320478724Y-334956606D01*
X320226115Y-335257652D01*
X320000704Y-335579572D01*
X320000695Y-335579587D01*
X319804207Y-335919913D01*
X319804195Y-335919937D01*
X319638124Y-336276078D01*
X319503708Y-336645380D01*
X319503708Y-336645382D01*
X319401993Y-337024983D01*
X319401991Y-337024994D01*
X319333751Y-337412000D01*
X319333751Y-337412004D01*
X319299500Y-337803499D01*
X248400500Y-337803499D01*
X248400500Y-327129049D01*
X248363704Y-326849558D01*
X248290742Y-326577261D01*
X248182863Y-326316817D01*
X248182861Y-326316814D01*
X248182859Y-326316809D01*
X248041916Y-326072690D01*
X248041912Y-326072683D01*
X247870300Y-325849035D01*
X247870298Y-325849033D01*
X247870295Y-325849029D01*
X247670970Y-325649704D01*
X247670965Y-325649700D01*
X247447317Y-325478088D01*
X247335418Y-325413483D01*
X247203190Y-325337140D01*
X247203179Y-325337135D01*
X247136626Y-325309568D01*
X268749500Y-325309568D01*
X268749500Y-325590431D01*
X268780942Y-325869494D01*
X268780945Y-325869512D01*
X268843439Y-326143317D01*
X268843443Y-326143329D01*
X268936200Y-326408411D01*
X269058053Y-326661442D01*
X269058055Y-326661445D01*
X269207477Y-326899248D01*
X269382584Y-327118825D01*
X269581175Y-327317416D01*
X269800752Y-327492523D01*
X270038555Y-327641945D01*
X270291592Y-327763801D01*
X270490680Y-327833465D01*
X270556670Y-327856556D01*
X270556682Y-327856560D01*
X270830491Y-327919055D01*
X270830497Y-327919055D01*
X270830505Y-327919057D01*
X271016547Y-327940018D01*
X271109569Y-327950499D01*
X271109572Y-327950500D01*
X271109575Y-327950500D01*
X271390428Y-327950500D01*
X271390429Y-327950499D01*
X271533055Y-327934429D01*
X271669494Y-327919057D01*
X271669499Y-327919056D01*
X271669509Y-327919055D01*
X271943318Y-327856560D01*
X272208408Y-327763801D01*
X272461445Y-327641945D01*
X272699248Y-327492523D01*
X272918825Y-327317416D01*
X273117416Y-327118825D01*
X273292523Y-326899248D01*
X273441945Y-326661445D01*
X273563801Y-326408408D01*
X273656560Y-326143318D01*
X273719055Y-325869509D01*
X273750500Y-325590425D01*
X273750500Y-325309575D01*
X273719055Y-325030491D01*
X273656560Y-324756682D01*
X273563801Y-324491592D01*
X273441945Y-324238555D01*
X273292523Y-324000752D01*
X273117416Y-323781175D01*
X272918825Y-323582584D01*
X272699248Y-323407477D01*
X272461445Y-323258055D01*
X272461442Y-323258053D01*
X272208411Y-323136200D01*
X271943329Y-323043443D01*
X271943317Y-323043439D01*
X271669512Y-322980945D01*
X271669494Y-322980942D01*
X271390431Y-322949500D01*
X271390425Y-322949500D01*
X271109575Y-322949500D01*
X271109568Y-322949500D01*
X270830505Y-322980942D01*
X270830487Y-322980945D01*
X270556682Y-323043439D01*
X270556670Y-323043443D01*
X270291588Y-323136200D01*
X270038557Y-323258053D01*
X269800753Y-323407476D01*
X269581175Y-323582583D01*
X269382583Y-323781175D01*
X269207476Y-324000753D01*
X269058053Y-324238557D01*
X268936200Y-324491588D01*
X268843443Y-324756670D01*
X268843439Y-324756682D01*
X268780945Y-325030487D01*
X268780942Y-325030505D01*
X268749500Y-325309568D01*
X247136626Y-325309568D01*
X246942743Y-325229259D01*
X246670439Y-325156295D01*
X246390958Y-325119500D01*
X246390951Y-325119500D01*
X246109049Y-325119500D01*
X246109041Y-325119500D01*
X245829560Y-325156295D01*
X245557256Y-325229259D01*
X245296820Y-325337135D01*
X245296809Y-325337140D01*
X245052690Y-325478083D01*
X245052682Y-325478089D01*
X244829029Y-325649704D01*
X244629704Y-325849029D01*
X244458089Y-326072682D01*
X244458083Y-326072690D01*
X244317140Y-326316809D01*
X244317135Y-326316820D01*
X244209259Y-326577256D01*
X244136295Y-326849560D01*
X244099500Y-327129041D01*
X235900499Y-327129041D01*
X235863704Y-326849558D01*
X235790742Y-326577261D01*
X235682863Y-326316817D01*
X235682861Y-326316814D01*
X235682859Y-326316809D01*
X235541916Y-326072690D01*
X235541912Y-326072683D01*
X235370300Y-325849035D01*
X235370298Y-325849033D01*
X235370295Y-325849029D01*
X235170970Y-325649704D01*
X235170965Y-325649700D01*
X234947317Y-325478088D01*
X234947311Y-325478084D01*
X234947309Y-325478083D01*
X234703190Y-325337140D01*
X234703179Y-325337135D01*
X234442743Y-325229259D01*
X234170439Y-325156295D01*
X233890958Y-325119500D01*
X233890951Y-325119500D01*
X233609049Y-325119500D01*
X233609041Y-325119500D01*
X233329560Y-325156295D01*
X233057256Y-325229259D01*
X232796820Y-325337135D01*
X232796809Y-325337140D01*
X232552690Y-325478083D01*
X232552682Y-325478089D01*
X232329029Y-325649704D01*
X232129704Y-325849029D01*
X231958089Y-326072682D01*
X231958083Y-326072690D01*
X231817140Y-326316809D01*
X231817135Y-326316820D01*
X231709259Y-326577256D01*
X231636295Y-326849560D01*
X231599500Y-327129041D01*
X223400499Y-327129041D01*
X223363704Y-326849558D01*
X223290742Y-326577261D01*
X223182863Y-326316817D01*
X223182861Y-326316814D01*
X223182859Y-326316809D01*
X223041916Y-326072690D01*
X223041912Y-326072683D01*
X222870300Y-325849035D01*
X222870298Y-325849033D01*
X222870295Y-325849029D01*
X222670970Y-325649704D01*
X222670965Y-325649700D01*
X222447317Y-325478088D01*
X222447311Y-325478084D01*
X222447309Y-325478083D01*
X222203190Y-325337140D01*
X222203179Y-325337135D01*
X221942743Y-325229259D01*
X221670439Y-325156295D01*
X221390958Y-325119500D01*
X221390951Y-325119500D01*
X221109049Y-325119500D01*
X221109041Y-325119500D01*
X220829560Y-325156295D01*
X220557256Y-325229259D01*
X220296820Y-325337135D01*
X220296809Y-325337140D01*
X220052690Y-325478083D01*
X220052682Y-325478089D01*
X219829029Y-325649704D01*
X219629704Y-325849029D01*
X219458089Y-326072682D01*
X219458083Y-326072690D01*
X219317140Y-326316809D01*
X219317135Y-326316820D01*
X219209259Y-326577256D01*
X219136295Y-326849560D01*
X219099500Y-327129041D01*
X210900499Y-327129041D01*
X210863704Y-326849558D01*
X210790742Y-326577261D01*
X210682863Y-326316817D01*
X210682861Y-326316814D01*
X210682859Y-326316809D01*
X210541916Y-326072690D01*
X210541912Y-326072683D01*
X210370300Y-325849035D01*
X210370298Y-325849033D01*
X210370295Y-325849029D01*
X210170970Y-325649704D01*
X210170965Y-325649700D01*
X209947317Y-325478088D01*
X209947311Y-325478084D01*
X209947309Y-325478083D01*
X209703190Y-325337140D01*
X209703179Y-325337135D01*
X209442743Y-325229259D01*
X209170439Y-325156295D01*
X208890958Y-325119500D01*
X208890951Y-325119500D01*
X208609049Y-325119500D01*
X208609041Y-325119500D01*
X208329560Y-325156295D01*
X208057256Y-325229259D01*
X207796820Y-325337135D01*
X207796809Y-325337140D01*
X207552690Y-325478083D01*
X207552682Y-325478089D01*
X207329029Y-325649704D01*
X207129704Y-325849029D01*
X206958089Y-326072682D01*
X206958083Y-326072690D01*
X206817140Y-326316809D01*
X206817135Y-326316820D01*
X206709259Y-326577256D01*
X206636295Y-326849560D01*
X206599500Y-327129041D01*
X178400499Y-327129041D01*
X178363704Y-326849558D01*
X178290742Y-326577261D01*
X178182863Y-326316817D01*
X178182861Y-326316814D01*
X178182859Y-326316809D01*
X178041916Y-326072690D01*
X178041912Y-326072683D01*
X177870300Y-325849035D01*
X177870298Y-325849033D01*
X177870295Y-325849029D01*
X177670970Y-325649704D01*
X177670965Y-325649700D01*
X177447317Y-325478088D01*
X177447311Y-325478084D01*
X177447309Y-325478083D01*
X177203190Y-325337140D01*
X177203179Y-325337135D01*
X176942743Y-325229259D01*
X176670439Y-325156295D01*
X176390958Y-325119500D01*
X176390951Y-325119500D01*
X176109049Y-325119500D01*
X176109041Y-325119500D01*
X175829560Y-325156295D01*
X175557256Y-325229259D01*
X175296820Y-325337135D01*
X175296809Y-325337140D01*
X175052690Y-325478083D01*
X175052682Y-325478089D01*
X174829029Y-325649704D01*
X174629704Y-325849029D01*
X174458089Y-326072682D01*
X174458083Y-326072690D01*
X174317140Y-326316809D01*
X174317135Y-326316820D01*
X174209259Y-326577256D01*
X174136295Y-326849560D01*
X174099500Y-327129041D01*
X165900499Y-327129041D01*
X165863704Y-326849558D01*
X165790742Y-326577261D01*
X165682863Y-326316817D01*
X165682861Y-326316814D01*
X165682859Y-326316809D01*
X165541916Y-326072690D01*
X165541912Y-326072683D01*
X165370300Y-325849035D01*
X165370298Y-325849033D01*
X165370295Y-325849029D01*
X165170970Y-325649704D01*
X165170965Y-325649700D01*
X164947317Y-325478088D01*
X164947311Y-325478084D01*
X164947309Y-325478083D01*
X164703190Y-325337140D01*
X164703179Y-325337135D01*
X164442743Y-325229259D01*
X164170439Y-325156295D01*
X163890958Y-325119500D01*
X163890951Y-325119500D01*
X163609049Y-325119500D01*
X163609041Y-325119500D01*
X163329560Y-325156295D01*
X163057256Y-325229259D01*
X162796820Y-325337135D01*
X162796809Y-325337140D01*
X162552690Y-325478083D01*
X162552682Y-325478089D01*
X162329029Y-325649704D01*
X162129704Y-325849029D01*
X161958089Y-326072682D01*
X161958083Y-326072690D01*
X161817140Y-326316809D01*
X161817135Y-326316820D01*
X161709259Y-326577256D01*
X161636295Y-326849560D01*
X161599500Y-327129041D01*
X153400499Y-327129041D01*
X153363704Y-326849558D01*
X153290742Y-326577261D01*
X153182863Y-326316817D01*
X153182861Y-326316814D01*
X153182859Y-326316809D01*
X153041916Y-326072690D01*
X153041912Y-326072683D01*
X152870300Y-325849035D01*
X152870298Y-325849033D01*
X152870295Y-325849029D01*
X152670970Y-325649704D01*
X152670965Y-325649700D01*
X152447317Y-325478088D01*
X152447311Y-325478084D01*
X152447309Y-325478083D01*
X152203190Y-325337140D01*
X152203179Y-325337135D01*
X151942743Y-325229259D01*
X151670439Y-325156295D01*
X151390958Y-325119500D01*
X151390951Y-325119500D01*
X151109049Y-325119500D01*
X151109041Y-325119500D01*
X150829560Y-325156295D01*
X150557256Y-325229259D01*
X150296820Y-325337135D01*
X150296809Y-325337140D01*
X150052690Y-325478083D01*
X150052682Y-325478089D01*
X149829029Y-325649704D01*
X149629704Y-325849029D01*
X149458089Y-326072682D01*
X149458083Y-326072690D01*
X149317140Y-326316809D01*
X149317135Y-326316820D01*
X149209259Y-326577256D01*
X149136295Y-326849560D01*
X149099500Y-327129041D01*
X140900499Y-327129041D01*
X140863704Y-326849558D01*
X140790742Y-326577261D01*
X140682863Y-326316817D01*
X140682861Y-326316814D01*
X140682859Y-326316809D01*
X140541916Y-326072690D01*
X140541912Y-326072683D01*
X140370300Y-325849035D01*
X140370298Y-325849033D01*
X140370295Y-325849029D01*
X140170970Y-325649704D01*
X140170965Y-325649700D01*
X139947317Y-325478088D01*
X139947311Y-325478084D01*
X139947309Y-325478083D01*
X139703190Y-325337140D01*
X139703179Y-325337135D01*
X139442743Y-325229259D01*
X139170439Y-325156295D01*
X138890958Y-325119500D01*
X138890951Y-325119500D01*
X138609049Y-325119500D01*
X138609041Y-325119500D01*
X138329560Y-325156295D01*
X138057256Y-325229259D01*
X137796820Y-325337135D01*
X137796809Y-325337140D01*
X137552690Y-325478083D01*
X137552682Y-325478089D01*
X137329029Y-325649704D01*
X137129704Y-325849029D01*
X136958089Y-326072682D01*
X136958083Y-326072690D01*
X136817140Y-326316809D01*
X136817135Y-326316820D01*
X136709259Y-326577256D01*
X136636295Y-326849560D01*
X136599500Y-327129041D01*
X15000500Y-327129041D01*
X15000500Y-307809568D01*
X138749500Y-307809568D01*
X138749500Y-308090431D01*
X138780942Y-308369494D01*
X138780945Y-308369512D01*
X138843439Y-308643317D01*
X138843443Y-308643329D01*
X138936200Y-308908411D01*
X139058053Y-309161442D01*
X139058055Y-309161445D01*
X139207477Y-309399248D01*
X139382584Y-309618825D01*
X139581175Y-309817416D01*
X139800752Y-309992523D01*
X140038555Y-310141945D01*
X140291592Y-310263801D01*
X140434484Y-310313801D01*
X140556670Y-310356556D01*
X140556682Y-310356560D01*
X140830491Y-310419055D01*
X140830497Y-310419055D01*
X140830505Y-310419057D01*
X141016547Y-310440018D01*
X141109569Y-310450499D01*
X141109572Y-310450500D01*
X141109575Y-310450500D01*
X141390428Y-310450500D01*
X141390429Y-310450499D01*
X141533055Y-310434429D01*
X141669494Y-310419057D01*
X141669499Y-310419056D01*
X141669509Y-310419055D01*
X141943318Y-310356560D01*
X142208408Y-310263801D01*
X142461445Y-310141945D01*
X142699248Y-309992523D01*
X142918825Y-309817416D01*
X143117416Y-309618825D01*
X143292523Y-309399248D01*
X143441945Y-309161445D01*
X143563801Y-308908408D01*
X143656560Y-308643318D01*
X143719055Y-308369509D01*
X143750500Y-308090425D01*
X143750500Y-307809575D01*
X143750499Y-307809568D01*
X156249500Y-307809568D01*
X156249500Y-308090431D01*
X156280942Y-308369494D01*
X156280945Y-308369512D01*
X156343439Y-308643317D01*
X156343443Y-308643329D01*
X156436200Y-308908411D01*
X156558053Y-309161442D01*
X156558055Y-309161445D01*
X156707477Y-309399248D01*
X156882584Y-309618825D01*
X157081175Y-309817416D01*
X157300752Y-309992523D01*
X157538555Y-310141945D01*
X157791592Y-310263801D01*
X157934484Y-310313801D01*
X158056670Y-310356556D01*
X158056682Y-310356560D01*
X158330491Y-310419055D01*
X158330497Y-310419055D01*
X158330505Y-310419057D01*
X158516547Y-310440018D01*
X158609569Y-310450499D01*
X158609572Y-310450500D01*
X158609575Y-310450500D01*
X158890428Y-310450500D01*
X158890429Y-310450499D01*
X159033055Y-310434429D01*
X159169494Y-310419057D01*
X159169499Y-310419056D01*
X159169509Y-310419055D01*
X159443318Y-310356560D01*
X159708408Y-310263801D01*
X159961445Y-310141945D01*
X160199248Y-309992523D01*
X160418825Y-309817416D01*
X160617416Y-309618825D01*
X160792523Y-309399248D01*
X160941945Y-309161445D01*
X161063801Y-308908408D01*
X161156560Y-308643318D01*
X161219055Y-308369509D01*
X161250500Y-308090425D01*
X161250500Y-307809575D01*
X161249816Y-307803500D01*
X161249816Y-307803499D01*
X171699500Y-307803499D01*
X171699500Y-308196500D01*
X171733751Y-308587995D01*
X171733751Y-308587999D01*
X171799065Y-308958411D01*
X171801993Y-308975015D01*
X171903707Y-309354616D01*
X172018070Y-309668825D01*
X172038124Y-309723921D01*
X172204195Y-310080062D01*
X172204207Y-310080086D01*
X172239922Y-310141946D01*
X172399912Y-310419057D01*
X172400695Y-310420412D01*
X172400704Y-310420427D01*
X172626115Y-310742347D01*
X172794812Y-310943391D01*
X172878722Y-311043391D01*
X173156609Y-311321278D01*
X173263738Y-311411170D01*
X173457652Y-311573884D01*
X173457658Y-311573888D01*
X173457659Y-311573889D01*
X173779579Y-311799300D01*
X174119920Y-311995796D01*
X174119934Y-311995802D01*
X174119937Y-311995804D01*
X174476078Y-312161875D01*
X174476083Y-312161876D01*
X174476092Y-312161881D01*
X174845384Y-312296293D01*
X175224985Y-312398007D01*
X175612007Y-312466249D01*
X176003502Y-312500499D01*
X176003503Y-312500500D01*
X176003504Y-312500500D01*
X176396497Y-312500500D01*
X176396497Y-312500499D01*
X176787993Y-312466249D01*
X177175015Y-312398007D01*
X177554616Y-312296293D01*
X177923908Y-312161881D01*
X178280080Y-311995796D01*
X178620421Y-311799300D01*
X178942341Y-311573889D01*
X179243391Y-311321278D01*
X179521278Y-311043391D01*
X179773889Y-310742341D01*
X179999300Y-310420421D01*
X180195796Y-310080080D01*
X180361881Y-309723908D01*
X180496293Y-309354616D01*
X180598007Y-308975015D01*
X180666249Y-308587993D01*
X180700500Y-308196496D01*
X180700500Y-307803504D01*
X180691751Y-307703499D01*
X204299500Y-307703499D01*
X204299500Y-308096500D01*
X204333751Y-308487995D01*
X204333751Y-308487999D01*
X204401991Y-308875005D01*
X204401993Y-308875016D01*
X204410941Y-308908411D01*
X204503707Y-309254616D01*
X204503708Y-309254618D01*
X204503708Y-309254619D01*
X204638124Y-309623921D01*
X204804195Y-309980062D01*
X204804207Y-309980086D01*
X204897657Y-310141945D01*
X204968010Y-310263801D01*
X205000695Y-310320412D01*
X205000704Y-310320427D01*
X205226115Y-310642347D01*
X205418793Y-310871971D01*
X205478722Y-310943391D01*
X205756609Y-311221278D01*
X205863738Y-311311170D01*
X206057652Y-311473884D01*
X206057658Y-311473888D01*
X206057659Y-311473889D01*
X206379579Y-311699300D01*
X206719920Y-311895796D01*
X206719934Y-311895802D01*
X206719937Y-311895804D01*
X207076078Y-312061875D01*
X207076083Y-312061876D01*
X207076092Y-312061881D01*
X207445384Y-312196293D01*
X207824985Y-312298007D01*
X208212007Y-312366249D01*
X208603502Y-312400499D01*
X208603503Y-312400500D01*
X208603504Y-312400500D01*
X208996497Y-312400500D01*
X208996497Y-312400499D01*
X209387993Y-312366249D01*
X209775015Y-312298007D01*
X210154616Y-312196293D01*
X210523908Y-312061881D01*
X210880080Y-311895796D01*
X211220421Y-311699300D01*
X211542341Y-311473889D01*
X211843391Y-311221278D01*
X212121278Y-310943391D01*
X212373889Y-310642341D01*
X212599300Y-310320421D01*
X212795796Y-309980080D01*
X212961881Y-309623908D01*
X213096293Y-309254616D01*
X213198007Y-308875015D01*
X213266249Y-308487993D01*
X213300500Y-308096496D01*
X213300500Y-307703504D01*
X213300500Y-307703499D01*
X241699500Y-307703499D01*
X241699500Y-308096500D01*
X241733751Y-308487995D01*
X241733751Y-308487999D01*
X241801991Y-308875005D01*
X241801993Y-308875016D01*
X241810941Y-308908411D01*
X241903707Y-309254616D01*
X241903708Y-309254618D01*
X241903708Y-309254619D01*
X242038124Y-309623921D01*
X242204195Y-309980062D01*
X242204207Y-309980086D01*
X242297657Y-310141945D01*
X242368010Y-310263801D01*
X242400695Y-310320412D01*
X242400704Y-310320427D01*
X242626115Y-310642347D01*
X242818793Y-310871971D01*
X242878722Y-310943391D01*
X243156609Y-311221278D01*
X243263738Y-311311170D01*
X243457652Y-311473884D01*
X243457658Y-311473888D01*
X243457659Y-311473889D01*
X243779579Y-311699300D01*
X244119920Y-311895796D01*
X244119934Y-311895802D01*
X244119937Y-311895804D01*
X244476078Y-312061875D01*
X244476083Y-312061876D01*
X244476092Y-312061881D01*
X244845384Y-312196293D01*
X245224985Y-312298007D01*
X245612007Y-312366249D01*
X246003502Y-312400499D01*
X246003503Y-312400500D01*
X246003504Y-312400500D01*
X246396497Y-312400500D01*
X246396497Y-312400499D01*
X246787993Y-312366249D01*
X247175015Y-312298007D01*
X247554616Y-312196293D01*
X247923908Y-312061881D01*
X248280080Y-311895796D01*
X248620421Y-311699300D01*
X248942341Y-311473889D01*
X249243391Y-311221278D01*
X249521278Y-310943391D01*
X249773889Y-310642341D01*
X249999300Y-310320421D01*
X250195796Y-309980080D01*
X250361881Y-309623908D01*
X250496293Y-309254616D01*
X250598007Y-308875015D01*
X250666249Y-308487993D01*
X250700500Y-308096496D01*
X250700500Y-307809568D01*
X268749500Y-307809568D01*
X268749500Y-308090431D01*
X268780942Y-308369494D01*
X268780945Y-308369512D01*
X268843439Y-308643317D01*
X268843443Y-308643329D01*
X268936200Y-308908411D01*
X269058053Y-309161442D01*
X269058055Y-309161445D01*
X269207477Y-309399248D01*
X269382584Y-309618825D01*
X269581175Y-309817416D01*
X269800752Y-309992523D01*
X270038555Y-310141945D01*
X270291592Y-310263801D01*
X270434484Y-310313801D01*
X270556670Y-310356556D01*
X270556682Y-310356560D01*
X270830491Y-310419055D01*
X270830497Y-310419055D01*
X270830505Y-310419057D01*
X271016547Y-310440018D01*
X271109569Y-310450499D01*
X271109572Y-310450500D01*
X271109575Y-310450500D01*
X271390428Y-310450500D01*
X271390429Y-310450499D01*
X271533055Y-310434429D01*
X271669494Y-310419057D01*
X271669499Y-310419056D01*
X271669509Y-310419055D01*
X271943318Y-310356560D01*
X272208408Y-310263801D01*
X272461445Y-310141945D01*
X272699248Y-309992523D01*
X272918825Y-309817416D01*
X273117416Y-309618825D01*
X273292523Y-309399248D01*
X273441945Y-309161445D01*
X273563801Y-308908408D01*
X273656560Y-308643318D01*
X273719055Y-308369509D01*
X273750500Y-308090425D01*
X273750500Y-307859568D01*
X301249500Y-307859568D01*
X301249500Y-308140431D01*
X301280942Y-308419494D01*
X301280945Y-308419512D01*
X301343439Y-308693317D01*
X301343443Y-308693329D01*
X301436200Y-308958411D01*
X301558053Y-309211442D01*
X301558055Y-309211445D01*
X301707477Y-309449248D01*
X301882584Y-309668825D01*
X302081175Y-309867416D01*
X302300752Y-310042523D01*
X302538555Y-310191945D01*
X302791592Y-310313801D01*
X302990680Y-310383465D01*
X303056670Y-310406556D01*
X303056682Y-310406560D01*
X303330491Y-310469055D01*
X303330497Y-310469055D01*
X303330505Y-310469057D01*
X303516547Y-310490018D01*
X303609569Y-310500499D01*
X303609572Y-310500500D01*
X303609575Y-310500500D01*
X303890428Y-310500500D01*
X303890429Y-310500499D01*
X304033055Y-310484429D01*
X304169494Y-310469057D01*
X304169499Y-310469056D01*
X304169509Y-310469055D01*
X304443318Y-310406560D01*
X304708408Y-310313801D01*
X304961445Y-310191945D01*
X305199248Y-310042523D01*
X305418825Y-309867416D01*
X305617416Y-309668825D01*
X305792523Y-309449248D01*
X305941945Y-309211445D01*
X306063801Y-308958408D01*
X306156560Y-308693318D01*
X306219055Y-308419509D01*
X306250500Y-308140425D01*
X306250500Y-307859575D01*
X306245442Y-307814681D01*
X306244182Y-307803499D01*
X319299500Y-307803499D01*
X319299500Y-308196500D01*
X319333751Y-308587995D01*
X319333751Y-308587999D01*
X319399065Y-308958411D01*
X319401993Y-308975015D01*
X319503707Y-309354616D01*
X319618070Y-309668825D01*
X319638124Y-309723921D01*
X319804195Y-310080062D01*
X319804207Y-310080086D01*
X319839922Y-310141946D01*
X319999912Y-310419057D01*
X320000695Y-310420412D01*
X320000704Y-310420427D01*
X320226115Y-310742347D01*
X320394812Y-310943391D01*
X320478722Y-311043391D01*
X320756609Y-311321278D01*
X320863738Y-311411170D01*
X321057652Y-311573884D01*
X321057658Y-311573888D01*
X321057659Y-311573889D01*
X321379579Y-311799300D01*
X321719920Y-311995796D01*
X321719934Y-311995802D01*
X321719937Y-311995804D01*
X322076078Y-312161875D01*
X322076083Y-312161876D01*
X322076092Y-312161881D01*
X322445384Y-312296293D01*
X322824985Y-312398007D01*
X323212007Y-312466249D01*
X323603502Y-312500499D01*
X323603503Y-312500500D01*
X323603504Y-312500500D01*
X323996497Y-312500500D01*
X323996497Y-312500499D01*
X324387993Y-312466249D01*
X324775015Y-312398007D01*
X325154616Y-312296293D01*
X325523908Y-312161881D01*
X325880080Y-311995796D01*
X326220421Y-311799300D01*
X326542341Y-311573889D01*
X326843391Y-311321278D01*
X327121278Y-311043391D01*
X327373889Y-310742341D01*
X327599300Y-310420421D01*
X327795796Y-310080080D01*
X327961881Y-309723908D01*
X328096293Y-309354616D01*
X328198007Y-308975015D01*
X328266249Y-308587993D01*
X328300500Y-308196496D01*
X328300500Y-307803504D01*
X328266249Y-307412007D01*
X328198007Y-307024985D01*
X328096293Y-306645384D01*
X327961881Y-306276092D01*
X327961876Y-306276083D01*
X327961875Y-306276078D01*
X327795804Y-305919937D01*
X327795792Y-305919913D01*
X327731211Y-305808055D01*
X327599300Y-305579579D01*
X327373889Y-305257659D01*
X327373888Y-305257658D01*
X327373884Y-305257652D01*
X327121275Y-304956606D01*
X326843393Y-304678724D01*
X326542347Y-304426115D01*
X326220427Y-304200704D01*
X326220424Y-304200702D01*
X326220421Y-304200700D01*
X326047216Y-304100700D01*
X325880086Y-304004207D01*
X325880062Y-304004195D01*
X325523921Y-303838124D01*
X325523910Y-303838120D01*
X325523908Y-303838119D01*
X325154616Y-303703707D01*
X324913960Y-303639223D01*
X324775016Y-303601993D01*
X324775005Y-303601991D01*
X324387997Y-303533751D01*
X323996500Y-303499500D01*
X323996496Y-303499500D01*
X323603504Y-303499500D01*
X323603499Y-303499500D01*
X323212004Y-303533751D01*
X323212000Y-303533751D01*
X322824994Y-303601991D01*
X322824983Y-303601993D01*
X322621555Y-303656502D01*
X322445384Y-303703707D01*
X322445381Y-303703708D01*
X322445380Y-303703708D01*
X322076078Y-303838124D01*
X321719937Y-304004195D01*
X321719913Y-304004207D01*
X321379587Y-304200695D01*
X321379572Y-304200704D01*
X321057652Y-304426115D01*
X320756606Y-304678724D01*
X320478724Y-304956606D01*
X320226115Y-305257652D01*
X320000704Y-305579572D01*
X320000695Y-305579587D01*
X319804207Y-305919913D01*
X319804195Y-305919937D01*
X319638124Y-306276078D01*
X319540106Y-306545380D01*
X319503707Y-306645384D01*
X319465344Y-306788555D01*
X319401993Y-307024983D01*
X319401991Y-307024994D01*
X319333751Y-307412000D01*
X319333751Y-307412004D01*
X319299500Y-307803499D01*
X306244182Y-307803499D01*
X306219057Y-307580505D01*
X306219054Y-307580487D01*
X306156560Y-307306682D01*
X306156556Y-307306670D01*
X306133465Y-307240680D01*
X306063801Y-307041592D01*
X305941945Y-306788555D01*
X305792523Y-306550752D01*
X305617416Y-306331175D01*
X305418825Y-306132584D01*
X305199248Y-305957477D01*
X304961445Y-305808055D01*
X304961442Y-305808053D01*
X304708411Y-305686200D01*
X304443329Y-305593443D01*
X304443317Y-305593439D01*
X304169512Y-305530945D01*
X304169494Y-305530942D01*
X303890431Y-305499500D01*
X303890425Y-305499500D01*
X303609575Y-305499500D01*
X303609568Y-305499500D01*
X303330505Y-305530942D01*
X303330487Y-305530945D01*
X303056682Y-305593439D01*
X303056670Y-305593443D01*
X302791588Y-305686200D01*
X302538557Y-305808053D01*
X302300753Y-305957476D01*
X302081175Y-306132583D01*
X301882583Y-306331175D01*
X301707476Y-306550753D01*
X301558053Y-306788557D01*
X301436200Y-307041588D01*
X301343443Y-307306670D01*
X301343439Y-307306682D01*
X301280945Y-307580487D01*
X301280942Y-307580505D01*
X301249500Y-307859568D01*
X273750500Y-307859568D01*
X273750500Y-307809575D01*
X273719055Y-307530491D01*
X273656560Y-307256682D01*
X273563801Y-306991592D01*
X273441945Y-306738555D01*
X273292523Y-306500752D01*
X273117416Y-306281175D01*
X272918825Y-306082584D01*
X272699248Y-305907477D01*
X272461445Y-305758055D01*
X272461442Y-305758053D01*
X272208411Y-305636200D01*
X271943329Y-305543443D01*
X271943317Y-305543439D01*
X271669512Y-305480945D01*
X271669494Y-305480942D01*
X271390431Y-305449500D01*
X271390425Y-305449500D01*
X271109575Y-305449500D01*
X271109568Y-305449500D01*
X270830505Y-305480942D01*
X270830487Y-305480945D01*
X270556682Y-305543439D01*
X270556670Y-305543443D01*
X270291588Y-305636200D01*
X270038557Y-305758053D01*
X269800753Y-305907476D01*
X269581175Y-306082583D01*
X269382583Y-306281175D01*
X269207476Y-306500753D01*
X269058053Y-306738557D01*
X268936200Y-306991588D01*
X268843443Y-307256670D01*
X268843439Y-307256682D01*
X268780945Y-307530487D01*
X268780942Y-307530505D01*
X268749500Y-307809568D01*
X250700500Y-307809568D01*
X250700500Y-307703504D01*
X250666249Y-307312007D01*
X250598007Y-306924985D01*
X250496293Y-306545384D01*
X250361881Y-306176092D01*
X250361876Y-306176083D01*
X250361875Y-306176078D01*
X250195804Y-305819937D01*
X250195792Y-305819913D01*
X250160077Y-305758053D01*
X249999300Y-305479579D01*
X249773889Y-305157659D01*
X249773888Y-305157658D01*
X249773884Y-305157652D01*
X249521275Y-304856606D01*
X249243393Y-304578724D01*
X248942347Y-304326115D01*
X248620427Y-304100704D01*
X248620424Y-304100702D01*
X248620421Y-304100700D01*
X248453285Y-304004204D01*
X248280086Y-303904207D01*
X248280062Y-303904195D01*
X247923921Y-303738124D01*
X247923910Y-303738120D01*
X247923908Y-303738119D01*
X247554616Y-303603707D01*
X247293537Y-303533751D01*
X247175016Y-303501993D01*
X247175005Y-303501991D01*
X246787997Y-303433751D01*
X246396500Y-303399500D01*
X246396496Y-303399500D01*
X246003504Y-303399500D01*
X246003499Y-303399500D01*
X245612004Y-303433751D01*
X245612000Y-303433751D01*
X245224994Y-303501991D01*
X245224983Y-303501993D01*
X245021555Y-303556502D01*
X244845384Y-303603707D01*
X244845381Y-303603708D01*
X244845380Y-303603708D01*
X244476078Y-303738124D01*
X244119937Y-303904195D01*
X244119913Y-303904207D01*
X243779587Y-304100695D01*
X243779572Y-304100704D01*
X243457652Y-304326115D01*
X243156606Y-304578724D01*
X242878724Y-304856606D01*
X242626115Y-305157652D01*
X242400704Y-305479572D01*
X242400695Y-305479587D01*
X242204207Y-305819913D01*
X242204195Y-305819937D01*
X242038124Y-306176078D01*
X241919952Y-306500752D01*
X241903707Y-306545384D01*
X241876913Y-306645380D01*
X241801993Y-306924983D01*
X241801991Y-306924994D01*
X241733751Y-307312000D01*
X241733751Y-307312004D01*
X241699500Y-307703499D01*
X213300500Y-307703499D01*
X213266249Y-307312007D01*
X213198007Y-306924985D01*
X213096293Y-306545384D01*
X212961881Y-306176092D01*
X212961876Y-306176083D01*
X212961875Y-306176078D01*
X212795804Y-305819937D01*
X212795792Y-305819913D01*
X212760077Y-305758053D01*
X212599300Y-305479579D01*
X212373889Y-305157659D01*
X212373888Y-305157658D01*
X212373884Y-305157652D01*
X212121275Y-304856606D01*
X211843393Y-304578724D01*
X211542347Y-304326115D01*
X211220427Y-304100704D01*
X211220424Y-304100702D01*
X211220421Y-304100700D01*
X211053285Y-304004204D01*
X210880086Y-303904207D01*
X210880062Y-303904195D01*
X210523921Y-303738124D01*
X210523910Y-303738120D01*
X210523908Y-303738119D01*
X210154616Y-303603707D01*
X209893537Y-303533751D01*
X209775016Y-303501993D01*
X209775005Y-303501991D01*
X209387997Y-303433751D01*
X208996500Y-303399500D01*
X208996496Y-303399500D01*
X208603504Y-303399500D01*
X208603499Y-303399500D01*
X208212004Y-303433751D01*
X208212000Y-303433751D01*
X207824994Y-303501991D01*
X207824983Y-303501993D01*
X207621555Y-303556502D01*
X207445384Y-303603707D01*
X207445381Y-303603708D01*
X207445380Y-303603708D01*
X207076078Y-303738124D01*
X206719937Y-303904195D01*
X206719913Y-303904207D01*
X206379587Y-304100695D01*
X206379572Y-304100704D01*
X206057652Y-304326115D01*
X205756606Y-304578724D01*
X205478724Y-304856606D01*
X205226115Y-305157652D01*
X205000704Y-305479572D01*
X205000695Y-305479587D01*
X204804207Y-305819913D01*
X204804195Y-305819937D01*
X204638124Y-306176078D01*
X204519952Y-306500752D01*
X204503707Y-306545384D01*
X204476913Y-306645380D01*
X204401993Y-306924983D01*
X204401991Y-306924994D01*
X204333751Y-307312000D01*
X204333751Y-307312004D01*
X204299500Y-307703499D01*
X180691751Y-307703499D01*
X180666249Y-307412007D01*
X180598007Y-307024985D01*
X180496293Y-306645384D01*
X180361881Y-306276092D01*
X180361876Y-306276083D01*
X180361875Y-306276078D01*
X180195804Y-305919937D01*
X180195792Y-305919913D01*
X180131211Y-305808055D01*
X179999300Y-305579579D01*
X179773889Y-305257659D01*
X179773888Y-305257658D01*
X179773884Y-305257652D01*
X179521275Y-304956606D01*
X179243393Y-304678724D01*
X178942347Y-304426115D01*
X178620427Y-304200704D01*
X178620424Y-304200702D01*
X178620421Y-304200700D01*
X178447216Y-304100700D01*
X178280086Y-304004207D01*
X178280062Y-304004195D01*
X177923921Y-303838124D01*
X177923910Y-303838120D01*
X177923908Y-303838119D01*
X177554616Y-303703707D01*
X177313960Y-303639223D01*
X177175016Y-303601993D01*
X177175005Y-303601991D01*
X176787997Y-303533751D01*
X176396500Y-303499500D01*
X176396496Y-303499500D01*
X176003504Y-303499500D01*
X176003499Y-303499500D01*
X175612004Y-303533751D01*
X175612000Y-303533751D01*
X175224994Y-303601991D01*
X175224983Y-303601993D01*
X175021555Y-303656502D01*
X174845384Y-303703707D01*
X174845381Y-303703708D01*
X174845380Y-303703708D01*
X174476078Y-303838124D01*
X174119937Y-304004195D01*
X174119913Y-304004207D01*
X173779587Y-304200695D01*
X173779572Y-304200704D01*
X173457652Y-304426115D01*
X173156606Y-304678724D01*
X172878724Y-304956606D01*
X172626115Y-305257652D01*
X172400704Y-305579572D01*
X172400695Y-305579587D01*
X172204207Y-305919913D01*
X172204195Y-305919937D01*
X172038124Y-306276078D01*
X171940106Y-306545380D01*
X171903707Y-306645384D01*
X171865344Y-306788555D01*
X171801993Y-307024983D01*
X171801991Y-307024994D01*
X171733751Y-307412000D01*
X171733751Y-307412004D01*
X171699500Y-307803499D01*
X161249816Y-307803499D01*
X161219057Y-307530505D01*
X161219054Y-307530487D01*
X161156560Y-307256682D01*
X161156556Y-307256670D01*
X161133465Y-307190680D01*
X161063801Y-306991592D01*
X160941945Y-306738555D01*
X160792523Y-306500752D01*
X160617416Y-306281175D01*
X160418825Y-306082584D01*
X160199248Y-305907477D01*
X159961445Y-305758055D01*
X159961442Y-305758053D01*
X159708411Y-305636200D01*
X159443329Y-305543443D01*
X159443317Y-305543439D01*
X159169512Y-305480945D01*
X159169494Y-305480942D01*
X158890431Y-305449500D01*
X158890425Y-305449500D01*
X158609575Y-305449500D01*
X158609568Y-305449500D01*
X158330505Y-305480942D01*
X158330487Y-305480945D01*
X158056682Y-305543439D01*
X158056670Y-305543443D01*
X157791588Y-305636200D01*
X157538557Y-305758053D01*
X157300753Y-305907476D01*
X157081175Y-306082583D01*
X156882583Y-306281175D01*
X156707476Y-306500753D01*
X156558053Y-306738557D01*
X156436200Y-306991588D01*
X156343443Y-307256670D01*
X156343439Y-307256682D01*
X156280945Y-307530487D01*
X156280942Y-307530505D01*
X156249500Y-307809568D01*
X143750499Y-307809568D01*
X143719055Y-307530491D01*
X143656560Y-307256682D01*
X143563801Y-306991592D01*
X143441945Y-306738555D01*
X143292523Y-306500752D01*
X143117416Y-306281175D01*
X142918825Y-306082584D01*
X142699248Y-305907477D01*
X142461445Y-305758055D01*
X142461442Y-305758053D01*
X142208411Y-305636200D01*
X141943329Y-305543443D01*
X141943317Y-305543439D01*
X141669512Y-305480945D01*
X141669494Y-305480942D01*
X141390431Y-305449500D01*
X141390425Y-305449500D01*
X141109575Y-305449500D01*
X141109568Y-305449500D01*
X140830505Y-305480942D01*
X140830487Y-305480945D01*
X140556682Y-305543439D01*
X140556670Y-305543443D01*
X140291588Y-305636200D01*
X140038557Y-305758053D01*
X139800753Y-305907476D01*
X139581175Y-306082583D01*
X139382583Y-306281175D01*
X139207476Y-306500753D01*
X139058053Y-306738557D01*
X138936200Y-306991588D01*
X138843443Y-307256670D01*
X138843439Y-307256682D01*
X138780945Y-307530487D01*
X138780942Y-307530505D01*
X138749500Y-307809568D01*
X15000500Y-307809568D01*
X15000500Y-262129041D01*
X136599500Y-262129041D01*
X136599500Y-284110958D01*
X136636295Y-284390439D01*
X136709259Y-284662743D01*
X136817135Y-284923179D01*
X136817140Y-284923190D01*
X136958083Y-285167309D01*
X136958088Y-285167317D01*
X137129700Y-285390965D01*
X137129704Y-285390970D01*
X137329029Y-285590295D01*
X137329033Y-285590298D01*
X137329035Y-285590300D01*
X137552683Y-285761912D01*
X137552690Y-285761916D01*
X137796809Y-285902859D01*
X137796814Y-285902861D01*
X137796817Y-285902863D01*
X138057261Y-286010742D01*
X138329558Y-286083704D01*
X138609049Y-286120500D01*
X138609056Y-286120500D01*
X138890944Y-286120500D01*
X138890951Y-286120500D01*
X139170442Y-286083704D01*
X139442739Y-286010742D01*
X139703183Y-285902863D01*
X139947317Y-285761912D01*
X140170965Y-285590300D01*
X140370300Y-285390965D01*
X140541912Y-285167317D01*
X140682863Y-284923183D01*
X140790742Y-284662739D01*
X140863704Y-284390442D01*
X140900500Y-284110951D01*
X140900500Y-262129049D01*
X140900499Y-262129041D01*
X149099500Y-262129041D01*
X149099500Y-284110958D01*
X149136295Y-284390439D01*
X149209259Y-284662743D01*
X149317135Y-284923179D01*
X149317140Y-284923190D01*
X149458083Y-285167309D01*
X149458088Y-285167317D01*
X149629700Y-285390965D01*
X149629704Y-285390970D01*
X149829029Y-285590295D01*
X149829033Y-285590298D01*
X149829035Y-285590300D01*
X150052683Y-285761912D01*
X150052690Y-285761916D01*
X150296809Y-285902859D01*
X150296814Y-285902861D01*
X150296817Y-285902863D01*
X150557261Y-286010742D01*
X150829558Y-286083704D01*
X151109049Y-286120500D01*
X151109056Y-286120500D01*
X151390944Y-286120500D01*
X151390951Y-286120500D01*
X151670442Y-286083704D01*
X151942739Y-286010742D01*
X152203183Y-285902863D01*
X152447317Y-285761912D01*
X152670965Y-285590300D01*
X152870300Y-285390965D01*
X153041912Y-285167317D01*
X153182863Y-284923183D01*
X153290742Y-284662739D01*
X153363704Y-284390442D01*
X153400500Y-284110951D01*
X153400500Y-262129049D01*
X153400499Y-262129041D01*
X161599500Y-262129041D01*
X161599500Y-284110958D01*
X161636295Y-284390439D01*
X161709259Y-284662743D01*
X161817135Y-284923179D01*
X161817140Y-284923190D01*
X161958083Y-285167309D01*
X161958088Y-285167317D01*
X162129700Y-285390965D01*
X162129704Y-285390970D01*
X162329029Y-285590295D01*
X162329033Y-285590298D01*
X162329035Y-285590300D01*
X162552683Y-285761912D01*
X162552690Y-285761916D01*
X162796809Y-285902859D01*
X162796814Y-285902861D01*
X162796817Y-285902863D01*
X163057261Y-286010742D01*
X163329558Y-286083704D01*
X163609049Y-286120500D01*
X163609056Y-286120500D01*
X163890944Y-286120500D01*
X163890951Y-286120500D01*
X164170442Y-286083704D01*
X164442739Y-286010742D01*
X164703183Y-285902863D01*
X164947317Y-285761912D01*
X165170965Y-285590300D01*
X165370300Y-285390965D01*
X165541912Y-285167317D01*
X165682863Y-284923183D01*
X165790742Y-284662739D01*
X165863704Y-284390442D01*
X165900500Y-284110951D01*
X165900500Y-262129049D01*
X165900499Y-262129041D01*
X174099500Y-262129041D01*
X174099500Y-284110958D01*
X174136295Y-284390439D01*
X174209259Y-284662743D01*
X174317135Y-284923179D01*
X174317140Y-284923190D01*
X174458083Y-285167309D01*
X174458088Y-285167317D01*
X174629700Y-285390965D01*
X174629704Y-285390970D01*
X174829029Y-285590295D01*
X174829033Y-285590298D01*
X174829035Y-285590300D01*
X175052683Y-285761912D01*
X175052690Y-285761916D01*
X175296809Y-285902859D01*
X175296814Y-285902861D01*
X175296817Y-285902863D01*
X175557261Y-286010742D01*
X175829558Y-286083704D01*
X176109049Y-286120500D01*
X176109056Y-286120500D01*
X176390944Y-286120500D01*
X176390951Y-286120500D01*
X176670442Y-286083704D01*
X176942739Y-286010742D01*
X177203183Y-285902863D01*
X177447317Y-285761912D01*
X177670965Y-285590300D01*
X177870300Y-285390965D01*
X178041912Y-285167317D01*
X178182863Y-284923183D01*
X178290742Y-284662739D01*
X178363704Y-284390442D01*
X178400500Y-284110951D01*
X178400500Y-262129049D01*
X178400499Y-262129041D01*
X186599500Y-262129041D01*
X186599500Y-284110958D01*
X186636295Y-284390439D01*
X186709259Y-284662743D01*
X186817135Y-284923179D01*
X186817140Y-284923190D01*
X186958083Y-285167309D01*
X186958088Y-285167317D01*
X187129700Y-285390965D01*
X187129704Y-285390970D01*
X187329029Y-285590295D01*
X187329033Y-285590298D01*
X187329035Y-285590300D01*
X187552683Y-285761912D01*
X187552690Y-285761916D01*
X187796809Y-285902859D01*
X187796814Y-285902861D01*
X187796817Y-285902863D01*
X188057261Y-286010742D01*
X188329558Y-286083704D01*
X188609049Y-286120500D01*
X188609056Y-286120500D01*
X188890944Y-286120500D01*
X188890951Y-286120500D01*
X189170442Y-286083704D01*
X189442739Y-286010742D01*
X189703183Y-285902863D01*
X189947317Y-285761912D01*
X190170965Y-285590300D01*
X190370300Y-285390965D01*
X190541912Y-285167317D01*
X190682863Y-284923183D01*
X190790742Y-284662739D01*
X190863704Y-284390442D01*
X190900500Y-284110951D01*
X190900500Y-262129049D01*
X190900499Y-262129041D01*
X206599500Y-262129041D01*
X206599500Y-284110958D01*
X206636295Y-284390439D01*
X206709259Y-284662743D01*
X206817135Y-284923179D01*
X206817140Y-284923190D01*
X206958083Y-285167309D01*
X206958088Y-285167317D01*
X207129700Y-285390965D01*
X207129704Y-285390970D01*
X207329029Y-285590295D01*
X207329033Y-285590298D01*
X207329035Y-285590300D01*
X207552683Y-285761912D01*
X207552690Y-285761916D01*
X207796809Y-285902859D01*
X207796814Y-285902861D01*
X207796817Y-285902863D01*
X208057261Y-286010742D01*
X208329558Y-286083704D01*
X208609049Y-286120500D01*
X208609056Y-286120500D01*
X208890944Y-286120500D01*
X208890951Y-286120500D01*
X209170442Y-286083704D01*
X209442739Y-286010742D01*
X209703183Y-285902863D01*
X209947317Y-285761912D01*
X210170965Y-285590300D01*
X210370300Y-285390965D01*
X210541912Y-285167317D01*
X210682863Y-284923183D01*
X210790742Y-284662739D01*
X210863704Y-284390442D01*
X210900500Y-284110951D01*
X210900500Y-262129049D01*
X210900499Y-262129041D01*
X219099500Y-262129041D01*
X219099500Y-284110958D01*
X219136295Y-284390439D01*
X219209259Y-284662743D01*
X219317135Y-284923179D01*
X219317140Y-284923190D01*
X219458083Y-285167309D01*
X219458088Y-285167317D01*
X219629700Y-285390965D01*
X219629704Y-285390970D01*
X219829029Y-285590295D01*
X219829033Y-285590298D01*
X219829035Y-285590300D01*
X220052683Y-285761912D01*
X220052690Y-285761916D01*
X220296809Y-285902859D01*
X220296814Y-285902861D01*
X220296817Y-285902863D01*
X220557261Y-286010742D01*
X220829558Y-286083704D01*
X221109049Y-286120500D01*
X221109056Y-286120500D01*
X221390944Y-286120500D01*
X221390951Y-286120500D01*
X221670442Y-286083704D01*
X221942739Y-286010742D01*
X222203183Y-285902863D01*
X222447317Y-285761912D01*
X222670965Y-285590300D01*
X222870300Y-285390965D01*
X223041912Y-285167317D01*
X223182863Y-284923183D01*
X223290742Y-284662739D01*
X223363704Y-284390442D01*
X223400500Y-284110951D01*
X223400500Y-262129049D01*
X223400499Y-262129041D01*
X231599500Y-262129041D01*
X231599500Y-284110958D01*
X231636295Y-284390439D01*
X231709259Y-284662743D01*
X231817135Y-284923179D01*
X231817140Y-284923190D01*
X231958083Y-285167309D01*
X231958088Y-285167317D01*
X232129700Y-285390965D01*
X232129704Y-285390970D01*
X232329029Y-285590295D01*
X232329033Y-285590298D01*
X232329035Y-285590300D01*
X232552683Y-285761912D01*
X232552690Y-285761916D01*
X232796809Y-285902859D01*
X232796814Y-285902861D01*
X232796817Y-285902863D01*
X233057261Y-286010742D01*
X233329558Y-286083704D01*
X233609049Y-286120500D01*
X233609056Y-286120500D01*
X233890944Y-286120500D01*
X233890951Y-286120500D01*
X234170442Y-286083704D01*
X234442739Y-286010742D01*
X234703183Y-285902863D01*
X234947317Y-285761912D01*
X235170965Y-285590300D01*
X235370300Y-285390965D01*
X235541912Y-285167317D01*
X235682863Y-284923183D01*
X235790742Y-284662739D01*
X235863704Y-284390442D01*
X235900500Y-284110951D01*
X235900500Y-262129049D01*
X235900499Y-262129041D01*
X251599500Y-262129041D01*
X251599500Y-284110958D01*
X251636295Y-284390439D01*
X251709259Y-284662743D01*
X251817135Y-284923179D01*
X251817140Y-284923190D01*
X251958083Y-285167309D01*
X251958088Y-285167317D01*
X252129700Y-285390965D01*
X252129704Y-285390970D01*
X252329029Y-285590295D01*
X252329033Y-285590298D01*
X252329035Y-285590300D01*
X252552683Y-285761912D01*
X252552690Y-285761916D01*
X252796809Y-285902859D01*
X252796814Y-285902861D01*
X252796817Y-285902863D01*
X253057261Y-286010742D01*
X253329558Y-286083704D01*
X253609049Y-286120500D01*
X253609056Y-286120500D01*
X253890944Y-286120500D01*
X253890951Y-286120500D01*
X254170442Y-286083704D01*
X254442739Y-286010742D01*
X254703183Y-285902863D01*
X254947317Y-285761912D01*
X255170965Y-285590300D01*
X255370300Y-285390965D01*
X255541912Y-285167317D01*
X255682863Y-284923183D01*
X255790742Y-284662739D01*
X255863704Y-284390442D01*
X255900500Y-284110951D01*
X255900500Y-262129049D01*
X255900499Y-262129041D01*
X264099500Y-262129041D01*
X264099500Y-284110958D01*
X264136295Y-284390439D01*
X264209259Y-284662743D01*
X264317135Y-284923179D01*
X264317140Y-284923190D01*
X264458083Y-285167309D01*
X264458088Y-285167317D01*
X264629700Y-285390965D01*
X264629704Y-285390970D01*
X264829029Y-285590295D01*
X264829033Y-285590298D01*
X264829035Y-285590300D01*
X265052683Y-285761912D01*
X265052690Y-285761916D01*
X265296809Y-285902859D01*
X265296814Y-285902861D01*
X265296817Y-285902863D01*
X265557261Y-286010742D01*
X265829558Y-286083704D01*
X266109049Y-286120500D01*
X266109056Y-286120500D01*
X266390944Y-286120500D01*
X266390951Y-286120500D01*
X266670442Y-286083704D01*
X266942739Y-286010742D01*
X267203183Y-285902863D01*
X267447317Y-285761912D01*
X267670965Y-285590300D01*
X267870300Y-285390965D01*
X268041912Y-285167317D01*
X268182863Y-284923183D01*
X268290742Y-284662739D01*
X268363704Y-284390442D01*
X268400500Y-284110951D01*
X268400500Y-262129049D01*
X268400499Y-262129041D01*
X284099500Y-262129041D01*
X284099500Y-284110958D01*
X284136295Y-284390439D01*
X284209259Y-284662743D01*
X284317135Y-284923179D01*
X284317140Y-284923190D01*
X284458083Y-285167309D01*
X284458088Y-285167317D01*
X284629700Y-285390965D01*
X284629704Y-285390970D01*
X284829029Y-285590295D01*
X284829033Y-285590298D01*
X284829035Y-285590300D01*
X285052683Y-285761912D01*
X285052690Y-285761916D01*
X285296809Y-285902859D01*
X285296814Y-285902861D01*
X285296817Y-285902863D01*
X285557261Y-286010742D01*
X285829558Y-286083704D01*
X286109049Y-286120500D01*
X286109056Y-286120500D01*
X286390944Y-286120500D01*
X286390951Y-286120500D01*
X286670442Y-286083704D01*
X286942739Y-286010742D01*
X287203183Y-285902863D01*
X287447317Y-285761912D01*
X287670965Y-285590300D01*
X287870300Y-285390965D01*
X288041912Y-285167317D01*
X288182863Y-284923183D01*
X288290742Y-284662739D01*
X288363704Y-284390442D01*
X288400500Y-284110951D01*
X288400500Y-262129049D01*
X288400499Y-262129041D01*
X296599500Y-262129041D01*
X296599500Y-284110958D01*
X296636295Y-284390439D01*
X296709259Y-284662743D01*
X296817135Y-284923179D01*
X296817140Y-284923190D01*
X296958083Y-285167309D01*
X296958088Y-285167317D01*
X297129700Y-285390965D01*
X297129704Y-285390970D01*
X297329029Y-285590295D01*
X297329033Y-285590298D01*
X297329035Y-285590300D01*
X297552683Y-285761912D01*
X297552690Y-285761916D01*
X297796809Y-285902859D01*
X297796814Y-285902861D01*
X297796817Y-285902863D01*
X298057261Y-286010742D01*
X298329558Y-286083704D01*
X298609049Y-286120500D01*
X298609056Y-286120500D01*
X298890944Y-286120500D01*
X298890951Y-286120500D01*
X299170442Y-286083704D01*
X299442739Y-286010742D01*
X299703183Y-285902863D01*
X299947317Y-285761912D01*
X300170965Y-285590300D01*
X300370300Y-285390965D01*
X300541912Y-285167317D01*
X300682863Y-284923183D01*
X300790742Y-284662739D01*
X300863704Y-284390442D01*
X300900500Y-284110951D01*
X300900500Y-262129049D01*
X300900499Y-262129041D01*
X309099500Y-262129041D01*
X309099500Y-284110958D01*
X309136295Y-284390439D01*
X309209259Y-284662743D01*
X309317135Y-284923179D01*
X309317140Y-284923190D01*
X309458083Y-285167309D01*
X309458088Y-285167317D01*
X309629700Y-285390965D01*
X309629704Y-285390970D01*
X309829029Y-285590295D01*
X309829033Y-285590298D01*
X309829035Y-285590300D01*
X310052683Y-285761912D01*
X310052690Y-285761916D01*
X310296809Y-285902859D01*
X310296814Y-285902861D01*
X310296817Y-285902863D01*
X310557261Y-286010742D01*
X310829558Y-286083704D01*
X311109049Y-286120500D01*
X311109056Y-286120500D01*
X311390944Y-286120500D01*
X311390951Y-286120500D01*
X311670442Y-286083704D01*
X311942739Y-286010742D01*
X312203183Y-285902863D01*
X312447317Y-285761912D01*
X312670965Y-285590300D01*
X312870300Y-285390965D01*
X313041912Y-285167317D01*
X313182863Y-284923183D01*
X313290742Y-284662739D01*
X313363704Y-284390442D01*
X313400500Y-284110951D01*
X313400500Y-262129049D01*
X313400499Y-262129041D01*
X321599500Y-262129041D01*
X321599500Y-284110958D01*
X321636295Y-284390439D01*
X321709259Y-284662743D01*
X321817135Y-284923179D01*
X321817140Y-284923190D01*
X321958083Y-285167309D01*
X321958088Y-285167317D01*
X322129700Y-285390965D01*
X322129704Y-285390970D01*
X322329029Y-285590295D01*
X322329033Y-285590298D01*
X322329035Y-285590300D01*
X322552683Y-285761912D01*
X322552690Y-285761916D01*
X322796809Y-285902859D01*
X322796814Y-285902861D01*
X322796817Y-285902863D01*
X323057261Y-286010742D01*
X323329558Y-286083704D01*
X323609049Y-286120500D01*
X323609056Y-286120500D01*
X323890944Y-286120500D01*
X323890951Y-286120500D01*
X324170442Y-286083704D01*
X324442739Y-286010742D01*
X324703183Y-285902863D01*
X324947317Y-285761912D01*
X325170965Y-285590300D01*
X325370300Y-285390965D01*
X325541912Y-285167317D01*
X325682863Y-284923183D01*
X325790742Y-284662739D01*
X325863704Y-284390442D01*
X325900500Y-284110951D01*
X325900500Y-262129049D01*
X325863704Y-261849558D01*
X325790742Y-261577261D01*
X325682863Y-261316817D01*
X325682861Y-261316814D01*
X325682859Y-261316809D01*
X325541916Y-261072690D01*
X325541912Y-261072683D01*
X325370300Y-260849035D01*
X325370298Y-260849033D01*
X325370295Y-260849029D01*
X325170970Y-260649704D01*
X325170965Y-260649700D01*
X324947317Y-260478088D01*
X324947311Y-260478084D01*
X324947309Y-260478083D01*
X324703190Y-260337140D01*
X324703179Y-260337135D01*
X324442743Y-260229259D01*
X324170439Y-260156295D01*
X323890958Y-260119500D01*
X323890951Y-260119500D01*
X323609049Y-260119500D01*
X323609041Y-260119500D01*
X323329560Y-260156295D01*
X323057256Y-260229259D01*
X322796820Y-260337135D01*
X322796809Y-260337140D01*
X322552690Y-260478083D01*
X322552682Y-260478089D01*
X322329029Y-260649704D01*
X322129704Y-260849029D01*
X321958089Y-261072682D01*
X321958083Y-261072690D01*
X321817140Y-261316809D01*
X321817135Y-261316820D01*
X321709259Y-261577256D01*
X321636295Y-261849560D01*
X321599500Y-262129041D01*
X313400499Y-262129041D01*
X313363704Y-261849558D01*
X313290742Y-261577261D01*
X313182863Y-261316817D01*
X313182861Y-261316814D01*
X313182859Y-261316809D01*
X313041916Y-261072690D01*
X313041912Y-261072683D01*
X312870300Y-260849035D01*
X312870298Y-260849033D01*
X312870295Y-260849029D01*
X312670970Y-260649704D01*
X312670965Y-260649700D01*
X312447317Y-260478088D01*
X312447311Y-260478084D01*
X312447309Y-260478083D01*
X312203190Y-260337140D01*
X312203179Y-260337135D01*
X311942743Y-260229259D01*
X311670439Y-260156295D01*
X311390958Y-260119500D01*
X311390951Y-260119500D01*
X311109049Y-260119500D01*
X311109041Y-260119500D01*
X310829560Y-260156295D01*
X310557256Y-260229259D01*
X310296820Y-260337135D01*
X310296809Y-260337140D01*
X310052690Y-260478083D01*
X310052682Y-260478089D01*
X309829029Y-260649704D01*
X309629704Y-260849029D01*
X309458089Y-261072682D01*
X309458083Y-261072690D01*
X309317140Y-261316809D01*
X309317135Y-261316820D01*
X309209259Y-261577256D01*
X309136295Y-261849560D01*
X309099500Y-262129041D01*
X300900499Y-262129041D01*
X300863704Y-261849558D01*
X300790742Y-261577261D01*
X300682863Y-261316817D01*
X300682861Y-261316814D01*
X300682859Y-261316809D01*
X300541916Y-261072690D01*
X300541912Y-261072683D01*
X300370300Y-260849035D01*
X300370298Y-260849033D01*
X300370295Y-260849029D01*
X300170970Y-260649704D01*
X300170965Y-260649700D01*
X299947317Y-260478088D01*
X299947311Y-260478084D01*
X299947309Y-260478083D01*
X299703190Y-260337140D01*
X299703179Y-260337135D01*
X299442743Y-260229259D01*
X299170439Y-260156295D01*
X298890958Y-260119500D01*
X298890951Y-260119500D01*
X298609049Y-260119500D01*
X298609041Y-260119500D01*
X298329560Y-260156295D01*
X298057256Y-260229259D01*
X297796820Y-260337135D01*
X297796809Y-260337140D01*
X297552690Y-260478083D01*
X297552682Y-260478089D01*
X297329029Y-260649704D01*
X297129704Y-260849029D01*
X296958089Y-261072682D01*
X296958083Y-261072690D01*
X296817140Y-261316809D01*
X296817135Y-261316820D01*
X296709259Y-261577256D01*
X296636295Y-261849560D01*
X296599500Y-262129041D01*
X288400499Y-262129041D01*
X288363704Y-261849558D01*
X288290742Y-261577261D01*
X288182863Y-261316817D01*
X288182861Y-261316814D01*
X288182859Y-261316809D01*
X288041916Y-261072690D01*
X288041912Y-261072683D01*
X287870300Y-260849035D01*
X287870298Y-260849033D01*
X287870295Y-260849029D01*
X287670970Y-260649704D01*
X287670965Y-260649700D01*
X287447317Y-260478088D01*
X287447311Y-260478084D01*
X287447309Y-260478083D01*
X287203190Y-260337140D01*
X287203179Y-260337135D01*
X286942743Y-260229259D01*
X286670439Y-260156295D01*
X286390958Y-260119500D01*
X286390951Y-260119500D01*
X286109049Y-260119500D01*
X286109041Y-260119500D01*
X285829560Y-260156295D01*
X285557256Y-260229259D01*
X285296820Y-260337135D01*
X285296809Y-260337140D01*
X285052690Y-260478083D01*
X285052682Y-260478089D01*
X284829029Y-260649704D01*
X284629704Y-260849029D01*
X284458089Y-261072682D01*
X284458083Y-261072690D01*
X284317140Y-261316809D01*
X284317135Y-261316820D01*
X284209259Y-261577256D01*
X284136295Y-261849560D01*
X284099500Y-262129041D01*
X268400499Y-262129041D01*
X268363704Y-261849558D01*
X268290742Y-261577261D01*
X268182863Y-261316817D01*
X268182861Y-261316814D01*
X268182859Y-261316809D01*
X268041916Y-261072690D01*
X268041912Y-261072683D01*
X267870300Y-260849035D01*
X267870298Y-260849033D01*
X267870295Y-260849029D01*
X267670970Y-260649704D01*
X267670965Y-260649700D01*
X267447317Y-260478088D01*
X267447311Y-260478084D01*
X267447309Y-260478083D01*
X267203190Y-260337140D01*
X267203179Y-260337135D01*
X266942743Y-260229259D01*
X266670439Y-260156295D01*
X266390958Y-260119500D01*
X266390951Y-260119500D01*
X266109049Y-260119500D01*
X266109041Y-260119500D01*
X265829560Y-260156295D01*
X265557256Y-260229259D01*
X265296820Y-260337135D01*
X265296809Y-260337140D01*
X265052690Y-260478083D01*
X265052682Y-260478089D01*
X264829029Y-260649704D01*
X264629704Y-260849029D01*
X264458089Y-261072682D01*
X264458083Y-261072690D01*
X264317140Y-261316809D01*
X264317135Y-261316820D01*
X264209259Y-261577256D01*
X264136295Y-261849560D01*
X264099500Y-262129041D01*
X255900499Y-262129041D01*
X255863704Y-261849558D01*
X255790742Y-261577261D01*
X255682863Y-261316817D01*
X255682861Y-261316814D01*
X255682859Y-261316809D01*
X255541916Y-261072690D01*
X255541912Y-261072683D01*
X255370300Y-260849035D01*
X255370298Y-260849033D01*
X255370295Y-260849029D01*
X255170970Y-260649704D01*
X255170965Y-260649700D01*
X254947317Y-260478088D01*
X254947311Y-260478084D01*
X254947309Y-260478083D01*
X254703190Y-260337140D01*
X254703179Y-260337135D01*
X254442743Y-260229259D01*
X254170439Y-260156295D01*
X253890958Y-260119500D01*
X253890951Y-260119500D01*
X253609049Y-260119500D01*
X253609041Y-260119500D01*
X253329560Y-260156295D01*
X253057256Y-260229259D01*
X252796820Y-260337135D01*
X252796809Y-260337140D01*
X252552690Y-260478083D01*
X252552682Y-260478089D01*
X252329029Y-260649704D01*
X252129704Y-260849029D01*
X251958089Y-261072682D01*
X251958083Y-261072690D01*
X251817140Y-261316809D01*
X251817135Y-261316820D01*
X251709259Y-261577256D01*
X251636295Y-261849560D01*
X251599500Y-262129041D01*
X235900499Y-262129041D01*
X235863704Y-261849558D01*
X235790742Y-261577261D01*
X235682863Y-261316817D01*
X235682861Y-261316814D01*
X235682859Y-261316809D01*
X235541916Y-261072690D01*
X235541912Y-261072683D01*
X235370300Y-260849035D01*
X235370298Y-260849033D01*
X235370295Y-260849029D01*
X235170970Y-260649704D01*
X235170965Y-260649700D01*
X234947317Y-260478088D01*
X234947311Y-260478084D01*
X234947309Y-260478083D01*
X234703190Y-260337140D01*
X234703179Y-260337135D01*
X234442743Y-260229259D01*
X234170439Y-260156295D01*
X233890958Y-260119500D01*
X233890951Y-260119500D01*
X233609049Y-260119500D01*
X233609041Y-260119500D01*
X233329560Y-260156295D01*
X233057256Y-260229259D01*
X232796820Y-260337135D01*
X232796809Y-260337140D01*
X232552690Y-260478083D01*
X232552682Y-260478089D01*
X232329029Y-260649704D01*
X232129704Y-260849029D01*
X231958089Y-261072682D01*
X231958083Y-261072690D01*
X231817140Y-261316809D01*
X231817135Y-261316820D01*
X231709259Y-261577256D01*
X231636295Y-261849560D01*
X231599500Y-262129041D01*
X223400499Y-262129041D01*
X223363704Y-261849558D01*
X223290742Y-261577261D01*
X223182863Y-261316817D01*
X223182861Y-261316814D01*
X223182859Y-261316809D01*
X223041916Y-261072690D01*
X223041912Y-261072683D01*
X222870300Y-260849035D01*
X222870298Y-260849033D01*
X222870295Y-260849029D01*
X222670970Y-260649704D01*
X222670965Y-260649700D01*
X222447317Y-260478088D01*
X222447311Y-260478084D01*
X222447309Y-260478083D01*
X222203190Y-260337140D01*
X222203179Y-260337135D01*
X221942743Y-260229259D01*
X221670439Y-260156295D01*
X221390958Y-260119500D01*
X221390951Y-260119500D01*
X221109049Y-260119500D01*
X221109041Y-260119500D01*
X220829560Y-260156295D01*
X220557256Y-260229259D01*
X220296820Y-260337135D01*
X220296809Y-260337140D01*
X220052690Y-260478083D01*
X220052682Y-260478089D01*
X219829029Y-260649704D01*
X219629704Y-260849029D01*
X219458089Y-261072682D01*
X219458083Y-261072690D01*
X219317140Y-261316809D01*
X219317135Y-261316820D01*
X219209259Y-261577256D01*
X219136295Y-261849560D01*
X219099500Y-262129041D01*
X210900499Y-262129041D01*
X210863704Y-261849558D01*
X210790742Y-261577261D01*
X210682863Y-261316817D01*
X210682861Y-261316814D01*
X210682859Y-261316809D01*
X210541916Y-261072690D01*
X210541912Y-261072683D01*
X210370300Y-260849035D01*
X210370298Y-260849033D01*
X210370295Y-260849029D01*
X210170970Y-260649704D01*
X210170965Y-260649700D01*
X209947317Y-260478088D01*
X209947311Y-260478084D01*
X209947309Y-260478083D01*
X209703190Y-260337140D01*
X209703179Y-260337135D01*
X209442743Y-260229259D01*
X209170439Y-260156295D01*
X208890958Y-260119500D01*
X208890951Y-260119500D01*
X208609049Y-260119500D01*
X208609041Y-260119500D01*
X208329560Y-260156295D01*
X208057256Y-260229259D01*
X207796820Y-260337135D01*
X207796809Y-260337140D01*
X207552690Y-260478083D01*
X207552682Y-260478089D01*
X207329029Y-260649704D01*
X207129704Y-260849029D01*
X206958089Y-261072682D01*
X206958083Y-261072690D01*
X206817140Y-261316809D01*
X206817135Y-261316820D01*
X206709259Y-261577256D01*
X206636295Y-261849560D01*
X206599500Y-262129041D01*
X190900499Y-262129041D01*
X190863704Y-261849558D01*
X190790742Y-261577261D01*
X190682863Y-261316817D01*
X190682861Y-261316814D01*
X190682859Y-261316809D01*
X190541916Y-261072690D01*
X190541912Y-261072683D01*
X190370300Y-260849035D01*
X190370298Y-260849033D01*
X190370295Y-260849029D01*
X190170970Y-260649704D01*
X190170965Y-260649700D01*
X189947317Y-260478088D01*
X189947311Y-260478084D01*
X189947309Y-260478083D01*
X189703190Y-260337140D01*
X189703179Y-260337135D01*
X189442743Y-260229259D01*
X189170439Y-260156295D01*
X188890958Y-260119500D01*
X188890951Y-260119500D01*
X188609049Y-260119500D01*
X188609041Y-260119500D01*
X188329560Y-260156295D01*
X188057256Y-260229259D01*
X187796820Y-260337135D01*
X187796809Y-260337140D01*
X187552690Y-260478083D01*
X187552682Y-260478089D01*
X187329029Y-260649704D01*
X187129704Y-260849029D01*
X186958089Y-261072682D01*
X186958083Y-261072690D01*
X186817140Y-261316809D01*
X186817135Y-261316820D01*
X186709259Y-261577256D01*
X186636295Y-261849560D01*
X186599500Y-262129041D01*
X178400499Y-262129041D01*
X178363704Y-261849558D01*
X178290742Y-261577261D01*
X178182863Y-261316817D01*
X178182861Y-261316814D01*
X178182859Y-261316809D01*
X178041916Y-261072690D01*
X178041912Y-261072683D01*
X177870300Y-260849035D01*
X177870298Y-260849033D01*
X177870295Y-260849029D01*
X177670970Y-260649704D01*
X177670965Y-260649700D01*
X177447317Y-260478088D01*
X177447311Y-260478084D01*
X177447309Y-260478083D01*
X177203190Y-260337140D01*
X177203179Y-260337135D01*
X176942743Y-260229259D01*
X176670439Y-260156295D01*
X176390958Y-260119500D01*
X176390951Y-260119500D01*
X176109049Y-260119500D01*
X176109041Y-260119500D01*
X175829560Y-260156295D01*
X175557256Y-260229259D01*
X175296820Y-260337135D01*
X175296809Y-260337140D01*
X175052690Y-260478083D01*
X175052682Y-260478089D01*
X174829029Y-260649704D01*
X174629704Y-260849029D01*
X174458089Y-261072682D01*
X174458083Y-261072690D01*
X174317140Y-261316809D01*
X174317135Y-261316820D01*
X174209259Y-261577256D01*
X174136295Y-261849560D01*
X174099500Y-262129041D01*
X165900499Y-262129041D01*
X165863704Y-261849558D01*
X165790742Y-261577261D01*
X165682863Y-261316817D01*
X165682861Y-261316814D01*
X165682859Y-261316809D01*
X165541916Y-261072690D01*
X165541912Y-261072683D01*
X165370300Y-260849035D01*
X165370298Y-260849033D01*
X165370295Y-260849029D01*
X165170970Y-260649704D01*
X165170965Y-260649700D01*
X164947317Y-260478088D01*
X164947311Y-260478084D01*
X164947309Y-260478083D01*
X164703190Y-260337140D01*
X164703179Y-260337135D01*
X164442743Y-260229259D01*
X164170439Y-260156295D01*
X163890958Y-260119500D01*
X163890951Y-260119500D01*
X163609049Y-260119500D01*
X163609041Y-260119500D01*
X163329560Y-260156295D01*
X163057256Y-260229259D01*
X162796820Y-260337135D01*
X162796809Y-260337140D01*
X162552690Y-260478083D01*
X162552682Y-260478089D01*
X162329029Y-260649704D01*
X162129704Y-260849029D01*
X161958089Y-261072682D01*
X161958083Y-261072690D01*
X161817140Y-261316809D01*
X161817135Y-261316820D01*
X161709259Y-261577256D01*
X161636295Y-261849560D01*
X161599500Y-262129041D01*
X153400499Y-262129041D01*
X153363704Y-261849558D01*
X153290742Y-261577261D01*
X153182863Y-261316817D01*
X153182861Y-261316814D01*
X153182859Y-261316809D01*
X153041916Y-261072690D01*
X153041912Y-261072683D01*
X152870300Y-260849035D01*
X152870298Y-260849033D01*
X152870295Y-260849029D01*
X152670970Y-260649704D01*
X152670965Y-260649700D01*
X152447317Y-260478088D01*
X152447311Y-260478084D01*
X152447309Y-260478083D01*
X152203190Y-260337140D01*
X152203179Y-260337135D01*
X151942743Y-260229259D01*
X151670439Y-260156295D01*
X151390958Y-260119500D01*
X151390951Y-260119500D01*
X151109049Y-260119500D01*
X151109041Y-260119500D01*
X150829560Y-260156295D01*
X150557256Y-260229259D01*
X150296820Y-260337135D01*
X150296809Y-260337140D01*
X150052690Y-260478083D01*
X150052682Y-260478089D01*
X149829029Y-260649704D01*
X149629704Y-260849029D01*
X149458089Y-261072682D01*
X149458083Y-261072690D01*
X149317140Y-261316809D01*
X149317135Y-261316820D01*
X149209259Y-261577256D01*
X149136295Y-261849560D01*
X149099500Y-262129041D01*
X140900499Y-262129041D01*
X140863704Y-261849558D01*
X140790742Y-261577261D01*
X140682863Y-261316817D01*
X140682861Y-261316814D01*
X140682859Y-261316809D01*
X140541916Y-261072690D01*
X140541912Y-261072683D01*
X140370300Y-260849035D01*
X140370298Y-260849033D01*
X140370295Y-260849029D01*
X140170970Y-260649704D01*
X140170965Y-260649700D01*
X139947317Y-260478088D01*
X139947311Y-260478084D01*
X139947309Y-260478083D01*
X139703190Y-260337140D01*
X139703179Y-260337135D01*
X139442743Y-260229259D01*
X139170439Y-260156295D01*
X138890958Y-260119500D01*
X138890951Y-260119500D01*
X138609049Y-260119500D01*
X138609041Y-260119500D01*
X138329560Y-260156295D01*
X138057256Y-260229259D01*
X137796820Y-260337135D01*
X137796809Y-260337140D01*
X137552690Y-260478083D01*
X137552682Y-260478089D01*
X137329029Y-260649704D01*
X137129704Y-260849029D01*
X136958089Y-261072682D01*
X136958083Y-261072690D01*
X136817140Y-261316809D01*
X136817135Y-261316820D01*
X136709259Y-261577256D01*
X136636295Y-261849560D01*
X136599500Y-262129041D01*
X15000500Y-262129041D01*
X15000500Y-245573468D01*
X134749500Y-245573468D01*
X134749500Y-245966532D01*
X134758748Y-246060425D01*
X134788026Y-246357702D01*
X134864704Y-246743194D01*
X134864707Y-246743205D01*
X134978810Y-247119354D01*
X135129230Y-247482499D01*
X135129232Y-247482504D01*
X135314511Y-247829137D01*
X135314522Y-247829155D01*
X135532887Y-248155960D01*
X135532897Y-248155974D01*
X135782254Y-248459817D01*
X136060182Y-248737745D01*
X136060187Y-248737749D01*
X136060188Y-248737750D01*
X136364031Y-248987107D01*
X136690851Y-249205482D01*
X136690860Y-249205487D01*
X136690862Y-249205488D01*
X137037495Y-249390767D01*
X137037497Y-249390767D01*
X137037503Y-249390771D01*
X137400647Y-249541190D01*
X137776785Y-249655290D01*
X137776791Y-249655291D01*
X137776794Y-249655292D01*
X137776805Y-249655295D01*
X138162297Y-249731973D01*
X138553468Y-249770500D01*
X138553471Y-249770500D01*
X138946529Y-249770500D01*
X138946532Y-249770500D01*
X139337703Y-249731973D01*
X139412748Y-249717045D01*
X139723194Y-249655295D01*
X139723205Y-249655292D01*
X139723205Y-249655291D01*
X139723215Y-249655290D01*
X140099353Y-249541190D01*
X140462497Y-249390771D01*
X140809149Y-249205482D01*
X141135969Y-248987107D01*
X141439812Y-248737750D01*
X141717750Y-248459812D01*
X141967107Y-248155969D01*
X142185482Y-247829149D01*
X142370771Y-247482497D01*
X142521190Y-247119353D01*
X142635290Y-246743215D01*
X142635292Y-246743205D01*
X142635295Y-246743194D01*
X142711973Y-246357702D01*
X142725877Y-246216532D01*
X142750500Y-245966532D01*
X142750500Y-245573468D01*
X147249500Y-245573468D01*
X147249500Y-245966532D01*
X147258748Y-246060425D01*
X147288026Y-246357702D01*
X147364704Y-246743194D01*
X147364707Y-246743205D01*
X147478810Y-247119354D01*
X147629230Y-247482499D01*
X147629232Y-247482504D01*
X147814511Y-247829137D01*
X147814522Y-247829155D01*
X148032887Y-248155960D01*
X148032897Y-248155974D01*
X148282254Y-248459817D01*
X148560182Y-248737745D01*
X148560187Y-248737749D01*
X148560188Y-248737750D01*
X148864031Y-248987107D01*
X149190851Y-249205482D01*
X149190860Y-249205487D01*
X149190862Y-249205488D01*
X149537495Y-249390767D01*
X149537497Y-249390767D01*
X149537503Y-249390771D01*
X149900647Y-249541190D01*
X150276785Y-249655290D01*
X150276791Y-249655291D01*
X150276794Y-249655292D01*
X150276805Y-249655295D01*
X150662297Y-249731973D01*
X151053468Y-249770500D01*
X151053471Y-249770500D01*
X151446529Y-249770500D01*
X151446532Y-249770500D01*
X151837703Y-249731973D01*
X151912748Y-249717045D01*
X152223194Y-249655295D01*
X152223205Y-249655292D01*
X152223205Y-249655291D01*
X152223215Y-249655290D01*
X152599353Y-249541190D01*
X152962497Y-249390771D01*
X153309149Y-249205482D01*
X153635969Y-248987107D01*
X153939812Y-248737750D01*
X154217750Y-248459812D01*
X154467107Y-248155969D01*
X154685482Y-247829149D01*
X154870771Y-247482497D01*
X155021190Y-247119353D01*
X155135290Y-246743215D01*
X155135292Y-246743205D01*
X155135295Y-246743194D01*
X155211973Y-246357702D01*
X155225877Y-246216532D01*
X155250500Y-245966532D01*
X155250500Y-245573468D01*
X159749500Y-245573468D01*
X159749500Y-245966532D01*
X159758748Y-246060425D01*
X159788026Y-246357702D01*
X159864704Y-246743194D01*
X159864707Y-246743205D01*
X159978810Y-247119354D01*
X160129230Y-247482499D01*
X160129232Y-247482504D01*
X160314511Y-247829137D01*
X160314522Y-247829155D01*
X160532887Y-248155960D01*
X160532897Y-248155974D01*
X160782254Y-248459817D01*
X161060182Y-248737745D01*
X161060187Y-248737749D01*
X161060188Y-248737750D01*
X161364031Y-248987107D01*
X161690851Y-249205482D01*
X161690860Y-249205487D01*
X161690862Y-249205488D01*
X162037495Y-249390767D01*
X162037497Y-249390767D01*
X162037503Y-249390771D01*
X162400647Y-249541190D01*
X162776785Y-249655290D01*
X162776791Y-249655291D01*
X162776794Y-249655292D01*
X162776805Y-249655295D01*
X163162297Y-249731973D01*
X163553468Y-249770500D01*
X163553471Y-249770500D01*
X163946529Y-249770500D01*
X163946532Y-249770500D01*
X164337703Y-249731973D01*
X164412748Y-249717045D01*
X164723194Y-249655295D01*
X164723205Y-249655292D01*
X164723205Y-249655291D01*
X164723215Y-249655290D01*
X165099353Y-249541190D01*
X165462497Y-249390771D01*
X165809149Y-249205482D01*
X166135969Y-248987107D01*
X166439812Y-248737750D01*
X166717750Y-248459812D01*
X166967107Y-248155969D01*
X167185482Y-247829149D01*
X167370771Y-247482497D01*
X167521190Y-247119353D01*
X167635290Y-246743215D01*
X167635292Y-246743205D01*
X167635295Y-246743194D01*
X167711973Y-246357702D01*
X167725877Y-246216532D01*
X167750500Y-245966532D01*
X167750500Y-245823471D01*
X172499500Y-245823471D01*
X172499500Y-246216528D01*
X172538026Y-246607702D01*
X172614704Y-246993194D01*
X172614707Y-246993205D01*
X172728810Y-247369354D01*
X172879230Y-247732499D01*
X172879232Y-247732504D01*
X173064511Y-248079137D01*
X173064522Y-248079155D01*
X173282887Y-248405960D01*
X173282897Y-248405974D01*
X173532254Y-248709817D01*
X173810182Y-248987745D01*
X173810187Y-248987749D01*
X173810188Y-248987750D01*
X174114031Y-249237107D01*
X174440851Y-249455482D01*
X174440860Y-249455487D01*
X174440862Y-249455488D01*
X174787495Y-249640767D01*
X174787497Y-249640767D01*
X174787503Y-249640771D01*
X175150647Y-249791190D01*
X175526785Y-249905290D01*
X175526791Y-249905291D01*
X175526794Y-249905292D01*
X175526805Y-249905295D01*
X175912297Y-249981973D01*
X176303468Y-250020500D01*
X176303471Y-250020500D01*
X176696529Y-250020500D01*
X176696532Y-250020500D01*
X177087703Y-249981973D01*
X177162748Y-249967045D01*
X177473194Y-249905295D01*
X177473205Y-249905292D01*
X177473205Y-249905291D01*
X177473215Y-249905290D01*
X177849353Y-249791190D01*
X178212497Y-249640771D01*
X178559149Y-249455482D01*
X178885969Y-249237107D01*
X179189812Y-248987750D01*
X179467750Y-248709812D01*
X179717107Y-248405969D01*
X179935482Y-248079149D01*
X180120771Y-247732497D01*
X180271190Y-247369353D01*
X180385290Y-246993215D01*
X180385292Y-246993205D01*
X180385295Y-246993194D01*
X180461973Y-246607702D01*
X180486596Y-246357702D01*
X180500500Y-246216532D01*
X180500500Y-245823471D01*
X184749500Y-245823471D01*
X184749500Y-246216528D01*
X184788026Y-246607702D01*
X184864704Y-246993194D01*
X184864707Y-246993205D01*
X184978810Y-247369354D01*
X185129230Y-247732499D01*
X185129232Y-247732504D01*
X185314511Y-248079137D01*
X185314522Y-248079155D01*
X185532887Y-248405960D01*
X185532897Y-248405974D01*
X185782254Y-248709817D01*
X186060182Y-248987745D01*
X186060187Y-248987749D01*
X186060188Y-248987750D01*
X186364031Y-249237107D01*
X186690851Y-249455482D01*
X186690860Y-249455487D01*
X186690862Y-249455488D01*
X187037495Y-249640767D01*
X187037497Y-249640767D01*
X187037503Y-249640771D01*
X187400647Y-249791190D01*
X187776785Y-249905290D01*
X187776791Y-249905291D01*
X187776794Y-249905292D01*
X187776805Y-249905295D01*
X188162297Y-249981973D01*
X188553468Y-250020500D01*
X188553471Y-250020500D01*
X188946529Y-250020500D01*
X188946532Y-250020500D01*
X189337703Y-249981973D01*
X189412748Y-249967045D01*
X189723194Y-249905295D01*
X189723205Y-249905292D01*
X189723205Y-249905291D01*
X189723215Y-249905290D01*
X190099353Y-249791190D01*
X190462497Y-249640771D01*
X190809149Y-249455482D01*
X191135969Y-249237107D01*
X191439812Y-248987750D01*
X191717750Y-248709812D01*
X191967107Y-248405969D01*
X192185482Y-248079149D01*
X192370771Y-247732497D01*
X192521190Y-247369353D01*
X192635290Y-246993215D01*
X192635292Y-246993205D01*
X192635295Y-246993194D01*
X192711973Y-246607702D01*
X192736596Y-246357702D01*
X192750500Y-246216532D01*
X192750500Y-245823468D01*
X192744206Y-245759568D01*
X231299500Y-245759568D01*
X231299500Y-246040431D01*
X231330942Y-246319494D01*
X231330945Y-246319512D01*
X231393439Y-246593317D01*
X231393443Y-246593329D01*
X231486200Y-246858411D01*
X231608053Y-247111442D01*
X231620620Y-247131442D01*
X231757477Y-247349248D01*
X231932584Y-247568825D01*
X232131175Y-247767416D01*
X232350752Y-247942523D01*
X232588555Y-248091945D01*
X232841592Y-248213801D01*
X233040680Y-248283465D01*
X233106670Y-248306556D01*
X233106682Y-248306560D01*
X233380491Y-248369055D01*
X233380497Y-248369055D01*
X233380505Y-248369057D01*
X233557988Y-248389054D01*
X233659569Y-248400499D01*
X233659572Y-248400500D01*
X233659575Y-248400500D01*
X233940428Y-248400500D01*
X233940429Y-248400499D01*
X234083055Y-248384429D01*
X234219494Y-248369057D01*
X234219499Y-248369056D01*
X234219509Y-248369055D01*
X234493318Y-248306560D01*
X234758408Y-248213801D01*
X235011445Y-248091945D01*
X235249248Y-247942523D01*
X235468825Y-247767416D01*
X235667416Y-247568825D01*
X235842523Y-247349248D01*
X235991945Y-247111445D01*
X236113801Y-246858408D01*
X236206560Y-246593318D01*
X236269055Y-246319509D01*
X236300500Y-246040425D01*
X236300500Y-245779568D01*
X263799500Y-245779568D01*
X263799500Y-246060431D01*
X263830942Y-246339494D01*
X263830945Y-246339512D01*
X263893439Y-246613317D01*
X263893443Y-246613329D01*
X263986200Y-246878411D01*
X264108053Y-247131442D01*
X264108055Y-247131445D01*
X264257477Y-247369248D01*
X264257561Y-247369353D01*
X264416634Y-247568825D01*
X264432584Y-247588825D01*
X264631175Y-247787416D01*
X264850752Y-247962523D01*
X265088555Y-248111945D01*
X265341592Y-248233801D01*
X265540680Y-248303465D01*
X265606670Y-248326556D01*
X265606682Y-248326560D01*
X265880491Y-248389055D01*
X265880497Y-248389055D01*
X265880505Y-248389057D01*
X266030652Y-248405974D01*
X266159569Y-248420499D01*
X266159572Y-248420500D01*
X266159575Y-248420500D01*
X266440428Y-248420500D01*
X266440429Y-248420499D01*
X266583055Y-248404429D01*
X266719494Y-248389057D01*
X266719499Y-248389056D01*
X266719509Y-248389055D01*
X266993318Y-248326560D01*
X267258408Y-248233801D01*
X267511445Y-248111945D01*
X267749248Y-247962523D01*
X267968825Y-247787416D01*
X268167416Y-247588825D01*
X268342523Y-247369248D01*
X268491945Y-247131445D01*
X268613801Y-246878408D01*
X268706560Y-246613318D01*
X268769055Y-246339509D01*
X268771309Y-246319509D01*
X268800499Y-246060431D01*
X268800500Y-246060427D01*
X268800500Y-245779572D01*
X268800499Y-245779568D01*
X268798246Y-245759575D01*
X268777278Y-245573471D01*
X268769057Y-245500505D01*
X268769054Y-245500487D01*
X268706560Y-245226682D01*
X268706556Y-245226670D01*
X268643611Y-245046785D01*
X268613801Y-244961592D01*
X268491945Y-244708555D01*
X268342523Y-244470752D01*
X268167416Y-244251175D01*
X267968825Y-244052584D01*
X267749248Y-243877477D01*
X267511445Y-243728055D01*
X267511442Y-243728053D01*
X267258411Y-243606200D01*
X266993329Y-243513443D01*
X266993317Y-243513439D01*
X266719512Y-243450945D01*
X266719494Y-243450942D01*
X266440431Y-243419500D01*
X266440425Y-243419500D01*
X266159575Y-243419500D01*
X266159568Y-243419500D01*
X265880505Y-243450942D01*
X265880487Y-243450945D01*
X265606682Y-243513439D01*
X265606670Y-243513443D01*
X265341588Y-243606200D01*
X265088557Y-243728053D01*
X264850753Y-243877476D01*
X264631175Y-244052583D01*
X264432583Y-244251175D01*
X264257476Y-244470753D01*
X264108053Y-244708557D01*
X263986200Y-244961588D01*
X263893443Y-245226670D01*
X263893439Y-245226682D01*
X263830945Y-245500487D01*
X263830942Y-245500505D01*
X263799500Y-245779568D01*
X236300500Y-245779568D01*
X236300500Y-245759575D01*
X236271310Y-245500505D01*
X236269057Y-245480505D01*
X236269054Y-245480487D01*
X236206560Y-245206682D01*
X236206556Y-245206670D01*
X236183465Y-245140680D01*
X236113801Y-244941592D01*
X236001577Y-244708557D01*
X235991946Y-244688557D01*
X235991945Y-244688555D01*
X235842523Y-244450752D01*
X235667416Y-244231175D01*
X235468825Y-244032584D01*
X235249248Y-243857477D01*
X235011445Y-243708055D01*
X235011442Y-243708053D01*
X234758411Y-243586200D01*
X234493329Y-243493443D01*
X234493317Y-243493439D01*
X234219512Y-243430945D01*
X234219494Y-243430942D01*
X233940431Y-243399500D01*
X233940425Y-243399500D01*
X233659575Y-243399500D01*
X233659568Y-243399500D01*
X233380505Y-243430942D01*
X233380487Y-243430945D01*
X233106682Y-243493439D01*
X233106670Y-243493443D01*
X232841588Y-243586200D01*
X232588557Y-243708053D01*
X232350753Y-243857476D01*
X232131175Y-244032583D01*
X231932583Y-244231175D01*
X231757476Y-244450753D01*
X231608053Y-244688557D01*
X231486200Y-244941588D01*
X231393443Y-245206670D01*
X231393439Y-245206682D01*
X231330945Y-245480487D01*
X231330942Y-245480505D01*
X231299500Y-245759568D01*
X192744206Y-245759568D01*
X192711973Y-245432297D01*
X192671074Y-245226682D01*
X192635295Y-245046805D01*
X192635292Y-245046794D01*
X192635291Y-245046791D01*
X192635290Y-245046785D01*
X192521190Y-244670647D01*
X192370771Y-244307503D01*
X192237143Y-244057503D01*
X192185488Y-243960862D01*
X192185487Y-243960860D01*
X192185482Y-243960851D01*
X191967107Y-243634031D01*
X191717750Y-243330188D01*
X191717749Y-243330187D01*
X191717745Y-243330182D01*
X191439817Y-243052254D01*
X191135974Y-242802897D01*
X191135973Y-242802896D01*
X191135969Y-242802893D01*
X190809149Y-242584518D01*
X190809144Y-242584515D01*
X190809137Y-242584511D01*
X190462504Y-242399232D01*
X190462499Y-242399230D01*
X190099354Y-242248810D01*
X189723205Y-242134707D01*
X189723194Y-242134704D01*
X189337702Y-242058026D01*
X189043089Y-242029010D01*
X188946532Y-242019500D01*
X188553468Y-242019500D01*
X188464251Y-242028287D01*
X188162297Y-242058026D01*
X187776805Y-242134704D01*
X187776794Y-242134707D01*
X187400645Y-242248810D01*
X187037500Y-242399230D01*
X187037495Y-242399232D01*
X186690862Y-242584511D01*
X186690844Y-242584522D01*
X186364039Y-242802887D01*
X186364025Y-242802897D01*
X186060182Y-243052254D01*
X185782254Y-243330182D01*
X185532897Y-243634025D01*
X185532887Y-243634039D01*
X185314522Y-243960844D01*
X185314511Y-243960862D01*
X185129232Y-244307495D01*
X185129230Y-244307500D01*
X184978810Y-244670645D01*
X184864707Y-245046794D01*
X184864704Y-245046805D01*
X184788026Y-245432297D01*
X184758287Y-245734251D01*
X184753824Y-245779572D01*
X184749500Y-245823471D01*
X180500500Y-245823471D01*
X180500500Y-245823468D01*
X180461973Y-245432297D01*
X180421074Y-245226682D01*
X180385295Y-245046805D01*
X180385292Y-245046794D01*
X180385291Y-245046791D01*
X180385290Y-245046785D01*
X180271190Y-244670647D01*
X180120771Y-244307503D01*
X179987143Y-244057503D01*
X179935488Y-243960862D01*
X179935487Y-243960860D01*
X179935482Y-243960851D01*
X179717107Y-243634031D01*
X179467750Y-243330188D01*
X179467749Y-243330187D01*
X179467745Y-243330182D01*
X179189817Y-243052254D01*
X178885974Y-242802897D01*
X178885973Y-242802896D01*
X178885969Y-242802893D01*
X178559149Y-242584518D01*
X178559144Y-242584515D01*
X178559137Y-242584511D01*
X178212504Y-242399232D01*
X178212499Y-242399230D01*
X177849354Y-242248810D01*
X177473205Y-242134707D01*
X177473194Y-242134704D01*
X177087702Y-242058026D01*
X176793089Y-242029010D01*
X176696532Y-242019500D01*
X176303468Y-242019500D01*
X176214251Y-242028287D01*
X175912297Y-242058026D01*
X175526805Y-242134704D01*
X175526794Y-242134707D01*
X175150645Y-242248810D01*
X174787500Y-242399230D01*
X174787495Y-242399232D01*
X174440862Y-242584511D01*
X174440844Y-242584522D01*
X174114039Y-242802887D01*
X174114025Y-242802897D01*
X173810182Y-243052254D01*
X173532254Y-243330182D01*
X173282897Y-243634025D01*
X173282887Y-243634039D01*
X173064522Y-243960844D01*
X173064511Y-243960862D01*
X172879232Y-244307495D01*
X172879230Y-244307500D01*
X172728810Y-244670645D01*
X172614707Y-245046794D01*
X172614704Y-245046805D01*
X172538026Y-245432297D01*
X172508287Y-245734251D01*
X172503824Y-245779572D01*
X172499500Y-245823471D01*
X167750500Y-245823471D01*
X167750500Y-245573468D01*
X167711973Y-245182297D01*
X167685018Y-245046785D01*
X167635295Y-244796805D01*
X167635292Y-244796794D01*
X167635291Y-244796791D01*
X167635290Y-244796785D01*
X167521190Y-244420647D01*
X167370771Y-244057503D01*
X167319115Y-243960862D01*
X167185488Y-243710862D01*
X167185487Y-243710860D01*
X167185482Y-243710851D01*
X166967107Y-243384031D01*
X166717750Y-243080188D01*
X166717749Y-243080187D01*
X166717745Y-243080182D01*
X166439817Y-242802254D01*
X166135974Y-242552897D01*
X166135973Y-242552896D01*
X166135969Y-242552893D01*
X165809149Y-242334518D01*
X165809144Y-242334515D01*
X165809137Y-242334511D01*
X165462504Y-242149232D01*
X165462499Y-242149230D01*
X165427437Y-242134707D01*
X165242316Y-242058027D01*
X165099354Y-241998810D01*
X164723205Y-241884707D01*
X164723194Y-241884704D01*
X164337702Y-241808026D01*
X164043089Y-241779010D01*
X163946532Y-241769500D01*
X163553468Y-241769500D01*
X163464251Y-241778287D01*
X163162297Y-241808026D01*
X162776805Y-241884704D01*
X162776794Y-241884707D01*
X162400645Y-241998810D01*
X162037500Y-242149230D01*
X162037495Y-242149232D01*
X161690862Y-242334511D01*
X161690844Y-242334522D01*
X161364039Y-242552887D01*
X161364025Y-242552897D01*
X161060182Y-242802254D01*
X160782254Y-243080182D01*
X160532897Y-243384025D01*
X160532887Y-243384039D01*
X160314522Y-243710844D01*
X160314511Y-243710862D01*
X160129232Y-244057495D01*
X160129230Y-244057500D01*
X159978810Y-244420645D01*
X159864707Y-244796794D01*
X159864704Y-244796805D01*
X159788026Y-245182297D01*
X159783655Y-245226682D01*
X159749500Y-245573468D01*
X155250500Y-245573468D01*
X155211973Y-245182297D01*
X155185018Y-245046785D01*
X155135295Y-244796805D01*
X155135292Y-244796794D01*
X155135291Y-244796791D01*
X155135290Y-244796785D01*
X155021190Y-244420647D01*
X154870771Y-244057503D01*
X154819115Y-243960862D01*
X154685488Y-243710862D01*
X154685487Y-243710860D01*
X154685482Y-243710851D01*
X154467107Y-243384031D01*
X154217750Y-243080188D01*
X154217749Y-243080187D01*
X154217745Y-243080182D01*
X153939817Y-242802254D01*
X153635974Y-242552897D01*
X153635973Y-242552896D01*
X153635969Y-242552893D01*
X153309149Y-242334518D01*
X153309144Y-242334515D01*
X153309137Y-242334511D01*
X152962504Y-242149232D01*
X152962499Y-242149230D01*
X152927437Y-242134707D01*
X152742316Y-242058027D01*
X152599354Y-241998810D01*
X152223205Y-241884707D01*
X152223194Y-241884704D01*
X151837702Y-241808026D01*
X151543089Y-241779010D01*
X151446532Y-241769500D01*
X151053468Y-241769500D01*
X150964251Y-241778287D01*
X150662297Y-241808026D01*
X150276805Y-241884704D01*
X150276794Y-241884707D01*
X149900645Y-241998810D01*
X149537500Y-242149230D01*
X149537495Y-242149232D01*
X149190862Y-242334511D01*
X149190844Y-242334522D01*
X148864039Y-242552887D01*
X148864025Y-242552897D01*
X148560182Y-242802254D01*
X148282254Y-243080182D01*
X148032897Y-243384025D01*
X148032887Y-243384039D01*
X147814522Y-243710844D01*
X147814511Y-243710862D01*
X147629232Y-244057495D01*
X147629230Y-244057500D01*
X147478810Y-244420645D01*
X147364707Y-244796794D01*
X147364704Y-244796805D01*
X147288026Y-245182297D01*
X147283655Y-245226682D01*
X147249500Y-245573468D01*
X142750500Y-245573468D01*
X142711973Y-245182297D01*
X142685018Y-245046785D01*
X142635295Y-244796805D01*
X142635292Y-244796794D01*
X142635291Y-244796791D01*
X142635290Y-244796785D01*
X142521190Y-244420647D01*
X142370771Y-244057503D01*
X142319115Y-243960862D01*
X142185488Y-243710862D01*
X142185487Y-243710860D01*
X142185482Y-243710851D01*
X141967107Y-243384031D01*
X141717750Y-243080188D01*
X141717749Y-243080187D01*
X141717745Y-243080182D01*
X141439817Y-242802254D01*
X141135974Y-242552897D01*
X141135973Y-242552896D01*
X141135969Y-242552893D01*
X140809149Y-242334518D01*
X140809144Y-242334515D01*
X140809137Y-242334511D01*
X140462504Y-242149232D01*
X140462499Y-242149230D01*
X140427437Y-242134707D01*
X140242316Y-242058027D01*
X140099354Y-241998810D01*
X139723205Y-241884707D01*
X139723194Y-241884704D01*
X139337702Y-241808026D01*
X139043089Y-241779010D01*
X138946532Y-241769500D01*
X138553468Y-241769500D01*
X138464251Y-241778287D01*
X138162297Y-241808026D01*
X137776805Y-241884704D01*
X137776794Y-241884707D01*
X137400645Y-241998810D01*
X137037500Y-242149230D01*
X137037495Y-242149232D01*
X136690862Y-242334511D01*
X136690844Y-242334522D01*
X136364039Y-242552887D01*
X136364025Y-242552897D01*
X136060182Y-242802254D01*
X135782254Y-243080182D01*
X135532897Y-243384025D01*
X135532887Y-243384039D01*
X135314522Y-243710844D01*
X135314511Y-243710862D01*
X135129232Y-244057495D01*
X135129230Y-244057500D01*
X134978810Y-244420645D01*
X134864707Y-244796794D01*
X134864704Y-244796805D01*
X134788026Y-245182297D01*
X134783655Y-245226682D01*
X134749500Y-245573468D01*
X15000500Y-245573468D01*
X15000500Y-236859568D01*
X288999500Y-236859568D01*
X288999500Y-237140431D01*
X289030942Y-237419494D01*
X289030945Y-237419512D01*
X289093439Y-237693317D01*
X289093443Y-237693329D01*
X289186200Y-237958411D01*
X289308053Y-238211442D01*
X289308055Y-238211445D01*
X289457477Y-238449248D01*
X289632584Y-238668825D01*
X289831175Y-238867416D01*
X290050752Y-239042523D01*
X290288555Y-239191945D01*
X290541592Y-239313801D01*
X290740680Y-239383465D01*
X290806670Y-239406556D01*
X290806682Y-239406560D01*
X291080491Y-239469055D01*
X291080497Y-239469055D01*
X291080505Y-239469057D01*
X291266547Y-239490018D01*
X291359569Y-239500499D01*
X291359572Y-239500500D01*
X291359575Y-239500500D01*
X291640428Y-239500500D01*
X291640429Y-239500499D01*
X291783055Y-239484429D01*
X291919494Y-239469057D01*
X291919499Y-239469056D01*
X291919509Y-239469055D01*
X292193318Y-239406560D01*
X292458408Y-239313801D01*
X292711445Y-239191945D01*
X292949248Y-239042523D01*
X293168825Y-238867416D01*
X293367416Y-238668825D01*
X293542523Y-238449248D01*
X293691945Y-238211445D01*
X293813801Y-237958408D01*
X293906560Y-237693318D01*
X293969055Y-237419509D01*
X294000500Y-237140425D01*
X294000500Y-236859575D01*
X294000499Y-236859568D01*
X313999500Y-236859568D01*
X313999500Y-237140431D01*
X314030942Y-237419494D01*
X314030945Y-237419512D01*
X314093439Y-237693317D01*
X314093443Y-237693329D01*
X314186200Y-237958411D01*
X314308053Y-238211442D01*
X314308055Y-238211445D01*
X314457477Y-238449248D01*
X314632584Y-238668825D01*
X314831175Y-238867416D01*
X315050752Y-239042523D01*
X315288555Y-239191945D01*
X315541592Y-239313801D01*
X315740680Y-239383465D01*
X315806670Y-239406556D01*
X315806682Y-239406560D01*
X316080491Y-239469055D01*
X316080497Y-239469055D01*
X316080505Y-239469057D01*
X316266547Y-239490018D01*
X316359569Y-239500499D01*
X316359572Y-239500500D01*
X316359575Y-239500500D01*
X316640428Y-239500500D01*
X316640429Y-239500499D01*
X316783055Y-239484429D01*
X316919494Y-239469057D01*
X316919499Y-239469056D01*
X316919509Y-239469055D01*
X317193318Y-239406560D01*
X317458408Y-239313801D01*
X317711445Y-239191945D01*
X317949248Y-239042523D01*
X318168825Y-238867416D01*
X318367416Y-238668825D01*
X318542523Y-238449248D01*
X318691945Y-238211445D01*
X318813801Y-237958408D01*
X318906560Y-237693318D01*
X318969055Y-237419509D01*
X319000500Y-237140425D01*
X319000500Y-236859575D01*
X318969055Y-236580491D01*
X318906560Y-236306682D01*
X318813801Y-236041592D01*
X318691945Y-235788555D01*
X318542523Y-235550752D01*
X318367416Y-235331175D01*
X318168825Y-235132584D01*
X317949248Y-234957477D01*
X317711445Y-234808055D01*
X317711442Y-234808053D01*
X317458411Y-234686200D01*
X317193329Y-234593443D01*
X317193317Y-234593439D01*
X316919512Y-234530945D01*
X316919494Y-234530942D01*
X316640431Y-234499500D01*
X316640425Y-234499500D01*
X316359575Y-234499500D01*
X316359568Y-234499500D01*
X316080505Y-234530942D01*
X316080487Y-234530945D01*
X315806682Y-234593439D01*
X315806670Y-234593443D01*
X315541588Y-234686200D01*
X315288557Y-234808053D01*
X315050753Y-234957476D01*
X314831175Y-235132583D01*
X314632583Y-235331175D01*
X314457476Y-235550753D01*
X314308053Y-235788557D01*
X314186200Y-236041588D01*
X314093443Y-236306670D01*
X314093439Y-236306682D01*
X314030945Y-236580487D01*
X314030942Y-236580505D01*
X313999500Y-236859568D01*
X294000499Y-236859568D01*
X293969055Y-236580491D01*
X293906560Y-236306682D01*
X293813801Y-236041592D01*
X293691945Y-235788555D01*
X293542523Y-235550752D01*
X293367416Y-235331175D01*
X293168825Y-235132584D01*
X292949248Y-234957477D01*
X292711445Y-234808055D01*
X292711442Y-234808053D01*
X292458411Y-234686200D01*
X292193329Y-234593443D01*
X292193317Y-234593439D01*
X291919512Y-234530945D01*
X291919494Y-234530942D01*
X291640431Y-234499500D01*
X291640425Y-234499500D01*
X291359575Y-234499500D01*
X291359568Y-234499500D01*
X291080505Y-234530942D01*
X291080487Y-234530945D01*
X290806682Y-234593439D01*
X290806670Y-234593443D01*
X290541588Y-234686200D01*
X290288557Y-234808053D01*
X290050753Y-234957476D01*
X289831175Y-235132583D01*
X289632583Y-235331175D01*
X289457476Y-235550753D01*
X289308053Y-235788557D01*
X289186200Y-236041588D01*
X289093443Y-236306670D01*
X289093439Y-236306682D01*
X289030945Y-236580487D01*
X289030942Y-236580505D01*
X288999500Y-236859568D01*
X15000500Y-236859568D01*
X15000500Y-228109568D01*
X161249500Y-228109568D01*
X161249500Y-228390431D01*
X161280942Y-228669494D01*
X161280945Y-228669512D01*
X161343439Y-228943317D01*
X161343443Y-228943329D01*
X161436200Y-229208411D01*
X161558053Y-229461442D01*
X161558055Y-229461445D01*
X161707477Y-229699248D01*
X161882584Y-229918825D01*
X162081175Y-230117416D01*
X162300752Y-230292523D01*
X162538555Y-230441945D01*
X162791592Y-230563801D01*
X162929180Y-230611945D01*
X163056670Y-230656556D01*
X163056682Y-230656560D01*
X163330491Y-230719055D01*
X163330497Y-230719055D01*
X163330505Y-230719057D01*
X163516547Y-230740018D01*
X163609569Y-230750499D01*
X163609572Y-230750500D01*
X163609575Y-230750500D01*
X163890428Y-230750500D01*
X163890429Y-230750499D01*
X164038634Y-230733801D01*
X164169494Y-230719057D01*
X164169499Y-230719056D01*
X164169509Y-230719055D01*
X164443318Y-230656560D01*
X164708408Y-230563801D01*
X164961445Y-230441945D01*
X165199248Y-230292523D01*
X165418825Y-230117416D01*
X165617416Y-229918825D01*
X165792523Y-229699248D01*
X165941945Y-229461445D01*
X166063801Y-229208408D01*
X166156560Y-228943318D01*
X166219055Y-228669509D01*
X166233599Y-228540431D01*
X166250499Y-228390431D01*
X166250500Y-228390427D01*
X166250500Y-228259568D01*
X186249500Y-228259568D01*
X186249500Y-228540431D01*
X186280942Y-228819494D01*
X186280945Y-228819512D01*
X186343439Y-229093317D01*
X186343443Y-229093329D01*
X186436200Y-229358411D01*
X186558053Y-229611442D01*
X186558055Y-229611445D01*
X186707477Y-229849248D01*
X186882584Y-230068825D01*
X187081175Y-230267416D01*
X187300752Y-230442523D01*
X187538555Y-230591945D01*
X187791592Y-230713801D01*
X187990680Y-230783465D01*
X188056670Y-230806556D01*
X188056682Y-230806560D01*
X188330491Y-230869055D01*
X188330497Y-230869055D01*
X188330505Y-230869057D01*
X188507988Y-230889054D01*
X188609569Y-230900499D01*
X188609572Y-230900500D01*
X188609575Y-230900500D01*
X188890428Y-230900500D01*
X188890429Y-230900499D01*
X189033055Y-230884429D01*
X189169494Y-230869057D01*
X189169499Y-230869056D01*
X189169509Y-230869055D01*
X189443318Y-230806560D01*
X189708408Y-230713801D01*
X189961445Y-230591945D01*
X190199248Y-230442523D01*
X190418825Y-230267416D01*
X190617416Y-230068825D01*
X190792523Y-229849248D01*
X190941945Y-229611445D01*
X191063801Y-229358408D01*
X191156560Y-229093318D01*
X191219055Y-228819509D01*
X191250500Y-228540425D01*
X191250500Y-228259575D01*
X191250499Y-228259568D01*
X231249500Y-228259568D01*
X231249500Y-228540431D01*
X231280942Y-228819494D01*
X231280945Y-228819512D01*
X231343439Y-229093317D01*
X231343443Y-229093329D01*
X231436200Y-229358411D01*
X231558053Y-229611442D01*
X231558055Y-229611445D01*
X231707477Y-229849248D01*
X231882584Y-230068825D01*
X232081175Y-230267416D01*
X232300752Y-230442523D01*
X232538555Y-230591945D01*
X232791592Y-230713801D01*
X232990680Y-230783465D01*
X233056670Y-230806556D01*
X233056682Y-230806560D01*
X233330491Y-230869055D01*
X233330497Y-230869055D01*
X233330505Y-230869057D01*
X233507988Y-230889054D01*
X233609569Y-230900499D01*
X233609572Y-230900500D01*
X233609575Y-230900500D01*
X233890428Y-230900500D01*
X233890429Y-230900499D01*
X234033055Y-230884429D01*
X234169494Y-230869057D01*
X234169499Y-230869056D01*
X234169509Y-230869055D01*
X234443318Y-230806560D01*
X234708408Y-230713801D01*
X234961445Y-230591945D01*
X235199248Y-230442523D01*
X235418825Y-230267416D01*
X235617416Y-230068825D01*
X235792523Y-229849248D01*
X235941945Y-229611445D01*
X236063801Y-229358408D01*
X236156560Y-229093318D01*
X236219055Y-228819509D01*
X236250500Y-228540425D01*
X236250500Y-228279568D01*
X263749500Y-228279568D01*
X263749500Y-228560431D01*
X263780942Y-228839494D01*
X263780945Y-228839512D01*
X263843439Y-229113317D01*
X263843443Y-229113329D01*
X263936200Y-229378411D01*
X264058053Y-229631442D01*
X264058055Y-229631445D01*
X264207477Y-229869248D01*
X264338113Y-230033060D01*
X264366634Y-230068825D01*
X264382584Y-230088825D01*
X264581175Y-230287416D01*
X264800752Y-230462523D01*
X265038555Y-230611945D01*
X265291592Y-230733801D01*
X265490680Y-230803465D01*
X265556670Y-230826556D01*
X265556682Y-230826560D01*
X265830491Y-230889055D01*
X265830497Y-230889055D01*
X265830505Y-230889057D01*
X266016547Y-230910018D01*
X266109569Y-230920499D01*
X266109572Y-230920500D01*
X266109575Y-230920500D01*
X266390428Y-230920500D01*
X266390429Y-230920499D01*
X266533055Y-230904429D01*
X266669494Y-230889057D01*
X266669499Y-230889056D01*
X266669509Y-230889055D01*
X266943318Y-230826560D01*
X267208408Y-230733801D01*
X267461445Y-230611945D01*
X267699248Y-230462523D01*
X267918825Y-230287416D01*
X268117416Y-230088825D01*
X268292523Y-229869248D01*
X268441945Y-229631445D01*
X268563801Y-229378408D01*
X268656560Y-229113318D01*
X268719055Y-228839509D01*
X268721309Y-228819509D01*
X268750499Y-228560431D01*
X268750500Y-228560427D01*
X268750500Y-228279572D01*
X268750499Y-228279568D01*
X268748246Y-228259575D01*
X268731346Y-228109575D01*
X268719057Y-228000505D01*
X268719054Y-228000487D01*
X268656560Y-227726682D01*
X268656556Y-227726670D01*
X268597070Y-227556670D01*
X268563801Y-227461592D01*
X268441945Y-227208555D01*
X268292523Y-226970752D01*
X268117416Y-226751175D01*
X267918825Y-226552584D01*
X267699248Y-226377477D01*
X267461445Y-226228055D01*
X267461442Y-226228053D01*
X267208411Y-226106200D01*
X266943329Y-226013443D01*
X266943317Y-226013439D01*
X266669512Y-225950945D01*
X266669494Y-225950942D01*
X266390431Y-225919500D01*
X266390425Y-225919500D01*
X266109575Y-225919500D01*
X266109568Y-225919500D01*
X265830505Y-225950942D01*
X265830487Y-225950945D01*
X265556682Y-226013439D01*
X265556670Y-226013443D01*
X265291588Y-226106200D01*
X265038557Y-226228053D01*
X264800753Y-226377476D01*
X264581175Y-226552583D01*
X264382583Y-226751175D01*
X264207476Y-226970753D01*
X264058053Y-227208557D01*
X263936200Y-227461588D01*
X263843443Y-227726670D01*
X263843439Y-227726682D01*
X263780945Y-228000487D01*
X263780942Y-228000505D01*
X263749500Y-228279568D01*
X236250500Y-228279568D01*
X236250500Y-228259575D01*
X236233599Y-228109572D01*
X236219057Y-227980505D01*
X236219054Y-227980487D01*
X236156560Y-227706682D01*
X236156556Y-227706670D01*
X236133465Y-227640680D01*
X236063801Y-227441592D01*
X235951577Y-227208557D01*
X235941946Y-227188557D01*
X235941945Y-227188555D01*
X235792523Y-226950752D01*
X235617416Y-226731175D01*
X235418825Y-226532584D01*
X235199248Y-226357477D01*
X234961445Y-226208055D01*
X234961442Y-226208053D01*
X234708411Y-226086200D01*
X234443329Y-225993443D01*
X234443317Y-225993439D01*
X234169512Y-225930945D01*
X234169494Y-225930942D01*
X233890431Y-225899500D01*
X233890425Y-225899500D01*
X233609575Y-225899500D01*
X233609568Y-225899500D01*
X233330505Y-225930942D01*
X233330487Y-225930945D01*
X233056682Y-225993439D01*
X233056670Y-225993443D01*
X232791588Y-226086200D01*
X232538557Y-226208053D01*
X232300753Y-226357476D01*
X232081175Y-226532583D01*
X231882583Y-226731175D01*
X231707476Y-226950753D01*
X231558053Y-227188557D01*
X231436200Y-227441588D01*
X231343443Y-227706670D01*
X231343439Y-227706682D01*
X231280945Y-227980487D01*
X231280942Y-227980505D01*
X231249500Y-228259568D01*
X191250499Y-228259568D01*
X191233599Y-228109572D01*
X191219057Y-227980505D01*
X191219054Y-227980487D01*
X191156560Y-227706682D01*
X191156556Y-227706670D01*
X191133465Y-227640680D01*
X191063801Y-227441592D01*
X190951577Y-227208557D01*
X190941946Y-227188557D01*
X190941945Y-227188555D01*
X190792523Y-226950752D01*
X190617416Y-226731175D01*
X190418825Y-226532584D01*
X190199248Y-226357477D01*
X189961445Y-226208055D01*
X189961442Y-226208053D01*
X189708411Y-226086200D01*
X189443329Y-225993443D01*
X189443317Y-225993439D01*
X189169512Y-225930945D01*
X189169494Y-225930942D01*
X188890431Y-225899500D01*
X188890425Y-225899500D01*
X188609575Y-225899500D01*
X188609568Y-225899500D01*
X188330505Y-225930942D01*
X188330487Y-225930945D01*
X188056682Y-225993439D01*
X188056670Y-225993443D01*
X187791588Y-226086200D01*
X187538557Y-226208053D01*
X187300753Y-226357476D01*
X187081175Y-226532583D01*
X186882583Y-226731175D01*
X186707476Y-226950753D01*
X186558053Y-227188557D01*
X186436200Y-227441588D01*
X186343443Y-227706670D01*
X186343439Y-227706682D01*
X186280945Y-227980487D01*
X186280942Y-227980505D01*
X186249500Y-228259568D01*
X166250500Y-228259568D01*
X166250500Y-228109572D01*
X166250499Y-228109568D01*
X166219057Y-227830505D01*
X166219054Y-227830487D01*
X166156560Y-227556682D01*
X166156556Y-227556670D01*
X166133465Y-227490680D01*
X166063801Y-227291592D01*
X165941945Y-227038555D01*
X165792523Y-226800752D01*
X165617416Y-226581175D01*
X165418825Y-226382584D01*
X165199248Y-226207477D01*
X164961445Y-226058055D01*
X164961442Y-226058053D01*
X164708411Y-225936200D01*
X164443329Y-225843443D01*
X164443317Y-225843439D01*
X164169512Y-225780945D01*
X164169494Y-225780942D01*
X163890431Y-225749500D01*
X163890425Y-225749500D01*
X163609575Y-225749500D01*
X163609568Y-225749500D01*
X163330505Y-225780942D01*
X163330487Y-225780945D01*
X163056682Y-225843439D01*
X163056670Y-225843443D01*
X162791588Y-225936200D01*
X162538557Y-226058053D01*
X162300753Y-226207476D01*
X162081175Y-226382583D01*
X161882583Y-226581175D01*
X161707476Y-226800753D01*
X161558053Y-227038557D01*
X161436200Y-227291588D01*
X161343443Y-227556670D01*
X161343439Y-227556682D01*
X161280945Y-227830487D01*
X161280942Y-227830505D01*
X161249500Y-228109568D01*
X15000500Y-228109568D01*
X15000500Y-216893713D01*
X18149500Y-216893713D01*
X18149500Y-217106286D01*
X18182753Y-217316239D01*
X18248444Y-217518414D01*
X18344951Y-217707820D01*
X18469890Y-217879786D01*
X18620213Y-218030109D01*
X18792179Y-218155048D01*
X18792181Y-218155049D01*
X18792184Y-218155051D01*
X18981588Y-218251557D01*
X19183757Y-218317246D01*
X19393713Y-218350500D01*
X19393714Y-218350500D01*
X19606286Y-218350500D01*
X19606287Y-218350500D01*
X19816243Y-218317246D01*
X20018412Y-218251557D01*
X20207816Y-218155051D01*
X20229789Y-218139086D01*
X20379786Y-218030109D01*
X20379788Y-218030106D01*
X20379792Y-218030104D01*
X20530104Y-217879792D01*
X20530106Y-217879788D01*
X20530109Y-217879786D01*
X20655048Y-217707820D01*
X20655047Y-217707820D01*
X20655051Y-217707816D01*
X20751557Y-217518412D01*
X20817246Y-217316243D01*
X20850500Y-217106287D01*
X20850500Y-216893713D01*
X118149500Y-216893713D01*
X118149500Y-217106286D01*
X118182753Y-217316239D01*
X118248444Y-217518414D01*
X118344951Y-217707820D01*
X118469890Y-217879786D01*
X118620213Y-218030109D01*
X118792179Y-218155048D01*
X118792181Y-218155049D01*
X118792184Y-218155051D01*
X118981588Y-218251557D01*
X119183757Y-218317246D01*
X119393713Y-218350500D01*
X119393714Y-218350500D01*
X119606286Y-218350500D01*
X119606287Y-218350500D01*
X119816243Y-218317246D01*
X120018412Y-218251557D01*
X120207816Y-218155051D01*
X120229789Y-218139086D01*
X120379786Y-218030109D01*
X120379788Y-218030106D01*
X120379792Y-218030104D01*
X120530104Y-217879792D01*
X120530106Y-217879788D01*
X120530109Y-217879786D01*
X120655048Y-217707820D01*
X120655047Y-217707820D01*
X120655051Y-217707816D01*
X120751557Y-217518412D01*
X120817246Y-217316243D01*
X120850500Y-217106287D01*
X120850500Y-216893713D01*
X243149500Y-216893713D01*
X243149500Y-217106286D01*
X243182753Y-217316239D01*
X243248444Y-217518414D01*
X243344951Y-217707820D01*
X243469890Y-217879786D01*
X243620213Y-218030109D01*
X243792179Y-218155048D01*
X243792181Y-218155049D01*
X243792184Y-218155051D01*
X243981588Y-218251557D01*
X244183757Y-218317246D01*
X244393713Y-218350500D01*
X244393714Y-218350500D01*
X244606286Y-218350500D01*
X244606287Y-218350500D01*
X244816243Y-218317246D01*
X245018412Y-218251557D01*
X245207816Y-218155051D01*
X245229789Y-218139086D01*
X245379786Y-218030109D01*
X245379788Y-218030106D01*
X245379792Y-218030104D01*
X245530104Y-217879792D01*
X245530106Y-217879788D01*
X245530109Y-217879786D01*
X245655048Y-217707820D01*
X245655047Y-217707820D01*
X245655051Y-217707816D01*
X245751557Y-217518412D01*
X245817246Y-217316243D01*
X245850500Y-217106287D01*
X245850500Y-216893713D01*
X343149500Y-216893713D01*
X343149500Y-217106286D01*
X343182753Y-217316239D01*
X343248444Y-217518414D01*
X343344951Y-217707820D01*
X343469890Y-217879786D01*
X343620213Y-218030109D01*
X343792179Y-218155048D01*
X343792181Y-218155049D01*
X343792184Y-218155051D01*
X343981588Y-218251557D01*
X344183757Y-218317246D01*
X344393713Y-218350500D01*
X344393714Y-218350500D01*
X344606286Y-218350500D01*
X344606287Y-218350500D01*
X344816243Y-218317246D01*
X345018412Y-218251557D01*
X345207816Y-218155051D01*
X345229789Y-218139086D01*
X345379786Y-218030109D01*
X345379788Y-218030106D01*
X345379792Y-218030104D01*
X345530104Y-217879792D01*
X345530106Y-217879788D01*
X345530109Y-217879786D01*
X345655048Y-217707820D01*
X345655047Y-217707820D01*
X345655051Y-217707816D01*
X345751557Y-217518412D01*
X345817246Y-217316243D01*
X345850500Y-217106287D01*
X345850500Y-216893713D01*
X345817246Y-216683757D01*
X345751557Y-216481588D01*
X345655051Y-216292184D01*
X345655049Y-216292181D01*
X345655048Y-216292179D01*
X345530109Y-216120213D01*
X345379786Y-215969890D01*
X345207820Y-215844951D01*
X345018414Y-215748444D01*
X345018413Y-215748443D01*
X345018412Y-215748443D01*
X344816243Y-215682754D01*
X344816241Y-215682753D01*
X344816240Y-215682753D01*
X344653570Y-215656989D01*
X344606287Y-215649500D01*
X344393713Y-215649500D01*
X344346430Y-215656989D01*
X344183760Y-215682753D01*
X343981585Y-215748444D01*
X343792179Y-215844951D01*
X343620213Y-215969890D01*
X343469890Y-216120213D01*
X343344951Y-216292179D01*
X343248444Y-216481585D01*
X343182753Y-216683760D01*
X343149500Y-216893713D01*
X245850500Y-216893713D01*
X245817246Y-216683757D01*
X245751557Y-216481588D01*
X245655051Y-216292184D01*
X245655049Y-216292181D01*
X245655048Y-216292179D01*
X245530109Y-216120213D01*
X245379786Y-215969890D01*
X245207820Y-215844951D01*
X245018414Y-215748444D01*
X245018413Y-215748443D01*
X245018412Y-215748443D01*
X244816243Y-215682754D01*
X244816241Y-215682753D01*
X244816240Y-215682753D01*
X244653570Y-215656989D01*
X244606287Y-215649500D01*
X244393713Y-215649500D01*
X244346430Y-215656989D01*
X244183760Y-215682753D01*
X243981585Y-215748444D01*
X243792179Y-215844951D01*
X243620213Y-215969890D01*
X243469890Y-216120213D01*
X243344951Y-216292179D01*
X243248444Y-216481585D01*
X243182753Y-216683760D01*
X243149500Y-216893713D01*
X120850500Y-216893713D01*
X120817246Y-216683757D01*
X120751557Y-216481588D01*
X120655051Y-216292184D01*
X120655049Y-216292181D01*
X120655048Y-216292179D01*
X120530109Y-216120213D01*
X120379786Y-215969890D01*
X120207820Y-215844951D01*
X120018414Y-215748444D01*
X120018413Y-215748443D01*
X120018412Y-215748443D01*
X119816243Y-215682754D01*
X119816241Y-215682753D01*
X119816240Y-215682753D01*
X119653570Y-215656989D01*
X119606287Y-215649500D01*
X119393713Y-215649500D01*
X119346430Y-215656989D01*
X119183760Y-215682753D01*
X118981585Y-215748444D01*
X118792179Y-215844951D01*
X118620213Y-215969890D01*
X118469890Y-216120213D01*
X118344951Y-216292179D01*
X118248444Y-216481585D01*
X118182753Y-216683760D01*
X118149500Y-216893713D01*
X20850500Y-216893713D01*
X20817246Y-216683757D01*
X20751557Y-216481588D01*
X20655051Y-216292184D01*
X20655049Y-216292181D01*
X20655048Y-216292179D01*
X20530109Y-216120213D01*
X20379786Y-215969890D01*
X20207820Y-215844951D01*
X20018414Y-215748444D01*
X20018413Y-215748443D01*
X20018412Y-215748443D01*
X19816243Y-215682754D01*
X19816241Y-215682753D01*
X19816240Y-215682753D01*
X19653570Y-215656989D01*
X19606287Y-215649500D01*
X19393713Y-215649500D01*
X19346430Y-215656989D01*
X19183760Y-215682753D01*
X18981585Y-215748444D01*
X18792179Y-215844951D01*
X18620213Y-215969890D01*
X18469890Y-216120213D01*
X18344951Y-216292179D01*
X18248444Y-216481585D01*
X18182753Y-216683760D01*
X18149500Y-216893713D01*
X15000500Y-216893713D01*
X15000500Y-216003051D01*
X15000649Y-215996967D01*
X15017052Y-215663072D01*
X15018245Y-215650962D01*
X15018462Y-215649500D01*
X15066849Y-215323296D01*
X15069218Y-215311385D01*
X15149710Y-214990043D01*
X15153240Y-214978411D01*
X15264835Y-214666525D01*
X15269476Y-214655318D01*
X15411124Y-214355828D01*
X15416840Y-214345136D01*
X15587145Y-214060998D01*
X15593888Y-214050905D01*
X15791232Y-213784818D01*
X15798935Y-213775433D01*
X16021405Y-213529975D01*
X16029975Y-213521405D01*
X16275433Y-213298935D01*
X16284818Y-213291232D01*
X16550905Y-213093888D01*
X16560998Y-213087145D01*
X16845136Y-212916840D01*
X16855828Y-212911124D01*
X17155318Y-212769476D01*
X17166525Y-212764835D01*
X17478412Y-212653239D01*
X17490043Y-212649710D01*
X17811385Y-212569218D01*
X17823296Y-212566849D01*
X18150962Y-212518244D01*
X18163068Y-212517052D01*
X18496967Y-212500648D01*
X18503051Y-212500500D01*
X18565892Y-212500500D01*
X345434108Y-212500500D01*
X345496949Y-212500500D01*
X345503032Y-212500648D01*
G37*
%TD.AperFunction*%
%TD*%
M02*
