M48
; DRILL file {KiCad 9.0.2} date 2026-02-06T08:14:33+0000
; FORMAT={-:-/ absolute / inch / decimal}
; #@! TF.CreationDate,2026-02-06T08:14:33+00:00
; #@! TF.GenerationSoftware,Kicad,Pcbnew,9.0.2
; #@! TF.FileFunction,NonPlated,1,2,NPTH
FMAT,2
INCH
; #@! TA.AperFunction,NonPlated,NPTH,ComponentDrill
T1C0.1457
; #@! TA.AperFunction,NonPlated,NPTH,ComponentDrill
T2C0.2441
; #@! TA.AperFunction,NonPlated,NPTH,ComponentDrill
T3C0.2520
; #@! TA.AperFunction,NonPlated,NPTH,ComponentDrill
T4C0.2835
%
G90
G05
T1
X5.5609Y-12.1246
X6.2499Y-12.1246
X6.4469Y-8.9862
X7.4311Y-8.9913
X9.2028Y-8.9913
X9.2028Y-9.6803
X10.4823Y-8.9913
X10.4823Y-9.6803
X10.679Y-12.1246
X10.679Y-12.8136
X10.679Y-13.5026
X11.4764Y-9.3307
X11.9586Y-12.126
X11.9586Y-13.5026
X12.4606Y-9.3307
T2
X3.9173Y-15.2087
X3.9173Y-15.7776
X4.5079Y-15.4823
X5.0985Y-15.2087
X5.0985Y-15.7795
X5.5907Y-15.2087
X5.5907Y-15.7795
X6.1812Y-15.4646
X6.6733Y-15.4646
X7.1654Y-15.4626
X7.6576Y-15.4646
X8.2481Y-15.2087
X8.2481Y-15.7795
X8.7403Y-15.2087
X8.7403Y-15.7795
X9.3308Y-15.4646
X9.8229Y-15.4646
X10.4135Y-15.2075
X10.4135Y-15.7795
T3
X5.4685Y-9.6764
X5.9606Y-9.6764
X6.4528Y-9.6764
X6.9449Y-9.6764
X7.437Y-9.6764
T4
X6.9389Y-12.1246
X8.2184Y-12.1246
X9.6948Y-12.1246
X12.746Y-12.1246
X12.746Y-13.3057
M30
