M48
; DRILL file {KiCad 9.0.1} date 2025-10-30T11:07:39+0000
; FORMAT={-:-/ absolute / metric / decimal}
; #@! TF.CreationDate,2025-10-30T11:07:39+00:00
; #@! TF.GenerationSoftware,Kicad,Pcbnew,9.0.1
; #@! TF.FileFunction,Plated,1,2,PTH
FMAT,2
METRIC
; #@! TA.AperFunction,Plated,PTH,ComponentDrill
T1C2.300
; #@! TA.AperFunction,Plated,PTH,ComponentDrill
T2C3.200
%
G90
G05
T2
X21.5Y-219.0
X21.5Y-405.0
X182.0Y-219.0
X182.0Y-405.0
X342.25Y-405.0
X342.5Y-219.0
T1
G00X138.75Y-262.65
M15
G01X138.75Y-284.35
M16
G05
G00X138.75Y-327.65
M15
G01X138.75Y-349.35
M16
G05
G00X151.25Y-262.65
M15
G01X151.25Y-284.35
M16
G05
G00X151.25Y-327.65
M15
G01X151.25Y-349.35
M16
G05
G00X163.75Y-262.65
M15
G01X163.75Y-284.35
M16
G05
G00X163.75Y-327.65
M15
G01X163.75Y-349.35
M16
G05
G00X176.25Y-262.65
M15
G01X176.25Y-284.35
M16
G05
G00X176.25Y-327.65
M15
G01X176.25Y-349.35
M16
G05
G00X188.75Y-262.65
M15
G01X188.75Y-284.35
M16
G05
G00X208.75Y-262.65
M15
G01X208.75Y-284.35
M16
G05
G00X208.75Y-327.65
M15
G01X208.75Y-349.35
M16
G05
G00X221.25Y-262.65
M15
G01X221.25Y-284.35
M16
G05
G00X221.25Y-327.65
M15
G01X221.25Y-349.35
M16
G05
G00X233.75Y-262.65
M15
G01X233.75Y-284.35
M16
G05
G00X233.75Y-327.65
M15
G01X233.75Y-349.35
M16
G05
G00X246.25Y-327.65
M15
G01X246.25Y-349.35
M16
G05
G00X253.75Y-262.65
M15
G01X253.75Y-284.35
M16
G05
G00X266.25Y-262.65
M15
G01X266.25Y-284.35
M16
G05
G00X286.25Y-262.65
M15
G01X286.25Y-284.35
M16
G05
G00X298.75Y-262.65
M15
G01X298.75Y-284.35
M16
G05
G00X311.25Y-262.65
M15
G01X311.25Y-284.35
M16
G05
G00X323.75Y-262.65
M15
G01X323.75Y-284.35
M16
G05
M30
