M48
; DRILL file {KiCad 9.0.1} date 2025-10-30T11:07:39+0000
; FORMAT={-:-/ absolute / metric / decimal}
; #@! TF.CreationDate,2025-10-30T11:07:39+00:00
; #@! TF.GenerationSoftware,Kicad,Pcbnew,9.0.1
; #@! TF.FileFunction,NonPlated,1,2,NPTH
FMAT,2
METRIC
; #@! TA.AperFunction,NonPlated,NPTH,ComponentDrill
T1C3.700
; #@! TA.AperFunction,NonPlated,NPTH,ComponentDrill
T2C6.200
; #@! TA.AperFunction,NonPlated,NPTH,ComponentDrill
T3C6.400
; #@! TA.AperFunction,NonPlated,NPTH,ComponentDrill
T4C7.200
%
G90
G05
T1
X141.247Y-307.966
X158.747Y-307.966
X163.75Y-228.25
X188.75Y-228.38
X233.75Y-228.38
X233.75Y-245.88
X266.25Y-228.38
X266.25Y-245.88
X271.247Y-307.966
X271.247Y-325.466
X271.247Y-342.966
X291.5Y-237.0
X303.747Y-308.0
X303.747Y-342.966
X316.5Y-237.0
T2
X99.5Y-386.3
X99.5Y-400.75
X114.5Y-393.25
X129.503Y-386.3
X129.503Y-400.8
X142.003Y-386.3
X142.003Y-400.8
X157.003Y-392.8
X169.503Y-392.8
X182.0Y-392.75
X194.503Y-392.8
X209.503Y-386.3
X209.503Y-400.8
X222.003Y-386.3
X222.003Y-400.8
X237.003Y-392.8
X249.503Y-392.8
X264.503Y-386.27
X264.503Y-400.8
T3
X138.9Y-245.78
X151.4Y-245.78
X163.9Y-245.78
X176.4Y-245.78
X188.9Y-245.78
T4
X176.247Y-307.966
X208.747Y-307.966
X246.247Y-307.966
X323.747Y-307.966
X323.747Y-337.966
M30
