M48
; DRILL file {KiCad 9.0.1} date 2025-10-24T09:32:51+0100
; FORMAT={-:-/ absolute / metric / decimal}
; #@! TF.CreationDate,2025-10-24T09:32:51+01:00
; #@! TF.GenerationSoftware,Kicad,Pcbnew,9.0.1
; #@! TF.FileFunction,NonPlated,1,2,NPTH
FMAT,2
METRIC
; #@! TA.AperFunction,NonPlated,NPTH,ComponentDrill
T1C3.700
; #@! TA.AperFunction,NonPlated,NPTH,ComponentDrill
T2C6.200
; #@! TA.AperFunction,NonPlated,NPTH,ComponentDrill
T3C6.400
; #@! TA.AperFunction,NonPlated,NPTH,ComponentDrill
T4C7.200
%
G90
G05
T1
X45.997Y-52.716
X45.997Y-102.216
X62.373Y-52.716
X62.375Y-102.216
X131.499Y-67.716
X147.748Y-67.716
X164.244Y-102.216
X164.248Y-67.716
X179.248Y-102.216
X179.248Y-119.716
X180.748Y-67.716
X212.118Y-62.716
X217.123Y-102.216
X233.486Y-102.216
X233.5Y-82.716
T2
X45.997Y-174.2
X46.0Y-159.75
X60.997Y-166.4
X75.997Y-159.7
X75.997Y-174.2
X88.497Y-159.7
X88.497Y-174.2
X103.497Y-166.2
X115.997Y-166.2
X128.497Y-166.2
X140.997Y-166.2
X155.997Y-159.7
X155.997Y-174.2
X168.497Y-159.7
X168.497Y-174.2
X183.497Y-166.2
X195.997Y-166.2
X210.997Y-159.7
X210.997Y-174.2
T3
X45.997Y-67.716
X62.373Y-67.716
X78.748Y-67.716
X95.123Y-67.716
X111.499Y-67.716
T4
X45.997Y-119.716
X46.0Y-82.75
X62.373Y-82.716
X62.375Y-119.716
X78.748Y-82.716
X78.748Y-119.716
X95.123Y-82.716
X95.123Y-102.216
X95.123Y-119.716
X111.499Y-82.716
X115.122Y-119.716
X131.497Y-102.216
X131.497Y-119.716
X131.499Y-82.716
X147.748Y-82.716
X147.866Y-119.716
X147.873Y-102.216
X164.248Y-82.716
X164.248Y-119.716
X184.248Y-82.716
X200.748Y-82.716
X200.748Y-119.716
X217.123Y-119.716
X227.118Y-62.716
X233.486Y-119.716
X249.867Y-62.716
X249.872Y-119.716
M30
