M48
; DRILL file {KiCad 9.0.2} date 2026-02-06T08:14:33+0000
; FORMAT={-:-/ absolute / inch / decimal}
; #@! TF.CreationDate,2026-02-06T08:14:33+00:00
; #@! TF.GenerationSoftware,Kicad,Pcbnew,9.0.2
; #@! TF.FileFunction,Plated,1,2,PTH
FMAT,2
INCH
; #@! TA.AperFunction,Plated,PTH,ComponentDrill
T1C0.0906
; #@! TA.AperFunction,Plated,PTH,ComponentDrill
T2C0.1260
%
G90
G05
T2
X0.8465Y-8.622
X0.8465Y-15.9449
X7.1654Y-8.622
X7.1654Y-15.9449
X13.4744Y-15.9449
X13.4843Y-8.622
T1
G00X5.4626Y-10.3406
M15
G01X5.4626Y-11.1949
M16
G05
G00X5.4626Y-12.8996
M15
G01X5.4626Y-13.7539
M16
G05
G00X5.9547Y-10.3406
M15
G01X5.9547Y-11.1949
M16
G05
G00X5.9547Y-12.8996
M15
G01X5.9547Y-13.7539
M16
G05
G00X6.4469Y-10.3406
M15
G01X6.4469Y-11.1949
M16
G05
G00X6.4469Y-12.8996
M15
G01X6.4469Y-13.7539
M16
G05
G00X6.939Y-10.3406
M15
G01X6.939Y-11.1949
M16
G05
G00X6.939Y-12.8996
M15
G01X6.939Y-13.7539
M16
G05
G00X7.4311Y-10.3406
M15
G01X7.4311Y-11.1949
M16
G05
G00X8.2185Y-10.3406
M15
G01X8.2185Y-11.1949
M16
G05
G00X8.2185Y-12.8996
M15
G01X8.2185Y-13.7539
M16
G05
G00X8.7106Y-10.3406
M15
G01X8.7106Y-11.1949
M16
G05
G00X8.7106Y-12.8996
M15
G01X8.7106Y-13.7539
M16
G05
G00X9.2028Y-10.3406
M15
G01X9.2028Y-11.1949
M16
G05
G00X9.2028Y-12.8996
M15
G01X9.2028Y-13.7539
M16
G05
G00X9.6949Y-12.8996
M15
G01X9.6949Y-13.7539
M16
G05
G00X9.9902Y-10.3406
M15
G01X9.9902Y-11.1949
M16
G05
G00X10.4823Y-10.3406
M15
G01X10.4823Y-11.1949
M16
G05
G00X11.2697Y-10.3406
M15
G01X11.2697Y-11.1949
M16
G05
G00X11.7618Y-10.3406
M15
G01X11.7618Y-11.1949
M16
G05
G00X12.2539Y-10.3406
M15
G01X12.2539Y-11.1949
M16
G05
G00X12.7461Y-10.3406
M15
G01X12.7461Y-11.1949
M16
G05
M30
