%TF.GenerationSoftware,KiCad,Pcbnew,9.0.1*%
%TF.CreationDate,2025-10-30T11:07:35+00:00*%
%TF.ProjectId,WEASEL_KiCad,57454153-454c-45f4-9b69-4361642e6b69,rev?*%
%TF.SameCoordinates,Original*%
%TF.FileFunction,Copper,L1,Top*%
%TF.FilePolarity,Positive*%
%FSLAX46Y46*%
G04 Gerber Fmt 4.6, Leading zero omitted, Abs format (unit mm)*
G04 Created by KiCad (PCBNEW 9.0.1) date 2025-10-30 11:07:35*
%MOMM*%
%LPD*%
G01*
G04 APERTURE LIST*
%TA.AperFunction,WasherPad*%
%ADD10C,4.200000*%
%TD*%
%TA.AperFunction,WasherPad*%
%ADD11C,7.000000*%
%TD*%
%TA.AperFunction,ComponentPad*%
%ADD12O,3.300000X25.000000*%
%TD*%
%TA.AperFunction,WasherPad*%
%ADD13C,8.000000*%
%TD*%
%TA.AperFunction,ComponentPad*%
%ADD14C,5.000000*%
%TD*%
%TA.AperFunction,WasherPad*%
%ADD15C,7.400000*%
%TD*%
G04 APERTURE END LIST*
D10*
%TO.P,REF\u002A\u002A,*%
%TO.N,*%
X303747300Y-308000000D03*
%TD*%
D11*
%TO.P,REF\u002A\u002A,*%
%TO.N,*%
X182000000Y-392750000D03*
%TD*%
D12*
%TO.P,REF\u002A\u002A,*%
%TO.N,*%
X138750000Y-338500000D03*
%TD*%
%TO.P,REF\u002A\u002A,*%
%TO.N,*%
X253750000Y-273500000D03*
%TD*%
D10*
%TO.P,REF\u002A\u002A,*%
%TO.N,*%
X266250000Y-245880000D03*
%TD*%
D11*
%TO.P,REF\u002A\u002A,*%
%TO.N,*%
X129502700Y-400800000D03*
%TD*%
%TO.P,REF\u002A\u002A,*%
%TO.N,*%
X264502700Y-400800000D03*
%TD*%
%TO.P,REF\u002A\u002A,*%
%TO.N,*%
X209502700Y-400800000D03*
%TD*%
D13*
%TO.P,REF\u002A\u002A,*%
%TO.N,*%
X176247300Y-307965800D03*
%TD*%
D10*
%TO.P,REF\u002A\u002A,*%
%TO.N,*%
X303747300Y-342965800D03*
%TD*%
D12*
%TO.P,REF\u002A\u002A,*%
%TO.N,*%
X151250000Y-273500000D03*
%TD*%
D11*
%TO.P,REF\u002A\u002A,*%
%TO.N,*%
X157002700Y-392800000D03*
%TD*%
D14*
%TO.P,,*%
%TO.N,GND*%
X182000000Y-219000000D03*
%TD*%
D15*
%TO.P,REF\u002A\u002A,*%
%TO.N,*%
X138900000Y-245780000D03*
%TD*%
D10*
%TO.P,REF\u002A\u002A,*%
%TO.N,*%
X271247300Y-307965800D03*
%TD*%
D14*
%TO.P,,*%
%TO.N,GND*%
X21500000Y-405000000D03*
%TD*%
D10*
%TO.P,REF\u002A\u002A,*%
%TO.N,*%
X188750000Y-228380000D03*
%TD*%
D12*
%TO.P,REF\u002A\u002A,*%
%TO.N,*%
X208750000Y-338500000D03*
%TD*%
D10*
%TO.P,REF\u002A\u002A,*%
%TO.N,*%
X163750000Y-228250000D03*
%TD*%
D11*
%TO.P,REF\u002A\u002A,*%
%TO.N,*%
X209502700Y-386300000D03*
%TD*%
D15*
%TO.P,REF\u002A\u002A,*%
%TO.N,*%
X163900000Y-245780000D03*
%TD*%
D12*
%TO.P,REF\u002A\u002A,*%
%TO.N,*%
X246250000Y-338500000D03*
%TD*%
%TO.P,REF\u002A\u002A,*%
%TO.N,*%
X151250000Y-338500000D03*
%TD*%
D11*
%TO.P,REF\u002A\u002A,*%
%TO.N,*%
X222002700Y-400800000D03*
%TD*%
%TO.P,REF\u002A\u002A,*%
%TO.N,*%
X99500000Y-386300000D03*
%TD*%
D12*
%TO.P,REF\u002A\u002A,*%
%TO.N,*%
X163750000Y-273500000D03*
%TD*%
%TO.P,REF\u002A\u002A,*%
%TO.N,*%
X176250000Y-338500000D03*
%TD*%
%TO.P,REF\u002A\u002A,*%
%TO.N,*%
X163750000Y-338500000D03*
%TD*%
D10*
%TO.P,REF\u002A\u002A,*%
%TO.N,*%
X158747300Y-307965800D03*
%TD*%
D14*
%TO.P,,*%
%TO.N,GND*%
X342500000Y-219000000D03*
%TD*%
D15*
%TO.P,REF\u002A\u002A,*%
%TO.N,*%
X151400000Y-245780000D03*
%TD*%
%TO.P,REF\u002A\u002A,*%
%TO.N,*%
X176400000Y-245780000D03*
%TD*%
D12*
%TO.P,REF\u002A\u002A,*%
%TO.N,*%
X176250000Y-273500000D03*
%TD*%
D13*
%TO.P,REF\u002A\u002A,*%
%TO.N,*%
X208747300Y-307965800D03*
%TD*%
D12*
%TO.P,REF\u002A\u002A,*%
%TO.N,*%
X311250000Y-273500000D03*
%TD*%
%TO.P,REF\u002A\u002A,*%
%TO.N,*%
X323750000Y-273500000D03*
%TD*%
D10*
%TO.P,REF\u002A\u002A,*%
%TO.N,*%
X233750000Y-245880000D03*
%TD*%
%TO.P,REF\u002A\u002A,*%
%TO.N,*%
X271247300Y-342965800D03*
%TD*%
D11*
%TO.P,REF\u002A\u002A,*%
%TO.N,*%
X169502700Y-392800000D03*
%TD*%
D12*
%TO.P,REF\u002A\u002A,*%
%TO.N,*%
X233750000Y-338500000D03*
%TD*%
D11*
%TO.P,REF\u002A\u002A,*%
%TO.N,*%
X129502700Y-386300000D03*
%TD*%
%TO.P,REF\u002A\u002A,*%
%TO.N,*%
X99500000Y-400750000D03*
%TD*%
%TO.P,REF\u002A\u002A,*%
%TO.N,*%
X222002700Y-386300000D03*
%TD*%
D12*
%TO.P,REF\u002A\u002A,*%
%TO.N,*%
X286250000Y-273500000D03*
%TD*%
D14*
%TO.P,REF\u002A\u002A,*%
%TO.N,GND*%
X21500000Y-219000000D03*
%TD*%
D10*
%TO.P,REF\u002A\u002A,*%
%TO.N,*%
X316500000Y-237000000D03*
%TD*%
D11*
%TO.P,REF\u002A\u002A,*%
%TO.N,*%
X264502700Y-386270000D03*
%TD*%
D12*
%TO.P,REF\u002A\u002A,*%
%TO.N,*%
X188750000Y-273500000D03*
%TD*%
D14*
%TO.P,,*%
%TO.N,GND*%
X182000000Y-405000000D03*
%TD*%
D13*
%TO.P,REF\u002A\u002A,*%
%TO.N,*%
X323747300Y-337965800D03*
%TD*%
D12*
%TO.P,REF\u002A\u002A,*%
%TO.N,*%
X138750000Y-273500000D03*
%TD*%
D11*
%TO.P,REF\u002A\u002A,*%
%TO.N,*%
X142002700Y-386300000D03*
%TD*%
%TO.P,REF\u002A\u002A,*%
%TO.N,*%
X249502700Y-392800000D03*
%TD*%
D10*
%TO.P,REF\u002A\u002A,*%
%TO.N,*%
X291500000Y-237000000D03*
%TD*%
D11*
%TO.P,REF\u002A\u002A,*%
%TO.N,*%
X114500000Y-393250000D03*
%TD*%
D10*
%TO.P,REF\u002A\u002A,*%
%TO.N,*%
X141247300Y-307965800D03*
%TD*%
%TO.P,REF\u002A\u002A,*%
%TO.N,*%
X266250000Y-228380000D03*
%TD*%
D12*
%TO.P,REF\u002A\u002A,*%
%TO.N,*%
X221250000Y-273500000D03*
%TD*%
D14*
%TO.P,,*%
%TO.N,GND*%
X342250000Y-405000000D03*
%TD*%
D11*
%TO.P,REF\u002A\u002A,*%
%TO.N,*%
X237002700Y-392800000D03*
%TD*%
D12*
%TO.P,REF\u002A\u002A,*%
%TO.N,*%
X233750000Y-273500000D03*
%TD*%
D10*
%TO.P,REF\u002A\u002A,*%
%TO.N,*%
X233750000Y-228380000D03*
%TD*%
D13*
%TO.P,REF\u002A\u002A,*%
%TO.N,*%
X323747300Y-307965800D03*
%TD*%
D12*
%TO.P,REF\u002A\u002A,*%
%TO.N,*%
X208750000Y-273500000D03*
%TD*%
D11*
%TO.P,REF\u002A\u002A,*%
%TO.N,*%
X194502700Y-392800000D03*
%TD*%
D12*
%TO.P,REF\u002A\u002A,*%
%TO.N,*%
X266250000Y-273500000D03*
%TD*%
%TO.P,REF\u002A\u002A,*%
%TO.N,*%
X221250000Y-338500000D03*
%TD*%
D11*
%TO.P,REF\u002A\u002A,*%
%TO.N,*%
X142002700Y-400800000D03*
%TD*%
D10*
%TO.P,REF\u002A\u002A,*%
%TO.N,*%
X271247300Y-325465800D03*
%TD*%
D12*
%TO.P,REF\u002A\u002A,*%
%TO.N,*%
X298750000Y-273500000D03*
%TD*%
D13*
%TO.P,REF\u002A\u002A,*%
%TO.N,*%
X246247300Y-307965800D03*
%TD*%
D15*
%TO.P,REF\u002A\u002A,*%
%TO.N,*%
X188900000Y-245780000D03*
%TD*%
%TA.AperFunction,Conductor*%
%TO.N,GND*%
G36*
X345503032Y-212500648D02*
G01*
X345836929Y-212517052D01*
X345849037Y-212518245D01*
X345952146Y-212533539D01*
X346176699Y-212566849D01*
X346188617Y-212569219D01*
X346509951Y-212649709D01*
X346521588Y-212653240D01*
X346592806Y-212678722D01*
X346833467Y-212764832D01*
X346844688Y-212769479D01*
X347144163Y-212911120D01*
X347154871Y-212916844D01*
X347438988Y-213087137D01*
X347449106Y-213093897D01*
X347715170Y-213291224D01*
X347724576Y-213298944D01*
X347970013Y-213521395D01*
X347978604Y-213529986D01*
X348165755Y-213736475D01*
X348201055Y-213775423D01*
X348208775Y-213784829D01*
X348406102Y-214050893D01*
X348412862Y-214061011D01*
X348541776Y-214276092D01*
X348583148Y-214345116D01*
X348588885Y-214355848D01*
X348730514Y-214655297D01*
X348735170Y-214666540D01*
X348846759Y-214978411D01*
X348850292Y-214990055D01*
X348930777Y-215311369D01*
X348933151Y-215323305D01*
X348981754Y-215650962D01*
X348982947Y-215663071D01*
X348999351Y-215996966D01*
X348999500Y-216003051D01*
X348999500Y-407996948D01*
X348999351Y-408003033D01*
X348982947Y-408336928D01*
X348981754Y-408349037D01*
X348933151Y-408676694D01*
X348930777Y-408688630D01*
X348850292Y-409009944D01*
X348846759Y-409021588D01*
X348735170Y-409333459D01*
X348730514Y-409344702D01*
X348588885Y-409644151D01*
X348583148Y-409654883D01*
X348412862Y-409938988D01*
X348406102Y-409949106D01*
X348208775Y-410215170D01*
X348201055Y-410224576D01*
X347978611Y-410470006D01*
X347970006Y-410478611D01*
X347724576Y-410701055D01*
X347715170Y-410708775D01*
X347449106Y-410906102D01*
X347438988Y-410912862D01*
X347154883Y-411083148D01*
X347144151Y-411088885D01*
X346844702Y-411230514D01*
X346833459Y-411235170D01*
X346521588Y-411346759D01*
X346509944Y-411350292D01*
X346188630Y-411430777D01*
X346176694Y-411433151D01*
X345849037Y-411481754D01*
X345836928Y-411482947D01*
X345521989Y-411498419D01*
X345503031Y-411499351D01*
X345496949Y-411499500D01*
X18503051Y-411499500D01*
X18496968Y-411499351D01*
X18476900Y-411498365D01*
X18163071Y-411482947D01*
X18150962Y-411481754D01*
X17823305Y-411433151D01*
X17811369Y-411430777D01*
X17490055Y-411350292D01*
X17478411Y-411346759D01*
X17166540Y-411235170D01*
X17155301Y-411230515D01*
X16855844Y-411088883D01*
X16845121Y-411083150D01*
X16561011Y-410912862D01*
X16550893Y-410906102D01*
X16284829Y-410708775D01*
X16275423Y-410701055D01*
X16236475Y-410665755D01*
X16029986Y-410478604D01*
X16021395Y-410470013D01*
X15798944Y-410224576D01*
X15791224Y-410215170D01*
X15593897Y-409949106D01*
X15587137Y-409938988D01*
X15416844Y-409654871D01*
X15411120Y-409644163D01*
X15269479Y-409344688D01*
X15264829Y-409333459D01*
X15153240Y-409021588D01*
X15149707Y-409009944D01*
X15140958Y-408975015D01*
X15069219Y-408688617D01*
X15066848Y-408676694D01*
X15018245Y-408349037D01*
X15017052Y-408336927D01*
X15000649Y-408003032D01*
X15000500Y-407996948D01*
X15000500Y-404831519D01*
X18500000Y-404831519D01*
X18500000Y-405168480D01*
X18537725Y-405503297D01*
X18537727Y-405503313D01*
X18612705Y-405831814D01*
X18612709Y-405831826D01*
X18723995Y-406149862D01*
X18870191Y-406453440D01*
X19049461Y-406738747D01*
X19208397Y-406938048D01*
X20205747Y-405940697D01*
X20279588Y-406042330D01*
X20457670Y-406220412D01*
X20559300Y-406294251D01*
X19561950Y-407291601D01*
X19761252Y-407450538D01*
X20046559Y-407629808D01*
X20350137Y-407776004D01*
X20668173Y-407887290D01*
X20668185Y-407887294D01*
X20996686Y-407962272D01*
X20996702Y-407962274D01*
X21331519Y-407999999D01*
X21331521Y-408000000D01*
X21668479Y-408000000D01*
X21668480Y-407999999D01*
X22003297Y-407962274D01*
X22003313Y-407962272D01*
X22331814Y-407887294D01*
X22331826Y-407887290D01*
X22649862Y-407776004D01*
X22953440Y-407629808D01*
X23238747Y-407450538D01*
X23438048Y-407291600D01*
X22440698Y-406294251D01*
X22542330Y-406220412D01*
X22720412Y-406042330D01*
X22794251Y-405940698D01*
X23791600Y-406938048D01*
X23950538Y-406738747D01*
X24129808Y-406453440D01*
X24276004Y-406149862D01*
X24387290Y-405831826D01*
X24387294Y-405831814D01*
X24462272Y-405503313D01*
X24462274Y-405503297D01*
X24499999Y-405168480D01*
X24500000Y-405168478D01*
X24500000Y-404831521D01*
X24499999Y-404831519D01*
X179000000Y-404831519D01*
X179000000Y-405168480D01*
X179037725Y-405503297D01*
X179037727Y-405503313D01*
X179112705Y-405831814D01*
X179112709Y-405831826D01*
X179223995Y-406149862D01*
X179370191Y-406453440D01*
X179549461Y-406738747D01*
X179708397Y-406938048D01*
X180705747Y-405940697D01*
X180779588Y-406042330D01*
X180957670Y-406220412D01*
X181059300Y-406294251D01*
X180061950Y-407291601D01*
X180261252Y-407450538D01*
X180546559Y-407629808D01*
X180850137Y-407776004D01*
X181168173Y-407887290D01*
X181168185Y-407887294D01*
X181496686Y-407962272D01*
X181496702Y-407962274D01*
X181831519Y-407999999D01*
X181831521Y-408000000D01*
X182168479Y-408000000D01*
X182168480Y-407999999D01*
X182503297Y-407962274D01*
X182503313Y-407962272D01*
X182831814Y-407887294D01*
X182831826Y-407887290D01*
X183149862Y-407776004D01*
X183453440Y-407629808D01*
X183738747Y-407450538D01*
X183938048Y-407291600D01*
X182940698Y-406294251D01*
X183042330Y-406220412D01*
X183220412Y-406042330D01*
X183294251Y-405940699D01*
X184291600Y-406938048D01*
X184450538Y-406738747D01*
X184629808Y-406453440D01*
X184776004Y-406149862D01*
X184887290Y-405831826D01*
X184887294Y-405831814D01*
X184962272Y-405503313D01*
X184962274Y-405503297D01*
X184999999Y-405168480D01*
X185000000Y-405168478D01*
X185000000Y-404831521D01*
X184999999Y-404831519D01*
X339250000Y-404831519D01*
X339250000Y-405168480D01*
X339287725Y-405503297D01*
X339287727Y-405503313D01*
X339362705Y-405831814D01*
X339362709Y-405831826D01*
X339473995Y-406149862D01*
X339620191Y-406453440D01*
X339799461Y-406738747D01*
X339958397Y-406938048D01*
X340955747Y-405940697D01*
X341029588Y-406042330D01*
X341207670Y-406220412D01*
X341309300Y-406294251D01*
X340311950Y-407291601D01*
X340511252Y-407450538D01*
X340796559Y-407629808D01*
X341100137Y-407776004D01*
X341418173Y-407887290D01*
X341418185Y-407887294D01*
X341746686Y-407962272D01*
X341746702Y-407962274D01*
X342081519Y-407999999D01*
X342081521Y-408000000D01*
X342418479Y-408000000D01*
X342418480Y-407999999D01*
X342753297Y-407962274D01*
X342753313Y-407962272D01*
X343081814Y-407887294D01*
X343081826Y-407887290D01*
X343399862Y-407776004D01*
X343703440Y-407629808D01*
X343988747Y-407450538D01*
X344188048Y-407291600D01*
X343190698Y-406294251D01*
X343292330Y-406220412D01*
X343470412Y-406042330D01*
X343544251Y-405940699D01*
X344541600Y-406938048D01*
X344700538Y-406738747D01*
X344879808Y-406453440D01*
X345026004Y-406149862D01*
X345137290Y-405831826D01*
X345137294Y-405831814D01*
X345212272Y-405503313D01*
X345212274Y-405503297D01*
X345249999Y-405168480D01*
X345250000Y-405168478D01*
X345250000Y-404831521D01*
X345249999Y-404831519D01*
X345212274Y-404496702D01*
X345212272Y-404496686D01*
X345137294Y-404168185D01*
X345137290Y-404168173D01*
X345026004Y-403850137D01*
X344879808Y-403546559D01*
X344700538Y-403261252D01*
X344541601Y-403061950D01*
X343544250Y-404059300D01*
X343470412Y-403957670D01*
X343292330Y-403779588D01*
X343190697Y-403705747D01*
X344188048Y-402708397D01*
X343988747Y-402549461D01*
X343703440Y-402370191D01*
X343399862Y-402223995D01*
X343081826Y-402112709D01*
X343081814Y-402112705D01*
X342753313Y-402037727D01*
X342753297Y-402037725D01*
X342418480Y-402000000D01*
X342081519Y-402000000D01*
X341746702Y-402037725D01*
X341746686Y-402037727D01*
X341418185Y-402112705D01*
X341418173Y-402112709D01*
X341100137Y-402223995D01*
X340796559Y-402370191D01*
X340511252Y-402549461D01*
X340311950Y-402708397D01*
X341309301Y-403705748D01*
X341207670Y-403779588D01*
X341029588Y-403957670D01*
X340955748Y-404059301D01*
X339958397Y-403061950D01*
X339799461Y-403261252D01*
X339620191Y-403546559D01*
X339473995Y-403850137D01*
X339362709Y-404168173D01*
X339362705Y-404168185D01*
X339287727Y-404496686D01*
X339287725Y-404496702D01*
X339250000Y-404831519D01*
X184999999Y-404831519D01*
X184962274Y-404496702D01*
X184962272Y-404496686D01*
X184887294Y-404168185D01*
X184887290Y-404168173D01*
X184776004Y-403850137D01*
X184629808Y-403546559D01*
X184450538Y-403261252D01*
X184291601Y-403061950D01*
X183294250Y-404059300D01*
X183220412Y-403957670D01*
X183042330Y-403779588D01*
X182940697Y-403705747D01*
X183938048Y-402708397D01*
X183738747Y-402549461D01*
X183453440Y-402370191D01*
X183149862Y-402223995D01*
X182831826Y-402112709D01*
X182831814Y-402112705D01*
X182503313Y-402037727D01*
X182503297Y-402037725D01*
X182168480Y-402000000D01*
X181831519Y-402000000D01*
X181496702Y-402037725D01*
X181496686Y-402037727D01*
X181168185Y-402112705D01*
X181168173Y-402112709D01*
X180850137Y-402223995D01*
X180546559Y-402370191D01*
X180261252Y-402549461D01*
X180061950Y-402708397D01*
X181059301Y-403705748D01*
X180957670Y-403779588D01*
X180779588Y-403957670D01*
X180705748Y-404059301D01*
X179708397Y-403061950D01*
X179549461Y-403261252D01*
X179370191Y-403546559D01*
X179223995Y-403850137D01*
X179112709Y-404168173D01*
X179112705Y-404168185D01*
X179037727Y-404496686D01*
X179037725Y-404496702D01*
X179000000Y-404831519D01*
X24499999Y-404831519D01*
X24462274Y-404496702D01*
X24462272Y-404496686D01*
X24387294Y-404168185D01*
X24387290Y-404168173D01*
X24276004Y-403850137D01*
X24129808Y-403546559D01*
X23950538Y-403261252D01*
X23791601Y-403061950D01*
X22794250Y-404059300D01*
X22720412Y-403957670D01*
X22542330Y-403779588D01*
X22440697Y-403705747D01*
X23438048Y-402708397D01*
X23238747Y-402549461D01*
X22953440Y-402370191D01*
X22649862Y-402223995D01*
X22331826Y-402112709D01*
X22331814Y-402112705D01*
X22003313Y-402037727D01*
X22003297Y-402037725D01*
X21668480Y-402000000D01*
X21331519Y-402000000D01*
X20996702Y-402037725D01*
X20996686Y-402037727D01*
X20668185Y-402112705D01*
X20668173Y-402112709D01*
X20350137Y-402223995D01*
X20046559Y-402370191D01*
X19761252Y-402549461D01*
X19561950Y-402708397D01*
X20559301Y-403705748D01*
X20457670Y-403779588D01*
X20279588Y-403957670D01*
X20205748Y-404059301D01*
X19208397Y-403061950D01*
X19049461Y-403261252D01*
X18870191Y-403546559D01*
X18723995Y-403850137D01*
X18612709Y-404168173D01*
X18612705Y-404168185D01*
X18537727Y-404496686D01*
X18537725Y-404496702D01*
X18500000Y-404831519D01*
X15000500Y-404831519D01*
X15000500Y-400553471D01*
X95499500Y-400553471D01*
X95499500Y-400946528D01*
X95538026Y-401337702D01*
X95614704Y-401723194D01*
X95614707Y-401723205D01*
X95728810Y-402099354D01*
X95879230Y-402462499D01*
X95879232Y-402462504D01*
X96064511Y-402809137D01*
X96064522Y-402809155D01*
X96282887Y-403135960D01*
X96282897Y-403135974D01*
X96532254Y-403439817D01*
X96810182Y-403717745D01*
X96810187Y-403717749D01*
X96810188Y-403717750D01*
X97114031Y-403967107D01*
X97440851Y-404185482D01*
X97440860Y-404185487D01*
X97440862Y-404185488D01*
X97787495Y-404370767D01*
X97787497Y-404370767D01*
X97787503Y-404370771D01*
X98150647Y-404521190D01*
X98526785Y-404635290D01*
X98526791Y-404635291D01*
X98526794Y-404635292D01*
X98526805Y-404635295D01*
X98884420Y-404706428D01*
X98912297Y-404711973D01*
X99303468Y-404750500D01*
X99303471Y-404750500D01*
X99696529Y-404750500D01*
X99696532Y-404750500D01*
X100087703Y-404711973D01*
X100221848Y-404685290D01*
X100473194Y-404635295D01*
X100473205Y-404635292D01*
X100473205Y-404635291D01*
X100473215Y-404635290D01*
X100849353Y-404521190D01*
X101212497Y-404370771D01*
X101559149Y-404185482D01*
X101885969Y-403967107D01*
X102189812Y-403717750D01*
X102467750Y-403439812D01*
X102717107Y-403135969D01*
X102935482Y-402809149D01*
X103120771Y-402462497D01*
X103271190Y-402099353D01*
X103385290Y-401723215D01*
X103385292Y-401723205D01*
X103385295Y-401723194D01*
X103461973Y-401337702D01*
X103495575Y-400996532D01*
X103500500Y-400946532D01*
X103500500Y-400603471D01*
X125502200Y-400603471D01*
X125502200Y-400996528D01*
X125540726Y-401387702D01*
X125617404Y-401773194D01*
X125617407Y-401773205D01*
X125731510Y-402149354D01*
X125881930Y-402512499D01*
X125881932Y-402512504D01*
X126067211Y-402859137D01*
X126067222Y-402859155D01*
X126285587Y-403185960D01*
X126285597Y-403185974D01*
X126534954Y-403489817D01*
X126812882Y-403767745D01*
X126812887Y-403767749D01*
X126812888Y-403767750D01*
X127116731Y-404017107D01*
X127443551Y-404235482D01*
X127443560Y-404235487D01*
X127443562Y-404235488D01*
X127790195Y-404420767D01*
X127790197Y-404420767D01*
X127790203Y-404420771D01*
X128153347Y-404571190D01*
X128529485Y-404685290D01*
X128529491Y-404685291D01*
X128529494Y-404685292D01*
X128529505Y-404685295D01*
X128914997Y-404761973D01*
X129306168Y-404800500D01*
X129306171Y-404800500D01*
X129699229Y-404800500D01*
X129699232Y-404800500D01*
X130090403Y-404761973D01*
X130165448Y-404747045D01*
X130475894Y-404685295D01*
X130475905Y-404685292D01*
X130475905Y-404685291D01*
X130475915Y-404685290D01*
X130852053Y-404571190D01*
X131215197Y-404420771D01*
X131561849Y-404235482D01*
X131888669Y-404017107D01*
X132192512Y-403767750D01*
X132470450Y-403489812D01*
X132719807Y-403185969D01*
X132938182Y-402859149D01*
X133123471Y-402512497D01*
X133273890Y-402149353D01*
X133387990Y-401773215D01*
X133387992Y-401773205D01*
X133387995Y-401773194D01*
X133464673Y-401387702D01*
X133503200Y-400996532D01*
X133503200Y-400603471D01*
X138002200Y-400603471D01*
X138002200Y-400996528D01*
X138040726Y-401387702D01*
X138117404Y-401773194D01*
X138117407Y-401773205D01*
X138231510Y-402149354D01*
X138381930Y-402512499D01*
X138381932Y-402512504D01*
X138567211Y-402859137D01*
X138567222Y-402859155D01*
X138785587Y-403185960D01*
X138785597Y-403185974D01*
X139034954Y-403489817D01*
X139312882Y-403767745D01*
X139312887Y-403767749D01*
X139312888Y-403767750D01*
X139616731Y-404017107D01*
X139943551Y-404235482D01*
X139943560Y-404235487D01*
X139943562Y-404235488D01*
X140290195Y-404420767D01*
X140290197Y-404420767D01*
X140290203Y-404420771D01*
X140653347Y-404571190D01*
X141029485Y-404685290D01*
X141029491Y-404685291D01*
X141029494Y-404685292D01*
X141029505Y-404685295D01*
X141414997Y-404761973D01*
X141806168Y-404800500D01*
X141806171Y-404800500D01*
X142199229Y-404800500D01*
X142199232Y-404800500D01*
X142590403Y-404761973D01*
X142648082Y-404750500D01*
X142869651Y-404706428D01*
X142975894Y-404685295D01*
X142975905Y-404685292D01*
X142975905Y-404685291D01*
X142975915Y-404685290D01*
X143352053Y-404571190D01*
X143715197Y-404420771D01*
X144061849Y-404235482D01*
X144388669Y-404017107D01*
X144692512Y-403767750D01*
X144970450Y-403489812D01*
X145219807Y-403185969D01*
X145438182Y-402859149D01*
X145494025Y-402754672D01*
X145524109Y-402698391D01*
X145623467Y-402512504D01*
X145623471Y-402512497D01*
X145773890Y-402149353D01*
X145887990Y-401773215D01*
X145887992Y-401773205D01*
X145887995Y-401773194D01*
X145964673Y-401387702D01*
X146003200Y-400996532D01*
X146003200Y-400603471D01*
X205502200Y-400603471D01*
X205502200Y-400996528D01*
X205540726Y-401387702D01*
X205617404Y-401773194D01*
X205617407Y-401773205D01*
X205731510Y-402149354D01*
X205881930Y-402512499D01*
X205881932Y-402512504D01*
X206067211Y-402859137D01*
X206067222Y-402859155D01*
X206285587Y-403185960D01*
X206285597Y-403185974D01*
X206534954Y-403489817D01*
X206812882Y-403767745D01*
X206812887Y-403767749D01*
X206812888Y-403767750D01*
X207116731Y-404017107D01*
X207443551Y-404235482D01*
X207443560Y-404235487D01*
X207443562Y-404235488D01*
X207790195Y-404420767D01*
X207790197Y-404420767D01*
X207790203Y-404420771D01*
X208153347Y-404571190D01*
X208529485Y-404685290D01*
X208529491Y-404685291D01*
X208529494Y-404685292D01*
X208529505Y-404685295D01*
X208914997Y-404761973D01*
X209306168Y-404800500D01*
X209306171Y-404800500D01*
X209699229Y-404800500D01*
X209699232Y-404800500D01*
X210090403Y-404761973D01*
X210165448Y-404747045D01*
X210475894Y-404685295D01*
X210475905Y-404685292D01*
X210475905Y-404685291D01*
X210475915Y-404685290D01*
X210852053Y-404571190D01*
X211215197Y-404420771D01*
X211561849Y-404235482D01*
X211888669Y-404017107D01*
X212192512Y-403767750D01*
X212470450Y-403489812D01*
X212719807Y-403185969D01*
X212938182Y-402859149D01*
X213123471Y-402512497D01*
X213273890Y-402149353D01*
X213387990Y-401773215D01*
X213387992Y-401773205D01*
X213387995Y-401773194D01*
X213464673Y-401387702D01*
X213503200Y-400996532D01*
X213503200Y-400603471D01*
X218002200Y-400603471D01*
X218002200Y-400996528D01*
X218040726Y-401387702D01*
X218117404Y-401773194D01*
X218117407Y-401773205D01*
X218231510Y-402149354D01*
X218381930Y-402512499D01*
X218381932Y-402512504D01*
X218567211Y-402859137D01*
X218567222Y-402859155D01*
X218785587Y-403185960D01*
X218785597Y-403185974D01*
X219034954Y-403489817D01*
X219312882Y-403767745D01*
X219312887Y-403767749D01*
X219312888Y-403767750D01*
X219616731Y-404017107D01*
X219943551Y-404235482D01*
X219943560Y-404235487D01*
X219943562Y-404235488D01*
X220290195Y-404420767D01*
X220290197Y-404420767D01*
X220290203Y-404420771D01*
X220653347Y-404571190D01*
X221029485Y-404685290D01*
X221029491Y-404685291D01*
X221029494Y-404685292D01*
X221029505Y-404685295D01*
X221414997Y-404761973D01*
X221806168Y-404800500D01*
X221806171Y-404800500D01*
X222199229Y-404800500D01*
X222199232Y-404800500D01*
X222590403Y-404761973D01*
X222665448Y-404747045D01*
X222975894Y-404685295D01*
X222975905Y-404685292D01*
X222975905Y-404685291D01*
X222975915Y-404685290D01*
X223352053Y-404571190D01*
X223715197Y-404420771D01*
X224061849Y-404235482D01*
X224388669Y-404017107D01*
X224692512Y-403767750D01*
X224970450Y-403489812D01*
X225219807Y-403185969D01*
X225438182Y-402859149D01*
X225623471Y-402512497D01*
X225773890Y-402149353D01*
X225887990Y-401773215D01*
X225887992Y-401773205D01*
X225887995Y-401773194D01*
X225964673Y-401387702D01*
X226003200Y-400996532D01*
X226003200Y-400603471D01*
X260502200Y-400603471D01*
X260502200Y-400996528D01*
X260540726Y-401387702D01*
X260617404Y-401773194D01*
X260617407Y-401773205D01*
X260731510Y-402149354D01*
X260881930Y-402512499D01*
X260881932Y-402512504D01*
X261067211Y-402859137D01*
X261067222Y-402859155D01*
X261285587Y-403185960D01*
X261285597Y-403185974D01*
X261534954Y-403489817D01*
X261812882Y-403767745D01*
X261812887Y-403767749D01*
X261812888Y-403767750D01*
X262116731Y-404017107D01*
X262443551Y-404235482D01*
X262443560Y-404235487D01*
X262443562Y-404235488D01*
X262790195Y-404420767D01*
X262790197Y-404420767D01*
X262790203Y-404420771D01*
X263153347Y-404571190D01*
X263529485Y-404685290D01*
X263529491Y-404685291D01*
X263529494Y-404685292D01*
X263529505Y-404685295D01*
X263914997Y-404761973D01*
X264306168Y-404800500D01*
X264306171Y-404800500D01*
X264699229Y-404800500D01*
X264699232Y-404800500D01*
X265090403Y-404761973D01*
X265148082Y-404750500D01*
X265369651Y-404706428D01*
X265475894Y-404685295D01*
X265475905Y-404685292D01*
X265475905Y-404685291D01*
X265475915Y-404685290D01*
X265852053Y-404571190D01*
X266215197Y-404420771D01*
X266561849Y-404235482D01*
X266888669Y-404017107D01*
X267192512Y-403767750D01*
X267470450Y-403489812D01*
X267719807Y-403185969D01*
X267938182Y-402859149D01*
X267994025Y-402754672D01*
X268024109Y-402698391D01*
X268123467Y-402512504D01*
X268123471Y-402512497D01*
X268273890Y-402149353D01*
X268387990Y-401773215D01*
X268387992Y-401773205D01*
X268387995Y-401773194D01*
X268464673Y-401387702D01*
X268503200Y-400996532D01*
X268503200Y-400603468D01*
X268464673Y-400212297D01*
X268387995Y-399826805D01*
X268387992Y-399826794D01*
X268387991Y-399826791D01*
X268387990Y-399826785D01*
X268273890Y-399450647D01*
X268123471Y-399087503D01*
X268096745Y-399037503D01*
X267938188Y-398740862D01*
X267938187Y-398740860D01*
X267938182Y-398740851D01*
X267719807Y-398414031D01*
X267470450Y-398110188D01*
X267470449Y-398110187D01*
X267470445Y-398110182D01*
X267192517Y-397832254D01*
X266888674Y-397582897D01*
X266888673Y-397582896D01*
X266888669Y-397582893D01*
X266561849Y-397364518D01*
X266561844Y-397364515D01*
X266561837Y-397364511D01*
X266215204Y-397179232D01*
X266215199Y-397179230D01*
X265852054Y-397028810D01*
X265475905Y-396914707D01*
X265475894Y-396914704D01*
X265090402Y-396838026D01*
X264795789Y-396809010D01*
X264699232Y-396799500D01*
X264306168Y-396799500D01*
X264216951Y-396808287D01*
X263914997Y-396838026D01*
X263529505Y-396914704D01*
X263529494Y-396914707D01*
X263153345Y-397028810D01*
X262790200Y-397179230D01*
X262790195Y-397179232D01*
X262443562Y-397364511D01*
X262443544Y-397364522D01*
X262116739Y-397582887D01*
X262116725Y-397582897D01*
X261812882Y-397832254D01*
X261534954Y-398110182D01*
X261285597Y-398414025D01*
X261285587Y-398414039D01*
X261067222Y-398740844D01*
X261067211Y-398740862D01*
X260881932Y-399087495D01*
X260881930Y-399087500D01*
X260731510Y-399450645D01*
X260617407Y-399826794D01*
X260617404Y-399826805D01*
X260540726Y-400212297D01*
X260502200Y-400603471D01*
X226003200Y-400603471D01*
X226003200Y-400603468D01*
X225964673Y-400212297D01*
X225887995Y-399826805D01*
X225887992Y-399826794D01*
X225887991Y-399826791D01*
X225887990Y-399826785D01*
X225773890Y-399450647D01*
X225623471Y-399087503D01*
X225596745Y-399037503D01*
X225438188Y-398740862D01*
X225438187Y-398740860D01*
X225438182Y-398740851D01*
X225219807Y-398414031D01*
X224970450Y-398110188D01*
X224970449Y-398110187D01*
X224970445Y-398110182D01*
X224692517Y-397832254D01*
X224388674Y-397582897D01*
X224388673Y-397582896D01*
X224388669Y-397582893D01*
X224061849Y-397364518D01*
X224061844Y-397364515D01*
X224061837Y-397364511D01*
X223715204Y-397179232D01*
X223715199Y-397179230D01*
X223352054Y-397028810D01*
X222975905Y-396914707D01*
X222975894Y-396914704D01*
X222590402Y-396838026D01*
X222295789Y-396809010D01*
X222199232Y-396799500D01*
X221806168Y-396799500D01*
X221716951Y-396808287D01*
X221414997Y-396838026D01*
X221029505Y-396914704D01*
X221029494Y-396914707D01*
X220653345Y-397028810D01*
X220290200Y-397179230D01*
X220290195Y-397179232D01*
X219943562Y-397364511D01*
X219943544Y-397364522D01*
X219616739Y-397582887D01*
X219616725Y-397582897D01*
X219312882Y-397832254D01*
X219034954Y-398110182D01*
X218785597Y-398414025D01*
X218785587Y-398414039D01*
X218567222Y-398740844D01*
X218567211Y-398740862D01*
X218381932Y-399087495D01*
X218381930Y-399087500D01*
X218231510Y-399450645D01*
X218117407Y-399826794D01*
X218117404Y-399826805D01*
X218040726Y-400212297D01*
X218002200Y-400603471D01*
X213503200Y-400603471D01*
X213503200Y-400603468D01*
X213464673Y-400212297D01*
X213387995Y-399826805D01*
X213387992Y-399826794D01*
X213387991Y-399826791D01*
X213387990Y-399826785D01*
X213273890Y-399450647D01*
X213123471Y-399087503D01*
X213096745Y-399037503D01*
X212938188Y-398740862D01*
X212938187Y-398740860D01*
X212938182Y-398740851D01*
X212719807Y-398414031D01*
X212470450Y-398110188D01*
X212470449Y-398110187D01*
X212470445Y-398110182D01*
X212192517Y-397832254D01*
X211888674Y-397582897D01*
X211888673Y-397582896D01*
X211888669Y-397582893D01*
X211561849Y-397364518D01*
X211561844Y-397364515D01*
X211561837Y-397364511D01*
X211215204Y-397179232D01*
X211215199Y-397179230D01*
X210852054Y-397028810D01*
X210475905Y-396914707D01*
X210475894Y-396914704D01*
X210090402Y-396838026D01*
X209795789Y-396809010D01*
X209699232Y-396799500D01*
X209306168Y-396799500D01*
X209216951Y-396808287D01*
X208914997Y-396838026D01*
X208529505Y-396914704D01*
X208529494Y-396914707D01*
X208153345Y-397028810D01*
X207790200Y-397179230D01*
X207790195Y-397179232D01*
X207443562Y-397364511D01*
X207443544Y-397364522D01*
X207116739Y-397582887D01*
X207116725Y-397582897D01*
X206812882Y-397832254D01*
X206534954Y-398110182D01*
X206285597Y-398414025D01*
X206285587Y-398414039D01*
X206067222Y-398740844D01*
X206067211Y-398740862D01*
X205881932Y-399087495D01*
X205881930Y-399087500D01*
X205731510Y-399450645D01*
X205617407Y-399826794D01*
X205617404Y-399826805D01*
X205540726Y-400212297D01*
X205502200Y-400603471D01*
X146003200Y-400603471D01*
X146003200Y-400603468D01*
X145964673Y-400212297D01*
X145887995Y-399826805D01*
X145887992Y-399826794D01*
X145887991Y-399826791D01*
X145887990Y-399826785D01*
X145773890Y-399450647D01*
X145623471Y-399087503D01*
X145596745Y-399037503D01*
X145438188Y-398740862D01*
X145438187Y-398740860D01*
X145438182Y-398740851D01*
X145219807Y-398414031D01*
X144970450Y-398110188D01*
X144970449Y-398110187D01*
X144970445Y-398110182D01*
X144692517Y-397832254D01*
X144388674Y-397582897D01*
X144388673Y-397582896D01*
X144388669Y-397582893D01*
X144061849Y-397364518D01*
X144061844Y-397364515D01*
X144061837Y-397364511D01*
X143715204Y-397179232D01*
X143715199Y-397179230D01*
X143352054Y-397028810D01*
X142975905Y-396914707D01*
X142975894Y-396914704D01*
X142590402Y-396838026D01*
X142295789Y-396809010D01*
X142199232Y-396799500D01*
X141806168Y-396799500D01*
X141716951Y-396808287D01*
X141414997Y-396838026D01*
X141029505Y-396914704D01*
X141029494Y-396914707D01*
X140653345Y-397028810D01*
X140290200Y-397179230D01*
X140290195Y-397179232D01*
X139943562Y-397364511D01*
X139943544Y-397364522D01*
X139616739Y-397582887D01*
X139616725Y-397582897D01*
X139312882Y-397832254D01*
X139034954Y-398110182D01*
X138785597Y-398414025D01*
X138785587Y-398414039D01*
X138567222Y-398740844D01*
X138567211Y-398740862D01*
X138381932Y-399087495D01*
X138381930Y-399087500D01*
X138231510Y-399450645D01*
X138117407Y-399826794D01*
X138117404Y-399826805D01*
X138040726Y-400212297D01*
X138002200Y-400603471D01*
X133503200Y-400603471D01*
X133503200Y-400603468D01*
X133464673Y-400212297D01*
X133387995Y-399826805D01*
X133387992Y-399826794D01*
X133387991Y-399826791D01*
X133387990Y-399826785D01*
X133273890Y-399450647D01*
X133123471Y-399087503D01*
X133096745Y-399037503D01*
X132938188Y-398740862D01*
X132938187Y-398740860D01*
X132938182Y-398740851D01*
X132719807Y-398414031D01*
X132470450Y-398110188D01*
X132470449Y-398110187D01*
X132470445Y-398110182D01*
X132192517Y-397832254D01*
X131888674Y-397582897D01*
X131888673Y-397582896D01*
X131888669Y-397582893D01*
X131561849Y-397364518D01*
X131561844Y-397364515D01*
X131561837Y-397364511D01*
X131215204Y-397179232D01*
X131215199Y-397179230D01*
X130852054Y-397028810D01*
X130475905Y-396914707D01*
X130475894Y-396914704D01*
X130090402Y-396838026D01*
X129795789Y-396809010D01*
X129699232Y-396799500D01*
X129306168Y-396799500D01*
X129216951Y-396808287D01*
X128914997Y-396838026D01*
X128529505Y-396914704D01*
X128529494Y-396914707D01*
X128153345Y-397028810D01*
X127790200Y-397179230D01*
X127790195Y-397179232D01*
X127443562Y-397364511D01*
X127443544Y-397364522D01*
X127116739Y-397582887D01*
X127116725Y-397582897D01*
X126812882Y-397832254D01*
X126534954Y-398110182D01*
X126285597Y-398414025D01*
X126285587Y-398414039D01*
X126067222Y-398740844D01*
X126067211Y-398740862D01*
X125881932Y-399087495D01*
X125881930Y-399087500D01*
X125731510Y-399450645D01*
X125617407Y-399826794D01*
X125617404Y-399826805D01*
X125540726Y-400212297D01*
X125502200Y-400603471D01*
X103500500Y-400603471D01*
X103500500Y-400553468D01*
X103461973Y-400162297D01*
X103395240Y-399826805D01*
X103385295Y-399776805D01*
X103385292Y-399776794D01*
X103385291Y-399776791D01*
X103385290Y-399776785D01*
X103271190Y-399400647D01*
X103120771Y-399037503D01*
X102962213Y-398740862D01*
X102935488Y-398690862D01*
X102935487Y-398690860D01*
X102935482Y-398690851D01*
X102717107Y-398364031D01*
X102467750Y-398060188D01*
X102467749Y-398060187D01*
X102467745Y-398060182D01*
X102189817Y-397782254D01*
X101885974Y-397532897D01*
X101885973Y-397532896D01*
X101885969Y-397532893D01*
X101559149Y-397314518D01*
X101559144Y-397314515D01*
X101559137Y-397314511D01*
X101212504Y-397129232D01*
X101212499Y-397129230D01*
X100849354Y-396978810D01*
X100473205Y-396864707D01*
X100473194Y-396864704D01*
X100087702Y-396788026D01*
X99793089Y-396759010D01*
X99696532Y-396749500D01*
X99303468Y-396749500D01*
X99214251Y-396758287D01*
X98912297Y-396788026D01*
X98526805Y-396864704D01*
X98526794Y-396864707D01*
X98150645Y-396978810D01*
X97787500Y-397129230D01*
X97787495Y-397129232D01*
X97440862Y-397314511D01*
X97440844Y-397314522D01*
X97114039Y-397532887D01*
X97114025Y-397532897D01*
X96810182Y-397782254D01*
X96532254Y-398060182D01*
X96282897Y-398364025D01*
X96282887Y-398364039D01*
X96064522Y-398690844D01*
X96064511Y-398690862D01*
X95879232Y-399037495D01*
X95879230Y-399037500D01*
X95728810Y-399400645D01*
X95614707Y-399776794D01*
X95614704Y-399776805D01*
X95538026Y-400162297D01*
X95499500Y-400553471D01*
X15000500Y-400553471D01*
X15000500Y-393053471D01*
X110499500Y-393053471D01*
X110499500Y-393446528D01*
X110538026Y-393837702D01*
X110614704Y-394223194D01*
X110614707Y-394223205D01*
X110728810Y-394599354D01*
X110879230Y-394962499D01*
X110879232Y-394962504D01*
X111064511Y-395309137D01*
X111064522Y-395309155D01*
X111282887Y-395635960D01*
X111282897Y-395635974D01*
X111532254Y-395939817D01*
X111810182Y-396217745D01*
X111810187Y-396217749D01*
X111810188Y-396217750D01*
X112114031Y-396467107D01*
X112440851Y-396685482D01*
X112440860Y-396685487D01*
X112440862Y-396685488D01*
X112787495Y-396870767D01*
X112787497Y-396870767D01*
X112787503Y-396870771D01*
X113150647Y-397021190D01*
X113526785Y-397135290D01*
X113526791Y-397135291D01*
X113526794Y-397135292D01*
X113526805Y-397135295D01*
X113912297Y-397211973D01*
X114303468Y-397250500D01*
X114303471Y-397250500D01*
X114696529Y-397250500D01*
X114696532Y-397250500D01*
X115087703Y-397211973D01*
X115162748Y-397197045D01*
X115473194Y-397135295D01*
X115473205Y-397135292D01*
X115473205Y-397135291D01*
X115473215Y-397135290D01*
X115849353Y-397021190D01*
X116212497Y-396870771D01*
X116559149Y-396685482D01*
X116885969Y-396467107D01*
X117189812Y-396217750D01*
X117467750Y-395939812D01*
X117717107Y-395635969D01*
X117935482Y-395309149D01*
X118120771Y-394962497D01*
X118271190Y-394599353D01*
X118385290Y-394223215D01*
X118385292Y-394223205D01*
X118385295Y-394223194D01*
X118461973Y-393837702D01*
X118500500Y-393446532D01*
X118500500Y-393053468D01*
X118461973Y-392662297D01*
X118450272Y-392603471D01*
X153002200Y-392603471D01*
X153002200Y-392996528D01*
X153040726Y-393387702D01*
X153117404Y-393773194D01*
X153117407Y-393773205D01*
X153231510Y-394149354D01*
X153381930Y-394512499D01*
X153381932Y-394512504D01*
X153567211Y-394859137D01*
X153567222Y-394859155D01*
X153785587Y-395185960D01*
X153785597Y-395185974D01*
X154034954Y-395489817D01*
X154312882Y-395767745D01*
X154312887Y-395767749D01*
X154312888Y-395767750D01*
X154616731Y-396017107D01*
X154943551Y-396235482D01*
X154943560Y-396235487D01*
X154943562Y-396235488D01*
X155290195Y-396420767D01*
X155290197Y-396420767D01*
X155290203Y-396420771D01*
X155653347Y-396571190D01*
X156029485Y-396685290D01*
X156029491Y-396685291D01*
X156029494Y-396685292D01*
X156029505Y-396685295D01*
X156414997Y-396761973D01*
X156806168Y-396800500D01*
X156806171Y-396800500D01*
X157199229Y-396800500D01*
X157199232Y-396800500D01*
X157590403Y-396761973D01*
X157665448Y-396747045D01*
X157975894Y-396685295D01*
X157975905Y-396685292D01*
X157975905Y-396685291D01*
X157975915Y-396685290D01*
X158352053Y-396571190D01*
X158715197Y-396420771D01*
X159061849Y-396235482D01*
X159388669Y-396017107D01*
X159692512Y-395767750D01*
X159970450Y-395489812D01*
X160219807Y-395185969D01*
X160438182Y-394859149D01*
X160623471Y-394512497D01*
X160773890Y-394149353D01*
X160887990Y-393773215D01*
X160887992Y-393773205D01*
X160887995Y-393773194D01*
X160964673Y-393387702D01*
X161003200Y-392996532D01*
X161003200Y-392603471D01*
X165502200Y-392603471D01*
X165502200Y-392996528D01*
X165540726Y-393387702D01*
X165617404Y-393773194D01*
X165617407Y-393773205D01*
X165731510Y-394149354D01*
X165881930Y-394512499D01*
X165881932Y-394512504D01*
X166067211Y-394859137D01*
X166067222Y-394859155D01*
X166285587Y-395185960D01*
X166285597Y-395185974D01*
X166534954Y-395489817D01*
X166812882Y-395767745D01*
X166812887Y-395767749D01*
X166812888Y-395767750D01*
X167116731Y-396017107D01*
X167443551Y-396235482D01*
X167443560Y-396235487D01*
X167443562Y-396235488D01*
X167790195Y-396420767D01*
X167790197Y-396420767D01*
X167790203Y-396420771D01*
X168153347Y-396571190D01*
X168529485Y-396685290D01*
X168529491Y-396685291D01*
X168529494Y-396685292D01*
X168529505Y-396685295D01*
X168914997Y-396761973D01*
X169306168Y-396800500D01*
X169306171Y-396800500D01*
X169699229Y-396800500D01*
X169699232Y-396800500D01*
X170090403Y-396761973D01*
X170165448Y-396747045D01*
X170475894Y-396685295D01*
X170475905Y-396685292D01*
X170475905Y-396685291D01*
X170475915Y-396685290D01*
X170852053Y-396571190D01*
X171215197Y-396420771D01*
X171561849Y-396235482D01*
X171888669Y-396017107D01*
X172192512Y-395767750D01*
X172470450Y-395489812D01*
X172719807Y-395185969D01*
X172938182Y-394859149D01*
X173123471Y-394512497D01*
X173273890Y-394149353D01*
X173387990Y-393773215D01*
X173387992Y-393773205D01*
X173387995Y-393773194D01*
X173464673Y-393387702D01*
X173503200Y-392996532D01*
X173503200Y-392603468D01*
X173498276Y-392553471D01*
X177999500Y-392553471D01*
X177999500Y-392946528D01*
X178038026Y-393337702D01*
X178114704Y-393723194D01*
X178114707Y-393723205D01*
X178228810Y-394099354D01*
X178379230Y-394462499D01*
X178379232Y-394462504D01*
X178564511Y-394809137D01*
X178564522Y-394809155D01*
X178782887Y-395135960D01*
X178782897Y-395135974D01*
X179032254Y-395439817D01*
X179310182Y-395717745D01*
X179310187Y-395717749D01*
X179310188Y-395717750D01*
X179614031Y-395967107D01*
X179940851Y-396185482D01*
X179940860Y-396185487D01*
X179940862Y-396185488D01*
X180287495Y-396370767D01*
X180287497Y-396370767D01*
X180287503Y-396370771D01*
X180650647Y-396521190D01*
X181026785Y-396635290D01*
X181026791Y-396635291D01*
X181026794Y-396635292D01*
X181026805Y-396635295D01*
X181412297Y-396711973D01*
X181803468Y-396750500D01*
X181803471Y-396750500D01*
X182196529Y-396750500D01*
X182196532Y-396750500D01*
X182587703Y-396711973D01*
X182662748Y-396697045D01*
X182973194Y-396635295D01*
X182973205Y-396635292D01*
X182973205Y-396635291D01*
X182973215Y-396635290D01*
X183349353Y-396521190D01*
X183712497Y-396370771D01*
X184059149Y-396185482D01*
X184385969Y-395967107D01*
X184689812Y-395717750D01*
X184967750Y-395439812D01*
X185217107Y-395135969D01*
X185435482Y-394809149D01*
X185620771Y-394462497D01*
X185771190Y-394099353D01*
X185885290Y-393723215D01*
X185885292Y-393723205D01*
X185885295Y-393723194D01*
X185961973Y-393337702D01*
X185989967Y-393053471D01*
X186000500Y-392946532D01*
X186000500Y-392603471D01*
X190502200Y-392603471D01*
X190502200Y-392996528D01*
X190540726Y-393387702D01*
X190617404Y-393773194D01*
X190617407Y-393773205D01*
X190731510Y-394149354D01*
X190881930Y-394512499D01*
X190881932Y-394512504D01*
X191067211Y-394859137D01*
X191067222Y-394859155D01*
X191285587Y-395185960D01*
X191285597Y-395185974D01*
X191534954Y-395489817D01*
X191812882Y-395767745D01*
X191812887Y-395767749D01*
X191812888Y-395767750D01*
X192116731Y-396017107D01*
X192443551Y-396235482D01*
X192443560Y-396235487D01*
X192443562Y-396235488D01*
X192790195Y-396420767D01*
X192790197Y-396420767D01*
X192790203Y-396420771D01*
X193153347Y-396571190D01*
X193529485Y-396685290D01*
X193529491Y-396685291D01*
X193529494Y-396685292D01*
X193529505Y-396685295D01*
X193914997Y-396761973D01*
X194306168Y-396800500D01*
X194306171Y-396800500D01*
X194699229Y-396800500D01*
X194699232Y-396800500D01*
X195090403Y-396761973D01*
X195165448Y-396747045D01*
X195475894Y-396685295D01*
X195475905Y-396685292D01*
X195475905Y-396685291D01*
X195475915Y-396685290D01*
X195852053Y-396571190D01*
X196215197Y-396420771D01*
X196561849Y-396235482D01*
X196888669Y-396017107D01*
X197192512Y-395767750D01*
X197470450Y-395489812D01*
X197719807Y-395185969D01*
X197938182Y-394859149D01*
X198123471Y-394512497D01*
X198273890Y-394149353D01*
X198387990Y-393773215D01*
X198387992Y-393773205D01*
X198387995Y-393773194D01*
X198464673Y-393387702D01*
X198503200Y-392996532D01*
X198503200Y-392603471D01*
X233002200Y-392603471D01*
X233002200Y-392996528D01*
X233040726Y-393387702D01*
X233117404Y-393773194D01*
X233117407Y-393773205D01*
X233231510Y-394149354D01*
X233381930Y-394512499D01*
X233381932Y-394512504D01*
X233567211Y-394859137D01*
X233567222Y-394859155D01*
X233785587Y-395185960D01*
X233785597Y-395185974D01*
X234034954Y-395489817D01*
X234312882Y-395767745D01*
X234312887Y-395767749D01*
X234312888Y-395767750D01*
X234616731Y-396017107D01*
X234943551Y-396235482D01*
X234943560Y-396235487D01*
X234943562Y-396235488D01*
X235290195Y-396420767D01*
X235290197Y-396420767D01*
X235290203Y-396420771D01*
X235653347Y-396571190D01*
X236029485Y-396685290D01*
X236029491Y-396685291D01*
X236029494Y-396685292D01*
X236029505Y-396685295D01*
X236414997Y-396761973D01*
X236806168Y-396800500D01*
X236806171Y-396800500D01*
X237199229Y-396800500D01*
X237199232Y-396800500D01*
X237590403Y-396761973D01*
X237665448Y-396747045D01*
X237975894Y-396685295D01*
X237975905Y-396685292D01*
X237975905Y-396685291D01*
X237975915Y-396685290D01*
X238352053Y-396571190D01*
X238715197Y-396420771D01*
X239061849Y-396235482D01*
X239388669Y-396017107D01*
X239692512Y-395767750D01*
X239970450Y-395489812D01*
X240219807Y-395185969D01*
X240438182Y-394859149D01*
X240623471Y-394512497D01*
X240773890Y-394149353D01*
X240887990Y-393773215D01*
X240887992Y-393773205D01*
X240887995Y-393773194D01*
X240964673Y-393387702D01*
X241003200Y-392996532D01*
X241003200Y-392603471D01*
X245502200Y-392603471D01*
X245502200Y-392996528D01*
X245540726Y-393387702D01*
X245617404Y-393773194D01*
X245617407Y-393773205D01*
X245731510Y-394149354D01*
X245881930Y-394512499D01*
X245881932Y-394512504D01*
X246067211Y-394859137D01*
X246067222Y-394859155D01*
X246285587Y-395185960D01*
X246285597Y-395185974D01*
X246534954Y-395489817D01*
X246812882Y-395767745D01*
X246812887Y-395767749D01*
X246812888Y-395767750D01*
X247116731Y-396017107D01*
X247443551Y-396235482D01*
X247443560Y-396235487D01*
X247443562Y-396235488D01*
X247790195Y-396420767D01*
X247790197Y-396420767D01*
X247790203Y-396420771D01*
X248153347Y-396571190D01*
X248529485Y-396685290D01*
X248529491Y-396685291D01*
X248529494Y-396685292D01*
X248529505Y-396685295D01*
X248914997Y-396761973D01*
X249306168Y-396800500D01*
X249306171Y-396800500D01*
X249699229Y-396800500D01*
X249699232Y-396800500D01*
X250090403Y-396761973D01*
X250165448Y-396747045D01*
X250475894Y-396685295D01*
X250475905Y-396685292D01*
X250475905Y-396685291D01*
X250475915Y-396685290D01*
X250852053Y-396571190D01*
X251215197Y-396420771D01*
X251561849Y-396235482D01*
X251888669Y-396017107D01*
X252192512Y-395767750D01*
X252470450Y-395489812D01*
X252719807Y-395185969D01*
X252938182Y-394859149D01*
X253123471Y-394512497D01*
X253273890Y-394149353D01*
X253387990Y-393773215D01*
X253387992Y-393773205D01*
X253387995Y-393773194D01*
X253464673Y-393387702D01*
X253503200Y-392996532D01*
X253503200Y-392603468D01*
X253464673Y-392212297D01*
X253387995Y-391826805D01*
X253387992Y-391826794D01*
X253387991Y-391826791D01*
X253387990Y-391826785D01*
X253273890Y-391450647D01*
X253123471Y-391087503D01*
X253096745Y-391037503D01*
X252938188Y-390740862D01*
X252938187Y-390740860D01*
X252938182Y-390740851D01*
X252719807Y-390414031D01*
X252470450Y-390110188D01*
X252470449Y-390110187D01*
X252470445Y-390110182D01*
X252192517Y-389832254D01*
X251888674Y-389582897D01*
X251888673Y-389582896D01*
X251888669Y-389582893D01*
X251561849Y-389364518D01*
X251561844Y-389364515D01*
X251561837Y-389364511D01*
X251215204Y-389179232D01*
X251215199Y-389179230D01*
X250852054Y-389028810D01*
X250475905Y-388914707D01*
X250475894Y-388914704D01*
X250090402Y-388838026D01*
X249795789Y-388809010D01*
X249699232Y-388799500D01*
X249306168Y-388799500D01*
X249216951Y-388808287D01*
X248914997Y-388838026D01*
X248529505Y-388914704D01*
X248529494Y-388914707D01*
X248153345Y-389028810D01*
X247790200Y-389179230D01*
X247790195Y-389179232D01*
X247443562Y-389364511D01*
X247443544Y-389364522D01*
X247116739Y-389582887D01*
X247116725Y-389582897D01*
X246812882Y-389832254D01*
X246534954Y-390110182D01*
X246285597Y-390414025D01*
X246285587Y-390414039D01*
X246067222Y-390740844D01*
X246067211Y-390740862D01*
X245881932Y-391087495D01*
X245881930Y-391087500D01*
X245731510Y-391450645D01*
X245617407Y-391826794D01*
X245617404Y-391826805D01*
X245540726Y-392212297D01*
X245502200Y-392603471D01*
X241003200Y-392603471D01*
X241003200Y-392603468D01*
X240964673Y-392212297D01*
X240887995Y-391826805D01*
X240887992Y-391826794D01*
X240887991Y-391826791D01*
X240887990Y-391826785D01*
X240773890Y-391450647D01*
X240623471Y-391087503D01*
X240596745Y-391037503D01*
X240438188Y-390740862D01*
X240438187Y-390740860D01*
X240438182Y-390740851D01*
X240219807Y-390414031D01*
X239970450Y-390110188D01*
X239970449Y-390110187D01*
X239970445Y-390110182D01*
X239692517Y-389832254D01*
X239388674Y-389582897D01*
X239388673Y-389582896D01*
X239388669Y-389582893D01*
X239061849Y-389364518D01*
X239061844Y-389364515D01*
X239061837Y-389364511D01*
X238715204Y-389179232D01*
X238715199Y-389179230D01*
X238352054Y-389028810D01*
X237975905Y-388914707D01*
X237975894Y-388914704D01*
X237590402Y-388838026D01*
X237295789Y-388809010D01*
X237199232Y-388799500D01*
X236806168Y-388799500D01*
X236716951Y-388808287D01*
X236414997Y-388838026D01*
X236029505Y-388914704D01*
X236029494Y-388914707D01*
X235653345Y-389028810D01*
X235290200Y-389179230D01*
X235290195Y-389179232D01*
X234943562Y-389364511D01*
X234943544Y-389364522D01*
X234616739Y-389582887D01*
X234616725Y-389582897D01*
X234312882Y-389832254D01*
X234034954Y-390110182D01*
X233785597Y-390414025D01*
X233785587Y-390414039D01*
X233567222Y-390740844D01*
X233567211Y-390740862D01*
X233381932Y-391087495D01*
X233381930Y-391087500D01*
X233231510Y-391450645D01*
X233117407Y-391826794D01*
X233117404Y-391826805D01*
X233040726Y-392212297D01*
X233002200Y-392603471D01*
X198503200Y-392603471D01*
X198503200Y-392603468D01*
X198464673Y-392212297D01*
X198387995Y-391826805D01*
X198387992Y-391826794D01*
X198387991Y-391826791D01*
X198387990Y-391826785D01*
X198273890Y-391450647D01*
X198123471Y-391087503D01*
X198096745Y-391037503D01*
X197938188Y-390740862D01*
X197938187Y-390740860D01*
X197938182Y-390740851D01*
X197719807Y-390414031D01*
X197470450Y-390110188D01*
X197470449Y-390110187D01*
X197470445Y-390110182D01*
X197192517Y-389832254D01*
X196888674Y-389582897D01*
X196888673Y-389582896D01*
X196888669Y-389582893D01*
X196561849Y-389364518D01*
X196561844Y-389364515D01*
X196561837Y-389364511D01*
X196215204Y-389179232D01*
X196215199Y-389179230D01*
X195852054Y-389028810D01*
X195475905Y-388914707D01*
X195475894Y-388914704D01*
X195090402Y-388838026D01*
X194795789Y-388809010D01*
X194699232Y-388799500D01*
X194306168Y-388799500D01*
X194216951Y-388808287D01*
X193914997Y-388838026D01*
X193529505Y-388914704D01*
X193529494Y-388914707D01*
X193153345Y-389028810D01*
X192790200Y-389179230D01*
X192790195Y-389179232D01*
X192443562Y-389364511D01*
X192443544Y-389364522D01*
X192116739Y-389582887D01*
X192116725Y-389582897D01*
X191812882Y-389832254D01*
X191534954Y-390110182D01*
X191285597Y-390414025D01*
X191285587Y-390414039D01*
X191067222Y-390740844D01*
X191067211Y-390740862D01*
X190881932Y-391087495D01*
X190881930Y-391087500D01*
X190731510Y-391450645D01*
X190617407Y-391826794D01*
X190617404Y-391826805D01*
X190540726Y-392212297D01*
X190502200Y-392603471D01*
X186000500Y-392603471D01*
X186000500Y-392553468D01*
X185961973Y-392162297D01*
X185909928Y-391900647D01*
X185885295Y-391776805D01*
X185885292Y-391776794D01*
X185885291Y-391776791D01*
X185885290Y-391776785D01*
X185771190Y-391400647D01*
X185620771Y-391037503D01*
X185528048Y-390864031D01*
X185435488Y-390690862D01*
X185435487Y-390690860D01*
X185435482Y-390690851D01*
X185217107Y-390364031D01*
X184967750Y-390060188D01*
X184967749Y-390060187D01*
X184967745Y-390060182D01*
X184689817Y-389782254D01*
X184385974Y-389532897D01*
X184385973Y-389532896D01*
X184385969Y-389532893D01*
X184059149Y-389314518D01*
X184059144Y-389314515D01*
X184059137Y-389314511D01*
X183712504Y-389129232D01*
X183712499Y-389129230D01*
X183349354Y-388978810D01*
X182973205Y-388864707D01*
X182973194Y-388864704D01*
X182587702Y-388788026D01*
X182293089Y-388759010D01*
X182196532Y-388749500D01*
X181803468Y-388749500D01*
X181714251Y-388758287D01*
X181412297Y-388788026D01*
X181026805Y-388864704D01*
X181026794Y-388864707D01*
X180650645Y-388978810D01*
X180287500Y-389129230D01*
X180287495Y-389129232D01*
X179940862Y-389314511D01*
X179940844Y-389314522D01*
X179614039Y-389532887D01*
X179614025Y-389532897D01*
X179310182Y-389782254D01*
X179032254Y-390060182D01*
X178782897Y-390364025D01*
X178782887Y-390364039D01*
X178564522Y-390690844D01*
X178564511Y-390690862D01*
X178379232Y-391037495D01*
X178379230Y-391037500D01*
X178228810Y-391400645D01*
X178114707Y-391776794D01*
X178114704Y-391776805D01*
X178038026Y-392162297D01*
X177999500Y-392553471D01*
X173498276Y-392553471D01*
X173464673Y-392212297D01*
X173387995Y-391826805D01*
X173387992Y-391826794D01*
X173387991Y-391826791D01*
X173387990Y-391826785D01*
X173273890Y-391450647D01*
X173123471Y-391087503D01*
X173096745Y-391037503D01*
X172938188Y-390740862D01*
X172938187Y-390740860D01*
X172938182Y-390740851D01*
X172719807Y-390414031D01*
X172470450Y-390110188D01*
X172470449Y-390110187D01*
X172470445Y-390110182D01*
X172192517Y-389832254D01*
X171888674Y-389582897D01*
X171888673Y-389582896D01*
X171888669Y-389582893D01*
X171561849Y-389364518D01*
X171561844Y-389364515D01*
X171561837Y-389364511D01*
X171215204Y-389179232D01*
X171215199Y-389179230D01*
X170852054Y-389028810D01*
X170475905Y-388914707D01*
X170475894Y-388914704D01*
X170090402Y-388838026D01*
X169795789Y-388809010D01*
X169699232Y-388799500D01*
X169306168Y-388799500D01*
X169216951Y-388808287D01*
X168914997Y-388838026D01*
X168529505Y-388914704D01*
X168529494Y-388914707D01*
X168153345Y-389028810D01*
X167790200Y-389179230D01*
X167790195Y-389179232D01*
X167443562Y-389364511D01*
X167443544Y-389364522D01*
X167116739Y-389582887D01*
X167116725Y-389582897D01*
X166812882Y-389832254D01*
X166534954Y-390110182D01*
X166285597Y-390414025D01*
X166285587Y-390414039D01*
X166067222Y-390740844D01*
X166067211Y-390740862D01*
X165881932Y-391087495D01*
X165881930Y-391087500D01*
X165731510Y-391450645D01*
X165617407Y-391826794D01*
X165617404Y-391826805D01*
X165540726Y-392212297D01*
X165502200Y-392603471D01*
X161003200Y-392603471D01*
X161003200Y-392603468D01*
X160964673Y-392212297D01*
X160887995Y-391826805D01*
X160887992Y-391826794D01*
X160887991Y-391826791D01*
X160887990Y-391826785D01*
X160773890Y-391450647D01*
X160623471Y-391087503D01*
X160596745Y-391037503D01*
X160438188Y-390740862D01*
X160438187Y-390740860D01*
X160438182Y-390740851D01*
X160219807Y-390414031D01*
X159970450Y-390110188D01*
X159970449Y-390110187D01*
X159970445Y-390110182D01*
X159692517Y-389832254D01*
X159388674Y-389582897D01*
X159388673Y-389582896D01*
X159388669Y-389582893D01*
X159061849Y-389364518D01*
X159061844Y-389364515D01*
X159061837Y-389364511D01*
X158715204Y-389179232D01*
X158715199Y-389179230D01*
X158352054Y-389028810D01*
X157975905Y-388914707D01*
X157975894Y-388914704D01*
X157590402Y-388838026D01*
X157295789Y-388809010D01*
X157199232Y-388799500D01*
X156806168Y-388799500D01*
X156716951Y-388808287D01*
X156414997Y-388838026D01*
X156029505Y-388914704D01*
X156029494Y-388914707D01*
X155653345Y-389028810D01*
X155290200Y-389179230D01*
X155290195Y-389179232D01*
X154943562Y-389364511D01*
X154943544Y-389364522D01*
X154616739Y-389582887D01*
X154616725Y-389582897D01*
X154312882Y-389832254D01*
X154034954Y-390110182D01*
X153785597Y-390414025D01*
X153785587Y-390414039D01*
X153567222Y-390740844D01*
X153567211Y-390740862D01*
X153381932Y-391087495D01*
X153381930Y-391087500D01*
X153231510Y-391450645D01*
X153117407Y-391826794D01*
X153117404Y-391826805D01*
X153040726Y-392212297D01*
X153002200Y-392603471D01*
X118450272Y-392603471D01*
X118385295Y-392276805D01*
X118385292Y-392276794D01*
X118385291Y-392276791D01*
X118385290Y-392276785D01*
X118271190Y-391900647D01*
X118120771Y-391537503D01*
X117935482Y-391190851D01*
X117717107Y-390864031D01*
X117467750Y-390560188D01*
X117467749Y-390560187D01*
X117467745Y-390560182D01*
X117189817Y-390282254D01*
X116885974Y-390032897D01*
X116885973Y-390032896D01*
X116885969Y-390032893D01*
X116559149Y-389814518D01*
X116559144Y-389814515D01*
X116559137Y-389814511D01*
X116212504Y-389629232D01*
X116212499Y-389629230D01*
X115849354Y-389478810D01*
X115473205Y-389364707D01*
X115473194Y-389364704D01*
X115087702Y-389288026D01*
X114793089Y-389259010D01*
X114696532Y-389249500D01*
X114303468Y-389249500D01*
X114214251Y-389258287D01*
X113912297Y-389288026D01*
X113526805Y-389364704D01*
X113526794Y-389364707D01*
X113150645Y-389478810D01*
X112787500Y-389629230D01*
X112787495Y-389629232D01*
X112440862Y-389814511D01*
X112440844Y-389814522D01*
X112114039Y-390032887D01*
X112114025Y-390032897D01*
X111810182Y-390282254D01*
X111532254Y-390560182D01*
X111282897Y-390864025D01*
X111282887Y-390864039D01*
X111064522Y-391190844D01*
X111064511Y-391190862D01*
X110879232Y-391537495D01*
X110879230Y-391537500D01*
X110728810Y-391900645D01*
X110614707Y-392276794D01*
X110614704Y-392276805D01*
X110538026Y-392662297D01*
X110499500Y-393053471D01*
X15000500Y-393053471D01*
X15000500Y-386103471D01*
X95499500Y-386103471D01*
X95499500Y-386496528D01*
X95538026Y-386887702D01*
X95614704Y-387273194D01*
X95614707Y-387273205D01*
X95719709Y-387619353D01*
X95728810Y-387649353D01*
X95866803Y-387982499D01*
X95879230Y-388012499D01*
X95879232Y-388012504D01*
X96064511Y-388359137D01*
X96064522Y-388359155D01*
X96282887Y-388685960D01*
X96282897Y-388685974D01*
X96532254Y-388989817D01*
X96810182Y-389267745D01*
X96810187Y-389267749D01*
X96810188Y-389267750D01*
X97114031Y-389517107D01*
X97440851Y-389735482D01*
X97440860Y-389735487D01*
X97440862Y-389735488D01*
X97787495Y-389920767D01*
X97787497Y-389920767D01*
X97787503Y-389920771D01*
X98150647Y-390071190D01*
X98526785Y-390185290D01*
X98526791Y-390185291D01*
X98526794Y-390185292D01*
X98526805Y-390185295D01*
X98912297Y-390261973D01*
X99303468Y-390300500D01*
X99303471Y-390300500D01*
X99696529Y-390300500D01*
X99696532Y-390300500D01*
X100087703Y-390261973D01*
X100162748Y-390247045D01*
X100473194Y-390185295D01*
X100473205Y-390185292D01*
X100473205Y-390185291D01*
X100473215Y-390185290D01*
X100849353Y-390071190D01*
X101212497Y-389920771D01*
X101559149Y-389735482D01*
X101885969Y-389517107D01*
X102189812Y-389267750D01*
X102467750Y-388989812D01*
X102717107Y-388685969D01*
X102935482Y-388359149D01*
X103120771Y-388012497D01*
X103271190Y-387649353D01*
X103385290Y-387273215D01*
X103385292Y-387273205D01*
X103385295Y-387273194D01*
X103461973Y-386887702D01*
X103500500Y-386496528D01*
X103500500Y-386103471D01*
X125502200Y-386103471D01*
X125502200Y-386496528D01*
X125540726Y-386887702D01*
X125617404Y-387273194D01*
X125617407Y-387273205D01*
X125722409Y-387619353D01*
X125731510Y-387649353D01*
X125869503Y-387982499D01*
X125881930Y-388012499D01*
X125881932Y-388012504D01*
X126067211Y-388359137D01*
X126067222Y-388359155D01*
X126285587Y-388685960D01*
X126285597Y-388685974D01*
X126534954Y-388989817D01*
X126812882Y-389267745D01*
X126812887Y-389267749D01*
X126812888Y-389267750D01*
X127116731Y-389517107D01*
X127443551Y-389735482D01*
X127443560Y-389735487D01*
X127443562Y-389735488D01*
X127790195Y-389920767D01*
X127790197Y-389920767D01*
X127790203Y-389920771D01*
X128153347Y-390071190D01*
X128529485Y-390185290D01*
X128529491Y-390185291D01*
X128529494Y-390185292D01*
X128529505Y-390185295D01*
X128914997Y-390261973D01*
X129306168Y-390300500D01*
X129306171Y-390300500D01*
X129699229Y-390300500D01*
X129699232Y-390300500D01*
X130090403Y-390261973D01*
X130165448Y-390247045D01*
X130475894Y-390185295D01*
X130475905Y-390185292D01*
X130475905Y-390185291D01*
X130475915Y-390185290D01*
X130852053Y-390071190D01*
X131215197Y-389920771D01*
X131561849Y-389735482D01*
X131888669Y-389517107D01*
X132192512Y-389267750D01*
X132470450Y-388989812D01*
X132719807Y-388685969D01*
X132938182Y-388359149D01*
X133123471Y-388012497D01*
X133273890Y-387649353D01*
X133387990Y-387273215D01*
X133387992Y-387273205D01*
X133387995Y-387273194D01*
X133464673Y-386887702D01*
X133503200Y-386496528D01*
X133503200Y-386103471D01*
X138002200Y-386103471D01*
X138002200Y-386496528D01*
X138040726Y-386887702D01*
X138117404Y-387273194D01*
X138117407Y-387273205D01*
X138222409Y-387619353D01*
X138231510Y-387649353D01*
X138369503Y-387982499D01*
X138381930Y-388012499D01*
X138381932Y-388012504D01*
X138567211Y-388359137D01*
X138567222Y-388359155D01*
X138785587Y-388685960D01*
X138785597Y-388685974D01*
X139034954Y-388989817D01*
X139312882Y-389267745D01*
X139312887Y-389267749D01*
X139312888Y-389267750D01*
X139616731Y-389517107D01*
X139943551Y-389735482D01*
X139943560Y-389735487D01*
X139943562Y-389735488D01*
X140290195Y-389920767D01*
X140290197Y-389920767D01*
X140290203Y-389920771D01*
X140653347Y-390071190D01*
X141029485Y-390185290D01*
X141029491Y-390185291D01*
X141029494Y-390185292D01*
X141029505Y-390185295D01*
X141414997Y-390261973D01*
X141806168Y-390300500D01*
X141806171Y-390300500D01*
X142199229Y-390300500D01*
X142199232Y-390300500D01*
X142590403Y-390261973D01*
X142665448Y-390247045D01*
X142975894Y-390185295D01*
X142975905Y-390185292D01*
X142975905Y-390185291D01*
X142975915Y-390185290D01*
X143352053Y-390071190D01*
X143715197Y-389920771D01*
X144061849Y-389735482D01*
X144388669Y-389517107D01*
X144692512Y-389267750D01*
X144970450Y-388989812D01*
X145219807Y-388685969D01*
X145438182Y-388359149D01*
X145623471Y-388012497D01*
X145773890Y-387649353D01*
X145887990Y-387273215D01*
X145887992Y-387273205D01*
X145887995Y-387273194D01*
X145964673Y-386887702D01*
X146003200Y-386496528D01*
X146003200Y-386103471D01*
X205502200Y-386103471D01*
X205502200Y-386496528D01*
X205540726Y-386887702D01*
X205617404Y-387273194D01*
X205617407Y-387273205D01*
X205722409Y-387619353D01*
X205731510Y-387649353D01*
X205869503Y-387982499D01*
X205881930Y-388012499D01*
X205881932Y-388012504D01*
X206067211Y-388359137D01*
X206067222Y-388359155D01*
X206285587Y-388685960D01*
X206285597Y-388685974D01*
X206534954Y-388989817D01*
X206812882Y-389267745D01*
X206812887Y-389267749D01*
X206812888Y-389267750D01*
X207116731Y-389517107D01*
X207443551Y-389735482D01*
X207443560Y-389735487D01*
X207443562Y-389735488D01*
X207790195Y-389920767D01*
X207790197Y-389920767D01*
X207790203Y-389920771D01*
X208153347Y-390071190D01*
X208529485Y-390185290D01*
X208529491Y-390185291D01*
X208529494Y-390185292D01*
X208529505Y-390185295D01*
X208914997Y-390261973D01*
X209306168Y-390300500D01*
X209306171Y-390300500D01*
X209699229Y-390300500D01*
X209699232Y-390300500D01*
X210090403Y-390261973D01*
X210165448Y-390247045D01*
X210475894Y-390185295D01*
X210475905Y-390185292D01*
X210475905Y-390185291D01*
X210475915Y-390185290D01*
X210852053Y-390071190D01*
X211215197Y-389920771D01*
X211561849Y-389735482D01*
X211888669Y-389517107D01*
X212192512Y-389267750D01*
X212470450Y-388989812D01*
X212719807Y-388685969D01*
X212938182Y-388359149D01*
X213123471Y-388012497D01*
X213273890Y-387649353D01*
X213387990Y-387273215D01*
X213387992Y-387273205D01*
X213387995Y-387273194D01*
X213464673Y-386887702D01*
X213503200Y-386496528D01*
X213503200Y-386103471D01*
X218002200Y-386103471D01*
X218002200Y-386496528D01*
X218040726Y-386887702D01*
X218117404Y-387273194D01*
X218117407Y-387273205D01*
X218222409Y-387619353D01*
X218231510Y-387649353D01*
X218369503Y-387982499D01*
X218381930Y-388012499D01*
X218381932Y-388012504D01*
X218567211Y-388359137D01*
X218567222Y-388359155D01*
X218785587Y-388685960D01*
X218785597Y-388685974D01*
X219034954Y-388989817D01*
X219312882Y-389267745D01*
X219312887Y-389267749D01*
X219312888Y-389267750D01*
X219616731Y-389517107D01*
X219943551Y-389735482D01*
X219943560Y-389735487D01*
X219943562Y-389735488D01*
X220290195Y-389920767D01*
X220290197Y-389920767D01*
X220290203Y-389920771D01*
X220653347Y-390071190D01*
X221029485Y-390185290D01*
X221029491Y-390185291D01*
X221029494Y-390185292D01*
X221029505Y-390185295D01*
X221414997Y-390261973D01*
X221806168Y-390300500D01*
X221806171Y-390300500D01*
X222199229Y-390300500D01*
X222199232Y-390300500D01*
X222590403Y-390261973D01*
X222665448Y-390247045D01*
X222975894Y-390185295D01*
X222975905Y-390185292D01*
X222975905Y-390185291D01*
X222975915Y-390185290D01*
X223352053Y-390071190D01*
X223715197Y-389920771D01*
X224061849Y-389735482D01*
X224388669Y-389517107D01*
X224692512Y-389267750D01*
X224970450Y-388989812D01*
X225219807Y-388685969D01*
X225438182Y-388359149D01*
X225623471Y-388012497D01*
X225773890Y-387649353D01*
X225887990Y-387273215D01*
X225887992Y-387273205D01*
X225887995Y-387273194D01*
X225964673Y-386887702D01*
X226003200Y-386496528D01*
X226003200Y-386103472D01*
X226003200Y-386103468D01*
X226000245Y-386073468D01*
X260502200Y-386073468D01*
X260502200Y-386466532D01*
X260505155Y-386496532D01*
X260540726Y-386857702D01*
X260617404Y-387243194D01*
X260617407Y-387243205D01*
X260731510Y-387619354D01*
X260881930Y-387982499D01*
X260881932Y-387982504D01*
X261067211Y-388329137D01*
X261067222Y-388329155D01*
X261285587Y-388655960D01*
X261285597Y-388655974D01*
X261534954Y-388959817D01*
X261812882Y-389237745D01*
X261812887Y-389237749D01*
X261812888Y-389237750D01*
X262116731Y-389487107D01*
X262443551Y-389705482D01*
X262443560Y-389705487D01*
X262443562Y-389705488D01*
X262790195Y-389890767D01*
X262790197Y-389890767D01*
X262790203Y-389890771D01*
X263153347Y-390041190D01*
X263529485Y-390155290D01*
X263529491Y-390155291D01*
X263529494Y-390155292D01*
X263529505Y-390155295D01*
X263914997Y-390231973D01*
X264306168Y-390270500D01*
X264306171Y-390270500D01*
X264699229Y-390270500D01*
X264699232Y-390270500D01*
X265090403Y-390231973D01*
X265165448Y-390217045D01*
X265475894Y-390155295D01*
X265475905Y-390155292D01*
X265475905Y-390155291D01*
X265475915Y-390155290D01*
X265852053Y-390041190D01*
X266215197Y-389890771D01*
X266561849Y-389705482D01*
X266888669Y-389487107D01*
X267192512Y-389237750D01*
X267470450Y-388959812D01*
X267719807Y-388655969D01*
X267938182Y-388329149D01*
X268123471Y-387982497D01*
X268273890Y-387619353D01*
X268387990Y-387243215D01*
X268387992Y-387243205D01*
X268387995Y-387243194D01*
X268464673Y-386857702D01*
X268500245Y-386496532D01*
X268503200Y-386466532D01*
X268503200Y-386073468D01*
X268464673Y-385682297D01*
X268387995Y-385296805D01*
X268387992Y-385296794D01*
X268387991Y-385296791D01*
X268387990Y-385296785D01*
X268273890Y-384920647D01*
X268123471Y-384557503D01*
X267938182Y-384210851D01*
X267719807Y-383884031D01*
X267470450Y-383580188D01*
X267470449Y-383580187D01*
X267470445Y-383580182D01*
X267192517Y-383302254D01*
X266888674Y-383052897D01*
X266888673Y-383052896D01*
X266888669Y-383052893D01*
X266561849Y-382834518D01*
X266561844Y-382834515D01*
X266561837Y-382834511D01*
X266215204Y-382649232D01*
X266215199Y-382649230D01*
X265852054Y-382498810D01*
X265475905Y-382384707D01*
X265475894Y-382384704D01*
X265090402Y-382308026D01*
X264795789Y-382279010D01*
X264699232Y-382269500D01*
X264306168Y-382269500D01*
X264216951Y-382278287D01*
X263914997Y-382308026D01*
X263529505Y-382384704D01*
X263529494Y-382384707D01*
X263153345Y-382498810D01*
X262790200Y-382649230D01*
X262790195Y-382649232D01*
X262443562Y-382834511D01*
X262443544Y-382834522D01*
X262116739Y-383052887D01*
X262116725Y-383052897D01*
X261812882Y-383302254D01*
X261534954Y-383580182D01*
X261285597Y-383884025D01*
X261285587Y-383884039D01*
X261067222Y-384210844D01*
X261067211Y-384210862D01*
X260881932Y-384557495D01*
X260881930Y-384557500D01*
X260731510Y-384920645D01*
X260617407Y-385296794D01*
X260617404Y-385296805D01*
X260540726Y-385682297D01*
X260510987Y-385984251D01*
X260502200Y-386073468D01*
X226000245Y-386073468D01*
X225964673Y-385712297D01*
X225958706Y-385682297D01*
X225887995Y-385326805D01*
X225887992Y-385326794D01*
X225887991Y-385326791D01*
X225887990Y-385326785D01*
X225773890Y-384950647D01*
X225623471Y-384587503D01*
X225607431Y-384557495D01*
X225438188Y-384240862D01*
X225438187Y-384240860D01*
X225438182Y-384240851D01*
X225219807Y-383914031D01*
X224970450Y-383610188D01*
X224970449Y-383610187D01*
X224970445Y-383610182D01*
X224692517Y-383332254D01*
X224388674Y-383082897D01*
X224388673Y-383082896D01*
X224388669Y-383082893D01*
X224061849Y-382864518D01*
X224061844Y-382864515D01*
X224061837Y-382864511D01*
X223715204Y-382679232D01*
X223715199Y-382679230D01*
X223642770Y-382649229D01*
X223608835Y-382635172D01*
X223352054Y-382528810D01*
X222975905Y-382414707D01*
X222975894Y-382414704D01*
X222590402Y-382338026D01*
X222285798Y-382308026D01*
X222199232Y-382299500D01*
X221806168Y-382299500D01*
X221719602Y-382308026D01*
X221414997Y-382338026D01*
X221029505Y-382414704D01*
X221029494Y-382414707D01*
X220653345Y-382528810D01*
X220290200Y-382679230D01*
X220290195Y-382679232D01*
X219943562Y-382864511D01*
X219943544Y-382864522D01*
X219616739Y-383082887D01*
X219616725Y-383082897D01*
X219312882Y-383332254D01*
X219034954Y-383610182D01*
X218785597Y-383914025D01*
X218785587Y-383914039D01*
X218567222Y-384240844D01*
X218567211Y-384240862D01*
X218381932Y-384587495D01*
X218381930Y-384587500D01*
X218231510Y-384950645D01*
X218117407Y-385326794D01*
X218117404Y-385326805D01*
X218040726Y-385712297D01*
X218010987Y-386014251D01*
X218004258Y-386082579D01*
X218002200Y-386103471D01*
X213503200Y-386103471D01*
X213501142Y-386082579D01*
X213464673Y-385712297D01*
X213458706Y-385682297D01*
X213387995Y-385326805D01*
X213387992Y-385326794D01*
X213387991Y-385326791D01*
X213387990Y-385326785D01*
X213273890Y-384950647D01*
X213123471Y-384587503D01*
X213107431Y-384557495D01*
X212938188Y-384240862D01*
X212938187Y-384240860D01*
X212938182Y-384240851D01*
X212719807Y-383914031D01*
X212470450Y-383610188D01*
X212470449Y-383610187D01*
X212470445Y-383610182D01*
X212192517Y-383332254D01*
X211888674Y-383082897D01*
X211888673Y-383082896D01*
X211888669Y-383082893D01*
X211561849Y-382864518D01*
X211561844Y-382864515D01*
X211561837Y-382864511D01*
X211215204Y-382679232D01*
X211215199Y-382679230D01*
X211142770Y-382649229D01*
X211108835Y-382635172D01*
X210852054Y-382528810D01*
X210475905Y-382414707D01*
X210475894Y-382414704D01*
X210090402Y-382338026D01*
X209785798Y-382308026D01*
X209699232Y-382299500D01*
X209306168Y-382299500D01*
X209219602Y-382308026D01*
X208914997Y-382338026D01*
X208529505Y-382414704D01*
X208529494Y-382414707D01*
X208153345Y-382528810D01*
X207790200Y-382679230D01*
X207790195Y-382679232D01*
X207443562Y-382864511D01*
X207443544Y-382864522D01*
X207116739Y-383082887D01*
X207116725Y-383082897D01*
X206812882Y-383332254D01*
X206534954Y-383610182D01*
X206285597Y-383914025D01*
X206285587Y-383914039D01*
X206067222Y-384240844D01*
X206067211Y-384240862D01*
X205881932Y-384587495D01*
X205881930Y-384587500D01*
X205731510Y-384950645D01*
X205617407Y-385326794D01*
X205617404Y-385326805D01*
X205540726Y-385712297D01*
X205510987Y-386014251D01*
X205504258Y-386082579D01*
X205502200Y-386103471D01*
X146003200Y-386103471D01*
X146001142Y-386082579D01*
X145964673Y-385712297D01*
X145958706Y-385682297D01*
X145887995Y-385326805D01*
X145887992Y-385326794D01*
X145887991Y-385326791D01*
X145887990Y-385326785D01*
X145773890Y-384950647D01*
X145623471Y-384587503D01*
X145607431Y-384557495D01*
X145438188Y-384240862D01*
X145438187Y-384240860D01*
X145438182Y-384240851D01*
X145219807Y-383914031D01*
X144970450Y-383610188D01*
X144970449Y-383610187D01*
X144970445Y-383610182D01*
X144692517Y-383332254D01*
X144388674Y-383082897D01*
X144388673Y-383082896D01*
X144388669Y-383082893D01*
X144061849Y-382864518D01*
X144061844Y-382864515D01*
X144061837Y-382864511D01*
X143715204Y-382679232D01*
X143715199Y-382679230D01*
X143642770Y-382649229D01*
X143608835Y-382635172D01*
X143352054Y-382528810D01*
X142975905Y-382414707D01*
X142975894Y-382414704D01*
X142590402Y-382338026D01*
X142285798Y-382308026D01*
X142199232Y-382299500D01*
X141806168Y-382299500D01*
X141719602Y-382308026D01*
X141414997Y-382338026D01*
X141029505Y-382414704D01*
X141029494Y-382414707D01*
X140653345Y-382528810D01*
X140290200Y-382679230D01*
X140290195Y-382679232D01*
X139943562Y-382864511D01*
X139943544Y-382864522D01*
X139616739Y-383082887D01*
X139616725Y-383082897D01*
X139312882Y-383332254D01*
X139034954Y-383610182D01*
X138785597Y-383914025D01*
X138785587Y-383914039D01*
X138567222Y-384240844D01*
X138567211Y-384240862D01*
X138381932Y-384587495D01*
X138381930Y-384587500D01*
X138231510Y-384950645D01*
X138117407Y-385326794D01*
X138117404Y-385326805D01*
X138040726Y-385712297D01*
X138010987Y-386014251D01*
X138004258Y-386082579D01*
X138002200Y-386103471D01*
X133503200Y-386103471D01*
X133501142Y-386082579D01*
X133464673Y-385712297D01*
X133458706Y-385682297D01*
X133387995Y-385326805D01*
X133387992Y-385326794D01*
X133387991Y-385326791D01*
X133387990Y-385326785D01*
X133273890Y-384950647D01*
X133123471Y-384587503D01*
X133107431Y-384557495D01*
X132938188Y-384240862D01*
X132938187Y-384240860D01*
X132938182Y-384240851D01*
X132719807Y-383914031D01*
X132470450Y-383610188D01*
X132470449Y-383610187D01*
X132470445Y-383610182D01*
X132192517Y-383332254D01*
X131888674Y-383082897D01*
X131888673Y-383082896D01*
X131888669Y-383082893D01*
X131561849Y-382864518D01*
X131561844Y-382864515D01*
X131561837Y-382864511D01*
X131215204Y-382679232D01*
X131215199Y-382679230D01*
X131142770Y-382649229D01*
X131108835Y-382635172D01*
X130852054Y-382528810D01*
X130475905Y-382414707D01*
X130475894Y-382414704D01*
X130090402Y-382338026D01*
X129785798Y-382308026D01*
X129699232Y-382299500D01*
X129306168Y-382299500D01*
X129219602Y-382308026D01*
X128914997Y-382338026D01*
X128529505Y-382414704D01*
X128529494Y-382414707D01*
X128153345Y-382528810D01*
X127790200Y-382679230D01*
X127790195Y-382679232D01*
X127443562Y-382864511D01*
X127443544Y-382864522D01*
X127116739Y-383082887D01*
X127116725Y-383082897D01*
X126812882Y-383332254D01*
X126534954Y-383610182D01*
X126285597Y-383914025D01*
X126285587Y-383914039D01*
X126067222Y-384240844D01*
X126067211Y-384240862D01*
X125881932Y-384587495D01*
X125881930Y-384587500D01*
X125731510Y-384950645D01*
X125617407Y-385326794D01*
X125617404Y-385326805D01*
X125540726Y-385712297D01*
X125510987Y-386014251D01*
X125504258Y-386082579D01*
X125502200Y-386103471D01*
X103500500Y-386103471D01*
X103498442Y-386082579D01*
X103461973Y-385712297D01*
X103456006Y-385682297D01*
X103385295Y-385326805D01*
X103385292Y-385326794D01*
X103385291Y-385326791D01*
X103385290Y-385326785D01*
X103271190Y-384950647D01*
X103120771Y-384587503D01*
X103104731Y-384557495D01*
X102935488Y-384240862D01*
X102935487Y-384240860D01*
X102935482Y-384240851D01*
X102717107Y-383914031D01*
X102467750Y-383610188D01*
X102467749Y-383610187D01*
X102467745Y-383610182D01*
X102189817Y-383332254D01*
X101885974Y-383082897D01*
X101885973Y-383082896D01*
X101885969Y-383082893D01*
X101559149Y-382864518D01*
X101559144Y-382864515D01*
X101559137Y-382864511D01*
X101212504Y-382679232D01*
X101212499Y-382679230D01*
X101140070Y-382649229D01*
X101106135Y-382635172D01*
X100849354Y-382528810D01*
X100473205Y-382414707D01*
X100473194Y-382414704D01*
X100087702Y-382338026D01*
X99783098Y-382308026D01*
X99696532Y-382299500D01*
X99303468Y-382299500D01*
X99216902Y-382308026D01*
X98912297Y-382338026D01*
X98526805Y-382414704D01*
X98526794Y-382414707D01*
X98150645Y-382528810D01*
X97787500Y-382679230D01*
X97787495Y-382679232D01*
X97440862Y-382864511D01*
X97440844Y-382864522D01*
X97114039Y-383082887D01*
X97114025Y-383082897D01*
X96810182Y-383332254D01*
X96532254Y-383610182D01*
X96282897Y-383914025D01*
X96282887Y-383914039D01*
X96064522Y-384240844D01*
X96064511Y-384240862D01*
X95879232Y-384587495D01*
X95879230Y-384587500D01*
X95728810Y-384950645D01*
X95614707Y-385326794D01*
X95614704Y-385326805D01*
X95538026Y-385712297D01*
X95508287Y-386014251D01*
X95501558Y-386082579D01*
X95499500Y-386103471D01*
X15000500Y-386103471D01*
X15000500Y-327509041D01*
X136599500Y-327509041D01*
X136599500Y-349490958D01*
X136636295Y-349770439D01*
X136709259Y-350042743D01*
X136817135Y-350303179D01*
X136817140Y-350303190D01*
X136958083Y-350547309D01*
X136958088Y-350547317D01*
X137129700Y-350770965D01*
X137129704Y-350770970D01*
X137329029Y-350970295D01*
X137329033Y-350970298D01*
X137329035Y-350970300D01*
X137552683Y-351141912D01*
X137552690Y-351141916D01*
X137796809Y-351282859D01*
X137796814Y-351282861D01*
X137796817Y-351282863D01*
X138057261Y-351390742D01*
X138329558Y-351463704D01*
X138609049Y-351500500D01*
X138609056Y-351500500D01*
X138890944Y-351500500D01*
X138890951Y-351500500D01*
X139170442Y-351463704D01*
X139442739Y-351390742D01*
X139703183Y-351282863D01*
X139947317Y-351141912D01*
X140170965Y-350970300D01*
X140370300Y-350770965D01*
X140541912Y-350547317D01*
X140682863Y-350303183D01*
X140790742Y-350042739D01*
X140863704Y-349770442D01*
X140900500Y-349490951D01*
X140900500Y-327509049D01*
X140900499Y-327509041D01*
X149099500Y-327509041D01*
X149099500Y-349490958D01*
X149136295Y-349770439D01*
X149209259Y-350042743D01*
X149317135Y-350303179D01*
X149317140Y-350303190D01*
X149458083Y-350547309D01*
X149458088Y-350547317D01*
X149629700Y-350770965D01*
X149629704Y-350770970D01*
X149829029Y-350970295D01*
X149829033Y-350970298D01*
X149829035Y-350970300D01*
X150052683Y-351141912D01*
X150052690Y-351141916D01*
X150296809Y-351282859D01*
X150296814Y-351282861D01*
X150296817Y-351282863D01*
X150557261Y-351390742D01*
X150829558Y-351463704D01*
X151109049Y-351500500D01*
X151109056Y-351500500D01*
X151390944Y-351500500D01*
X151390951Y-351500500D01*
X151670442Y-351463704D01*
X151942739Y-351390742D01*
X152203183Y-351282863D01*
X152447317Y-351141912D01*
X152670965Y-350970300D01*
X152870300Y-350770965D01*
X153041912Y-350547317D01*
X153182863Y-350303183D01*
X153290742Y-350042739D01*
X153363704Y-349770442D01*
X153400500Y-349490951D01*
X153400500Y-327509049D01*
X153400499Y-327509041D01*
X161599500Y-327509041D01*
X161599500Y-349490958D01*
X161636295Y-349770439D01*
X161709259Y-350042743D01*
X161817135Y-350303179D01*
X161817140Y-350303190D01*
X161958083Y-350547309D01*
X161958088Y-350547317D01*
X162129700Y-350770965D01*
X162129704Y-350770970D01*
X162329029Y-350970295D01*
X162329033Y-350970298D01*
X162329035Y-350970300D01*
X162552683Y-351141912D01*
X162552690Y-351141916D01*
X162796809Y-351282859D01*
X162796814Y-351282861D01*
X162796817Y-351282863D01*
X163057261Y-351390742D01*
X163329558Y-351463704D01*
X163609049Y-351500500D01*
X163609056Y-351500500D01*
X163890944Y-351500500D01*
X163890951Y-351500500D01*
X164170442Y-351463704D01*
X164442739Y-351390742D01*
X164703183Y-351282863D01*
X164947317Y-351141912D01*
X165170965Y-350970300D01*
X165370300Y-350770965D01*
X165541912Y-350547317D01*
X165682863Y-350303183D01*
X165790742Y-350042739D01*
X165863704Y-349770442D01*
X165900500Y-349490951D01*
X165900500Y-327509049D01*
X165900499Y-327509041D01*
X174099500Y-327509041D01*
X174099500Y-349490958D01*
X174136295Y-349770439D01*
X174209259Y-350042743D01*
X174317135Y-350303179D01*
X174317140Y-350303190D01*
X174458083Y-350547309D01*
X174458088Y-350547317D01*
X174629700Y-350770965D01*
X174629704Y-350770970D01*
X174829029Y-350970295D01*
X174829033Y-350970298D01*
X174829035Y-350970300D01*
X175052683Y-351141912D01*
X175052690Y-351141916D01*
X175296809Y-351282859D01*
X175296814Y-351282861D01*
X175296817Y-351282863D01*
X175557261Y-351390742D01*
X175829558Y-351463704D01*
X176109049Y-351500500D01*
X176109056Y-351500500D01*
X176390944Y-351500500D01*
X176390951Y-351500500D01*
X176670442Y-351463704D01*
X176942739Y-351390742D01*
X177203183Y-351282863D01*
X177447317Y-351141912D01*
X177670965Y-350970300D01*
X177870300Y-350770965D01*
X178041912Y-350547317D01*
X178182863Y-350303183D01*
X178290742Y-350042739D01*
X178363704Y-349770442D01*
X178400500Y-349490951D01*
X178400500Y-327509049D01*
X178400499Y-327509041D01*
X206599500Y-327509041D01*
X206599500Y-349490958D01*
X206636295Y-349770439D01*
X206709259Y-350042743D01*
X206817135Y-350303179D01*
X206817140Y-350303190D01*
X206958083Y-350547309D01*
X206958088Y-350547317D01*
X207129700Y-350770965D01*
X207129704Y-350770970D01*
X207329029Y-350970295D01*
X207329033Y-350970298D01*
X207329035Y-350970300D01*
X207552683Y-351141912D01*
X207552690Y-351141916D01*
X207796809Y-351282859D01*
X207796814Y-351282861D01*
X207796817Y-351282863D01*
X208057261Y-351390742D01*
X208329558Y-351463704D01*
X208609049Y-351500500D01*
X208609056Y-351500500D01*
X208890944Y-351500500D01*
X208890951Y-351500500D01*
X209170442Y-351463704D01*
X209442739Y-351390742D01*
X209703183Y-351282863D01*
X209947317Y-351141912D01*
X210170965Y-350970300D01*
X210370300Y-350770965D01*
X210541912Y-350547317D01*
X210682863Y-350303183D01*
X210790742Y-350042739D01*
X210863704Y-349770442D01*
X210900500Y-349490951D01*
X210900500Y-327509049D01*
X210900499Y-327509041D01*
X219099500Y-327509041D01*
X219099500Y-349490958D01*
X219136295Y-349770439D01*
X219209259Y-350042743D01*
X219317135Y-350303179D01*
X219317140Y-350303190D01*
X219458083Y-350547309D01*
X219458088Y-350547317D01*
X219629700Y-350770965D01*
X219629704Y-350770970D01*
X219829029Y-350970295D01*
X219829033Y-350970298D01*
X219829035Y-350970300D01*
X220052683Y-351141912D01*
X220052690Y-351141916D01*
X220296809Y-351282859D01*
X220296814Y-351282861D01*
X220296817Y-351282863D01*
X220557261Y-351390742D01*
X220829558Y-351463704D01*
X221109049Y-351500500D01*
X221109056Y-351500500D01*
X221390944Y-351500500D01*
X221390951Y-351500500D01*
X221670442Y-351463704D01*
X221942739Y-351390742D01*
X222203183Y-351282863D01*
X222447317Y-351141912D01*
X222670965Y-350970300D01*
X222870300Y-350770965D01*
X223041912Y-350547317D01*
X223182863Y-350303183D01*
X223290742Y-350042739D01*
X223363704Y-349770442D01*
X223400500Y-349490951D01*
X223400500Y-327509049D01*
X223400499Y-327509041D01*
X231599500Y-327509041D01*
X231599500Y-349490958D01*
X231636295Y-349770439D01*
X231709259Y-350042743D01*
X231817135Y-350303179D01*
X231817140Y-350303190D01*
X231958083Y-350547309D01*
X231958088Y-350547317D01*
X232129700Y-350770965D01*
X232129704Y-350770970D01*
X232329029Y-350970295D01*
X232329033Y-350970298D01*
X232329035Y-350970300D01*
X232552683Y-351141912D01*
X232552690Y-351141916D01*
X232796809Y-351282859D01*
X232796814Y-351282861D01*
X232796817Y-351282863D01*
X233057261Y-351390742D01*
X233329558Y-351463704D01*
X233609049Y-351500500D01*
X233609056Y-351500500D01*
X233890944Y-351500500D01*
X233890951Y-351500500D01*
X234170442Y-351463704D01*
X234442739Y-351390742D01*
X234703183Y-351282863D01*
X234947317Y-351141912D01*
X235170965Y-350970300D01*
X235370300Y-350770965D01*
X235541912Y-350547317D01*
X235682863Y-350303183D01*
X235790742Y-350042739D01*
X235863704Y-349770442D01*
X235900500Y-349490951D01*
X235900500Y-327509049D01*
X235900499Y-327509041D01*
X244099500Y-327509041D01*
X244099500Y-349490958D01*
X244136295Y-349770439D01*
X244209259Y-350042743D01*
X244317135Y-350303179D01*
X244317140Y-350303190D01*
X244458083Y-350547309D01*
X244458088Y-350547317D01*
X244629700Y-350770965D01*
X244629704Y-350770970D01*
X244829029Y-350970295D01*
X244829033Y-350970298D01*
X244829035Y-350970300D01*
X245052683Y-351141912D01*
X245052690Y-351141916D01*
X245296809Y-351282859D01*
X245296814Y-351282861D01*
X245296817Y-351282863D01*
X245557261Y-351390742D01*
X245829558Y-351463704D01*
X246109049Y-351500500D01*
X246109056Y-351500500D01*
X246390944Y-351500500D01*
X246390951Y-351500500D01*
X246670442Y-351463704D01*
X246942739Y-351390742D01*
X247203183Y-351282863D01*
X247447317Y-351141912D01*
X247670965Y-350970300D01*
X247870300Y-350770965D01*
X248041912Y-350547317D01*
X248182863Y-350303183D01*
X248290742Y-350042739D01*
X248363704Y-349770442D01*
X248400500Y-349490951D01*
X248400500Y-342819752D01*
X268646800Y-342819752D01*
X268646800Y-343111847D01*
X268679499Y-343402071D01*
X268679502Y-343402085D01*
X268744496Y-343686844D01*
X268744497Y-343686846D01*
X268840965Y-343962538D01*
X268967693Y-344225690D01*
X268967695Y-344225693D01*
X269123092Y-344473006D01*
X269305202Y-344701365D01*
X269511735Y-344907898D01*
X269740094Y-345090008D01*
X269987407Y-345245405D01*
X270250563Y-345372135D01*
X270526255Y-345468603D01*
X270811014Y-345533598D01*
X270811023Y-345533599D01*
X270811028Y-345533600D01*
X271004510Y-345555399D01*
X271101253Y-345566299D01*
X271101256Y-345566300D01*
X271101259Y-345566300D01*
X271393344Y-345566300D01*
X271393345Y-345566299D01*
X271541671Y-345549587D01*
X271683571Y-345533600D01*
X271683574Y-345533599D01*
X271683586Y-345533598D01*
X271968345Y-345468603D01*
X272244037Y-345372135D01*
X272507193Y-345245405D01*
X272754506Y-345090008D01*
X272982865Y-344907898D01*
X273189398Y-344701365D01*
X273371508Y-344473006D01*
X273526905Y-344225693D01*
X273653635Y-343962537D01*
X273750103Y-343686845D01*
X273815098Y-343402086D01*
X273847800Y-343111841D01*
X273847800Y-342819759D01*
X273847799Y-342819752D01*
X301146800Y-342819752D01*
X301146800Y-343111847D01*
X301179499Y-343402071D01*
X301179502Y-343402085D01*
X301244496Y-343686844D01*
X301244497Y-343686846D01*
X301340965Y-343962538D01*
X301467693Y-344225690D01*
X301467695Y-344225693D01*
X301623092Y-344473006D01*
X301805202Y-344701365D01*
X302011735Y-344907898D01*
X302240094Y-345090008D01*
X302487407Y-345245405D01*
X302750563Y-345372135D01*
X303026255Y-345468603D01*
X303311014Y-345533598D01*
X303311023Y-345533599D01*
X303311028Y-345533600D01*
X303504510Y-345555399D01*
X303601253Y-345566299D01*
X303601256Y-345566300D01*
X303601259Y-345566300D01*
X303893344Y-345566300D01*
X303893345Y-345566299D01*
X304041671Y-345549587D01*
X304183571Y-345533600D01*
X304183574Y-345533599D01*
X304183586Y-345533598D01*
X304468345Y-345468603D01*
X304744037Y-345372135D01*
X305007193Y-345245405D01*
X305254506Y-345090008D01*
X305482865Y-344907898D01*
X305689398Y-344701365D01*
X305871508Y-344473006D01*
X306026905Y-344225693D01*
X306153635Y-343962537D01*
X306250103Y-343686845D01*
X306315098Y-343402086D01*
X306347800Y-343111841D01*
X306347800Y-342819759D01*
X306315098Y-342529514D01*
X306250103Y-342244755D01*
X306153635Y-341969063D01*
X306026905Y-341705907D01*
X305871508Y-341458594D01*
X305689398Y-341230235D01*
X305482865Y-341023702D01*
X305254506Y-340841592D01*
X305083698Y-340734266D01*
X305007190Y-340686193D01*
X304744038Y-340559465D01*
X304468346Y-340462997D01*
X304468344Y-340462996D01*
X304248580Y-340412836D01*
X304183586Y-340398002D01*
X304183583Y-340398001D01*
X304183571Y-340397999D01*
X303893347Y-340365300D01*
X303893341Y-340365300D01*
X303601259Y-340365300D01*
X303601252Y-340365300D01*
X303311028Y-340397999D01*
X303311014Y-340398002D01*
X303026255Y-340462996D01*
X303026253Y-340462997D01*
X302750561Y-340559465D01*
X302487409Y-340686193D01*
X302240095Y-340841591D01*
X302011735Y-341023701D01*
X301805201Y-341230235D01*
X301623091Y-341458595D01*
X301467693Y-341705909D01*
X301340965Y-341969061D01*
X301244497Y-342244753D01*
X301244496Y-342244755D01*
X301179502Y-342529514D01*
X301179499Y-342529528D01*
X301146800Y-342819752D01*
X273847799Y-342819752D01*
X273815098Y-342529514D01*
X273750103Y-342244755D01*
X273653635Y-341969063D01*
X273526905Y-341705907D01*
X273371508Y-341458594D01*
X273189398Y-341230235D01*
X272982865Y-341023702D01*
X272754506Y-340841592D01*
X272583698Y-340734266D01*
X272507190Y-340686193D01*
X272244038Y-340559465D01*
X271968346Y-340462997D01*
X271968344Y-340462996D01*
X271748580Y-340412836D01*
X271683586Y-340398002D01*
X271683583Y-340398001D01*
X271683571Y-340397999D01*
X271393347Y-340365300D01*
X271393341Y-340365300D01*
X271101259Y-340365300D01*
X271101252Y-340365300D01*
X270811028Y-340397999D01*
X270811014Y-340398002D01*
X270526255Y-340462996D01*
X270526253Y-340462997D01*
X270250561Y-340559465D01*
X269987409Y-340686193D01*
X269740095Y-340841591D01*
X269511735Y-341023701D01*
X269305201Y-341230235D01*
X269123091Y-341458595D01*
X268967693Y-341705909D01*
X268840965Y-341969061D01*
X268744497Y-342244753D01*
X268744496Y-342244755D01*
X268679502Y-342529514D01*
X268679499Y-342529528D01*
X268646800Y-342819752D01*
X248400500Y-342819752D01*
X248400500Y-337769299D01*
X319246800Y-337769299D01*
X319246800Y-338162300D01*
X319281051Y-338553795D01*
X319281051Y-338553799D01*
X319349291Y-338940805D01*
X319349293Y-338940815D01*
X319451007Y-339320416D01*
X319451008Y-339320418D01*
X319451008Y-339320419D01*
X319585424Y-339689721D01*
X319751495Y-340045862D01*
X319751507Y-340045886D01*
X319947995Y-340386212D01*
X319948004Y-340386227D01*
X320173415Y-340708147D01*
X320366093Y-340937771D01*
X320426022Y-341009191D01*
X320703909Y-341287078D01*
X320811038Y-341376970D01*
X321004952Y-341539684D01*
X321004958Y-341539688D01*
X321004959Y-341539689D01*
X321326879Y-341765100D01*
X321667220Y-341961596D01*
X321667234Y-341961602D01*
X321667237Y-341961604D01*
X322023378Y-342127675D01*
X322023383Y-342127676D01*
X322023392Y-342127681D01*
X322392684Y-342262093D01*
X322772285Y-342363807D01*
X323159307Y-342432049D01*
X323550802Y-342466299D01*
X323550803Y-342466300D01*
X323550804Y-342466300D01*
X323943797Y-342466300D01*
X323943797Y-342466299D01*
X324335293Y-342432049D01*
X324722315Y-342363807D01*
X325101916Y-342262093D01*
X325471208Y-342127681D01*
X325827380Y-341961596D01*
X326167721Y-341765100D01*
X326489641Y-341539689D01*
X326790691Y-341287078D01*
X327068578Y-341009191D01*
X327321189Y-340708141D01*
X327546600Y-340386221D01*
X327743096Y-340045880D01*
X327909181Y-339689708D01*
X328043593Y-339320416D01*
X328145307Y-338940815D01*
X328213549Y-338553793D01*
X328247800Y-338162296D01*
X328247800Y-337769304D01*
X328213549Y-337377807D01*
X328145307Y-336990785D01*
X328043593Y-336611184D01*
X327909181Y-336241892D01*
X327909176Y-336241883D01*
X327909175Y-336241878D01*
X327743104Y-335885737D01*
X327743092Y-335885713D01*
X327730755Y-335864346D01*
X327546600Y-335545379D01*
X327321189Y-335223459D01*
X327321188Y-335223458D01*
X327321184Y-335223452D01*
X327068575Y-334922406D01*
X326790693Y-334644524D01*
X326489647Y-334391915D01*
X326167727Y-334166504D01*
X326167724Y-334166502D01*
X326167721Y-334166500D01*
X326066605Y-334108120D01*
X325827386Y-333970007D01*
X325827362Y-333969995D01*
X325471221Y-333803924D01*
X325471210Y-333803920D01*
X325471208Y-333803919D01*
X325101916Y-333669507D01*
X324861260Y-333605023D01*
X324722316Y-333567793D01*
X324722305Y-333567791D01*
X324335297Y-333499551D01*
X323943800Y-333465300D01*
X323943796Y-333465300D01*
X323550804Y-333465300D01*
X323550799Y-333465300D01*
X323159304Y-333499551D01*
X323159300Y-333499551D01*
X322772294Y-333567791D01*
X322772283Y-333567793D01*
X322568855Y-333622302D01*
X322392684Y-333669507D01*
X322392681Y-333669508D01*
X322392680Y-333669508D01*
X322023378Y-333803924D01*
X321667237Y-333969995D01*
X321667213Y-333970007D01*
X321326887Y-334166495D01*
X321326872Y-334166504D01*
X321004952Y-334391915D01*
X320703906Y-334644524D01*
X320426024Y-334922406D01*
X320173415Y-335223452D01*
X319948004Y-335545372D01*
X319947995Y-335545387D01*
X319751507Y-335885713D01*
X319751495Y-335885737D01*
X319585424Y-336241878D01*
X319451008Y-336611180D01*
X319451008Y-336611182D01*
X319349293Y-336990783D01*
X319349291Y-336990794D01*
X319281051Y-337377800D01*
X319281051Y-337377804D01*
X319246800Y-337769299D01*
X248400500Y-337769299D01*
X248400500Y-327509049D01*
X248363704Y-327229558D01*
X248290742Y-326957261D01*
X248182863Y-326696817D01*
X248182861Y-326696814D01*
X248182859Y-326696809D01*
X248041916Y-326452690D01*
X248041912Y-326452683D01*
X247870300Y-326229035D01*
X247870298Y-326229033D01*
X247870295Y-326229029D01*
X247670970Y-326029704D01*
X247670965Y-326029700D01*
X247447317Y-325858088D01*
X247447311Y-325858084D01*
X247447309Y-325858083D01*
X247203190Y-325717140D01*
X247203179Y-325717135D01*
X246942743Y-325609259D01*
X246670439Y-325536295D01*
X246390958Y-325499500D01*
X246390951Y-325499500D01*
X246109049Y-325499500D01*
X246109041Y-325499500D01*
X245829560Y-325536295D01*
X245557256Y-325609259D01*
X245296820Y-325717135D01*
X245296809Y-325717140D01*
X245052690Y-325858083D01*
X245052682Y-325858089D01*
X244829029Y-326029704D01*
X244629704Y-326229029D01*
X244458089Y-326452682D01*
X244458083Y-326452690D01*
X244317140Y-326696809D01*
X244317135Y-326696820D01*
X244209259Y-326957256D01*
X244136295Y-327229560D01*
X244099500Y-327509041D01*
X235900499Y-327509041D01*
X235863704Y-327229558D01*
X235790742Y-326957261D01*
X235682863Y-326696817D01*
X235682861Y-326696814D01*
X235682859Y-326696809D01*
X235541916Y-326452690D01*
X235541912Y-326452683D01*
X235370300Y-326229035D01*
X235370298Y-326229033D01*
X235370295Y-326229029D01*
X235170970Y-326029704D01*
X235170965Y-326029700D01*
X234947317Y-325858088D01*
X234947311Y-325858084D01*
X234947309Y-325858083D01*
X234703190Y-325717140D01*
X234703179Y-325717135D01*
X234442743Y-325609259D01*
X234170439Y-325536295D01*
X233890958Y-325499500D01*
X233890951Y-325499500D01*
X233609049Y-325499500D01*
X233609041Y-325499500D01*
X233329560Y-325536295D01*
X233057256Y-325609259D01*
X232796820Y-325717135D01*
X232796809Y-325717140D01*
X232552690Y-325858083D01*
X232552682Y-325858089D01*
X232329029Y-326029704D01*
X232129704Y-326229029D01*
X231958089Y-326452682D01*
X231958083Y-326452690D01*
X231817140Y-326696809D01*
X231817135Y-326696820D01*
X231709259Y-326957256D01*
X231636295Y-327229560D01*
X231599500Y-327509041D01*
X223400499Y-327509041D01*
X223363704Y-327229558D01*
X223290742Y-326957261D01*
X223182863Y-326696817D01*
X223182861Y-326696814D01*
X223182859Y-326696809D01*
X223041916Y-326452690D01*
X223041912Y-326452683D01*
X222870300Y-326229035D01*
X222870298Y-326229033D01*
X222870295Y-326229029D01*
X222670970Y-326029704D01*
X222670965Y-326029700D01*
X222447317Y-325858088D01*
X222447311Y-325858084D01*
X222447309Y-325858083D01*
X222203190Y-325717140D01*
X222203179Y-325717135D01*
X221942743Y-325609259D01*
X221670439Y-325536295D01*
X221390958Y-325499500D01*
X221390951Y-325499500D01*
X221109049Y-325499500D01*
X221109041Y-325499500D01*
X220829560Y-325536295D01*
X220557256Y-325609259D01*
X220296820Y-325717135D01*
X220296809Y-325717140D01*
X220052690Y-325858083D01*
X220052682Y-325858089D01*
X219829029Y-326029704D01*
X219629704Y-326229029D01*
X219458089Y-326452682D01*
X219458083Y-326452690D01*
X219317140Y-326696809D01*
X219317135Y-326696820D01*
X219209259Y-326957256D01*
X219136295Y-327229560D01*
X219099500Y-327509041D01*
X210900499Y-327509041D01*
X210863704Y-327229558D01*
X210790742Y-326957261D01*
X210682863Y-326696817D01*
X210682861Y-326696814D01*
X210682859Y-326696809D01*
X210541916Y-326452690D01*
X210541912Y-326452683D01*
X210370300Y-326229035D01*
X210370298Y-326229033D01*
X210370295Y-326229029D01*
X210170970Y-326029704D01*
X210170965Y-326029700D01*
X209947317Y-325858088D01*
X209947311Y-325858084D01*
X209947309Y-325858083D01*
X209703190Y-325717140D01*
X209703179Y-325717135D01*
X209442743Y-325609259D01*
X209170439Y-325536295D01*
X208890958Y-325499500D01*
X208890951Y-325499500D01*
X208609049Y-325499500D01*
X208609041Y-325499500D01*
X208329560Y-325536295D01*
X208057256Y-325609259D01*
X207796820Y-325717135D01*
X207796809Y-325717140D01*
X207552690Y-325858083D01*
X207552682Y-325858089D01*
X207329029Y-326029704D01*
X207129704Y-326229029D01*
X206958089Y-326452682D01*
X206958083Y-326452690D01*
X206817140Y-326696809D01*
X206817135Y-326696820D01*
X206709259Y-326957256D01*
X206636295Y-327229560D01*
X206599500Y-327509041D01*
X178400499Y-327509041D01*
X178363704Y-327229558D01*
X178290742Y-326957261D01*
X178182863Y-326696817D01*
X178182861Y-326696814D01*
X178182859Y-326696809D01*
X178041916Y-326452690D01*
X178041912Y-326452683D01*
X177870300Y-326229035D01*
X177870298Y-326229033D01*
X177870295Y-326229029D01*
X177670970Y-326029704D01*
X177670965Y-326029700D01*
X177447317Y-325858088D01*
X177447311Y-325858084D01*
X177447309Y-325858083D01*
X177203190Y-325717140D01*
X177203179Y-325717135D01*
X176942743Y-325609259D01*
X176670439Y-325536295D01*
X176390958Y-325499500D01*
X176390951Y-325499500D01*
X176109049Y-325499500D01*
X176109041Y-325499500D01*
X175829560Y-325536295D01*
X175557256Y-325609259D01*
X175296820Y-325717135D01*
X175296809Y-325717140D01*
X175052690Y-325858083D01*
X175052682Y-325858089D01*
X174829029Y-326029704D01*
X174629704Y-326229029D01*
X174458089Y-326452682D01*
X174458083Y-326452690D01*
X174317140Y-326696809D01*
X174317135Y-326696820D01*
X174209259Y-326957256D01*
X174136295Y-327229560D01*
X174099500Y-327509041D01*
X165900499Y-327509041D01*
X165863704Y-327229558D01*
X165790742Y-326957261D01*
X165682863Y-326696817D01*
X165682861Y-326696814D01*
X165682859Y-326696809D01*
X165541916Y-326452690D01*
X165541912Y-326452683D01*
X165370300Y-326229035D01*
X165370298Y-326229033D01*
X165370295Y-326229029D01*
X165170970Y-326029704D01*
X165170965Y-326029700D01*
X164947317Y-325858088D01*
X164947311Y-325858084D01*
X164947309Y-325858083D01*
X164703190Y-325717140D01*
X164703179Y-325717135D01*
X164442743Y-325609259D01*
X164170439Y-325536295D01*
X163890958Y-325499500D01*
X163890951Y-325499500D01*
X163609049Y-325499500D01*
X163609041Y-325499500D01*
X163329560Y-325536295D01*
X163057256Y-325609259D01*
X162796820Y-325717135D01*
X162796809Y-325717140D01*
X162552690Y-325858083D01*
X162552682Y-325858089D01*
X162329029Y-326029704D01*
X162129704Y-326229029D01*
X161958089Y-326452682D01*
X161958083Y-326452690D01*
X161817140Y-326696809D01*
X161817135Y-326696820D01*
X161709259Y-326957256D01*
X161636295Y-327229560D01*
X161599500Y-327509041D01*
X153400499Y-327509041D01*
X153363704Y-327229558D01*
X153290742Y-326957261D01*
X153182863Y-326696817D01*
X153182861Y-326696814D01*
X153182859Y-326696809D01*
X153041916Y-326452690D01*
X153041912Y-326452683D01*
X152870300Y-326229035D01*
X152870298Y-326229033D01*
X152870295Y-326229029D01*
X152670970Y-326029704D01*
X152670965Y-326029700D01*
X152447317Y-325858088D01*
X152447311Y-325858084D01*
X152447309Y-325858083D01*
X152203190Y-325717140D01*
X152203179Y-325717135D01*
X151942743Y-325609259D01*
X151670439Y-325536295D01*
X151390958Y-325499500D01*
X151390951Y-325499500D01*
X151109049Y-325499500D01*
X151109041Y-325499500D01*
X150829560Y-325536295D01*
X150557256Y-325609259D01*
X150296820Y-325717135D01*
X150296809Y-325717140D01*
X150052690Y-325858083D01*
X150052682Y-325858089D01*
X149829029Y-326029704D01*
X149629704Y-326229029D01*
X149458089Y-326452682D01*
X149458083Y-326452690D01*
X149317140Y-326696809D01*
X149317135Y-326696820D01*
X149209259Y-326957256D01*
X149136295Y-327229560D01*
X149099500Y-327509041D01*
X140900499Y-327509041D01*
X140863704Y-327229558D01*
X140790742Y-326957261D01*
X140682863Y-326696817D01*
X140682861Y-326696814D01*
X140682859Y-326696809D01*
X140541916Y-326452690D01*
X140541912Y-326452683D01*
X140370300Y-326229035D01*
X140370298Y-326229033D01*
X140370295Y-326229029D01*
X140170970Y-326029704D01*
X140170965Y-326029700D01*
X139947317Y-325858088D01*
X139947311Y-325858084D01*
X139947309Y-325858083D01*
X139703190Y-325717140D01*
X139703179Y-325717135D01*
X139442743Y-325609259D01*
X139170439Y-325536295D01*
X138890958Y-325499500D01*
X138890951Y-325499500D01*
X138609049Y-325499500D01*
X138609041Y-325499500D01*
X138329560Y-325536295D01*
X138057256Y-325609259D01*
X137796820Y-325717135D01*
X137796809Y-325717140D01*
X137552690Y-325858083D01*
X137552682Y-325858089D01*
X137329029Y-326029704D01*
X137129704Y-326229029D01*
X136958089Y-326452682D01*
X136958083Y-326452690D01*
X136817140Y-326696809D01*
X136817135Y-326696820D01*
X136709259Y-326957256D01*
X136636295Y-327229560D01*
X136599500Y-327509041D01*
X15000500Y-327509041D01*
X15000500Y-325319752D01*
X268646800Y-325319752D01*
X268646800Y-325611847D01*
X268679499Y-325902071D01*
X268679502Y-325902085D01*
X268744496Y-326186844D01*
X268744497Y-326186846D01*
X268840965Y-326462538D01*
X268967693Y-326725690D01*
X268967695Y-326725693D01*
X269123092Y-326973006D01*
X269305202Y-327201365D01*
X269511735Y-327407898D01*
X269740094Y-327590008D01*
X269987407Y-327745405D01*
X270250563Y-327872135D01*
X270526255Y-327968603D01*
X270811014Y-328033598D01*
X270811023Y-328033599D01*
X270811028Y-328033600D01*
X271004510Y-328055399D01*
X271101253Y-328066299D01*
X271101256Y-328066300D01*
X271101259Y-328066300D01*
X271393344Y-328066300D01*
X271393345Y-328066299D01*
X271541671Y-328049587D01*
X271683571Y-328033600D01*
X271683574Y-328033599D01*
X271683586Y-328033598D01*
X271968345Y-327968603D01*
X272244037Y-327872135D01*
X272507193Y-327745405D01*
X272754506Y-327590008D01*
X272982865Y-327407898D01*
X273189398Y-327201365D01*
X273371508Y-326973006D01*
X273526905Y-326725693D01*
X273653635Y-326462537D01*
X273750103Y-326186845D01*
X273815098Y-325902086D01*
X273847800Y-325611841D01*
X273847800Y-325319759D01*
X273815098Y-325029514D01*
X273750103Y-324744755D01*
X273653635Y-324469063D01*
X273526905Y-324205907D01*
X273371508Y-323958594D01*
X273189398Y-323730235D01*
X272982865Y-323523702D01*
X272754506Y-323341592D01*
X272507193Y-323186195D01*
X272507190Y-323186193D01*
X272244038Y-323059465D01*
X271968346Y-322962997D01*
X271968344Y-322962996D01*
X271748580Y-322912836D01*
X271683586Y-322898002D01*
X271683583Y-322898001D01*
X271683571Y-322897999D01*
X271393347Y-322865300D01*
X271393341Y-322865300D01*
X271101259Y-322865300D01*
X271101252Y-322865300D01*
X270811028Y-322897999D01*
X270811014Y-322898002D01*
X270526255Y-322962996D01*
X270526253Y-322962997D01*
X270250561Y-323059465D01*
X269987409Y-323186193D01*
X269740095Y-323341591D01*
X269511735Y-323523701D01*
X269305201Y-323730235D01*
X269123091Y-323958595D01*
X268967693Y-324205909D01*
X268840965Y-324469061D01*
X268744497Y-324744753D01*
X268744496Y-324744755D01*
X268679502Y-325029514D01*
X268679499Y-325029528D01*
X268646800Y-325319752D01*
X15000500Y-325319752D01*
X15000500Y-307819752D01*
X138646800Y-307819752D01*
X138646800Y-308111847D01*
X138679499Y-308402071D01*
X138679502Y-308402085D01*
X138744496Y-308686844D01*
X138744497Y-308686846D01*
X138840965Y-308962538D01*
X138967693Y-309225690D01*
X138967695Y-309225693D01*
X139123092Y-309473006D01*
X139305202Y-309701365D01*
X139511735Y-309907898D01*
X139740094Y-310090008D01*
X139987407Y-310245405D01*
X140250563Y-310372135D01*
X140526255Y-310468603D01*
X140811014Y-310533598D01*
X140811023Y-310533599D01*
X140811028Y-310533600D01*
X141004510Y-310555399D01*
X141101253Y-310566299D01*
X141101256Y-310566300D01*
X141101259Y-310566300D01*
X141393344Y-310566300D01*
X141393345Y-310566299D01*
X141541671Y-310549587D01*
X141683571Y-310533600D01*
X141683574Y-310533599D01*
X141683586Y-310533598D01*
X141968345Y-310468603D01*
X142244037Y-310372135D01*
X142507193Y-310245405D01*
X142754506Y-310090008D01*
X142982865Y-309907898D01*
X143189398Y-309701365D01*
X143371508Y-309473006D01*
X143526905Y-309225693D01*
X143653635Y-308962537D01*
X143750103Y-308686845D01*
X143815098Y-308402086D01*
X143847800Y-308111841D01*
X143847800Y-307819759D01*
X143847799Y-307819752D01*
X156146800Y-307819752D01*
X156146800Y-308111847D01*
X156179499Y-308402071D01*
X156179502Y-308402085D01*
X156244496Y-308686844D01*
X156244497Y-308686846D01*
X156340965Y-308962538D01*
X156467693Y-309225690D01*
X156467695Y-309225693D01*
X156623092Y-309473006D01*
X156805202Y-309701365D01*
X157011735Y-309907898D01*
X157240094Y-310090008D01*
X157487407Y-310245405D01*
X157750563Y-310372135D01*
X158026255Y-310468603D01*
X158311014Y-310533598D01*
X158311023Y-310533599D01*
X158311028Y-310533600D01*
X158504510Y-310555399D01*
X158601253Y-310566299D01*
X158601256Y-310566300D01*
X158601259Y-310566300D01*
X158893344Y-310566300D01*
X158893345Y-310566299D01*
X159041671Y-310549587D01*
X159183571Y-310533600D01*
X159183574Y-310533599D01*
X159183586Y-310533598D01*
X159468345Y-310468603D01*
X159744037Y-310372135D01*
X160007193Y-310245405D01*
X160254506Y-310090008D01*
X160482865Y-309907898D01*
X160689398Y-309701365D01*
X160871508Y-309473006D01*
X161026905Y-309225693D01*
X161153635Y-308962537D01*
X161250103Y-308686845D01*
X161315098Y-308402086D01*
X161347800Y-308111841D01*
X161347800Y-307819759D01*
X161343375Y-307780481D01*
X161342115Y-307769299D01*
X171746800Y-307769299D01*
X171746800Y-308162300D01*
X171781051Y-308553795D01*
X171781051Y-308553799D01*
X171849291Y-308940805D01*
X171849293Y-308940816D01*
X171876547Y-309042530D01*
X171951007Y-309320416D01*
X171951008Y-309320418D01*
X171951008Y-309320419D01*
X172085424Y-309689721D01*
X172251495Y-310045862D01*
X172251507Y-310045886D01*
X172366700Y-310245405D01*
X172439867Y-310372135D01*
X172447995Y-310386212D01*
X172448004Y-310386227D01*
X172673415Y-310708147D01*
X172866093Y-310937771D01*
X172926022Y-311009191D01*
X173203909Y-311287078D01*
X173311038Y-311376970D01*
X173504952Y-311539684D01*
X173504958Y-311539688D01*
X173504959Y-311539689D01*
X173826879Y-311765100D01*
X174167220Y-311961596D01*
X174167234Y-311961602D01*
X174167237Y-311961604D01*
X174523378Y-312127675D01*
X174523383Y-312127676D01*
X174523392Y-312127681D01*
X174892684Y-312262093D01*
X175272285Y-312363807D01*
X175659307Y-312432049D01*
X176050802Y-312466299D01*
X176050803Y-312466300D01*
X176050804Y-312466300D01*
X176443797Y-312466300D01*
X176443797Y-312466299D01*
X176835293Y-312432049D01*
X177222315Y-312363807D01*
X177601916Y-312262093D01*
X177971208Y-312127681D01*
X178327380Y-311961596D01*
X178667721Y-311765100D01*
X178989641Y-311539689D01*
X179290691Y-311287078D01*
X179568578Y-311009191D01*
X179821189Y-310708141D01*
X180046600Y-310386221D01*
X180243096Y-310045880D01*
X180409181Y-309689708D01*
X180543593Y-309320416D01*
X180645307Y-308940815D01*
X180713549Y-308553793D01*
X180747800Y-308162296D01*
X180747800Y-307769304D01*
X180747800Y-307769299D01*
X204246800Y-307769299D01*
X204246800Y-308162300D01*
X204281051Y-308553795D01*
X204281051Y-308553799D01*
X204349291Y-308940805D01*
X204349293Y-308940816D01*
X204376547Y-309042530D01*
X204451007Y-309320416D01*
X204451008Y-309320418D01*
X204451008Y-309320419D01*
X204585424Y-309689721D01*
X204751495Y-310045862D01*
X204751507Y-310045886D01*
X204866700Y-310245405D01*
X204939867Y-310372135D01*
X204947995Y-310386212D01*
X204948004Y-310386227D01*
X205173415Y-310708147D01*
X205366093Y-310937771D01*
X205426022Y-311009191D01*
X205703909Y-311287078D01*
X205811038Y-311376970D01*
X206004952Y-311539684D01*
X206004958Y-311539688D01*
X206004959Y-311539689D01*
X206326879Y-311765100D01*
X206667220Y-311961596D01*
X206667234Y-311961602D01*
X206667237Y-311961604D01*
X207023378Y-312127675D01*
X207023383Y-312127676D01*
X207023392Y-312127681D01*
X207392684Y-312262093D01*
X207772285Y-312363807D01*
X208159307Y-312432049D01*
X208550802Y-312466299D01*
X208550803Y-312466300D01*
X208550804Y-312466300D01*
X208943797Y-312466300D01*
X208943797Y-312466299D01*
X209335293Y-312432049D01*
X209722315Y-312363807D01*
X210101916Y-312262093D01*
X210471208Y-312127681D01*
X210827380Y-311961596D01*
X211167721Y-311765100D01*
X211489641Y-311539689D01*
X211790691Y-311287078D01*
X212068578Y-311009191D01*
X212321189Y-310708141D01*
X212546600Y-310386221D01*
X212743096Y-310045880D01*
X212909181Y-309689708D01*
X213043593Y-309320416D01*
X213145307Y-308940815D01*
X213213549Y-308553793D01*
X213247800Y-308162296D01*
X213247800Y-307769304D01*
X213247800Y-307769299D01*
X241746800Y-307769299D01*
X241746800Y-308162300D01*
X241781051Y-308553795D01*
X241781051Y-308553799D01*
X241849291Y-308940805D01*
X241849293Y-308940816D01*
X241876547Y-309042530D01*
X241951007Y-309320416D01*
X241951008Y-309320418D01*
X241951008Y-309320419D01*
X242085424Y-309689721D01*
X242251495Y-310045862D01*
X242251507Y-310045886D01*
X242366700Y-310245405D01*
X242439867Y-310372135D01*
X242447995Y-310386212D01*
X242448004Y-310386227D01*
X242673415Y-310708147D01*
X242866093Y-310937771D01*
X242926022Y-311009191D01*
X243203909Y-311287078D01*
X243311038Y-311376970D01*
X243504952Y-311539684D01*
X243504958Y-311539688D01*
X243504959Y-311539689D01*
X243826879Y-311765100D01*
X244167220Y-311961596D01*
X244167234Y-311961602D01*
X244167237Y-311961604D01*
X244523378Y-312127675D01*
X244523383Y-312127676D01*
X244523392Y-312127681D01*
X244892684Y-312262093D01*
X245272285Y-312363807D01*
X245659307Y-312432049D01*
X246050802Y-312466299D01*
X246050803Y-312466300D01*
X246050804Y-312466300D01*
X246443797Y-312466300D01*
X246443797Y-312466299D01*
X246835293Y-312432049D01*
X247222315Y-312363807D01*
X247601916Y-312262093D01*
X247971208Y-312127681D01*
X248327380Y-311961596D01*
X248667721Y-311765100D01*
X248989641Y-311539689D01*
X249290691Y-311287078D01*
X249568578Y-311009191D01*
X249821189Y-310708141D01*
X250046600Y-310386221D01*
X250243096Y-310045880D01*
X250409181Y-309689708D01*
X250543593Y-309320416D01*
X250645307Y-308940815D01*
X250713549Y-308553793D01*
X250747800Y-308162296D01*
X250747800Y-307819752D01*
X268646800Y-307819752D01*
X268646800Y-308111847D01*
X268679499Y-308402071D01*
X268679502Y-308402085D01*
X268744496Y-308686844D01*
X268744497Y-308686846D01*
X268840965Y-308962538D01*
X268967693Y-309225690D01*
X268967695Y-309225693D01*
X269123092Y-309473006D01*
X269305202Y-309701365D01*
X269511735Y-309907898D01*
X269740094Y-310090008D01*
X269987407Y-310245405D01*
X270250563Y-310372135D01*
X270526255Y-310468603D01*
X270811014Y-310533598D01*
X270811023Y-310533599D01*
X270811028Y-310533600D01*
X271004510Y-310555399D01*
X271101253Y-310566299D01*
X271101256Y-310566300D01*
X271101259Y-310566300D01*
X271393344Y-310566300D01*
X271393345Y-310566299D01*
X271541671Y-310549587D01*
X271683571Y-310533600D01*
X271683574Y-310533599D01*
X271683586Y-310533598D01*
X271968345Y-310468603D01*
X272244037Y-310372135D01*
X272507193Y-310245405D01*
X272754506Y-310090008D01*
X272982865Y-309907898D01*
X273189398Y-309701365D01*
X273371508Y-309473006D01*
X273526905Y-309225693D01*
X273653635Y-308962537D01*
X273750103Y-308686845D01*
X273815098Y-308402086D01*
X273847800Y-308111841D01*
X273847800Y-307853952D01*
X301146800Y-307853952D01*
X301146800Y-308146047D01*
X301179499Y-308436271D01*
X301179502Y-308436285D01*
X301244496Y-308721044D01*
X301244497Y-308721046D01*
X301340965Y-308996738D01*
X301467693Y-309259890D01*
X301467695Y-309259893D01*
X301623092Y-309507206D01*
X301805202Y-309735565D01*
X302011735Y-309942098D01*
X302240094Y-310124208D01*
X302487407Y-310279605D01*
X302750563Y-310406335D01*
X303026255Y-310502803D01*
X303311014Y-310567798D01*
X303311023Y-310567799D01*
X303311028Y-310567800D01*
X303504510Y-310589599D01*
X303601253Y-310600499D01*
X303601256Y-310600500D01*
X303601259Y-310600500D01*
X303893344Y-310600500D01*
X303893345Y-310600499D01*
X304041671Y-310583787D01*
X304183571Y-310567800D01*
X304183574Y-310567799D01*
X304183586Y-310567798D01*
X304468345Y-310502803D01*
X304744037Y-310406335D01*
X305007193Y-310279605D01*
X305254506Y-310124208D01*
X305482865Y-309942098D01*
X305689398Y-309735565D01*
X305871508Y-309507206D01*
X306026905Y-309259893D01*
X306153635Y-308996737D01*
X306250103Y-308721045D01*
X306315098Y-308436286D01*
X306318952Y-308402086D01*
X306345968Y-308162297D01*
X306347800Y-308146041D01*
X306347800Y-307853959D01*
X306343947Y-307819759D01*
X306339522Y-307780481D01*
X306338262Y-307769299D01*
X319246800Y-307769299D01*
X319246800Y-308162300D01*
X319281051Y-308553795D01*
X319281051Y-308553799D01*
X319349291Y-308940805D01*
X319349293Y-308940816D01*
X319376547Y-309042530D01*
X319451007Y-309320416D01*
X319451008Y-309320418D01*
X319451008Y-309320419D01*
X319585424Y-309689721D01*
X319751495Y-310045862D01*
X319751507Y-310045886D01*
X319866700Y-310245405D01*
X319939867Y-310372135D01*
X319947995Y-310386212D01*
X319948004Y-310386227D01*
X320173415Y-310708147D01*
X320366093Y-310937771D01*
X320426022Y-311009191D01*
X320703909Y-311287078D01*
X320811038Y-311376970D01*
X321004952Y-311539684D01*
X321004958Y-311539688D01*
X321004959Y-311539689D01*
X321326879Y-311765100D01*
X321667220Y-311961596D01*
X321667234Y-311961602D01*
X321667237Y-311961604D01*
X322023378Y-312127675D01*
X322023383Y-312127676D01*
X322023392Y-312127681D01*
X322392684Y-312262093D01*
X322772285Y-312363807D01*
X323159307Y-312432049D01*
X323550802Y-312466299D01*
X323550803Y-312466300D01*
X323550804Y-312466300D01*
X323943797Y-312466300D01*
X323943797Y-312466299D01*
X324335293Y-312432049D01*
X324722315Y-312363807D01*
X325101916Y-312262093D01*
X325471208Y-312127681D01*
X325827380Y-311961596D01*
X326167721Y-311765100D01*
X326489641Y-311539689D01*
X326790691Y-311287078D01*
X327068578Y-311009191D01*
X327321189Y-310708141D01*
X327546600Y-310386221D01*
X327743096Y-310045880D01*
X327909181Y-309689708D01*
X328043593Y-309320416D01*
X328145307Y-308940815D01*
X328213549Y-308553793D01*
X328247800Y-308162296D01*
X328247800Y-307769304D01*
X328213549Y-307377807D01*
X328196118Y-307278953D01*
X328147507Y-307003263D01*
X328145307Y-306990785D01*
X328043593Y-306611184D01*
X327909181Y-306241892D01*
X327909176Y-306241883D01*
X327909175Y-306241878D01*
X327743104Y-305885737D01*
X327743092Y-305885713D01*
X327717618Y-305841591D01*
X327546600Y-305545379D01*
X327321189Y-305223459D01*
X327321188Y-305223458D01*
X327321184Y-305223452D01*
X327068575Y-304922406D01*
X326790693Y-304644524D01*
X326489647Y-304391915D01*
X326167727Y-304166504D01*
X326167724Y-304166502D01*
X326167721Y-304166500D01*
X326066605Y-304108120D01*
X325827386Y-303970007D01*
X325827362Y-303969995D01*
X325471221Y-303803924D01*
X325471210Y-303803920D01*
X325471208Y-303803919D01*
X325101916Y-303669507D01*
X324861260Y-303605023D01*
X324722316Y-303567793D01*
X324722305Y-303567791D01*
X324335297Y-303499551D01*
X323943800Y-303465300D01*
X323943796Y-303465300D01*
X323550804Y-303465300D01*
X323550799Y-303465300D01*
X323159304Y-303499551D01*
X323159300Y-303499551D01*
X322772294Y-303567791D01*
X322772283Y-303567793D01*
X322568855Y-303622302D01*
X322392684Y-303669507D01*
X322392681Y-303669508D01*
X322392680Y-303669508D01*
X322023378Y-303803924D01*
X321667237Y-303969995D01*
X321667213Y-303970007D01*
X321326887Y-304166495D01*
X321326872Y-304166504D01*
X321004952Y-304391915D01*
X320703906Y-304644524D01*
X320426024Y-304922406D01*
X320173415Y-305223452D01*
X319948004Y-305545372D01*
X319947995Y-305545387D01*
X319751507Y-305885713D01*
X319751495Y-305885737D01*
X319585424Y-306241878D01*
X319494098Y-306492794D01*
X319451007Y-306611184D01*
X319416462Y-306740107D01*
X319349293Y-306990783D01*
X319349291Y-306990794D01*
X319281051Y-307377800D01*
X319281051Y-307377804D01*
X319246800Y-307769299D01*
X306338262Y-307769299D01*
X306315100Y-307563728D01*
X306315099Y-307563723D01*
X306315098Y-307563714D01*
X306250103Y-307278955D01*
X306153635Y-307003263D01*
X306026905Y-306740107D01*
X305871508Y-306492794D01*
X305689398Y-306264435D01*
X305482865Y-306057902D01*
X305254506Y-305875792D01*
X305007193Y-305720395D01*
X305007190Y-305720393D01*
X304744038Y-305593665D01*
X304468346Y-305497197D01*
X304468344Y-305497196D01*
X304248580Y-305447036D01*
X304183586Y-305432202D01*
X304183583Y-305432201D01*
X304183571Y-305432199D01*
X303893347Y-305399500D01*
X303893341Y-305399500D01*
X303601259Y-305399500D01*
X303601252Y-305399500D01*
X303311028Y-305432199D01*
X303311014Y-305432202D01*
X303026255Y-305497196D01*
X303026253Y-305497197D01*
X302750561Y-305593665D01*
X302487409Y-305720393D01*
X302240095Y-305875791D01*
X302011735Y-306057901D01*
X301805201Y-306264435D01*
X301623091Y-306492795D01*
X301467693Y-306740109D01*
X301340965Y-307003261D01*
X301244497Y-307278953D01*
X301244496Y-307278955D01*
X301179502Y-307563714D01*
X301179499Y-307563728D01*
X301146800Y-307853952D01*
X273847800Y-307853952D01*
X273847800Y-307819759D01*
X273818953Y-307563728D01*
X273815100Y-307529528D01*
X273815099Y-307529523D01*
X273815098Y-307529514D01*
X273750103Y-307244755D01*
X273653635Y-306969063D01*
X273526905Y-306705907D01*
X273371508Y-306458594D01*
X273189398Y-306230235D01*
X272982865Y-306023702D01*
X272754506Y-305841592D01*
X272507193Y-305686195D01*
X272507190Y-305686193D01*
X272244038Y-305559465D01*
X271968346Y-305462997D01*
X271968344Y-305462996D01*
X271748580Y-305412836D01*
X271683586Y-305398002D01*
X271683583Y-305398001D01*
X271683571Y-305397999D01*
X271393347Y-305365300D01*
X271393341Y-305365300D01*
X271101259Y-305365300D01*
X271101252Y-305365300D01*
X270811028Y-305397999D01*
X270811014Y-305398002D01*
X270526255Y-305462996D01*
X270526253Y-305462997D01*
X270250561Y-305559465D01*
X269987409Y-305686193D01*
X269740095Y-305841591D01*
X269511735Y-306023701D01*
X269305201Y-306230235D01*
X269123091Y-306458595D01*
X268967693Y-306705909D01*
X268840965Y-306969061D01*
X268744497Y-307244753D01*
X268744496Y-307244755D01*
X268679502Y-307529514D01*
X268679499Y-307529528D01*
X268646800Y-307819752D01*
X250747800Y-307819752D01*
X250747800Y-307769304D01*
X250713549Y-307377807D01*
X250696118Y-307278953D01*
X250647507Y-307003263D01*
X250645307Y-306990785D01*
X250543593Y-306611184D01*
X250409181Y-306241892D01*
X250409176Y-306241883D01*
X250409175Y-306241878D01*
X250243104Y-305885737D01*
X250243092Y-305885713D01*
X250217618Y-305841591D01*
X250046600Y-305545379D01*
X249821189Y-305223459D01*
X249821188Y-305223458D01*
X249821184Y-305223452D01*
X249568575Y-304922406D01*
X249290693Y-304644524D01*
X248989647Y-304391915D01*
X248667727Y-304166504D01*
X248667724Y-304166502D01*
X248667721Y-304166500D01*
X248566605Y-304108120D01*
X248327386Y-303970007D01*
X248327362Y-303969995D01*
X247971221Y-303803924D01*
X247971210Y-303803920D01*
X247971208Y-303803919D01*
X247601916Y-303669507D01*
X247361260Y-303605023D01*
X247222316Y-303567793D01*
X247222305Y-303567791D01*
X246835297Y-303499551D01*
X246443800Y-303465300D01*
X246443796Y-303465300D01*
X246050804Y-303465300D01*
X246050799Y-303465300D01*
X245659304Y-303499551D01*
X245659300Y-303499551D01*
X245272294Y-303567791D01*
X245272283Y-303567793D01*
X245068855Y-303622302D01*
X244892684Y-303669507D01*
X244892681Y-303669508D01*
X244892680Y-303669508D01*
X244523378Y-303803924D01*
X244167237Y-303969995D01*
X244167213Y-303970007D01*
X243826887Y-304166495D01*
X243826872Y-304166504D01*
X243504952Y-304391915D01*
X243203906Y-304644524D01*
X242926024Y-304922406D01*
X242673415Y-305223452D01*
X242448004Y-305545372D01*
X242447995Y-305545387D01*
X242251507Y-305885713D01*
X242251495Y-305885737D01*
X242085424Y-306241878D01*
X241994098Y-306492794D01*
X241951007Y-306611184D01*
X241916462Y-306740107D01*
X241849293Y-306990783D01*
X241849291Y-306990794D01*
X241781051Y-307377800D01*
X241781051Y-307377804D01*
X241746800Y-307769299D01*
X213247800Y-307769299D01*
X213213549Y-307377807D01*
X213196118Y-307278953D01*
X213147507Y-307003263D01*
X213145307Y-306990785D01*
X213043593Y-306611184D01*
X212909181Y-306241892D01*
X212909176Y-306241883D01*
X212909175Y-306241878D01*
X212743104Y-305885737D01*
X212743092Y-305885713D01*
X212717618Y-305841591D01*
X212546600Y-305545379D01*
X212321189Y-305223459D01*
X212321188Y-305223458D01*
X212321184Y-305223452D01*
X212068575Y-304922406D01*
X211790693Y-304644524D01*
X211489647Y-304391915D01*
X211167727Y-304166504D01*
X211167724Y-304166502D01*
X211167721Y-304166500D01*
X211066605Y-304108120D01*
X210827386Y-303970007D01*
X210827362Y-303969995D01*
X210471221Y-303803924D01*
X210471210Y-303803920D01*
X210471208Y-303803919D01*
X210101916Y-303669507D01*
X209861260Y-303605023D01*
X209722316Y-303567793D01*
X209722305Y-303567791D01*
X209335297Y-303499551D01*
X208943800Y-303465300D01*
X208943796Y-303465300D01*
X208550804Y-303465300D01*
X208550799Y-303465300D01*
X208159304Y-303499551D01*
X208159300Y-303499551D01*
X207772294Y-303567791D01*
X207772283Y-303567793D01*
X207568855Y-303622302D01*
X207392684Y-303669507D01*
X207392681Y-303669508D01*
X207392680Y-303669508D01*
X207023378Y-303803924D01*
X206667237Y-303969995D01*
X206667213Y-303970007D01*
X206326887Y-304166495D01*
X206326872Y-304166504D01*
X206004952Y-304391915D01*
X205703906Y-304644524D01*
X205426024Y-304922406D01*
X205173415Y-305223452D01*
X204948004Y-305545372D01*
X204947995Y-305545387D01*
X204751507Y-305885713D01*
X204751495Y-305885737D01*
X204585424Y-306241878D01*
X204494098Y-306492794D01*
X204451007Y-306611184D01*
X204416462Y-306740107D01*
X204349293Y-306990783D01*
X204349291Y-306990794D01*
X204281051Y-307377800D01*
X204281051Y-307377804D01*
X204246800Y-307769299D01*
X180747800Y-307769299D01*
X180713549Y-307377807D01*
X180696118Y-307278953D01*
X180647507Y-307003263D01*
X180645307Y-306990785D01*
X180543593Y-306611184D01*
X180409181Y-306241892D01*
X180409176Y-306241883D01*
X180409175Y-306241878D01*
X180243104Y-305885737D01*
X180243092Y-305885713D01*
X180217618Y-305841591D01*
X180046600Y-305545379D01*
X179821189Y-305223459D01*
X179821188Y-305223458D01*
X179821184Y-305223452D01*
X179568575Y-304922406D01*
X179290693Y-304644524D01*
X178989647Y-304391915D01*
X178667727Y-304166504D01*
X178667724Y-304166502D01*
X178667721Y-304166500D01*
X178566605Y-304108120D01*
X178327386Y-303970007D01*
X178327362Y-303969995D01*
X177971221Y-303803924D01*
X177971210Y-303803920D01*
X177971208Y-303803919D01*
X177601916Y-303669507D01*
X177361260Y-303605023D01*
X177222316Y-303567793D01*
X177222305Y-303567791D01*
X176835297Y-303499551D01*
X176443800Y-303465300D01*
X176443796Y-303465300D01*
X176050804Y-303465300D01*
X176050799Y-303465300D01*
X175659304Y-303499551D01*
X175659300Y-303499551D01*
X175272294Y-303567791D01*
X175272283Y-303567793D01*
X175068855Y-303622302D01*
X174892684Y-303669507D01*
X174892681Y-303669508D01*
X174892680Y-303669508D01*
X174523378Y-303803924D01*
X174167237Y-303969995D01*
X174167213Y-303970007D01*
X173826887Y-304166495D01*
X173826872Y-304166504D01*
X173504952Y-304391915D01*
X173203906Y-304644524D01*
X172926024Y-304922406D01*
X172673415Y-305223452D01*
X172448004Y-305545372D01*
X172447995Y-305545387D01*
X172251507Y-305885713D01*
X172251495Y-305885737D01*
X172085424Y-306241878D01*
X171994098Y-306492794D01*
X171951007Y-306611184D01*
X171916462Y-306740107D01*
X171849293Y-306990783D01*
X171849291Y-306990794D01*
X171781051Y-307377800D01*
X171781051Y-307377804D01*
X171746800Y-307769299D01*
X161342115Y-307769299D01*
X161315100Y-307529527D01*
X161315098Y-307529522D01*
X161315098Y-307529514D01*
X161250103Y-307244755D01*
X161153635Y-306969063D01*
X161026905Y-306705907D01*
X160871508Y-306458594D01*
X160689398Y-306230235D01*
X160482865Y-306023702D01*
X160254506Y-305841592D01*
X160007193Y-305686195D01*
X160007190Y-305686193D01*
X159744038Y-305559465D01*
X159468346Y-305462997D01*
X159468344Y-305462996D01*
X159248580Y-305412836D01*
X159183586Y-305398002D01*
X159183583Y-305398001D01*
X159183571Y-305397999D01*
X158893347Y-305365300D01*
X158893341Y-305365300D01*
X158601259Y-305365300D01*
X158601252Y-305365300D01*
X158311028Y-305397999D01*
X158311014Y-305398002D01*
X158026255Y-305462996D01*
X158026253Y-305462997D01*
X157750561Y-305559465D01*
X157487409Y-305686193D01*
X157240095Y-305841591D01*
X157011735Y-306023701D01*
X156805201Y-306230235D01*
X156623091Y-306458595D01*
X156467693Y-306705909D01*
X156340965Y-306969061D01*
X156244497Y-307244753D01*
X156244496Y-307244755D01*
X156179502Y-307529514D01*
X156179499Y-307529528D01*
X156146800Y-307819752D01*
X143847799Y-307819752D01*
X143818953Y-307563728D01*
X143815100Y-307529528D01*
X143815099Y-307529523D01*
X143815098Y-307529514D01*
X143750103Y-307244755D01*
X143653635Y-306969063D01*
X143526905Y-306705907D01*
X143371508Y-306458594D01*
X143189398Y-306230235D01*
X142982865Y-306023702D01*
X142754506Y-305841592D01*
X142507193Y-305686195D01*
X142507190Y-305686193D01*
X142244038Y-305559465D01*
X141968346Y-305462997D01*
X141968344Y-305462996D01*
X141748580Y-305412836D01*
X141683586Y-305398002D01*
X141683583Y-305398001D01*
X141683571Y-305397999D01*
X141393347Y-305365300D01*
X141393341Y-305365300D01*
X141101259Y-305365300D01*
X141101252Y-305365300D01*
X140811028Y-305397999D01*
X140811014Y-305398002D01*
X140526255Y-305462996D01*
X140526253Y-305462997D01*
X140250561Y-305559465D01*
X139987409Y-305686193D01*
X139740095Y-305841591D01*
X139511735Y-306023701D01*
X139305201Y-306230235D01*
X139123091Y-306458595D01*
X138967693Y-306705909D01*
X138840965Y-306969061D01*
X138744497Y-307244753D01*
X138744496Y-307244755D01*
X138679502Y-307529514D01*
X138679499Y-307529528D01*
X138646800Y-307819752D01*
X15000500Y-307819752D01*
X15000500Y-262509041D01*
X136599500Y-262509041D01*
X136599500Y-284490958D01*
X136636295Y-284770439D01*
X136709259Y-285042743D01*
X136817135Y-285303179D01*
X136817140Y-285303190D01*
X136958083Y-285547309D01*
X136958088Y-285547317D01*
X137129700Y-285770965D01*
X137129704Y-285770970D01*
X137329029Y-285970295D01*
X137329033Y-285970298D01*
X137329035Y-285970300D01*
X137552683Y-286141912D01*
X137552690Y-286141916D01*
X137796809Y-286282859D01*
X137796814Y-286282861D01*
X137796817Y-286282863D01*
X138057261Y-286390742D01*
X138329558Y-286463704D01*
X138609049Y-286500500D01*
X138609056Y-286500500D01*
X138890944Y-286500500D01*
X138890951Y-286500500D01*
X139170442Y-286463704D01*
X139442739Y-286390742D01*
X139703183Y-286282863D01*
X139947317Y-286141912D01*
X140170965Y-285970300D01*
X140370300Y-285770965D01*
X140541912Y-285547317D01*
X140682863Y-285303183D01*
X140790742Y-285042739D01*
X140863704Y-284770442D01*
X140900500Y-284490951D01*
X140900500Y-262509049D01*
X140900499Y-262509041D01*
X149099500Y-262509041D01*
X149099500Y-284490958D01*
X149136295Y-284770439D01*
X149209259Y-285042743D01*
X149317135Y-285303179D01*
X149317140Y-285303190D01*
X149458083Y-285547309D01*
X149458088Y-285547317D01*
X149629700Y-285770965D01*
X149629704Y-285770970D01*
X149829029Y-285970295D01*
X149829033Y-285970298D01*
X149829035Y-285970300D01*
X150052683Y-286141912D01*
X150052690Y-286141916D01*
X150296809Y-286282859D01*
X150296814Y-286282861D01*
X150296817Y-286282863D01*
X150557261Y-286390742D01*
X150829558Y-286463704D01*
X151109049Y-286500500D01*
X151109056Y-286500500D01*
X151390944Y-286500500D01*
X151390951Y-286500500D01*
X151670442Y-286463704D01*
X151942739Y-286390742D01*
X152203183Y-286282863D01*
X152447317Y-286141912D01*
X152670965Y-285970300D01*
X152870300Y-285770965D01*
X153041912Y-285547317D01*
X153182863Y-285303183D01*
X153290742Y-285042739D01*
X153363704Y-284770442D01*
X153400500Y-284490951D01*
X153400500Y-262509049D01*
X153400499Y-262509041D01*
X161599500Y-262509041D01*
X161599500Y-284490958D01*
X161636295Y-284770439D01*
X161709259Y-285042743D01*
X161817135Y-285303179D01*
X161817140Y-285303190D01*
X161958083Y-285547309D01*
X161958088Y-285547317D01*
X162129700Y-285770965D01*
X162129704Y-285770970D01*
X162329029Y-285970295D01*
X162329033Y-285970298D01*
X162329035Y-285970300D01*
X162552683Y-286141912D01*
X162552690Y-286141916D01*
X162796809Y-286282859D01*
X162796814Y-286282861D01*
X162796817Y-286282863D01*
X163057261Y-286390742D01*
X163329558Y-286463704D01*
X163609049Y-286500500D01*
X163609056Y-286500500D01*
X163890944Y-286500500D01*
X163890951Y-286500500D01*
X164170442Y-286463704D01*
X164442739Y-286390742D01*
X164703183Y-286282863D01*
X164947317Y-286141912D01*
X165170965Y-285970300D01*
X165370300Y-285770965D01*
X165541912Y-285547317D01*
X165682863Y-285303183D01*
X165790742Y-285042739D01*
X165863704Y-284770442D01*
X165900500Y-284490951D01*
X165900500Y-262509049D01*
X165900499Y-262509041D01*
X174099500Y-262509041D01*
X174099500Y-284490958D01*
X174136295Y-284770439D01*
X174209259Y-285042743D01*
X174317135Y-285303179D01*
X174317140Y-285303190D01*
X174458083Y-285547309D01*
X174458088Y-285547317D01*
X174629700Y-285770965D01*
X174629704Y-285770970D01*
X174829029Y-285970295D01*
X174829033Y-285970298D01*
X174829035Y-285970300D01*
X175052683Y-286141912D01*
X175052690Y-286141916D01*
X175296809Y-286282859D01*
X175296814Y-286282861D01*
X175296817Y-286282863D01*
X175557261Y-286390742D01*
X175829558Y-286463704D01*
X176109049Y-286500500D01*
X176109056Y-286500500D01*
X176390944Y-286500500D01*
X176390951Y-286500500D01*
X176670442Y-286463704D01*
X176942739Y-286390742D01*
X177203183Y-286282863D01*
X177447317Y-286141912D01*
X177670965Y-285970300D01*
X177870300Y-285770965D01*
X178041912Y-285547317D01*
X178182863Y-285303183D01*
X178290742Y-285042739D01*
X178363704Y-284770442D01*
X178400500Y-284490951D01*
X178400500Y-262509049D01*
X178400499Y-262509041D01*
X186599500Y-262509041D01*
X186599500Y-284490958D01*
X186636295Y-284770439D01*
X186709259Y-285042743D01*
X186817135Y-285303179D01*
X186817140Y-285303190D01*
X186958083Y-285547309D01*
X186958088Y-285547317D01*
X187129700Y-285770965D01*
X187129704Y-285770970D01*
X187329029Y-285970295D01*
X187329033Y-285970298D01*
X187329035Y-285970300D01*
X187552683Y-286141912D01*
X187552690Y-286141916D01*
X187796809Y-286282859D01*
X187796814Y-286282861D01*
X187796817Y-286282863D01*
X188057261Y-286390742D01*
X188329558Y-286463704D01*
X188609049Y-286500500D01*
X188609056Y-286500500D01*
X188890944Y-286500500D01*
X188890951Y-286500500D01*
X189170442Y-286463704D01*
X189442739Y-286390742D01*
X189703183Y-286282863D01*
X189947317Y-286141912D01*
X190170965Y-285970300D01*
X190370300Y-285770965D01*
X190541912Y-285547317D01*
X190682863Y-285303183D01*
X190790742Y-285042739D01*
X190863704Y-284770442D01*
X190900500Y-284490951D01*
X190900500Y-262509049D01*
X190900499Y-262509041D01*
X206599500Y-262509041D01*
X206599500Y-284490958D01*
X206636295Y-284770439D01*
X206709259Y-285042743D01*
X206817135Y-285303179D01*
X206817140Y-285303190D01*
X206958083Y-285547309D01*
X206958088Y-285547317D01*
X207129700Y-285770965D01*
X207129704Y-285770970D01*
X207329029Y-285970295D01*
X207329033Y-285970298D01*
X207329035Y-285970300D01*
X207552683Y-286141912D01*
X207552690Y-286141916D01*
X207796809Y-286282859D01*
X207796814Y-286282861D01*
X207796817Y-286282863D01*
X208057261Y-286390742D01*
X208329558Y-286463704D01*
X208609049Y-286500500D01*
X208609056Y-286500500D01*
X208890944Y-286500500D01*
X208890951Y-286500500D01*
X209170442Y-286463704D01*
X209442739Y-286390742D01*
X209703183Y-286282863D01*
X209947317Y-286141912D01*
X210170965Y-285970300D01*
X210370300Y-285770965D01*
X210541912Y-285547317D01*
X210682863Y-285303183D01*
X210790742Y-285042739D01*
X210863704Y-284770442D01*
X210900500Y-284490951D01*
X210900500Y-262509049D01*
X210900499Y-262509041D01*
X219099500Y-262509041D01*
X219099500Y-284490958D01*
X219136295Y-284770439D01*
X219209259Y-285042743D01*
X219317135Y-285303179D01*
X219317140Y-285303190D01*
X219458083Y-285547309D01*
X219458088Y-285547317D01*
X219629700Y-285770965D01*
X219629704Y-285770970D01*
X219829029Y-285970295D01*
X219829033Y-285970298D01*
X219829035Y-285970300D01*
X220052683Y-286141912D01*
X220052690Y-286141916D01*
X220296809Y-286282859D01*
X220296814Y-286282861D01*
X220296817Y-286282863D01*
X220557261Y-286390742D01*
X220829558Y-286463704D01*
X221109049Y-286500500D01*
X221109056Y-286500500D01*
X221390944Y-286500500D01*
X221390951Y-286500500D01*
X221670442Y-286463704D01*
X221942739Y-286390742D01*
X222203183Y-286282863D01*
X222447317Y-286141912D01*
X222670965Y-285970300D01*
X222870300Y-285770965D01*
X223041912Y-285547317D01*
X223182863Y-285303183D01*
X223290742Y-285042739D01*
X223363704Y-284770442D01*
X223400500Y-284490951D01*
X223400500Y-262509049D01*
X223400499Y-262509041D01*
X231599500Y-262509041D01*
X231599500Y-284490958D01*
X231636295Y-284770439D01*
X231709259Y-285042743D01*
X231817135Y-285303179D01*
X231817140Y-285303190D01*
X231958083Y-285547309D01*
X231958088Y-285547317D01*
X232129700Y-285770965D01*
X232129704Y-285770970D01*
X232329029Y-285970295D01*
X232329033Y-285970298D01*
X232329035Y-285970300D01*
X232552683Y-286141912D01*
X232552690Y-286141916D01*
X232796809Y-286282859D01*
X232796814Y-286282861D01*
X232796817Y-286282863D01*
X233057261Y-286390742D01*
X233329558Y-286463704D01*
X233609049Y-286500500D01*
X233609056Y-286500500D01*
X233890944Y-286500500D01*
X233890951Y-286500500D01*
X234170442Y-286463704D01*
X234442739Y-286390742D01*
X234703183Y-286282863D01*
X234947317Y-286141912D01*
X235170965Y-285970300D01*
X235370300Y-285770965D01*
X235541912Y-285547317D01*
X235682863Y-285303183D01*
X235790742Y-285042739D01*
X235863704Y-284770442D01*
X235900500Y-284490951D01*
X235900500Y-262509049D01*
X235900499Y-262509041D01*
X251599500Y-262509041D01*
X251599500Y-284490958D01*
X251636295Y-284770439D01*
X251709259Y-285042743D01*
X251817135Y-285303179D01*
X251817140Y-285303190D01*
X251958083Y-285547309D01*
X251958088Y-285547317D01*
X252129700Y-285770965D01*
X252129704Y-285770970D01*
X252329029Y-285970295D01*
X252329033Y-285970298D01*
X252329035Y-285970300D01*
X252552683Y-286141912D01*
X252552690Y-286141916D01*
X252796809Y-286282859D01*
X252796814Y-286282861D01*
X252796817Y-286282863D01*
X253057261Y-286390742D01*
X253329558Y-286463704D01*
X253609049Y-286500500D01*
X253609056Y-286500500D01*
X253890944Y-286500500D01*
X253890951Y-286500500D01*
X254170442Y-286463704D01*
X254442739Y-286390742D01*
X254703183Y-286282863D01*
X254947317Y-286141912D01*
X255170965Y-285970300D01*
X255370300Y-285770965D01*
X255541912Y-285547317D01*
X255682863Y-285303183D01*
X255790742Y-285042739D01*
X255863704Y-284770442D01*
X255900500Y-284490951D01*
X255900500Y-262509049D01*
X255900499Y-262509041D01*
X264099500Y-262509041D01*
X264099500Y-284490958D01*
X264136295Y-284770439D01*
X264209259Y-285042743D01*
X264317135Y-285303179D01*
X264317140Y-285303190D01*
X264458083Y-285547309D01*
X264458088Y-285547317D01*
X264629700Y-285770965D01*
X264629704Y-285770970D01*
X264829029Y-285970295D01*
X264829033Y-285970298D01*
X264829035Y-285970300D01*
X265052683Y-286141912D01*
X265052690Y-286141916D01*
X265296809Y-286282859D01*
X265296814Y-286282861D01*
X265296817Y-286282863D01*
X265557261Y-286390742D01*
X265829558Y-286463704D01*
X266109049Y-286500500D01*
X266109056Y-286500500D01*
X266390944Y-286500500D01*
X266390951Y-286500500D01*
X266670442Y-286463704D01*
X266942739Y-286390742D01*
X267203183Y-286282863D01*
X267447317Y-286141912D01*
X267670965Y-285970300D01*
X267870300Y-285770965D01*
X268041912Y-285547317D01*
X268182863Y-285303183D01*
X268290742Y-285042739D01*
X268363704Y-284770442D01*
X268400500Y-284490951D01*
X268400500Y-262509049D01*
X268400499Y-262509041D01*
X284099500Y-262509041D01*
X284099500Y-284490958D01*
X284136295Y-284770439D01*
X284209259Y-285042743D01*
X284317135Y-285303179D01*
X284317140Y-285303190D01*
X284458083Y-285547309D01*
X284458088Y-285547317D01*
X284629700Y-285770965D01*
X284629704Y-285770970D01*
X284829029Y-285970295D01*
X284829033Y-285970298D01*
X284829035Y-285970300D01*
X285052683Y-286141912D01*
X285052690Y-286141916D01*
X285296809Y-286282859D01*
X285296814Y-286282861D01*
X285296817Y-286282863D01*
X285557261Y-286390742D01*
X285829558Y-286463704D01*
X286109049Y-286500500D01*
X286109056Y-286500500D01*
X286390944Y-286500500D01*
X286390951Y-286500500D01*
X286670442Y-286463704D01*
X286942739Y-286390742D01*
X287203183Y-286282863D01*
X287447317Y-286141912D01*
X287670965Y-285970300D01*
X287870300Y-285770965D01*
X288041912Y-285547317D01*
X288182863Y-285303183D01*
X288290742Y-285042739D01*
X288363704Y-284770442D01*
X288400500Y-284490951D01*
X288400500Y-262509049D01*
X288400499Y-262509041D01*
X296599500Y-262509041D01*
X296599500Y-284490958D01*
X296636295Y-284770439D01*
X296709259Y-285042743D01*
X296817135Y-285303179D01*
X296817140Y-285303190D01*
X296958083Y-285547309D01*
X296958088Y-285547317D01*
X297129700Y-285770965D01*
X297129704Y-285770970D01*
X297329029Y-285970295D01*
X297329033Y-285970298D01*
X297329035Y-285970300D01*
X297552683Y-286141912D01*
X297552690Y-286141916D01*
X297796809Y-286282859D01*
X297796814Y-286282861D01*
X297796817Y-286282863D01*
X298057261Y-286390742D01*
X298329558Y-286463704D01*
X298609049Y-286500500D01*
X298609056Y-286500500D01*
X298890944Y-286500500D01*
X298890951Y-286500500D01*
X299170442Y-286463704D01*
X299442739Y-286390742D01*
X299703183Y-286282863D01*
X299947317Y-286141912D01*
X300170965Y-285970300D01*
X300370300Y-285770965D01*
X300541912Y-285547317D01*
X300682863Y-285303183D01*
X300790742Y-285042739D01*
X300863704Y-284770442D01*
X300900500Y-284490951D01*
X300900500Y-262509049D01*
X300900499Y-262509041D01*
X309099500Y-262509041D01*
X309099500Y-284490958D01*
X309136295Y-284770439D01*
X309209259Y-285042743D01*
X309317135Y-285303179D01*
X309317140Y-285303190D01*
X309458083Y-285547309D01*
X309458088Y-285547317D01*
X309629700Y-285770965D01*
X309629704Y-285770970D01*
X309829029Y-285970295D01*
X309829033Y-285970298D01*
X309829035Y-285970300D01*
X310052683Y-286141912D01*
X310052690Y-286141916D01*
X310296809Y-286282859D01*
X310296814Y-286282861D01*
X310296817Y-286282863D01*
X310557261Y-286390742D01*
X310829558Y-286463704D01*
X311109049Y-286500500D01*
X311109056Y-286500500D01*
X311390944Y-286500500D01*
X311390951Y-286500500D01*
X311670442Y-286463704D01*
X311942739Y-286390742D01*
X312203183Y-286282863D01*
X312447317Y-286141912D01*
X312670965Y-285970300D01*
X312870300Y-285770965D01*
X313041912Y-285547317D01*
X313182863Y-285303183D01*
X313290742Y-285042739D01*
X313363704Y-284770442D01*
X313400500Y-284490951D01*
X313400500Y-262509049D01*
X313400499Y-262509041D01*
X321599500Y-262509041D01*
X321599500Y-284490958D01*
X321636295Y-284770439D01*
X321709259Y-285042743D01*
X321817135Y-285303179D01*
X321817140Y-285303190D01*
X321958083Y-285547309D01*
X321958088Y-285547317D01*
X322129700Y-285770965D01*
X322129704Y-285770970D01*
X322329029Y-285970295D01*
X322329033Y-285970298D01*
X322329035Y-285970300D01*
X322552683Y-286141912D01*
X322552690Y-286141916D01*
X322796809Y-286282859D01*
X322796814Y-286282861D01*
X322796817Y-286282863D01*
X323057261Y-286390742D01*
X323329558Y-286463704D01*
X323609049Y-286500500D01*
X323609056Y-286500500D01*
X323890944Y-286500500D01*
X323890951Y-286500500D01*
X324170442Y-286463704D01*
X324442739Y-286390742D01*
X324703183Y-286282863D01*
X324947317Y-286141912D01*
X325170965Y-285970300D01*
X325370300Y-285770965D01*
X325541912Y-285547317D01*
X325682863Y-285303183D01*
X325790742Y-285042739D01*
X325863704Y-284770442D01*
X325900500Y-284490951D01*
X325900500Y-262509049D01*
X325863704Y-262229558D01*
X325790742Y-261957261D01*
X325682863Y-261696817D01*
X325682861Y-261696814D01*
X325682859Y-261696809D01*
X325541916Y-261452690D01*
X325541912Y-261452683D01*
X325370300Y-261229035D01*
X325370298Y-261229033D01*
X325370295Y-261229029D01*
X325170970Y-261029704D01*
X325170965Y-261029700D01*
X324947317Y-260858088D01*
X324947311Y-260858084D01*
X324947309Y-260858083D01*
X324703190Y-260717140D01*
X324703179Y-260717135D01*
X324442743Y-260609259D01*
X324170439Y-260536295D01*
X323890958Y-260499500D01*
X323890951Y-260499500D01*
X323609049Y-260499500D01*
X323609041Y-260499500D01*
X323329560Y-260536295D01*
X323057256Y-260609259D01*
X322796820Y-260717135D01*
X322796809Y-260717140D01*
X322552690Y-260858083D01*
X322552682Y-260858089D01*
X322329029Y-261029704D01*
X322129704Y-261229029D01*
X321958089Y-261452682D01*
X321958083Y-261452690D01*
X321817140Y-261696809D01*
X321817135Y-261696820D01*
X321709259Y-261957256D01*
X321636295Y-262229560D01*
X321599500Y-262509041D01*
X313400499Y-262509041D01*
X313363704Y-262229558D01*
X313290742Y-261957261D01*
X313182863Y-261696817D01*
X313182861Y-261696814D01*
X313182859Y-261696809D01*
X313041916Y-261452690D01*
X313041912Y-261452683D01*
X312870300Y-261229035D01*
X312870298Y-261229033D01*
X312870295Y-261229029D01*
X312670970Y-261029704D01*
X312670965Y-261029700D01*
X312447317Y-260858088D01*
X312447311Y-260858084D01*
X312447309Y-260858083D01*
X312203190Y-260717140D01*
X312203179Y-260717135D01*
X311942743Y-260609259D01*
X311670439Y-260536295D01*
X311390958Y-260499500D01*
X311390951Y-260499500D01*
X311109049Y-260499500D01*
X311109041Y-260499500D01*
X310829560Y-260536295D01*
X310557256Y-260609259D01*
X310296820Y-260717135D01*
X310296809Y-260717140D01*
X310052690Y-260858083D01*
X310052682Y-260858089D01*
X309829029Y-261029704D01*
X309629704Y-261229029D01*
X309458089Y-261452682D01*
X309458083Y-261452690D01*
X309317140Y-261696809D01*
X309317135Y-261696820D01*
X309209259Y-261957256D01*
X309136295Y-262229560D01*
X309099500Y-262509041D01*
X300900499Y-262509041D01*
X300863704Y-262229558D01*
X300790742Y-261957261D01*
X300682863Y-261696817D01*
X300682861Y-261696814D01*
X300682859Y-261696809D01*
X300541916Y-261452690D01*
X300541912Y-261452683D01*
X300370300Y-261229035D01*
X300370298Y-261229033D01*
X300370295Y-261229029D01*
X300170970Y-261029704D01*
X300170965Y-261029700D01*
X299947317Y-260858088D01*
X299947311Y-260858084D01*
X299947309Y-260858083D01*
X299703190Y-260717140D01*
X299703179Y-260717135D01*
X299442743Y-260609259D01*
X299170439Y-260536295D01*
X298890958Y-260499500D01*
X298890951Y-260499500D01*
X298609049Y-260499500D01*
X298609041Y-260499500D01*
X298329560Y-260536295D01*
X298057256Y-260609259D01*
X297796820Y-260717135D01*
X297796809Y-260717140D01*
X297552690Y-260858083D01*
X297552682Y-260858089D01*
X297329029Y-261029704D01*
X297129704Y-261229029D01*
X296958089Y-261452682D01*
X296958083Y-261452690D01*
X296817140Y-261696809D01*
X296817135Y-261696820D01*
X296709259Y-261957256D01*
X296636295Y-262229560D01*
X296599500Y-262509041D01*
X288400499Y-262509041D01*
X288363704Y-262229558D01*
X288290742Y-261957261D01*
X288182863Y-261696817D01*
X288182861Y-261696814D01*
X288182859Y-261696809D01*
X288041916Y-261452690D01*
X288041912Y-261452683D01*
X287870300Y-261229035D01*
X287870298Y-261229033D01*
X287870295Y-261229029D01*
X287670970Y-261029704D01*
X287670965Y-261029700D01*
X287447317Y-260858088D01*
X287447311Y-260858084D01*
X287447309Y-260858083D01*
X287203190Y-260717140D01*
X287203179Y-260717135D01*
X286942743Y-260609259D01*
X286670439Y-260536295D01*
X286390958Y-260499500D01*
X286390951Y-260499500D01*
X286109049Y-260499500D01*
X286109041Y-260499500D01*
X285829560Y-260536295D01*
X285557256Y-260609259D01*
X285296820Y-260717135D01*
X285296809Y-260717140D01*
X285052690Y-260858083D01*
X285052682Y-260858089D01*
X284829029Y-261029704D01*
X284629704Y-261229029D01*
X284458089Y-261452682D01*
X284458083Y-261452690D01*
X284317140Y-261696809D01*
X284317135Y-261696820D01*
X284209259Y-261957256D01*
X284136295Y-262229560D01*
X284099500Y-262509041D01*
X268400499Y-262509041D01*
X268363704Y-262229558D01*
X268290742Y-261957261D01*
X268182863Y-261696817D01*
X268182861Y-261696814D01*
X268182859Y-261696809D01*
X268041916Y-261452690D01*
X268041912Y-261452683D01*
X267870300Y-261229035D01*
X267870298Y-261229033D01*
X267870295Y-261229029D01*
X267670970Y-261029704D01*
X267670965Y-261029700D01*
X267447317Y-260858088D01*
X267447311Y-260858084D01*
X267447309Y-260858083D01*
X267203190Y-260717140D01*
X267203179Y-260717135D01*
X266942743Y-260609259D01*
X266670439Y-260536295D01*
X266390958Y-260499500D01*
X266390951Y-260499500D01*
X266109049Y-260499500D01*
X266109041Y-260499500D01*
X265829560Y-260536295D01*
X265557256Y-260609259D01*
X265296820Y-260717135D01*
X265296809Y-260717140D01*
X265052690Y-260858083D01*
X265052682Y-260858089D01*
X264829029Y-261029704D01*
X264629704Y-261229029D01*
X264458089Y-261452682D01*
X264458083Y-261452690D01*
X264317140Y-261696809D01*
X264317135Y-261696820D01*
X264209259Y-261957256D01*
X264136295Y-262229560D01*
X264099500Y-262509041D01*
X255900499Y-262509041D01*
X255863704Y-262229558D01*
X255790742Y-261957261D01*
X255682863Y-261696817D01*
X255682861Y-261696814D01*
X255682859Y-261696809D01*
X255541916Y-261452690D01*
X255541912Y-261452683D01*
X255370300Y-261229035D01*
X255370298Y-261229033D01*
X255370295Y-261229029D01*
X255170970Y-261029704D01*
X255170965Y-261029700D01*
X254947317Y-260858088D01*
X254947311Y-260858084D01*
X254947309Y-260858083D01*
X254703190Y-260717140D01*
X254703179Y-260717135D01*
X254442743Y-260609259D01*
X254170439Y-260536295D01*
X253890958Y-260499500D01*
X253890951Y-260499500D01*
X253609049Y-260499500D01*
X253609041Y-260499500D01*
X253329560Y-260536295D01*
X253057256Y-260609259D01*
X252796820Y-260717135D01*
X252796809Y-260717140D01*
X252552690Y-260858083D01*
X252552682Y-260858089D01*
X252329029Y-261029704D01*
X252129704Y-261229029D01*
X251958089Y-261452682D01*
X251958083Y-261452690D01*
X251817140Y-261696809D01*
X251817135Y-261696820D01*
X251709259Y-261957256D01*
X251636295Y-262229560D01*
X251599500Y-262509041D01*
X235900499Y-262509041D01*
X235863704Y-262229558D01*
X235790742Y-261957261D01*
X235682863Y-261696817D01*
X235682861Y-261696814D01*
X235682859Y-261696809D01*
X235541916Y-261452690D01*
X235541912Y-261452683D01*
X235370300Y-261229035D01*
X235370298Y-261229033D01*
X235370295Y-261229029D01*
X235170970Y-261029704D01*
X235170965Y-261029700D01*
X234947317Y-260858088D01*
X234947311Y-260858084D01*
X234947309Y-260858083D01*
X234703190Y-260717140D01*
X234703179Y-260717135D01*
X234442743Y-260609259D01*
X234170439Y-260536295D01*
X233890958Y-260499500D01*
X233890951Y-260499500D01*
X233609049Y-260499500D01*
X233609041Y-260499500D01*
X233329560Y-260536295D01*
X233057256Y-260609259D01*
X232796820Y-260717135D01*
X232796809Y-260717140D01*
X232552690Y-260858083D01*
X232552682Y-260858089D01*
X232329029Y-261029704D01*
X232129704Y-261229029D01*
X231958089Y-261452682D01*
X231958083Y-261452690D01*
X231817140Y-261696809D01*
X231817135Y-261696820D01*
X231709259Y-261957256D01*
X231636295Y-262229560D01*
X231599500Y-262509041D01*
X223400499Y-262509041D01*
X223363704Y-262229558D01*
X223290742Y-261957261D01*
X223182863Y-261696817D01*
X223182861Y-261696814D01*
X223182859Y-261696809D01*
X223041916Y-261452690D01*
X223041912Y-261452683D01*
X222870300Y-261229035D01*
X222870298Y-261229033D01*
X222870295Y-261229029D01*
X222670970Y-261029704D01*
X222670965Y-261029700D01*
X222447317Y-260858088D01*
X222447311Y-260858084D01*
X222447309Y-260858083D01*
X222203190Y-260717140D01*
X222203179Y-260717135D01*
X221942743Y-260609259D01*
X221670439Y-260536295D01*
X221390958Y-260499500D01*
X221390951Y-260499500D01*
X221109049Y-260499500D01*
X221109041Y-260499500D01*
X220829560Y-260536295D01*
X220557256Y-260609259D01*
X220296820Y-260717135D01*
X220296809Y-260717140D01*
X220052690Y-260858083D01*
X220052682Y-260858089D01*
X219829029Y-261029704D01*
X219629704Y-261229029D01*
X219458089Y-261452682D01*
X219458083Y-261452690D01*
X219317140Y-261696809D01*
X219317135Y-261696820D01*
X219209259Y-261957256D01*
X219136295Y-262229560D01*
X219099500Y-262509041D01*
X210900499Y-262509041D01*
X210863704Y-262229558D01*
X210790742Y-261957261D01*
X210682863Y-261696817D01*
X210682861Y-261696814D01*
X210682859Y-261696809D01*
X210541916Y-261452690D01*
X210541912Y-261452683D01*
X210370300Y-261229035D01*
X210370298Y-261229033D01*
X210370295Y-261229029D01*
X210170970Y-261029704D01*
X210170965Y-261029700D01*
X209947317Y-260858088D01*
X209947311Y-260858084D01*
X209947309Y-260858083D01*
X209703190Y-260717140D01*
X209703179Y-260717135D01*
X209442743Y-260609259D01*
X209170439Y-260536295D01*
X208890958Y-260499500D01*
X208890951Y-260499500D01*
X208609049Y-260499500D01*
X208609041Y-260499500D01*
X208329560Y-260536295D01*
X208057256Y-260609259D01*
X207796820Y-260717135D01*
X207796809Y-260717140D01*
X207552690Y-260858083D01*
X207552682Y-260858089D01*
X207329029Y-261029704D01*
X207129704Y-261229029D01*
X206958089Y-261452682D01*
X206958083Y-261452690D01*
X206817140Y-261696809D01*
X206817135Y-261696820D01*
X206709259Y-261957256D01*
X206636295Y-262229560D01*
X206599500Y-262509041D01*
X190900499Y-262509041D01*
X190863704Y-262229558D01*
X190790742Y-261957261D01*
X190682863Y-261696817D01*
X190682861Y-261696814D01*
X190682859Y-261696809D01*
X190541916Y-261452690D01*
X190541912Y-261452683D01*
X190370300Y-261229035D01*
X190370298Y-261229033D01*
X190370295Y-261229029D01*
X190170970Y-261029704D01*
X190170965Y-261029700D01*
X189947317Y-260858088D01*
X189947311Y-260858084D01*
X189947309Y-260858083D01*
X189703190Y-260717140D01*
X189703179Y-260717135D01*
X189442743Y-260609259D01*
X189170439Y-260536295D01*
X188890958Y-260499500D01*
X188890951Y-260499500D01*
X188609049Y-260499500D01*
X188609041Y-260499500D01*
X188329560Y-260536295D01*
X188057256Y-260609259D01*
X187796820Y-260717135D01*
X187796809Y-260717140D01*
X187552690Y-260858083D01*
X187552682Y-260858089D01*
X187329029Y-261029704D01*
X187129704Y-261229029D01*
X186958089Y-261452682D01*
X186958083Y-261452690D01*
X186817140Y-261696809D01*
X186817135Y-261696820D01*
X186709259Y-261957256D01*
X186636295Y-262229560D01*
X186599500Y-262509041D01*
X178400499Y-262509041D01*
X178363704Y-262229558D01*
X178290742Y-261957261D01*
X178182863Y-261696817D01*
X178182861Y-261696814D01*
X178182859Y-261696809D01*
X178041916Y-261452690D01*
X178041912Y-261452683D01*
X177870300Y-261229035D01*
X177870298Y-261229033D01*
X177870295Y-261229029D01*
X177670970Y-261029704D01*
X177670965Y-261029700D01*
X177447317Y-260858088D01*
X177447311Y-260858084D01*
X177447309Y-260858083D01*
X177203190Y-260717140D01*
X177203179Y-260717135D01*
X176942743Y-260609259D01*
X176670439Y-260536295D01*
X176390958Y-260499500D01*
X176390951Y-260499500D01*
X176109049Y-260499500D01*
X176109041Y-260499500D01*
X175829560Y-260536295D01*
X175557256Y-260609259D01*
X175296820Y-260717135D01*
X175296809Y-260717140D01*
X175052690Y-260858083D01*
X175052682Y-260858089D01*
X174829029Y-261029704D01*
X174629704Y-261229029D01*
X174458089Y-261452682D01*
X174458083Y-261452690D01*
X174317140Y-261696809D01*
X174317135Y-261696820D01*
X174209259Y-261957256D01*
X174136295Y-262229560D01*
X174099500Y-262509041D01*
X165900499Y-262509041D01*
X165863704Y-262229558D01*
X165790742Y-261957261D01*
X165682863Y-261696817D01*
X165682861Y-261696814D01*
X165682859Y-261696809D01*
X165541916Y-261452690D01*
X165541912Y-261452683D01*
X165370300Y-261229035D01*
X165370298Y-261229033D01*
X165370295Y-261229029D01*
X165170970Y-261029704D01*
X165170965Y-261029700D01*
X164947317Y-260858088D01*
X164947311Y-260858084D01*
X164947309Y-260858083D01*
X164703190Y-260717140D01*
X164703179Y-260717135D01*
X164442743Y-260609259D01*
X164170439Y-260536295D01*
X163890958Y-260499500D01*
X163890951Y-260499500D01*
X163609049Y-260499500D01*
X163609041Y-260499500D01*
X163329560Y-260536295D01*
X163057256Y-260609259D01*
X162796820Y-260717135D01*
X162796809Y-260717140D01*
X162552690Y-260858083D01*
X162552682Y-260858089D01*
X162329029Y-261029704D01*
X162129704Y-261229029D01*
X161958089Y-261452682D01*
X161958083Y-261452690D01*
X161817140Y-261696809D01*
X161817135Y-261696820D01*
X161709259Y-261957256D01*
X161636295Y-262229560D01*
X161599500Y-262509041D01*
X153400499Y-262509041D01*
X153363704Y-262229558D01*
X153290742Y-261957261D01*
X153182863Y-261696817D01*
X153182861Y-261696814D01*
X153182859Y-261696809D01*
X153041916Y-261452690D01*
X153041912Y-261452683D01*
X152870300Y-261229035D01*
X152870298Y-261229033D01*
X152870295Y-261229029D01*
X152670970Y-261029704D01*
X152670965Y-261029700D01*
X152447317Y-260858088D01*
X152447311Y-260858084D01*
X152447309Y-260858083D01*
X152203190Y-260717140D01*
X152203179Y-260717135D01*
X151942743Y-260609259D01*
X151670439Y-260536295D01*
X151390958Y-260499500D01*
X151390951Y-260499500D01*
X151109049Y-260499500D01*
X151109041Y-260499500D01*
X150829560Y-260536295D01*
X150557256Y-260609259D01*
X150296820Y-260717135D01*
X150296809Y-260717140D01*
X150052690Y-260858083D01*
X150052682Y-260858089D01*
X149829029Y-261029704D01*
X149629704Y-261229029D01*
X149458089Y-261452682D01*
X149458083Y-261452690D01*
X149317140Y-261696809D01*
X149317135Y-261696820D01*
X149209259Y-261957256D01*
X149136295Y-262229560D01*
X149099500Y-262509041D01*
X140900499Y-262509041D01*
X140863704Y-262229558D01*
X140790742Y-261957261D01*
X140682863Y-261696817D01*
X140682861Y-261696814D01*
X140682859Y-261696809D01*
X140541916Y-261452690D01*
X140541912Y-261452683D01*
X140370300Y-261229035D01*
X140370298Y-261229033D01*
X140370295Y-261229029D01*
X140170970Y-261029704D01*
X140170965Y-261029700D01*
X139947317Y-260858088D01*
X139947311Y-260858084D01*
X139947309Y-260858083D01*
X139703190Y-260717140D01*
X139703179Y-260717135D01*
X139442743Y-260609259D01*
X139170439Y-260536295D01*
X138890958Y-260499500D01*
X138890951Y-260499500D01*
X138609049Y-260499500D01*
X138609041Y-260499500D01*
X138329560Y-260536295D01*
X138057256Y-260609259D01*
X137796820Y-260717135D01*
X137796809Y-260717140D01*
X137552690Y-260858083D01*
X137552682Y-260858089D01*
X137329029Y-261029704D01*
X137129704Y-261229029D01*
X136958089Y-261452682D01*
X136958083Y-261452690D01*
X136817140Y-261696809D01*
X136817135Y-261696820D01*
X136709259Y-261957256D01*
X136636295Y-262229560D01*
X136599500Y-262509041D01*
X15000500Y-262509041D01*
X15000500Y-245573646D01*
X134699500Y-245573646D01*
X134699500Y-245986353D01*
X134739952Y-246397084D01*
X134820464Y-246801848D01*
X134820467Y-246801859D01*
X134940274Y-247196814D01*
X135098214Y-247578113D01*
X135098216Y-247578118D01*
X135292759Y-247942081D01*
X135292770Y-247942099D01*
X135522052Y-248285244D01*
X135522062Y-248285258D01*
X135783885Y-248604291D01*
X136075708Y-248896114D01*
X136075713Y-248896118D01*
X136075714Y-248896119D01*
X136394747Y-249157942D01*
X136737907Y-249387234D01*
X136737916Y-249387239D01*
X136737918Y-249387240D01*
X137101881Y-249581783D01*
X137101883Y-249581783D01*
X137101889Y-249581787D01*
X137483187Y-249739726D01*
X137878131Y-249859530D01*
X137878137Y-249859531D01*
X137878140Y-249859532D01*
X137878151Y-249859535D01*
X138282915Y-249940047D01*
X138693643Y-249980500D01*
X138693646Y-249980500D01*
X139106354Y-249980500D01*
X139106357Y-249980500D01*
X139517085Y-249940047D01*
X139595884Y-249924372D01*
X139921848Y-249859535D01*
X139921859Y-249859532D01*
X139921859Y-249859531D01*
X139921869Y-249859530D01*
X140316813Y-249739726D01*
X140698111Y-249581787D01*
X141062093Y-249387234D01*
X141405253Y-249157942D01*
X141724286Y-248896119D01*
X142016119Y-248604286D01*
X142277942Y-248285253D01*
X142507234Y-247942093D01*
X142701787Y-247578111D01*
X142859726Y-247196813D01*
X142979530Y-246801869D01*
X142979532Y-246801859D01*
X142979535Y-246801848D01*
X143060047Y-246397084D01*
X143100500Y-245986353D01*
X143100500Y-245573646D01*
X147199500Y-245573646D01*
X147199500Y-245986353D01*
X147239952Y-246397084D01*
X147320464Y-246801848D01*
X147320467Y-246801859D01*
X147440274Y-247196814D01*
X147598214Y-247578113D01*
X147598216Y-247578118D01*
X147792759Y-247942081D01*
X147792770Y-247942099D01*
X148022052Y-248285244D01*
X148022062Y-248285258D01*
X148283885Y-248604291D01*
X148575708Y-248896114D01*
X148575713Y-248896118D01*
X148575714Y-248896119D01*
X148894747Y-249157942D01*
X149237907Y-249387234D01*
X149237916Y-249387239D01*
X149237918Y-249387240D01*
X149601881Y-249581783D01*
X149601883Y-249581783D01*
X149601889Y-249581787D01*
X149983187Y-249739726D01*
X150378131Y-249859530D01*
X150378137Y-249859531D01*
X150378140Y-249859532D01*
X150378151Y-249859535D01*
X150782915Y-249940047D01*
X151193643Y-249980500D01*
X151193646Y-249980500D01*
X151606354Y-249980500D01*
X151606357Y-249980500D01*
X152017085Y-249940047D01*
X152095884Y-249924372D01*
X152421848Y-249859535D01*
X152421859Y-249859532D01*
X152421859Y-249859531D01*
X152421869Y-249859530D01*
X152816813Y-249739726D01*
X153198111Y-249581787D01*
X153562093Y-249387234D01*
X153905253Y-249157942D01*
X154224286Y-248896119D01*
X154516119Y-248604286D01*
X154777942Y-248285253D01*
X155007234Y-247942093D01*
X155201787Y-247578111D01*
X155359726Y-247196813D01*
X155479530Y-246801869D01*
X155479532Y-246801859D01*
X155479535Y-246801848D01*
X155560047Y-246397084D01*
X155600500Y-245986353D01*
X155600500Y-245573646D01*
X159699500Y-245573646D01*
X159699500Y-245986353D01*
X159739952Y-246397084D01*
X159820464Y-246801848D01*
X159820467Y-246801859D01*
X159940274Y-247196814D01*
X160098214Y-247578113D01*
X160098216Y-247578118D01*
X160292759Y-247942081D01*
X160292770Y-247942099D01*
X160522052Y-248285244D01*
X160522062Y-248285258D01*
X160783885Y-248604291D01*
X161075708Y-248896114D01*
X161075713Y-248896118D01*
X161075714Y-248896119D01*
X161394747Y-249157942D01*
X161737907Y-249387234D01*
X161737916Y-249387239D01*
X161737918Y-249387240D01*
X162101881Y-249581783D01*
X162101883Y-249581783D01*
X162101889Y-249581787D01*
X162483187Y-249739726D01*
X162878131Y-249859530D01*
X162878137Y-249859531D01*
X162878140Y-249859532D01*
X162878151Y-249859535D01*
X163282915Y-249940047D01*
X163693643Y-249980500D01*
X163693646Y-249980500D01*
X164106354Y-249980500D01*
X164106357Y-249980500D01*
X164517085Y-249940047D01*
X164595884Y-249924372D01*
X164921848Y-249859535D01*
X164921859Y-249859532D01*
X164921859Y-249859531D01*
X164921869Y-249859530D01*
X165316813Y-249739726D01*
X165698111Y-249581787D01*
X166062093Y-249387234D01*
X166405253Y-249157942D01*
X166724286Y-248896119D01*
X167016119Y-248604286D01*
X167277942Y-248285253D01*
X167507234Y-247942093D01*
X167701787Y-247578111D01*
X167859726Y-247196813D01*
X167979530Y-246801869D01*
X167979532Y-246801859D01*
X167979535Y-246801848D01*
X168060047Y-246397084D01*
X168100500Y-245986353D01*
X168100500Y-245573646D01*
X172199500Y-245573646D01*
X172199500Y-245986353D01*
X172239952Y-246397084D01*
X172320464Y-246801848D01*
X172320467Y-246801859D01*
X172440274Y-247196814D01*
X172598214Y-247578113D01*
X172598216Y-247578118D01*
X172792759Y-247942081D01*
X172792770Y-247942099D01*
X173022052Y-248285244D01*
X173022062Y-248285258D01*
X173283885Y-248604291D01*
X173575708Y-248896114D01*
X173575713Y-248896118D01*
X173575714Y-248896119D01*
X173894747Y-249157942D01*
X174237907Y-249387234D01*
X174237916Y-249387239D01*
X174237918Y-249387240D01*
X174601881Y-249581783D01*
X174601883Y-249581783D01*
X174601889Y-249581787D01*
X174983187Y-249739726D01*
X175378131Y-249859530D01*
X175378137Y-249859531D01*
X175378140Y-249859532D01*
X175378151Y-249859535D01*
X175782915Y-249940047D01*
X176193643Y-249980500D01*
X176193646Y-249980500D01*
X176606354Y-249980500D01*
X176606357Y-249980500D01*
X177017085Y-249940047D01*
X177095884Y-249924372D01*
X177421848Y-249859535D01*
X177421859Y-249859532D01*
X177421859Y-249859531D01*
X177421869Y-249859530D01*
X177816813Y-249739726D01*
X178198111Y-249581787D01*
X178562093Y-249387234D01*
X178905253Y-249157942D01*
X179224286Y-248896119D01*
X179516119Y-248604286D01*
X179777942Y-248285253D01*
X180007234Y-247942093D01*
X180201787Y-247578111D01*
X180359726Y-247196813D01*
X180479530Y-246801869D01*
X180479532Y-246801859D01*
X180479535Y-246801848D01*
X180560047Y-246397084D01*
X180600500Y-245986353D01*
X180600500Y-245573646D01*
X184699500Y-245573646D01*
X184699500Y-245986353D01*
X184739952Y-246397084D01*
X184820464Y-246801848D01*
X184820467Y-246801859D01*
X184940274Y-247196814D01*
X185098214Y-247578113D01*
X185098216Y-247578118D01*
X185292759Y-247942081D01*
X185292770Y-247942099D01*
X185522052Y-248285244D01*
X185522062Y-248285258D01*
X185783885Y-248604291D01*
X186075708Y-248896114D01*
X186075713Y-248896118D01*
X186075714Y-248896119D01*
X186394747Y-249157942D01*
X186737907Y-249387234D01*
X186737916Y-249387239D01*
X186737918Y-249387240D01*
X187101881Y-249581783D01*
X187101883Y-249581783D01*
X187101889Y-249581787D01*
X187483187Y-249739726D01*
X187878131Y-249859530D01*
X187878137Y-249859531D01*
X187878140Y-249859532D01*
X187878151Y-249859535D01*
X188282915Y-249940047D01*
X188693643Y-249980500D01*
X188693646Y-249980500D01*
X189106354Y-249980500D01*
X189106357Y-249980500D01*
X189517085Y-249940047D01*
X189595884Y-249924372D01*
X189921848Y-249859535D01*
X189921859Y-249859532D01*
X189921859Y-249859531D01*
X189921869Y-249859530D01*
X190316813Y-249739726D01*
X190698111Y-249581787D01*
X191062093Y-249387234D01*
X191405253Y-249157942D01*
X191724286Y-248896119D01*
X192016119Y-248604286D01*
X192277942Y-248285253D01*
X192507234Y-247942093D01*
X192701787Y-247578111D01*
X192859726Y-247196813D01*
X192979530Y-246801869D01*
X192979532Y-246801859D01*
X192979535Y-246801848D01*
X193060047Y-246397084D01*
X193100500Y-245986353D01*
X193100500Y-245733952D01*
X231149500Y-245733952D01*
X231149500Y-246026047D01*
X231182199Y-246316271D01*
X231182202Y-246316285D01*
X231247196Y-246601044D01*
X231247197Y-246601046D01*
X231343665Y-246876738D01*
X231470393Y-247139890D01*
X231470395Y-247139893D01*
X231625792Y-247387206D01*
X231807902Y-247615565D01*
X232014435Y-247822098D01*
X232242794Y-248004208D01*
X232490107Y-248159605D01*
X232753263Y-248286335D01*
X233028955Y-248382803D01*
X233313714Y-248447798D01*
X233313723Y-248447799D01*
X233313728Y-248447800D01*
X233507210Y-248469599D01*
X233603953Y-248480499D01*
X233603956Y-248480500D01*
X233603959Y-248480500D01*
X233896044Y-248480500D01*
X233896045Y-248480499D01*
X234044371Y-248463787D01*
X234186271Y-248447800D01*
X234186274Y-248447799D01*
X234186286Y-248447798D01*
X234471045Y-248382803D01*
X234746737Y-248286335D01*
X235009893Y-248159605D01*
X235257206Y-248004208D01*
X235485565Y-247822098D01*
X235692098Y-247615565D01*
X235874208Y-247387206D01*
X236029605Y-247139893D01*
X236156335Y-246876737D01*
X236252803Y-246601045D01*
X236317798Y-246316286D01*
X236350500Y-246026041D01*
X236350500Y-245733959D01*
X236350499Y-245733952D01*
X263649500Y-245733952D01*
X263649500Y-246026047D01*
X263682199Y-246316271D01*
X263682202Y-246316285D01*
X263747196Y-246601044D01*
X263747197Y-246601046D01*
X263843665Y-246876738D01*
X263970393Y-247139890D01*
X263970395Y-247139893D01*
X264125792Y-247387206D01*
X264307902Y-247615565D01*
X264514435Y-247822098D01*
X264742794Y-248004208D01*
X264990107Y-248159605D01*
X265253263Y-248286335D01*
X265528955Y-248382803D01*
X265813714Y-248447798D01*
X265813723Y-248447799D01*
X265813728Y-248447800D01*
X266007210Y-248469599D01*
X266103953Y-248480499D01*
X266103956Y-248480500D01*
X266103959Y-248480500D01*
X266396044Y-248480500D01*
X266396045Y-248480499D01*
X266544371Y-248463787D01*
X266686271Y-248447800D01*
X266686274Y-248447799D01*
X266686286Y-248447798D01*
X266971045Y-248382803D01*
X267246737Y-248286335D01*
X267509893Y-248159605D01*
X267757206Y-248004208D01*
X267985565Y-247822098D01*
X268192098Y-247615565D01*
X268374208Y-247387206D01*
X268529605Y-247139893D01*
X268656335Y-246876737D01*
X268752803Y-246601045D01*
X268817798Y-246316286D01*
X268850500Y-246026041D01*
X268850500Y-245733959D01*
X268839599Y-245637210D01*
X268817800Y-245443728D01*
X268817799Y-245443723D01*
X268817798Y-245443714D01*
X268752803Y-245158955D01*
X268656335Y-244883263D01*
X268529605Y-244620107D01*
X268374208Y-244372794D01*
X268192098Y-244144435D01*
X267985565Y-243937902D01*
X267757206Y-243755792D01*
X267509893Y-243600395D01*
X267509890Y-243600393D01*
X267246738Y-243473665D01*
X266971046Y-243377197D01*
X266971044Y-243377196D01*
X266751280Y-243327036D01*
X266686286Y-243312202D01*
X266686283Y-243312201D01*
X266686271Y-243312199D01*
X266396047Y-243279500D01*
X266396041Y-243279500D01*
X266103959Y-243279500D01*
X266103952Y-243279500D01*
X265813728Y-243312199D01*
X265813714Y-243312202D01*
X265528955Y-243377196D01*
X265528953Y-243377197D01*
X265253261Y-243473665D01*
X264990109Y-243600393D01*
X264742795Y-243755791D01*
X264514435Y-243937901D01*
X264307901Y-244144435D01*
X264125791Y-244372795D01*
X263970393Y-244620109D01*
X263843665Y-244883261D01*
X263747197Y-245158953D01*
X263747196Y-245158955D01*
X263682202Y-245443714D01*
X263682199Y-245443728D01*
X263649500Y-245733952D01*
X236350499Y-245733952D01*
X236339599Y-245637210D01*
X236317800Y-245443728D01*
X236317799Y-245443723D01*
X236317798Y-245443714D01*
X236252803Y-245158955D01*
X236156335Y-244883263D01*
X236029605Y-244620107D01*
X235874208Y-244372794D01*
X235692098Y-244144435D01*
X235485565Y-243937902D01*
X235257206Y-243755792D01*
X235009893Y-243600395D01*
X235009890Y-243600393D01*
X234746738Y-243473665D01*
X234471046Y-243377197D01*
X234471044Y-243377196D01*
X234251280Y-243327036D01*
X234186286Y-243312202D01*
X234186283Y-243312201D01*
X234186271Y-243312199D01*
X233896047Y-243279500D01*
X233896041Y-243279500D01*
X233603959Y-243279500D01*
X233603952Y-243279500D01*
X233313728Y-243312199D01*
X233313714Y-243312202D01*
X233028955Y-243377196D01*
X233028953Y-243377197D01*
X232753261Y-243473665D01*
X232490109Y-243600393D01*
X232242795Y-243755791D01*
X232014435Y-243937901D01*
X231807901Y-244144435D01*
X231625791Y-244372795D01*
X231470393Y-244620109D01*
X231343665Y-244883261D01*
X231247197Y-245158953D01*
X231247196Y-245158955D01*
X231182202Y-245443714D01*
X231182199Y-245443728D01*
X231149500Y-245733952D01*
X193100500Y-245733952D01*
X193100500Y-245573646D01*
X193087704Y-245443728D01*
X193060047Y-245162915D01*
X193059259Y-245158953D01*
X192979535Y-244758151D01*
X192979532Y-244758140D01*
X192979531Y-244758137D01*
X192979530Y-244758131D01*
X192859726Y-244363187D01*
X192701787Y-243981889D01*
X192678275Y-243937902D01*
X192507240Y-243617918D01*
X192507239Y-243617916D01*
X192507234Y-243617907D01*
X192277942Y-243274747D01*
X192016119Y-242955714D01*
X192016118Y-242955713D01*
X192016114Y-242955708D01*
X191724291Y-242663885D01*
X191405258Y-242402062D01*
X191405257Y-242402061D01*
X191405253Y-242402058D01*
X191062093Y-242172766D01*
X191062088Y-242172763D01*
X191062081Y-242172759D01*
X190698118Y-241978216D01*
X190698113Y-241978214D01*
X190316814Y-241820274D01*
X189921859Y-241700467D01*
X189921848Y-241700464D01*
X189517084Y-241619952D01*
X189207741Y-241589485D01*
X189106357Y-241579500D01*
X188693643Y-241579500D01*
X188599966Y-241588726D01*
X188282915Y-241619952D01*
X187878151Y-241700464D01*
X187878140Y-241700467D01*
X187483185Y-241820274D01*
X187101886Y-241978214D01*
X187101881Y-241978216D01*
X186737918Y-242172759D01*
X186737900Y-242172770D01*
X186394755Y-242402052D01*
X186394741Y-242402062D01*
X186075708Y-242663885D01*
X185783885Y-242955708D01*
X185522062Y-243274741D01*
X185522052Y-243274755D01*
X185292770Y-243617900D01*
X185292759Y-243617918D01*
X185098216Y-243981881D01*
X185098214Y-243981886D01*
X184940274Y-244363185D01*
X184820467Y-244758140D01*
X184820464Y-244758151D01*
X184739952Y-245162915D01*
X184699500Y-245573646D01*
X180600500Y-245573646D01*
X180587704Y-245443728D01*
X180560047Y-245162915D01*
X180559259Y-245158953D01*
X180479535Y-244758151D01*
X180479532Y-244758140D01*
X180479531Y-244758137D01*
X180479530Y-244758131D01*
X180359726Y-244363187D01*
X180201787Y-243981889D01*
X180178275Y-243937902D01*
X180007240Y-243617918D01*
X180007239Y-243617916D01*
X180007234Y-243617907D01*
X179777942Y-243274747D01*
X179516119Y-242955714D01*
X179516118Y-242955713D01*
X179516114Y-242955708D01*
X179224291Y-242663885D01*
X178905258Y-242402062D01*
X178905257Y-242402061D01*
X178905253Y-242402058D01*
X178562093Y-242172766D01*
X178562088Y-242172763D01*
X178562081Y-242172759D01*
X178198118Y-241978216D01*
X178198113Y-241978214D01*
X177816814Y-241820274D01*
X177421859Y-241700467D01*
X177421848Y-241700464D01*
X177017084Y-241619952D01*
X176707741Y-241589485D01*
X176606357Y-241579500D01*
X176193643Y-241579500D01*
X176099966Y-241588726D01*
X175782915Y-241619952D01*
X175378151Y-241700464D01*
X175378140Y-241700467D01*
X174983185Y-241820274D01*
X174601886Y-241978214D01*
X174601881Y-241978216D01*
X174237918Y-242172759D01*
X174237900Y-242172770D01*
X173894755Y-242402052D01*
X173894741Y-242402062D01*
X173575708Y-242663885D01*
X173283885Y-242955708D01*
X173022062Y-243274741D01*
X173022052Y-243274755D01*
X172792770Y-243617900D01*
X172792759Y-243617918D01*
X172598216Y-243981881D01*
X172598214Y-243981886D01*
X172440274Y-244363185D01*
X172320467Y-244758140D01*
X172320464Y-244758151D01*
X172239952Y-245162915D01*
X172199500Y-245573646D01*
X168100500Y-245573646D01*
X168087704Y-245443728D01*
X168060047Y-245162915D01*
X168059259Y-245158953D01*
X167979535Y-244758151D01*
X167979532Y-244758140D01*
X167979531Y-244758137D01*
X167979530Y-244758131D01*
X167859726Y-244363187D01*
X167701787Y-243981889D01*
X167678275Y-243937902D01*
X167507240Y-243617918D01*
X167507239Y-243617916D01*
X167507234Y-243617907D01*
X167277942Y-243274747D01*
X167016119Y-242955714D01*
X167016118Y-242955713D01*
X167016114Y-242955708D01*
X166724291Y-242663885D01*
X166405258Y-242402062D01*
X166405257Y-242402061D01*
X166405253Y-242402058D01*
X166062093Y-242172766D01*
X166062088Y-242172763D01*
X166062081Y-242172759D01*
X165698118Y-241978216D01*
X165698113Y-241978214D01*
X165316814Y-241820274D01*
X164921859Y-241700467D01*
X164921848Y-241700464D01*
X164517084Y-241619952D01*
X164207741Y-241589485D01*
X164106357Y-241579500D01*
X163693643Y-241579500D01*
X163599966Y-241588726D01*
X163282915Y-241619952D01*
X162878151Y-241700464D01*
X162878140Y-241700467D01*
X162483185Y-241820274D01*
X162101886Y-241978214D01*
X162101881Y-241978216D01*
X161737918Y-242172759D01*
X161737900Y-242172770D01*
X161394755Y-242402052D01*
X161394741Y-242402062D01*
X161075708Y-242663885D01*
X160783885Y-242955708D01*
X160522062Y-243274741D01*
X160522052Y-243274755D01*
X160292770Y-243617900D01*
X160292759Y-243617918D01*
X160098216Y-243981881D01*
X160098214Y-243981886D01*
X159940274Y-244363185D01*
X159820467Y-244758140D01*
X159820464Y-244758151D01*
X159739952Y-245162915D01*
X159699500Y-245573646D01*
X155600500Y-245573646D01*
X155587704Y-245443728D01*
X155560047Y-245162915D01*
X155559259Y-245158953D01*
X155479535Y-244758151D01*
X155479532Y-244758140D01*
X155479531Y-244758137D01*
X155479530Y-244758131D01*
X155359726Y-244363187D01*
X155201787Y-243981889D01*
X155178275Y-243937902D01*
X155007240Y-243617918D01*
X155007239Y-243617916D01*
X155007234Y-243617907D01*
X154777942Y-243274747D01*
X154516119Y-242955714D01*
X154516118Y-242955713D01*
X154516114Y-242955708D01*
X154224291Y-242663885D01*
X153905258Y-242402062D01*
X153905257Y-242402061D01*
X153905253Y-242402058D01*
X153562093Y-242172766D01*
X153562088Y-242172763D01*
X153562081Y-242172759D01*
X153198118Y-241978216D01*
X153198113Y-241978214D01*
X152816814Y-241820274D01*
X152421859Y-241700467D01*
X152421848Y-241700464D01*
X152017084Y-241619952D01*
X151707741Y-241589485D01*
X151606357Y-241579500D01*
X151193643Y-241579500D01*
X151099966Y-241588726D01*
X150782915Y-241619952D01*
X150378151Y-241700464D01*
X150378140Y-241700467D01*
X149983185Y-241820274D01*
X149601886Y-241978214D01*
X149601881Y-241978216D01*
X149237918Y-242172759D01*
X149237900Y-242172770D01*
X148894755Y-242402052D01*
X148894741Y-242402062D01*
X148575708Y-242663885D01*
X148283885Y-242955708D01*
X148022062Y-243274741D01*
X148022052Y-243274755D01*
X147792770Y-243617900D01*
X147792759Y-243617918D01*
X147598216Y-243981881D01*
X147598214Y-243981886D01*
X147440274Y-244363185D01*
X147320467Y-244758140D01*
X147320464Y-244758151D01*
X147239952Y-245162915D01*
X147199500Y-245573646D01*
X143100500Y-245573646D01*
X143087704Y-245443728D01*
X143060047Y-245162915D01*
X143059259Y-245158953D01*
X142979535Y-244758151D01*
X142979532Y-244758140D01*
X142979531Y-244758137D01*
X142979530Y-244758131D01*
X142859726Y-244363187D01*
X142701787Y-243981889D01*
X142678275Y-243937902D01*
X142507240Y-243617918D01*
X142507239Y-243617916D01*
X142507234Y-243617907D01*
X142277942Y-243274747D01*
X142016119Y-242955714D01*
X142016118Y-242955713D01*
X142016114Y-242955708D01*
X141724291Y-242663885D01*
X141405258Y-242402062D01*
X141405257Y-242402061D01*
X141405253Y-242402058D01*
X141062093Y-242172766D01*
X141062088Y-242172763D01*
X141062081Y-242172759D01*
X140698118Y-241978216D01*
X140698113Y-241978214D01*
X140316814Y-241820274D01*
X139921859Y-241700467D01*
X139921848Y-241700464D01*
X139517084Y-241619952D01*
X139207741Y-241589485D01*
X139106357Y-241579500D01*
X138693643Y-241579500D01*
X138599966Y-241588726D01*
X138282915Y-241619952D01*
X137878151Y-241700464D01*
X137878140Y-241700467D01*
X137483185Y-241820274D01*
X137101886Y-241978214D01*
X137101881Y-241978216D01*
X136737918Y-242172759D01*
X136737900Y-242172770D01*
X136394755Y-242402052D01*
X136394741Y-242402062D01*
X136075708Y-242663885D01*
X135783885Y-242955708D01*
X135522062Y-243274741D01*
X135522052Y-243274755D01*
X135292770Y-243617900D01*
X135292759Y-243617918D01*
X135098216Y-243981881D01*
X135098214Y-243981886D01*
X134940274Y-244363185D01*
X134820467Y-244758140D01*
X134820464Y-244758151D01*
X134739952Y-245162915D01*
X134699500Y-245573646D01*
X15000500Y-245573646D01*
X15000500Y-236853952D01*
X288899500Y-236853952D01*
X288899500Y-237146047D01*
X288932199Y-237436271D01*
X288932202Y-237436285D01*
X288997196Y-237721044D01*
X288997197Y-237721046D01*
X289093665Y-237996738D01*
X289220393Y-238259890D01*
X289220395Y-238259893D01*
X289375792Y-238507206D01*
X289557902Y-238735565D01*
X289764435Y-238942098D01*
X289992794Y-239124208D01*
X290240107Y-239279605D01*
X290503263Y-239406335D01*
X290778955Y-239502803D01*
X291063714Y-239567798D01*
X291063723Y-239567799D01*
X291063728Y-239567800D01*
X291257210Y-239589599D01*
X291353953Y-239600499D01*
X291353956Y-239600500D01*
X291353959Y-239600500D01*
X291646044Y-239600500D01*
X291646045Y-239600499D01*
X291794371Y-239583787D01*
X291936271Y-239567800D01*
X291936274Y-239567799D01*
X291936286Y-239567798D01*
X292221045Y-239502803D01*
X292496737Y-239406335D01*
X292759893Y-239279605D01*
X293007206Y-239124208D01*
X293235565Y-238942098D01*
X293442098Y-238735565D01*
X293624208Y-238507206D01*
X293779605Y-238259893D01*
X293906335Y-237996737D01*
X294002803Y-237721045D01*
X294067798Y-237436286D01*
X294100500Y-237146041D01*
X294100500Y-236853959D01*
X294100499Y-236853952D01*
X313899500Y-236853952D01*
X313899500Y-237146047D01*
X313932199Y-237436271D01*
X313932202Y-237436285D01*
X313997196Y-237721044D01*
X313997197Y-237721046D01*
X314093665Y-237996738D01*
X314220393Y-238259890D01*
X314220395Y-238259893D01*
X314375792Y-238507206D01*
X314557902Y-238735565D01*
X314764435Y-238942098D01*
X314992794Y-239124208D01*
X315240107Y-239279605D01*
X315503263Y-239406335D01*
X315778955Y-239502803D01*
X316063714Y-239567798D01*
X316063723Y-239567799D01*
X316063728Y-239567800D01*
X316257210Y-239589599D01*
X316353953Y-239600499D01*
X316353956Y-239600500D01*
X316353959Y-239600500D01*
X316646044Y-239600500D01*
X316646045Y-239600499D01*
X316794371Y-239583787D01*
X316936271Y-239567800D01*
X316936274Y-239567799D01*
X316936286Y-239567798D01*
X317221045Y-239502803D01*
X317496737Y-239406335D01*
X317759893Y-239279605D01*
X318007206Y-239124208D01*
X318235565Y-238942098D01*
X318442098Y-238735565D01*
X318624208Y-238507206D01*
X318779605Y-238259893D01*
X318906335Y-237996737D01*
X319002803Y-237721045D01*
X319067798Y-237436286D01*
X319100500Y-237146041D01*
X319100500Y-236853959D01*
X319067798Y-236563714D01*
X319002803Y-236278955D01*
X318906335Y-236003263D01*
X318779605Y-235740107D01*
X318624208Y-235492794D01*
X318442098Y-235264435D01*
X318235565Y-235057902D01*
X318007206Y-234875792D01*
X317759893Y-234720395D01*
X317759890Y-234720393D01*
X317496738Y-234593665D01*
X317221046Y-234497197D01*
X317221044Y-234497196D01*
X317001280Y-234447036D01*
X316936286Y-234432202D01*
X316936283Y-234432201D01*
X316936271Y-234432199D01*
X316646047Y-234399500D01*
X316646041Y-234399500D01*
X316353959Y-234399500D01*
X316353952Y-234399500D01*
X316063728Y-234432199D01*
X316063714Y-234432202D01*
X315778955Y-234497196D01*
X315778953Y-234497197D01*
X315503261Y-234593665D01*
X315240109Y-234720393D01*
X314992795Y-234875791D01*
X314764435Y-235057901D01*
X314557901Y-235264435D01*
X314375791Y-235492795D01*
X314220393Y-235740109D01*
X314093665Y-236003261D01*
X313997197Y-236278953D01*
X313997196Y-236278955D01*
X313932202Y-236563714D01*
X313932199Y-236563728D01*
X313899500Y-236853952D01*
X294100499Y-236853952D01*
X294067798Y-236563714D01*
X294002803Y-236278955D01*
X293906335Y-236003263D01*
X293779605Y-235740107D01*
X293624208Y-235492794D01*
X293442098Y-235264435D01*
X293235565Y-235057902D01*
X293007206Y-234875792D01*
X292759893Y-234720395D01*
X292759890Y-234720393D01*
X292496738Y-234593665D01*
X292221046Y-234497197D01*
X292221044Y-234497196D01*
X292001280Y-234447036D01*
X291936286Y-234432202D01*
X291936283Y-234432201D01*
X291936271Y-234432199D01*
X291646047Y-234399500D01*
X291646041Y-234399500D01*
X291353959Y-234399500D01*
X291353952Y-234399500D01*
X291063728Y-234432199D01*
X291063714Y-234432202D01*
X290778955Y-234497196D01*
X290778953Y-234497197D01*
X290503261Y-234593665D01*
X290240109Y-234720393D01*
X289992795Y-234875791D01*
X289764435Y-235057901D01*
X289557901Y-235264435D01*
X289375791Y-235492795D01*
X289220393Y-235740109D01*
X289093665Y-236003261D01*
X288997197Y-236278953D01*
X288997196Y-236278955D01*
X288932202Y-236563714D01*
X288932199Y-236563728D01*
X288899500Y-236853952D01*
X15000500Y-236853952D01*
X15000500Y-228103952D01*
X161149500Y-228103952D01*
X161149500Y-228396047D01*
X161182199Y-228686271D01*
X161182202Y-228686285D01*
X161247196Y-228971044D01*
X161247197Y-228971046D01*
X161343665Y-229246738D01*
X161470393Y-229509890D01*
X161470395Y-229509893D01*
X161625792Y-229757206D01*
X161807902Y-229985565D01*
X162014435Y-230192098D01*
X162242794Y-230374208D01*
X162490107Y-230529605D01*
X162753263Y-230656335D01*
X163028955Y-230752803D01*
X163313714Y-230817798D01*
X163313723Y-230817799D01*
X163313728Y-230817800D01*
X163507210Y-230839599D01*
X163603953Y-230850499D01*
X163603956Y-230850500D01*
X163603959Y-230850500D01*
X163896044Y-230850500D01*
X163896045Y-230850499D01*
X164044371Y-230833787D01*
X164186271Y-230817800D01*
X164186274Y-230817799D01*
X164186286Y-230817798D01*
X164471045Y-230752803D01*
X164746737Y-230656335D01*
X165009893Y-230529605D01*
X165257206Y-230374208D01*
X165485565Y-230192098D01*
X165692098Y-229985565D01*
X165874208Y-229757206D01*
X166029605Y-229509893D01*
X166156335Y-229246737D01*
X166252803Y-228971045D01*
X166317798Y-228686286D01*
X166350500Y-228396041D01*
X166350500Y-228233952D01*
X186149500Y-228233952D01*
X186149500Y-228526047D01*
X186182199Y-228816271D01*
X186182202Y-228816285D01*
X186247196Y-229101044D01*
X186247197Y-229101046D01*
X186343665Y-229376738D01*
X186470393Y-229639890D01*
X186470395Y-229639893D01*
X186625792Y-229887206D01*
X186807902Y-230115565D01*
X187014435Y-230322098D01*
X187242794Y-230504208D01*
X187490107Y-230659605D01*
X187753263Y-230786335D01*
X188028955Y-230882803D01*
X188313714Y-230947798D01*
X188313723Y-230947799D01*
X188313728Y-230947800D01*
X188507210Y-230969599D01*
X188603953Y-230980499D01*
X188603956Y-230980500D01*
X188603959Y-230980500D01*
X188896044Y-230980500D01*
X188896045Y-230980499D01*
X189044371Y-230963787D01*
X189186271Y-230947800D01*
X189186274Y-230947799D01*
X189186286Y-230947798D01*
X189471045Y-230882803D01*
X189746737Y-230786335D01*
X190009893Y-230659605D01*
X190257206Y-230504208D01*
X190485565Y-230322098D01*
X190692098Y-230115565D01*
X190874208Y-229887206D01*
X191029605Y-229639893D01*
X191156335Y-229376737D01*
X191252803Y-229101045D01*
X191317798Y-228816286D01*
X191350500Y-228526041D01*
X191350500Y-228233959D01*
X191350499Y-228233952D01*
X231149500Y-228233952D01*
X231149500Y-228526047D01*
X231182199Y-228816271D01*
X231182202Y-228816285D01*
X231247196Y-229101044D01*
X231247197Y-229101046D01*
X231343665Y-229376738D01*
X231470393Y-229639890D01*
X231470395Y-229639893D01*
X231625792Y-229887206D01*
X231807902Y-230115565D01*
X232014435Y-230322098D01*
X232242794Y-230504208D01*
X232490107Y-230659605D01*
X232753263Y-230786335D01*
X233028955Y-230882803D01*
X233313714Y-230947798D01*
X233313723Y-230947799D01*
X233313728Y-230947800D01*
X233507210Y-230969599D01*
X233603953Y-230980499D01*
X233603956Y-230980500D01*
X233603959Y-230980500D01*
X233896044Y-230980500D01*
X233896045Y-230980499D01*
X234044371Y-230963787D01*
X234186271Y-230947800D01*
X234186274Y-230947799D01*
X234186286Y-230947798D01*
X234471045Y-230882803D01*
X234746737Y-230786335D01*
X235009893Y-230659605D01*
X235257206Y-230504208D01*
X235485565Y-230322098D01*
X235692098Y-230115565D01*
X235874208Y-229887206D01*
X236029605Y-229639893D01*
X236156335Y-229376737D01*
X236252803Y-229101045D01*
X236317798Y-228816286D01*
X236350500Y-228526041D01*
X236350500Y-228233959D01*
X236350499Y-228233952D01*
X263649500Y-228233952D01*
X263649500Y-228526047D01*
X263682199Y-228816271D01*
X263682202Y-228816285D01*
X263747196Y-229101044D01*
X263747197Y-229101046D01*
X263843665Y-229376738D01*
X263970393Y-229639890D01*
X263970395Y-229639893D01*
X264125792Y-229887206D01*
X264307902Y-230115565D01*
X264514435Y-230322098D01*
X264742794Y-230504208D01*
X264990107Y-230659605D01*
X265253263Y-230786335D01*
X265528955Y-230882803D01*
X265813714Y-230947798D01*
X265813723Y-230947799D01*
X265813728Y-230947800D01*
X266007210Y-230969599D01*
X266103953Y-230980499D01*
X266103956Y-230980500D01*
X266103959Y-230980500D01*
X266396044Y-230980500D01*
X266396045Y-230980499D01*
X266544371Y-230963787D01*
X266686271Y-230947800D01*
X266686274Y-230947799D01*
X266686286Y-230947798D01*
X266971045Y-230882803D01*
X267246737Y-230786335D01*
X267509893Y-230659605D01*
X267757206Y-230504208D01*
X267985565Y-230322098D01*
X268192098Y-230115565D01*
X268374208Y-229887206D01*
X268529605Y-229639893D01*
X268656335Y-229376737D01*
X268752803Y-229101045D01*
X268817798Y-228816286D01*
X268850500Y-228526041D01*
X268850500Y-228233959D01*
X268817798Y-227943714D01*
X268752803Y-227658955D01*
X268656335Y-227383263D01*
X268529605Y-227120107D01*
X268374208Y-226872794D01*
X268192098Y-226644435D01*
X267985565Y-226437902D01*
X267757206Y-226255792D01*
X267509893Y-226100395D01*
X267509890Y-226100393D01*
X267246738Y-225973665D01*
X266971046Y-225877197D01*
X266971044Y-225877196D01*
X266751280Y-225827036D01*
X266686286Y-225812202D01*
X266686283Y-225812201D01*
X266686271Y-225812199D01*
X266396047Y-225779500D01*
X266396041Y-225779500D01*
X266103959Y-225779500D01*
X266103952Y-225779500D01*
X265813728Y-225812199D01*
X265813714Y-225812202D01*
X265528955Y-225877196D01*
X265528953Y-225877197D01*
X265253261Y-225973665D01*
X264990109Y-226100393D01*
X264742795Y-226255791D01*
X264514435Y-226437901D01*
X264307901Y-226644435D01*
X264125791Y-226872795D01*
X263970393Y-227120109D01*
X263843665Y-227383261D01*
X263747197Y-227658953D01*
X263747196Y-227658955D01*
X263682202Y-227943714D01*
X263682199Y-227943728D01*
X263649500Y-228233952D01*
X236350499Y-228233952D01*
X236317798Y-227943714D01*
X236252803Y-227658955D01*
X236156335Y-227383263D01*
X236029605Y-227120107D01*
X235874208Y-226872794D01*
X235692098Y-226644435D01*
X235485565Y-226437902D01*
X235257206Y-226255792D01*
X235009893Y-226100395D01*
X235009890Y-226100393D01*
X234746738Y-225973665D01*
X234471046Y-225877197D01*
X234471044Y-225877196D01*
X234251280Y-225827036D01*
X234186286Y-225812202D01*
X234186283Y-225812201D01*
X234186271Y-225812199D01*
X233896047Y-225779500D01*
X233896041Y-225779500D01*
X233603959Y-225779500D01*
X233603952Y-225779500D01*
X233313728Y-225812199D01*
X233313714Y-225812202D01*
X233028955Y-225877196D01*
X233028953Y-225877197D01*
X232753261Y-225973665D01*
X232490109Y-226100393D01*
X232242795Y-226255791D01*
X232014435Y-226437901D01*
X231807901Y-226644435D01*
X231625791Y-226872795D01*
X231470393Y-227120109D01*
X231343665Y-227383261D01*
X231247197Y-227658953D01*
X231247196Y-227658955D01*
X231182202Y-227943714D01*
X231182199Y-227943728D01*
X231149500Y-228233952D01*
X191350499Y-228233952D01*
X191317798Y-227943714D01*
X191252803Y-227658955D01*
X191156335Y-227383263D01*
X191029605Y-227120107D01*
X190874208Y-226872794D01*
X190692098Y-226644435D01*
X190485565Y-226437902D01*
X190257206Y-226255792D01*
X190009893Y-226100395D01*
X190009890Y-226100393D01*
X189746738Y-225973665D01*
X189471046Y-225877197D01*
X189471044Y-225877196D01*
X189251280Y-225827036D01*
X189186286Y-225812202D01*
X189186283Y-225812201D01*
X189186271Y-225812199D01*
X188896047Y-225779500D01*
X188896041Y-225779500D01*
X188603959Y-225779500D01*
X188603952Y-225779500D01*
X188313728Y-225812199D01*
X188313714Y-225812202D01*
X188028955Y-225877196D01*
X188028953Y-225877197D01*
X187753261Y-225973665D01*
X187490109Y-226100393D01*
X187242795Y-226255791D01*
X187014435Y-226437901D01*
X186807901Y-226644435D01*
X186625791Y-226872795D01*
X186470393Y-227120109D01*
X186343665Y-227383261D01*
X186247197Y-227658953D01*
X186247196Y-227658955D01*
X186182202Y-227943714D01*
X186182199Y-227943728D01*
X186149500Y-228233952D01*
X166350500Y-228233952D01*
X166350500Y-228103959D01*
X166317798Y-227813714D01*
X166252803Y-227528955D01*
X166156335Y-227253263D01*
X166029605Y-226990107D01*
X165874208Y-226742794D01*
X165692098Y-226514435D01*
X165485565Y-226307902D01*
X165257206Y-226125792D01*
X165009893Y-225970395D01*
X165009890Y-225970393D01*
X164746738Y-225843665D01*
X164471046Y-225747197D01*
X164471044Y-225747196D01*
X164251280Y-225697036D01*
X164186286Y-225682202D01*
X164186283Y-225682201D01*
X164186271Y-225682199D01*
X163896047Y-225649500D01*
X163896041Y-225649500D01*
X163603959Y-225649500D01*
X163603952Y-225649500D01*
X163313728Y-225682199D01*
X163313714Y-225682202D01*
X163028955Y-225747196D01*
X163028953Y-225747197D01*
X162753261Y-225843665D01*
X162490109Y-225970393D01*
X162242795Y-226125791D01*
X162014435Y-226307901D01*
X161807901Y-226514435D01*
X161625791Y-226742795D01*
X161470393Y-226990109D01*
X161343665Y-227253261D01*
X161247197Y-227528953D01*
X161247196Y-227528955D01*
X161182202Y-227813714D01*
X161182199Y-227813728D01*
X161149500Y-228103952D01*
X15000500Y-228103952D01*
X15000500Y-218831519D01*
X18500000Y-218831519D01*
X18500000Y-219168480D01*
X18537725Y-219503297D01*
X18537727Y-219503313D01*
X18612705Y-219831814D01*
X18612709Y-219831826D01*
X18723995Y-220149862D01*
X18870191Y-220453440D01*
X19049461Y-220738747D01*
X19208397Y-220938048D01*
X20205747Y-219940697D01*
X20279588Y-220042330D01*
X20457670Y-220220412D01*
X20559300Y-220294251D01*
X19561950Y-221291601D01*
X19761252Y-221450538D01*
X20046559Y-221629808D01*
X20350137Y-221776004D01*
X20668173Y-221887290D01*
X20668185Y-221887294D01*
X20996686Y-221962272D01*
X20996702Y-221962274D01*
X21331519Y-221999999D01*
X21331521Y-222000000D01*
X21668479Y-222000000D01*
X21668480Y-221999999D01*
X22003297Y-221962274D01*
X22003313Y-221962272D01*
X22331814Y-221887294D01*
X22331826Y-221887290D01*
X22649862Y-221776004D01*
X22953440Y-221629808D01*
X23238747Y-221450538D01*
X23438048Y-221291600D01*
X22440698Y-220294251D01*
X22542330Y-220220412D01*
X22720412Y-220042330D01*
X22794251Y-219940698D01*
X23791600Y-220938048D01*
X23950538Y-220738747D01*
X24129808Y-220453440D01*
X24276004Y-220149862D01*
X24387290Y-219831826D01*
X24387294Y-219831814D01*
X24462272Y-219503313D01*
X24462274Y-219503297D01*
X24499999Y-219168480D01*
X24500000Y-219168478D01*
X24500000Y-218831521D01*
X24499999Y-218831519D01*
X179000000Y-218831519D01*
X179000000Y-219168480D01*
X179037725Y-219503297D01*
X179037727Y-219503313D01*
X179112705Y-219831814D01*
X179112709Y-219831826D01*
X179223995Y-220149862D01*
X179370191Y-220453440D01*
X179549461Y-220738747D01*
X179708397Y-220938048D01*
X180705747Y-219940697D01*
X180779588Y-220042330D01*
X180957670Y-220220412D01*
X181059300Y-220294251D01*
X180061950Y-221291601D01*
X180261252Y-221450538D01*
X180546559Y-221629808D01*
X180850137Y-221776004D01*
X181168173Y-221887290D01*
X181168185Y-221887294D01*
X181496686Y-221962272D01*
X181496702Y-221962274D01*
X181831519Y-221999999D01*
X181831521Y-222000000D01*
X182168479Y-222000000D01*
X182168480Y-221999999D01*
X182503297Y-221962274D01*
X182503313Y-221962272D01*
X182831814Y-221887294D01*
X182831826Y-221887290D01*
X183149862Y-221776004D01*
X183453440Y-221629808D01*
X183738747Y-221450538D01*
X183938048Y-221291600D01*
X182940698Y-220294251D01*
X183042330Y-220220412D01*
X183220412Y-220042330D01*
X183294251Y-219940699D01*
X184291600Y-220938048D01*
X184450538Y-220738747D01*
X184629808Y-220453440D01*
X184776004Y-220149862D01*
X184887290Y-219831826D01*
X184887294Y-219831814D01*
X184962272Y-219503313D01*
X184962274Y-219503297D01*
X184999999Y-219168480D01*
X185000000Y-219168478D01*
X185000000Y-218831521D01*
X184999999Y-218831519D01*
X339500000Y-218831519D01*
X339500000Y-219168480D01*
X339537725Y-219503297D01*
X339537727Y-219503313D01*
X339612705Y-219831814D01*
X339612709Y-219831826D01*
X339723995Y-220149862D01*
X339870191Y-220453440D01*
X340049461Y-220738747D01*
X340208397Y-220938048D01*
X341205747Y-219940697D01*
X341279588Y-220042330D01*
X341457670Y-220220412D01*
X341559300Y-220294251D01*
X340561950Y-221291601D01*
X340761252Y-221450538D01*
X341046559Y-221629808D01*
X341350137Y-221776004D01*
X341668173Y-221887290D01*
X341668185Y-221887294D01*
X341996686Y-221962272D01*
X341996702Y-221962274D01*
X342331519Y-221999999D01*
X342331521Y-222000000D01*
X342668479Y-222000000D01*
X342668480Y-221999999D01*
X343003297Y-221962274D01*
X343003313Y-221962272D01*
X343331814Y-221887294D01*
X343331826Y-221887290D01*
X343649862Y-221776004D01*
X343953440Y-221629808D01*
X344238747Y-221450538D01*
X344438048Y-221291600D01*
X343440698Y-220294251D01*
X343542330Y-220220412D01*
X343720412Y-220042330D01*
X343794251Y-219940698D01*
X344791600Y-220938048D01*
X344950538Y-220738747D01*
X345129808Y-220453440D01*
X345276004Y-220149862D01*
X345387290Y-219831826D01*
X345387294Y-219831814D01*
X345462272Y-219503313D01*
X345462274Y-219503297D01*
X345499999Y-219168480D01*
X345500000Y-219168478D01*
X345500000Y-218831521D01*
X345499999Y-218831519D01*
X345462274Y-218496702D01*
X345462272Y-218496686D01*
X345387294Y-218168185D01*
X345387290Y-218168173D01*
X345276004Y-217850137D01*
X345129808Y-217546559D01*
X344950538Y-217261252D01*
X344791601Y-217061950D01*
X343794250Y-218059300D01*
X343720412Y-217957670D01*
X343542330Y-217779588D01*
X343440697Y-217705747D01*
X344438048Y-216708397D01*
X344238747Y-216549461D01*
X343953440Y-216370191D01*
X343649862Y-216223995D01*
X343331826Y-216112709D01*
X343331814Y-216112705D01*
X343003313Y-216037727D01*
X343003297Y-216037725D01*
X342668480Y-216000000D01*
X342331519Y-216000000D01*
X341996702Y-216037725D01*
X341996686Y-216037727D01*
X341668185Y-216112705D01*
X341668173Y-216112709D01*
X341350137Y-216223995D01*
X341046559Y-216370191D01*
X340761252Y-216549461D01*
X340561950Y-216708397D01*
X341559301Y-217705748D01*
X341457670Y-217779588D01*
X341279588Y-217957670D01*
X341205748Y-218059301D01*
X340208397Y-217061950D01*
X340049461Y-217261252D01*
X339870191Y-217546559D01*
X339723995Y-217850137D01*
X339612709Y-218168173D01*
X339612705Y-218168185D01*
X339537727Y-218496686D01*
X339537725Y-218496702D01*
X339500000Y-218831519D01*
X184999999Y-218831519D01*
X184962274Y-218496702D01*
X184962272Y-218496686D01*
X184887294Y-218168185D01*
X184887290Y-218168173D01*
X184776004Y-217850137D01*
X184629808Y-217546559D01*
X184450538Y-217261252D01*
X184291601Y-217061950D01*
X183294250Y-218059300D01*
X183220412Y-217957670D01*
X183042330Y-217779588D01*
X182940697Y-217705747D01*
X183938048Y-216708397D01*
X183738747Y-216549461D01*
X183453440Y-216370191D01*
X183149862Y-216223995D01*
X182831826Y-216112709D01*
X182831814Y-216112705D01*
X182503313Y-216037727D01*
X182503297Y-216037725D01*
X182168480Y-216000000D01*
X181831519Y-216000000D01*
X181496702Y-216037725D01*
X181496686Y-216037727D01*
X181168185Y-216112705D01*
X181168173Y-216112709D01*
X180850137Y-216223995D01*
X180546559Y-216370191D01*
X180261252Y-216549461D01*
X180061950Y-216708397D01*
X181059301Y-217705748D01*
X180957670Y-217779588D01*
X180779588Y-217957670D01*
X180705748Y-218059301D01*
X179708397Y-217061950D01*
X179549461Y-217261252D01*
X179370191Y-217546559D01*
X179223995Y-217850137D01*
X179112709Y-218168173D01*
X179112705Y-218168185D01*
X179037727Y-218496686D01*
X179037725Y-218496702D01*
X179000000Y-218831519D01*
X24499999Y-218831519D01*
X24462274Y-218496702D01*
X24462272Y-218496686D01*
X24387294Y-218168185D01*
X24387290Y-218168173D01*
X24276004Y-217850137D01*
X24129808Y-217546559D01*
X23950538Y-217261252D01*
X23791601Y-217061950D01*
X22794250Y-218059300D01*
X22720412Y-217957670D01*
X22542330Y-217779588D01*
X22440697Y-217705747D01*
X23438048Y-216708397D01*
X23238747Y-216549461D01*
X22953440Y-216370191D01*
X22649862Y-216223995D01*
X22331826Y-216112709D01*
X22331814Y-216112705D01*
X22003313Y-216037727D01*
X22003297Y-216037725D01*
X21668480Y-216000000D01*
X21331519Y-216000000D01*
X20996702Y-216037725D01*
X20996686Y-216037727D01*
X20668185Y-216112705D01*
X20668173Y-216112709D01*
X20350137Y-216223995D01*
X20046559Y-216370191D01*
X19761252Y-216549461D01*
X19561950Y-216708397D01*
X20559301Y-217705748D01*
X20457670Y-217779588D01*
X20279588Y-217957670D01*
X20205748Y-218059301D01*
X19208397Y-217061950D01*
X19049461Y-217261252D01*
X18870191Y-217546559D01*
X18723995Y-217850137D01*
X18612709Y-218168173D01*
X18612705Y-218168185D01*
X18537727Y-218496686D01*
X18537725Y-218496702D01*
X18500000Y-218831519D01*
X15000500Y-218831519D01*
X15000500Y-216003051D01*
X15000649Y-215996967D01*
X15017052Y-215663072D01*
X15018245Y-215650962D01*
X15066849Y-215323296D01*
X15069218Y-215311385D01*
X15149710Y-214990043D01*
X15153240Y-214978411D01*
X15264835Y-214666525D01*
X15269476Y-214655318D01*
X15411124Y-214355828D01*
X15416840Y-214345136D01*
X15587145Y-214060998D01*
X15593888Y-214050905D01*
X15791232Y-213784818D01*
X15798935Y-213775433D01*
X16021405Y-213529975D01*
X16029975Y-213521405D01*
X16275433Y-213298935D01*
X16284818Y-213291232D01*
X16550905Y-213093888D01*
X16560998Y-213087145D01*
X16845136Y-212916840D01*
X16855828Y-212911124D01*
X17155318Y-212769476D01*
X17166525Y-212764835D01*
X17478412Y-212653239D01*
X17490043Y-212649710D01*
X17811385Y-212569218D01*
X17823296Y-212566849D01*
X18150962Y-212518244D01*
X18163068Y-212517052D01*
X18496967Y-212500648D01*
X18503051Y-212500500D01*
X18565892Y-212500500D01*
X345434108Y-212500500D01*
X345496949Y-212500500D01*
X345503032Y-212500648D01*
G37*
%TD.AperFunction*%
%TD*%
M02*
