%TF.GenerationSoftware,KiCad,Pcbnew,9.0.2*%
%TF.CreationDate,2026-02-06T08:14:34+00:00*%
%TF.ProjectId,WEASEL_KiCad,57454153-454c-45f4-9b69-4361642e6b69,rev?*%
%TF.SameCoordinates,Original*%
%TF.FileFunction,Soldermask,Bot*%
%TF.FilePolarity,Negative*%
%FSLAX46Y46*%
G04 Gerber Fmt 4.6, Leading zero omitted, Abs format (unit mm)*
G04 Created by KiCad (PCBNEW 9.0.2) date 2026-02-06 08:14:34*
%MOMM*%
%LPD*%
G01*
G04 APERTURE LIST*
%ADD10C,7.000000*%
%ADD11C,4.200000*%
%ADD12C,8.000000*%
%ADD13C,7.400000*%
%ADD14O,3.300000X25.000000*%
%ADD15C,5.000000*%
G04 APERTURE END LIST*
D10*
%TO.C,REF\u002A\u002A*%
X142002700Y-400800000D03*
%TD*%
%TO.C,REF\u002A\u002A*%
X194502700Y-392800000D03*
%TD*%
%TO.C,REF\u002A\u002A*%
X237002700Y-392800000D03*
%TD*%
%TO.C,REF\u002A\u002A*%
X114500000Y-393250000D03*
%TD*%
%TO.C,REF\u002A\u002A*%
X249502700Y-392800000D03*
%TD*%
%TO.C,REF\u002A\u002A*%
X142002700Y-386300000D03*
%TD*%
%TO.C,REF\u002A\u002A*%
X222002700Y-386300000D03*
%TD*%
%TO.C,REF\u002A\u002A*%
X99500000Y-400750000D03*
%TD*%
%TO.C,REF\u002A\u002A*%
X169502700Y-392800000D03*
%TD*%
%TO.C,REF\u002A\u002A*%
X99500000Y-386300000D03*
%TD*%
%TO.C,REF\u002A\u002A*%
X222002700Y-400800000D03*
%TD*%
%TO.C,REF\u002A\u002A*%
X209502700Y-386300000D03*
%TD*%
%TO.C,REF\u002A\u002A*%
X129502700Y-386300000D03*
%TD*%
%TO.C,REF\u002A\u002A*%
X157002700Y-392800000D03*
%TD*%
%TO.C,REF\u002A\u002A*%
X209502700Y-400800000D03*
%TD*%
%TO.C,REF\u002A\u002A*%
X264502700Y-400800000D03*
%TD*%
%TO.C,REF\u002A\u002A*%
X182000000Y-392750000D03*
%TD*%
%TO.C,REF\u002A\u002A*%
X264502700Y-386270000D03*
%TD*%
%TO.C,REF\u002A\u002A*%
X129502700Y-400800000D03*
%TD*%
D11*
%TO.C,REF\u002A\u002A*%
X271247300Y-325465800D03*
%TD*%
%TO.C,REF\u002A\u002A*%
X233750000Y-228380000D03*
%TD*%
%TO.C,REF\u002A\u002A*%
X266250000Y-228380000D03*
%TD*%
%TO.C,REF\u002A\u002A*%
X141247300Y-307965800D03*
%TD*%
%TO.C,REF\u002A\u002A*%
X316500000Y-237000000D03*
%TD*%
%TO.C,REF\u002A\u002A*%
X271247300Y-342965800D03*
%TD*%
%TO.C,REF\u002A\u002A*%
X233750000Y-245880000D03*
%TD*%
%TO.C,REF\u002A\u002A*%
X188750000Y-228380000D03*
%TD*%
%TO.C,REF\u002A\u002A*%
X271247300Y-307965800D03*
%TD*%
%TO.C,REF\u002A\u002A*%
X158747300Y-307965800D03*
%TD*%
%TO.C,REF\u002A\u002A*%
X266250000Y-245880000D03*
%TD*%
%TO.C,REF\u002A\u002A*%
X303747300Y-342965800D03*
%TD*%
%TO.C,REF\u002A\u002A*%
X291500000Y-237000000D03*
%TD*%
%TO.C,REF\u002A\u002A*%
X163750000Y-228250000D03*
%TD*%
%TO.C,REF\u002A\u002A*%
X303747300Y-308000000D03*
%TD*%
D12*
%TO.C,REF\u002A\u002A*%
X323747300Y-307965800D03*
%TD*%
%TO.C,REF\u002A\u002A*%
X323747300Y-337965800D03*
%TD*%
%TO.C,REF\u002A\u002A*%
X208747300Y-307965800D03*
%TD*%
%TO.C,REF\u002A\u002A*%
X246247300Y-307965800D03*
%TD*%
%TO.C,REF\u002A\u002A*%
X176247300Y-307965800D03*
%TD*%
D13*
%TO.C,REF\u002A\u002A*%
X188900000Y-245780000D03*
%TD*%
%TO.C,REF\u002A\u002A*%
X176400000Y-245780000D03*
%TD*%
%TO.C,REF\u002A\u002A*%
X151400000Y-245780000D03*
%TD*%
%TO.C,REF\u002A\u002A*%
X138900000Y-245780000D03*
%TD*%
%TO.C,REF\u002A\u002A*%
X163900000Y-245780000D03*
%TD*%
D14*
%TO.C,REF\u002A\u002A*%
X176250000Y-273500000D03*
%TD*%
%TO.C,REF\u002A\u002A*%
X188750000Y-273500000D03*
%TD*%
%TO.C,REF\u002A\u002A*%
X163750000Y-273500000D03*
%TD*%
%TO.C,REF\u002A\u002A*%
X163750000Y-338500000D03*
%TD*%
%TO.C,REF\u002A\u002A*%
X323750000Y-273500000D03*
%TD*%
%TO.C,REF\u002A\u002A*%
X151250000Y-273500000D03*
%TD*%
%TO.C,REF\u002A\u002A*%
X298750000Y-273500000D03*
%TD*%
%TO.C,REF\u002A\u002A*%
X151250000Y-338500000D03*
%TD*%
%TO.C,REF\u002A\u002A*%
X253750000Y-273500000D03*
%TD*%
%TO.C,REF\u002A\u002A*%
X221250000Y-338500000D03*
%TD*%
%TO.C,REF\u002A\u002A*%
X138750000Y-338500000D03*
%TD*%
%TO.C,REF\u002A\u002A*%
X138750000Y-273500000D03*
%TD*%
%TO.C,REF\u002A\u002A*%
X221250000Y-273500000D03*
%TD*%
%TO.C,REF\u002A\u002A*%
X233750000Y-338500000D03*
%TD*%
%TO.C,REF\u002A\u002A*%
X266250000Y-273500000D03*
%TD*%
%TO.C,REF\u002A\u002A*%
X286250000Y-273500000D03*
%TD*%
%TO.C,REF\u002A\u002A*%
X176250000Y-338500000D03*
%TD*%
%TO.C,REF\u002A\u002A*%
X233750000Y-273500000D03*
%TD*%
%TO.C,REF\u002A\u002A*%
X246250000Y-338500000D03*
%TD*%
%TO.C,REF\u002A\u002A*%
X311250000Y-273500000D03*
%TD*%
%TO.C,REF\u002A\u002A*%
X208750000Y-338500000D03*
%TD*%
%TO.C,REF\u002A\u002A*%
X208750000Y-273500000D03*
%TD*%
D15*
%TO.C,*%
X21500000Y-405000000D03*
%TD*%
%TO.C,*%
X182000000Y-219000000D03*
%TD*%
%TO.C,REF\u002A\u002A*%
X21500000Y-219000000D03*
%TD*%
%TO.C,*%
X342500000Y-219000000D03*
%TD*%
%TO.C,*%
X182000000Y-405000000D03*
%TD*%
%TO.C,*%
X342250000Y-405000000D03*
%TD*%
M02*
