%TF.GenerationSoftware,KiCad,Pcbnew,9.0.7*%
%TF.CreationDate,2026-02-10T07:58:34+00:00*%
%TF.ProjectId,WEASEL_KiCad,57454153-454c-45f4-9b69-4361642e6b69,rev?*%
%TF.SameCoordinates,Original*%
%TF.FileFunction,Copper,L2,Bot*%
%TF.FilePolarity,Positive*%
%FSLAX46Y46*%
G04 Gerber Fmt 4.6, Leading zero omitted, Abs format (unit mm)*
G04 Created by KiCad (PCBNEW 9.0.7) date 2026-02-10 07:58:34*
%MOMM*%
%LPD*%
G01*
G04 APERTURE LIST*
G04 APERTURE END LIST*
%TA.AperFunction,Conductor*%
%TO.N,GND*%
G36*
X345503032Y-412500648D02*
G01*
X345836929Y-412517052D01*
X345849037Y-412518245D01*
X345952146Y-412533539D01*
X346176699Y-412566849D01*
X346188617Y-412569219D01*
X346509951Y-412649709D01*
X346521588Y-412653240D01*
X346592806Y-412678722D01*
X346833467Y-412764832D01*
X346844688Y-412769479D01*
X347144163Y-412911120D01*
X347154871Y-412916844D01*
X347438988Y-413087137D01*
X347449106Y-413093897D01*
X347715170Y-413291224D01*
X347724576Y-413298944D01*
X347970013Y-413521395D01*
X347978604Y-413529986D01*
X348165755Y-413736475D01*
X348201055Y-413775423D01*
X348208775Y-413784829D01*
X348406102Y-414050893D01*
X348412862Y-414061011D01*
X348541776Y-414276092D01*
X348583148Y-414345116D01*
X348588885Y-414355848D01*
X348730514Y-414655297D01*
X348735170Y-414666540D01*
X348846759Y-414978411D01*
X348850292Y-414990055D01*
X348930777Y-415311369D01*
X348933151Y-415323305D01*
X348981754Y-415650962D01*
X348982947Y-415663071D01*
X348999351Y-415996966D01*
X348999500Y-416003051D01*
X348999500Y-607996948D01*
X348999351Y-608003033D01*
X348982947Y-608336928D01*
X348981754Y-608349037D01*
X348933151Y-608676694D01*
X348930777Y-608688630D01*
X348850292Y-609009944D01*
X348846759Y-609021588D01*
X348735170Y-609333459D01*
X348730514Y-609344702D01*
X348588885Y-609644151D01*
X348583148Y-609654883D01*
X348412862Y-609938988D01*
X348406102Y-609949106D01*
X348208775Y-610215170D01*
X348201055Y-610224576D01*
X347978611Y-610470006D01*
X347970006Y-610478611D01*
X347724576Y-610701055D01*
X347715170Y-610708775D01*
X347449106Y-610906102D01*
X347438988Y-610912862D01*
X347154883Y-611083148D01*
X347144151Y-611088885D01*
X346844702Y-611230514D01*
X346833459Y-611235170D01*
X346521588Y-611346759D01*
X346509944Y-611350292D01*
X346188630Y-611430777D01*
X346176694Y-611433151D01*
X345849037Y-611481754D01*
X345836928Y-611482947D01*
X345521989Y-611498419D01*
X345503031Y-611499351D01*
X345496949Y-611499500D01*
X18503051Y-611499500D01*
X18496968Y-611499351D01*
X18476900Y-611498365D01*
X18163071Y-611482947D01*
X18150962Y-611481754D01*
X17823305Y-611433151D01*
X17811369Y-611430777D01*
X17490055Y-611350292D01*
X17478411Y-611346759D01*
X17166540Y-611235170D01*
X17155301Y-611230515D01*
X16855844Y-611088883D01*
X16845121Y-611083150D01*
X16561011Y-610912862D01*
X16550893Y-610906102D01*
X16284829Y-610708775D01*
X16275423Y-610701055D01*
X16236475Y-610665755D01*
X16029986Y-610478604D01*
X16021395Y-610470013D01*
X15798944Y-610224576D01*
X15791224Y-610215170D01*
X15593897Y-609949106D01*
X15587137Y-609938988D01*
X15416844Y-609654871D01*
X15411120Y-609644163D01*
X15269479Y-609344688D01*
X15264829Y-609333459D01*
X15153240Y-609021588D01*
X15149707Y-609009944D01*
X15140958Y-608975015D01*
X15069219Y-608688617D01*
X15066848Y-608676694D01*
X15018245Y-608349037D01*
X15017052Y-608336927D01*
X15000649Y-608003032D01*
X15000500Y-607996948D01*
X15000500Y-606893713D01*
X18149500Y-606893713D01*
X18149500Y-607106286D01*
X18182753Y-607316239D01*
X18248444Y-607518414D01*
X18344951Y-607707820D01*
X18469890Y-607879786D01*
X18620213Y-608030109D01*
X18792179Y-608155048D01*
X18792181Y-608155049D01*
X18792184Y-608155051D01*
X18981588Y-608251557D01*
X19183757Y-608317246D01*
X19393713Y-608350500D01*
X19393714Y-608350500D01*
X19606286Y-608350500D01*
X19606287Y-608350500D01*
X19816243Y-608317246D01*
X20018412Y-608251557D01*
X20207816Y-608155051D01*
X20229789Y-608139086D01*
X20379786Y-608030109D01*
X20379788Y-608030106D01*
X20379792Y-608030104D01*
X20530104Y-607879792D01*
X20530106Y-607879788D01*
X20530109Y-607879786D01*
X20655048Y-607707820D01*
X20655047Y-607707820D01*
X20655051Y-607707816D01*
X20751557Y-607518412D01*
X20817246Y-607316243D01*
X20850500Y-607106287D01*
X20850500Y-606893713D01*
X118149500Y-606893713D01*
X118149500Y-607106286D01*
X118182753Y-607316239D01*
X118248444Y-607518414D01*
X118344951Y-607707820D01*
X118469890Y-607879786D01*
X118620213Y-608030109D01*
X118792179Y-608155048D01*
X118792181Y-608155049D01*
X118792184Y-608155051D01*
X118981588Y-608251557D01*
X119183757Y-608317246D01*
X119393713Y-608350500D01*
X119393714Y-608350500D01*
X119606286Y-608350500D01*
X119606287Y-608350500D01*
X119816243Y-608317246D01*
X120018412Y-608251557D01*
X120207816Y-608155051D01*
X120229789Y-608139086D01*
X120379786Y-608030109D01*
X120379788Y-608030106D01*
X120379792Y-608030104D01*
X120530104Y-607879792D01*
X120530106Y-607879788D01*
X120530109Y-607879786D01*
X120655048Y-607707820D01*
X120655047Y-607707820D01*
X120655051Y-607707816D01*
X120751557Y-607518412D01*
X120817246Y-607316243D01*
X120850500Y-607106287D01*
X120850500Y-606893713D01*
X243149500Y-606893713D01*
X243149500Y-607106286D01*
X243182753Y-607316239D01*
X243248444Y-607518414D01*
X243344951Y-607707820D01*
X243469890Y-607879786D01*
X243620213Y-608030109D01*
X243792179Y-608155048D01*
X243792181Y-608155049D01*
X243792184Y-608155051D01*
X243981588Y-608251557D01*
X244183757Y-608317246D01*
X244393713Y-608350500D01*
X244393714Y-608350500D01*
X244606286Y-608350500D01*
X244606287Y-608350500D01*
X244816243Y-608317246D01*
X245018412Y-608251557D01*
X245207816Y-608155051D01*
X245229789Y-608139086D01*
X245379786Y-608030109D01*
X245379788Y-608030106D01*
X245379792Y-608030104D01*
X245530104Y-607879792D01*
X245530106Y-607879788D01*
X245530109Y-607879786D01*
X245655048Y-607707820D01*
X245655047Y-607707820D01*
X245655051Y-607707816D01*
X245751557Y-607518412D01*
X245817246Y-607316243D01*
X245850500Y-607106287D01*
X245850500Y-606893713D01*
X343149500Y-606893713D01*
X343149500Y-607106286D01*
X343182753Y-607316239D01*
X343248444Y-607518414D01*
X343344951Y-607707820D01*
X343469890Y-607879786D01*
X343620213Y-608030109D01*
X343792179Y-608155048D01*
X343792181Y-608155049D01*
X343792184Y-608155051D01*
X343981588Y-608251557D01*
X344183757Y-608317246D01*
X344393713Y-608350500D01*
X344393714Y-608350500D01*
X344606286Y-608350500D01*
X344606287Y-608350500D01*
X344816243Y-608317246D01*
X345018412Y-608251557D01*
X345207816Y-608155051D01*
X345229789Y-608139086D01*
X345379786Y-608030109D01*
X345379788Y-608030106D01*
X345379792Y-608030104D01*
X345530104Y-607879792D01*
X345530106Y-607879788D01*
X345530109Y-607879786D01*
X345655048Y-607707820D01*
X345655047Y-607707820D01*
X345655051Y-607707816D01*
X345751557Y-607518412D01*
X345817246Y-607316243D01*
X345850500Y-607106287D01*
X345850500Y-606893713D01*
X345817246Y-606683757D01*
X345751557Y-606481588D01*
X345655051Y-606292184D01*
X345655049Y-606292181D01*
X345655048Y-606292179D01*
X345530109Y-606120213D01*
X345379786Y-605969890D01*
X345207820Y-605844951D01*
X345018414Y-605748444D01*
X345018413Y-605748443D01*
X345018412Y-605748443D01*
X344816243Y-605682754D01*
X344816241Y-605682753D01*
X344816240Y-605682753D01*
X344654957Y-605657208D01*
X344606287Y-605649500D01*
X344393713Y-605649500D01*
X344345042Y-605657208D01*
X344183760Y-605682753D01*
X343981585Y-605748444D01*
X343792179Y-605844951D01*
X343620213Y-605969890D01*
X343469890Y-606120213D01*
X343344951Y-606292179D01*
X343248444Y-606481585D01*
X343182753Y-606683760D01*
X343149500Y-606893713D01*
X245850500Y-606893713D01*
X245817246Y-606683757D01*
X245751557Y-606481588D01*
X245655051Y-606292184D01*
X245655049Y-606292181D01*
X245655048Y-606292179D01*
X245530109Y-606120213D01*
X245379786Y-605969890D01*
X245207820Y-605844951D01*
X245018414Y-605748444D01*
X245018413Y-605748443D01*
X245018412Y-605748443D01*
X244816243Y-605682754D01*
X244816241Y-605682753D01*
X244816240Y-605682753D01*
X244654957Y-605657208D01*
X244606287Y-605649500D01*
X244393713Y-605649500D01*
X244345042Y-605657208D01*
X244183760Y-605682753D01*
X243981585Y-605748444D01*
X243792179Y-605844951D01*
X243620213Y-605969890D01*
X243469890Y-606120213D01*
X243344951Y-606292179D01*
X243248444Y-606481585D01*
X243182753Y-606683760D01*
X243149500Y-606893713D01*
X120850500Y-606893713D01*
X120817246Y-606683757D01*
X120751557Y-606481588D01*
X120655051Y-606292184D01*
X120655049Y-606292181D01*
X120655048Y-606292179D01*
X120530109Y-606120213D01*
X120379786Y-605969890D01*
X120207820Y-605844951D01*
X120018414Y-605748444D01*
X120018413Y-605748443D01*
X120018412Y-605748443D01*
X119816243Y-605682754D01*
X119816241Y-605682753D01*
X119816240Y-605682753D01*
X119654957Y-605657208D01*
X119606287Y-605649500D01*
X119393713Y-605649500D01*
X119345042Y-605657208D01*
X119183760Y-605682753D01*
X118981585Y-605748444D01*
X118792179Y-605844951D01*
X118620213Y-605969890D01*
X118469890Y-606120213D01*
X118344951Y-606292179D01*
X118248444Y-606481585D01*
X118182753Y-606683760D01*
X118149500Y-606893713D01*
X20850500Y-606893713D01*
X20817246Y-606683757D01*
X20751557Y-606481588D01*
X20655051Y-606292184D01*
X20655049Y-606292181D01*
X20655048Y-606292179D01*
X20530109Y-606120213D01*
X20379786Y-605969890D01*
X20207820Y-605844951D01*
X20018414Y-605748444D01*
X20018413Y-605748443D01*
X20018412Y-605748443D01*
X19816243Y-605682754D01*
X19816241Y-605682753D01*
X19816240Y-605682753D01*
X19654957Y-605657208D01*
X19606287Y-605649500D01*
X19393713Y-605649500D01*
X19345042Y-605657208D01*
X19183760Y-605682753D01*
X18981585Y-605748444D01*
X18792179Y-605844951D01*
X18620213Y-605969890D01*
X18469890Y-606120213D01*
X18344951Y-606292179D01*
X18248444Y-606481585D01*
X18182753Y-606683760D01*
X18149500Y-606893713D01*
X15000500Y-606893713D01*
X15000500Y-416893713D01*
X18149500Y-416893713D01*
X18149500Y-417106286D01*
X18182753Y-417316239D01*
X18248444Y-417518414D01*
X18344951Y-417707820D01*
X18469890Y-417879786D01*
X18620213Y-418030109D01*
X18792179Y-418155048D01*
X18792181Y-418155049D01*
X18792184Y-418155051D01*
X18981588Y-418251557D01*
X19183757Y-418317246D01*
X19393713Y-418350500D01*
X19393714Y-418350500D01*
X19606286Y-418350500D01*
X19606287Y-418350500D01*
X19816243Y-418317246D01*
X20018412Y-418251557D01*
X20207816Y-418155051D01*
X20229789Y-418139086D01*
X20379786Y-418030109D01*
X20379788Y-418030106D01*
X20379792Y-418030104D01*
X20530104Y-417879792D01*
X20530106Y-417879788D01*
X20530109Y-417879786D01*
X20655048Y-417707820D01*
X20655047Y-417707820D01*
X20655051Y-417707816D01*
X20751557Y-417518412D01*
X20817246Y-417316243D01*
X20850500Y-417106287D01*
X20850500Y-416893713D01*
X118149500Y-416893713D01*
X118149500Y-417106286D01*
X118182753Y-417316239D01*
X118248444Y-417518414D01*
X118344951Y-417707820D01*
X118469890Y-417879786D01*
X118620213Y-418030109D01*
X118792179Y-418155048D01*
X118792181Y-418155049D01*
X118792184Y-418155051D01*
X118981588Y-418251557D01*
X119183757Y-418317246D01*
X119393713Y-418350500D01*
X119393714Y-418350500D01*
X119606286Y-418350500D01*
X119606287Y-418350500D01*
X119816243Y-418317246D01*
X120018412Y-418251557D01*
X120207816Y-418155051D01*
X120229789Y-418139086D01*
X120379786Y-418030109D01*
X120379788Y-418030106D01*
X120379792Y-418030104D01*
X120530104Y-417879792D01*
X120530106Y-417879788D01*
X120530109Y-417879786D01*
X120655048Y-417707820D01*
X120655047Y-417707820D01*
X120655051Y-417707816D01*
X120751557Y-417518412D01*
X120817246Y-417316243D01*
X120850500Y-417106287D01*
X120850500Y-416893713D01*
X243149500Y-416893713D01*
X243149500Y-417106286D01*
X243182753Y-417316239D01*
X243248444Y-417518414D01*
X243344951Y-417707820D01*
X243469890Y-417879786D01*
X243620213Y-418030109D01*
X243792179Y-418155048D01*
X243792181Y-418155049D01*
X243792184Y-418155051D01*
X243981588Y-418251557D01*
X244183757Y-418317246D01*
X244393713Y-418350500D01*
X244393714Y-418350500D01*
X244606286Y-418350500D01*
X244606287Y-418350500D01*
X244816243Y-418317246D01*
X245018412Y-418251557D01*
X245207816Y-418155051D01*
X245229789Y-418139086D01*
X245379786Y-418030109D01*
X245379788Y-418030106D01*
X245379792Y-418030104D01*
X245530104Y-417879792D01*
X245530106Y-417879788D01*
X245530109Y-417879786D01*
X245655048Y-417707820D01*
X245655047Y-417707820D01*
X245655051Y-417707816D01*
X245751557Y-417518412D01*
X245817246Y-417316243D01*
X245850500Y-417106287D01*
X245850500Y-416893713D01*
X343149500Y-416893713D01*
X343149500Y-417106286D01*
X343182753Y-417316239D01*
X343248444Y-417518414D01*
X343344951Y-417707820D01*
X343469890Y-417879786D01*
X343620213Y-418030109D01*
X343792179Y-418155048D01*
X343792181Y-418155049D01*
X343792184Y-418155051D01*
X343981588Y-418251557D01*
X344183757Y-418317246D01*
X344393713Y-418350500D01*
X344393714Y-418350500D01*
X344606286Y-418350500D01*
X344606287Y-418350500D01*
X344816243Y-418317246D01*
X345018412Y-418251557D01*
X345207816Y-418155051D01*
X345229789Y-418139086D01*
X345379786Y-418030109D01*
X345379788Y-418030106D01*
X345379792Y-418030104D01*
X345530104Y-417879792D01*
X345530106Y-417879788D01*
X345530109Y-417879786D01*
X345655048Y-417707820D01*
X345655047Y-417707820D01*
X345655051Y-417707816D01*
X345751557Y-417518412D01*
X345817246Y-417316243D01*
X345850500Y-417106287D01*
X345850500Y-416893713D01*
X345817246Y-416683757D01*
X345751557Y-416481588D01*
X345655051Y-416292184D01*
X345655049Y-416292181D01*
X345655048Y-416292179D01*
X345530109Y-416120213D01*
X345379786Y-415969890D01*
X345207820Y-415844951D01*
X345018414Y-415748444D01*
X345018413Y-415748443D01*
X345018412Y-415748443D01*
X344816243Y-415682754D01*
X344816241Y-415682753D01*
X344816240Y-415682753D01*
X344653570Y-415656989D01*
X344606287Y-415649500D01*
X344393713Y-415649500D01*
X344346430Y-415656989D01*
X344183760Y-415682753D01*
X343981585Y-415748444D01*
X343792179Y-415844951D01*
X343620213Y-415969890D01*
X343469890Y-416120213D01*
X343344951Y-416292179D01*
X343248444Y-416481585D01*
X343182753Y-416683760D01*
X343149500Y-416893713D01*
X245850500Y-416893713D01*
X245817246Y-416683757D01*
X245751557Y-416481588D01*
X245655051Y-416292184D01*
X245655049Y-416292181D01*
X245655048Y-416292179D01*
X245530109Y-416120213D01*
X245379786Y-415969890D01*
X245207820Y-415844951D01*
X245018414Y-415748444D01*
X245018413Y-415748443D01*
X245018412Y-415748443D01*
X244816243Y-415682754D01*
X244816241Y-415682753D01*
X244816240Y-415682753D01*
X244653570Y-415656989D01*
X244606287Y-415649500D01*
X244393713Y-415649500D01*
X244346430Y-415656989D01*
X244183760Y-415682753D01*
X243981585Y-415748444D01*
X243792179Y-415844951D01*
X243620213Y-415969890D01*
X243469890Y-416120213D01*
X243344951Y-416292179D01*
X243248444Y-416481585D01*
X243182753Y-416683760D01*
X243149500Y-416893713D01*
X120850500Y-416893713D01*
X120817246Y-416683757D01*
X120751557Y-416481588D01*
X120655051Y-416292184D01*
X120655049Y-416292181D01*
X120655048Y-416292179D01*
X120530109Y-416120213D01*
X120379786Y-415969890D01*
X120207820Y-415844951D01*
X120018414Y-415748444D01*
X120018413Y-415748443D01*
X120018412Y-415748443D01*
X119816243Y-415682754D01*
X119816241Y-415682753D01*
X119816240Y-415682753D01*
X119653570Y-415656989D01*
X119606287Y-415649500D01*
X119393713Y-415649500D01*
X119346430Y-415656989D01*
X119183760Y-415682753D01*
X118981585Y-415748444D01*
X118792179Y-415844951D01*
X118620213Y-415969890D01*
X118469890Y-416120213D01*
X118344951Y-416292179D01*
X118248444Y-416481585D01*
X118182753Y-416683760D01*
X118149500Y-416893713D01*
X20850500Y-416893713D01*
X20817246Y-416683757D01*
X20751557Y-416481588D01*
X20655051Y-416292184D01*
X20655049Y-416292181D01*
X20655048Y-416292179D01*
X20530109Y-416120213D01*
X20379786Y-415969890D01*
X20207820Y-415844951D01*
X20018414Y-415748444D01*
X20018413Y-415748443D01*
X20018412Y-415748443D01*
X19816243Y-415682754D01*
X19816241Y-415682753D01*
X19816240Y-415682753D01*
X19653570Y-415656989D01*
X19606287Y-415649500D01*
X19393713Y-415649500D01*
X19346430Y-415656989D01*
X19183760Y-415682753D01*
X18981585Y-415748444D01*
X18792179Y-415844951D01*
X18620213Y-415969890D01*
X18469890Y-416120213D01*
X18344951Y-416292179D01*
X18248444Y-416481585D01*
X18182753Y-416683760D01*
X18149500Y-416893713D01*
X15000500Y-416893713D01*
X15000500Y-416003051D01*
X15000649Y-415996967D01*
X15017052Y-415663072D01*
X15018245Y-415650962D01*
X15018462Y-415649500D01*
X15066849Y-415323296D01*
X15069218Y-415311385D01*
X15149710Y-414990043D01*
X15153240Y-414978411D01*
X15264835Y-414666525D01*
X15269476Y-414655318D01*
X15411124Y-414355828D01*
X15416840Y-414345136D01*
X15587145Y-414060998D01*
X15593888Y-414050905D01*
X15791232Y-413784818D01*
X15798935Y-413775433D01*
X16021405Y-413529975D01*
X16029975Y-413521405D01*
X16275433Y-413298935D01*
X16284818Y-413291232D01*
X16550905Y-413093888D01*
X16560998Y-413087145D01*
X16845136Y-412916840D01*
X16855828Y-412911124D01*
X17155318Y-412769476D01*
X17166525Y-412764835D01*
X17478412Y-412653239D01*
X17490043Y-412649710D01*
X17811385Y-412569218D01*
X17823296Y-412566849D01*
X18150962Y-412518244D01*
X18163068Y-412517052D01*
X18496967Y-412500648D01*
X18503051Y-412500500D01*
X18565892Y-412500500D01*
X345434108Y-412500500D01*
X345496949Y-412500500D01*
X345503032Y-412500648D01*
G37*
%TD.AperFunction*%
%TD*%
M02*
