%TF.GenerationSoftware,KiCad,Pcbnew,9.0.7*%
%TF.CreationDate,2026-02-10T07:58:34+00:00*%
%TF.ProjectId,WEASEL_KiCad,57454153-454c-45f4-9b69-4361642e6b69,rev?*%
%TF.SameCoordinates,Original*%
%TF.FileFunction,Legend,Top*%
%TF.FilePolarity,Positive*%
%FSLAX46Y46*%
G04 Gerber Fmt 4.6, Leading zero omitted, Abs format (unit mm)*
G04 Created by KiCad (PCBNEW 9.0.7) date 2026-02-10 07:58:34*
%MOMM*%
%LPD*%
G01*
G04 APERTURE LIST*
%ADD10C,0.300000*%
%ADD11C,0.500000*%
%ADD12C,0.250000*%
%ADD13C,0.000000*%
G04 APERTURE END LIST*
D10*
X21500000Y-584750000D02*
X342500000Y-584750000D01*
D11*
X21500000Y-608000000D02*
G75*
G02*
X18500000Y-605000000I0J3000000D01*
G01*
X342500000Y-416000000D02*
G75*
G02*
X345500000Y-419000000I0J-3000000D01*
G01*
X345500000Y-419000000D02*
X345500000Y-605000000D01*
D10*
X21500000Y-419000000D02*
X21500000Y-608000000D01*
D11*
X342500000Y-608000000D02*
X21500000Y-608000000D01*
X21500000Y-416000000D02*
X342500000Y-416000000D01*
D10*
X21500000Y-422000000D02*
X342500000Y-422000000D01*
D12*
G36*
X156794031Y-428211060D02*
G01*
X156596805Y-427729291D01*
X156382432Y-427381849D01*
X156147399Y-427193789D01*
X155852808Y-426984716D01*
X155695953Y-426762152D01*
X155645480Y-426516015D01*
X155711699Y-426253269D01*
X155922894Y-426026615D01*
X156343562Y-425827667D01*
X157084107Y-425676710D01*
X158288187Y-425614759D01*
X159523729Y-425676598D01*
X160289147Y-425827250D01*
X160505617Y-425928869D01*
X160670165Y-426072714D01*
X160779429Y-426252292D01*
X160814879Y-426446406D01*
X160795923Y-426609963D01*
X160747102Y-426715683D01*
X160384401Y-427068614D01*
X160257150Y-427216141D01*
X160220148Y-427353768D01*
X160269491Y-427620113D01*
X160477824Y-428145115D01*
X160867392Y-428990806D01*
X161242304Y-429705216D01*
X161363004Y-429819655D01*
X161485326Y-429853593D01*
X161616199Y-429814423D01*
X161740560Y-429681402D01*
X162026934Y-428989584D01*
X162354831Y-428024825D01*
X162462717Y-427630024D01*
X162490385Y-427399563D01*
X162423581Y-427181435D01*
X162217444Y-427050907D01*
X161873757Y-426881744D01*
X161690463Y-426664617D01*
X161629429Y-426387177D01*
X161678185Y-426139017D01*
X161821634Y-425944995D01*
X162081279Y-425792445D01*
X162605373Y-425668224D01*
X163554674Y-425614759D01*
X164182499Y-425657707D01*
X164593927Y-425765579D01*
X164897318Y-425943299D01*
X165062867Y-426162853D01*
X165118438Y-426437247D01*
X165093876Y-426629214D01*
X165023794Y-426786514D01*
X164647050Y-427173028D01*
X164483214Y-427336500D01*
X164367392Y-427503977D01*
X164065141Y-428236706D01*
X162869572Y-431447278D01*
X161789408Y-434119295D01*
X161405947Y-434886828D01*
X161237087Y-435109783D01*
X161064007Y-435242812D01*
X160856589Y-435317165D01*
X160562699Y-435345394D01*
X160175375Y-435295437D01*
X159892863Y-435159159D01*
X159669650Y-434928553D01*
X159465438Y-434547941D01*
X158112332Y-431310502D01*
X157953574Y-430982606D01*
X157816798Y-430919103D01*
X157698628Y-430956259D01*
X157584768Y-431084577D01*
X157199475Y-431965073D01*
X156270741Y-434295760D01*
X155989009Y-434866649D01*
X155768822Y-435139009D01*
X155487866Y-435287777D01*
X155043421Y-435345394D01*
X154638927Y-435288791D01*
X154351603Y-435134734D01*
X154126487Y-434871091D01*
X153891205Y-434396510D01*
X151377336Y-427914305D01*
X151165455Y-427450854D01*
X150805807Y-427218824D01*
X150606817Y-427069415D01*
X150488835Y-426868781D01*
X150446771Y-426599668D01*
X150513937Y-426298309D01*
X150720451Y-426047773D01*
X151114462Y-425835781D01*
X151786534Y-425678554D01*
X152857447Y-425614759D01*
X153998421Y-425665090D01*
X154632482Y-425782065D01*
X154941361Y-425940559D01*
X155112904Y-426160649D01*
X155172259Y-426459839D01*
X155143560Y-426689427D01*
X154942671Y-427003890D01*
X154885712Y-427137568D01*
X154864513Y-427323237D01*
X154947176Y-427762668D01*
X155320026Y-428772208D01*
X155600295Y-429435327D01*
X155831715Y-429924424D01*
X155897463Y-429984313D01*
X155985588Y-430004413D01*
X156121588Y-429951854D01*
X156292170Y-429744600D01*
X156514373Y-429257641D01*
X156794031Y-428471789D01*
X156827004Y-428348447D01*
X156794031Y-428211060D01*
G37*
G36*
X166700521Y-425810153D02*
G01*
X170211512Y-425810153D01*
X171763676Y-425764968D01*
X172244994Y-425695543D01*
X172713170Y-425579344D01*
X172943979Y-425536601D01*
X173168653Y-425577169D01*
X173380705Y-425703037D01*
X173588780Y-425934717D01*
X173837037Y-426379315D01*
X173989786Y-426887587D01*
X174043072Y-427474668D01*
X173990626Y-427900397D01*
X173850120Y-428200069D01*
X173622324Y-428400211D01*
X173320113Y-428467515D01*
X173105023Y-428441095D01*
X172957413Y-428371039D01*
X172825555Y-428239356D01*
X172613641Y-427945446D01*
X172392131Y-427667538D01*
X172142317Y-427466301D01*
X171860152Y-427332397D01*
X171329778Y-427224653D01*
X170355616Y-427177913D01*
X169841173Y-427218938D01*
X169556129Y-427315692D01*
X169415281Y-427444138D01*
X169349109Y-427603417D01*
X169312088Y-427833705D01*
X169295602Y-429100715D01*
X169336575Y-429448091D01*
X169425050Y-429586758D01*
X169611138Y-429647676D01*
X170129691Y-429678960D01*
X170383282Y-429646116D01*
X170532692Y-429563555D01*
X170628132Y-429416798D01*
X170690839Y-429143457D01*
X170791589Y-428589026D01*
X170864668Y-428448411D01*
X170984541Y-428322801D01*
X171145729Y-428226234D01*
X171331976Y-428193963D01*
X171595019Y-428259865D01*
X171826568Y-428469958D01*
X171948554Y-428715508D01*
X172071422Y-429180704D01*
X172146142Y-429694910D01*
X172171561Y-430238886D01*
X172129462Y-430960577D01*
X172013364Y-431548778D01*
X171835117Y-432026133D01*
X171680936Y-432247406D01*
X171492084Y-432371984D01*
X171256872Y-432414480D01*
X171042156Y-432379626D01*
X170921648Y-432290526D01*
X170847990Y-432132124D01*
X170779988Y-431791050D01*
X170683503Y-431457699D01*
X170512127Y-431235170D01*
X170260183Y-431097644D01*
X169897660Y-431046720D01*
X169639159Y-431097766D01*
X169492217Y-431234176D01*
X169417782Y-431464410D01*
X169384140Y-431940648D01*
X169428103Y-432766800D01*
X169520305Y-433434804D01*
X169619917Y-433592860D01*
X169848201Y-433705914D01*
X170173151Y-433758957D01*
X170785483Y-433782240D01*
X171467294Y-433747205D01*
X171964996Y-433655475D01*
X172319328Y-433523342D01*
X172628733Y-433314683D01*
X172908201Y-433008313D01*
X173158913Y-432583618D01*
X173360150Y-432224715D01*
X173510012Y-432046284D01*
X173687147Y-431943075D01*
X173921561Y-431906454D01*
X174189844Y-431968884D01*
X174410657Y-432161078D01*
X174553206Y-432439517D01*
X174603609Y-432794888D01*
X174556642Y-433225107D01*
X174390507Y-433819487D01*
X174149685Y-434408225D01*
X173869660Y-434910642D01*
X173604045Y-435225104D01*
X173486921Y-435284951D01*
X173334157Y-435306315D01*
X172954359Y-435261130D01*
X172481553Y-435192634D01*
X171789932Y-435150000D01*
X165997102Y-435150000D01*
X165669480Y-435106904D01*
X165444503Y-434991852D01*
X165297843Y-434804423D01*
X165246666Y-434544277D01*
X165270932Y-434357725D01*
X165332151Y-434246912D01*
X165448505Y-434156567D01*
X165715612Y-434015491D01*
X165896445Y-433914526D01*
X166012367Y-433803000D01*
X166093097Y-433658294D01*
X166162577Y-433429309D01*
X166323514Y-432313757D01*
X166387280Y-430660816D01*
X166334319Y-428859462D01*
X166210928Y-427848552D01*
X166061216Y-427350715D01*
X165916502Y-427167533D01*
X165581889Y-427041137D01*
X165354256Y-426925243D01*
X165224449Y-426752231D01*
X165178278Y-426504413D01*
X165211870Y-426291593D01*
X165312001Y-426104466D01*
X165466453Y-425958702D01*
X165664321Y-425871824D01*
X165994875Y-425829667D01*
X166700521Y-425810153D01*
G37*
G36*
X180371024Y-425594046D02*
G01*
X180810959Y-425770358D01*
X181256174Y-426081873D01*
X181623973Y-426473063D01*
X182139734Y-427214693D01*
X182848636Y-428460516D01*
X183802406Y-430392149D01*
X185093229Y-433163695D01*
X185277703Y-433509915D01*
X185395480Y-433665614D01*
X185537427Y-433759890D01*
X185761844Y-433823761D01*
X186055649Y-433923389D01*
X186214445Y-434091938D01*
X186269869Y-434344609D01*
X186206060Y-434647572D01*
X186014873Y-434889213D01*
X185660483Y-435083443D01*
X185242474Y-435194144D01*
X184606281Y-435274667D01*
X183682116Y-435306315D01*
X182236839Y-435267271D01*
X181389897Y-435174424D01*
X181070483Y-435075011D01*
X180836076Y-434916748D01*
X180681003Y-434700552D01*
X180629691Y-434444138D01*
X180659257Y-434247136D01*
X180739600Y-434110746D01*
X180878568Y-434006265D01*
X181141380Y-433893981D01*
X181378739Y-433746210D01*
X181449126Y-433545935D01*
X181392715Y-433305453D01*
X181227294Y-433140819D01*
X180913013Y-433040963D01*
X180258950Y-432984423D01*
X179241781Y-432961584D01*
X178427304Y-432997900D01*
X178165891Y-433064776D01*
X178072741Y-433148151D01*
X177981488Y-433296807D01*
X177902109Y-433620429D01*
X177918483Y-433757407D01*
X177955232Y-433818265D01*
X178325260Y-433963590D01*
X178573438Y-434083583D01*
X178709221Y-434249664D01*
X178755738Y-434474057D01*
X178699821Y-434731093D01*
X178529062Y-434943280D01*
X178205994Y-435121510D01*
X177658453Y-435253065D01*
X176789583Y-435306315D01*
X175753104Y-435261016D01*
X175158041Y-435154274D01*
X174880067Y-435012197D01*
X174721961Y-434801990D01*
X174665891Y-434502756D01*
X174695564Y-434300560D01*
X174775801Y-434161427D01*
X174913190Y-434054287D01*
X175163536Y-433941608D01*
X175560444Y-433746404D01*
X175829098Y-433501971D01*
X176063720Y-433130073D01*
X176478173Y-432281367D01*
X177013998Y-431104727D01*
X178735588Y-431104727D01*
X178797484Y-431229377D01*
X179030511Y-431281193D01*
X180368962Y-431281193D01*
X180651597Y-431230638D01*
X180718229Y-431121824D01*
X180634479Y-430838009D01*
X180208372Y-430033722D01*
X179857884Y-429500052D01*
X179731104Y-429397837D01*
X179610588Y-429367550D01*
X179481466Y-429405543D01*
X179352754Y-429536214D01*
X179219189Y-429812683D01*
X179021352Y-430299947D01*
X178780621Y-430915926D01*
X178735588Y-431104727D01*
X177013998Y-431104727D01*
X177441101Y-430166835D01*
X177917250Y-429073142D01*
X178153679Y-428428436D01*
X178291966Y-427852069D01*
X178341135Y-427301256D01*
X178366904Y-426754406D01*
X178413798Y-426476936D01*
X178515668Y-426254307D01*
X178708721Y-426020812D01*
X179052932Y-425753616D01*
X179452796Y-425592590D01*
X179925050Y-425536601D01*
X180371024Y-425594046D01*
G37*
G36*
X190652196Y-425614759D02*
G01*
X191404371Y-425690522D01*
X192502336Y-425964637D01*
X192715438Y-426004937D01*
X193118438Y-425882815D01*
X193357186Y-425840683D01*
X193639034Y-425905114D01*
X193959219Y-426125712D01*
X194339042Y-426572801D01*
X194636729Y-427079229D01*
X194800833Y-427540156D01*
X194852563Y-427968039D01*
X194792630Y-428331819D01*
X194618089Y-428628105D01*
X194356312Y-428831057D01*
X194047172Y-428897383D01*
X193786059Y-428867434D01*
X193594101Y-428786252D01*
X192838170Y-428133513D01*
X192262942Y-427688947D01*
X191736326Y-427448588D01*
X191239600Y-427373307D01*
X190891660Y-427421105D01*
X190641205Y-427551605D01*
X190474728Y-427756615D01*
X190418944Y-428018108D01*
X190470233Y-428260682D01*
X190631091Y-428482083D01*
X190937043Y-428692371D01*
X191450260Y-428887613D01*
X192736455Y-429289007D01*
X193263152Y-429493946D01*
X193928869Y-429892721D01*
X194413352Y-430337291D01*
X194747117Y-430829513D01*
X194947353Y-431379675D01*
X195016205Y-432005373D01*
X194967395Y-432575280D01*
X194825194Y-433090387D01*
X194591028Y-433561259D01*
X194259755Y-433995730D01*
X193820026Y-434398342D01*
X193190422Y-434798604D01*
X192461595Y-435093699D01*
X191615828Y-435279723D01*
X190631436Y-435345394D01*
X189745883Y-435294992D01*
X188782517Y-435137177D01*
X187884955Y-434889627D01*
X187375678Y-434648080D01*
X187185157Y-434473027D01*
X186985691Y-434170095D01*
X186777894Y-433690648D01*
X186577753Y-432953788D01*
X186513501Y-432256332D01*
X186552720Y-431943493D01*
X186654551Y-431740980D01*
X186855612Y-431571140D01*
X187100295Y-431515666D01*
X187352203Y-431577175D01*
X187612594Y-431782501D01*
X188291589Y-432727110D01*
X188599797Y-433053837D01*
X189085989Y-433341992D01*
X189642944Y-433526013D01*
X190215001Y-433586845D01*
X190684437Y-433537283D01*
X191022224Y-433404884D01*
X191257574Y-433190508D01*
X191329359Y-432942044D01*
X191271656Y-432702444D01*
X191088170Y-432487752D01*
X190802361Y-432316394D01*
X190298044Y-432127494D01*
X189381982Y-431828512D01*
X188805110Y-431584054D01*
X188309849Y-431294754D01*
X187845235Y-430936200D01*
X187351867Y-430416237D01*
X187018485Y-429885086D01*
X186823913Y-429334514D01*
X186758965Y-428752058D01*
X186828392Y-428159312D01*
X187040455Y-427574197D01*
X187379244Y-427041251D01*
X187839129Y-426580739D01*
X188439809Y-426162220D01*
X189100725Y-425862405D01*
X189833284Y-425678371D01*
X190652196Y-425614759D01*
G37*
G36*
X196967095Y-425810153D02*
G01*
X200478086Y-425810153D01*
X202030249Y-425764968D01*
X202511567Y-425695543D01*
X202979743Y-425579344D01*
X203210553Y-425536601D01*
X203435226Y-425577169D01*
X203647278Y-425703037D01*
X203855354Y-425934717D01*
X204103611Y-426379315D01*
X204256360Y-426887587D01*
X204309646Y-427474668D01*
X204257200Y-427900397D01*
X204116694Y-428200069D01*
X203888898Y-428400211D01*
X203586687Y-428467515D01*
X203371596Y-428441095D01*
X203223986Y-428371039D01*
X203092129Y-428239356D01*
X202880214Y-427945446D01*
X202658705Y-427667538D01*
X202408891Y-427466301D01*
X202126725Y-427332397D01*
X201596352Y-427224653D01*
X200622189Y-427177913D01*
X200107746Y-427218938D01*
X199822703Y-427315692D01*
X199681854Y-427444138D01*
X199615682Y-427603417D01*
X199578662Y-427833705D01*
X199562175Y-429100715D01*
X199603149Y-429448091D01*
X199691624Y-429586758D01*
X199877712Y-429647676D01*
X200396265Y-429678960D01*
X200649855Y-429646116D01*
X200799265Y-429563555D01*
X200894705Y-429416798D01*
X200957413Y-429143457D01*
X201058163Y-428589026D01*
X201131241Y-428448411D01*
X201251115Y-428322801D01*
X201412302Y-428226234D01*
X201598550Y-428193963D01*
X201861593Y-428259865D01*
X202093142Y-428469958D01*
X202215128Y-428715508D01*
X202337995Y-429180704D01*
X202412715Y-429694910D01*
X202438135Y-430238886D01*
X202396036Y-430960577D01*
X202279937Y-431548778D01*
X202101690Y-432026133D01*
X201947510Y-432247406D01*
X201758657Y-432371984D01*
X201523445Y-432414480D01*
X201308730Y-432379626D01*
X201188222Y-432290526D01*
X201114564Y-432132124D01*
X201046561Y-431791050D01*
X200950077Y-431457699D01*
X200778700Y-431235170D01*
X200526757Y-431097644D01*
X200164234Y-431046720D01*
X199905733Y-431097766D01*
X199758791Y-431234176D01*
X199684356Y-431464410D01*
X199650713Y-431940648D01*
X199694677Y-432766800D01*
X199786879Y-433434804D01*
X199886490Y-433592860D01*
X200114775Y-433705914D01*
X200439724Y-433758957D01*
X201052057Y-433782240D01*
X201733868Y-433747205D01*
X202231570Y-433655475D01*
X202585902Y-433523342D01*
X202895307Y-433314683D01*
X203174775Y-433008313D01*
X203425486Y-432583618D01*
X203626724Y-432224715D01*
X203776586Y-432046284D01*
X203953720Y-431943075D01*
X204188135Y-431906454D01*
X204456417Y-431968884D01*
X204677231Y-432161078D01*
X204819779Y-432439517D01*
X204870183Y-432794888D01*
X204823216Y-433225107D01*
X204657081Y-433819487D01*
X204416259Y-434408225D01*
X204136233Y-434910642D01*
X203870619Y-435225104D01*
X203753495Y-435284951D01*
X203600731Y-435306315D01*
X203220933Y-435261130D01*
X202748127Y-435192634D01*
X202056505Y-435150000D01*
X196263676Y-435150000D01*
X195936054Y-435106904D01*
X195711076Y-434991852D01*
X195564416Y-434804423D01*
X195513239Y-434544277D01*
X195537506Y-434357725D01*
X195598724Y-434246912D01*
X195715079Y-434156567D01*
X195982186Y-434015491D01*
X196163018Y-433914526D01*
X196278941Y-433803000D01*
X196359670Y-433658294D01*
X196429150Y-433429309D01*
X196590088Y-432313757D01*
X196653854Y-430660816D01*
X196600893Y-428859462D01*
X196477501Y-427848552D01*
X196327789Y-427350715D01*
X196183075Y-427167533D01*
X195848463Y-427041137D01*
X195620830Y-426925243D01*
X195491022Y-426752231D01*
X195444851Y-426504413D01*
X195478443Y-426291593D01*
X195578574Y-426104466D01*
X195733026Y-425958702D01*
X195930895Y-425871824D01*
X196261448Y-425829667D01*
X196967095Y-425810153D01*
G37*
G36*
X209637193Y-428766102D02*
G01*
X209637193Y-431911950D01*
X209665780Y-432632080D01*
X209733513Y-433051780D01*
X209818543Y-433271772D01*
X209997497Y-433454173D01*
X210291480Y-433577477D01*
X210751551Y-433625924D01*
X211256426Y-433584119D01*
X211654954Y-433469323D01*
X211969101Y-433291311D01*
X212226126Y-433039031D01*
X212434266Y-432697190D01*
X212590699Y-432244731D01*
X212699835Y-431979399D01*
X212857467Y-431837428D01*
X213074300Y-431789218D01*
X213305729Y-431825647D01*
X213504540Y-431933305D01*
X213680022Y-432121388D01*
X213851002Y-432487232D01*
X213913274Y-432978681D01*
X213849793Y-433532290D01*
X213647947Y-434134997D01*
X213281907Y-434802564D01*
X213078039Y-435082505D01*
X212927144Y-435229378D01*
X212759891Y-435315416D01*
X212553452Y-435345394D01*
X211037315Y-435150000D01*
X206263588Y-435150000D01*
X205824267Y-435116032D01*
X205591310Y-435037648D01*
X205428340Y-434908699D01*
X205333990Y-434748919D01*
X205301272Y-434547941D01*
X205327768Y-434366044D01*
X205397137Y-434251186D01*
X205852039Y-433981297D01*
X206171934Y-433756464D01*
X206341135Y-433472051D01*
X206397917Y-433064833D01*
X206428452Y-431839288D01*
X206394258Y-430022732D01*
X206353348Y-428308147D01*
X206327276Y-427807245D01*
X206270305Y-427567480D01*
X206147987Y-427403365D01*
X205922870Y-427284159D01*
X205512032Y-427123302D01*
X205342793Y-427027704D01*
X205169985Y-426831502D01*
X205116868Y-426621650D01*
X205160399Y-426400290D01*
X205294840Y-426200868D01*
X205545121Y-426014268D01*
X205957064Y-425842515D01*
X206434455Y-425724406D01*
X207054823Y-425644467D01*
X207848114Y-425614759D01*
X209091906Y-425655228D01*
X209833808Y-425752145D01*
X210251741Y-425888819D01*
X210507953Y-426061561D01*
X210648843Y-426265421D01*
X210695985Y-426511741D01*
X210663785Y-426724299D01*
X210578749Y-426859787D01*
X210417437Y-426971560D01*
X210021875Y-427159595D01*
X209817488Y-427312403D01*
X209703749Y-427547941D01*
X209659024Y-427904814D01*
X209637193Y-428766102D01*
G37*
D11*
X18500000Y-419000000D02*
G75*
G02*
X21500000Y-416000000I3000000J0D01*
G01*
D10*
X21500000Y-602000000D02*
X342500000Y-602000000D01*
X342500000Y-419000000D02*
X342500000Y-608000000D01*
D11*
X18500000Y-605000000D02*
X18500000Y-419000000D01*
X345500000Y-605000000D02*
G75*
G02*
X342500000Y-608000000I-3000000J0D01*
G01*
D10*
X21500000Y-439250000D02*
X342500000Y-439250000D01*
D13*
%TO.C,G\u002A\u002A\u002A*%
G36*
X220524314Y-521779000D02*
G01*
X220481981Y-521821334D01*
X220439647Y-521779000D01*
X220481981Y-521736667D01*
X220524314Y-521779000D01*
G37*
G36*
X189423425Y-496110889D02*
G01*
X189411803Y-496161223D01*
X189366981Y-496167334D01*
X189297290Y-496136355D01*
X189310536Y-496110889D01*
X189411016Y-496100756D01*
X189423425Y-496110889D01*
G37*
G36*
X197212758Y-478754222D02*
G01*
X197201136Y-478804557D01*
X197156314Y-478810667D01*
X197086624Y-478779689D01*
X197099869Y-478754222D01*
X197200349Y-478744089D01*
X197212758Y-478754222D01*
G37*
G36*
X187672676Y-500550839D02*
G01*
X187673647Y-500570000D01*
X187608559Y-500651413D01*
X187583984Y-500654667D01*
X187533418Y-500602797D01*
X187546647Y-500570000D01*
X187622729Y-500489230D01*
X187636311Y-500485334D01*
X187672676Y-500550839D01*
G37*
G36*
X179867385Y-513481667D02*
G01*
X180106696Y-514468799D01*
X180189195Y-515478695D01*
X180163029Y-516062447D01*
X180095981Y-516780561D01*
X179951043Y-516316447D01*
X179736990Y-515376458D01*
X179647243Y-514324451D01*
X179648265Y-513778000D01*
X179672647Y-512889000D01*
X179867385Y-513481667D01*
G37*
G36*
X181322032Y-527672255D02*
G01*
X181382609Y-527827210D01*
X181369335Y-527906763D01*
X181250860Y-528047631D01*
X181061861Y-528085070D01*
X180870685Y-528012549D01*
X180815647Y-527959667D01*
X180752928Y-527824154D01*
X180815647Y-527705667D01*
X180985789Y-527592320D01*
X181172172Y-527587570D01*
X181322032Y-527672255D01*
G37*
G36*
X186603196Y-499810598D02*
G01*
X186785471Y-499852477D01*
X186874841Y-499901610D01*
X186842047Y-499952858D01*
X186674604Y-499962274D01*
X186402171Y-499928973D01*
X186340147Y-499917581D01*
X186191597Y-499866481D01*
X186149647Y-499821041D01*
X186221352Y-499787776D01*
X186393846Y-499786663D01*
X186603196Y-499810598D01*
G37*
G36*
X189978748Y-495398598D02*
G01*
X190128981Y-495532334D01*
X190287620Y-495699493D01*
X190376253Y-495822343D01*
X190382981Y-495844507D01*
X190322753Y-495912553D01*
X190186252Y-495904163D01*
X190039747Y-495834305D01*
X189962626Y-495749566D01*
X189889539Y-495546252D01*
X189874981Y-495437393D01*
X189896464Y-495363996D01*
X189978748Y-495398598D01*
G37*
G36*
X203106386Y-525490209D02*
G01*
X203209660Y-525562646D01*
X203167132Y-525661033D01*
X203090918Y-525711752D01*
X202886036Y-525779694D01*
X202652679Y-525801460D01*
X202448450Y-525779223D01*
X202330955Y-525715155D01*
X202320981Y-525682725D01*
X202399588Y-525547589D01*
X202635419Y-525475295D01*
X202873242Y-525462000D01*
X203106386Y-525490209D01*
G37*
G36*
X164689837Y-508777506D02*
G01*
X164578192Y-508879464D01*
X164406112Y-508984210D01*
X164212916Y-509071800D01*
X164013577Y-509147019D01*
X163856654Y-509193892D01*
X163790708Y-509196445D01*
X163797647Y-509184370D01*
X163904992Y-509111038D01*
X164090145Y-509012066D01*
X164307091Y-508908440D01*
X164509811Y-508821145D01*
X164652286Y-508771166D01*
X164689837Y-508777506D01*
G37*
G36*
X158957295Y-516369930D02*
G01*
X158846946Y-516453380D01*
X158597609Y-516584102D01*
X158527147Y-516617401D01*
X158180858Y-516763948D01*
X157959760Y-516824018D01*
X157872137Y-516795492D01*
X157870981Y-516785388D01*
X157941604Y-516720792D01*
X158118875Y-516621531D01*
X158350891Y-516512401D01*
X158585749Y-516418202D01*
X158738814Y-516370735D01*
X158923102Y-516340225D01*
X158957295Y-516369930D01*
G37*
G36*
X160043428Y-521686614D02*
G01*
X160057208Y-521726432D01*
X159916351Y-521801485D01*
X159617771Y-521915498D01*
X159290334Y-522028189D01*
X158928145Y-522133104D01*
X158574519Y-522207886D01*
X158300449Y-522237817D01*
X158279386Y-522237762D01*
X157913314Y-522230858D01*
X158421314Y-521990685D01*
X159000660Y-521785706D01*
X159564314Y-521697787D01*
X159878101Y-521678307D01*
X160043428Y-521686614D01*
G37*
G36*
X175740039Y-485807813D02*
G01*
X175925096Y-485942197D01*
X176122006Y-486112903D01*
X176278765Y-486276348D01*
X176330156Y-486349442D01*
X176387918Y-486467725D01*
X176375164Y-486501008D01*
X176268865Y-486445342D01*
X176053749Y-486302051D01*
X175861252Y-486148695D01*
X175701264Y-485983397D01*
X175602312Y-485842153D01*
X175592925Y-485760956D01*
X175618843Y-485753334D01*
X175740039Y-485807813D01*
G37*
G36*
X183095413Y-531802094D02*
G01*
X183143981Y-531896667D01*
X183067361Y-531997604D01*
X182869656Y-532090475D01*
X182599093Y-532164724D01*
X182303902Y-532209794D01*
X182032312Y-532215131D01*
X181852814Y-532179260D01*
X181751802Y-532101351D01*
X181813805Y-532013004D01*
X182041062Y-531912251D01*
X182221063Y-531855530D01*
X182613955Y-531766013D01*
X182912549Y-531748520D01*
X183095413Y-531802094D01*
G37*
G36*
X186626435Y-501201648D02*
G01*
X186655521Y-501291085D01*
X186566576Y-501388921D01*
X186382481Y-501451932D01*
X186012188Y-501501771D01*
X185715540Y-501526474D01*
X185525493Y-501524263D01*
X185472314Y-501501058D01*
X185545734Y-501441422D01*
X185730584Y-501359893D01*
X185973748Y-501274559D01*
X186222110Y-501203510D01*
X186422557Y-501164835D01*
X186467147Y-501162248D01*
X186626435Y-501201648D01*
G37*
G36*
X167691203Y-503006772D02*
G01*
X167692314Y-503030094D01*
X167619205Y-503112669D01*
X167429701Y-503225301D01*
X167168537Y-503345978D01*
X166880446Y-503452688D01*
X166760981Y-503488374D01*
X166634604Y-503518022D01*
X166634220Y-503492391D01*
X166766243Y-503393056D01*
X166803314Y-503366810D01*
X166999242Y-503244728D01*
X167241364Y-503114556D01*
X167471923Y-503005013D01*
X167633165Y-502944818D01*
X167660320Y-502940667D01*
X167691203Y-503006772D01*
G37*
G36*
X168419733Y-504983094D02*
G01*
X168209812Y-505209731D01*
X167905457Y-505505315D01*
X167545876Y-505834803D01*
X167170277Y-506163152D01*
X166817866Y-506455320D01*
X166527852Y-506676264D01*
X166516049Y-506684564D01*
X166144117Y-506944783D01*
X166507576Y-506463385D01*
X166768812Y-506161732D01*
X167119202Y-505817014D01*
X167514132Y-505467801D01*
X167908985Y-505152661D01*
X168259149Y-504910163D01*
X168392706Y-504833743D01*
X168656773Y-504697188D01*
X168419733Y-504983094D01*
G37*
G36*
X172933069Y-509629334D02*
G01*
X172844763Y-509776904D01*
X172695111Y-509994463D01*
X172512992Y-510243783D01*
X172327283Y-510486635D01*
X172166865Y-510684792D01*
X172060614Y-510800026D01*
X172037629Y-510814667D01*
X172055398Y-510748924D01*
X172137041Y-510581797D01*
X172198286Y-510468897D01*
X172320403Y-510274452D01*
X172474052Y-510062423D01*
X172636793Y-509858451D01*
X172786184Y-509688177D01*
X172899784Y-509577243D01*
X172955150Y-509551291D01*
X172933069Y-509629334D01*
G37*
G36*
X167519750Y-497285107D02*
G01*
X167870809Y-497321742D01*
X168257955Y-497383055D01*
X168617326Y-497459943D01*
X168730710Y-497490589D01*
X168834286Y-497560158D01*
X168802021Y-497637411D01*
X168660794Y-497683170D01*
X168597484Y-497684780D01*
X168432723Y-497661335D01*
X168155139Y-497604576D01*
X167815431Y-497525172D01*
X167692314Y-497494280D01*
X167360913Y-497406640D01*
X167178790Y-497348706D01*
X167130122Y-497312558D01*
X167199086Y-497290278D01*
X167268642Y-497282249D01*
X167519750Y-497285107D01*
G37*
G36*
X175635313Y-518223000D02*
G01*
X175682741Y-518485816D01*
X175712639Y-518854561D01*
X175724407Y-519272066D01*
X175717448Y-519681160D01*
X175691160Y-520024674D01*
X175656164Y-520212667D01*
X175613518Y-520333075D01*
X175576578Y-520329079D01*
X175524656Y-520184298D01*
X175495742Y-520085667D01*
X175446749Y-519807839D01*
X175417934Y-519422603D01*
X175409897Y-518990747D01*
X175423241Y-518573060D01*
X175458567Y-518230331D01*
X175476469Y-518138334D01*
X175535924Y-517884334D01*
X175635313Y-518223000D01*
G37*
G36*
X177442158Y-518900233D02*
G01*
X177478503Y-518965924D01*
X177573556Y-519191971D01*
X177683849Y-519531761D01*
X177798733Y-519941764D01*
X177907558Y-520378452D01*
X177999674Y-520798295D01*
X178064430Y-521157764D01*
X178091177Y-521413332D01*
X178090027Y-521465371D01*
X178063981Y-521779000D01*
X177830442Y-521335923D01*
X177520591Y-520568951D01*
X177365353Y-519746805D01*
X177347704Y-519327045D01*
X177351291Y-519021096D01*
X177362941Y-518862579D01*
X177390585Y-518829592D01*
X177442158Y-518900233D01*
G37*
G36*
X161198352Y-523272121D02*
G01*
X161329828Y-523305232D01*
X161342314Y-523325360D01*
X161301798Y-523396085D01*
X161167337Y-523451778D01*
X160919558Y-523496037D01*
X160539090Y-523532460D01*
X160072314Y-523561247D01*
X159679400Y-523581070D01*
X159435600Y-523588522D01*
X159320940Y-523580346D01*
X159315445Y-523553286D01*
X159399141Y-523504087D01*
X159479647Y-523464623D01*
X159676181Y-523400971D01*
X159962179Y-523345946D01*
X160297517Y-523302549D01*
X160642073Y-523273780D01*
X160955726Y-523262637D01*
X161198352Y-523272121D01*
G37*
G36*
X163689754Y-516277330D02*
G01*
X163538435Y-516427119D01*
X163244352Y-516667852D01*
X163012761Y-516846158D01*
X162591520Y-517161197D01*
X162287102Y-517377317D01*
X162085547Y-517503160D01*
X161972893Y-517547369D01*
X161935178Y-517518584D01*
X161934981Y-517513315D01*
X161996308Y-517376251D01*
X162154567Y-517176750D01*
X162371176Y-516953910D01*
X162607550Y-516746830D01*
X162825105Y-516594608D01*
X162860538Y-516575414D01*
X163283701Y-516367524D01*
X163562729Y-516248141D01*
X163697966Y-516217873D01*
X163689754Y-516277330D01*
G37*
G36*
X169794005Y-499155257D02*
G01*
X170023628Y-499171342D01*
X170101467Y-499191172D01*
X170153570Y-499244710D01*
X170092076Y-499300098D01*
X169895955Y-499370564D01*
X169747834Y-499413624D01*
X169004025Y-499535279D01*
X168241197Y-499491119D01*
X168030981Y-499450000D01*
X167812341Y-499394264D01*
X167741437Y-499352021D01*
X167799029Y-499308617D01*
X167829492Y-499296527D01*
X168016169Y-499254440D01*
X168315301Y-499217167D01*
X168684770Y-499186658D01*
X169082456Y-499164868D01*
X169466241Y-499153750D01*
X169794005Y-499155257D01*
G37*
G36*
X180771402Y-532271072D02*
G01*
X180827350Y-532297837D01*
X180848200Y-532401720D01*
X180732528Y-532508535D01*
X180512827Y-532610851D01*
X180221593Y-532701240D01*
X179891319Y-532772273D01*
X179554499Y-532816520D01*
X179243628Y-532826553D01*
X178991199Y-532794943D01*
X178869022Y-532745563D01*
X178791543Y-532665241D01*
X178835626Y-532590926D01*
X179013039Y-532517795D01*
X179335547Y-532441026D01*
X179814916Y-532355797D01*
X179823466Y-532354412D01*
X180280559Y-532287642D01*
X180590700Y-532260190D01*
X180771402Y-532271072D01*
G37*
G36*
X186828385Y-521060085D02*
G01*
X187009169Y-521124270D01*
X187291259Y-521190647D01*
X187556075Y-521236043D01*
X187940789Y-521310296D01*
X188233081Y-521406170D01*
X188403737Y-521512280D01*
X188435647Y-521578807D01*
X188359402Y-521626034D01*
X188163562Y-521658212D01*
X187897474Y-521671830D01*
X187610483Y-521663377D01*
X187461981Y-521648098D01*
X187127755Y-521560297D01*
X186839402Y-521409838D01*
X186650351Y-521227129D01*
X186620430Y-521169136D01*
X186596847Y-521023204D01*
X186687562Y-521000012D01*
X186828385Y-521060085D01*
G37*
G36*
X162256199Y-512984958D02*
G01*
X162143918Y-513099669D01*
X161885951Y-513298651D01*
X161482476Y-513581699D01*
X161135012Y-513815490D01*
X160484389Y-514234510D01*
X159948796Y-514548998D01*
X159515643Y-514765719D01*
X159172339Y-514891436D01*
X159098647Y-514909531D01*
X158844647Y-514964621D01*
X159183314Y-514659516D01*
X159478415Y-514427557D01*
X159889747Y-514150791D01*
X160378454Y-513852389D01*
X160905677Y-513555523D01*
X161432561Y-513283366D01*
X161717135Y-513148495D01*
X162042986Y-513009166D01*
X162222615Y-512954722D01*
X162256199Y-512984958D01*
G37*
G36*
X171808942Y-507985999D02*
G01*
X171670824Y-508146676D01*
X171445836Y-508361044D01*
X171159059Y-508606208D01*
X170835573Y-508859273D01*
X170600019Y-509029349D01*
X170303271Y-509233714D01*
X170127091Y-509346826D01*
X170053998Y-509375492D01*
X170066507Y-509326519D01*
X170147139Y-509206715D01*
X170148142Y-509205305D01*
X170274872Y-509066656D01*
X170487094Y-508873664D01*
X170754100Y-508650055D01*
X171045183Y-508419555D01*
X171329635Y-508205889D01*
X171576748Y-508032782D01*
X171755815Y-507923961D01*
X171835110Y-507901907D01*
X171808942Y-507985999D01*
G37*
G36*
X178576691Y-515548988D02*
G01*
X178648935Y-515760081D01*
X178737922Y-516071803D01*
X178835929Y-516451346D01*
X178935234Y-516865901D01*
X179028115Y-517282660D01*
X179106850Y-517668815D01*
X179163716Y-517991557D01*
X179190991Y-518218078D01*
X179191137Y-518284820D01*
X179164647Y-518557194D01*
X178904589Y-518220764D01*
X178621407Y-517780056D01*
X178448712Y-517314851D01*
X178376832Y-516784567D01*
X178396092Y-516148621D01*
X178400098Y-516104468D01*
X178436982Y-515801724D01*
X178480484Y-515577821D01*
X178522201Y-515474063D01*
X178528912Y-515471334D01*
X178576691Y-515548988D01*
G37*
G36*
X193167669Y-520942245D02*
G01*
X192864958Y-521193065D01*
X192483770Y-521370910D01*
X191995915Y-521485219D01*
X191373204Y-521545431D01*
X191365156Y-521545846D01*
X190939385Y-521559185D01*
X190631690Y-521551038D01*
X190463084Y-521522312D01*
X190439662Y-521505882D01*
X190488274Y-521443406D01*
X190671093Y-521356645D01*
X190956526Y-521255719D01*
X191312979Y-521150748D01*
X191708857Y-521051853D01*
X192112568Y-520969154D01*
X192118647Y-520968066D01*
X192469761Y-520904926D01*
X192818370Y-520841515D01*
X192991224Y-520809683D01*
X193355801Y-520741988D01*
X193167669Y-520942245D01*
G37*
G36*
X164567627Y-510139895D02*
G01*
X164418315Y-510269627D01*
X164205257Y-510442131D01*
X163964940Y-510628839D01*
X163733851Y-510801185D01*
X163548478Y-510930601D01*
X163474858Y-510975503D01*
X163172204Y-511115295D01*
X162879450Y-511213735D01*
X162645873Y-511256919D01*
X162532939Y-511241271D01*
X162512032Y-511164481D01*
X162643742Y-511045898D01*
X162710652Y-511002923D01*
X162886819Y-510904046D01*
X163150683Y-510766798D01*
X163467254Y-510608094D01*
X163801544Y-510444848D01*
X164118562Y-510293975D01*
X164383319Y-510172389D01*
X164560826Y-510097005D01*
X164616705Y-510081503D01*
X164567627Y-510139895D01*
G37*
G36*
X170993374Y-502337853D02*
G01*
X170994314Y-502342120D01*
X170919401Y-502473332D01*
X170713305Y-502646246D01*
X170403987Y-502844716D01*
X170019407Y-503052594D01*
X169587529Y-503253735D01*
X169136312Y-503431991D01*
X169061568Y-503458213D01*
X168735336Y-503564846D01*
X168556554Y-503604289D01*
X168515380Y-503572060D01*
X168601972Y-503463680D01*
X168756434Y-503319302D01*
X169041154Y-503098604D01*
X169375036Y-502886897D01*
X169512647Y-502813749D01*
X169792384Y-502689338D01*
X170109670Y-502566819D01*
X170426457Y-502458300D01*
X170704701Y-502375892D01*
X170906355Y-502331706D01*
X170993374Y-502337853D01*
G37*
G36*
X169533235Y-501170395D02*
G01*
X169660865Y-501184911D01*
X169663904Y-501219432D01*
X169564720Y-501283170D01*
X169554981Y-501288707D01*
X169344562Y-501377695D01*
X169055974Y-501464591D01*
X168919981Y-501496164D01*
X168657272Y-501543982D01*
X168336071Y-501593311D01*
X167997483Y-501639105D01*
X167682616Y-501676318D01*
X167432575Y-501699905D01*
X167288468Y-501704820D01*
X167268981Y-501698832D01*
X167342290Y-501645632D01*
X167532574Y-501558872D01*
X167795363Y-501456086D01*
X168086189Y-501354804D01*
X168327314Y-501281582D01*
X168664210Y-501214657D01*
X169055100Y-501173332D01*
X169258647Y-501166672D01*
X169533235Y-501170395D01*
G37*
G36*
X145080400Y-542366279D02*
G01*
X144774117Y-542815463D01*
X144445712Y-543277916D01*
X144116918Y-543724813D01*
X143809469Y-544127330D01*
X143545097Y-544456641D01*
X143345535Y-544683922D01*
X143295605Y-544733490D01*
X143096385Y-544902923D01*
X142828078Y-545110235D01*
X142525440Y-545331149D01*
X142223231Y-545541386D01*
X141956208Y-545716669D01*
X141759130Y-545832719D01*
X141673247Y-545866667D01*
X141652207Y-545814166D01*
X141711123Y-545718500D01*
X142307129Y-545016920D01*
X142934313Y-544314492D01*
X143561629Y-543644232D01*
X144158035Y-543039159D01*
X144692484Y-542532292D01*
X144784067Y-542450167D01*
X145370820Y-541929667D01*
X145080400Y-542366279D01*
G37*
G36*
X160041335Y-517782799D02*
G01*
X160003621Y-517854551D01*
X159860070Y-518003070D01*
X159640221Y-518203395D01*
X159373607Y-518430567D01*
X159089766Y-518659624D01*
X158818233Y-518865607D01*
X158588543Y-519023556D01*
X158533330Y-519057191D01*
X158273785Y-519192006D01*
X157923898Y-519352224D01*
X157552837Y-519506415D01*
X157497291Y-519527978D01*
X156827269Y-519785190D01*
X157073625Y-519528051D01*
X157265264Y-519359753D01*
X157550946Y-519148718D01*
X157904200Y-518910511D01*
X158298557Y-518660698D01*
X158707549Y-518414846D01*
X159104706Y-518188519D01*
X159463560Y-517997285D01*
X159757642Y-517856708D01*
X159960482Y-517782356D01*
X160041335Y-517782799D01*
G37*
G36*
X163677290Y-514137421D02*
G01*
X163639923Y-514208017D01*
X163481312Y-514344143D01*
X163227932Y-514528551D01*
X162906259Y-514743990D01*
X162542769Y-514973213D01*
X162163938Y-515198969D01*
X161796242Y-515404009D01*
X161505560Y-515552334D01*
X161150107Y-515720341D01*
X160849084Y-515857163D01*
X160635916Y-515947968D01*
X160546087Y-515978116D01*
X160577558Y-515933061D01*
X160722381Y-515810243D01*
X160955731Y-515629782D01*
X161181087Y-515463501D01*
X161460850Y-515274476D01*
X161806797Y-515061323D01*
X162190137Y-514839336D01*
X162582079Y-514623811D01*
X162953831Y-514430043D01*
X163276603Y-514273327D01*
X163521601Y-514168957D01*
X163660036Y-514132229D01*
X163677290Y-514137421D01*
G37*
G36*
X219780906Y-513451823D02*
G01*
X219601237Y-513572980D01*
X219304229Y-513741541D01*
X218908652Y-513946980D01*
X218433275Y-514178767D01*
X218322981Y-514230782D01*
X217591524Y-514536567D01*
X216954985Y-514721170D01*
X216395354Y-514789590D01*
X216307980Y-514790045D01*
X216182023Y-514782698D01*
X216148089Y-514757450D01*
X216222015Y-514703174D01*
X216419642Y-514608745D01*
X216756807Y-514463037D01*
X216798981Y-514445145D01*
X217162973Y-514296557D01*
X217585919Y-514132980D01*
X218039537Y-513964289D01*
X218495550Y-513800359D01*
X218925678Y-513651066D01*
X219301641Y-513526285D01*
X219595160Y-513435893D01*
X219777956Y-513389764D01*
X219824468Y-513388599D01*
X219780906Y-513451823D01*
G37*
G36*
X174587868Y-510627678D02*
G01*
X174515079Y-510798115D01*
X174457739Y-510914835D01*
X174329448Y-511188508D01*
X174181245Y-511536583D01*
X174071876Y-511814115D01*
X173894517Y-512264747D01*
X173739831Y-512598436D01*
X173581983Y-512860477D01*
X173395136Y-513096164D01*
X173253479Y-513248834D01*
X173008430Y-513486098D01*
X172856941Y-513589252D01*
X172791899Y-513560344D01*
X172806192Y-513401421D01*
X172812366Y-513375834D01*
X172904321Y-513132540D01*
X173075191Y-512789059D01*
X173303765Y-512381758D01*
X173568828Y-511947007D01*
X173849168Y-511521174D01*
X174091247Y-511183247D01*
X174300135Y-510910991D01*
X174470241Y-510699160D01*
X174576964Y-510577911D01*
X174599118Y-510560667D01*
X174587868Y-510627678D01*
G37*
G36*
X175105794Y-513223059D02*
G01*
X175095125Y-513457485D01*
X175066489Y-513775552D01*
X175024889Y-514135575D01*
X174975329Y-514495870D01*
X174922812Y-514814756D01*
X174872341Y-515050547D01*
X174853536Y-515113141D01*
X174678765Y-515481098D01*
X174380048Y-515941846D01*
X173998813Y-516445000D01*
X173921844Y-516530917D01*
X173888854Y-516517023D01*
X173891733Y-516378483D01*
X173912301Y-516180089D01*
X173965925Y-515874788D01*
X174059588Y-515494468D01*
X174171045Y-515127576D01*
X174273296Y-514851228D01*
X174408747Y-514518412D01*
X174562699Y-514161213D01*
X174720456Y-513811714D01*
X174867319Y-513501999D01*
X174988591Y-513264151D01*
X175069575Y-513130253D01*
X175093494Y-513113955D01*
X175105794Y-513223059D01*
G37*
G36*
X169736869Y-506506540D02*
G01*
X169590893Y-506658411D01*
X169362230Y-506866076D01*
X169077658Y-507107154D01*
X168763956Y-507359266D01*
X168447902Y-507600032D01*
X168156274Y-507807070D01*
X168030981Y-507889064D01*
X167683542Y-508098002D01*
X167333664Y-508291454D01*
X167011216Y-508455000D01*
X166746071Y-508574222D01*
X166568100Y-508634700D01*
X166506981Y-508624695D01*
X166569723Y-508519205D01*
X166738280Y-508338277D01*
X166983148Y-508108269D01*
X167274822Y-507855540D01*
X167583797Y-507606446D01*
X167880570Y-507387346D01*
X167930135Y-507353317D01*
X168220172Y-507169675D01*
X168556623Y-506976222D01*
X168906385Y-506789489D01*
X169236355Y-506626008D01*
X169513430Y-506502310D01*
X169704506Y-506434925D01*
X169773379Y-506432843D01*
X169736869Y-506506540D01*
G37*
G36*
X177146112Y-511484501D02*
G01*
X177168038Y-511661197D01*
X177175515Y-511953161D01*
X177169920Y-512333798D01*
X177152635Y-512776514D01*
X177125039Y-513254715D01*
X177088510Y-513741806D01*
X177044429Y-514211192D01*
X176994175Y-514636280D01*
X176939128Y-514990474D01*
X176919501Y-515090334D01*
X176817668Y-515543842D01*
X176734604Y-515841650D01*
X176664945Y-515995662D01*
X176603327Y-516017783D01*
X176545009Y-515921525D01*
X176478707Y-515638504D01*
X176440777Y-515233404D01*
X176431336Y-514751104D01*
X176450500Y-514236482D01*
X176498387Y-513734420D01*
X176538618Y-513470853D01*
X176639002Y-512961764D01*
X176751422Y-512478510D01*
X176866961Y-512052721D01*
X176976703Y-511716028D01*
X177071732Y-511500061D01*
X177108356Y-511449667D01*
X177146112Y-511484501D01*
G37*
G36*
X175872504Y-504234634D02*
G01*
X175828468Y-504300596D01*
X175664841Y-504440124D01*
X175405503Y-504636845D01*
X175074339Y-504874387D01*
X174695229Y-505136378D01*
X174292057Y-505406445D01*
X173888704Y-505668214D01*
X173509052Y-505905315D01*
X173176984Y-506101373D01*
X173037188Y-506178399D01*
X172646856Y-506384699D01*
X172385756Y-506516270D01*
X172234594Y-506579705D01*
X172174074Y-506581600D01*
X172184903Y-506528548D01*
X172229755Y-506454351D01*
X172417757Y-506235905D01*
X172719557Y-505962590D01*
X173100221Y-505660488D01*
X173524815Y-505355681D01*
X173958407Y-505074249D01*
X174366063Y-504842275D01*
X174437435Y-504806076D01*
X174848186Y-504609981D01*
X175226386Y-504442987D01*
X175542616Y-504316807D01*
X175767460Y-504243157D01*
X175871503Y-504233749D01*
X175872504Y-504234634D01*
G37*
G36*
X205434741Y-510086577D02*
G01*
X205258995Y-510305976D01*
X204972433Y-510646919D01*
X204576094Y-511108160D01*
X204071013Y-511688455D01*
X203805733Y-511991281D01*
X203111676Y-512743372D01*
X202473022Y-513351256D01*
X201876192Y-513825371D01*
X201307608Y-514176156D01*
X200753694Y-514414048D01*
X200588068Y-514465042D01*
X200479168Y-514487690D01*
X200452463Y-514461774D01*
X200519425Y-514369466D01*
X200691526Y-514192937D01*
X200881647Y-514008796D01*
X201278540Y-513637077D01*
X201784277Y-513178215D01*
X202376421Y-512652021D01*
X203032534Y-512078305D01*
X203730179Y-511476878D01*
X204268314Y-511018572D01*
X204627787Y-510714030D01*
X204956972Y-510435090D01*
X205226793Y-510206394D01*
X205408176Y-510052584D01*
X205449640Y-510017388D01*
X205498635Y-509989966D01*
X205434741Y-510086577D01*
G37*
G36*
X203466481Y-548516014D02*
G01*
X203679409Y-548562914D01*
X203972493Y-548641669D01*
X204068414Y-548669650D01*
X204591325Y-548869065D01*
X205176690Y-549177901D01*
X205836490Y-549603493D01*
X206582705Y-550153177D01*
X206902903Y-550405305D01*
X207228197Y-550664690D01*
X207529676Y-550903556D01*
X207767503Y-551090423D01*
X207876570Y-551174796D01*
X208038155Y-551304676D01*
X208072735Y-551352428D01*
X207976579Y-551316408D01*
X207745955Y-551194973D01*
X207377133Y-550986477D01*
X207146563Y-550853043D01*
X206675948Y-550582363D01*
X206139504Y-550278636D01*
X205619434Y-549988225D01*
X205360421Y-549845651D01*
X204968279Y-549623191D01*
X204570461Y-549383352D01*
X204192008Y-549142971D01*
X203857961Y-548918886D01*
X203593360Y-548727933D01*
X203423248Y-548586949D01*
X203372665Y-548512771D01*
X203374437Y-548510321D01*
X203466481Y-548516014D01*
G37*
G36*
X204107838Y-526251982D02*
G01*
X204344500Y-526354568D01*
X204526485Y-526563517D01*
X204693451Y-526905688D01*
X204750806Y-527089831D01*
X204720068Y-527213774D01*
X204575746Y-527307670D01*
X204292347Y-527401671D01*
X204268314Y-527408558D01*
X203892325Y-527488958D01*
X203607764Y-527470784D01*
X203360075Y-527341265D01*
X203149773Y-527146759D01*
X202924102Y-526849837D01*
X202857845Y-526605726D01*
X202899514Y-526519423D01*
X203446060Y-526519423D01*
X203545224Y-526604224D01*
X203730936Y-526703108D01*
X203847807Y-526666347D01*
X203872497Y-526602884D01*
X203809986Y-526538531D01*
X203638602Y-526497749D01*
X203633314Y-526497250D01*
X203464774Y-526487715D01*
X203446060Y-526519423D01*
X202899514Y-526519423D01*
X202948255Y-526418472D01*
X203192589Y-526292118D01*
X203588099Y-526230709D01*
X203775335Y-526225248D01*
X204107838Y-526251982D01*
G37*
G36*
X179573624Y-527309415D02*
G01*
X179700619Y-527374937D01*
X179844315Y-527527370D01*
X180004309Y-527772205D01*
X180094115Y-527946437D01*
X180204619Y-528199074D01*
X180245139Y-528351432D01*
X180220774Y-528455013D01*
X180153138Y-528542852D01*
X179839133Y-528778013D01*
X179442918Y-528902133D01*
X179017039Y-528906707D01*
X178627142Y-528789792D01*
X178340717Y-528574223D01*
X178174011Y-528293984D01*
X178129695Y-527988239D01*
X178192689Y-527760368D01*
X178719085Y-527760368D01*
X178784222Y-527875692D01*
X178930888Y-527964641D01*
X179116461Y-527982645D01*
X179273271Y-527934747D01*
X179333981Y-527834706D01*
X179261665Y-527712139D01*
X179093592Y-527623952D01*
X178903071Y-527595027D01*
X178769866Y-527643248D01*
X178719085Y-527760368D01*
X178192689Y-527760368D01*
X178210442Y-527696151D01*
X178418924Y-527456885D01*
X178531522Y-527388298D01*
X178878910Y-527273919D01*
X179248297Y-527247373D01*
X179573624Y-527309415D01*
G37*
G36*
X207307942Y-525841382D02*
G01*
X207663914Y-525954433D01*
X207891273Y-526130882D01*
X207977316Y-526361320D01*
X207923611Y-526606700D01*
X207824423Y-526758784D01*
X207668041Y-526867384D01*
X207423557Y-526943655D01*
X207060062Y-526998750D01*
X206757522Y-527027485D01*
X206396482Y-527050172D01*
X206157599Y-527042888D01*
X205995626Y-527001135D01*
X205893313Y-526941559D01*
X205734977Y-526748431D01*
X205738421Y-526521940D01*
X205810027Y-526411588D01*
X206554314Y-526411588D01*
X206626555Y-526459915D01*
X206800287Y-526477452D01*
X207011026Y-526466954D01*
X207194285Y-526431179D01*
X207281919Y-526380489D01*
X207270988Y-526261427D01*
X207189677Y-526171462D01*
X207055802Y-526107604D01*
X206907209Y-526141977D01*
X206795742Y-526202561D01*
X206630799Y-526318021D01*
X206554875Y-526406719D01*
X206554314Y-526411588D01*
X205810027Y-526411588D01*
X205901398Y-526270776D01*
X206116396Y-526079435D01*
X206408575Y-525891619D01*
X206675673Y-525810691D01*
X206836062Y-525801139D01*
X207307942Y-525841382D01*
G37*
G36*
X210124199Y-524762383D02*
G01*
X210380488Y-524885489D01*
X210633906Y-525085808D01*
X210846962Y-525327459D01*
X210982167Y-525574562D01*
X211002031Y-525791234D01*
X210998964Y-525801768D01*
X210863672Y-525978185D01*
X210602337Y-526135106D01*
X210258044Y-526261417D01*
X209873878Y-526346003D01*
X209492920Y-526377749D01*
X209158257Y-526345542D01*
X209036349Y-526308076D01*
X208803369Y-526145011D01*
X208722827Y-525915588D01*
X208800476Y-525638048D01*
X208816221Y-525609959D01*
X208856872Y-525559789D01*
X209602314Y-525559789D01*
X209670836Y-525679764D01*
X209851518Y-525716807D01*
X210107037Y-525667536D01*
X210234724Y-525617108D01*
X210451769Y-525518216D01*
X210266283Y-525320775D01*
X210112655Y-525182922D01*
X209998489Y-525123391D01*
X209996389Y-525123334D01*
X209840765Y-525191221D01*
X209689555Y-525348527D01*
X209605544Y-525525714D01*
X209602314Y-525559789D01*
X208856872Y-525559789D01*
X208996491Y-525387477D01*
X209269238Y-525141515D01*
X209573493Y-524920204D01*
X209848286Y-524771675D01*
X209902528Y-524752374D01*
X210124199Y-524762383D01*
G37*
G36*
X189597367Y-525312311D02*
G01*
X189795558Y-525395052D01*
X190006459Y-525576601D01*
X190020030Y-525590116D01*
X190214243Y-525818727D01*
X190278661Y-525996802D01*
X190270672Y-526066559D01*
X190280242Y-526268683D01*
X190355493Y-526446442D01*
X190438706Y-526605893D01*
X190419403Y-526738709D01*
X190345784Y-526863042D01*
X190058436Y-527157226D01*
X189678484Y-527343455D01*
X189249368Y-527414601D01*
X188814527Y-527363540D01*
X188417397Y-527183145D01*
X188412966Y-527180117D01*
X188151458Y-526944062D01*
X188036967Y-526676200D01*
X188057170Y-526338448D01*
X188094228Y-526195163D01*
X188109590Y-526161362D01*
X188955817Y-526161362D01*
X189049481Y-526252594D01*
X189299887Y-526298565D01*
X189591002Y-526282655D01*
X189795880Y-526221021D01*
X189929473Y-526106251D01*
X189921126Y-525966219D01*
X189766034Y-525781478D01*
X189665583Y-525693816D01*
X189383745Y-525459966D01*
X189163696Y-525721479D01*
X188986090Y-525980970D01*
X188955817Y-526161362D01*
X188109590Y-526161362D01*
X188287463Y-525769999D01*
X188578555Y-525481684D01*
X188973745Y-525325657D01*
X189328909Y-525292667D01*
X189597367Y-525312311D01*
G37*
G36*
X160863817Y-530355550D02*
G01*
X161147570Y-530527701D01*
X161365537Y-530829046D01*
X161377838Y-530855771D01*
X161506078Y-531129986D01*
X161634018Y-531383455D01*
X161650389Y-531413807D01*
X161731481Y-531596686D01*
X161714585Y-531735999D01*
X161641181Y-531862349D01*
X161343898Y-532167474D01*
X160944738Y-532350148D01*
X160537981Y-532398984D01*
X160253449Y-532382224D01*
X160017450Y-532345551D01*
X159945314Y-532323892D01*
X159652685Y-532127531D01*
X159451260Y-531843726D01*
X159378474Y-531526176D01*
X159378847Y-531511318D01*
X159457669Y-531104954D01*
X159544152Y-530948582D01*
X160098949Y-530948582D01*
X160151522Y-531054943D01*
X160289926Y-531179804D01*
X160487689Y-531328697D01*
X160624843Y-531377032D01*
X160765383Y-531338916D01*
X160839880Y-531301021D01*
X160972611Y-531162020D01*
X161003647Y-531050000D01*
X160930916Y-530878690D01*
X160750496Y-530761858D01*
X160519046Y-530713199D01*
X160293227Y-530746408D01*
X160152126Y-530844183D01*
X160098949Y-530948582D01*
X159544152Y-530948582D01*
X159642033Y-530771600D01*
X159903384Y-530520617D01*
X160213169Y-530361372D01*
X160542832Y-530303228D01*
X160863817Y-530355550D01*
G37*
G36*
X176551931Y-527641770D02*
G01*
X176743935Y-527797565D01*
X176929137Y-527995775D01*
X177058762Y-528186127D01*
X177090314Y-528288265D01*
X177138518Y-528498850D01*
X177222737Y-528661383D01*
X177310220Y-528907108D01*
X177228823Y-529151848D01*
X177031558Y-529354458D01*
X176755656Y-529482692D01*
X176397620Y-529534121D01*
X176026098Y-529509003D01*
X175709737Y-529407591D01*
X175618374Y-529349191D01*
X175346762Y-529056356D01*
X175187210Y-528715684D01*
X175150847Y-528369505D01*
X175183242Y-528267196D01*
X175750716Y-528267196D01*
X175829143Y-528347915D01*
X175989863Y-528398310D01*
X176221809Y-528421412D01*
X176449927Y-528415225D01*
X176599162Y-528377753D01*
X176610721Y-528368704D01*
X176621981Y-528265750D01*
X176515353Y-528148870D01*
X176335832Y-528050424D01*
X176128414Y-528002776D01*
X176100868Y-528002000D01*
X175884780Y-528043317D01*
X175758754Y-528143566D01*
X175750716Y-528267196D01*
X175183242Y-528267196D01*
X175248799Y-528060152D01*
X175270725Y-528026630D01*
X175412677Y-527914067D01*
X175660438Y-527789555D01*
X175954272Y-527676751D01*
X176234441Y-527599312D01*
X176401899Y-527578667D01*
X176551931Y-527641770D01*
G37*
G36*
X186421740Y-525796088D02*
G01*
X186745901Y-525897693D01*
X186900043Y-526006777D01*
X186994405Y-526193724D01*
X187035757Y-526481119D01*
X187036296Y-526512125D01*
X187091277Y-526872306D01*
X187200247Y-527062130D01*
X187301145Y-527270315D01*
X187259992Y-527483788D01*
X187102402Y-527684118D01*
X186853989Y-527852871D01*
X186540365Y-527971618D01*
X186187145Y-528021925D01*
X185895647Y-528000930D01*
X185453435Y-527870118D01*
X185109474Y-527660798D01*
X184891256Y-527392619D01*
X184838495Y-527245379D01*
X184850678Y-527035064D01*
X184936940Y-526745830D01*
X184948829Y-526718563D01*
X185817766Y-526718563D01*
X185944320Y-526804381D01*
X185980314Y-526814921D01*
X186303469Y-526836794D01*
X186546595Y-526716798D01*
X186582634Y-526678035D01*
X186627501Y-526565627D01*
X186556804Y-526428897D01*
X186485982Y-526348518D01*
X186280415Y-526177627D01*
X186114910Y-526162282D01*
X185964633Y-526301623D01*
X185945709Y-526329834D01*
X185818842Y-526568982D01*
X185817766Y-526718563D01*
X184948829Y-526718563D01*
X185072066Y-526435925D01*
X185230840Y-526163594D01*
X185380862Y-525992540D01*
X185680085Y-525842957D01*
X186046756Y-525777657D01*
X186421740Y-525796088D01*
G37*
G36*
X192573070Y-524832120D02*
G01*
X192892974Y-524946846D01*
X193069365Y-525071379D01*
X193126667Y-525237220D01*
X193089304Y-525475869D01*
X193084862Y-525492192D01*
X193037700Y-525721276D01*
X193063419Y-525853496D01*
X193120068Y-525913924D01*
X193280073Y-526131106D01*
X193282934Y-526385450D01*
X193174612Y-526588780D01*
X192913840Y-526797755D01*
X192550745Y-526932384D01*
X192137818Y-526986932D01*
X191727549Y-526955664D01*
X191372426Y-526832843D01*
X191306786Y-526792881D01*
X191029210Y-526527171D01*
X190908032Y-526202035D01*
X190923545Y-525865297D01*
X191054009Y-525503345D01*
X191906981Y-525503345D01*
X191931110Y-525680576D01*
X192030288Y-525770047D01*
X192244701Y-525799431D01*
X192338719Y-525800667D01*
X192568140Y-525777426D01*
X192684112Y-525691544D01*
X192713600Y-525624130D01*
X192696248Y-525450318D01*
X192587237Y-525250831D01*
X192433343Y-525092049D01*
X192301055Y-525038667D01*
X192140362Y-525108788D01*
X191990793Y-525273933D01*
X191909869Y-525466272D01*
X191906981Y-525503345D01*
X191054009Y-525503345D01*
X191081655Y-525426647D01*
X191356132Y-525086816D01*
X191718533Y-524863620D01*
X192140419Y-524774873D01*
X192573070Y-524832120D01*
G37*
G36*
X178202637Y-529969586D02*
G01*
X178590871Y-530057485D01*
X178844607Y-530240209D01*
X178976508Y-530528815D01*
X178996814Y-530662976D01*
X179040615Y-530901820D01*
X179109669Y-531075447D01*
X179120098Y-531089664D01*
X179172523Y-531253748D01*
X179158879Y-531423840D01*
X179015302Y-531675416D01*
X178752066Y-531872035D01*
X178413445Y-532001173D01*
X178043711Y-532050303D01*
X177687136Y-532006902D01*
X177454747Y-531905950D01*
X177122941Y-531618477D01*
X176927737Y-531246887D01*
X176879319Y-531049256D01*
X176864532Y-530837403D01*
X176914623Y-530674730D01*
X177558396Y-530674730D01*
X177598314Y-530796000D01*
X177743107Y-530910115D01*
X177980269Y-530966526D01*
X178241927Y-530962269D01*
X178460209Y-530894378D01*
X178530965Y-530836745D01*
X178588169Y-530716802D01*
X178524413Y-530585619D01*
X178478780Y-530532570D01*
X178302065Y-530368553D01*
X178167563Y-530275468D01*
X177940625Y-530229277D01*
X177735919Y-530305600D01*
X177594744Y-530466672D01*
X177558396Y-530674730D01*
X176914623Y-530674730D01*
X176923874Y-530644685D01*
X177079064Y-530401644D01*
X177083943Y-530394897D01*
X177302777Y-530143910D01*
X177539787Y-530002928D01*
X177844294Y-529953199D01*
X178202637Y-529969586D01*
G37*
G36*
X181444051Y-529279735D02*
G01*
X181644137Y-529316812D01*
X181798670Y-529404040D01*
X181954832Y-529547585D01*
X182109911Y-529719884D01*
X182193908Y-529883214D01*
X182229390Y-530101651D01*
X182237904Y-530351266D01*
X182236097Y-530646366D01*
X182205935Y-530829173D01*
X182126054Y-530956583D01*
X181975092Y-531085490D01*
X181957022Y-531099313D01*
X181562399Y-531312685D01*
X181155341Y-531357681D01*
X180730174Y-531234700D01*
X180646314Y-531192072D01*
X180401635Y-531031645D01*
X180213453Y-530859060D01*
X180160729Y-530784958D01*
X180073697Y-530488020D01*
X180064597Y-530138438D01*
X180117280Y-529884452D01*
X180869007Y-529884452D01*
X180894166Y-529981032D01*
X181006274Y-530093251D01*
X181185435Y-530232790D01*
X181323647Y-530308116D01*
X181514008Y-530305523D01*
X181679549Y-530208757D01*
X181746981Y-530065759D01*
X181678781Y-529908879D01*
X181516739Y-529746208D01*
X181324690Y-529633692D01*
X181230936Y-529613484D01*
X181072305Y-529669857D01*
X180955896Y-529765360D01*
X180869007Y-529884452D01*
X180117280Y-529884452D01*
X180131000Y-529818305D01*
X180193034Y-529693006D01*
X180366323Y-529471552D01*
X180554004Y-529343333D01*
X180809003Y-529284732D01*
X181136629Y-529272000D01*
X181444051Y-529279735D01*
G37*
G36*
X182802843Y-526691233D02*
G01*
X183117366Y-526701247D01*
X183323220Y-526741159D01*
X183480666Y-526829121D01*
X183595380Y-526929998D01*
X183782311Y-527194459D01*
X183906056Y-527537913D01*
X183959437Y-527906674D01*
X183935278Y-528247052D01*
X183826404Y-528505360D01*
X183808796Y-528526629D01*
X183479224Y-528776251D01*
X183066901Y-528905330D01*
X182613313Y-528908386D01*
X182159947Y-528779934D01*
X182101124Y-528752270D01*
X181762139Y-528541871D01*
X181571705Y-528303049D01*
X181509179Y-528000479D01*
X181525381Y-527766932D01*
X181595563Y-527472855D01*
X181676132Y-527334917D01*
X182556050Y-527334917D01*
X182567593Y-527496026D01*
X182683178Y-527654279D01*
X182849607Y-527743974D01*
X182890516Y-527748000D01*
X183053519Y-527719246D01*
X183223135Y-527665429D01*
X183402369Y-527540503D01*
X183426904Y-527376307D01*
X183299892Y-527194861D01*
X183139141Y-527079030D01*
X182899017Y-526948233D01*
X182760358Y-526912215D01*
X182685869Y-526968697D01*
X182655461Y-527049500D01*
X182584848Y-527260860D01*
X182556050Y-527334917D01*
X181676132Y-527334917D01*
X181739311Y-527226752D01*
X181919038Y-527028334D01*
X182114057Y-526843783D01*
X182273174Y-526742553D01*
X182461219Y-526699915D01*
X182743025Y-526691141D01*
X182802843Y-526691233D01*
G37*
G36*
X194514840Y-527430376D02*
G01*
X194722116Y-527653496D01*
X194945830Y-527933174D01*
X195158521Y-528229747D01*
X195332727Y-528503553D01*
X195440985Y-528714930D01*
X195462981Y-528799736D01*
X195378763Y-528966778D01*
X195127184Y-529121864D01*
X194709853Y-529264114D01*
X194531229Y-529309224D01*
X194099997Y-529399416D01*
X193790514Y-529430892D01*
X193565048Y-529401845D01*
X193385863Y-529310466D01*
X193312838Y-529250834D01*
X193100184Y-529029402D01*
X192881301Y-528750731D01*
X192672722Y-528443905D01*
X192490986Y-528138008D01*
X192400955Y-527958490D01*
X193571743Y-527958490D01*
X193626885Y-528113864D01*
X193688697Y-528199162D01*
X193930194Y-528382444D01*
X194239929Y-528414915D01*
X194476959Y-528351684D01*
X194565430Y-528301976D01*
X194563101Y-528227100D01*
X194460229Y-528084285D01*
X194399394Y-528011198D01*
X194227235Y-527833656D01*
X194077978Y-527769587D01*
X193906395Y-527784151D01*
X193660727Y-527856565D01*
X193571743Y-527958490D01*
X192400955Y-527958490D01*
X192352626Y-527862125D01*
X192274181Y-527645340D01*
X192272185Y-527516737D01*
X192313983Y-527494000D01*
X192420460Y-527479504D01*
X192656535Y-527440219D01*
X192985349Y-527382448D01*
X193304657Y-527324543D01*
X194226996Y-527155085D01*
X194514840Y-527430376D01*
G37*
G36*
X196211667Y-524134059D02*
G01*
X196361709Y-524181885D01*
X196502036Y-524276630D01*
X196751523Y-524516509D01*
X196852999Y-524742143D01*
X196820861Y-524987224D01*
X196813836Y-525006358D01*
X196772196Y-525294491D01*
X196820914Y-525469886D01*
X196873625Y-525706209D01*
X196821906Y-525877375D01*
X196631819Y-526080080D01*
X196323009Y-526251992D01*
X195945312Y-526378470D01*
X195548566Y-526444871D01*
X195182609Y-526436553D01*
X195034703Y-526402436D01*
X194621264Y-526219204D01*
X194361646Y-525979025D01*
X194244948Y-525664208D01*
X194260269Y-525257063D01*
X194276392Y-525171713D01*
X194363962Y-524892733D01*
X195317575Y-524892733D01*
X195379741Y-525082696D01*
X195381686Y-525085063D01*
X195545155Y-525172808D01*
X195797223Y-525204993D01*
X196065515Y-525178607D01*
X196230547Y-525120355D01*
X196370315Y-524999011D01*
X196362841Y-524846627D01*
X196210222Y-524641957D01*
X196027168Y-524487573D01*
X195846504Y-524457699D01*
X195600172Y-524541433D01*
X195595592Y-524543516D01*
X195395936Y-524696776D01*
X195317575Y-524892733D01*
X194363962Y-524892733D01*
X194396227Y-524789943D01*
X194589308Y-524513591D01*
X194880319Y-524324686D01*
X195293946Y-524205256D01*
X195676001Y-524152740D01*
X196000895Y-524127013D01*
X196211667Y-524134059D01*
G37*
G36*
X179047752Y-499938050D02*
G01*
X179972683Y-499951759D01*
X180809293Y-499979362D01*
X181532366Y-500021429D01*
X182116684Y-500078529D01*
X182206949Y-500090699D01*
X182760885Y-500178788D01*
X183264868Y-500276529D01*
X183696390Y-500377890D01*
X184032943Y-500476839D01*
X184252019Y-500567344D01*
X184331111Y-500643372D01*
X184326747Y-500658819D01*
X184237144Y-500699124D01*
X184023640Y-500720411D01*
X183676916Y-500722563D01*
X183187648Y-500705461D01*
X182546516Y-500668987D01*
X181958647Y-500628721D01*
X181334667Y-500593531D01*
X180553188Y-500566710D01*
X179612364Y-500548243D01*
X178510349Y-500538116D01*
X177245298Y-500536315D01*
X175815364Y-500542824D01*
X174218703Y-500557629D01*
X173703647Y-500563727D01*
X173013514Y-500570105D01*
X172366190Y-500571966D01*
X171784075Y-500569561D01*
X171289571Y-500563140D01*
X170905078Y-500552955D01*
X170652996Y-500539255D01*
X170570981Y-500528638D01*
X170431805Y-500491690D01*
X170394737Y-500461697D01*
X170477742Y-500428966D01*
X170698789Y-500383802D01*
X170909647Y-500345906D01*
X171494725Y-500260203D01*
X172218430Y-500183267D01*
X173055547Y-500115668D01*
X173980857Y-500057976D01*
X174969146Y-500010760D01*
X175995197Y-499974589D01*
X177033792Y-499950034D01*
X178059716Y-499937665D01*
X179047752Y-499938050D01*
G37*
G36*
X184864273Y-529206481D02*
G01*
X185088368Y-529365438D01*
X185308424Y-529608951D01*
X185386779Y-529839780D01*
X185387647Y-529868441D01*
X185414662Y-530060678D01*
X185472314Y-530161000D01*
X185534539Y-530276431D01*
X185554288Y-530441164D01*
X185477736Y-530752739D01*
X185263008Y-530975207D01*
X184919947Y-531101701D01*
X184567713Y-531129300D01*
X184274598Y-531108370D01*
X184018911Y-531062063D01*
X183948357Y-531039548D01*
X183661375Y-530866980D01*
X183457129Y-530632132D01*
X183351834Y-530372964D01*
X183361705Y-530127434D01*
X183482647Y-529949334D01*
X183590410Y-529801713D01*
X183609647Y-529720787D01*
X183617381Y-529702322D01*
X184079049Y-529702322D01*
X184083300Y-529814025D01*
X184187230Y-529923793D01*
X184219180Y-529950629D01*
X184488923Y-530099186D01*
X184769813Y-530087936D01*
X184830389Y-530067275D01*
X184951029Y-529960468D01*
X184928603Y-529818731D01*
X184773814Y-529688403D01*
X184566847Y-529541337D01*
X184444898Y-529416773D01*
X184349122Y-529309974D01*
X184282212Y-529316736D01*
X184197652Y-529453485D01*
X184165430Y-529515461D01*
X184079049Y-529702322D01*
X183617381Y-529702322D01*
X183665774Y-529586790D01*
X183805605Y-529404386D01*
X183857134Y-529350154D01*
X184168731Y-529141843D01*
X184511699Y-529094042D01*
X184864273Y-529206481D01*
G37*
G36*
X198114740Y-526823688D02*
G01*
X198356312Y-527107082D01*
X198623627Y-527439541D01*
X198785875Y-527651698D01*
X199123070Y-528105729D01*
X198912613Y-528316185D01*
X198664601Y-528480282D01*
X198263388Y-528625536D01*
X198035069Y-528684763D01*
X197607311Y-528782721D01*
X197303495Y-528830297D01*
X197082748Y-528815979D01*
X196904201Y-528728253D01*
X196726981Y-528555603D01*
X196510217Y-528286518D01*
X196478981Y-528246395D01*
X196158542Y-527827097D01*
X195936716Y-527516387D01*
X195801569Y-527294578D01*
X195743760Y-527148521D01*
X197033524Y-527148521D01*
X197063274Y-527242833D01*
X197192326Y-527386994D01*
X197375145Y-527543131D01*
X197566196Y-527673368D01*
X197719942Y-527739832D01*
X197747105Y-527742049D01*
X197935584Y-527706436D01*
X198033333Y-527674219D01*
X198113581Y-527625055D01*
X198098088Y-527551918D01*
X197971586Y-527421192D01*
X197882221Y-527341503D01*
X197630503Y-527171637D01*
X197372380Y-527077914D01*
X197155167Y-527071093D01*
X197033524Y-527148521D01*
X195743760Y-527148521D01*
X195741173Y-527141985D01*
X195743595Y-527038920D01*
X195744950Y-527035234D01*
X195860347Y-526938121D01*
X196126735Y-526828325D01*
X196526763Y-526711441D01*
X197043077Y-526593061D01*
X197235724Y-526554678D01*
X197780801Y-526449709D01*
X198114740Y-526823688D01*
G37*
G36*
X199598293Y-523474248D02*
G01*
X199819218Y-523549832D01*
X200093262Y-523719744D01*
X200239607Y-523964660D01*
X200278725Y-524319450D01*
X200278457Y-524332097D01*
X200289059Y-524613024D01*
X200325395Y-524861762D01*
X200330051Y-524880300D01*
X200342416Y-525059528D01*
X200257276Y-525238486D01*
X200138733Y-525383576D01*
X199981586Y-525540663D01*
X199825669Y-525629420D01*
X199610488Y-525673499D01*
X199347646Y-525692883D01*
X198941662Y-525690297D01*
X198622557Y-525624765D01*
X198460336Y-525559335D01*
X198236536Y-525429902D01*
X198084694Y-525296552D01*
X198058169Y-525253304D01*
X198009415Y-525031667D01*
X198013694Y-524813302D01*
X198068134Y-524672084D01*
X198081174Y-524661668D01*
X198150129Y-524559429D01*
X198242385Y-524349530D01*
X198267054Y-524281009D01*
X198986730Y-524281009D01*
X199092763Y-524415935D01*
X199188314Y-524454910D01*
X199471286Y-524513602D01*
X199659563Y-524489776D01*
X199810615Y-524375211D01*
X199820460Y-524364487D01*
X199926756Y-524177071D01*
X199873471Y-524012180D01*
X199662498Y-523857892D01*
X199492064Y-523787342D01*
X199354020Y-523813257D01*
X199207745Y-523910735D01*
X199025404Y-524102909D01*
X198986730Y-524281009D01*
X198267054Y-524281009D01*
X198301885Y-524184259D01*
X198504889Y-523794735D01*
X198799987Y-523541807D01*
X199170136Y-523432603D01*
X199598293Y-523474248D01*
G37*
G36*
X201131161Y-526010909D02*
G01*
X201265382Y-526101035D01*
X201468831Y-526291499D01*
X201709294Y-526547057D01*
X201954558Y-526832459D01*
X202172412Y-527112459D01*
X202278792Y-527266651D01*
X202376645Y-527435586D01*
X202377667Y-527540355D01*
X202280345Y-527656754D01*
X202270811Y-527666297D01*
X202133880Y-527745650D01*
X201881599Y-527847827D01*
X201563493Y-527957047D01*
X201229087Y-528057532D01*
X200927905Y-528133503D01*
X200709472Y-528169179D01*
X200689781Y-528170034D01*
X200600049Y-528113360D01*
X200442051Y-527967104D01*
X200333827Y-527853834D01*
X199909190Y-527380667D01*
X199588037Y-527001001D01*
X199376046Y-526721971D01*
X199325592Y-526633032D01*
X200387506Y-526633032D01*
X200434039Y-526736008D01*
X200531194Y-526823955D01*
X200817510Y-526955101D01*
X201105672Y-526986000D01*
X201332731Y-526978707D01*
X201424559Y-526944810D01*
X201415042Y-526866280D01*
X201397249Y-526830870D01*
X201206268Y-526587507D01*
X200956546Y-526494107D01*
X200743440Y-526505751D01*
X200486712Y-526562167D01*
X200387506Y-526633032D01*
X199325592Y-526633032D01*
X199278892Y-526550712D01*
X199272981Y-526520486D01*
X199339842Y-526383905D01*
X199421147Y-526320848D01*
X199606780Y-526252700D01*
X199895544Y-526178691D01*
X200237788Y-526107819D01*
X200583859Y-526049084D01*
X200884103Y-526011485D01*
X201088870Y-526004022D01*
X201131161Y-526010909D01*
G37*
G36*
X182718919Y-501011366D02*
G01*
X182869851Y-501031930D01*
X182941710Y-501050696D01*
X183228647Y-501139306D01*
X182762981Y-501351664D01*
X182431152Y-501476434D01*
X182023848Y-501592863D01*
X181662314Y-501669555D01*
X180679369Y-501845818D01*
X179641656Y-502055093D01*
X178591665Y-502287464D01*
X177571886Y-502533018D01*
X176624808Y-502781839D01*
X175792921Y-503024013D01*
X175608647Y-503082125D01*
X175231710Y-503207336D01*
X174750418Y-503373504D01*
X174192851Y-503570343D01*
X173587090Y-503787567D01*
X172961218Y-504014891D01*
X172343315Y-504242028D01*
X171761463Y-504458692D01*
X171243742Y-504654599D01*
X170818235Y-504819462D01*
X170513021Y-504942996D01*
X170429308Y-504979250D01*
X170105674Y-505122255D01*
X169913952Y-505198444D01*
X169832614Y-505212625D01*
X169840134Y-505169608D01*
X169894415Y-505098741D01*
X170092390Y-504923199D01*
X170426240Y-504699401D01*
X170873365Y-504438760D01*
X171411169Y-504152687D01*
X172017051Y-503852596D01*
X172668416Y-503549898D01*
X173342664Y-503256006D01*
X174017196Y-502982332D01*
X174296314Y-502875728D01*
X175388118Y-502496097D01*
X176569652Y-502136615D01*
X177782317Y-501812876D01*
X178967514Y-501540472D01*
X180066647Y-501334997D01*
X180115754Y-501327161D01*
X180850867Y-501212545D01*
X181439036Y-501125309D01*
X181900094Y-501063514D01*
X182253872Y-501025218D01*
X182520203Y-501008482D01*
X182718919Y-501011366D01*
G37*
G36*
X188146286Y-528499521D02*
G01*
X188212114Y-528536773D01*
X188347973Y-528669881D01*
X188526391Y-528901787D01*
X188719551Y-529188368D01*
X188899638Y-529485497D01*
X189038838Y-529749052D01*
X189109334Y-529934907D01*
X189112981Y-529965852D01*
X189029670Y-530132697D01*
X188785143Y-530293166D01*
X188387509Y-530442556D01*
X188201372Y-530494556D01*
X187806051Y-530588467D01*
X187530012Y-530621054D01*
X187331426Y-530583108D01*
X187168464Y-530465423D01*
X186999294Y-530258794D01*
X186974363Y-530224500D01*
X186673965Y-529780303D01*
X186461503Y-529405393D01*
X186346884Y-529119179D01*
X186333407Y-528978222D01*
X187179820Y-528978222D01*
X187212544Y-529050287D01*
X187328329Y-529200313D01*
X187384315Y-529264883D01*
X187614155Y-529460329D01*
X187862393Y-529525397D01*
X187894312Y-529526000D01*
X188100340Y-529502308D01*
X188221472Y-529444872D01*
X188224338Y-529440756D01*
X188214053Y-529322904D01*
X188121811Y-529139663D01*
X188092458Y-529096316D01*
X187958388Y-528933075D01*
X187825027Y-528872165D01*
X187617571Y-528885396D01*
X187557937Y-528894899D01*
X187334898Y-528936252D01*
X187196871Y-528970385D01*
X187179820Y-528978222D01*
X186333407Y-528978222D01*
X186332328Y-528966934D01*
X186435137Y-528839322D01*
X186676773Y-528710247D01*
X187027239Y-528591380D01*
X187456539Y-528494392D01*
X187612408Y-528468877D01*
X187926667Y-528447045D01*
X188146286Y-528499521D01*
G37*
G36*
X191093704Y-527629284D02*
G01*
X191189904Y-527715907D01*
X191353466Y-527913200D01*
X191559612Y-528189759D01*
X191736500Y-528443955D01*
X192011085Y-528864264D01*
X192179027Y-529174022D01*
X192236725Y-529397050D01*
X192180578Y-529557170D01*
X192006984Y-529678204D01*
X191712342Y-529783974D01*
X191525981Y-529836554D01*
X191081096Y-529953762D01*
X190759243Y-530015592D01*
X190519775Y-530010063D01*
X190322048Y-529925196D01*
X190125414Y-529749012D01*
X189889228Y-529469530D01*
X189768549Y-529318577D01*
X189443463Y-528901817D01*
X189221852Y-528591420D01*
X189094005Y-528367800D01*
X189071725Y-528288216D01*
X190190357Y-528288216D01*
X190205051Y-528403948D01*
X190353577Y-528581598D01*
X190400005Y-528628625D01*
X190643648Y-528837323D01*
X190862153Y-528921790D01*
X191119240Y-528901940D01*
X191206170Y-528880574D01*
X191310404Y-528845664D01*
X191338297Y-528789931D01*
X191283316Y-528674094D01*
X191138929Y-528458872D01*
X191135115Y-528453328D01*
X190975147Y-528235794D01*
X190854209Y-528132777D01*
X190722967Y-528114344D01*
X190608260Y-528133649D01*
X190320943Y-528207187D01*
X190190357Y-528288216D01*
X189071725Y-528288216D01*
X189050213Y-528211374D01*
X189080764Y-528102556D01*
X189137875Y-528046615D01*
X189287960Y-527980021D01*
X189553882Y-527899711D01*
X189891272Y-527815151D01*
X190255759Y-527735809D01*
X190602977Y-527671153D01*
X190888554Y-527630650D01*
X191068123Y-527623767D01*
X191093704Y-527629284D01*
G37*
G36*
X212928952Y-523169789D02*
G01*
X213079623Y-523268539D01*
X213302857Y-523462460D01*
X213563541Y-523716034D01*
X213826562Y-523993741D01*
X214056810Y-524260062D01*
X214210856Y-524466550D01*
X214320838Y-524747152D01*
X214266052Y-524992800D01*
X214048607Y-525197292D01*
X213943332Y-525253824D01*
X213790931Y-525313900D01*
X213540773Y-525400236D01*
X213232419Y-525500602D01*
X212905431Y-525602762D01*
X212599371Y-525694486D01*
X212353799Y-525763540D01*
X212208278Y-525797691D01*
X212185242Y-525797444D01*
X212132680Y-525736839D01*
X211990369Y-525574668D01*
X211780619Y-525336314D01*
X211549647Y-525074266D01*
X211151675Y-524616056D01*
X210861632Y-524264825D01*
X210782795Y-524159123D01*
X212234457Y-524159123D01*
X212342966Y-524396098D01*
X212402459Y-524476915D01*
X212568888Y-524630660D01*
X212780338Y-524693224D01*
X213082877Y-524674053D01*
X213232397Y-524647084D01*
X213414618Y-524595105D01*
X213496621Y-524541020D01*
X213496981Y-524538013D01*
X213437086Y-524457902D01*
X213281847Y-524307762D01*
X213113600Y-524161392D01*
X212873866Y-523976697D01*
X212698767Y-523892112D01*
X212535622Y-523885637D01*
X212478600Y-523896190D01*
X212279693Y-523992297D01*
X212234457Y-524159123D01*
X210782795Y-524159123D01*
X210668997Y-524006548D01*
X210563246Y-523827196D01*
X210533647Y-523719821D01*
X210611618Y-523638270D01*
X210821559Y-523543215D01*
X211127509Y-523442913D01*
X211493509Y-523345620D01*
X211883599Y-523259596D01*
X212261819Y-523193096D01*
X212592210Y-523154378D01*
X212838811Y-523151700D01*
X212928952Y-523169789D01*
G37*
G36*
X162562836Y-532860409D02*
G01*
X162701759Y-532958132D01*
X162882271Y-533156121D01*
X162901014Y-533177835D01*
X163202582Y-533577202D01*
X163431232Y-533980087D01*
X163577567Y-534358404D01*
X163632187Y-534684064D01*
X163585696Y-534928979D01*
X163516330Y-535016872D01*
X163370636Y-535087232D01*
X163101372Y-535174996D01*
X162751740Y-535268248D01*
X162364945Y-535355068D01*
X162126587Y-535400237D01*
X161973397Y-535415640D01*
X161857959Y-535377993D01*
X161741104Y-535258282D01*
X161583659Y-535027494D01*
X161547688Y-534971452D01*
X161223667Y-534435983D01*
X161000478Y-534001959D01*
X160881553Y-533677299D01*
X160870611Y-533475246D01*
X161596314Y-533475246D01*
X161645146Y-533566142D01*
X161767147Y-533738465D01*
X161925579Y-533944827D01*
X162083699Y-534137841D01*
X162204769Y-534270117D01*
X162229126Y-534291453D01*
X162354388Y-534317038D01*
X162570934Y-534314112D01*
X162804327Y-534288962D01*
X162980132Y-534247870D01*
X163022024Y-534224513D01*
X162990387Y-534146997D01*
X162873944Y-533976761D01*
X162697587Y-533750083D01*
X162690622Y-533741556D01*
X162504816Y-533513613D01*
X162367412Y-533343439D01*
X162307644Y-533267243D01*
X162307447Y-533266935D01*
X162222376Y-533266791D01*
X162043672Y-533306667D01*
X161836392Y-533367507D01*
X161665597Y-533430252D01*
X161596314Y-533475246D01*
X160870611Y-533475246D01*
X160870323Y-533469921D01*
X160883678Y-533439072D01*
X161048905Y-533279551D01*
X161329466Y-533117228D01*
X161673439Y-532975740D01*
X162028902Y-532878727D01*
X162160088Y-532857973D01*
X162403085Y-532836004D01*
X162562836Y-532860409D01*
G37*
G36*
X205619233Y-479952676D02*
G01*
X205530114Y-480111967D01*
X205367107Y-480359440D01*
X205139077Y-480693272D01*
X205103130Y-480745829D01*
X204773215Y-481233249D01*
X204398668Y-481794172D01*
X204025610Y-482359140D01*
X203701148Y-482857171D01*
X203106255Y-483778088D01*
X202598858Y-484561220D01*
X202175595Y-485211676D01*
X201833106Y-485734565D01*
X201568027Y-486134996D01*
X201376998Y-486418078D01*
X201256657Y-486588921D01*
X201203911Y-486652471D01*
X201196181Y-486601344D01*
X201237573Y-486430419D01*
X201304622Y-486220042D01*
X201466725Y-485791063D01*
X201695228Y-485247173D01*
X201975311Y-484622043D01*
X202292151Y-483949344D01*
X202419411Y-483687624D01*
X202562500Y-483386380D01*
X202666752Y-483148308D01*
X202716773Y-483009464D01*
X202717644Y-482989109D01*
X202647372Y-483030360D01*
X202480141Y-483165109D01*
X202242583Y-483371094D01*
X202017576Y-483574251D01*
X200966283Y-484512904D01*
X199971377Y-485349114D01*
X199051793Y-486067086D01*
X198853198Y-486213642D01*
X198831501Y-486199884D01*
X198895204Y-486076081D01*
X199022531Y-485880852D01*
X199157641Y-485712005D01*
X199394893Y-485443600D01*
X199716020Y-485095137D01*
X200102753Y-484686116D01*
X200536825Y-484236039D01*
X200999967Y-483764406D01*
X201093314Y-483670377D01*
X201767961Y-483000414D01*
X202357197Y-482434792D01*
X202886856Y-481950187D01*
X203382772Y-481523277D01*
X203870779Y-481130739D01*
X204105685Y-480950786D01*
X204646120Y-480542722D01*
X205059461Y-480233772D01*
X205354576Y-480022115D01*
X205540331Y-479905928D01*
X205625594Y-479883389D01*
X205619233Y-479952676D01*
G37*
G36*
X220892746Y-504407753D02*
G01*
X220749060Y-504560621D01*
X220528875Y-504774688D01*
X220314084Y-504972576D01*
X220098396Y-505171581D01*
X219797565Y-505456695D01*
X219446435Y-505794542D01*
X219079849Y-506151744D01*
X218957981Y-506271573D01*
X218026647Y-507189661D01*
X218576981Y-507134433D01*
X219127314Y-507079205D01*
X218619314Y-507386942D01*
X218344296Y-507558393D01*
X218115375Y-507709771D01*
X217984314Y-507806559D01*
X217863838Y-507884320D01*
X217623405Y-508018447D01*
X217295463Y-508191504D01*
X216912459Y-508386054D01*
X216824894Y-508429581D01*
X216392539Y-508648861D01*
X215968176Y-508873204D01*
X215599247Y-509076978D01*
X215333195Y-509234553D01*
X215323300Y-509240851D01*
X214979957Y-509447504D01*
X214585400Y-509666400D01*
X214323720Y-509801004D01*
X213793314Y-510061029D01*
X214089647Y-509800429D01*
X214258592Y-509659937D01*
X214532073Y-509441740D01*
X214879345Y-509169977D01*
X215269661Y-508868789D01*
X215509388Y-508685768D01*
X216029640Y-508284836D01*
X216422359Y-507965937D01*
X216698928Y-507714276D01*
X216870730Y-507515055D01*
X216949148Y-507353479D01*
X216945566Y-507214752D01*
X216871366Y-507084078D01*
X216801106Y-507006792D01*
X216742093Y-506941607D01*
X216722264Y-506880581D01*
X216759079Y-506807148D01*
X216869993Y-506704740D01*
X217072467Y-506556793D01*
X217383958Y-506346740D01*
X217753606Y-506102960D01*
X218176367Y-505832107D01*
X218626982Y-505555921D01*
X219085759Y-505285036D01*
X219533008Y-505030084D01*
X219949041Y-504801700D01*
X220314165Y-504610515D01*
X220608693Y-504467163D01*
X220812933Y-504382278D01*
X220907195Y-504366491D01*
X220892746Y-504407753D01*
G37*
G36*
X221107069Y-518201916D02*
G01*
X221111835Y-518257115D01*
X220977598Y-518383452D01*
X220714535Y-518571950D01*
X220608981Y-518641240D01*
X220229920Y-518886227D01*
X219819321Y-519151976D01*
X219459233Y-519385380D01*
X219423647Y-519408475D01*
X219067031Y-519633760D01*
X218680989Y-519868160D01*
X218379640Y-520043468D01*
X218111337Y-520206790D01*
X217985778Y-520317851D01*
X217989309Y-520389299D01*
X217998640Y-520396406D01*
X218113704Y-520462161D01*
X218346958Y-520587692D01*
X218665822Y-520755698D01*
X219037712Y-520948878D01*
X219084981Y-520973252D01*
X219619732Y-521254365D01*
X220009812Y-521471956D01*
X220252647Y-521624439D01*
X220345660Y-521710226D01*
X220312647Y-521729820D01*
X220206455Y-521703782D01*
X219969853Y-521632988D01*
X219632877Y-521526815D01*
X219225564Y-521394638D01*
X219000314Y-521320197D01*
X218282409Y-521073812D01*
X217702456Y-520858279D01*
X217266153Y-520676087D01*
X216979199Y-520529725D01*
X216847292Y-520421682D01*
X216843608Y-520378288D01*
X216932671Y-520294694D01*
X217127960Y-520141261D01*
X217395945Y-519943760D01*
X217566587Y-519822596D01*
X217858805Y-519614114D01*
X218095654Y-519438153D01*
X218244454Y-519319359D01*
X218277439Y-519286525D01*
X218217907Y-519251544D01*
X218023963Y-519212779D01*
X217730249Y-519176197D01*
X217537736Y-519159093D01*
X216986830Y-519113991D01*
X216601162Y-519074353D01*
X216376895Y-519036245D01*
X216310194Y-518995735D01*
X216397223Y-518948890D01*
X216634147Y-518891778D01*
X217017130Y-518820466D01*
X217179981Y-518792279D01*
X218114211Y-518634171D01*
X218940171Y-518498221D01*
X219648169Y-518385885D01*
X220228512Y-518298622D01*
X220671507Y-518237888D01*
X220967464Y-518205140D01*
X221106689Y-518201836D01*
X221107069Y-518201916D01*
G37*
G36*
X203380709Y-472274090D02*
G01*
X203298124Y-472458123D01*
X203156063Y-472731412D01*
X202969367Y-473066603D01*
X202752872Y-473436343D01*
X202521419Y-473813278D01*
X202493361Y-473857667D01*
X202135601Y-474426819D01*
X201749453Y-475049777D01*
X201359935Y-475685526D01*
X200992063Y-476293051D01*
X200670855Y-476831335D01*
X200467094Y-477179702D01*
X200290646Y-477467649D01*
X200066787Y-477807365D01*
X199818125Y-478167493D01*
X199567268Y-478516677D01*
X199336823Y-478823560D01*
X199149399Y-479056785D01*
X199027603Y-479184996D01*
X199014469Y-479194455D01*
X198983663Y-479163941D01*
X199019646Y-479018987D01*
X199024456Y-479006005D01*
X199124810Y-478780880D01*
X199265799Y-478509295D01*
X199310905Y-478429667D01*
X199470458Y-478143666D01*
X199651768Y-477800817D01*
X199837815Y-477435669D01*
X200011577Y-477082771D01*
X200156032Y-476776671D01*
X200254160Y-476551920D01*
X200288981Y-476444406D01*
X200230635Y-476452219D01*
X200074187Y-476553872D01*
X199847518Y-476730060D01*
X199712677Y-476843416D01*
X199386719Y-477113210D01*
X199009419Y-477408914D01*
X198622959Y-477699056D01*
X198269521Y-477952161D01*
X197991286Y-478136755D01*
X197931033Y-478172780D01*
X197862696Y-478184257D01*
X197901272Y-478084167D01*
X198038709Y-477885267D01*
X198266956Y-477600314D01*
X198366178Y-477483342D01*
X198507159Y-477325594D01*
X198738980Y-477073772D01*
X199047062Y-476743195D01*
X199416823Y-476349179D01*
X199833684Y-475907042D01*
X200283063Y-475432102D01*
X200750380Y-474939676D01*
X201221055Y-474445082D01*
X201680506Y-473963638D01*
X202114153Y-473510660D01*
X202507416Y-473101468D01*
X202845714Y-472751377D01*
X203114466Y-472475706D01*
X203299091Y-472289772D01*
X203385010Y-472208893D01*
X203388980Y-472206667D01*
X203380709Y-472274090D01*
G37*
G36*
X192906569Y-508909667D02*
G01*
X192799864Y-509144740D01*
X192623837Y-509500377D01*
X192392367Y-509949658D01*
X192119332Y-510465664D01*
X191818611Y-511021474D01*
X191804370Y-511047500D01*
X191655562Y-511327644D01*
X191551036Y-511540728D01*
X191507260Y-511652493D01*
X191509356Y-511661334D01*
X191598127Y-511629027D01*
X191810375Y-511540912D01*
X192114945Y-511410194D01*
X192480682Y-511250077D01*
X192505777Y-511238990D01*
X192872434Y-511079839D01*
X193178446Y-510952564D01*
X193393341Y-510869439D01*
X193486645Y-510842741D01*
X193487895Y-510843359D01*
X193453162Y-510916456D01*
X193335253Y-511075220D01*
X193228284Y-511204573D01*
X193051845Y-511431821D01*
X192805054Y-511779734D01*
X192504286Y-512223542D01*
X192165916Y-512738470D01*
X191806320Y-513299749D01*
X191441872Y-513882605D01*
X191237462Y-514216276D01*
X191010574Y-514574239D01*
X190803734Y-514872508D01*
X190633392Y-515090209D01*
X190515997Y-515206468D01*
X190468001Y-515200409D01*
X190467647Y-515193130D01*
X190500820Y-515094660D01*
X190591508Y-514872125D01*
X190726468Y-514555303D01*
X190892453Y-514173969D01*
X191076219Y-513757899D01*
X191264523Y-513336870D01*
X191444118Y-512940656D01*
X191601759Y-512599035D01*
X191724204Y-512341782D01*
X191798205Y-512198674D01*
X191803256Y-512190500D01*
X191881030Y-512060394D01*
X191876233Y-512013046D01*
X191765996Y-512045984D01*
X191527449Y-512156739D01*
X191520717Y-512159968D01*
X191282384Y-512261440D01*
X190987983Y-512368816D01*
X190677746Y-512469941D01*
X190391905Y-512552658D01*
X190170692Y-512604812D01*
X190054340Y-512614246D01*
X190045816Y-512605604D01*
X190093099Y-512518158D01*
X190219686Y-512325308D01*
X190404664Y-512058143D01*
X190567000Y-511830667D01*
X190838937Y-511451130D01*
X191124293Y-511048066D01*
X191376546Y-510687349D01*
X191463935Y-510560667D01*
X191715222Y-510211059D01*
X191999380Y-509840824D01*
X192233917Y-509555014D01*
X192463842Y-509288462D01*
X192677622Y-509040656D01*
X192818243Y-508877680D01*
X193009838Y-508655667D01*
X192906569Y-508909667D01*
G37*
G36*
X221672720Y-482583979D02*
G01*
X221556450Y-482719964D01*
X221332323Y-482932030D01*
X221014761Y-483208253D01*
X220618187Y-483536707D01*
X220157024Y-483905466D01*
X219645694Y-484302605D01*
X219098618Y-484716200D01*
X218530221Y-485134324D01*
X218482461Y-485168914D01*
X217866858Y-485616749D01*
X217322800Y-486017614D01*
X216862020Y-486362564D01*
X216496249Y-486642653D01*
X216237218Y-486848937D01*
X216096659Y-486972472D01*
X216074792Y-487004700D01*
X216164595Y-486999685D01*
X216371335Y-486958899D01*
X216625516Y-486897404D01*
X217012034Y-486813813D01*
X217448975Y-486743191D01*
X217714382Y-486712841D01*
X218280647Y-486663698D01*
X217730314Y-487099842D01*
X217388662Y-487361328D01*
X216956567Y-487677159D01*
X216446834Y-488039017D01*
X215872268Y-488438588D01*
X215245672Y-488867552D01*
X214579853Y-489317594D01*
X213887614Y-489780397D01*
X213181760Y-490247643D01*
X212475097Y-490711017D01*
X211780430Y-491162200D01*
X211110561Y-491592876D01*
X210478298Y-491994729D01*
X209896444Y-492359441D01*
X209377804Y-492678695D01*
X208935184Y-492944175D01*
X208581387Y-493147563D01*
X208329218Y-493280544D01*
X208191483Y-493334799D01*
X208180638Y-493302492D01*
X208347948Y-493113638D01*
X208635337Y-492838463D01*
X209026083Y-492490445D01*
X209503465Y-492083061D01*
X210050761Y-491629787D01*
X210651250Y-491144099D01*
X211288210Y-490639476D01*
X211944920Y-490129392D01*
X212604657Y-489627325D01*
X213250701Y-489146752D01*
X213866329Y-488701149D01*
X214060008Y-488564039D01*
X214541057Y-488223766D01*
X214893845Y-487967479D01*
X215129731Y-487783349D01*
X215260075Y-487659550D01*
X215296236Y-487584253D01*
X215249572Y-487545631D01*
X215131443Y-487531857D01*
X215052514Y-487530598D01*
X214767691Y-487519416D01*
X214423974Y-487491966D01*
X214273385Y-487475670D01*
X213822123Y-487421478D01*
X214061718Y-487221496D01*
X214375989Y-486973333D01*
X214767941Y-486690183D01*
X215250315Y-486363748D01*
X215835852Y-485985729D01*
X216537293Y-485547827D01*
X217367377Y-485041742D01*
X217899647Y-484721577D01*
X218768233Y-484201846D01*
X219501776Y-483764431D01*
X220109946Y-483403720D01*
X220602415Y-483114103D01*
X220988855Y-482889968D01*
X221278938Y-482725704D01*
X221482336Y-482615700D01*
X221608719Y-482554343D01*
X221666711Y-482536000D01*
X221672720Y-482583979D01*
G37*
G36*
X141663154Y-492813836D02*
G01*
X141879414Y-492906491D01*
X142205701Y-493058797D01*
X142622279Y-493260816D01*
X143109413Y-493502613D01*
X143647367Y-493774250D01*
X144216404Y-494065793D01*
X144796790Y-494367305D01*
X145368788Y-494668850D01*
X145912663Y-494960490D01*
X146229314Y-495133201D01*
X147108625Y-495617636D01*
X147851772Y-496029800D01*
X148471863Y-496377370D01*
X148982006Y-496668022D01*
X149395308Y-496909434D01*
X149724878Y-497109283D01*
X149983822Y-497275246D01*
X150185248Y-497415001D01*
X150342264Y-497536225D01*
X150366370Y-497556289D01*
X150778093Y-497903000D01*
X150451037Y-497961621D01*
X150174678Y-497996026D01*
X149828039Y-498019498D01*
X149630092Y-498025121D01*
X149372141Y-498038267D01*
X149204299Y-498067434D01*
X149164425Y-498098670D01*
X149233809Y-498190299D01*
X149395747Y-498344205D01*
X149658117Y-498566747D01*
X150028799Y-498864286D01*
X150515670Y-499243184D01*
X151126609Y-499709801D01*
X151647981Y-500103840D01*
X152496895Y-500746500D01*
X153208848Y-501292488D01*
X153785164Y-501742855D01*
X154227172Y-502098656D01*
X154536196Y-502360941D01*
X154713564Y-502530764D01*
X154730494Y-502550244D01*
X154810625Y-502662472D01*
X154765528Y-502668639D01*
X154653647Y-502614009D01*
X154006054Y-502263235D01*
X153275277Y-501856612D01*
X152521544Y-501428322D01*
X151805086Y-501012549D01*
X151252198Y-500683522D01*
X150738735Y-500378018D01*
X150142041Y-500030821D01*
X149528262Y-499679990D01*
X148963544Y-499363585D01*
X148839198Y-499295100D01*
X148292582Y-498989748D01*
X147776158Y-498690827D01*
X147311471Y-498411711D01*
X146920063Y-498165773D01*
X146623478Y-497966387D01*
X146443258Y-497826927D01*
X146402688Y-497782539D01*
X146458871Y-497742845D01*
X146645574Y-497700205D01*
X146924368Y-497663036D01*
X146967570Y-497658839D01*
X147340384Y-497617784D01*
X147559180Y-497576604D01*
X147639233Y-497531436D01*
X147619258Y-497494056D01*
X147544378Y-497434348D01*
X147360313Y-497287458D01*
X147090207Y-497071858D01*
X146757202Y-496806021D01*
X146525647Y-496621157D01*
X146077393Y-496269017D01*
X145544785Y-495859603D01*
X144981530Y-495433689D01*
X144441335Y-495032047D01*
X144197314Y-494853540D01*
X143608745Y-494422079D01*
X143067915Y-494018150D01*
X142589040Y-493652943D01*
X142186334Y-493337648D01*
X141874015Y-493083453D01*
X141666297Y-492901549D01*
X141577396Y-492803124D01*
X141576658Y-492790767D01*
X141663154Y-492813836D01*
G37*
G36*
X182059221Y-549045864D02*
G01*
X182488729Y-549325188D01*
X182877174Y-549594868D01*
X183251935Y-549877123D01*
X183640386Y-550194173D01*
X184069906Y-550568239D01*
X184567870Y-551021538D01*
X185065879Y-551486187D01*
X185484789Y-551881254D01*
X185862589Y-552240135D01*
X186181678Y-552545902D01*
X186424458Y-552781625D01*
X186573326Y-552930373D01*
X186612130Y-552973515D01*
X186564950Y-552987663D01*
X186394172Y-552950406D01*
X186134769Y-552869744D01*
X186088520Y-552853745D01*
X185788304Y-552751086D01*
X185386639Y-552617468D01*
X184905955Y-552460015D01*
X184368678Y-552285847D01*
X183797237Y-552102086D01*
X183214060Y-551915852D01*
X182641574Y-551734266D01*
X182102207Y-551564450D01*
X181618388Y-551413525D01*
X181212543Y-551288612D01*
X180907101Y-551196832D01*
X180724490Y-551145306D01*
X180681737Y-551137021D01*
X180715787Y-551212460D01*
X180827585Y-551395275D01*
X180997532Y-551654290D01*
X181122110Y-551837448D01*
X181371850Y-552205150D01*
X181606358Y-552559508D01*
X181808801Y-552874032D01*
X181962349Y-553122229D01*
X182050170Y-553277609D01*
X182062354Y-553317334D01*
X181984601Y-553277611D01*
X181797056Y-553172009D01*
X181535663Y-553020871D01*
X181449304Y-552970329D01*
X181073835Y-552757103D01*
X180634785Y-552518194D01*
X180220931Y-552301817D01*
X180182038Y-552282107D01*
X179812332Y-552087424D01*
X179387183Y-551850376D01*
X178928371Y-551584556D01*
X178457680Y-551303562D01*
X177996889Y-551020986D01*
X177567781Y-550750425D01*
X177192137Y-550505473D01*
X176891739Y-550299725D01*
X176688367Y-550146776D01*
X176603805Y-550060221D01*
X176604748Y-550049344D01*
X176694575Y-550061983D01*
X176892914Y-550130824D01*
X177127378Y-550228261D01*
X177418358Y-550349356D01*
X177779230Y-550488322D01*
X178177795Y-550634135D01*
X178581853Y-550775770D01*
X178959206Y-550902202D01*
X179277654Y-551002407D01*
X179504998Y-551065360D01*
X179609040Y-551080036D01*
X179611175Y-551078695D01*
X179590118Y-550991639D01*
X179497129Y-550795677D01*
X179351589Y-550524503D01*
X179172878Y-550211815D01*
X178980379Y-549891308D01*
X178793472Y-549596677D01*
X178631539Y-549361620D01*
X178597786Y-549316834D01*
X178464587Y-549132784D01*
X178399144Y-549018194D01*
X178401072Y-548999334D01*
X178496399Y-549034647D01*
X178697042Y-549126794D01*
X178934228Y-549243205D01*
X179241944Y-549390472D01*
X179636089Y-549568547D01*
X180045764Y-549745626D01*
X180167962Y-549796639D01*
X180767165Y-550050647D01*
X181330648Y-550301667D01*
X181830653Y-550536508D01*
X182239423Y-550741974D01*
X182529197Y-550904873D01*
X182606030Y-550955484D01*
X182778401Y-551063790D01*
X182883593Y-551103057D01*
X182892019Y-551099851D01*
X182864107Y-551018614D01*
X182763001Y-550821510D01*
X182604122Y-550536961D01*
X182402895Y-550193395D01*
X182374124Y-550145370D01*
X182150432Y-549770275D01*
X181948028Y-549426005D01*
X181788948Y-549150353D01*
X181695228Y-548981116D01*
X181694368Y-548979456D01*
X181567128Y-548733401D01*
X182059221Y-549045864D01*
G37*
G36*
X220908821Y-500587618D02*
G01*
X220870783Y-500662458D01*
X220721816Y-500826931D01*
X220481752Y-501063084D01*
X220170422Y-501352962D01*
X219807657Y-501678608D01*
X219413288Y-502022068D01*
X219007148Y-502365387D01*
X218609068Y-502690609D01*
X218425973Y-502835565D01*
X218093834Y-503093884D01*
X217659444Y-503429530D01*
X217155411Y-503817430D01*
X216614346Y-504232510D01*
X216068859Y-504649695D01*
X215782981Y-504867753D01*
X214933447Y-505517796D01*
X214182568Y-506097986D01*
X213535898Y-506603867D01*
X212998989Y-507030983D01*
X212577393Y-507374878D01*
X212276664Y-507631093D01*
X212102354Y-507795173D01*
X212057647Y-507857621D01*
X212137092Y-507888262D01*
X212354582Y-507913737D01*
X212678852Y-507931580D01*
X213078634Y-507939328D01*
X213094814Y-507939390D01*
X213524577Y-507941859D01*
X213805707Y-507948332D01*
X213958900Y-507962415D01*
X214004855Y-507987718D01*
X213964272Y-508027846D01*
X213877981Y-508075896D01*
X213425729Y-508333876D01*
X212866664Y-508690472D01*
X212192100Y-509151303D01*
X211930647Y-509335747D01*
X211189468Y-509857917D01*
X210431792Y-510383686D01*
X209671446Y-510904057D01*
X208922257Y-511410037D01*
X208198051Y-511892630D01*
X207512655Y-512342842D01*
X206879896Y-512751678D01*
X206313601Y-513110144D01*
X205827597Y-513409243D01*
X205435711Y-513639982D01*
X205151768Y-513793366D01*
X204989597Y-513860400D01*
X204971862Y-513862667D01*
X204979955Y-513810589D01*
X205060613Y-513706631D01*
X205168444Y-513605584D01*
X205384626Y-513417116D01*
X205686203Y-513160731D01*
X206050220Y-512855930D01*
X206453723Y-512522220D01*
X206480602Y-512500131D01*
X206982061Y-512087826D01*
X207537414Y-511630587D01*
X208095496Y-511170577D01*
X208605144Y-510749961D01*
X208871347Y-510529947D01*
X209299510Y-510182483D01*
X209741255Y-509835502D01*
X210155855Y-509520239D01*
X210502586Y-509267932D01*
X210637574Y-509175280D01*
X210923278Y-508979069D01*
X211146170Y-508814056D01*
X211274687Y-508704217D01*
X211293740Y-508676834D01*
X211214509Y-508641084D01*
X210988349Y-508623966D01*
X210636627Y-508625376D01*
X210180710Y-508645214D01*
X209641963Y-508683378D01*
X209625312Y-508684758D01*
X209331707Y-508708834D01*
X209137216Y-508714861D01*
X209047297Y-508688737D01*
X209067404Y-508616357D01*
X209202991Y-508483618D01*
X209459514Y-508276415D01*
X209842429Y-507980645D01*
X209921071Y-507920091D01*
X210165144Y-507739823D01*
X210533884Y-507477946D01*
X211010419Y-507145802D01*
X211577878Y-506754737D01*
X212219388Y-506316094D01*
X212918079Y-505841219D01*
X213657077Y-505341456D01*
X214419512Y-504828149D01*
X215188511Y-504312642D01*
X215947204Y-503806281D01*
X216678718Y-503320409D01*
X217366181Y-502866370D01*
X217992722Y-502455510D01*
X218541469Y-502099173D01*
X218995550Y-501808703D01*
X219211981Y-501672964D01*
X219639442Y-501404735D01*
X220028156Y-501155230D01*
X220350211Y-500942797D01*
X220577695Y-500785787D01*
X220672147Y-500713039D01*
X220818801Y-500605974D01*
X220908016Y-500586863D01*
X220908821Y-500587618D01*
G37*
G36*
X152755417Y-471442779D02*
G01*
X152866702Y-471538591D01*
X153078760Y-471730073D01*
X153369207Y-471996677D01*
X153715662Y-472317858D01*
X154095741Y-472673065D01*
X154103314Y-472680171D01*
X154876699Y-473402850D01*
X155564032Y-474038870D01*
X156160229Y-474583710D01*
X156660204Y-475032854D01*
X157058872Y-475381781D01*
X157351150Y-475625973D01*
X157531952Y-475760912D01*
X157595821Y-475783811D01*
X157580846Y-475669820D01*
X157516164Y-475426876D01*
X157411831Y-475084462D01*
X157277902Y-474672062D01*
X157124431Y-474219160D01*
X156961473Y-473755239D01*
X156799082Y-473309783D01*
X156647312Y-472912277D01*
X156516219Y-472592204D01*
X156478015Y-472505973D01*
X156348043Y-472214665D01*
X156254507Y-471993152D01*
X156212261Y-471877102D01*
X156212329Y-471868000D01*
X156280112Y-471925960D01*
X156443974Y-472085832D01*
X156683531Y-472326605D01*
X156978397Y-472627271D01*
X157308189Y-472966817D01*
X157652522Y-473324234D01*
X157991012Y-473678511D01*
X158303273Y-474008638D01*
X158568922Y-474293604D01*
X158627355Y-474357176D01*
X158913907Y-474676397D01*
X159251580Y-475062889D01*
X159626631Y-475499924D01*
X160025318Y-475970775D01*
X160433897Y-476458713D01*
X160838627Y-476947012D01*
X161225765Y-477418944D01*
X161581568Y-477857782D01*
X161892294Y-478246797D01*
X162144200Y-478569263D01*
X162323544Y-478808452D01*
X162416584Y-478947636D01*
X162422403Y-478976533D01*
X162347872Y-478928826D01*
X162184403Y-478812141D01*
X162091325Y-478743700D01*
X161771753Y-478484786D01*
X161368569Y-478124341D01*
X160908854Y-477688977D01*
X160419684Y-477205312D01*
X159928138Y-476699958D01*
X159461294Y-476199532D01*
X159161998Y-475864470D01*
X158799851Y-475459536D01*
X158520021Y-475166848D01*
X158329097Y-474992793D01*
X158233668Y-474943758D01*
X158224341Y-474955680D01*
X158229293Y-475122607D01*
X158277876Y-475422797D01*
X158363826Y-475827694D01*
X158480881Y-476308744D01*
X158622778Y-476837394D01*
X158684487Y-477053710D01*
X158807128Y-477499200D01*
X158866812Y-477793062D01*
X158857327Y-477943208D01*
X158772463Y-477957552D01*
X158606010Y-477844007D01*
X158351757Y-477610485D01*
X158292700Y-477552901D01*
X157820590Y-477090803D01*
X157455911Y-476736813D01*
X157185820Y-476479848D01*
X156997470Y-476308823D01*
X156878018Y-476212653D01*
X156814618Y-476180252D01*
X156794424Y-476200537D01*
X156804593Y-476262423D01*
X156806839Y-476270667D01*
X156865380Y-476426964D01*
X156981814Y-476697730D01*
X157139475Y-477045399D01*
X157321700Y-477432403D01*
X157328448Y-477446471D01*
X157501275Y-477812209D01*
X157640725Y-478118288D01*
X157733689Y-478335108D01*
X157767060Y-478433068D01*
X157766393Y-478435477D01*
X157712227Y-478376791D01*
X157572021Y-478200419D01*
X157359876Y-477925221D01*
X157089894Y-477570058D01*
X156776175Y-477153793D01*
X156432821Y-476695287D01*
X156073934Y-476213400D01*
X155713615Y-475726994D01*
X155365965Y-475254930D01*
X155045086Y-474816070D01*
X154765080Y-474429274D01*
X154628700Y-474238667D01*
X154374023Y-473881299D01*
X154069801Y-473455338D01*
X153765286Y-473029716D01*
X153630528Y-472841667D01*
X153247609Y-472302150D01*
X152966398Y-471893110D01*
X152784817Y-471611225D01*
X152700788Y-471453172D01*
X152712232Y-471415630D01*
X152755417Y-471442779D01*
G37*
G36*
X220648513Y-495917866D02*
G01*
X220563196Y-496004366D01*
X220377801Y-496166494D01*
X220125629Y-496375551D01*
X220001171Y-496475749D01*
X219754747Y-496676023D01*
X219409281Y-496961876D01*
X218994261Y-497308645D01*
X218539175Y-497691663D01*
X218073512Y-498086267D01*
X217952257Y-498189498D01*
X217405101Y-498648093D01*
X216779773Y-499159594D01*
X216129104Y-499681574D01*
X215505925Y-500171604D01*
X215019772Y-500544557D01*
X214558073Y-500895784D01*
X214118042Y-501235501D01*
X213726403Y-501542694D01*
X213409883Y-501796350D01*
X213195208Y-501975455D01*
X213158314Y-502008178D01*
X212777314Y-502354242D01*
X214004981Y-502302264D01*
X215232647Y-502250286D01*
X214682314Y-502626001D01*
X214478879Y-502769650D01*
X214161624Y-502999738D01*
X213751797Y-503300576D01*
X213270643Y-503656474D01*
X212739411Y-504051742D01*
X212179347Y-504470689D01*
X211888314Y-504689275D01*
X211214937Y-505191342D01*
X210548467Y-505680009D01*
X209901020Y-506147078D01*
X209284714Y-506584353D01*
X208711663Y-506983636D01*
X208193986Y-507336731D01*
X207743796Y-507635442D01*
X207373213Y-507871571D01*
X207094350Y-508036922D01*
X206919325Y-508123298D01*
X206860255Y-508122502D01*
X206890731Y-508070170D01*
X207020908Y-507937061D01*
X207256933Y-507722249D01*
X207571583Y-507448745D01*
X207937632Y-507139562D01*
X208327856Y-506817713D01*
X208715032Y-506506209D01*
X209051981Y-506243307D01*
X209318422Y-506035301D01*
X209676551Y-505749785D01*
X210099610Y-505408671D01*
X210560839Y-505033872D01*
X211033478Y-504647297D01*
X211490770Y-504270860D01*
X211905954Y-503926471D01*
X212252273Y-503636042D01*
X212502966Y-503421486D01*
X212565647Y-503366148D01*
X212861981Y-503100591D01*
X212269314Y-503145311D01*
X211881758Y-503173886D01*
X211420933Y-503206897D01*
X210982527Y-503237497D01*
X210956981Y-503239246D01*
X210237314Y-503288461D01*
X210574708Y-502982561D01*
X210756791Y-502834124D01*
X211049380Y-502614976D01*
X211421508Y-502347459D01*
X211842210Y-502053920D01*
X212183375Y-501821794D01*
X212660242Y-501495571D01*
X213215212Y-501106838D01*
X213817521Y-500677951D01*
X214436402Y-500231270D01*
X215041093Y-499789153D01*
X215600826Y-499373960D01*
X216084839Y-499008048D01*
X216462366Y-498713778D01*
X216486553Y-498694398D01*
X216689823Y-498510146D01*
X216759008Y-498405746D01*
X216701797Y-498396075D01*
X216525881Y-498496008D01*
X216422747Y-498570958D01*
X216116378Y-498775709D01*
X215770413Y-498961370D01*
X215415356Y-499117518D01*
X215081714Y-499233729D01*
X214799991Y-499299580D01*
X214600693Y-499304648D01*
X214514325Y-499238511D01*
X214512981Y-499223486D01*
X214578587Y-499154523D01*
X214750289Y-499021581D01*
X214990407Y-498850141D01*
X215261267Y-498665685D01*
X215525188Y-498493695D01*
X215744495Y-498359653D01*
X215881511Y-498289040D01*
X215902105Y-498284000D01*
X215987606Y-498244785D01*
X216193374Y-498136883D01*
X216492251Y-497974911D01*
X216857080Y-497773484D01*
X217028624Y-497677734D01*
X217419167Y-497464143D01*
X217862708Y-497229979D01*
X218337008Y-496986054D01*
X218819829Y-496743179D01*
X219288931Y-496512167D01*
X219722075Y-496303828D01*
X220097022Y-496128976D01*
X220391535Y-495998421D01*
X220583372Y-495922976D01*
X220650297Y-495913452D01*
X220648513Y-495917866D01*
G37*
G36*
X182763544Y-489282941D02*
G01*
X183544914Y-489425542D01*
X184264562Y-489663053D01*
X184894733Y-489995750D01*
X185320461Y-490335141D01*
X185669424Y-490756008D01*
X185902826Y-491242028D01*
X186030584Y-491821079D01*
X186063510Y-492424010D01*
X186015407Y-493299166D01*
X185867922Y-494057661D01*
X185610654Y-494726901D01*
X185233204Y-495334293D01*
X184751614Y-495881194D01*
X184055508Y-496460814D01*
X183294488Y-496884124D01*
X182468389Y-497151173D01*
X181577051Y-497262009D01*
X180620308Y-497216678D01*
X180333226Y-497174767D01*
X179504829Y-496966460D01*
X178796469Y-496638863D01*
X178209467Y-496193433D01*
X178134164Y-496102321D01*
X180815647Y-496102321D01*
X180868366Y-496172117D01*
X180999320Y-496138437D01*
X181058263Y-496096362D01*
X182305778Y-496096362D01*
X182406046Y-496113341D01*
X182605664Y-496063457D01*
X182857557Y-495964902D01*
X183114654Y-495835870D01*
X183314478Y-495706519D01*
X183596517Y-495424422D01*
X183889019Y-495018210D01*
X184171481Y-494530246D01*
X184423400Y-494002894D01*
X184624275Y-493478517D01*
X184753603Y-492999477D01*
X184791965Y-492653667D01*
X184791215Y-492315000D01*
X184628540Y-492526667D01*
X184522089Y-492685172D01*
X184358176Y-492952651D01*
X184160571Y-493289504D01*
X183984768Y-493599190D01*
X183713971Y-494051888D01*
X183385039Y-494554971D01*
X183050087Y-495030302D01*
X182885594Y-495247249D01*
X182647753Y-495558968D01*
X182459044Y-495823259D01*
X182338723Y-496011923D01*
X182305778Y-496096362D01*
X181058263Y-496096362D01*
X181167708Y-496018237D01*
X181267198Y-495914668D01*
X181393117Y-495747165D01*
X181583335Y-495472351D01*
X181813058Y-495126918D01*
X182057496Y-494747558D01*
X182082426Y-494708168D01*
X182318798Y-494335626D01*
X182533427Y-494000249D01*
X182704564Y-493735826D01*
X182810459Y-493576147D01*
X182819009Y-493563834D01*
X182908465Y-493412892D01*
X182898038Y-493368280D01*
X182808732Y-493417748D01*
X182661547Y-493549047D01*
X182477487Y-493749927D01*
X182456094Y-493775500D01*
X182208061Y-494084989D01*
X181934413Y-494443272D01*
X181654137Y-494823419D01*
X181386220Y-495198497D01*
X181149652Y-495541573D01*
X180963418Y-495825716D01*
X180846507Y-496023994D01*
X180815647Y-496102321D01*
X178134164Y-496102321D01*
X177745141Y-495631627D01*
X177404810Y-494954903D01*
X177353661Y-494766927D01*
X178360314Y-494766927D01*
X178414064Y-494910024D01*
X178548159Y-495110617D01*
X178721866Y-495320256D01*
X178894450Y-495490492D01*
X179025178Y-495572875D01*
X179039419Y-495574667D01*
X179124476Y-495514085D01*
X179278125Y-495356546D01*
X179436711Y-495172500D01*
X179732991Y-494796422D01*
X180093849Y-494314310D01*
X180492811Y-493762904D01*
X180903406Y-493178943D01*
X181299163Y-492599168D01*
X181404099Y-492442000D01*
X181687498Y-492021068D01*
X182003705Y-491560589D01*
X182303024Y-491132605D01*
X182435251Y-490947156D01*
X182644328Y-490652669D01*
X182810036Y-490411575D01*
X182911195Y-490255143D01*
X182932314Y-490213338D01*
X182857107Y-490170985D01*
X182666127Y-490116375D01*
X182411333Y-490060479D01*
X182144685Y-490014265D01*
X181918141Y-489988704D01*
X181858644Y-489986667D01*
X181696423Y-490024686D01*
X181511263Y-490147741D01*
X181290946Y-490369328D01*
X181023250Y-490702943D01*
X180695957Y-491162083D01*
X180412947Y-491583411D01*
X180098678Y-492055239D01*
X179733860Y-492596371D01*
X179365364Y-493137602D01*
X179061314Y-493579125D01*
X178810550Y-493952289D01*
X178599465Y-494288931D01*
X178445708Y-494559148D01*
X178366927Y-494733036D01*
X178360314Y-494766927D01*
X177353661Y-494766927D01*
X177189795Y-494164716D01*
X177120713Y-493627334D01*
X177136399Y-492939241D01*
X177280232Y-492230523D01*
X177535581Y-491545379D01*
X177885812Y-490928011D01*
X178314293Y-490422619D01*
X178333290Y-490404928D01*
X178902192Y-489983888D01*
X179575886Y-489656096D01*
X180326622Y-489421828D01*
X181126645Y-489281362D01*
X181948203Y-489234974D01*
X182763544Y-489282941D01*
G37*
G36*
X142119883Y-510688624D02*
G01*
X142253527Y-510757579D01*
X142460554Y-510874108D01*
X142752772Y-511044666D01*
X143141993Y-511275706D01*
X143640027Y-511573682D01*
X144258684Y-511945051D01*
X145009776Y-512396265D01*
X145086314Y-512442236D01*
X146046441Y-513021624D01*
X146922177Y-513555559D01*
X147706261Y-514039380D01*
X148391436Y-514468422D01*
X148970441Y-514838023D01*
X149436019Y-515143521D01*
X149780909Y-515380252D01*
X149997854Y-515543554D01*
X150079593Y-515628763D01*
X150065542Y-515640667D01*
X149971264Y-515615178D01*
X149747200Y-515545253D01*
X149423973Y-515440701D01*
X149032206Y-515311334D01*
X148905602Y-515269055D01*
X148504772Y-515137470D01*
X148168349Y-515032007D01*
X147925141Y-514961312D01*
X147803953Y-514934029D01*
X147795647Y-514935955D01*
X147849795Y-515012550D01*
X148001761Y-515196844D01*
X148235834Y-515470902D01*
X148536301Y-515816789D01*
X148887447Y-516216569D01*
X149273560Y-516652306D01*
X149678926Y-517106065D01*
X150087833Y-517559911D01*
X150280401Y-517772134D01*
X150566723Y-518093169D01*
X150798355Y-518365104D01*
X150957790Y-518566373D01*
X151027524Y-518675413D01*
X151024368Y-518688667D01*
X150900987Y-518659378D01*
X150677432Y-518583872D01*
X150486948Y-518511654D01*
X150241332Y-518418780D01*
X149879218Y-518287244D01*
X149444475Y-518132747D01*
X148980974Y-517970992D01*
X148853981Y-517927213D01*
X148346768Y-517750406D01*
X147814415Y-517560692D01*
X147316438Y-517379520D01*
X146912349Y-517228338D01*
X146873261Y-517213334D01*
X146535012Y-517089008D01*
X146258458Y-516998624D01*
X146079250Y-516953185D01*
X146031309Y-516953449D01*
X146063893Y-517027796D01*
X146197945Y-517167687D01*
X146318696Y-517272184D01*
X146686645Y-517583798D01*
X147107443Y-517959600D01*
X147560852Y-518379559D01*
X148026631Y-518823643D01*
X148484541Y-519271820D01*
X148914340Y-519704061D01*
X149295790Y-520100333D01*
X149608650Y-520440604D01*
X149832681Y-520704844D01*
X149937688Y-520853885D01*
X149964272Y-520938710D01*
X149909223Y-520965558D01*
X149759191Y-520929874D01*
X149500823Y-520827102D01*
X149120771Y-520652690D01*
X148605681Y-520402082D01*
X148588850Y-520393759D01*
X148203810Y-520198697D01*
X147733462Y-519953182D01*
X147201812Y-519670436D01*
X146632869Y-519363680D01*
X146050638Y-519046135D01*
X145479126Y-518731023D01*
X144942341Y-518431565D01*
X144464290Y-518160983D01*
X144068978Y-517932498D01*
X143780414Y-517759332D01*
X143643466Y-517670165D01*
X143415183Y-517527143D01*
X143211357Y-517426249D01*
X143195741Y-517395330D01*
X143343687Y-517380401D01*
X143650166Y-517381636D01*
X144060705Y-517396867D01*
X144506342Y-517414588D01*
X144806563Y-517417768D01*
X144984783Y-517404902D01*
X145064417Y-517374485D01*
X145071508Y-517331917D01*
X144991020Y-517246275D01*
X144780964Y-517070112D01*
X144450343Y-516810235D01*
X144008159Y-516473448D01*
X143463413Y-516066556D01*
X142825106Y-515596367D01*
X142102242Y-515069685D01*
X141577360Y-514690222D01*
X141318991Y-514494668D01*
X141124703Y-514329894D01*
X141027587Y-514224548D01*
X141022314Y-514209680D01*
X141093369Y-514197908D01*
X141279959Y-514243560D01*
X141542226Y-514336782D01*
X141551481Y-514340464D01*
X142384755Y-514670240D01*
X143207031Y-514990352D01*
X144003083Y-515295271D01*
X144757685Y-515579469D01*
X145455612Y-515837418D01*
X146081636Y-516063590D01*
X146620533Y-516252458D01*
X147057076Y-516398492D01*
X147376039Y-516496166D01*
X147562196Y-516539950D01*
X147603961Y-516537909D01*
X147570116Y-516457230D01*
X147431946Y-516272678D01*
X147204565Y-516000415D01*
X146903084Y-515656603D01*
X146542616Y-515257405D01*
X146138274Y-514818984D01*
X145705171Y-514357501D01*
X145258418Y-513889119D01*
X144813128Y-513430001D01*
X144384415Y-512996308D01*
X143987390Y-512604204D01*
X143637166Y-512269850D01*
X143468200Y-512114837D01*
X143088254Y-511768026D01*
X142738178Y-511439420D01*
X142443774Y-511153932D01*
X142230842Y-510936471D01*
X142139016Y-510831550D01*
X142082910Y-510759453D01*
X142041134Y-510702657D01*
X142025497Y-510667617D01*
X142047809Y-510660788D01*
X142119883Y-510688624D01*
G37*
G36*
X220488633Y-477222764D02*
G01*
X220448727Y-477298310D01*
X220300791Y-477479609D01*
X220057446Y-477753595D01*
X219731313Y-478107203D01*
X219335010Y-478527371D01*
X218881160Y-479001033D01*
X218382382Y-479515124D01*
X217851297Y-480056581D01*
X217300526Y-480612339D01*
X216742688Y-481169333D01*
X216190404Y-481714500D01*
X215656296Y-482234774D01*
X215519150Y-482367062D01*
X214672705Y-483174670D01*
X213857648Y-483938650D01*
X213090894Y-484643634D01*
X212389356Y-485274252D01*
X211769949Y-485815136D01*
X211249586Y-486250916D01*
X211206818Y-486285563D01*
X210914647Y-486521459D01*
X211918983Y-486491417D01*
X212361849Y-486482511D01*
X212648732Y-486487798D01*
X212792457Y-486508159D01*
X212805851Y-486544479D01*
X212796723Y-486551855D01*
X212448989Y-486805883D01*
X211990078Y-487149530D01*
X211440966Y-487566542D01*
X210822627Y-488040663D01*
X210156039Y-488555640D01*
X209462177Y-489095219D01*
X208762017Y-489643144D01*
X208076536Y-490183163D01*
X207426710Y-490699019D01*
X206889104Y-491129667D01*
X206433988Y-491497307D01*
X206098109Y-491773162D01*
X205868158Y-491970823D01*
X205730826Y-492103886D01*
X205672803Y-492185943D01*
X205680779Y-492230589D01*
X205741445Y-492251417D01*
X205785375Y-492256946D01*
X205968627Y-492250337D01*
X206274947Y-492212800D01*
X206662167Y-492150434D01*
X207088120Y-492069339D01*
X207102196Y-492066446D01*
X207503482Y-491984465D01*
X207841898Y-491916657D01*
X208084485Y-491869529D01*
X208198285Y-491849590D01*
X208201767Y-491849334D01*
X208248608Y-491872440D01*
X208216655Y-491947945D01*
X208096369Y-492085125D01*
X207878208Y-492293259D01*
X207552634Y-492581624D01*
X207110106Y-492959498D01*
X206744814Y-493266214D01*
X206063481Y-493832538D01*
X205501206Y-494292655D01*
X205050113Y-494652437D01*
X204702327Y-494917756D01*
X204449971Y-495094482D01*
X204285169Y-495188488D01*
X204200045Y-495205644D01*
X204183647Y-495175499D01*
X204243175Y-495057985D01*
X204406103Y-494852708D01*
X204648950Y-494584041D01*
X204948234Y-494276359D01*
X205280473Y-493954034D01*
X205622184Y-493641440D01*
X205853516Y-493442240D01*
X206137628Y-493200679D01*
X206362658Y-493001179D01*
X206503357Y-492866675D01*
X206537826Y-492820623D01*
X206438419Y-492818981D01*
X206205340Y-492854876D01*
X205868370Y-492921609D01*
X205457290Y-493012482D01*
X205001881Y-493120793D01*
X204531924Y-493239845D01*
X204077200Y-493362937D01*
X203894163Y-493415326D01*
X203490032Y-493529180D01*
X203142090Y-493619594D01*
X202883688Y-493678452D01*
X202748174Y-493697637D01*
X202739629Y-493696327D01*
X202751025Y-493636610D01*
X202874663Y-493514147D01*
X203014791Y-493405820D01*
X203167970Y-493286508D01*
X203429941Y-493071497D01*
X203782040Y-492776570D01*
X204205600Y-492417509D01*
X204681956Y-492010097D01*
X205192442Y-491570116D01*
X205453647Y-491343715D01*
X206164207Y-490726791D01*
X206761289Y-490208802D01*
X207259161Y-489777532D01*
X207672093Y-489420762D01*
X208014351Y-489126278D01*
X208300204Y-488881861D01*
X208543920Y-488675294D01*
X208759768Y-488494362D01*
X208962015Y-488326846D01*
X209164930Y-488160530D01*
X209296241Y-488053545D01*
X209568647Y-487825371D01*
X209778057Y-487637276D01*
X209898429Y-487513436D01*
X209916071Y-487478202D01*
X209823797Y-487482796D01*
X209600415Y-487523768D01*
X209278570Y-487594386D01*
X208890909Y-487687923D01*
X208855535Y-487696824D01*
X208313195Y-487824080D01*
X207867616Y-487909027D01*
X207534077Y-487949984D01*
X207327858Y-487945265D01*
X207264240Y-487893188D01*
X207273252Y-487871178D01*
X207353724Y-487794813D01*
X207546295Y-487632927D01*
X207828962Y-487403392D01*
X208179721Y-487124079D01*
X208569416Y-486818430D01*
X209065145Y-486425234D01*
X209607274Y-485983392D01*
X210144069Y-485535799D01*
X210623796Y-485125354D01*
X210829981Y-484944004D01*
X211133707Y-484674831D01*
X211423133Y-484422056D01*
X211715047Y-484171939D01*
X212026239Y-483910742D01*
X212373497Y-483624727D01*
X212773612Y-483300155D01*
X213243372Y-482923289D01*
X213799567Y-482480390D01*
X214458985Y-481957718D01*
X215066109Y-481477667D01*
X215627387Y-481031824D01*
X216261890Y-480523948D01*
X216916403Y-479996878D01*
X217537711Y-479493451D01*
X218016117Y-479102880D01*
X218691666Y-478551141D01*
X219246546Y-478103663D01*
X219688623Y-477754464D01*
X220025761Y-477497563D01*
X220265826Y-477326981D01*
X220416682Y-477236736D01*
X220486195Y-477220849D01*
X220488633Y-477222764D01*
G37*
G36*
X221129441Y-471681638D02*
G01*
X221071402Y-471748313D01*
X220958666Y-471865449D01*
X220782342Y-472041799D01*
X220533543Y-472286116D01*
X220203379Y-472607153D01*
X219782960Y-473013661D01*
X219263399Y-473514393D01*
X218635805Y-474118103D01*
X218195981Y-474540812D01*
X217508203Y-475200621D01*
X216921770Y-475760462D01*
X216416857Y-476238653D01*
X215973636Y-476653509D01*
X215572281Y-477023348D01*
X215192966Y-477366486D01*
X214815864Y-477701240D01*
X214421148Y-478045927D01*
X214124052Y-478302667D01*
X213385517Y-478939156D01*
X212766098Y-479473869D01*
X212256289Y-479915165D01*
X211846583Y-480271405D01*
X211527474Y-480550948D01*
X211289455Y-480762153D01*
X211123020Y-480913381D01*
X211018662Y-481012991D01*
X210966874Y-481069344D01*
X210956802Y-481087857D01*
X211035568Y-481106390D01*
X211249011Y-481117067D01*
X211562613Y-481118923D01*
X211866969Y-481113282D01*
X212777314Y-481087564D01*
X212565647Y-481296773D01*
X212480340Y-481370783D01*
X212334939Y-481481814D01*
X212121067Y-481635498D01*
X211830350Y-481837470D01*
X211454413Y-482093362D01*
X210984880Y-482408808D01*
X210413376Y-482789441D01*
X209731526Y-483240893D01*
X208930954Y-483768799D01*
X208003286Y-484378791D01*
X207178478Y-484920183D01*
X206444514Y-485404886D01*
X205776628Y-485852354D01*
X205185859Y-486254812D01*
X204683242Y-486604486D01*
X204279814Y-486893603D01*
X203986612Y-487114386D01*
X203814672Y-487259063D01*
X203773489Y-487318731D01*
X203862084Y-487311183D01*
X204086376Y-487270324D01*
X204417325Y-487202027D01*
X204825893Y-487112169D01*
X205069810Y-487056462D01*
X205517664Y-486956226D01*
X205912863Y-486874021D01*
X206223470Y-486816010D01*
X206417546Y-486788359D01*
X206461179Y-486787897D01*
X206466610Y-486858461D01*
X206350861Y-487042730D01*
X206115794Y-487338072D01*
X205875316Y-487616201D01*
X205516295Y-488012728D01*
X205107355Y-488448687D01*
X204663101Y-488909980D01*
X204198144Y-489382512D01*
X203727092Y-489852183D01*
X203264552Y-490304897D01*
X202825134Y-490726556D01*
X202423445Y-491103063D01*
X202074095Y-491420321D01*
X201791691Y-491664231D01*
X201590843Y-491820697D01*
X201486157Y-491875620D01*
X201474314Y-491863264D01*
X201527146Y-491744626D01*
X201673631Y-491521889D01*
X201895750Y-491218246D01*
X202175486Y-490856889D01*
X202494821Y-490461011D01*
X202835737Y-490053807D01*
X203180215Y-489658469D01*
X203232692Y-489599832D01*
X203553305Y-489242693D01*
X203872736Y-488886359D01*
X204153039Y-488573185D01*
X204349050Y-488353640D01*
X204726120Y-487930271D01*
X204324214Y-487990540D01*
X203975370Y-488054356D01*
X203608123Y-488138012D01*
X203523811Y-488160222D01*
X202807949Y-488355064D01*
X202200899Y-488516776D01*
X201713913Y-488642503D01*
X201358247Y-488729389D01*
X201145154Y-488774581D01*
X201084996Y-488778904D01*
X201138032Y-488719463D01*
X201302989Y-488572773D01*
X201558936Y-488356584D01*
X201884941Y-488088643D01*
X202175471Y-487854279D01*
X202919427Y-487258218D01*
X203549073Y-486752298D01*
X204082702Y-486321353D01*
X204538607Y-485950214D01*
X204935081Y-485623715D01*
X205290417Y-485326687D01*
X205622909Y-485043964D01*
X205950850Y-484760377D01*
X206292534Y-484460760D01*
X206651015Y-484143473D01*
X207362517Y-483509123D01*
X207946937Y-482982098D01*
X208406464Y-482560349D01*
X208743284Y-482241825D01*
X208959586Y-482024476D01*
X209057558Y-481906252D01*
X209062601Y-481883399D01*
X208973052Y-481890662D01*
X208751796Y-481933833D01*
X208430966Y-482006020D01*
X208042690Y-482100331D01*
X207993647Y-482112667D01*
X207599245Y-482208975D01*
X207268183Y-482283645D01*
X207032684Y-482329855D01*
X206924971Y-482340787D01*
X206922192Y-482339434D01*
X206972342Y-482276107D01*
X207142601Y-482125452D01*
X207416598Y-481900379D01*
X207777962Y-481613796D01*
X208210323Y-481278611D01*
X208697308Y-480907732D01*
X209222549Y-480514068D01*
X209464667Y-480334667D01*
X209756434Y-480117339D01*
X210156364Y-479816650D01*
X210638335Y-479452391D01*
X211176222Y-479044351D01*
X211743899Y-478612321D01*
X212315243Y-478176091D01*
X212426455Y-478091000D01*
X213872306Y-476986531D01*
X215190712Y-475984017D01*
X216381133Y-475083857D01*
X217443032Y-474286449D01*
X218375871Y-473592189D01*
X219179111Y-473001477D01*
X219852215Y-472514710D01*
X220394644Y-472132287D01*
X220805859Y-471854604D01*
X221085324Y-471682061D01*
X221116981Y-471664663D01*
X221141671Y-471656673D01*
X221129441Y-471681638D01*
G37*
G36*
X220859938Y-509310391D02*
G01*
X220776139Y-509393574D01*
X220588162Y-509541162D01*
X220314919Y-509739234D01*
X219975322Y-509973869D01*
X219588284Y-510231149D01*
X219381314Y-510364935D01*
X218859111Y-510702222D01*
X218400101Y-511006834D01*
X217976177Y-511299489D01*
X217559230Y-511600903D01*
X217121155Y-511931796D01*
X216633843Y-512312885D01*
X216069189Y-512764887D01*
X215506766Y-513220856D01*
X215006596Y-513627744D01*
X214509849Y-514031671D01*
X214044306Y-514410063D01*
X213637744Y-514740345D01*
X213317942Y-514999942D01*
X213178433Y-515113050D01*
X212898354Y-515344954D01*
X212672681Y-515541265D01*
X212531141Y-515675590D01*
X212498494Y-515716676D01*
X212573929Y-515735588D01*
X212799502Y-515756320D01*
X213156042Y-515777962D01*
X213624374Y-515799608D01*
X214185327Y-515820347D01*
X214819728Y-515839274D01*
X215364795Y-515852445D01*
X216069224Y-515869069D01*
X216737639Y-515887313D01*
X217346554Y-515906350D01*
X217872485Y-515925353D01*
X218291946Y-515943493D01*
X218581451Y-515959943D01*
X218691615Y-515969681D01*
X219127314Y-516024056D01*
X217984314Y-516425113D01*
X217108529Y-516725137D01*
X216338604Y-516971734D01*
X215625357Y-517179555D01*
X214919602Y-517363253D01*
X214497930Y-517463682D01*
X213999691Y-517574673D01*
X213656466Y-517640305D01*
X213460161Y-517660707D01*
X213402680Y-517636012D01*
X213475929Y-517566352D01*
X213623981Y-517477915D01*
X213907937Y-517313035D01*
X214221009Y-517118702D01*
X214530035Y-516917201D01*
X214801855Y-516730819D01*
X215003306Y-516581840D01*
X215101229Y-516492550D01*
X215105647Y-516482187D01*
X215030639Y-516452590D01*
X214841888Y-516447345D01*
X214745814Y-516453124D01*
X214403091Y-516478182D01*
X213971647Y-516504889D01*
X213478684Y-516532073D01*
X212951404Y-516558562D01*
X212417012Y-516583184D01*
X211902711Y-516604769D01*
X211435702Y-516622143D01*
X211043191Y-516634136D01*
X210752380Y-516639575D01*
X210590471Y-516637289D01*
X210566566Y-516633141D01*
X210615530Y-516569046D01*
X210776257Y-516414784D01*
X211029136Y-516187026D01*
X211354554Y-515902445D01*
X211732899Y-515577711D01*
X212144561Y-515229495D01*
X212569927Y-514874471D01*
X212989385Y-514529308D01*
X213383323Y-514210678D01*
X213732131Y-513935253D01*
X213820823Y-513866778D01*
X214082595Y-513659696D01*
X214278674Y-513492530D01*
X214380802Y-513389977D01*
X214388147Y-513370945D01*
X214300171Y-513386130D01*
X214099086Y-513457670D01*
X213825492Y-513570868D01*
X213777258Y-513592060D01*
X212807187Y-514021792D01*
X211978521Y-514389053D01*
X211277795Y-514699846D01*
X210691545Y-514960171D01*
X210206303Y-515176032D01*
X209808606Y-515353431D01*
X209484987Y-515498369D01*
X209221980Y-515616850D01*
X209006121Y-515714875D01*
X208823943Y-515798447D01*
X208733659Y-515840223D01*
X208076672Y-516145140D01*
X208245536Y-515814139D01*
X208409256Y-515526366D01*
X208638063Y-515165766D01*
X208897141Y-514783276D01*
X209151678Y-514429833D01*
X209366856Y-514156373D01*
X209419597Y-514096383D01*
X209547896Y-513937482D01*
X209597535Y-513836320D01*
X209594142Y-513826273D01*
X209511687Y-513852787D01*
X209321273Y-513955263D01*
X209055581Y-514115349D01*
X208879570Y-514227556D01*
X208535380Y-514442404D01*
X208160230Y-514662266D01*
X207783685Y-514871573D01*
X207435313Y-515054752D01*
X207144678Y-515196233D01*
X206941347Y-515280445D01*
X206856020Y-515293261D01*
X206895264Y-515220355D01*
X207047187Y-515062168D01*
X207290287Y-514836710D01*
X207603060Y-514561994D01*
X207964006Y-514256029D01*
X208351620Y-513936827D01*
X208744400Y-513622398D01*
X209120845Y-513330753D01*
X209459451Y-513079903D01*
X209688135Y-512921037D01*
X210194562Y-512589173D01*
X210682556Y-512278452D01*
X211130304Y-512001950D01*
X211515994Y-511772744D01*
X211817811Y-511603912D01*
X212013941Y-511508532D01*
X212071831Y-511492000D01*
X212067488Y-511547051D01*
X211966123Y-511691387D01*
X211789671Y-511893783D01*
X211789312Y-511894167D01*
X211608429Y-512106344D01*
X211376806Y-512404606D01*
X211119189Y-512753869D01*
X210860322Y-513119051D01*
X210624951Y-513465068D01*
X210437820Y-513756838D01*
X210323675Y-513959277D01*
X210309030Y-513992886D01*
X210298561Y-514052372D01*
X210339298Y-514072124D01*
X210450748Y-514045256D01*
X210652417Y-513964880D01*
X210963810Y-513824110D01*
X211404434Y-513616060D01*
X211484192Y-513577997D01*
X211926051Y-513367528D01*
X212415094Y-513135495D01*
X212865352Y-512922663D01*
X212988981Y-512864435D01*
X213317928Y-512708645D01*
X213753789Y-512500723D01*
X214251117Y-512262425D01*
X214764464Y-512015510D01*
X215042540Y-511881320D01*
X215611701Y-511613685D01*
X216256242Y-511322534D01*
X216908075Y-511037937D01*
X217499117Y-510789965D01*
X217667207Y-510722097D01*
X218194325Y-510506410D01*
X218751783Y-510269004D01*
X219282798Y-510034631D01*
X219730587Y-509828046D01*
X219846981Y-509771874D01*
X220204496Y-509597581D01*
X220508693Y-509450911D01*
X220725961Y-509347963D01*
X220820647Y-509305531D01*
X220859938Y-509310391D01*
G37*
G36*
X207701897Y-471380648D02*
G01*
X207704723Y-471483963D01*
X207637905Y-471592314D01*
X207556151Y-471705100D01*
X207398901Y-471938260D01*
X207181100Y-472269016D01*
X206917697Y-472674585D01*
X206623637Y-473132188D01*
X206484876Y-473349667D01*
X206110053Y-473935031D01*
X205691538Y-474582965D01*
X205263267Y-475241292D01*
X204859176Y-475857837D01*
X204529927Y-476355334D01*
X204249872Y-476782418D01*
X204011238Y-477159474D01*
X203826926Y-477464996D01*
X203709835Y-477677481D01*
X203672867Y-477775423D01*
X203675735Y-477779235D01*
X203778219Y-477746355D01*
X203971462Y-477634138D01*
X204200851Y-477476019D01*
X204434706Y-477305971D01*
X204767877Y-477066471D01*
X205161214Y-476785535D01*
X205575565Y-476491182D01*
X205707647Y-476397710D01*
X206185842Y-476050640D01*
X206715748Y-475651462D01*
X207234391Y-475248393D01*
X207678796Y-474889652D01*
X207697314Y-474874263D01*
X208014878Y-474614683D01*
X208394827Y-474311719D01*
X208817515Y-473980243D01*
X209263297Y-473635129D01*
X209712528Y-473291253D01*
X210145560Y-472963488D01*
X210542749Y-472666708D01*
X210884450Y-472415788D01*
X211151015Y-472225600D01*
X211322801Y-472111020D01*
X211380314Y-472085792D01*
X211334639Y-472173107D01*
X211213845Y-472360064D01*
X211042279Y-472609260D01*
X211008366Y-472657162D01*
X210778914Y-472990902D01*
X210548109Y-473344243D01*
X210382068Y-473613800D01*
X210253763Y-473850438D01*
X210092625Y-474174023D01*
X209912427Y-474553650D01*
X209726935Y-474958413D01*
X209549922Y-475357408D01*
X209395155Y-475719727D01*
X209276405Y-476014467D01*
X209207441Y-476210722D01*
X209196609Y-476274519D01*
X209265913Y-476248134D01*
X209438310Y-476128453D01*
X209689486Y-475933727D01*
X209995130Y-475682203D01*
X210067981Y-475620450D01*
X210555760Y-475206192D01*
X211161019Y-474694544D01*
X211870955Y-474096282D01*
X212672766Y-473422186D01*
X213553650Y-472683035D01*
X214201009Y-472140609D01*
X214515897Y-471879169D01*
X214781949Y-471662545D01*
X214973586Y-471511254D01*
X215065228Y-471445812D01*
X215068702Y-471444667D01*
X215052429Y-471505250D01*
X214947696Y-471669261D01*
X214774508Y-471910096D01*
X214552869Y-472201148D01*
X214302784Y-472515812D01*
X214044259Y-472827481D01*
X213923732Y-472967418D01*
X213702948Y-473216283D01*
X213391982Y-473561485D01*
X213015988Y-473975380D01*
X212600118Y-474430321D01*
X212169525Y-474898665D01*
X211972981Y-475111481D01*
X211524137Y-475598138D01*
X211059869Y-476104001D01*
X210610251Y-476596122D01*
X210205360Y-477041557D01*
X209875272Y-477407358D01*
X209783752Y-477509613D01*
X209497239Y-477825673D01*
X209251739Y-478086991D01*
X209068266Y-478271927D01*
X208967835Y-478358838D01*
X208956094Y-478362002D01*
X208977201Y-478276844D01*
X209065772Y-478085225D01*
X209203361Y-477826603D01*
X209221314Y-477794667D01*
X209388859Y-477477814D01*
X209466958Y-477281457D01*
X209454683Y-477211908D01*
X209351108Y-477275478D01*
X209288846Y-477334618D01*
X209146095Y-477460259D01*
X208914492Y-477645368D01*
X208625149Y-477867088D01*
X208309180Y-478102562D01*
X207997699Y-478328930D01*
X207721818Y-478523336D01*
X207512652Y-478662921D01*
X207401314Y-478724827D01*
X207394940Y-478726000D01*
X207320567Y-478673398D01*
X207360072Y-478553562D01*
X207399677Y-478507170D01*
X207466905Y-478397991D01*
X207581717Y-478170041D01*
X207725923Y-477860584D01*
X207831581Y-477622404D01*
X207987837Y-477260905D01*
X208168681Y-476838971D01*
X208362868Y-476383245D01*
X208559155Y-475920372D01*
X208746299Y-475476998D01*
X208913057Y-475079766D01*
X209048183Y-474755323D01*
X209140436Y-474530312D01*
X209178572Y-474431379D01*
X209178981Y-474429327D01*
X209116747Y-474468443D01*
X208941899Y-474601129D01*
X208672212Y-474812920D01*
X208325466Y-475089351D01*
X207919436Y-475415956D01*
X207471901Y-475778272D01*
X207000638Y-476161832D01*
X206523424Y-476552171D01*
X206058037Y-476934825D01*
X205622253Y-477295329D01*
X205233852Y-477619217D01*
X204910609Y-477892025D01*
X204691647Y-478080563D01*
X204322809Y-478412779D01*
X203873980Y-478831907D01*
X203382198Y-479302476D01*
X202884504Y-479789013D01*
X202417936Y-480256048D01*
X202384775Y-480289765D01*
X201929500Y-480751176D01*
X201581364Y-481098372D01*
X201330675Y-481339713D01*
X201167742Y-481483558D01*
X201082872Y-481538266D01*
X201066374Y-481512196D01*
X201108555Y-481413708D01*
X201131535Y-481370685D01*
X201249719Y-481139095D01*
X201389663Y-480841464D01*
X201535338Y-480515237D01*
X201670717Y-480197861D01*
X201779770Y-479926782D01*
X201846470Y-479739446D01*
X201857809Y-479673939D01*
X201779005Y-479703756D01*
X201617217Y-479823425D01*
X201454879Y-479964347D01*
X201234883Y-480158557D01*
X200936240Y-480411441D01*
X200581737Y-480704817D01*
X200194159Y-481020505D01*
X199796295Y-481340325D01*
X199410932Y-481646095D01*
X199060856Y-481919637D01*
X198768855Y-482142769D01*
X198557715Y-482297311D01*
X198450224Y-482365083D01*
X198443844Y-482366667D01*
X198466944Y-482306656D01*
X198567976Y-482154005D01*
X198644554Y-482049167D01*
X199128788Y-481419180D01*
X199702072Y-480698743D01*
X200337464Y-479920772D01*
X201008024Y-479118185D01*
X201686809Y-478323898D01*
X201808203Y-478183867D01*
X202237001Y-477688777D01*
X202680540Y-477173842D01*
X203109337Y-476673488D01*
X203493913Y-476222141D01*
X203804785Y-475854228D01*
X203874594Y-475770867D01*
X204221282Y-475356070D01*
X204597742Y-474906197D01*
X204956512Y-474477936D01*
X205228272Y-474154000D01*
X205541648Y-473778393D01*
X205877667Y-473371681D01*
X206183595Y-472997834D01*
X206310053Y-472841667D01*
X206701770Y-472366074D01*
X207046238Y-471969021D01*
X207331261Y-471663313D01*
X207544642Y-471461751D01*
X207674185Y-471377139D01*
X207701897Y-471380648D01*
G37*
G36*
X166649221Y-510821959D02*
G01*
X166347819Y-511108493D01*
X166099710Y-511351376D01*
X165926737Y-511528683D01*
X165850742Y-511618488D01*
X165849480Y-511624722D01*
X165948995Y-511626678D01*
X166178699Y-511590904D01*
X166505718Y-511525327D01*
X166897178Y-511437873D01*
X167320207Y-511336467D01*
X167741930Y-511229036D01*
X168129474Y-511123506D01*
X168449965Y-511027803D01*
X168670529Y-510949852D01*
X168697890Y-510937949D01*
X169167998Y-510722727D01*
X168961873Y-510959197D01*
X168821231Y-511113514D01*
X168594357Y-511354693D01*
X168313548Y-511648664D01*
X168035296Y-511936500D01*
X167736922Y-512245769D01*
X167545177Y-512454582D01*
X167447261Y-512582528D01*
X167430374Y-512649194D01*
X167481716Y-512674168D01*
X167551181Y-512677334D01*
X167699069Y-512656086D01*
X167976649Y-512597945D01*
X168350451Y-512511318D01*
X168787005Y-512404608D01*
X169252841Y-512286222D01*
X169714489Y-512164564D01*
X170138479Y-512048040D01*
X170491341Y-511945055D01*
X170592147Y-511913668D01*
X170760807Y-511874085D01*
X170803787Y-511906635D01*
X170717114Y-512018230D01*
X170496818Y-512215783D01*
X170347990Y-512338667D01*
X169920620Y-512712533D01*
X169481162Y-513142740D01*
X169066760Y-513589328D01*
X168714558Y-514012340D01*
X168468732Y-514360310D01*
X168188807Y-514815245D01*
X168427394Y-514756297D01*
X168589797Y-514699189D01*
X168869006Y-514583642D01*
X169229428Y-514425035D01*
X169635469Y-514238743D01*
X169749417Y-514185167D01*
X170140152Y-514004417D01*
X170474070Y-513857456D01*
X170722765Y-513756209D01*
X170857835Y-513712600D01*
X170873231Y-513713362D01*
X170860154Y-513805956D01*
X170786580Y-514019914D01*
X170665571Y-514324078D01*
X170510191Y-514687292D01*
X170333506Y-515078398D01*
X170148578Y-515466240D01*
X170082870Y-515598334D01*
X169916512Y-515950228D01*
X169761321Y-516316715D01*
X169630046Y-516662528D01*
X169535435Y-516952401D01*
X169490239Y-517151068D01*
X169496831Y-517219406D01*
X169549627Y-517213008D01*
X169674613Y-517148571D01*
X169882425Y-517018970D01*
X170183696Y-516817076D01*
X170589059Y-516535764D01*
X171109149Y-516167906D01*
X171754599Y-515706375D01*
X171757676Y-515704167D01*
X172050461Y-515497470D01*
X172290621Y-515334346D01*
X172446140Y-515236187D01*
X172486224Y-515217334D01*
X172502719Y-515281864D01*
X172479285Y-515365500D01*
X172420818Y-515542309D01*
X172335380Y-515832978D01*
X172230786Y-516207514D01*
X172114847Y-516635922D01*
X171995378Y-517088208D01*
X171880189Y-517534376D01*
X171777094Y-517944433D01*
X171693906Y-518288383D01*
X171638438Y-518536233D01*
X171618502Y-518657988D01*
X171619837Y-518665079D01*
X171701066Y-518637523D01*
X171871272Y-518524076D01*
X172068892Y-518369328D01*
X172321348Y-518170069D01*
X172552708Y-518004453D01*
X172677947Y-517927690D01*
X172820221Y-517866173D01*
X172852260Y-517914527D01*
X172827506Y-518032574D01*
X172789905Y-518219123D01*
X172740646Y-518511945D01*
X172690062Y-518849418D01*
X172687567Y-518867190D01*
X172635407Y-519165145D01*
X172559644Y-519507468D01*
X172471100Y-519855117D01*
X172380596Y-520169050D01*
X172298951Y-520410227D01*
X172236989Y-520539605D01*
X172220783Y-520551334D01*
X172175232Y-520482203D01*
X172135404Y-520375984D01*
X172114785Y-520198893D01*
X172119210Y-519922953D01*
X172139112Y-519689176D01*
X172166088Y-519408812D01*
X172161094Y-519266393D01*
X172120249Y-519232877D01*
X172080528Y-519250692D01*
X171892895Y-519374232D01*
X171636192Y-519552814D01*
X171344948Y-519761188D01*
X171053695Y-519974106D01*
X170796963Y-520166319D01*
X170609280Y-520312580D01*
X170525179Y-520387639D01*
X170524781Y-520388256D01*
X170419154Y-520464695D01*
X170401214Y-520466667D01*
X170381084Y-520394155D01*
X170409209Y-520207612D01*
X170453443Y-520037881D01*
X170502716Y-519848828D01*
X170572218Y-519551860D01*
X170655090Y-519179775D01*
X170744472Y-518765372D01*
X170833507Y-518341451D01*
X170915334Y-517940811D01*
X170983096Y-517596252D01*
X171029933Y-517340571D01*
X171048987Y-517206569D01*
X171048018Y-517194652D01*
X170977251Y-517233473D01*
X170789432Y-517347076D01*
X170510337Y-517519283D01*
X170165743Y-517733912D01*
X169781424Y-517974786D01*
X169383159Y-518225725D01*
X168996722Y-518470550D01*
X168647889Y-518693081D01*
X168362437Y-518877139D01*
X168242647Y-518955546D01*
X168032114Y-519074035D01*
X167877385Y-519124057D01*
X167836028Y-519115705D01*
X167832989Y-519011842D01*
X167891675Y-518802670D01*
X167991078Y-518552981D01*
X168110536Y-518277091D01*
X168271300Y-517894207D01*
X168452392Y-517454797D01*
X168632831Y-517009328D01*
X168634166Y-517006000D01*
X168806765Y-516582317D01*
X168973258Y-516185559D01*
X169115565Y-515858069D01*
X169215605Y-515642191D01*
X169221670Y-515630167D01*
X169313938Y-515410866D01*
X169310810Y-515307856D01*
X169291237Y-515302000D01*
X169176645Y-515332308D01*
X168942332Y-515414345D01*
X168624916Y-515534783D01*
X168337016Y-515649316D01*
X167878329Y-515831454D01*
X167422589Y-516005568D01*
X167000343Y-516160698D01*
X166642135Y-516285887D01*
X166378510Y-516370174D01*
X166240014Y-516402603D01*
X166237206Y-516402667D01*
X166228206Y-516336387D01*
X166294131Y-516157606D01*
X166418569Y-515896409D01*
X166585107Y-515582883D01*
X166777334Y-515247115D01*
X166978838Y-514919191D01*
X167173206Y-514629197D01*
X167289997Y-514472702D01*
X167479897Y-514219018D01*
X167610841Y-514015782D01*
X167661143Y-513897705D01*
X167657566Y-513884363D01*
X167555811Y-513871682D01*
X167323317Y-513880292D01*
X166997037Y-513907974D01*
X166694753Y-513942181D01*
X166115396Y-514013466D01*
X165682799Y-514063398D01*
X165375871Y-514092987D01*
X165173522Y-514103244D01*
X165054661Y-514095178D01*
X164998197Y-514069799D01*
X164983040Y-514028117D01*
X164982981Y-514024154D01*
X165039971Y-513925943D01*
X165195592Y-513736260D01*
X165426823Y-513481421D01*
X165710639Y-513187743D01*
X165744027Y-513154251D01*
X166028453Y-512867446D01*
X166261282Y-512628116D01*
X166420670Y-512459056D01*
X166484773Y-512383064D01*
X166484860Y-512381124D01*
X166389483Y-512378337D01*
X166161669Y-512388566D01*
X165837576Y-512409018D01*
X165453360Y-512436905D01*
X165045179Y-512469436D01*
X164649191Y-512503820D01*
X164301553Y-512537269D01*
X164038421Y-512566991D01*
X163988147Y-512573787D01*
X163716048Y-512605563D01*
X163526062Y-512614251D01*
X163461753Y-512599820D01*
X163529437Y-512516714D01*
X163709955Y-512359175D01*
X163976060Y-512147911D01*
X164300504Y-511903625D01*
X164656040Y-511647023D01*
X165015420Y-511398810D01*
X165221807Y-511262362D01*
X165637960Y-511006784D01*
X166121122Y-510731065D01*
X166583908Y-510484608D01*
X166701090Y-510426025D01*
X167475879Y-510046113D01*
X166649221Y-510821959D01*
G37*
G36*
X142065395Y-520512549D02*
G01*
X142308903Y-520555914D01*
X142675255Y-520637100D01*
X143144746Y-520750785D01*
X143697671Y-520891648D01*
X144314328Y-521054369D01*
X144975013Y-521233627D01*
X145660021Y-521424100D01*
X146349650Y-521620467D01*
X147024195Y-521817408D01*
X147663952Y-522009602D01*
X148249218Y-522191727D01*
X148585463Y-522300338D01*
X149502279Y-522601765D01*
X148119796Y-522961305D01*
X147308549Y-523172013D01*
X146644024Y-523343899D01*
X146109181Y-523481216D01*
X145686980Y-523588215D01*
X145360380Y-523669147D01*
X145112341Y-523728264D01*
X144925821Y-523769818D01*
X144783781Y-523798060D01*
X144724128Y-523808516D01*
X144509821Y-523866379D01*
X144461520Y-523934929D01*
X144576970Y-524005819D01*
X144791985Y-524059790D01*
X145028190Y-524117023D01*
X145399189Y-524223221D01*
X145880271Y-524370500D01*
X146446724Y-524550978D01*
X147073837Y-524756772D01*
X147736898Y-524980000D01*
X148411195Y-525212778D01*
X148459871Y-525229820D01*
X149674429Y-525655464D01*
X148713871Y-525932560D01*
X148210183Y-526084722D01*
X147670228Y-526259670D01*
X147117470Y-526448536D01*
X146575372Y-526642451D01*
X146067397Y-526832548D01*
X145617008Y-527009959D01*
X145247668Y-527165817D01*
X144982840Y-527291255D01*
X144845987Y-527377403D01*
X144832314Y-527399570D01*
X144910050Y-527438775D01*
X145127542Y-527515254D01*
X145461218Y-527621586D01*
X145887507Y-527750352D01*
X146382835Y-527894134D01*
X146589147Y-527952539D01*
X147117107Y-528102697D01*
X147596769Y-528242408D01*
X148001627Y-528363685D01*
X148305173Y-528458543D01*
X148480901Y-528518998D01*
X148506613Y-528530187D01*
X148569247Y-528581799D01*
X148544734Y-528645657D01*
X148412570Y-528740777D01*
X148152249Y-528886179D01*
X148083279Y-528922819D01*
X147793024Y-529089824D01*
X147412244Y-529328131D01*
X146986519Y-529608301D01*
X146561430Y-529900892D01*
X146483314Y-529956301D01*
X146015725Y-530291244D01*
X145528901Y-530642513D01*
X145043884Y-530994667D01*
X144581715Y-531332261D01*
X144163436Y-531639853D01*
X143810089Y-531902000D01*
X143542714Y-532103259D01*
X143382355Y-532228188D01*
X143350647Y-532255451D01*
X143348904Y-532295974D01*
X143469961Y-532299619D01*
X143721985Y-532265004D01*
X144113143Y-532190749D01*
X144651601Y-532075472D01*
X145340314Y-531918999D01*
X146117560Y-531739985D01*
X146743048Y-531598205D01*
X147229583Y-531490987D01*
X147589969Y-531415656D01*
X147837012Y-531369540D01*
X147983518Y-531349966D01*
X148042290Y-531354260D01*
X148042910Y-531354805D01*
X147994690Y-531421203D01*
X147841147Y-531592732D01*
X147596413Y-531854509D01*
X147274625Y-532191651D01*
X146889917Y-532589274D01*
X146456423Y-533032496D01*
X146264910Y-533226943D01*
X145748811Y-533751631D01*
X145342804Y-534169231D01*
X145036539Y-534491681D01*
X144819663Y-534730919D01*
X144681827Y-534898884D01*
X144612680Y-535007513D01*
X144601872Y-535068745D01*
X144639050Y-535094518D01*
X144644772Y-535095567D01*
X144821975Y-535089683D01*
X145125889Y-535044508D01*
X145520528Y-534967694D01*
X145969908Y-534866897D01*
X146438042Y-534749770D01*
X146888947Y-534623967D01*
X146954946Y-534604194D01*
X147231697Y-534526718D01*
X147437172Y-534481046D01*
X147525357Y-534476822D01*
X147501298Y-534566371D01*
X147381289Y-534763828D01*
X147180527Y-535049350D01*
X146914211Y-535403095D01*
X146597539Y-535805222D01*
X146245710Y-536235889D01*
X145873921Y-536675254D01*
X145610546Y-536976667D01*
X145288560Y-537343093D01*
X145011868Y-537664179D01*
X144797703Y-537919412D01*
X144663298Y-538088276D01*
X144625021Y-538149865D01*
X144702044Y-538117301D01*
X144896710Y-538007772D01*
X145184265Y-537835947D01*
X145539955Y-537616497D01*
X145779734Y-537465559D01*
X146470555Y-537029906D01*
X147026623Y-536684550D01*
X147454067Y-536425838D01*
X147759014Y-536250119D01*
X147947593Y-536153740D01*
X148018389Y-536131297D01*
X148036037Y-536168538D01*
X148007314Y-536194797D01*
X147911434Y-536290906D01*
X147750444Y-536475633D01*
X147604695Y-536652801D01*
X147357055Y-536929287D01*
X147017322Y-537254554D01*
X146578011Y-537634489D01*
X146031639Y-538074978D01*
X145370721Y-538581909D01*
X144587772Y-539161169D01*
X143675309Y-539818645D01*
X142729729Y-540487339D01*
X142159243Y-540882588D01*
X141658022Y-541219325D01*
X141238905Y-541489560D01*
X140914735Y-541685305D01*
X140698350Y-541798572D01*
X140602592Y-541821373D01*
X140598981Y-541812936D01*
X140650611Y-541726822D01*
X140793563Y-541534279D01*
X141009923Y-541258272D01*
X141281780Y-540921763D01*
X141509147Y-540646099D01*
X141890108Y-540185683D01*
X142332410Y-539647311D01*
X142791634Y-539085270D01*
X143223362Y-538553848D01*
X143406488Y-538327188D01*
X143764745Y-537887237D01*
X144129995Y-537446548D01*
X144472109Y-537040931D01*
X144760961Y-536706196D01*
X144919983Y-536528154D01*
X145146289Y-536274438D01*
X145316472Y-536070624D01*
X145406805Y-535945821D01*
X145414291Y-535921755D01*
X145324345Y-535926124D01*
X145099717Y-535960247D01*
X144771386Y-536018818D01*
X144370333Y-536096529D01*
X144239463Y-536122987D01*
X143564232Y-536260164D01*
X143039754Y-536365145D01*
X142651106Y-536440741D01*
X142383365Y-536489763D01*
X142221608Y-536515023D01*
X142150914Y-536519330D01*
X142145634Y-536517389D01*
X142197245Y-536454726D01*
X142352784Y-536285896D01*
X142597940Y-536025949D01*
X142918405Y-535689934D01*
X143299870Y-535292902D01*
X143728023Y-534849904D01*
X143881132Y-534692061D01*
X145636310Y-532884259D01*
X145086145Y-532936176D01*
X144814855Y-532968893D01*
X144418871Y-533025930D01*
X143940014Y-533100825D01*
X143420102Y-533187111D01*
X143077301Y-533246713D01*
X142368776Y-533367232D01*
X141818863Y-533449071D01*
X141421447Y-533492777D01*
X141170411Y-533498895D01*
X141059642Y-533467973D01*
X141060703Y-533427048D01*
X141159821Y-533327472D01*
X141379537Y-533143724D01*
X141701870Y-532888940D01*
X142108836Y-532576256D01*
X142582454Y-532218808D01*
X143104741Y-531829733D01*
X143657714Y-531422168D01*
X144223391Y-531009248D01*
X144783791Y-530604110D01*
X145320929Y-530219891D01*
X145816824Y-529869726D01*
X146253494Y-529566753D01*
X146612956Y-529324107D01*
X146877227Y-529154926D01*
X147012481Y-529079203D01*
X147157033Y-528994385D01*
X147202022Y-528940910D01*
X147124110Y-528904217D01*
X146904797Y-528825875D01*
X146564938Y-528712684D01*
X146125386Y-528571446D01*
X145606995Y-528408961D01*
X145030619Y-528232030D01*
X144997789Y-528222057D01*
X144247902Y-527991822D01*
X143654712Y-527803743D01*
X143211572Y-527655353D01*
X142911832Y-527544185D01*
X142748842Y-527467771D01*
X142715954Y-527423643D01*
X142806518Y-527409334D01*
X142807738Y-527409334D01*
X142916198Y-527376519D01*
X143150908Y-527285764D01*
X143483693Y-527148598D01*
X143886376Y-526976551D01*
X144188568Y-526844273D01*
X144695503Y-526622605D01*
X145221554Y-526396583D01*
X145715556Y-526187936D01*
X146126343Y-526018392D01*
X146253754Y-525967240D01*
X147040195Y-525655268D01*
X145407088Y-525123030D01*
X144841580Y-524935215D01*
X144253626Y-524733739D01*
X143666901Y-524527333D01*
X143105077Y-524324732D01*
X142591828Y-524134668D01*
X142150826Y-523965874D01*
X141805745Y-523827083D01*
X141580258Y-523727029D01*
X141504781Y-523683474D01*
X141531705Y-523643272D01*
X141690867Y-523586088D01*
X141988757Y-523510470D01*
X142431867Y-523414967D01*
X143026691Y-523298128D01*
X143779720Y-523158500D01*
X144154981Y-523090877D01*
X144846604Y-522965299D01*
X145385498Y-522862807D01*
X145786173Y-522779931D01*
X146063138Y-522713200D01*
X146230902Y-522659142D01*
X146303973Y-522614287D01*
X146299660Y-522577781D01*
X146195791Y-522517475D01*
X145971716Y-522410654D01*
X145664193Y-522274330D01*
X145424981Y-522172964D01*
X145053222Y-522013672D01*
X144622641Y-521821804D01*
X144157493Y-521608999D01*
X143682032Y-521386897D01*
X143220515Y-521167138D01*
X142797196Y-520961361D01*
X142436331Y-520781205D01*
X142162175Y-520638310D01*
X141998983Y-520544316D01*
X141964432Y-520512326D01*
X142065395Y-520512549D01*
G37*
G36*
X214516114Y-538755768D02*
G01*
X214921306Y-538790403D01*
X215410705Y-538845157D01*
X215963823Y-538916905D01*
X216560171Y-539002518D01*
X217179262Y-539098872D01*
X217800606Y-539202838D01*
X218403716Y-539311290D01*
X218968103Y-539421103D01*
X219473279Y-539529148D01*
X219898756Y-539632299D01*
X220224045Y-539727430D01*
X220339423Y-539769668D01*
X220735981Y-539930766D01*
X220024508Y-539935383D01*
X219659450Y-539926753D01*
X219186795Y-539899848D01*
X218666790Y-539858810D01*
X218159680Y-539807786D01*
X218144507Y-539806054D01*
X217710454Y-539759186D01*
X217331503Y-539723664D01*
X217042061Y-539702316D01*
X216876535Y-539697970D01*
X216856926Y-539700221D01*
X216895026Y-539754060D01*
X217056582Y-539894590D01*
X217326934Y-540110529D01*
X217691425Y-540390596D01*
X218135398Y-540723509D01*
X218644193Y-541097988D01*
X219139247Y-541456791D01*
X219697565Y-541859672D01*
X220208711Y-542230471D01*
X220657271Y-542557853D01*
X221027827Y-542830483D01*
X221304967Y-543037029D01*
X221473274Y-543166154D01*
X221519176Y-543206694D01*
X221431560Y-543203640D01*
X221234199Y-543171341D01*
X221116856Y-543147851D01*
X220862333Y-543098561D01*
X220477307Y-543029757D01*
X219982923Y-542944805D01*
X219400322Y-542847067D01*
X218750647Y-542739908D01*
X218055041Y-542626691D01*
X217334648Y-542510781D01*
X216610609Y-542395540D01*
X215904068Y-542284333D01*
X215236167Y-542180525D01*
X214628049Y-542087477D01*
X214100858Y-542008555D01*
X213675736Y-541947123D01*
X213373825Y-541906543D01*
X213216269Y-541890181D01*
X213211022Y-541890026D01*
X213176183Y-541930060D01*
X213269200Y-542045237D01*
X213473161Y-542222862D01*
X213771150Y-542450240D01*
X214146256Y-542714678D01*
X214581564Y-543003480D01*
X215060161Y-543303952D01*
X215238583Y-543411810D01*
X215850767Y-543780207D01*
X216376729Y-544101070D01*
X216804920Y-544367114D01*
X217123791Y-544571053D01*
X217321794Y-544705599D01*
X217387380Y-544763466D01*
X217383733Y-544765196D01*
X217288790Y-544747283D01*
X217056472Y-544697087D01*
X216714324Y-544620744D01*
X216289887Y-544524391D01*
X215882216Y-544430700D01*
X215439760Y-544330714D01*
X214897568Y-544211755D01*
X214280819Y-544079024D01*
X213614692Y-543937722D01*
X212924367Y-543793050D01*
X212235023Y-543650211D01*
X211571838Y-543514405D01*
X210959992Y-543390834D01*
X210424665Y-543284700D01*
X209991034Y-543201204D01*
X209684280Y-543145547D01*
X209581147Y-543129028D01*
X209378374Y-543115535D01*
X209269536Y-543138878D01*
X209263647Y-543151000D01*
X209335003Y-543233440D01*
X209545778Y-543400998D01*
X209891036Y-543650276D01*
X210365839Y-543977878D01*
X210965252Y-544380406D01*
X211684337Y-544854461D01*
X212518157Y-545396648D01*
X212659968Y-545488255D01*
X213211786Y-545844536D01*
X213769285Y-546204689D01*
X214299953Y-546547697D01*
X214771283Y-546852543D01*
X215150764Y-547098211D01*
X215308983Y-547200771D01*
X215719384Y-547465038D01*
X216210966Y-547778595D01*
X216720965Y-548101551D01*
X217171649Y-548384662D01*
X217740688Y-548744189D01*
X218307333Y-549109447D01*
X218854258Y-549468579D01*
X219364139Y-549809726D01*
X219819649Y-550121033D01*
X220203464Y-550390640D01*
X220498258Y-550606692D01*
X220686707Y-550757330D01*
X220751484Y-550830698D01*
X220750113Y-550833756D01*
X220669306Y-550806398D01*
X220457484Y-550714229D01*
X220135676Y-550566975D01*
X219724915Y-550374358D01*
X219246233Y-550146105D01*
X218865988Y-549962564D01*
X218131821Y-549612700D01*
X217326162Y-549239756D01*
X216474076Y-548854508D01*
X215600626Y-548467732D01*
X214730874Y-548090202D01*
X213889886Y-547732694D01*
X213102724Y-547405983D01*
X212394451Y-547120843D01*
X211790132Y-546888051D01*
X211337981Y-546726156D01*
X210884316Y-546577659D01*
X210419971Y-546433526D01*
X209974021Y-546301884D01*
X209575539Y-546190857D01*
X209253598Y-546108573D01*
X209037273Y-546063155D01*
X208956786Y-546060639D01*
X209014199Y-546117191D01*
X209191771Y-546263348D01*
X209474031Y-546487337D01*
X209845506Y-546777384D01*
X210290723Y-547121713D01*
X210794212Y-547508552D01*
X211340500Y-547926125D01*
X211914114Y-548362658D01*
X212499583Y-548806378D01*
X213081435Y-549245510D01*
X213644198Y-549668280D01*
X214172399Y-550062913D01*
X214650566Y-550417635D01*
X215063228Y-550720673D01*
X215394913Y-550960251D01*
X215399092Y-550963230D01*
X215450598Y-551041476D01*
X215441862Y-551057992D01*
X215357749Y-551031788D01*
X215163004Y-550932420D01*
X214890108Y-550777240D01*
X214682314Y-550652276D01*
X214387889Y-550474049D01*
X213981578Y-550231523D01*
X213498058Y-549945214D01*
X212972002Y-549635639D01*
X212438087Y-549323314D01*
X212316360Y-549252397D01*
X211713317Y-548893911D01*
X211026551Y-548473405D01*
X210311374Y-548025520D01*
X209623096Y-547584898D01*
X209017029Y-547186178D01*
X209014360Y-547184389D01*
X208445989Y-546808405D01*
X207830811Y-546409911D01*
X207213690Y-546017402D01*
X206639490Y-545659373D01*
X206153077Y-545364319D01*
X206088647Y-545326185D01*
X205656891Y-545070611D01*
X205262526Y-544835106D01*
X204934514Y-544637124D01*
X204701817Y-544494120D01*
X204606981Y-544433250D01*
X204448236Y-544331887D01*
X204183094Y-544169802D01*
X203851618Y-543971265D01*
X203569814Y-543804967D01*
X203199851Y-543579538D01*
X202935175Y-543401006D01*
X202783482Y-543277425D01*
X202752471Y-543216852D01*
X202849841Y-543227341D01*
X203083287Y-543316947D01*
X203117944Y-543332130D01*
X203331451Y-543411706D01*
X203669904Y-543520478D01*
X204093980Y-543646545D01*
X204564355Y-543778003D01*
X204790111Y-543838232D01*
X205312631Y-543978382D01*
X205849919Y-544127646D01*
X206347925Y-544270684D01*
X206752603Y-544392158D01*
X206850647Y-544423036D01*
X207275752Y-544556285D01*
X207768680Y-544706139D01*
X208303393Y-544865175D01*
X208853852Y-545025968D01*
X209394020Y-545181097D01*
X209897857Y-545323138D01*
X210339326Y-545444668D01*
X210692389Y-545538263D01*
X210931006Y-545596500D01*
X211023507Y-545612667D01*
X211006862Y-545570174D01*
X210861959Y-545449694D01*
X210604918Y-545261720D01*
X210251855Y-545016747D01*
X209818890Y-544725270D01*
X209322142Y-544397783D01*
X208777729Y-544044783D01*
X208201770Y-543676762D01*
X207610383Y-543304216D01*
X207019687Y-542937639D01*
X206445801Y-542587527D01*
X205904843Y-542264374D01*
X205666669Y-542124858D01*
X205309307Y-541908861D01*
X205078044Y-541750765D01*
X204981796Y-541657221D01*
X205007949Y-541633334D01*
X205281274Y-541648415D01*
X205694445Y-541690965D01*
X206220935Y-541756943D01*
X206834213Y-541842307D01*
X207507752Y-541943016D01*
X208215022Y-542055029D01*
X208929494Y-542174305D01*
X209624639Y-542296802D01*
X210273929Y-542418479D01*
X210638445Y-542491044D01*
X211231517Y-542611823D01*
X211781504Y-542722873D01*
X212262950Y-542819128D01*
X212650396Y-542895523D01*
X212918384Y-542946995D01*
X213031314Y-542967078D01*
X213067645Y-542946261D01*
X212980719Y-542852129D01*
X212765952Y-542681152D01*
X212418764Y-542429800D01*
X211934572Y-542094542D01*
X211634314Y-541890729D01*
X210959666Y-541431267D01*
X210428758Y-541061176D01*
X210041602Y-540780466D01*
X209798209Y-540589144D01*
X209698590Y-540487219D01*
X209742758Y-540474701D01*
X209771647Y-540483902D01*
X209892859Y-540509280D01*
X210152995Y-540552868D01*
X210523170Y-540610190D01*
X210974502Y-540676771D01*
X211464981Y-540746310D01*
X212215062Y-540854356D01*
X213090751Y-540986770D01*
X214051163Y-541137035D01*
X215055414Y-541298634D01*
X216062618Y-541465049D01*
X217031889Y-541629765D01*
X217306981Y-541677494D01*
X217655336Y-541735085D01*
X217953804Y-541778712D01*
X218152311Y-541801247D01*
X218187335Y-541802839D01*
X218236294Y-541802808D01*
X218266618Y-541796624D01*
X218265612Y-541774979D01*
X218220583Y-541728565D01*
X218118838Y-541648073D01*
X217947683Y-541524194D01*
X217694425Y-541347621D01*
X217346370Y-541109045D01*
X216890826Y-540799158D01*
X216315098Y-540408650D01*
X215931940Y-540148893D01*
X215434690Y-539810202D01*
X214982217Y-539499028D01*
X214593982Y-539228993D01*
X214289445Y-539013721D01*
X214088066Y-538866836D01*
X214010665Y-538803849D01*
X214040305Y-538759365D01*
X214215618Y-538744380D01*
X214516114Y-538755768D01*
G37*
G36*
X199047637Y-543626207D02*
G01*
X199254884Y-543694479D01*
X199549821Y-543800556D01*
X199897882Y-543931398D01*
X200264504Y-544073962D01*
X200615120Y-544215209D01*
X200915168Y-544342097D01*
X200966768Y-544364918D01*
X201511282Y-544626426D01*
X202165524Y-544971090D01*
X202901980Y-545382876D01*
X203693138Y-545845751D01*
X204511483Y-546343681D01*
X205329502Y-546860634D01*
X205971703Y-547281460D01*
X206492436Y-547627989D01*
X206982744Y-547952884D01*
X207420194Y-548241385D01*
X207782351Y-548478737D01*
X208046781Y-548650181D01*
X208184147Y-548736826D01*
X208410138Y-548881236D01*
X208486349Y-548950080D01*
X208414786Y-548942855D01*
X208197458Y-548859056D01*
X208014814Y-548779379D01*
X207187733Y-548423309D01*
X206265943Y-548050169D01*
X205318287Y-547686770D01*
X204413604Y-547359921D01*
X204056647Y-547237860D01*
X203460333Y-547042760D01*
X202827797Y-546844076D01*
X202179965Y-546647589D01*
X201537758Y-546459080D01*
X200922102Y-546284329D01*
X200353918Y-546129118D01*
X199854130Y-545999227D01*
X199443662Y-545900438D01*
X199143437Y-545838532D01*
X198974379Y-545819289D01*
X198946727Y-545826032D01*
X198968014Y-545917700D01*
X199084133Y-546114633D01*
X199279351Y-546393838D01*
X199537937Y-546732325D01*
X199727680Y-546967334D01*
X199901411Y-547183015D01*
X200154008Y-547502947D01*
X200461694Y-547896698D01*
X200800690Y-548333840D01*
X201147221Y-548783945D01*
X201150076Y-548787667D01*
X201495624Y-549234069D01*
X201833938Y-549663527D01*
X202141433Y-550046663D01*
X202394527Y-550354100D01*
X202569636Y-550556459D01*
X202572432Y-550559507D01*
X202751095Y-550759664D01*
X202858868Y-550892224D01*
X202873850Y-550930122D01*
X202871314Y-550928792D01*
X202776372Y-550871616D01*
X202560212Y-550739651D01*
X202245768Y-550546956D01*
X201855976Y-550307590D01*
X201413770Y-550035610D01*
X201304981Y-549968639D01*
X200356425Y-549410916D01*
X199284538Y-548827333D01*
X198128841Y-548238426D01*
X196928857Y-547664729D01*
X196452878Y-547447513D01*
X195961108Y-547226182D01*
X196018930Y-547414258D01*
X196092790Y-547616840D01*
X196196050Y-547812823D01*
X196350583Y-548032964D01*
X196578257Y-548308022D01*
X196900944Y-548668757D01*
X196945895Y-548717957D01*
X197191364Y-548995108D01*
X197368920Y-549213378D01*
X197462766Y-549351877D01*
X197457106Y-549389716D01*
X197452647Y-549388085D01*
X197327160Y-549338694D01*
X197068513Y-549238056D01*
X196701558Y-549095800D01*
X196251149Y-548921553D01*
X195742138Y-548724945D01*
X195462981Y-548617237D01*
X194518315Y-548250829D01*
X193692655Y-547926309D01*
X192992722Y-547646427D01*
X192425238Y-547413935D01*
X191996922Y-547231584D01*
X191714496Y-547102125D01*
X191587434Y-547030632D01*
X191475435Y-546973006D01*
X191443367Y-546979392D01*
X191472940Y-547060571D01*
X191580318Y-547259860D01*
X191750914Y-547553463D01*
X191970139Y-547917583D01*
X192223408Y-548328424D01*
X192496130Y-548762190D01*
X192773720Y-549195085D01*
X193041589Y-549603312D01*
X193161745Y-549782500D01*
X193342704Y-550064418D01*
X193466288Y-550285668D01*
X193516756Y-550416269D01*
X193506233Y-550438667D01*
X193404275Y-550400305D01*
X193177621Y-550293290D01*
X192850410Y-550129732D01*
X192446781Y-549921737D01*
X191990870Y-549681414D01*
X191901400Y-549633670D01*
X191171500Y-549247982D01*
X190543975Y-548925832D01*
X190027329Y-548671262D01*
X189630069Y-548488315D01*
X189360697Y-548381033D01*
X189227720Y-548353458D01*
X189217916Y-548358176D01*
X189248431Y-548438196D01*
X189361889Y-548624260D01*
X189539462Y-548887077D01*
X189722596Y-549143269D01*
X189996936Y-549525998D01*
X190319440Y-549987388D01*
X190646141Y-550464025D01*
X190884935Y-550819667D01*
X191141394Y-551197297D01*
X191390588Y-551548275D01*
X191604975Y-551834786D01*
X191757010Y-552019015D01*
X191763715Y-552026167D01*
X191902033Y-552186610D01*
X191956622Y-552281441D01*
X191944756Y-552293071D01*
X191845831Y-552247208D01*
X191634511Y-552128170D01*
X191341254Y-551953700D01*
X190996519Y-551741544D01*
X190975647Y-551728494D01*
X190581777Y-551488638D01*
X190069728Y-551186774D01*
X189470760Y-550840528D01*
X188816135Y-550467527D01*
X188137112Y-550085397D01*
X187464953Y-549711765D01*
X186830917Y-549364257D01*
X186266265Y-549060500D01*
X185937981Y-548887979D01*
X185612181Y-548705928D01*
X185275989Y-548496271D01*
X184957708Y-548279626D01*
X184685646Y-548076612D01*
X184488105Y-547907847D01*
X184393392Y-547793949D01*
X184394077Y-547763348D01*
X184479183Y-547781059D01*
X184702365Y-547846970D01*
X185041628Y-547954042D01*
X185474979Y-548095234D01*
X185980424Y-548263505D01*
X186403647Y-548406667D01*
X186949809Y-548590779D01*
X187441104Y-548752846D01*
X187855471Y-548885879D01*
X188170847Y-548982891D01*
X188365172Y-549036894D01*
X188418398Y-549044805D01*
X188397217Y-548960610D01*
X188300927Y-548793533D01*
X188257160Y-548729042D01*
X187957278Y-548308649D01*
X187634843Y-547866713D01*
X187313750Y-547435031D01*
X187017890Y-547045403D01*
X186771160Y-546729626D01*
X186597450Y-546519500D01*
X186593744Y-546515304D01*
X186437432Y-546325400D01*
X186349226Y-546191363D01*
X186341717Y-546154374D01*
X186390842Y-546152221D01*
X186507391Y-546188273D01*
X186703366Y-546268065D01*
X186990769Y-546397127D01*
X187381602Y-546580993D01*
X187887866Y-546825195D01*
X188521564Y-547135265D01*
X189261147Y-547500137D01*
X189788984Y-547758521D01*
X190263358Y-547985483D01*
X190664420Y-548171956D01*
X190972321Y-548308873D01*
X191167214Y-548387165D01*
X191229647Y-548399466D01*
X191187986Y-548296661D01*
X191077495Y-548090739D01*
X190919912Y-547821660D01*
X190877420Y-547751991D01*
X190728186Y-547495636D01*
X190546879Y-547163878D01*
X190349965Y-546789425D01*
X190153908Y-546404982D01*
X189975175Y-546043258D01*
X189830232Y-545736960D01*
X189735544Y-545518794D01*
X189706864Y-545426826D01*
X189776005Y-545427609D01*
X189957778Y-545487445D01*
X190192481Y-545584591D01*
X190508094Y-545719949D01*
X190906850Y-545883935D01*
X191313364Y-546045665D01*
X191398981Y-546078890D01*
X191718004Y-546206394D01*
X192149501Y-546385094D01*
X192651301Y-546597201D01*
X193181234Y-546824926D01*
X193583971Y-547000625D01*
X194048270Y-547202728D01*
X194461428Y-547378851D01*
X194797713Y-547518324D01*
X195031391Y-547610479D01*
X195136728Y-547644648D01*
X195137452Y-547644667D01*
X195164218Y-547585537D01*
X195071759Y-547409429D01*
X194861419Y-547118263D01*
X194534541Y-546713962D01*
X194265535Y-546397573D01*
X193982145Y-546057014D01*
X193732931Y-545735145D01*
X193534575Y-545456142D01*
X193403757Y-545244181D01*
X193357157Y-545123436D01*
X193373449Y-545104667D01*
X193455904Y-545139612D01*
X193666959Y-545236955D01*
X193982730Y-545385456D01*
X194379332Y-545573876D01*
X194832880Y-545790976D01*
X194878456Y-545812874D01*
X195389919Y-546057144D01*
X195897961Y-546297020D01*
X196363999Y-546514482D01*
X196749450Y-546691510D01*
X196986981Y-546797638D01*
X197368007Y-546969143D01*
X197817665Y-547179746D01*
X198254086Y-547390931D01*
X198362814Y-547444947D01*
X198675978Y-547596557D01*
X198923624Y-547706715D01*
X199073662Y-547761710D01*
X199103647Y-547761472D01*
X199051735Y-547683534D01*
X198906325Y-547495268D01*
X198682909Y-547215942D01*
X198396975Y-546864826D01*
X198064015Y-546461187D01*
X197894829Y-546257789D01*
X197383768Y-545644719D01*
X196971454Y-545149107D01*
X196648009Y-544758508D01*
X196403558Y-544460480D01*
X196228221Y-544242576D01*
X196112123Y-544092354D01*
X196045385Y-543997369D01*
X196018131Y-543945177D01*
X196020482Y-543923334D01*
X196038731Y-543919334D01*
X196149018Y-543939395D01*
X196388227Y-543994063D01*
X196721465Y-544075061D01*
X197113842Y-544174112D01*
X197126115Y-544177264D01*
X197550013Y-544283762D01*
X198022307Y-544398435D01*
X198515082Y-544514965D01*
X199000425Y-544627036D01*
X199450420Y-544728334D01*
X199837152Y-544812542D01*
X200132708Y-544873344D01*
X200309173Y-544904425D01*
X200346615Y-544905921D01*
X200294598Y-544848413D01*
X200140266Y-544711936D01*
X199913828Y-544522930D01*
X199845095Y-544467009D01*
X199520995Y-544195468D01*
X199251306Y-543951957D01*
X199058467Y-543758302D01*
X198964921Y-543636327D01*
X198962644Y-543608781D01*
X199047637Y-543626207D01*
G37*
G36*
X141978776Y-496634614D02*
G01*
X142187649Y-496758965D01*
X142502729Y-496952482D01*
X142905923Y-497203931D01*
X143379138Y-497502073D01*
X143904281Y-497835674D01*
X144093266Y-497956345D01*
X144707812Y-498349226D01*
X145344311Y-498756093D01*
X145969499Y-499155687D01*
X146550112Y-499526746D01*
X147052884Y-499848011D01*
X147427681Y-500087447D01*
X147903144Y-500395905D01*
X148465607Y-500768374D01*
X149064120Y-501170663D01*
X149647731Y-501568581D01*
X150052348Y-501848707D01*
X150616655Y-502240780D01*
X151259027Y-502683966D01*
X151920240Y-503137594D01*
X152541071Y-503560995D01*
X152897556Y-503802524D01*
X153321722Y-504092495D01*
X153687822Y-504349699D01*
X153976276Y-504559797D01*
X154167503Y-504708446D01*
X154241921Y-504781304D01*
X154240191Y-504785930D01*
X154125897Y-504783661D01*
X153890950Y-504754896D01*
X153580915Y-504705475D01*
X153498616Y-504690867D01*
X153231923Y-504642990D01*
X152829364Y-504571274D01*
X152321846Y-504481196D01*
X151740279Y-504378238D01*
X151115570Y-504267879D01*
X150589647Y-504175150D01*
X149976038Y-504065992D01*
X149401600Y-503961791D01*
X148892245Y-503867407D01*
X148473885Y-503787696D01*
X148172430Y-503727516D01*
X148019934Y-503693396D01*
X147806374Y-503646367D01*
X147674559Y-503635422D01*
X147660191Y-503640568D01*
X147705834Y-503700766D01*
X147858729Y-503821806D01*
X148028570Y-503939200D01*
X148143708Y-504016562D01*
X148260570Y-504099727D01*
X148391950Y-504199637D01*
X148550640Y-504327234D01*
X148749436Y-504493460D01*
X149001130Y-504709256D01*
X149318515Y-504985566D01*
X149714387Y-505333330D01*
X150201537Y-505763490D01*
X150792759Y-506286990D01*
X151315798Y-506750667D01*
X151809035Y-507187294D01*
X152301915Y-507622247D01*
X152767542Y-508031890D01*
X153179020Y-508392589D01*
X153509455Y-508680710D01*
X153676328Y-508825000D01*
X154240415Y-509311902D01*
X154676797Y-509693299D01*
X154984832Y-509968613D01*
X155163879Y-510137271D01*
X155213297Y-510198696D01*
X155203981Y-510196671D01*
X155089917Y-510156981D01*
X154854961Y-510081057D01*
X154540189Y-509982064D01*
X154366065Y-509928139D01*
X153996429Y-509805878D01*
X153522612Y-509636123D01*
X152963875Y-509426831D01*
X152339479Y-509185955D01*
X151668685Y-508921451D01*
X150970754Y-508641273D01*
X150264948Y-508353377D01*
X149570528Y-508065717D01*
X148906754Y-507786249D01*
X148292889Y-507522927D01*
X147748193Y-507283706D01*
X147291928Y-507076541D01*
X146943354Y-506909387D01*
X146721733Y-506790200D01*
X146656881Y-506744222D01*
X146541809Y-506670807D01*
X146516081Y-506666000D01*
X146561147Y-506723318D01*
X146714793Y-506887069D01*
X146964873Y-507144945D01*
X147299242Y-507484639D01*
X147705752Y-507893845D01*
X148172258Y-508360256D01*
X148686614Y-508871566D01*
X148960254Y-509142500D01*
X149650053Y-509824794D01*
X150228628Y-510397812D01*
X150705312Y-510871187D01*
X151089438Y-511254556D01*
X151390340Y-511557550D01*
X151617351Y-511789805D01*
X151779805Y-511960954D01*
X151887035Y-512080631D01*
X151948375Y-512158471D01*
X151973158Y-512204107D01*
X151970717Y-512227174D01*
X151956683Y-512235443D01*
X151861718Y-512214885D01*
X151627348Y-512145184D01*
X151274050Y-512032986D01*
X150822295Y-511884939D01*
X150292560Y-511707691D01*
X149705318Y-511507891D01*
X149523486Y-511445405D01*
X148782271Y-511189975D01*
X148188170Y-510985704D01*
X147727987Y-510829204D01*
X147388530Y-510717090D01*
X147156604Y-510645973D01*
X147019015Y-510612465D01*
X146962570Y-510613180D01*
X146974074Y-510644729D01*
X147040334Y-510703726D01*
X147148155Y-510786782D01*
X147245314Y-510860496D01*
X147489558Y-511056116D01*
X147810401Y-511325286D01*
X148159629Y-511627121D01*
X148388314Y-511829803D01*
X148765214Y-512164533D01*
X149180373Y-512527944D01*
X149569202Y-512863692D01*
X149742981Y-513011544D01*
X150044540Y-513272787D01*
X150404711Y-513595296D01*
X150803213Y-513959802D01*
X151219769Y-514347036D01*
X151634099Y-514737730D01*
X152025925Y-515112613D01*
X152374968Y-515452418D01*
X152660949Y-515737874D01*
X152863589Y-515949713D01*
X152962610Y-516068666D01*
X152965420Y-516073541D01*
X153009718Y-516178028D01*
X152985036Y-516217695D01*
X152872041Y-516187377D01*
X152651401Y-516081910D01*
X152306268Y-515897487D01*
X151553830Y-515457740D01*
X150832931Y-514970983D01*
X150100928Y-514406369D01*
X149319647Y-513737037D01*
X148760929Y-513240836D01*
X148273869Y-512814312D01*
X147819828Y-512424834D01*
X147360168Y-512039770D01*
X146856251Y-511626492D01*
X146269440Y-511152368D01*
X146059981Y-510984183D01*
X145633339Y-510640049D01*
X145198842Y-510286219D01*
X144797310Y-509956157D01*
X144469566Y-509683326D01*
X144359432Y-509590185D01*
X144069583Y-509346198D01*
X143691315Y-509032101D01*
X143268199Y-508683861D01*
X142843807Y-508337446D01*
X142729599Y-508244797D01*
X142377196Y-507955661D01*
X142076703Y-507702038D01*
X141850599Y-507503471D01*
X141721362Y-507379502D01*
X141699647Y-507349429D01*
X141771382Y-507364228D01*
X141970182Y-507443533D01*
X142271442Y-507576553D01*
X142650556Y-507752497D01*
X142990814Y-507915665D01*
X143521710Y-508168482D01*
X144110671Y-508440060D01*
X144738779Y-508722492D01*
X145387114Y-509007871D01*
X146036760Y-509288288D01*
X146668796Y-509555835D01*
X147264306Y-509802605D01*
X147804369Y-510020690D01*
X148270068Y-510202183D01*
X148642484Y-510339174D01*
X148902698Y-510423758D01*
X149031793Y-510448025D01*
X149040723Y-510444480D01*
X148993663Y-510375927D01*
X148835041Y-510203891D01*
X148577278Y-509940225D01*
X148232793Y-509596780D01*
X147814008Y-509185411D01*
X147333343Y-508717968D01*
X146803217Y-508206305D01*
X146236052Y-507662274D01*
X145644267Y-507097727D01*
X145040283Y-506524516D01*
X144436520Y-505954495D01*
X143845398Y-505399516D01*
X143279339Y-504871431D01*
X142750762Y-504382092D01*
X142272087Y-503943352D01*
X141855736Y-503567064D01*
X141550943Y-503297159D01*
X141257108Y-503030021D01*
X141063581Y-502831311D01*
X140982390Y-502714339D01*
X141000610Y-502688205D01*
X141062155Y-502697977D01*
X141156080Y-502731160D01*
X141295783Y-502795102D01*
X141494662Y-502897149D01*
X141766114Y-503044649D01*
X142123537Y-503244950D01*
X142580329Y-503505397D01*
X143149887Y-503833340D01*
X143845609Y-504236125D01*
X144230347Y-504459390D01*
X145149302Y-504980521D01*
X146114558Y-505505381D01*
X147089216Y-506015088D01*
X148036376Y-506490759D01*
X148919136Y-506913513D01*
X149700598Y-507264466D01*
X149770339Y-507294285D01*
X150161749Y-507462008D01*
X150521441Y-507618358D01*
X150805794Y-507744246D01*
X150955673Y-507813037D01*
X151042214Y-507839159D01*
X151020008Y-507779229D01*
X150883045Y-507625637D01*
X150625313Y-507370775D01*
X150547314Y-507296072D01*
X150307866Y-507070306D01*
X150059871Y-506842616D01*
X149785995Y-506598049D01*
X149468906Y-506321654D01*
X149091269Y-505998480D01*
X148635753Y-505613577D01*
X148085024Y-505151993D01*
X147421750Y-504598778D01*
X147379676Y-504563743D01*
X146956815Y-504208913D01*
X146469023Y-503795305D01*
X145978564Y-503375922D01*
X145572502Y-503025334D01*
X145203077Y-502705378D01*
X144843365Y-502395761D01*
X144529988Y-502127880D01*
X144299569Y-501933133D01*
X144263983Y-501903500D01*
X144070752Y-501735946D01*
X143955046Y-501620891D01*
X143939573Y-501586000D01*
X144039045Y-501607672D01*
X144268394Y-501666848D01*
X144594608Y-501754767D01*
X144984675Y-501862670D01*
X145029063Y-501875103D01*
X145630552Y-502040670D01*
X146236099Y-502201746D01*
X146822296Y-502352648D01*
X147365735Y-502487693D01*
X147843008Y-502601202D01*
X148230707Y-502687492D01*
X148505425Y-502740881D01*
X148643753Y-502755687D01*
X148651144Y-502754279D01*
X148648572Y-502693332D01*
X148531694Y-502576129D01*
X148449364Y-502514086D01*
X148308526Y-502403336D01*
X148061493Y-502196333D01*
X147727944Y-501910098D01*
X147327554Y-501561650D01*
X146879999Y-501168010D01*
X146404956Y-500746196D01*
X146386457Y-500729689D01*
X145875019Y-500274661D01*
X145358091Y-499817322D01*
X144862890Y-499381565D01*
X144416630Y-498991280D01*
X144046527Y-498670359D01*
X143816314Y-498473482D01*
X143489456Y-498189794D01*
X143146398Y-497879711D01*
X142807668Y-497563342D01*
X142493791Y-497260791D01*
X142225294Y-496992168D01*
X142022703Y-496777577D01*
X141906545Y-496637126D01*
X141894204Y-496590667D01*
X141978776Y-496634614D01*
G37*
G36*
X221176505Y-488941050D02*
G01*
X221137157Y-488991093D01*
X221045238Y-489081428D01*
X220886390Y-489224917D01*
X220646251Y-489434422D01*
X220310465Y-489722806D01*
X219864671Y-490102930D01*
X219677647Y-490262024D01*
X219281162Y-490590372D01*
X218784142Y-490988554D01*
X218221624Y-491429685D01*
X217628645Y-491886883D01*
X217040242Y-492333261D01*
X216491451Y-492741936D01*
X216017311Y-493086024D01*
X215782981Y-493250465D01*
X215481407Y-493461526D01*
X215080332Y-493747138D01*
X214616290Y-494081018D01*
X214125820Y-494436882D01*
X213666314Y-494773111D01*
X212930470Y-495310848D01*
X212311891Y-495755268D01*
X211794429Y-496117340D01*
X211361938Y-496408033D01*
X210998271Y-496638315D01*
X210687282Y-496819154D01*
X210533647Y-496901099D01*
X210067981Y-497141000D01*
X211253314Y-497192477D01*
X211809840Y-497212160D01*
X212425222Y-497226703D01*
X213020980Y-497234614D01*
X213477396Y-497234810D01*
X213901525Y-497230770D01*
X214189327Y-497235845D01*
X214339590Y-497262840D01*
X214351100Y-497324561D01*
X214222643Y-497433813D01*
X213953007Y-497603401D01*
X213540978Y-497846129D01*
X213412314Y-497921660D01*
X212773607Y-498302943D01*
X212088302Y-498722336D01*
X211371530Y-499169755D01*
X210638423Y-499635113D01*
X209904112Y-500108326D01*
X209183729Y-500579307D01*
X208492406Y-501037971D01*
X207845274Y-501474232D01*
X207257466Y-501878005D01*
X206744113Y-502239204D01*
X206320346Y-502547743D01*
X206001297Y-502793537D01*
X205802098Y-502966500D01*
X205746361Y-503031191D01*
X205784060Y-503109957D01*
X205939381Y-503209411D01*
X206019054Y-503245122D01*
X206285054Y-503359240D01*
X206623093Y-503512911D01*
X207003130Y-503691429D01*
X207395124Y-503880087D01*
X207769037Y-504064178D01*
X208094827Y-504228995D01*
X208342454Y-504359834D01*
X208481879Y-504441986D01*
X208501647Y-504460507D01*
X208429092Y-504513489D01*
X208231654Y-504618779D01*
X207939678Y-504761017D01*
X207591481Y-504921264D01*
X207305024Y-505054270D01*
X206906347Y-505245745D01*
X206417713Y-505484468D01*
X205861386Y-505759221D01*
X205259629Y-506058783D01*
X204634707Y-506371934D01*
X204008882Y-506687453D01*
X203404418Y-506994122D01*
X202843579Y-507280720D01*
X202348629Y-507536026D01*
X201941831Y-507748822D01*
X201645448Y-507907886D01*
X201495090Y-507993617D01*
X201219532Y-508163231D01*
X202342753Y-508472949D01*
X202764690Y-508586547D01*
X203136066Y-508681424D01*
X203422352Y-508749126D01*
X203589019Y-508781204D01*
X203608147Y-508782667D01*
X203767968Y-508829881D01*
X203803020Y-508944251D01*
X203775894Y-508998376D01*
X203678631Y-509100533D01*
X203476663Y-509290324D01*
X203194586Y-509546048D01*
X202856999Y-509846002D01*
X202488499Y-510168487D01*
X202113685Y-510491799D01*
X201757154Y-510794237D01*
X201474314Y-511028951D01*
X201149774Y-511301713D01*
X200745667Y-511652334D01*
X200305560Y-512042432D01*
X199873017Y-512433623D01*
X199714163Y-512579694D01*
X198673678Y-513541786D01*
X198529683Y-513173060D01*
X198415898Y-512899573D01*
X198262954Y-512554513D01*
X198123475Y-512254000D01*
X197861262Y-511703667D01*
X197750079Y-512042334D01*
X197672041Y-512249231D01*
X197540049Y-512567247D01*
X197372077Y-512954200D01*
X197186101Y-513367912D01*
X197172773Y-513397000D01*
X196991941Y-513800431D01*
X196833990Y-514170040D01*
X196714784Y-514467503D01*
X196650191Y-514654494D01*
X196647024Y-514667000D01*
X196593662Y-514820562D01*
X196545670Y-514807189D01*
X196540250Y-514794000D01*
X196494915Y-514654921D01*
X196418108Y-514403188D01*
X196325071Y-514088910D01*
X196308485Y-514032000D01*
X196200486Y-513681496D01*
X196064737Y-513271960D01*
X195912519Y-512833946D01*
X195755112Y-512398008D01*
X195603797Y-511994700D01*
X195469855Y-511654575D01*
X195364568Y-511408188D01*
X195299216Y-511286092D01*
X195292193Y-511279435D01*
X195240414Y-511337596D01*
X195150663Y-511527469D01*
X195035658Y-511819201D01*
X194910974Y-512174355D01*
X194740107Y-512642677D01*
X194569127Y-513031689D01*
X194409303Y-513321475D01*
X194271907Y-513492118D01*
X194168209Y-513523703D01*
X194153604Y-513512699D01*
X194146234Y-513413354D01*
X194165032Y-513180989D01*
X194206343Y-512849271D01*
X194266515Y-512451865D01*
X194273060Y-512412032D01*
X194343436Y-511927114D01*
X194400125Y-511423169D01*
X194436536Y-510966126D01*
X194446640Y-510675543D01*
X194434813Y-510270878D01*
X194401447Y-509738508D01*
X194389342Y-509591997D01*
X194785647Y-509591997D01*
X194815267Y-509748705D01*
X194870314Y-509798667D01*
X194929316Y-509724982D01*
X194954947Y-509546963D01*
X194954981Y-509539670D01*
X194932050Y-509370413D01*
X194873219Y-509331330D01*
X194870314Y-509333000D01*
X194804775Y-509449707D01*
X194785647Y-509591997D01*
X194389342Y-509591997D01*
X194350196Y-509118175D01*
X194284717Y-508449623D01*
X194208665Y-507772595D01*
X194125696Y-507126833D01*
X194109772Y-507013207D01*
X194070717Y-506708265D01*
X194049131Y-506476324D01*
X194048907Y-506361021D01*
X194051146Y-506356279D01*
X194107555Y-506403470D01*
X194213969Y-506585519D01*
X194360356Y-506878948D01*
X194536685Y-507260281D01*
X194732925Y-507706043D01*
X194939043Y-508192756D01*
X195145008Y-508696946D01*
X195340788Y-509195134D01*
X195516352Y-509663847D01*
X195661668Y-510079606D01*
X195721099Y-510264334D01*
X195811637Y-510535256D01*
X195935158Y-510875978D01*
X196077176Y-511249912D01*
X196223203Y-511620470D01*
X196358753Y-511951066D01*
X196469341Y-512205112D01*
X196540480Y-512346023D01*
X196550698Y-512359584D01*
X196582398Y-512371220D01*
X196623424Y-512335230D01*
X196681480Y-512234078D01*
X196764266Y-512050229D01*
X196879484Y-511766147D01*
X197034837Y-511364297D01*
X197238026Y-510827143D01*
X197322217Y-510603000D01*
X197464324Y-510224315D01*
X197587388Y-509896516D01*
X197677572Y-509656453D01*
X197719641Y-509544667D01*
X197770746Y-509537842D01*
X197852332Y-509680970D01*
X197923513Y-509865183D01*
X198029461Y-510135115D01*
X198181489Y-510479563D01*
X198360697Y-510860343D01*
X198548182Y-511239272D01*
X198725046Y-511578166D01*
X198872388Y-511838839D01*
X198971307Y-511983109D01*
X198972457Y-511984331D01*
X199026350Y-512000564D01*
X199120194Y-511960822D01*
X199267456Y-511853568D01*
X199481602Y-511667264D01*
X199776098Y-511390375D01*
X200164411Y-511011363D01*
X200519609Y-510658832D01*
X201960862Y-509222001D01*
X201611755Y-509130261D01*
X201395957Y-509075843D01*
X201059658Y-508993720D01*
X200647267Y-508894632D01*
X200203196Y-508789321D01*
X200161981Y-508779620D01*
X199646353Y-508657944D01*
X199274236Y-508568052D01*
X199024265Y-508503122D01*
X198875076Y-508456331D01*
X198805306Y-508420857D01*
X198793591Y-508389880D01*
X198818566Y-508356576D01*
X198823046Y-508352068D01*
X198917478Y-508294774D01*
X199145376Y-508172118D01*
X199488206Y-507993377D01*
X199927435Y-507767826D01*
X200444532Y-507504739D01*
X201020963Y-507213392D01*
X201638195Y-506903059D01*
X202277697Y-506583017D01*
X202920934Y-506262539D01*
X203549375Y-505950902D01*
X204144487Y-505657380D01*
X204687738Y-505391248D01*
X205160594Y-505161782D01*
X205544523Y-504978256D01*
X205817719Y-504851422D01*
X206732124Y-504438789D01*
X205660679Y-504029816D01*
X205234878Y-503862074D01*
X204840431Y-503697270D01*
X204518102Y-503553057D01*
X204308653Y-503447090D01*
X204291647Y-503436924D01*
X203994061Y-503253006D01*
X204194687Y-503095866D01*
X204333858Y-502996848D01*
X204586116Y-502826819D01*
X204921602Y-502605548D01*
X205310461Y-502352804D01*
X205538314Y-502206229D01*
X206343064Y-501684384D01*
X207209626Y-501111667D01*
X208097361Y-500515588D01*
X208965627Y-499923657D01*
X209773788Y-499363382D01*
X210481201Y-498862273D01*
X210526706Y-498829540D01*
X211578099Y-498072334D01*
X209059274Y-498030000D01*
X206540450Y-497987667D01*
X206737882Y-497809869D01*
X206948668Y-497637724D01*
X207242362Y-497429120D01*
X207636315Y-497172693D01*
X208147878Y-496857080D01*
X208670981Y-496543957D01*
X209121405Y-496272129D01*
X209650302Y-495945458D01*
X210195181Y-495602929D01*
X210693554Y-495283525D01*
X210745314Y-495249873D01*
X211246929Y-494926243D01*
X211813965Y-494565325D01*
X212379064Y-494209729D01*
X212874870Y-493902070D01*
X212904314Y-493883998D01*
X213324513Y-493626317D01*
X213843245Y-493308205D01*
X214414693Y-492957760D01*
X214993041Y-492603078D01*
X215486647Y-492300361D01*
X216078281Y-491936210D01*
X216748357Y-491521629D01*
X217436955Y-491093825D01*
X218084157Y-490690001D01*
X218492314Y-490434077D01*
X219132612Y-490036143D01*
X219710547Y-489686175D01*
X220212261Y-489391995D01*
X220623898Y-489161422D01*
X220931599Y-489002279D01*
X221121509Y-488922387D01*
X221177641Y-488918438D01*
X221176505Y-488941050D01*
G37*
G36*
X141372853Y-471683276D02*
G01*
X141666217Y-471882006D01*
X142048031Y-472147949D01*
X142494588Y-472464179D01*
X142982181Y-472813768D01*
X143487103Y-473179791D01*
X143985646Y-473545321D01*
X144454104Y-473893430D01*
X144578314Y-473986726D01*
X145449557Y-474639328D01*
X146281970Y-475255856D01*
X147065697Y-475829418D01*
X147790883Y-476353121D01*
X148447673Y-476820072D01*
X149026212Y-477223379D01*
X149516645Y-477556148D01*
X149909117Y-477811488D01*
X150193773Y-477982505D01*
X150360759Y-478062307D01*
X150402384Y-478060122D01*
X150378930Y-477926662D01*
X150271752Y-477673142D01*
X150092424Y-477319476D01*
X149852515Y-476885577D01*
X149563599Y-476391359D01*
X149237247Y-475856737D01*
X148885031Y-475301624D01*
X148518521Y-474745934D01*
X148240621Y-474339907D01*
X148025920Y-474024509D01*
X147857095Y-473762726D01*
X147752194Y-473583512D01*
X147727478Y-473516614D01*
X147803369Y-473552384D01*
X147986208Y-473675326D01*
X148250380Y-473867251D01*
X148570269Y-474109972D01*
X148647162Y-474169614D01*
X149013174Y-474454413D01*
X149363832Y-474726853D01*
X149660308Y-474956794D01*
X149863773Y-475114092D01*
X149869981Y-475118872D01*
X150108798Y-475307867D01*
X150411281Y-475554220D01*
X150712539Y-475805073D01*
X150716647Y-475808541D01*
X151055479Y-476087648D01*
X151443496Y-476397003D01*
X151774981Y-476653054D01*
X152790424Y-477433781D01*
X153868063Y-478287492D01*
X154964011Y-479178237D01*
X156034384Y-480070070D01*
X157035296Y-480927043D01*
X157613234Y-481435334D01*
X157960364Y-481744170D01*
X158298814Y-482044855D01*
X158588594Y-482301886D01*
X158781480Y-482472500D01*
X158970140Y-482643349D01*
X159087748Y-482758609D01*
X159109536Y-482790000D01*
X159017865Y-482764302D01*
X158822175Y-482699200D01*
X158707125Y-482659092D01*
X158476750Y-482586215D01*
X158130371Y-482486979D01*
X157716551Y-482374916D01*
X157320647Y-482272782D01*
X156859112Y-482154271D01*
X156392782Y-482030300D01*
X155981738Y-481917062D01*
X155728649Y-481843744D01*
X155441085Y-481762853D01*
X155223808Y-481712616D01*
X155120500Y-481703007D01*
X155118389Y-481704370D01*
X155148280Y-481783246D01*
X155259353Y-481957892D01*
X155427892Y-482191147D01*
X155435225Y-482200816D01*
X155603314Y-482427827D01*
X155842985Y-482759197D01*
X156129338Y-483160125D01*
X156437473Y-483595811D01*
X156644292Y-483890667D01*
X156996884Y-484392624D01*
X157386339Y-484942837D01*
X157773550Y-485486309D01*
X158119410Y-485968044D01*
X158239738Y-486134334D01*
X158787497Y-486896182D01*
X159262940Y-487572284D01*
X159661569Y-488155613D01*
X159978886Y-488639146D01*
X160210395Y-489015857D01*
X160351597Y-489278720D01*
X160397997Y-489420711D01*
X160355719Y-489439652D01*
X160085091Y-489337649D01*
X159719410Y-489210628D01*
X159290926Y-489068610D01*
X158831892Y-488921618D01*
X158374559Y-488779675D01*
X157951176Y-488652804D01*
X157593996Y-488551026D01*
X157335269Y-488484365D01*
X157211927Y-488462667D01*
X157215873Y-488517069D01*
X157315370Y-488656843D01*
X157423293Y-488780167D01*
X157648930Y-489033563D01*
X157915874Y-489349679D01*
X158206593Y-489705790D01*
X158503552Y-490079173D01*
X158789220Y-490447102D01*
X159046062Y-490786853D01*
X159256546Y-491075702D01*
X159403138Y-491290925D01*
X159468306Y-491409796D01*
X159464687Y-491426000D01*
X159389652Y-491376791D01*
X159215833Y-491245742D01*
X158975929Y-491057718D01*
X158885755Y-490985741D01*
X158309381Y-490510250D01*
X157680948Y-489965208D01*
X156983923Y-489335755D01*
X156201771Y-488607025D01*
X155553305Y-487990182D01*
X154209296Y-486702357D01*
X155468638Y-487021278D01*
X155979588Y-487153793D01*
X156500134Y-487294170D01*
X156976795Y-487427650D01*
X157356089Y-487539474D01*
X157430851Y-487562766D01*
X157842843Y-487690256D01*
X158115114Y-487762374D01*
X158268386Y-487777893D01*
X158323380Y-487735590D01*
X158300817Y-487634238D01*
X158243390Y-487514721D01*
X158103658Y-487273698D01*
X157879630Y-486922468D01*
X157588672Y-486486248D01*
X157248148Y-485990254D01*
X156875424Y-485459702D01*
X156487863Y-484919807D01*
X156102830Y-484395786D01*
X156010091Y-484271667D01*
X155343274Y-483364513D01*
X154788148Y-482569608D01*
X154338528Y-481877633D01*
X153988229Y-481279268D01*
X153852979Y-481021432D01*
X153704057Y-480714161D01*
X153632004Y-480532643D01*
X153630650Y-480455056D01*
X153693824Y-480459576D01*
X153694173Y-480459720D01*
X153825288Y-480506421D01*
X154086489Y-480593870D01*
X154446409Y-480711758D01*
X154873681Y-480849776D01*
X155150565Y-480938357D01*
X155596637Y-481082067D01*
X155987704Y-481210930D01*
X156294414Y-481315044D01*
X156487411Y-481384512D01*
X156537382Y-481406021D01*
X156592750Y-481393271D01*
X156585723Y-481341285D01*
X156509654Y-481252783D01*
X156318069Y-481077245D01*
X156027235Y-480827458D01*
X155653418Y-480516214D01*
X155212884Y-480156300D01*
X154721902Y-479760506D01*
X154196738Y-479341621D01*
X153653659Y-478912434D01*
X153108931Y-478485734D01*
X152578821Y-478074311D01*
X152079597Y-477690953D01*
X151627525Y-477348450D01*
X151238872Y-477059590D01*
X150929905Y-476837164D01*
X150716891Y-476693959D01*
X150616097Y-476642765D01*
X150611284Y-476644141D01*
X150629793Y-476730087D01*
X150709843Y-476923735D01*
X150832664Y-477180243D01*
X150980225Y-477491341D01*
X151157350Y-477892399D01*
X151334101Y-478314844D01*
X151400165Y-478479977D01*
X151558512Y-478873366D01*
X151718988Y-479257112D01*
X151856266Y-479571197D01*
X151905961Y-479678500D01*
X152013339Y-479936086D01*
X152025198Y-480063293D01*
X151992517Y-480080667D01*
X151890471Y-480046945D01*
X151687168Y-479942690D01*
X151374784Y-479763267D01*
X150945496Y-479504044D01*
X150391480Y-479160385D01*
X149704912Y-478727658D01*
X149658314Y-478698115D01*
X149312624Y-478482586D01*
X149016689Y-478305004D01*
X148800636Y-478182964D01*
X148694590Y-478134060D01*
X148692107Y-478133831D01*
X148711344Y-478186086D01*
X148831487Y-478325134D01*
X149028343Y-478523646D01*
X149085091Y-478577834D01*
X149286944Y-478777896D01*
X149576102Y-479077028D01*
X149926961Y-479448102D01*
X150313913Y-479863994D01*
X150711353Y-480297578D01*
X150783473Y-480377000D01*
X151242523Y-480873762D01*
X151779805Y-481439351D01*
X152371105Y-482049546D01*
X152992208Y-482680126D01*
X153618897Y-483306868D01*
X154226958Y-483905551D01*
X154792174Y-484451953D01*
X155290332Y-484921853D01*
X155688805Y-485283622D01*
X155936281Y-485508608D01*
X156121082Y-485689863D01*
X156216614Y-485800637D01*
X156222937Y-485820932D01*
X156138627Y-485798534D01*
X155951177Y-485705958D01*
X155700828Y-485563116D01*
X155695779Y-485560078D01*
X155377631Y-485377045D01*
X154983005Y-485162084D01*
X154588088Y-484956525D01*
X154519898Y-484922236D01*
X154140228Y-484727499D01*
X153752698Y-484520378D01*
X153429837Y-484339797D01*
X153376898Y-484308806D01*
X153029780Y-484108600D01*
X152625543Y-483884039D01*
X152189855Y-483648394D01*
X151748379Y-483414937D01*
X151326782Y-483196938D01*
X150950729Y-483007668D01*
X150645885Y-482860397D01*
X150437916Y-482768397D01*
X150352488Y-482744938D01*
X150352463Y-482744962D01*
X150375387Y-482829056D01*
X150488558Y-482986066D01*
X150559381Y-483066435D01*
X150752116Y-483286857D01*
X150989858Y-483578335D01*
X151254783Y-483916638D01*
X151529062Y-484277536D01*
X151794871Y-484636797D01*
X152034382Y-484970190D01*
X152229770Y-485253483D01*
X152363207Y-485462447D01*
X152416868Y-485572849D01*
X152411501Y-485584000D01*
X152272821Y-485525620D01*
X152026144Y-485356718D01*
X151683066Y-485086648D01*
X151255184Y-484724768D01*
X150754095Y-484280432D01*
X150438323Y-483992156D01*
X150023219Y-483611784D01*
X149607065Y-483234373D01*
X149223030Y-482889729D01*
X148904281Y-482607657D01*
X148724225Y-482451872D01*
X148292485Y-482082128D01*
X147820067Y-481672377D01*
X147326516Y-481240075D01*
X146831375Y-480802678D01*
X146354189Y-480377642D01*
X145914503Y-479982424D01*
X145531859Y-479634480D01*
X145225803Y-479351264D01*
X145015878Y-479150235D01*
X144941326Y-479073132D01*
X144778328Y-478874001D01*
X144685265Y-478728977D01*
X144671342Y-478661398D01*
X144745767Y-478694600D01*
X144814828Y-478752509D01*
X144955439Y-478847028D01*
X145208148Y-478987819D01*
X145530525Y-479151918D01*
X145724995Y-479245118D01*
X146105130Y-479430542D01*
X146571492Y-479669030D01*
X147063574Y-479929131D01*
X147499314Y-480167349D01*
X148073627Y-480483934D01*
X148657585Y-480798710D01*
X149231178Y-481101566D01*
X149774397Y-481382392D01*
X150267230Y-481631076D01*
X150689670Y-481837507D01*
X151021704Y-481991575D01*
X151243325Y-482083167D01*
X151331699Y-482103877D01*
X151313246Y-482032890D01*
X151188549Y-481856941D01*
X150971161Y-481590741D01*
X150674635Y-481249002D01*
X150312526Y-480846436D01*
X149898388Y-480397754D01*
X149445775Y-479917669D01*
X148968241Y-479420891D01*
X148479339Y-478922133D01*
X147992624Y-478436106D01*
X147595619Y-478048667D01*
X146729635Y-477211178D01*
X145899419Y-476403397D01*
X145112203Y-475632639D01*
X144375218Y-474906223D01*
X143695696Y-474231465D01*
X143080868Y-473615683D01*
X142537966Y-473066194D01*
X142074220Y-472590316D01*
X141696864Y-472195365D01*
X141413127Y-471888660D01*
X141230241Y-471677517D01*
X141155439Y-471569253D01*
X141191647Y-471568686D01*
X141372853Y-471683276D01*
G37*
G36*
X141853464Y-479724027D02*
G01*
X142049079Y-479848245D01*
X142362843Y-480071605D01*
X142799988Y-480397551D01*
X143024588Y-480568116D01*
X143470804Y-480907642D01*
X144019337Y-481323839D01*
X144637110Y-481791680D01*
X145291045Y-482286138D01*
X145948067Y-482782187D01*
X146575096Y-483254800D01*
X146652647Y-483313187D01*
X147214982Y-483736656D01*
X147759668Y-484147129D01*
X148265077Y-484528286D01*
X148709581Y-484863805D01*
X149071551Y-485137365D01*
X149329359Y-485332645D01*
X149404314Y-485389633D01*
X149623461Y-485555662D01*
X149953089Y-485804143D01*
X150368034Y-486116165D01*
X150843132Y-486472821D01*
X151353216Y-486855203D01*
X151789734Y-487182016D01*
X152349164Y-487605398D01*
X152928879Y-488052640D01*
X153494969Y-488496980D01*
X154013527Y-488911655D01*
X154450645Y-489269901D01*
X154668400Y-489454103D01*
X155065901Y-489794206D01*
X155553677Y-490207898D01*
X156091303Y-490661110D01*
X156638354Y-491119770D01*
X157154402Y-491549807D01*
X157193647Y-491582378D01*
X157796321Y-492084617D01*
X158367520Y-492564911D01*
X158893884Y-493011688D01*
X159362051Y-493413375D01*
X159758659Y-493758401D01*
X160070347Y-494035194D01*
X160283753Y-494232182D01*
X160385516Y-494337794D01*
X160391769Y-494352100D01*
X160307608Y-494336221D01*
X160077947Y-494280843D01*
X159720765Y-494190609D01*
X159254040Y-494070166D01*
X158695751Y-493924157D01*
X158063876Y-493757227D01*
X157376394Y-493574021D01*
X157278154Y-493547718D01*
X156582313Y-493363456D01*
X155937446Y-493196820D01*
X155361883Y-493052232D01*
X154873953Y-492934118D01*
X154491986Y-492846901D01*
X154234311Y-492795006D01*
X154119257Y-492782857D01*
X154115749Y-492784412D01*
X154151002Y-492861595D01*
X154286784Y-493046959D01*
X154509285Y-493323779D01*
X154804699Y-493675331D01*
X155159218Y-494084890D01*
X155559035Y-494535732D01*
X155591261Y-494571632D01*
X156144174Y-495184941D01*
X156650224Y-495741096D01*
X157134794Y-496267178D01*
X157623269Y-496790269D01*
X158141033Y-497337450D01*
X158713471Y-497935802D01*
X159365966Y-498612408D01*
X159765811Y-499025285D01*
X160063207Y-499336809D01*
X160309413Y-499603890D01*
X160484434Y-499804108D01*
X160568275Y-499915040D01*
X160571928Y-499929275D01*
X160482065Y-499921566D01*
X160256532Y-499877724D01*
X159923427Y-499804660D01*
X159510853Y-499709284D01*
X159046910Y-499598506D01*
X158559698Y-499479235D01*
X158077317Y-499358383D01*
X157627869Y-499242858D01*
X157239454Y-499139572D01*
X156940172Y-499055434D01*
X156758124Y-498997354D01*
X156725075Y-498983314D01*
X156587797Y-498927336D01*
X156322052Y-498832650D01*
X155961125Y-498710644D01*
X155538301Y-498572708D01*
X155344492Y-498510936D01*
X154860974Y-498361710D01*
X154523861Y-498267166D01*
X154320295Y-498224465D01*
X154237417Y-498230765D01*
X154249118Y-498268874D01*
X154342091Y-498376555D01*
X154526725Y-498587584D01*
X154782433Y-498878531D01*
X155088623Y-499225962D01*
X155378606Y-499554305D01*
X156014340Y-500276273D01*
X156595580Y-500941988D01*
X157113117Y-501540633D01*
X157557745Y-502061391D01*
X157920257Y-502493446D01*
X158191444Y-502825980D01*
X158362101Y-503048176D01*
X158401106Y-503105238D01*
X158503254Y-503276070D01*
X158513560Y-503347867D01*
X158433234Y-503363066D01*
X158408462Y-503363061D01*
X158246914Y-503313023D01*
X158030768Y-503188851D01*
X157955647Y-503134620D01*
X157743960Y-502960001D01*
X157447496Y-502697799D01*
X157077889Y-502359502D01*
X156646776Y-501956601D01*
X156165791Y-501500585D01*
X155646568Y-501002944D01*
X155100744Y-500475168D01*
X154539953Y-499928745D01*
X153975830Y-499375166D01*
X153420011Y-498825921D01*
X152884130Y-498292498D01*
X152379822Y-497786388D01*
X151918723Y-497319080D01*
X151512468Y-496902064D01*
X151172691Y-496546829D01*
X150911027Y-496264865D01*
X150739113Y-496067662D01*
X150668582Y-495966710D01*
X150693496Y-495963244D01*
X150796311Y-496011283D01*
X150961188Y-496078359D01*
X151199561Y-496168490D01*
X151522865Y-496285694D01*
X151942535Y-496433986D01*
X152470006Y-496617385D01*
X153116711Y-496839908D01*
X153894086Y-497105571D01*
X154813565Y-497418393D01*
X155457981Y-497637094D01*
X156176249Y-497879891D01*
X156750174Y-498071646D01*
X157195363Y-498216893D01*
X157527427Y-498320167D01*
X157761975Y-498386001D01*
X157914616Y-498418929D01*
X158000960Y-498423484D01*
X158036616Y-498404201D01*
X158040314Y-498387141D01*
X157982942Y-498293300D01*
X157817795Y-498089491D01*
X157555326Y-497786971D01*
X157205987Y-497396999D01*
X156780231Y-496930832D01*
X156288511Y-496399729D01*
X155741279Y-495814949D01*
X155148989Y-495187749D01*
X154522092Y-494529387D01*
X153871041Y-493851122D01*
X153206290Y-493164212D01*
X152880222Y-492829412D01*
X152378858Y-492310247D01*
X152000084Y-491905609D01*
X151742867Y-491614308D01*
X151606169Y-491435156D01*
X151588956Y-491366962D01*
X151608153Y-491368282D01*
X151786412Y-491408664D01*
X152078031Y-491466789D01*
X152429415Y-491532112D01*
X152548463Y-491553294D01*
X152843267Y-491611596D01*
X153267755Y-491704361D01*
X153787673Y-491823654D01*
X154368766Y-491961538D01*
X154976779Y-492110080D01*
X155292316Y-492188925D01*
X155850269Y-492329106D01*
X156352032Y-492454429D01*
X156774833Y-492559267D01*
X157095898Y-492637992D01*
X157292454Y-492684976D01*
X157344367Y-492696000D01*
X157351256Y-492656899D01*
X157243509Y-492536712D01*
X157016233Y-492331113D01*
X156664537Y-492035774D01*
X156183530Y-491646369D01*
X155923647Y-491439344D01*
X155467341Y-491075360D01*
X154995900Y-490696010D01*
X154549882Y-490334152D01*
X154169846Y-490022643D01*
X153976314Y-489861800D01*
X153585594Y-489539328D01*
X153126467Y-489168932D01*
X152613699Y-488761797D01*
X152062053Y-488329105D01*
X151486294Y-487882038D01*
X150901188Y-487431781D01*
X150321500Y-486989516D01*
X149761993Y-486566426D01*
X149237434Y-486173694D01*
X148762587Y-485822504D01*
X148352216Y-485524038D01*
X148021087Y-485289480D01*
X147783965Y-485130012D01*
X147655614Y-485056818D01*
X147637467Y-485060689D01*
X147710968Y-485165492D01*
X147887437Y-485374776D01*
X148151359Y-485672041D01*
X148487221Y-486040790D01*
X148879508Y-486464523D01*
X149312707Y-486926742D01*
X149771305Y-487410948D01*
X150239786Y-487900642D01*
X150702638Y-488379325D01*
X151144346Y-488830499D01*
X151549397Y-489237665D01*
X151769697Y-489455268D01*
X153171981Y-490828870D01*
X152028981Y-490463151D01*
X151013979Y-490137853D01*
X150147889Y-489859019D01*
X149418055Y-489622425D01*
X148811819Y-489423849D01*
X148316525Y-489259066D01*
X147919516Y-489123853D01*
X147608134Y-489013987D01*
X147369724Y-488925244D01*
X147191629Y-488853401D01*
X147147508Y-488834265D01*
X146895181Y-488728389D01*
X146713394Y-488662866D01*
X146647435Y-488651324D01*
X146698454Y-488714517D01*
X146855942Y-488877751D01*
X147103383Y-489124666D01*
X147424263Y-489438904D01*
X147802067Y-489804104D01*
X148076126Y-490066584D01*
X148600088Y-490567857D01*
X149187787Y-491132145D01*
X149793016Y-491714953D01*
X150369572Y-492271786D01*
X150871250Y-492758150D01*
X150887732Y-492774173D01*
X151359922Y-493232543D01*
X151864086Y-493720695D01*
X152362352Y-494202043D01*
X152816851Y-494640005D01*
X153189710Y-494997998D01*
X153204130Y-495011802D01*
X153577325Y-495371424D01*
X153823702Y-495621918D01*
X153939359Y-495770625D01*
X153920397Y-495824886D01*
X153762914Y-495792042D01*
X153463010Y-495679433D01*
X153016785Y-495494402D01*
X152960314Y-495470663D01*
X152572642Y-495301249D01*
X152059460Y-495067370D01*
X151446173Y-494781365D01*
X150758182Y-494455572D01*
X150020892Y-494102332D01*
X149259706Y-493733983D01*
X148500028Y-493362866D01*
X147767261Y-493001318D01*
X147086808Y-492661680D01*
X146484073Y-492356291D01*
X145984459Y-492097491D01*
X145678981Y-491933873D01*
X145043981Y-491585704D01*
X146039830Y-492577280D01*
X146368302Y-492908376D01*
X146646824Y-493196864D01*
X146856382Y-493422414D01*
X146977965Y-493564692D01*
X147000198Y-493604338D01*
X146884272Y-493602012D01*
X146653426Y-493484039D01*
X146312579Y-493254408D01*
X145866648Y-492917107D01*
X145320552Y-492476126D01*
X144679207Y-491935454D01*
X143947534Y-491299079D01*
X143130449Y-490570989D01*
X142232870Y-489755175D01*
X142070039Y-489605667D01*
X141718622Y-489284282D01*
X141388117Y-488985160D01*
X141109623Y-488736232D01*
X140914243Y-488565429D01*
X140874111Y-488531633D01*
X140704491Y-488384342D01*
X140607666Y-488286470D01*
X140598981Y-488271015D01*
X140669757Y-488283047D01*
X140869616Y-488368104D01*
X141179858Y-488516547D01*
X141581779Y-488718739D01*
X142056678Y-488965041D01*
X142585852Y-489245816D01*
X143150599Y-489551427D01*
X143732217Y-489872234D01*
X144033357Y-490040870D01*
X144623888Y-490369508D01*
X145251285Y-490711801D01*
X145898028Y-491058808D01*
X146546594Y-491401588D01*
X147179462Y-491731200D01*
X147779110Y-492038703D01*
X148328017Y-492315157D01*
X148808660Y-492551621D01*
X149203518Y-492739154D01*
X149495070Y-492868816D01*
X149665793Y-492931664D01*
X149702750Y-492933786D01*
X149655316Y-492865207D01*
X149498130Y-492689230D01*
X149242196Y-492417166D01*
X148898519Y-492060325D01*
X148478103Y-491630017D01*
X147991955Y-491137551D01*
X147451078Y-490594239D01*
X146866478Y-490011389D01*
X146655742Y-489802291D01*
X146048425Y-489199193D01*
X145472354Y-488624728D01*
X144939806Y-488091307D01*
X144463063Y-487611340D01*
X144054401Y-487197238D01*
X143726102Y-486861412D01*
X143490442Y-486616270D01*
X143359702Y-486474225D01*
X143343819Y-486454944D01*
X143135107Y-486182887D01*
X144089544Y-486611674D01*
X145047494Y-487040857D01*
X145869197Y-487406164D01*
X146572027Y-487714951D01*
X147173360Y-487974573D01*
X147690570Y-488192385D01*
X148141033Y-488375744D01*
X148542123Y-488532004D01*
X148911216Y-488668522D01*
X149135512Y-488747833D01*
X149596863Y-488908154D01*
X149921893Y-489019612D01*
X150134416Y-489088406D01*
X150258241Y-489120734D01*
X150317181Y-489122795D01*
X150335046Y-489100787D01*
X150335648Y-489060910D01*
X150335647Y-489060263D01*
X150276955Y-488955908D01*
X150102939Y-488733873D01*
X149816685Y-488397526D01*
X149421283Y-487950232D01*
X148919820Y-487395358D01*
X148315385Y-486736271D01*
X147611065Y-485976338D01*
X146809949Y-485118924D01*
X145915125Y-484167397D01*
X144929681Y-483125124D01*
X143856705Y-481995470D01*
X143815145Y-481951808D01*
X143354858Y-481466026D01*
X142924420Y-481007473D01*
X142540027Y-480593735D01*
X142217879Y-480242400D01*
X141974173Y-479971056D01*
X141825108Y-479797288D01*
X141795752Y-479759243D01*
X141770766Y-479695508D01*
X141853464Y-479724027D01*
G37*
%TD*%
M02*
