M48
; DRILL file {KiCad 9.0.1} date 2025-10-16T11:32:38+0100
; FORMAT={-:-/ absolute / metric / decimal}
; #@! TF.CreationDate,2025-10-16T11:32:38+01:00
; #@! TF.GenerationSoftware,Kicad,Pcbnew,9.0.1
; #@! TF.FileFunction,Plated,1,2,PTH
FMAT,2
METRIC
; #@! TA.AperFunction,Plated,PTH,ViaDrill
T1C0.300
; #@! TA.AperFunction,Plated,PTH,ComponentDrill
T2C0.800
; #@! TA.AperFunction,Plated,PTH,ComponentDrill
T3C0.900
; #@! TA.AperFunction,Plated,PTH,ComponentDrill
T4C1.000
; #@! TA.AperFunction,Plated,PTH,ComponentDrill
T5C1.100
%
G90
G05
T1
X88.0Y-92.5
X95.0Y-68.5
X108.5Y-77.5
X117.5Y-75.5
X120.0Y-85.0
X132.0Y-49.0
T2
X27.5Y-58.5
X27.5Y-66.12
X37.5Y-58.5
X37.5Y-66.12
X37.5Y-72.88
X37.5Y-80.5
X37.5Y-87.88
X37.5Y-95.5
X47.5Y-58.5
X47.5Y-66.12
X57.5Y-58.5
X57.5Y-66.12
X57.5Y-72.88
X57.5Y-80.5
X57.5Y-87.38
X57.5Y-95.0
X67.5Y-58.5
X67.5Y-66.12
X72.5Y-80.38
X72.5Y-88.0
X90.5Y-37.88
X90.5Y-45.5
X90.5Y-52.19
X90.5Y-59.81
X92.5Y-73.19
X92.5Y-80.81
X92.5Y-87.88
X92.5Y-95.5
X110.5Y-37.88
X110.5Y-45.5
X110.5Y-52.38
X110.5Y-60.0
X112.5Y-73.38
X112.5Y-81.0
X112.5Y-87.88
X112.5Y-95.5
X130.5Y-37.88
X130.5Y-45.5
X130.5Y-52.38
X130.5Y-60.0
T4
X127.96Y-69.3
X127.96Y-71.84
X127.96Y-74.38
X127.96Y-76.92
X127.96Y-79.46
X127.96Y-82.0
X127.96Y-84.54
X127.96Y-87.08
X127.96Y-89.62
X127.96Y-92.16
X130.5Y-69.3
X130.5Y-71.84
X130.5Y-74.38
X130.5Y-76.92
X130.5Y-79.46
X130.5Y-82.0
X130.5Y-84.54
X130.5Y-87.08
X130.5Y-89.62
X130.5Y-92.16
T5
X27.5Y-75.5
X27.5Y-80.0
X27.5Y-90.0
X27.5Y-94.5
X34.0Y-75.5
X34.0Y-80.0
X34.0Y-90.0
X34.0Y-94.5
X47.5Y-75.5
X47.5Y-80.0
X47.5Y-90.0
X47.5Y-94.5
X54.0Y-75.5
X54.0Y-80.0
X54.0Y-90.0
X54.0Y-94.5
X62.5Y-82.75
X62.5Y-87.25
X69.0Y-82.75
X69.0Y-87.25
X80.5Y-40.5
X80.5Y-45.0
X80.5Y-55.0
X80.5Y-59.5
X82.5Y-75.5
X82.5Y-80.0
X82.5Y-90.0
X82.5Y-94.5
X87.0Y-40.5
X87.0Y-45.0
X87.0Y-55.0
X87.0Y-59.5
X89.0Y-75.5
X89.0Y-80.0
X89.0Y-90.0
X89.0Y-94.5
X100.5Y-40.5
X100.5Y-45.0
X100.5Y-55.0
X100.5Y-59.5
X102.5Y-75.5
X102.5Y-80.0
X102.5Y-90.0
X102.5Y-94.5
X107.0Y-40.5
X107.0Y-45.0
X107.0Y-55.0
X107.0Y-59.5
X109.0Y-75.5
X109.0Y-80.0
X109.0Y-90.0
X109.0Y-94.5
X120.5Y-40.5
X120.5Y-45.0
X120.5Y-55.0
X120.5Y-59.5
X127.0Y-40.5
X127.0Y-45.0
X127.0Y-55.0
X127.0Y-59.5
T3
G00X29.85Y-45.3
M15
G01X31.15Y-45.3
M16
G05
G00X29.85Y-50.0
M15
G01X31.15Y-50.0
M16
G05
G00X29.85Y-54.7
M15
G01X31.15Y-54.7
M16
G05
G00X39.85Y-45.3
M15
G01X41.15Y-45.3
M16
G05
G00X39.85Y-50.0
M15
G01X41.15Y-50.0
M16
G05
G00X39.85Y-54.7
M15
G01X41.15Y-54.7
M16
G05
G00X49.85Y-45.3
M15
G01X51.15Y-45.3
M16
G05
G00X49.85Y-50.0
M15
G01X51.15Y-50.0
M16
G05
G00X49.85Y-54.7
M15
G01X51.15Y-54.7
M16
G05
G00X59.85Y-45.3
M15
G01X61.15Y-45.3
M16
G05
G00X59.85Y-50.0
M15
G01X61.15Y-50.0
M16
G05
G00X59.85Y-54.7
M15
G01X61.15Y-54.7
M16
G05
G00X69.85Y-45.3
M15
G01X71.15Y-45.3
M16
G05
G00X69.85Y-50.0
M15
G01X71.15Y-50.0
M16
G05
G00X69.85Y-54.7
M15
G01X71.15Y-54.7
M16
G05
M30
