%TF.GenerationSoftware,KiCad,Pcbnew,9.0.1*%
%TF.CreationDate,2025-10-16T11:12:47+01:00*%
%TF.ProjectId,WEASEL_KiCad_buttonMatrix,57454153-454c-45f4-9b69-4361645f6275,rev?*%
%TF.SameCoordinates,Original*%
%TF.FileFunction,Legend,Top*%
%TF.FilePolarity,Positive*%
%FSLAX46Y46*%
G04 Gerber Fmt 4.6, Leading zero omitted, Abs format (unit mm)*
G04 Created by KiCad (PCBNEW 9.0.1) date 2025-10-16 11:12:47*
%MOMM*%
%LPD*%
G01*
G04 APERTURE LIST*
%ADD10C,0.150000*%
%ADD11C,0.120000*%
G04 APERTURE END LIST*
D10*
X32190059Y-73907200D02*
X32332916Y-73954819D01*
X32332916Y-73954819D02*
X32571011Y-73954819D01*
X32571011Y-73954819D02*
X32666249Y-73907200D01*
X32666249Y-73907200D02*
X32713868Y-73859580D01*
X32713868Y-73859580D02*
X32761487Y-73764342D01*
X32761487Y-73764342D02*
X32761487Y-73669104D01*
X32761487Y-73669104D02*
X32713868Y-73573866D01*
X32713868Y-73573866D02*
X32666249Y-73526247D01*
X32666249Y-73526247D02*
X32571011Y-73478628D01*
X32571011Y-73478628D02*
X32380535Y-73431009D01*
X32380535Y-73431009D02*
X32285297Y-73383390D01*
X32285297Y-73383390D02*
X32237678Y-73335771D01*
X32237678Y-73335771D02*
X32190059Y-73240533D01*
X32190059Y-73240533D02*
X32190059Y-73145295D01*
X32190059Y-73145295D02*
X32237678Y-73050057D01*
X32237678Y-73050057D02*
X32285297Y-73002438D01*
X32285297Y-73002438D02*
X32380535Y-72954819D01*
X32380535Y-72954819D02*
X32618630Y-72954819D01*
X32618630Y-72954819D02*
X32761487Y-73002438D01*
X33094821Y-72954819D02*
X33332916Y-73954819D01*
X33332916Y-73954819D02*
X33523392Y-73240533D01*
X33523392Y-73240533D02*
X33713868Y-73954819D01*
X33713868Y-73954819D02*
X33951964Y-72954819D01*
X34237678Y-72954819D02*
X34856725Y-72954819D01*
X34856725Y-72954819D02*
X34523392Y-73335771D01*
X34523392Y-73335771D02*
X34666249Y-73335771D01*
X34666249Y-73335771D02*
X34761487Y-73383390D01*
X34761487Y-73383390D02*
X34809106Y-73431009D01*
X34809106Y-73431009D02*
X34856725Y-73526247D01*
X34856725Y-73526247D02*
X34856725Y-73764342D01*
X34856725Y-73764342D02*
X34809106Y-73859580D01*
X34809106Y-73859580D02*
X34761487Y-73907200D01*
X34761487Y-73907200D02*
X34666249Y-73954819D01*
X34666249Y-73954819D02*
X34380535Y-73954819D01*
X34380535Y-73954819D02*
X34285297Y-73907200D01*
X34285297Y-73907200D02*
X34237678Y-73859580D01*
X35713868Y-72954819D02*
X35523392Y-72954819D01*
X35523392Y-72954819D02*
X35428154Y-73002438D01*
X35428154Y-73002438D02*
X35380535Y-73050057D01*
X35380535Y-73050057D02*
X35285297Y-73192914D01*
X35285297Y-73192914D02*
X35237678Y-73383390D01*
X35237678Y-73383390D02*
X35237678Y-73764342D01*
X35237678Y-73764342D02*
X35285297Y-73859580D01*
X35285297Y-73859580D02*
X35332916Y-73907200D01*
X35332916Y-73907200D02*
X35428154Y-73954819D01*
X35428154Y-73954819D02*
X35618630Y-73954819D01*
X35618630Y-73954819D02*
X35713868Y-73907200D01*
X35713868Y-73907200D02*
X35761487Y-73859580D01*
X35761487Y-73859580D02*
X35809106Y-73764342D01*
X35809106Y-73764342D02*
X35809106Y-73526247D01*
X35809106Y-73526247D02*
X35761487Y-73431009D01*
X35761487Y-73431009D02*
X35713868Y-73383390D01*
X35713868Y-73383390D02*
X35618630Y-73335771D01*
X35618630Y-73335771D02*
X35428154Y-73335771D01*
X35428154Y-73335771D02*
X35332916Y-73383390D01*
X35332916Y-73383390D02*
X35285297Y-73431009D01*
X35285297Y-73431009D02*
X35237678Y-73526247D01*
X110954819Y-57404285D02*
X109954819Y-57404285D01*
X109954819Y-57404285D02*
X109954819Y-57166190D01*
X109954819Y-57166190D02*
X110002438Y-57023333D01*
X110002438Y-57023333D02*
X110097676Y-56928095D01*
X110097676Y-56928095D02*
X110192914Y-56880476D01*
X110192914Y-56880476D02*
X110383390Y-56832857D01*
X110383390Y-56832857D02*
X110526247Y-56832857D01*
X110526247Y-56832857D02*
X110716723Y-56880476D01*
X110716723Y-56880476D02*
X110811961Y-56928095D01*
X110811961Y-56928095D02*
X110907200Y-57023333D01*
X110907200Y-57023333D02*
X110954819Y-57166190D01*
X110954819Y-57166190D02*
X110954819Y-57404285D01*
X109954819Y-56499523D02*
X109954819Y-55880476D01*
X109954819Y-55880476D02*
X110335771Y-56213809D01*
X110335771Y-56213809D02*
X110335771Y-56070952D01*
X110335771Y-56070952D02*
X110383390Y-55975714D01*
X110383390Y-55975714D02*
X110431009Y-55928095D01*
X110431009Y-55928095D02*
X110526247Y-55880476D01*
X110526247Y-55880476D02*
X110764342Y-55880476D01*
X110764342Y-55880476D02*
X110859580Y-55928095D01*
X110859580Y-55928095D02*
X110907200Y-55975714D01*
X110907200Y-55975714D02*
X110954819Y-56070952D01*
X110954819Y-56070952D02*
X110954819Y-56356666D01*
X110954819Y-56356666D02*
X110907200Y-56451904D01*
X110907200Y-56451904D02*
X110859580Y-56499523D01*
X110050057Y-55499523D02*
X110002438Y-55451904D01*
X110002438Y-55451904D02*
X109954819Y-55356666D01*
X109954819Y-55356666D02*
X109954819Y-55118571D01*
X109954819Y-55118571D02*
X110002438Y-55023333D01*
X110002438Y-55023333D02*
X110050057Y-54975714D01*
X110050057Y-54975714D02*
X110145295Y-54928095D01*
X110145295Y-54928095D02*
X110240533Y-54928095D01*
X110240533Y-54928095D02*
X110383390Y-54975714D01*
X110383390Y-54975714D02*
X110954819Y-55547142D01*
X110954819Y-55547142D02*
X110954819Y-54928095D01*
X85666667Y-38907200D02*
X85809524Y-38954819D01*
X85809524Y-38954819D02*
X86047619Y-38954819D01*
X86047619Y-38954819D02*
X86142857Y-38907200D01*
X86142857Y-38907200D02*
X86190476Y-38859580D01*
X86190476Y-38859580D02*
X86238095Y-38764342D01*
X86238095Y-38764342D02*
X86238095Y-38669104D01*
X86238095Y-38669104D02*
X86190476Y-38573866D01*
X86190476Y-38573866D02*
X86142857Y-38526247D01*
X86142857Y-38526247D02*
X86047619Y-38478628D01*
X86047619Y-38478628D02*
X85857143Y-38431009D01*
X85857143Y-38431009D02*
X85761905Y-38383390D01*
X85761905Y-38383390D02*
X85714286Y-38335771D01*
X85714286Y-38335771D02*
X85666667Y-38240533D01*
X85666667Y-38240533D02*
X85666667Y-38145295D01*
X85666667Y-38145295D02*
X85714286Y-38050057D01*
X85714286Y-38050057D02*
X85761905Y-38002438D01*
X85761905Y-38002438D02*
X85857143Y-37954819D01*
X85857143Y-37954819D02*
X86095238Y-37954819D01*
X86095238Y-37954819D02*
X86238095Y-38002438D01*
X86571429Y-37954819D02*
X86809524Y-38954819D01*
X86809524Y-38954819D02*
X87000000Y-38240533D01*
X87000000Y-38240533D02*
X87190476Y-38954819D01*
X87190476Y-38954819D02*
X87428572Y-37954819D01*
X87761905Y-38050057D02*
X87809524Y-38002438D01*
X87809524Y-38002438D02*
X87904762Y-37954819D01*
X87904762Y-37954819D02*
X88142857Y-37954819D01*
X88142857Y-37954819D02*
X88238095Y-38002438D01*
X88238095Y-38002438D02*
X88285714Y-38050057D01*
X88285714Y-38050057D02*
X88333333Y-38145295D01*
X88333333Y-38145295D02*
X88333333Y-38240533D01*
X88333333Y-38240533D02*
X88285714Y-38383390D01*
X88285714Y-38383390D02*
X87714286Y-38954819D01*
X87714286Y-38954819D02*
X88333333Y-38954819D01*
X112904819Y-78404285D02*
X111904819Y-78404285D01*
X111904819Y-78404285D02*
X111904819Y-78166190D01*
X111904819Y-78166190D02*
X111952438Y-78023333D01*
X111952438Y-78023333D02*
X112047676Y-77928095D01*
X112047676Y-77928095D02*
X112142914Y-77880476D01*
X112142914Y-77880476D02*
X112333390Y-77832857D01*
X112333390Y-77832857D02*
X112476247Y-77832857D01*
X112476247Y-77832857D02*
X112666723Y-77880476D01*
X112666723Y-77880476D02*
X112761961Y-77928095D01*
X112761961Y-77928095D02*
X112857200Y-78023333D01*
X112857200Y-78023333D02*
X112904819Y-78166190D01*
X112904819Y-78166190D02*
X112904819Y-78404285D01*
X112238152Y-76975714D02*
X112904819Y-76975714D01*
X111857200Y-77213809D02*
X112571485Y-77451904D01*
X112571485Y-77451904D02*
X112571485Y-76832857D01*
X112000057Y-76499523D02*
X111952438Y-76451904D01*
X111952438Y-76451904D02*
X111904819Y-76356666D01*
X111904819Y-76356666D02*
X111904819Y-76118571D01*
X111904819Y-76118571D02*
X111952438Y-76023333D01*
X111952438Y-76023333D02*
X112000057Y-75975714D01*
X112000057Y-75975714D02*
X112095295Y-75928095D01*
X112095295Y-75928095D02*
X112190533Y-75928095D01*
X112190533Y-75928095D02*
X112333390Y-75975714D01*
X112333390Y-75975714D02*
X112904819Y-76547142D01*
X112904819Y-76547142D02*
X112904819Y-75928095D01*
X105190476Y-53407200D02*
X105333333Y-53454819D01*
X105333333Y-53454819D02*
X105571428Y-53454819D01*
X105571428Y-53454819D02*
X105666666Y-53407200D01*
X105666666Y-53407200D02*
X105714285Y-53359580D01*
X105714285Y-53359580D02*
X105761904Y-53264342D01*
X105761904Y-53264342D02*
X105761904Y-53169104D01*
X105761904Y-53169104D02*
X105714285Y-53073866D01*
X105714285Y-53073866D02*
X105666666Y-53026247D01*
X105666666Y-53026247D02*
X105571428Y-52978628D01*
X105571428Y-52978628D02*
X105380952Y-52931009D01*
X105380952Y-52931009D02*
X105285714Y-52883390D01*
X105285714Y-52883390D02*
X105238095Y-52835771D01*
X105238095Y-52835771D02*
X105190476Y-52740533D01*
X105190476Y-52740533D02*
X105190476Y-52645295D01*
X105190476Y-52645295D02*
X105238095Y-52550057D01*
X105238095Y-52550057D02*
X105285714Y-52502438D01*
X105285714Y-52502438D02*
X105380952Y-52454819D01*
X105380952Y-52454819D02*
X105619047Y-52454819D01*
X105619047Y-52454819D02*
X105761904Y-52502438D01*
X106095238Y-52454819D02*
X106333333Y-53454819D01*
X106333333Y-53454819D02*
X106523809Y-52740533D01*
X106523809Y-52740533D02*
X106714285Y-53454819D01*
X106714285Y-53454819D02*
X106952381Y-52454819D01*
X107238095Y-52454819D02*
X107857142Y-52454819D01*
X107857142Y-52454819D02*
X107523809Y-52835771D01*
X107523809Y-52835771D02*
X107666666Y-52835771D01*
X107666666Y-52835771D02*
X107761904Y-52883390D01*
X107761904Y-52883390D02*
X107809523Y-52931009D01*
X107809523Y-52931009D02*
X107857142Y-53026247D01*
X107857142Y-53026247D02*
X107857142Y-53264342D01*
X107857142Y-53264342D02*
X107809523Y-53359580D01*
X107809523Y-53359580D02*
X107761904Y-53407200D01*
X107761904Y-53407200D02*
X107666666Y-53454819D01*
X107666666Y-53454819D02*
X107380952Y-53454819D01*
X107380952Y-53454819D02*
X107285714Y-53407200D01*
X107285714Y-53407200D02*
X107238095Y-53359580D01*
X108238095Y-52550057D02*
X108285714Y-52502438D01*
X108285714Y-52502438D02*
X108380952Y-52454819D01*
X108380952Y-52454819D02*
X108619047Y-52454819D01*
X108619047Y-52454819D02*
X108714285Y-52502438D01*
X108714285Y-52502438D02*
X108761904Y-52550057D01*
X108761904Y-52550057D02*
X108809523Y-52645295D01*
X108809523Y-52645295D02*
X108809523Y-52740533D01*
X108809523Y-52740533D02*
X108761904Y-52883390D01*
X108761904Y-52883390D02*
X108190476Y-53454819D01*
X108190476Y-53454819D02*
X108809523Y-53454819D01*
X107190059Y-73907200D02*
X107332916Y-73954819D01*
X107332916Y-73954819D02*
X107571011Y-73954819D01*
X107571011Y-73954819D02*
X107666249Y-73907200D01*
X107666249Y-73907200D02*
X107713868Y-73859580D01*
X107713868Y-73859580D02*
X107761487Y-73764342D01*
X107761487Y-73764342D02*
X107761487Y-73669104D01*
X107761487Y-73669104D02*
X107713868Y-73573866D01*
X107713868Y-73573866D02*
X107666249Y-73526247D01*
X107666249Y-73526247D02*
X107571011Y-73478628D01*
X107571011Y-73478628D02*
X107380535Y-73431009D01*
X107380535Y-73431009D02*
X107285297Y-73383390D01*
X107285297Y-73383390D02*
X107237678Y-73335771D01*
X107237678Y-73335771D02*
X107190059Y-73240533D01*
X107190059Y-73240533D02*
X107190059Y-73145295D01*
X107190059Y-73145295D02*
X107237678Y-73050057D01*
X107237678Y-73050057D02*
X107285297Y-73002438D01*
X107285297Y-73002438D02*
X107380535Y-72954819D01*
X107380535Y-72954819D02*
X107618630Y-72954819D01*
X107618630Y-72954819D02*
X107761487Y-73002438D01*
X108094821Y-72954819D02*
X108332916Y-73954819D01*
X108332916Y-73954819D02*
X108523392Y-73240533D01*
X108523392Y-73240533D02*
X108713868Y-73954819D01*
X108713868Y-73954819D02*
X108951964Y-72954819D01*
X109761487Y-73288152D02*
X109761487Y-73954819D01*
X109523392Y-72907200D02*
X109285297Y-73621485D01*
X109285297Y-73621485D02*
X109904344Y-73621485D01*
X110237678Y-73050057D02*
X110285297Y-73002438D01*
X110285297Y-73002438D02*
X110380535Y-72954819D01*
X110380535Y-72954819D02*
X110618630Y-72954819D01*
X110618630Y-72954819D02*
X110713868Y-73002438D01*
X110713868Y-73002438D02*
X110761487Y-73050057D01*
X110761487Y-73050057D02*
X110809106Y-73145295D01*
X110809106Y-73145295D02*
X110809106Y-73240533D01*
X110809106Y-73240533D02*
X110761487Y-73383390D01*
X110761487Y-73383390D02*
X110190059Y-73954819D01*
X110190059Y-73954819D02*
X110809106Y-73954819D01*
X130904819Y-42904285D02*
X129904819Y-42904285D01*
X129904819Y-42904285D02*
X129904819Y-42666190D01*
X129904819Y-42666190D02*
X129952438Y-42523333D01*
X129952438Y-42523333D02*
X130047676Y-42428095D01*
X130047676Y-42428095D02*
X130142914Y-42380476D01*
X130142914Y-42380476D02*
X130333390Y-42332857D01*
X130333390Y-42332857D02*
X130476247Y-42332857D01*
X130476247Y-42332857D02*
X130666723Y-42380476D01*
X130666723Y-42380476D02*
X130761961Y-42428095D01*
X130761961Y-42428095D02*
X130857200Y-42523333D01*
X130857200Y-42523333D02*
X130904819Y-42666190D01*
X130904819Y-42666190D02*
X130904819Y-42904285D01*
X129904819Y-41999523D02*
X129904819Y-41380476D01*
X129904819Y-41380476D02*
X130285771Y-41713809D01*
X130285771Y-41713809D02*
X130285771Y-41570952D01*
X130285771Y-41570952D02*
X130333390Y-41475714D01*
X130333390Y-41475714D02*
X130381009Y-41428095D01*
X130381009Y-41428095D02*
X130476247Y-41380476D01*
X130476247Y-41380476D02*
X130714342Y-41380476D01*
X130714342Y-41380476D02*
X130809580Y-41428095D01*
X130809580Y-41428095D02*
X130857200Y-41475714D01*
X130857200Y-41475714D02*
X130904819Y-41570952D01*
X130904819Y-41570952D02*
X130904819Y-41856666D01*
X130904819Y-41856666D02*
X130857200Y-41951904D01*
X130857200Y-41951904D02*
X130809580Y-41999523D01*
X129904819Y-41047142D02*
X129904819Y-40428095D01*
X129904819Y-40428095D02*
X130285771Y-40761428D01*
X130285771Y-40761428D02*
X130285771Y-40618571D01*
X130285771Y-40618571D02*
X130333390Y-40523333D01*
X130333390Y-40523333D02*
X130381009Y-40475714D01*
X130381009Y-40475714D02*
X130476247Y-40428095D01*
X130476247Y-40428095D02*
X130714342Y-40428095D01*
X130714342Y-40428095D02*
X130809580Y-40475714D01*
X130809580Y-40475714D02*
X130857200Y-40523333D01*
X130857200Y-40523333D02*
X130904819Y-40618571D01*
X130904819Y-40618571D02*
X130904819Y-40904285D01*
X130904819Y-40904285D02*
X130857200Y-40999523D01*
X130857200Y-40999523D02*
X130809580Y-41047142D01*
X110954819Y-42904285D02*
X109954819Y-42904285D01*
X109954819Y-42904285D02*
X109954819Y-42666190D01*
X109954819Y-42666190D02*
X110002438Y-42523333D01*
X110002438Y-42523333D02*
X110097676Y-42428095D01*
X110097676Y-42428095D02*
X110192914Y-42380476D01*
X110192914Y-42380476D02*
X110383390Y-42332857D01*
X110383390Y-42332857D02*
X110526247Y-42332857D01*
X110526247Y-42332857D02*
X110716723Y-42380476D01*
X110716723Y-42380476D02*
X110811961Y-42428095D01*
X110811961Y-42428095D02*
X110907200Y-42523333D01*
X110907200Y-42523333D02*
X110954819Y-42666190D01*
X110954819Y-42666190D02*
X110954819Y-42904285D01*
X109954819Y-41999523D02*
X109954819Y-41380476D01*
X109954819Y-41380476D02*
X110335771Y-41713809D01*
X110335771Y-41713809D02*
X110335771Y-41570952D01*
X110335771Y-41570952D02*
X110383390Y-41475714D01*
X110383390Y-41475714D02*
X110431009Y-41428095D01*
X110431009Y-41428095D02*
X110526247Y-41380476D01*
X110526247Y-41380476D02*
X110764342Y-41380476D01*
X110764342Y-41380476D02*
X110859580Y-41428095D01*
X110859580Y-41428095D02*
X110907200Y-41475714D01*
X110907200Y-41475714D02*
X110954819Y-41570952D01*
X110954819Y-41570952D02*
X110954819Y-41856666D01*
X110954819Y-41856666D02*
X110907200Y-41951904D01*
X110907200Y-41951904D02*
X110859580Y-41999523D01*
X110954819Y-40428095D02*
X110954819Y-40999523D01*
X110954819Y-40713809D02*
X109954819Y-40713809D01*
X109954819Y-40713809D02*
X110097676Y-40809047D01*
X110097676Y-40809047D02*
X110192914Y-40904285D01*
X110192914Y-40904285D02*
X110240533Y-40999523D01*
X90954819Y-57214285D02*
X89954819Y-57214285D01*
X89954819Y-57214285D02*
X89954819Y-56976190D01*
X89954819Y-56976190D02*
X90002438Y-56833333D01*
X90002438Y-56833333D02*
X90097676Y-56738095D01*
X90097676Y-56738095D02*
X90192914Y-56690476D01*
X90192914Y-56690476D02*
X90383390Y-56642857D01*
X90383390Y-56642857D02*
X90526247Y-56642857D01*
X90526247Y-56642857D02*
X90716723Y-56690476D01*
X90716723Y-56690476D02*
X90811961Y-56738095D01*
X90811961Y-56738095D02*
X90907200Y-56833333D01*
X90907200Y-56833333D02*
X90954819Y-56976190D01*
X90954819Y-56976190D02*
X90954819Y-57214285D01*
X89954819Y-56309523D02*
X89954819Y-55690476D01*
X89954819Y-55690476D02*
X90335771Y-56023809D01*
X90335771Y-56023809D02*
X90335771Y-55880952D01*
X90335771Y-55880952D02*
X90383390Y-55785714D01*
X90383390Y-55785714D02*
X90431009Y-55738095D01*
X90431009Y-55738095D02*
X90526247Y-55690476D01*
X90526247Y-55690476D02*
X90764342Y-55690476D01*
X90764342Y-55690476D02*
X90859580Y-55738095D01*
X90859580Y-55738095D02*
X90907200Y-55785714D01*
X90907200Y-55785714D02*
X90954819Y-55880952D01*
X90954819Y-55880952D02*
X90954819Y-56166666D01*
X90954819Y-56166666D02*
X90907200Y-56261904D01*
X90907200Y-56261904D02*
X90859580Y-56309523D01*
X89954819Y-55071428D02*
X89954819Y-54976190D01*
X89954819Y-54976190D02*
X90002438Y-54880952D01*
X90002438Y-54880952D02*
X90050057Y-54833333D01*
X90050057Y-54833333D02*
X90145295Y-54785714D01*
X90145295Y-54785714D02*
X90335771Y-54738095D01*
X90335771Y-54738095D02*
X90573866Y-54738095D01*
X90573866Y-54738095D02*
X90764342Y-54785714D01*
X90764342Y-54785714D02*
X90859580Y-54833333D01*
X90859580Y-54833333D02*
X90907200Y-54880952D01*
X90907200Y-54880952D02*
X90954819Y-54976190D01*
X90954819Y-54976190D02*
X90954819Y-55071428D01*
X90954819Y-55071428D02*
X90907200Y-55166666D01*
X90907200Y-55166666D02*
X90859580Y-55214285D01*
X90859580Y-55214285D02*
X90764342Y-55261904D01*
X90764342Y-55261904D02*
X90573866Y-55309523D01*
X90573866Y-55309523D02*
X90335771Y-55309523D01*
X90335771Y-55309523D02*
X90145295Y-55261904D01*
X90145295Y-55261904D02*
X90050057Y-55214285D01*
X90050057Y-55214285D02*
X90002438Y-55166666D01*
X90002438Y-55166666D02*
X89954819Y-55071428D01*
X72904819Y-85404285D02*
X71904819Y-85404285D01*
X71904819Y-85404285D02*
X71904819Y-85166190D01*
X71904819Y-85166190D02*
X71952438Y-85023333D01*
X71952438Y-85023333D02*
X72047676Y-84928095D01*
X72047676Y-84928095D02*
X72142914Y-84880476D01*
X72142914Y-84880476D02*
X72333390Y-84832857D01*
X72333390Y-84832857D02*
X72476247Y-84832857D01*
X72476247Y-84832857D02*
X72666723Y-84880476D01*
X72666723Y-84880476D02*
X72761961Y-84928095D01*
X72761961Y-84928095D02*
X72857200Y-85023333D01*
X72857200Y-85023333D02*
X72904819Y-85166190D01*
X72904819Y-85166190D02*
X72904819Y-85404285D01*
X71904819Y-84499523D02*
X71904819Y-83880476D01*
X71904819Y-83880476D02*
X72285771Y-84213809D01*
X72285771Y-84213809D02*
X72285771Y-84070952D01*
X72285771Y-84070952D02*
X72333390Y-83975714D01*
X72333390Y-83975714D02*
X72381009Y-83928095D01*
X72381009Y-83928095D02*
X72476247Y-83880476D01*
X72476247Y-83880476D02*
X72714342Y-83880476D01*
X72714342Y-83880476D02*
X72809580Y-83928095D01*
X72809580Y-83928095D02*
X72857200Y-83975714D01*
X72857200Y-83975714D02*
X72904819Y-84070952D01*
X72904819Y-84070952D02*
X72904819Y-84356666D01*
X72904819Y-84356666D02*
X72857200Y-84451904D01*
X72857200Y-84451904D02*
X72809580Y-84499523D01*
X72904819Y-83404285D02*
X72904819Y-83213809D01*
X72904819Y-83213809D02*
X72857200Y-83118571D01*
X72857200Y-83118571D02*
X72809580Y-83070952D01*
X72809580Y-83070952D02*
X72666723Y-82975714D01*
X72666723Y-82975714D02*
X72476247Y-82928095D01*
X72476247Y-82928095D02*
X72095295Y-82928095D01*
X72095295Y-82928095D02*
X72000057Y-82975714D01*
X72000057Y-82975714D02*
X71952438Y-83023333D01*
X71952438Y-83023333D02*
X71904819Y-83118571D01*
X71904819Y-83118571D02*
X71904819Y-83309047D01*
X71904819Y-83309047D02*
X71952438Y-83404285D01*
X71952438Y-83404285D02*
X72000057Y-83451904D01*
X72000057Y-83451904D02*
X72095295Y-83499523D01*
X72095295Y-83499523D02*
X72333390Y-83499523D01*
X72333390Y-83499523D02*
X72428628Y-83451904D01*
X72428628Y-83451904D02*
X72476247Y-83404285D01*
X72476247Y-83404285D02*
X72523866Y-83309047D01*
X72523866Y-83309047D02*
X72523866Y-83118571D01*
X72523866Y-83118571D02*
X72476247Y-83023333D01*
X72476247Y-83023333D02*
X72428628Y-82975714D01*
X72428628Y-82975714D02*
X72333390Y-82928095D01*
X125190476Y-53407200D02*
X125333333Y-53454819D01*
X125333333Y-53454819D02*
X125571428Y-53454819D01*
X125571428Y-53454819D02*
X125666666Y-53407200D01*
X125666666Y-53407200D02*
X125714285Y-53359580D01*
X125714285Y-53359580D02*
X125761904Y-53264342D01*
X125761904Y-53264342D02*
X125761904Y-53169104D01*
X125761904Y-53169104D02*
X125714285Y-53073866D01*
X125714285Y-53073866D02*
X125666666Y-53026247D01*
X125666666Y-53026247D02*
X125571428Y-52978628D01*
X125571428Y-52978628D02*
X125380952Y-52931009D01*
X125380952Y-52931009D02*
X125285714Y-52883390D01*
X125285714Y-52883390D02*
X125238095Y-52835771D01*
X125238095Y-52835771D02*
X125190476Y-52740533D01*
X125190476Y-52740533D02*
X125190476Y-52645295D01*
X125190476Y-52645295D02*
X125238095Y-52550057D01*
X125238095Y-52550057D02*
X125285714Y-52502438D01*
X125285714Y-52502438D02*
X125380952Y-52454819D01*
X125380952Y-52454819D02*
X125619047Y-52454819D01*
X125619047Y-52454819D02*
X125761904Y-52502438D01*
X126095238Y-52454819D02*
X126333333Y-53454819D01*
X126333333Y-53454819D02*
X126523809Y-52740533D01*
X126523809Y-52740533D02*
X126714285Y-53454819D01*
X126714285Y-53454819D02*
X126952381Y-52454819D01*
X127238095Y-52454819D02*
X127857142Y-52454819D01*
X127857142Y-52454819D02*
X127523809Y-52835771D01*
X127523809Y-52835771D02*
X127666666Y-52835771D01*
X127666666Y-52835771D02*
X127761904Y-52883390D01*
X127761904Y-52883390D02*
X127809523Y-52931009D01*
X127809523Y-52931009D02*
X127857142Y-53026247D01*
X127857142Y-53026247D02*
X127857142Y-53264342D01*
X127857142Y-53264342D02*
X127809523Y-53359580D01*
X127809523Y-53359580D02*
X127761904Y-53407200D01*
X127761904Y-53407200D02*
X127666666Y-53454819D01*
X127666666Y-53454819D02*
X127380952Y-53454819D01*
X127380952Y-53454819D02*
X127285714Y-53407200D01*
X127285714Y-53407200D02*
X127238095Y-53359580D01*
X128714285Y-52788152D02*
X128714285Y-53454819D01*
X128476190Y-52407200D02*
X128238095Y-53121485D01*
X128238095Y-53121485D02*
X128857142Y-53121485D01*
X112904819Y-92904285D02*
X111904819Y-92904285D01*
X111904819Y-92904285D02*
X111904819Y-92666190D01*
X111904819Y-92666190D02*
X111952438Y-92523333D01*
X111952438Y-92523333D02*
X112047676Y-92428095D01*
X112047676Y-92428095D02*
X112142914Y-92380476D01*
X112142914Y-92380476D02*
X112333390Y-92332857D01*
X112333390Y-92332857D02*
X112476247Y-92332857D01*
X112476247Y-92332857D02*
X112666723Y-92380476D01*
X112666723Y-92380476D02*
X112761961Y-92428095D01*
X112761961Y-92428095D02*
X112857200Y-92523333D01*
X112857200Y-92523333D02*
X112904819Y-92666190D01*
X112904819Y-92666190D02*
X112904819Y-92904285D01*
X112238152Y-91475714D02*
X112904819Y-91475714D01*
X111857200Y-91713809D02*
X112571485Y-91951904D01*
X112571485Y-91951904D02*
X112571485Y-91332857D01*
X111904819Y-91047142D02*
X111904819Y-90428095D01*
X111904819Y-90428095D02*
X112285771Y-90761428D01*
X112285771Y-90761428D02*
X112285771Y-90618571D01*
X112285771Y-90618571D02*
X112333390Y-90523333D01*
X112333390Y-90523333D02*
X112381009Y-90475714D01*
X112381009Y-90475714D02*
X112476247Y-90428095D01*
X112476247Y-90428095D02*
X112714342Y-90428095D01*
X112714342Y-90428095D02*
X112809580Y-90475714D01*
X112809580Y-90475714D02*
X112857200Y-90523333D01*
X112857200Y-90523333D02*
X112904819Y-90618571D01*
X112904819Y-90618571D02*
X112904819Y-90904285D01*
X112904819Y-90904285D02*
X112857200Y-90999523D01*
X112857200Y-90999523D02*
X112809580Y-91047142D01*
X37904819Y-77904285D02*
X36904819Y-77904285D01*
X36904819Y-77904285D02*
X36904819Y-77666190D01*
X36904819Y-77666190D02*
X36952438Y-77523333D01*
X36952438Y-77523333D02*
X37047676Y-77428095D01*
X37047676Y-77428095D02*
X37142914Y-77380476D01*
X37142914Y-77380476D02*
X37333390Y-77332857D01*
X37333390Y-77332857D02*
X37476247Y-77332857D01*
X37476247Y-77332857D02*
X37666723Y-77380476D01*
X37666723Y-77380476D02*
X37761961Y-77428095D01*
X37761961Y-77428095D02*
X37857200Y-77523333D01*
X37857200Y-77523333D02*
X37904819Y-77666190D01*
X37904819Y-77666190D02*
X37904819Y-77904285D01*
X36904819Y-76999523D02*
X36904819Y-76380476D01*
X36904819Y-76380476D02*
X37285771Y-76713809D01*
X37285771Y-76713809D02*
X37285771Y-76570952D01*
X37285771Y-76570952D02*
X37333390Y-76475714D01*
X37333390Y-76475714D02*
X37381009Y-76428095D01*
X37381009Y-76428095D02*
X37476247Y-76380476D01*
X37476247Y-76380476D02*
X37714342Y-76380476D01*
X37714342Y-76380476D02*
X37809580Y-76428095D01*
X37809580Y-76428095D02*
X37857200Y-76475714D01*
X37857200Y-76475714D02*
X37904819Y-76570952D01*
X37904819Y-76570952D02*
X37904819Y-76856666D01*
X37904819Y-76856666D02*
X37857200Y-76951904D01*
X37857200Y-76951904D02*
X37809580Y-76999523D01*
X36904819Y-75523333D02*
X36904819Y-75713809D01*
X36904819Y-75713809D02*
X36952438Y-75809047D01*
X36952438Y-75809047D02*
X37000057Y-75856666D01*
X37000057Y-75856666D02*
X37142914Y-75951904D01*
X37142914Y-75951904D02*
X37333390Y-75999523D01*
X37333390Y-75999523D02*
X37714342Y-75999523D01*
X37714342Y-75999523D02*
X37809580Y-75951904D01*
X37809580Y-75951904D02*
X37857200Y-75904285D01*
X37857200Y-75904285D02*
X37904819Y-75809047D01*
X37904819Y-75809047D02*
X37904819Y-75618571D01*
X37904819Y-75618571D02*
X37857200Y-75523333D01*
X37857200Y-75523333D02*
X37809580Y-75475714D01*
X37809580Y-75475714D02*
X37714342Y-75428095D01*
X37714342Y-75428095D02*
X37476247Y-75428095D01*
X37476247Y-75428095D02*
X37381009Y-75475714D01*
X37381009Y-75475714D02*
X37333390Y-75523333D01*
X37333390Y-75523333D02*
X37285771Y-75618571D01*
X37285771Y-75618571D02*
X37285771Y-75809047D01*
X37285771Y-75809047D02*
X37333390Y-75904285D01*
X37333390Y-75904285D02*
X37381009Y-75951904D01*
X37381009Y-75951904D02*
X37476247Y-75999523D01*
X87190059Y-88407200D02*
X87332916Y-88454819D01*
X87332916Y-88454819D02*
X87571011Y-88454819D01*
X87571011Y-88454819D02*
X87666249Y-88407200D01*
X87666249Y-88407200D02*
X87713868Y-88359580D01*
X87713868Y-88359580D02*
X87761487Y-88264342D01*
X87761487Y-88264342D02*
X87761487Y-88169104D01*
X87761487Y-88169104D02*
X87713868Y-88073866D01*
X87713868Y-88073866D02*
X87666249Y-88026247D01*
X87666249Y-88026247D02*
X87571011Y-87978628D01*
X87571011Y-87978628D02*
X87380535Y-87931009D01*
X87380535Y-87931009D02*
X87285297Y-87883390D01*
X87285297Y-87883390D02*
X87237678Y-87835771D01*
X87237678Y-87835771D02*
X87190059Y-87740533D01*
X87190059Y-87740533D02*
X87190059Y-87645295D01*
X87190059Y-87645295D02*
X87237678Y-87550057D01*
X87237678Y-87550057D02*
X87285297Y-87502438D01*
X87285297Y-87502438D02*
X87380535Y-87454819D01*
X87380535Y-87454819D02*
X87618630Y-87454819D01*
X87618630Y-87454819D02*
X87761487Y-87502438D01*
X88094821Y-87454819D02*
X88332916Y-88454819D01*
X88332916Y-88454819D02*
X88523392Y-87740533D01*
X88523392Y-87740533D02*
X88713868Y-88454819D01*
X88713868Y-88454819D02*
X88951964Y-87454819D01*
X89761487Y-87788152D02*
X89761487Y-88454819D01*
X89523392Y-87407200D02*
X89285297Y-88121485D01*
X89285297Y-88121485D02*
X89904344Y-88121485D01*
X90809106Y-88454819D02*
X90237678Y-88454819D01*
X90523392Y-88454819D02*
X90523392Y-87454819D01*
X90523392Y-87454819D02*
X90428154Y-87597676D01*
X90428154Y-87597676D02*
X90332916Y-87692914D01*
X90332916Y-87692914D02*
X90237678Y-87740533D01*
X28004819Y-63524285D02*
X27004819Y-63524285D01*
X27004819Y-63524285D02*
X27004819Y-63286190D01*
X27004819Y-63286190D02*
X27052438Y-63143333D01*
X27052438Y-63143333D02*
X27147676Y-63048095D01*
X27147676Y-63048095D02*
X27242914Y-63000476D01*
X27242914Y-63000476D02*
X27433390Y-62952857D01*
X27433390Y-62952857D02*
X27576247Y-62952857D01*
X27576247Y-62952857D02*
X27766723Y-63000476D01*
X27766723Y-63000476D02*
X27861961Y-63048095D01*
X27861961Y-63048095D02*
X27957200Y-63143333D01*
X27957200Y-63143333D02*
X28004819Y-63286190D01*
X28004819Y-63286190D02*
X28004819Y-63524285D01*
X27338152Y-62095714D02*
X28004819Y-62095714D01*
X26957200Y-62333809D02*
X27671485Y-62571904D01*
X27671485Y-62571904D02*
X27671485Y-61952857D01*
X27004819Y-61095714D02*
X27004819Y-61571904D01*
X27004819Y-61571904D02*
X27481009Y-61619523D01*
X27481009Y-61619523D02*
X27433390Y-61571904D01*
X27433390Y-61571904D02*
X27385771Y-61476666D01*
X27385771Y-61476666D02*
X27385771Y-61238571D01*
X27385771Y-61238571D02*
X27433390Y-61143333D01*
X27433390Y-61143333D02*
X27481009Y-61095714D01*
X27481009Y-61095714D02*
X27576247Y-61048095D01*
X27576247Y-61048095D02*
X27814342Y-61048095D01*
X27814342Y-61048095D02*
X27909580Y-61095714D01*
X27909580Y-61095714D02*
X27957200Y-61143333D01*
X27957200Y-61143333D02*
X28004819Y-61238571D01*
X28004819Y-61238571D02*
X28004819Y-61476666D01*
X28004819Y-61476666D02*
X27957200Y-61571904D01*
X27957200Y-61571904D02*
X27909580Y-61619523D01*
X92904819Y-78214285D02*
X91904819Y-78214285D01*
X91904819Y-78214285D02*
X91904819Y-77976190D01*
X91904819Y-77976190D02*
X91952438Y-77833333D01*
X91952438Y-77833333D02*
X92047676Y-77738095D01*
X92047676Y-77738095D02*
X92142914Y-77690476D01*
X92142914Y-77690476D02*
X92333390Y-77642857D01*
X92333390Y-77642857D02*
X92476247Y-77642857D01*
X92476247Y-77642857D02*
X92666723Y-77690476D01*
X92666723Y-77690476D02*
X92761961Y-77738095D01*
X92761961Y-77738095D02*
X92857200Y-77833333D01*
X92857200Y-77833333D02*
X92904819Y-77976190D01*
X92904819Y-77976190D02*
X92904819Y-78214285D01*
X92238152Y-76785714D02*
X92904819Y-76785714D01*
X91857200Y-77023809D02*
X92571485Y-77261904D01*
X92571485Y-77261904D02*
X92571485Y-76642857D01*
X91904819Y-76071428D02*
X91904819Y-75976190D01*
X91904819Y-75976190D02*
X91952438Y-75880952D01*
X91952438Y-75880952D02*
X92000057Y-75833333D01*
X92000057Y-75833333D02*
X92095295Y-75785714D01*
X92095295Y-75785714D02*
X92285771Y-75738095D01*
X92285771Y-75738095D02*
X92523866Y-75738095D01*
X92523866Y-75738095D02*
X92714342Y-75785714D01*
X92714342Y-75785714D02*
X92809580Y-75833333D01*
X92809580Y-75833333D02*
X92857200Y-75880952D01*
X92857200Y-75880952D02*
X92904819Y-75976190D01*
X92904819Y-75976190D02*
X92904819Y-76071428D01*
X92904819Y-76071428D02*
X92857200Y-76166666D01*
X92857200Y-76166666D02*
X92809580Y-76214285D01*
X92809580Y-76214285D02*
X92714342Y-76261904D01*
X92714342Y-76261904D02*
X92523866Y-76309523D01*
X92523866Y-76309523D02*
X92285771Y-76309523D01*
X92285771Y-76309523D02*
X92095295Y-76261904D01*
X92095295Y-76261904D02*
X92000057Y-76214285D01*
X92000057Y-76214285D02*
X91952438Y-76166666D01*
X91952438Y-76166666D02*
X91904819Y-76071428D01*
X37904819Y-92904285D02*
X36904819Y-92904285D01*
X36904819Y-92904285D02*
X36904819Y-92666190D01*
X36904819Y-92666190D02*
X36952438Y-92523333D01*
X36952438Y-92523333D02*
X37047676Y-92428095D01*
X37047676Y-92428095D02*
X37142914Y-92380476D01*
X37142914Y-92380476D02*
X37333390Y-92332857D01*
X37333390Y-92332857D02*
X37476247Y-92332857D01*
X37476247Y-92332857D02*
X37666723Y-92380476D01*
X37666723Y-92380476D02*
X37761961Y-92428095D01*
X37761961Y-92428095D02*
X37857200Y-92523333D01*
X37857200Y-92523333D02*
X37904819Y-92666190D01*
X37904819Y-92666190D02*
X37904819Y-92904285D01*
X36904819Y-91999523D02*
X36904819Y-91380476D01*
X36904819Y-91380476D02*
X37285771Y-91713809D01*
X37285771Y-91713809D02*
X37285771Y-91570952D01*
X37285771Y-91570952D02*
X37333390Y-91475714D01*
X37333390Y-91475714D02*
X37381009Y-91428095D01*
X37381009Y-91428095D02*
X37476247Y-91380476D01*
X37476247Y-91380476D02*
X37714342Y-91380476D01*
X37714342Y-91380476D02*
X37809580Y-91428095D01*
X37809580Y-91428095D02*
X37857200Y-91475714D01*
X37857200Y-91475714D02*
X37904819Y-91570952D01*
X37904819Y-91570952D02*
X37904819Y-91856666D01*
X37904819Y-91856666D02*
X37857200Y-91951904D01*
X37857200Y-91951904D02*
X37809580Y-91999523D01*
X36904819Y-90475714D02*
X36904819Y-90951904D01*
X36904819Y-90951904D02*
X37381009Y-90999523D01*
X37381009Y-90999523D02*
X37333390Y-90951904D01*
X37333390Y-90951904D02*
X37285771Y-90856666D01*
X37285771Y-90856666D02*
X37285771Y-90618571D01*
X37285771Y-90618571D02*
X37333390Y-90523333D01*
X37333390Y-90523333D02*
X37381009Y-90475714D01*
X37381009Y-90475714D02*
X37476247Y-90428095D01*
X37476247Y-90428095D02*
X37714342Y-90428095D01*
X37714342Y-90428095D02*
X37809580Y-90475714D01*
X37809580Y-90475714D02*
X37857200Y-90523333D01*
X37857200Y-90523333D02*
X37904819Y-90618571D01*
X37904819Y-90618571D02*
X37904819Y-90856666D01*
X37904819Y-90856666D02*
X37857200Y-90951904D01*
X37857200Y-90951904D02*
X37809580Y-90999523D01*
X128896666Y-65984819D02*
X128896666Y-66699104D01*
X128896666Y-66699104D02*
X128849047Y-66841961D01*
X128849047Y-66841961D02*
X128753809Y-66937200D01*
X128753809Y-66937200D02*
X128610952Y-66984819D01*
X128610952Y-66984819D02*
X128515714Y-66984819D01*
X129896666Y-66984819D02*
X129325238Y-66984819D01*
X129610952Y-66984819D02*
X129610952Y-65984819D01*
X129610952Y-65984819D02*
X129515714Y-66127676D01*
X129515714Y-66127676D02*
X129420476Y-66222914D01*
X129420476Y-66222914D02*
X129325238Y-66270533D01*
X32190059Y-88407200D02*
X32332916Y-88454819D01*
X32332916Y-88454819D02*
X32571011Y-88454819D01*
X32571011Y-88454819D02*
X32666249Y-88407200D01*
X32666249Y-88407200D02*
X32713868Y-88359580D01*
X32713868Y-88359580D02*
X32761487Y-88264342D01*
X32761487Y-88264342D02*
X32761487Y-88169104D01*
X32761487Y-88169104D02*
X32713868Y-88073866D01*
X32713868Y-88073866D02*
X32666249Y-88026247D01*
X32666249Y-88026247D02*
X32571011Y-87978628D01*
X32571011Y-87978628D02*
X32380535Y-87931009D01*
X32380535Y-87931009D02*
X32285297Y-87883390D01*
X32285297Y-87883390D02*
X32237678Y-87835771D01*
X32237678Y-87835771D02*
X32190059Y-87740533D01*
X32190059Y-87740533D02*
X32190059Y-87645295D01*
X32190059Y-87645295D02*
X32237678Y-87550057D01*
X32237678Y-87550057D02*
X32285297Y-87502438D01*
X32285297Y-87502438D02*
X32380535Y-87454819D01*
X32380535Y-87454819D02*
X32618630Y-87454819D01*
X32618630Y-87454819D02*
X32761487Y-87502438D01*
X33094821Y-87454819D02*
X33332916Y-88454819D01*
X33332916Y-88454819D02*
X33523392Y-87740533D01*
X33523392Y-87740533D02*
X33713868Y-88454819D01*
X33713868Y-88454819D02*
X33951964Y-87454819D01*
X34237678Y-87454819D02*
X34856725Y-87454819D01*
X34856725Y-87454819D02*
X34523392Y-87835771D01*
X34523392Y-87835771D02*
X34666249Y-87835771D01*
X34666249Y-87835771D02*
X34761487Y-87883390D01*
X34761487Y-87883390D02*
X34809106Y-87931009D01*
X34809106Y-87931009D02*
X34856725Y-88026247D01*
X34856725Y-88026247D02*
X34856725Y-88264342D01*
X34856725Y-88264342D02*
X34809106Y-88359580D01*
X34809106Y-88359580D02*
X34761487Y-88407200D01*
X34761487Y-88407200D02*
X34666249Y-88454819D01*
X34666249Y-88454819D02*
X34380535Y-88454819D01*
X34380535Y-88454819D02*
X34285297Y-88407200D01*
X34285297Y-88407200D02*
X34237678Y-88359580D01*
X35761487Y-87454819D02*
X35285297Y-87454819D01*
X35285297Y-87454819D02*
X35237678Y-87931009D01*
X35237678Y-87931009D02*
X35285297Y-87883390D01*
X35285297Y-87883390D02*
X35380535Y-87835771D01*
X35380535Y-87835771D02*
X35618630Y-87835771D01*
X35618630Y-87835771D02*
X35713868Y-87883390D01*
X35713868Y-87883390D02*
X35761487Y-87931009D01*
X35761487Y-87931009D02*
X35809106Y-88026247D01*
X35809106Y-88026247D02*
X35809106Y-88264342D01*
X35809106Y-88264342D02*
X35761487Y-88359580D01*
X35761487Y-88359580D02*
X35713868Y-88407200D01*
X35713868Y-88407200D02*
X35618630Y-88454819D01*
X35618630Y-88454819D02*
X35380535Y-88454819D01*
X35380535Y-88454819D02*
X35285297Y-88407200D01*
X35285297Y-88407200D02*
X35237678Y-88359580D01*
X90954819Y-42428094D02*
X89954819Y-42428094D01*
X89954819Y-42428094D02*
X89954819Y-42189999D01*
X89954819Y-42189999D02*
X90002438Y-42047142D01*
X90002438Y-42047142D02*
X90097676Y-41951904D01*
X90097676Y-41951904D02*
X90192914Y-41904285D01*
X90192914Y-41904285D02*
X90383390Y-41856666D01*
X90383390Y-41856666D02*
X90526247Y-41856666D01*
X90526247Y-41856666D02*
X90716723Y-41904285D01*
X90716723Y-41904285D02*
X90811961Y-41951904D01*
X90811961Y-41951904D02*
X90907200Y-42047142D01*
X90907200Y-42047142D02*
X90954819Y-42189999D01*
X90954819Y-42189999D02*
X90954819Y-42428094D01*
X89954819Y-40951904D02*
X89954819Y-41428094D01*
X89954819Y-41428094D02*
X90431009Y-41475713D01*
X90431009Y-41475713D02*
X90383390Y-41428094D01*
X90383390Y-41428094D02*
X90335771Y-41332856D01*
X90335771Y-41332856D02*
X90335771Y-41094761D01*
X90335771Y-41094761D02*
X90383390Y-40999523D01*
X90383390Y-40999523D02*
X90431009Y-40951904D01*
X90431009Y-40951904D02*
X90526247Y-40904285D01*
X90526247Y-40904285D02*
X90764342Y-40904285D01*
X90764342Y-40904285D02*
X90859580Y-40951904D01*
X90859580Y-40951904D02*
X90907200Y-40999523D01*
X90907200Y-40999523D02*
X90954819Y-41094761D01*
X90954819Y-41094761D02*
X90954819Y-41332856D01*
X90954819Y-41332856D02*
X90907200Y-41428094D01*
X90907200Y-41428094D02*
X90859580Y-41475713D01*
X125190476Y-38907200D02*
X125333333Y-38954819D01*
X125333333Y-38954819D02*
X125571428Y-38954819D01*
X125571428Y-38954819D02*
X125666666Y-38907200D01*
X125666666Y-38907200D02*
X125714285Y-38859580D01*
X125714285Y-38859580D02*
X125761904Y-38764342D01*
X125761904Y-38764342D02*
X125761904Y-38669104D01*
X125761904Y-38669104D02*
X125714285Y-38573866D01*
X125714285Y-38573866D02*
X125666666Y-38526247D01*
X125666666Y-38526247D02*
X125571428Y-38478628D01*
X125571428Y-38478628D02*
X125380952Y-38431009D01*
X125380952Y-38431009D02*
X125285714Y-38383390D01*
X125285714Y-38383390D02*
X125238095Y-38335771D01*
X125238095Y-38335771D02*
X125190476Y-38240533D01*
X125190476Y-38240533D02*
X125190476Y-38145295D01*
X125190476Y-38145295D02*
X125238095Y-38050057D01*
X125238095Y-38050057D02*
X125285714Y-38002438D01*
X125285714Y-38002438D02*
X125380952Y-37954819D01*
X125380952Y-37954819D02*
X125619047Y-37954819D01*
X125619047Y-37954819D02*
X125761904Y-38002438D01*
X126095238Y-37954819D02*
X126333333Y-38954819D01*
X126333333Y-38954819D02*
X126523809Y-38240533D01*
X126523809Y-38240533D02*
X126714285Y-38954819D01*
X126714285Y-38954819D02*
X126952381Y-37954819D01*
X127238095Y-37954819D02*
X127857142Y-37954819D01*
X127857142Y-37954819D02*
X127523809Y-38335771D01*
X127523809Y-38335771D02*
X127666666Y-38335771D01*
X127666666Y-38335771D02*
X127761904Y-38383390D01*
X127761904Y-38383390D02*
X127809523Y-38431009D01*
X127809523Y-38431009D02*
X127857142Y-38526247D01*
X127857142Y-38526247D02*
X127857142Y-38764342D01*
X127857142Y-38764342D02*
X127809523Y-38859580D01*
X127809523Y-38859580D02*
X127761904Y-38907200D01*
X127761904Y-38907200D02*
X127666666Y-38954819D01*
X127666666Y-38954819D02*
X127380952Y-38954819D01*
X127380952Y-38954819D02*
X127285714Y-38907200D01*
X127285714Y-38907200D02*
X127238095Y-38859580D01*
X128190476Y-37954819D02*
X128809523Y-37954819D01*
X128809523Y-37954819D02*
X128476190Y-38335771D01*
X128476190Y-38335771D02*
X128619047Y-38335771D01*
X128619047Y-38335771D02*
X128714285Y-38383390D01*
X128714285Y-38383390D02*
X128761904Y-38431009D01*
X128761904Y-38431009D02*
X128809523Y-38526247D01*
X128809523Y-38526247D02*
X128809523Y-38764342D01*
X128809523Y-38764342D02*
X128761904Y-38859580D01*
X128761904Y-38859580D02*
X128714285Y-38907200D01*
X128714285Y-38907200D02*
X128619047Y-38954819D01*
X128619047Y-38954819D02*
X128333333Y-38954819D01*
X128333333Y-38954819D02*
X128238095Y-38907200D01*
X128238095Y-38907200D02*
X128190476Y-38859580D01*
X105190476Y-38907200D02*
X105333333Y-38954819D01*
X105333333Y-38954819D02*
X105571428Y-38954819D01*
X105571428Y-38954819D02*
X105666666Y-38907200D01*
X105666666Y-38907200D02*
X105714285Y-38859580D01*
X105714285Y-38859580D02*
X105761904Y-38764342D01*
X105761904Y-38764342D02*
X105761904Y-38669104D01*
X105761904Y-38669104D02*
X105714285Y-38573866D01*
X105714285Y-38573866D02*
X105666666Y-38526247D01*
X105666666Y-38526247D02*
X105571428Y-38478628D01*
X105571428Y-38478628D02*
X105380952Y-38431009D01*
X105380952Y-38431009D02*
X105285714Y-38383390D01*
X105285714Y-38383390D02*
X105238095Y-38335771D01*
X105238095Y-38335771D02*
X105190476Y-38240533D01*
X105190476Y-38240533D02*
X105190476Y-38145295D01*
X105190476Y-38145295D02*
X105238095Y-38050057D01*
X105238095Y-38050057D02*
X105285714Y-38002438D01*
X105285714Y-38002438D02*
X105380952Y-37954819D01*
X105380952Y-37954819D02*
X105619047Y-37954819D01*
X105619047Y-37954819D02*
X105761904Y-38002438D01*
X106095238Y-37954819D02*
X106333333Y-38954819D01*
X106333333Y-38954819D02*
X106523809Y-38240533D01*
X106523809Y-38240533D02*
X106714285Y-38954819D01*
X106714285Y-38954819D02*
X106952381Y-37954819D01*
X107238095Y-37954819D02*
X107857142Y-37954819D01*
X107857142Y-37954819D02*
X107523809Y-38335771D01*
X107523809Y-38335771D02*
X107666666Y-38335771D01*
X107666666Y-38335771D02*
X107761904Y-38383390D01*
X107761904Y-38383390D02*
X107809523Y-38431009D01*
X107809523Y-38431009D02*
X107857142Y-38526247D01*
X107857142Y-38526247D02*
X107857142Y-38764342D01*
X107857142Y-38764342D02*
X107809523Y-38859580D01*
X107809523Y-38859580D02*
X107761904Y-38907200D01*
X107761904Y-38907200D02*
X107666666Y-38954819D01*
X107666666Y-38954819D02*
X107380952Y-38954819D01*
X107380952Y-38954819D02*
X107285714Y-38907200D01*
X107285714Y-38907200D02*
X107238095Y-38859580D01*
X108809523Y-38954819D02*
X108238095Y-38954819D01*
X108523809Y-38954819D02*
X108523809Y-37954819D01*
X108523809Y-37954819D02*
X108428571Y-38097676D01*
X108428571Y-38097676D02*
X108333333Y-38192914D01*
X108333333Y-38192914D02*
X108238095Y-38240533D01*
X57904819Y-77904285D02*
X56904819Y-77904285D01*
X56904819Y-77904285D02*
X56904819Y-77666190D01*
X56904819Y-77666190D02*
X56952438Y-77523333D01*
X56952438Y-77523333D02*
X57047676Y-77428095D01*
X57047676Y-77428095D02*
X57142914Y-77380476D01*
X57142914Y-77380476D02*
X57333390Y-77332857D01*
X57333390Y-77332857D02*
X57476247Y-77332857D01*
X57476247Y-77332857D02*
X57666723Y-77380476D01*
X57666723Y-77380476D02*
X57761961Y-77428095D01*
X57761961Y-77428095D02*
X57857200Y-77523333D01*
X57857200Y-77523333D02*
X57904819Y-77666190D01*
X57904819Y-77666190D02*
X57904819Y-77904285D01*
X56904819Y-76999523D02*
X56904819Y-76380476D01*
X56904819Y-76380476D02*
X57285771Y-76713809D01*
X57285771Y-76713809D02*
X57285771Y-76570952D01*
X57285771Y-76570952D02*
X57333390Y-76475714D01*
X57333390Y-76475714D02*
X57381009Y-76428095D01*
X57381009Y-76428095D02*
X57476247Y-76380476D01*
X57476247Y-76380476D02*
X57714342Y-76380476D01*
X57714342Y-76380476D02*
X57809580Y-76428095D01*
X57809580Y-76428095D02*
X57857200Y-76475714D01*
X57857200Y-76475714D02*
X57904819Y-76570952D01*
X57904819Y-76570952D02*
X57904819Y-76856666D01*
X57904819Y-76856666D02*
X57857200Y-76951904D01*
X57857200Y-76951904D02*
X57809580Y-76999523D01*
X56904819Y-76047142D02*
X56904819Y-75380476D01*
X56904819Y-75380476D02*
X57904819Y-75809047D01*
X52190059Y-88407200D02*
X52332916Y-88454819D01*
X52332916Y-88454819D02*
X52571011Y-88454819D01*
X52571011Y-88454819D02*
X52666249Y-88407200D01*
X52666249Y-88407200D02*
X52713868Y-88359580D01*
X52713868Y-88359580D02*
X52761487Y-88264342D01*
X52761487Y-88264342D02*
X52761487Y-88169104D01*
X52761487Y-88169104D02*
X52713868Y-88073866D01*
X52713868Y-88073866D02*
X52666249Y-88026247D01*
X52666249Y-88026247D02*
X52571011Y-87978628D01*
X52571011Y-87978628D02*
X52380535Y-87931009D01*
X52380535Y-87931009D02*
X52285297Y-87883390D01*
X52285297Y-87883390D02*
X52237678Y-87835771D01*
X52237678Y-87835771D02*
X52190059Y-87740533D01*
X52190059Y-87740533D02*
X52190059Y-87645295D01*
X52190059Y-87645295D02*
X52237678Y-87550057D01*
X52237678Y-87550057D02*
X52285297Y-87502438D01*
X52285297Y-87502438D02*
X52380535Y-87454819D01*
X52380535Y-87454819D02*
X52618630Y-87454819D01*
X52618630Y-87454819D02*
X52761487Y-87502438D01*
X53094821Y-87454819D02*
X53332916Y-88454819D01*
X53332916Y-88454819D02*
X53523392Y-87740533D01*
X53523392Y-87740533D02*
X53713868Y-88454819D01*
X53713868Y-88454819D02*
X53951964Y-87454819D01*
X54237678Y-87454819D02*
X54856725Y-87454819D01*
X54856725Y-87454819D02*
X54523392Y-87835771D01*
X54523392Y-87835771D02*
X54666249Y-87835771D01*
X54666249Y-87835771D02*
X54761487Y-87883390D01*
X54761487Y-87883390D02*
X54809106Y-87931009D01*
X54809106Y-87931009D02*
X54856725Y-88026247D01*
X54856725Y-88026247D02*
X54856725Y-88264342D01*
X54856725Y-88264342D02*
X54809106Y-88359580D01*
X54809106Y-88359580D02*
X54761487Y-88407200D01*
X54761487Y-88407200D02*
X54666249Y-88454819D01*
X54666249Y-88454819D02*
X54380535Y-88454819D01*
X54380535Y-88454819D02*
X54285297Y-88407200D01*
X54285297Y-88407200D02*
X54237678Y-88359580D01*
X55428154Y-87883390D02*
X55332916Y-87835771D01*
X55332916Y-87835771D02*
X55285297Y-87788152D01*
X55285297Y-87788152D02*
X55237678Y-87692914D01*
X55237678Y-87692914D02*
X55237678Y-87645295D01*
X55237678Y-87645295D02*
X55285297Y-87550057D01*
X55285297Y-87550057D02*
X55332916Y-87502438D01*
X55332916Y-87502438D02*
X55428154Y-87454819D01*
X55428154Y-87454819D02*
X55618630Y-87454819D01*
X55618630Y-87454819D02*
X55713868Y-87502438D01*
X55713868Y-87502438D02*
X55761487Y-87550057D01*
X55761487Y-87550057D02*
X55809106Y-87645295D01*
X55809106Y-87645295D02*
X55809106Y-87692914D01*
X55809106Y-87692914D02*
X55761487Y-87788152D01*
X55761487Y-87788152D02*
X55713868Y-87835771D01*
X55713868Y-87835771D02*
X55618630Y-87883390D01*
X55618630Y-87883390D02*
X55428154Y-87883390D01*
X55428154Y-87883390D02*
X55332916Y-87931009D01*
X55332916Y-87931009D02*
X55285297Y-87978628D01*
X55285297Y-87978628D02*
X55237678Y-88073866D01*
X55237678Y-88073866D02*
X55237678Y-88264342D01*
X55237678Y-88264342D02*
X55285297Y-88359580D01*
X55285297Y-88359580D02*
X55332916Y-88407200D01*
X55332916Y-88407200D02*
X55428154Y-88454819D01*
X55428154Y-88454819D02*
X55618630Y-88454819D01*
X55618630Y-88454819D02*
X55713868Y-88407200D01*
X55713868Y-88407200D02*
X55761487Y-88359580D01*
X55761487Y-88359580D02*
X55809106Y-88264342D01*
X55809106Y-88264342D02*
X55809106Y-88073866D01*
X55809106Y-88073866D02*
X55761487Y-87978628D01*
X55761487Y-87978628D02*
X55713868Y-87931009D01*
X55713868Y-87931009D02*
X55618630Y-87883390D01*
X58004819Y-63524285D02*
X57004819Y-63524285D01*
X57004819Y-63524285D02*
X57004819Y-63286190D01*
X57004819Y-63286190D02*
X57052438Y-63143333D01*
X57052438Y-63143333D02*
X57147676Y-63048095D01*
X57147676Y-63048095D02*
X57242914Y-63000476D01*
X57242914Y-63000476D02*
X57433390Y-62952857D01*
X57433390Y-62952857D02*
X57576247Y-62952857D01*
X57576247Y-62952857D02*
X57766723Y-63000476D01*
X57766723Y-63000476D02*
X57861961Y-63048095D01*
X57861961Y-63048095D02*
X57957200Y-63143333D01*
X57957200Y-63143333D02*
X58004819Y-63286190D01*
X58004819Y-63286190D02*
X58004819Y-63524285D01*
X57338152Y-62095714D02*
X58004819Y-62095714D01*
X56957200Y-62333809D02*
X57671485Y-62571904D01*
X57671485Y-62571904D02*
X57671485Y-61952857D01*
X57433390Y-61429047D02*
X57385771Y-61524285D01*
X57385771Y-61524285D02*
X57338152Y-61571904D01*
X57338152Y-61571904D02*
X57242914Y-61619523D01*
X57242914Y-61619523D02*
X57195295Y-61619523D01*
X57195295Y-61619523D02*
X57100057Y-61571904D01*
X57100057Y-61571904D02*
X57052438Y-61524285D01*
X57052438Y-61524285D02*
X57004819Y-61429047D01*
X57004819Y-61429047D02*
X57004819Y-61238571D01*
X57004819Y-61238571D02*
X57052438Y-61143333D01*
X57052438Y-61143333D02*
X57100057Y-61095714D01*
X57100057Y-61095714D02*
X57195295Y-61048095D01*
X57195295Y-61048095D02*
X57242914Y-61048095D01*
X57242914Y-61048095D02*
X57338152Y-61095714D01*
X57338152Y-61095714D02*
X57385771Y-61143333D01*
X57385771Y-61143333D02*
X57433390Y-61238571D01*
X57433390Y-61238571D02*
X57433390Y-61429047D01*
X57433390Y-61429047D02*
X57481009Y-61524285D01*
X57481009Y-61524285D02*
X57528628Y-61571904D01*
X57528628Y-61571904D02*
X57623866Y-61619523D01*
X57623866Y-61619523D02*
X57814342Y-61619523D01*
X57814342Y-61619523D02*
X57909580Y-61571904D01*
X57909580Y-61571904D02*
X57957200Y-61524285D01*
X57957200Y-61524285D02*
X58004819Y-61429047D01*
X58004819Y-61429047D02*
X58004819Y-61238571D01*
X58004819Y-61238571D02*
X57957200Y-61143333D01*
X57957200Y-61143333D02*
X57909580Y-61095714D01*
X57909580Y-61095714D02*
X57814342Y-61048095D01*
X57814342Y-61048095D02*
X57623866Y-61048095D01*
X57623866Y-61048095D02*
X57528628Y-61095714D01*
X57528628Y-61095714D02*
X57481009Y-61143333D01*
X57481009Y-61143333D02*
X57433390Y-61238571D01*
X38004819Y-63524285D02*
X37004819Y-63524285D01*
X37004819Y-63524285D02*
X37004819Y-63286190D01*
X37004819Y-63286190D02*
X37052438Y-63143333D01*
X37052438Y-63143333D02*
X37147676Y-63048095D01*
X37147676Y-63048095D02*
X37242914Y-63000476D01*
X37242914Y-63000476D02*
X37433390Y-62952857D01*
X37433390Y-62952857D02*
X37576247Y-62952857D01*
X37576247Y-62952857D02*
X37766723Y-63000476D01*
X37766723Y-63000476D02*
X37861961Y-63048095D01*
X37861961Y-63048095D02*
X37957200Y-63143333D01*
X37957200Y-63143333D02*
X38004819Y-63286190D01*
X38004819Y-63286190D02*
X38004819Y-63524285D01*
X37338152Y-62095714D02*
X38004819Y-62095714D01*
X36957200Y-62333809D02*
X37671485Y-62571904D01*
X37671485Y-62571904D02*
X37671485Y-61952857D01*
X37004819Y-61143333D02*
X37004819Y-61333809D01*
X37004819Y-61333809D02*
X37052438Y-61429047D01*
X37052438Y-61429047D02*
X37100057Y-61476666D01*
X37100057Y-61476666D02*
X37242914Y-61571904D01*
X37242914Y-61571904D02*
X37433390Y-61619523D01*
X37433390Y-61619523D02*
X37814342Y-61619523D01*
X37814342Y-61619523D02*
X37909580Y-61571904D01*
X37909580Y-61571904D02*
X37957200Y-61524285D01*
X37957200Y-61524285D02*
X38004819Y-61429047D01*
X38004819Y-61429047D02*
X38004819Y-61238571D01*
X38004819Y-61238571D02*
X37957200Y-61143333D01*
X37957200Y-61143333D02*
X37909580Y-61095714D01*
X37909580Y-61095714D02*
X37814342Y-61048095D01*
X37814342Y-61048095D02*
X37576247Y-61048095D01*
X37576247Y-61048095D02*
X37481009Y-61095714D01*
X37481009Y-61095714D02*
X37433390Y-61143333D01*
X37433390Y-61143333D02*
X37385771Y-61238571D01*
X37385771Y-61238571D02*
X37385771Y-61429047D01*
X37385771Y-61429047D02*
X37433390Y-61524285D01*
X37433390Y-61524285D02*
X37481009Y-61571904D01*
X37481009Y-61571904D02*
X37576247Y-61619523D01*
X52190059Y-73907200D02*
X52332916Y-73954819D01*
X52332916Y-73954819D02*
X52571011Y-73954819D01*
X52571011Y-73954819D02*
X52666249Y-73907200D01*
X52666249Y-73907200D02*
X52713868Y-73859580D01*
X52713868Y-73859580D02*
X52761487Y-73764342D01*
X52761487Y-73764342D02*
X52761487Y-73669104D01*
X52761487Y-73669104D02*
X52713868Y-73573866D01*
X52713868Y-73573866D02*
X52666249Y-73526247D01*
X52666249Y-73526247D02*
X52571011Y-73478628D01*
X52571011Y-73478628D02*
X52380535Y-73431009D01*
X52380535Y-73431009D02*
X52285297Y-73383390D01*
X52285297Y-73383390D02*
X52237678Y-73335771D01*
X52237678Y-73335771D02*
X52190059Y-73240533D01*
X52190059Y-73240533D02*
X52190059Y-73145295D01*
X52190059Y-73145295D02*
X52237678Y-73050057D01*
X52237678Y-73050057D02*
X52285297Y-73002438D01*
X52285297Y-73002438D02*
X52380535Y-72954819D01*
X52380535Y-72954819D02*
X52618630Y-72954819D01*
X52618630Y-72954819D02*
X52761487Y-73002438D01*
X53094821Y-72954819D02*
X53332916Y-73954819D01*
X53332916Y-73954819D02*
X53523392Y-73240533D01*
X53523392Y-73240533D02*
X53713868Y-73954819D01*
X53713868Y-73954819D02*
X53951964Y-72954819D01*
X54237678Y-72954819D02*
X54856725Y-72954819D01*
X54856725Y-72954819D02*
X54523392Y-73335771D01*
X54523392Y-73335771D02*
X54666249Y-73335771D01*
X54666249Y-73335771D02*
X54761487Y-73383390D01*
X54761487Y-73383390D02*
X54809106Y-73431009D01*
X54809106Y-73431009D02*
X54856725Y-73526247D01*
X54856725Y-73526247D02*
X54856725Y-73764342D01*
X54856725Y-73764342D02*
X54809106Y-73859580D01*
X54809106Y-73859580D02*
X54761487Y-73907200D01*
X54761487Y-73907200D02*
X54666249Y-73954819D01*
X54666249Y-73954819D02*
X54380535Y-73954819D01*
X54380535Y-73954819D02*
X54285297Y-73907200D01*
X54285297Y-73907200D02*
X54237678Y-73859580D01*
X55190059Y-72954819D02*
X55856725Y-72954819D01*
X55856725Y-72954819D02*
X55428154Y-73954819D01*
X48004819Y-63524285D02*
X47004819Y-63524285D01*
X47004819Y-63524285D02*
X47004819Y-63286190D01*
X47004819Y-63286190D02*
X47052438Y-63143333D01*
X47052438Y-63143333D02*
X47147676Y-63048095D01*
X47147676Y-63048095D02*
X47242914Y-63000476D01*
X47242914Y-63000476D02*
X47433390Y-62952857D01*
X47433390Y-62952857D02*
X47576247Y-62952857D01*
X47576247Y-62952857D02*
X47766723Y-63000476D01*
X47766723Y-63000476D02*
X47861961Y-63048095D01*
X47861961Y-63048095D02*
X47957200Y-63143333D01*
X47957200Y-63143333D02*
X48004819Y-63286190D01*
X48004819Y-63286190D02*
X48004819Y-63524285D01*
X47338152Y-62095714D02*
X48004819Y-62095714D01*
X46957200Y-62333809D02*
X47671485Y-62571904D01*
X47671485Y-62571904D02*
X47671485Y-61952857D01*
X47004819Y-61667142D02*
X47004819Y-61000476D01*
X47004819Y-61000476D02*
X48004819Y-61429047D01*
X67190059Y-81157200D02*
X67332916Y-81204819D01*
X67332916Y-81204819D02*
X67571011Y-81204819D01*
X67571011Y-81204819D02*
X67666249Y-81157200D01*
X67666249Y-81157200D02*
X67713868Y-81109580D01*
X67713868Y-81109580D02*
X67761487Y-81014342D01*
X67761487Y-81014342D02*
X67761487Y-80919104D01*
X67761487Y-80919104D02*
X67713868Y-80823866D01*
X67713868Y-80823866D02*
X67666249Y-80776247D01*
X67666249Y-80776247D02*
X67571011Y-80728628D01*
X67571011Y-80728628D02*
X67380535Y-80681009D01*
X67380535Y-80681009D02*
X67285297Y-80633390D01*
X67285297Y-80633390D02*
X67237678Y-80585771D01*
X67237678Y-80585771D02*
X67190059Y-80490533D01*
X67190059Y-80490533D02*
X67190059Y-80395295D01*
X67190059Y-80395295D02*
X67237678Y-80300057D01*
X67237678Y-80300057D02*
X67285297Y-80252438D01*
X67285297Y-80252438D02*
X67380535Y-80204819D01*
X67380535Y-80204819D02*
X67618630Y-80204819D01*
X67618630Y-80204819D02*
X67761487Y-80252438D01*
X68094821Y-80204819D02*
X68332916Y-81204819D01*
X68332916Y-81204819D02*
X68523392Y-80490533D01*
X68523392Y-80490533D02*
X68713868Y-81204819D01*
X68713868Y-81204819D02*
X68951964Y-80204819D01*
X69237678Y-80204819D02*
X69856725Y-80204819D01*
X69856725Y-80204819D02*
X69523392Y-80585771D01*
X69523392Y-80585771D02*
X69666249Y-80585771D01*
X69666249Y-80585771D02*
X69761487Y-80633390D01*
X69761487Y-80633390D02*
X69809106Y-80681009D01*
X69809106Y-80681009D02*
X69856725Y-80776247D01*
X69856725Y-80776247D02*
X69856725Y-81014342D01*
X69856725Y-81014342D02*
X69809106Y-81109580D01*
X69809106Y-81109580D02*
X69761487Y-81157200D01*
X69761487Y-81157200D02*
X69666249Y-81204819D01*
X69666249Y-81204819D02*
X69380535Y-81204819D01*
X69380535Y-81204819D02*
X69285297Y-81157200D01*
X69285297Y-81157200D02*
X69237678Y-81109580D01*
X70332916Y-81204819D02*
X70523392Y-81204819D01*
X70523392Y-81204819D02*
X70618630Y-81157200D01*
X70618630Y-81157200D02*
X70666249Y-81109580D01*
X70666249Y-81109580D02*
X70761487Y-80966723D01*
X70761487Y-80966723D02*
X70809106Y-80776247D01*
X70809106Y-80776247D02*
X70809106Y-80395295D01*
X70809106Y-80395295D02*
X70761487Y-80300057D01*
X70761487Y-80300057D02*
X70713868Y-80252438D01*
X70713868Y-80252438D02*
X70618630Y-80204819D01*
X70618630Y-80204819D02*
X70428154Y-80204819D01*
X70428154Y-80204819D02*
X70332916Y-80252438D01*
X70332916Y-80252438D02*
X70285297Y-80300057D01*
X70285297Y-80300057D02*
X70237678Y-80395295D01*
X70237678Y-80395295D02*
X70237678Y-80633390D01*
X70237678Y-80633390D02*
X70285297Y-80728628D01*
X70285297Y-80728628D02*
X70332916Y-80776247D01*
X70332916Y-80776247D02*
X70428154Y-80823866D01*
X70428154Y-80823866D02*
X70618630Y-80823866D01*
X70618630Y-80823866D02*
X70713868Y-80776247D01*
X70713868Y-80776247D02*
X70761487Y-80728628D01*
X70761487Y-80728628D02*
X70809106Y-80633390D01*
X68004819Y-63524285D02*
X67004819Y-63524285D01*
X67004819Y-63524285D02*
X67004819Y-63286190D01*
X67004819Y-63286190D02*
X67052438Y-63143333D01*
X67052438Y-63143333D02*
X67147676Y-63048095D01*
X67147676Y-63048095D02*
X67242914Y-63000476D01*
X67242914Y-63000476D02*
X67433390Y-62952857D01*
X67433390Y-62952857D02*
X67576247Y-62952857D01*
X67576247Y-62952857D02*
X67766723Y-63000476D01*
X67766723Y-63000476D02*
X67861961Y-63048095D01*
X67861961Y-63048095D02*
X67957200Y-63143333D01*
X67957200Y-63143333D02*
X68004819Y-63286190D01*
X68004819Y-63286190D02*
X68004819Y-63524285D01*
X67338152Y-62095714D02*
X68004819Y-62095714D01*
X66957200Y-62333809D02*
X67671485Y-62571904D01*
X67671485Y-62571904D02*
X67671485Y-61952857D01*
X68004819Y-61524285D02*
X68004819Y-61333809D01*
X68004819Y-61333809D02*
X67957200Y-61238571D01*
X67957200Y-61238571D02*
X67909580Y-61190952D01*
X67909580Y-61190952D02*
X67766723Y-61095714D01*
X67766723Y-61095714D02*
X67576247Y-61048095D01*
X67576247Y-61048095D02*
X67195295Y-61048095D01*
X67195295Y-61048095D02*
X67100057Y-61095714D01*
X67100057Y-61095714D02*
X67052438Y-61143333D01*
X67052438Y-61143333D02*
X67004819Y-61238571D01*
X67004819Y-61238571D02*
X67004819Y-61429047D01*
X67004819Y-61429047D02*
X67052438Y-61524285D01*
X67052438Y-61524285D02*
X67100057Y-61571904D01*
X67100057Y-61571904D02*
X67195295Y-61619523D01*
X67195295Y-61619523D02*
X67433390Y-61619523D01*
X67433390Y-61619523D02*
X67528628Y-61571904D01*
X67528628Y-61571904D02*
X67576247Y-61524285D01*
X67576247Y-61524285D02*
X67623866Y-61429047D01*
X67623866Y-61429047D02*
X67623866Y-61238571D01*
X67623866Y-61238571D02*
X67576247Y-61143333D01*
X67576247Y-61143333D02*
X67528628Y-61095714D01*
X67528628Y-61095714D02*
X67433390Y-61048095D01*
X130904819Y-57404285D02*
X129904819Y-57404285D01*
X129904819Y-57404285D02*
X129904819Y-57166190D01*
X129904819Y-57166190D02*
X129952438Y-57023333D01*
X129952438Y-57023333D02*
X130047676Y-56928095D01*
X130047676Y-56928095D02*
X130142914Y-56880476D01*
X130142914Y-56880476D02*
X130333390Y-56832857D01*
X130333390Y-56832857D02*
X130476247Y-56832857D01*
X130476247Y-56832857D02*
X130666723Y-56880476D01*
X130666723Y-56880476D02*
X130761961Y-56928095D01*
X130761961Y-56928095D02*
X130857200Y-57023333D01*
X130857200Y-57023333D02*
X130904819Y-57166190D01*
X130904819Y-57166190D02*
X130904819Y-57404285D01*
X129904819Y-56499523D02*
X129904819Y-55880476D01*
X129904819Y-55880476D02*
X130285771Y-56213809D01*
X130285771Y-56213809D02*
X130285771Y-56070952D01*
X130285771Y-56070952D02*
X130333390Y-55975714D01*
X130333390Y-55975714D02*
X130381009Y-55928095D01*
X130381009Y-55928095D02*
X130476247Y-55880476D01*
X130476247Y-55880476D02*
X130714342Y-55880476D01*
X130714342Y-55880476D02*
X130809580Y-55928095D01*
X130809580Y-55928095D02*
X130857200Y-55975714D01*
X130857200Y-55975714D02*
X130904819Y-56070952D01*
X130904819Y-56070952D02*
X130904819Y-56356666D01*
X130904819Y-56356666D02*
X130857200Y-56451904D01*
X130857200Y-56451904D02*
X130809580Y-56499523D01*
X130238152Y-55023333D02*
X130904819Y-55023333D01*
X129857200Y-55261428D02*
X130571485Y-55499523D01*
X130571485Y-55499523D02*
X130571485Y-54880476D01*
X87190059Y-73907200D02*
X87332916Y-73954819D01*
X87332916Y-73954819D02*
X87571011Y-73954819D01*
X87571011Y-73954819D02*
X87666249Y-73907200D01*
X87666249Y-73907200D02*
X87713868Y-73859580D01*
X87713868Y-73859580D02*
X87761487Y-73764342D01*
X87761487Y-73764342D02*
X87761487Y-73669104D01*
X87761487Y-73669104D02*
X87713868Y-73573866D01*
X87713868Y-73573866D02*
X87666249Y-73526247D01*
X87666249Y-73526247D02*
X87571011Y-73478628D01*
X87571011Y-73478628D02*
X87380535Y-73431009D01*
X87380535Y-73431009D02*
X87285297Y-73383390D01*
X87285297Y-73383390D02*
X87237678Y-73335771D01*
X87237678Y-73335771D02*
X87190059Y-73240533D01*
X87190059Y-73240533D02*
X87190059Y-73145295D01*
X87190059Y-73145295D02*
X87237678Y-73050057D01*
X87237678Y-73050057D02*
X87285297Y-73002438D01*
X87285297Y-73002438D02*
X87380535Y-72954819D01*
X87380535Y-72954819D02*
X87618630Y-72954819D01*
X87618630Y-72954819D02*
X87761487Y-73002438D01*
X88094821Y-72954819D02*
X88332916Y-73954819D01*
X88332916Y-73954819D02*
X88523392Y-73240533D01*
X88523392Y-73240533D02*
X88713868Y-73954819D01*
X88713868Y-73954819D02*
X88951964Y-72954819D01*
X89761487Y-73288152D02*
X89761487Y-73954819D01*
X89523392Y-72907200D02*
X89285297Y-73621485D01*
X89285297Y-73621485D02*
X89904344Y-73621485D01*
X90475773Y-72954819D02*
X90571011Y-72954819D01*
X90571011Y-72954819D02*
X90666249Y-73002438D01*
X90666249Y-73002438D02*
X90713868Y-73050057D01*
X90713868Y-73050057D02*
X90761487Y-73145295D01*
X90761487Y-73145295D02*
X90809106Y-73335771D01*
X90809106Y-73335771D02*
X90809106Y-73573866D01*
X90809106Y-73573866D02*
X90761487Y-73764342D01*
X90761487Y-73764342D02*
X90713868Y-73859580D01*
X90713868Y-73859580D02*
X90666249Y-73907200D01*
X90666249Y-73907200D02*
X90571011Y-73954819D01*
X90571011Y-73954819D02*
X90475773Y-73954819D01*
X90475773Y-73954819D02*
X90380535Y-73907200D01*
X90380535Y-73907200D02*
X90332916Y-73859580D01*
X90332916Y-73859580D02*
X90285297Y-73764342D01*
X90285297Y-73764342D02*
X90237678Y-73573866D01*
X90237678Y-73573866D02*
X90237678Y-73335771D01*
X90237678Y-73335771D02*
X90285297Y-73145295D01*
X90285297Y-73145295D02*
X90332916Y-73050057D01*
X90332916Y-73050057D02*
X90380535Y-73002438D01*
X90380535Y-73002438D02*
X90475773Y-72954819D01*
X107190059Y-88407200D02*
X107332916Y-88454819D01*
X107332916Y-88454819D02*
X107571011Y-88454819D01*
X107571011Y-88454819D02*
X107666249Y-88407200D01*
X107666249Y-88407200D02*
X107713868Y-88359580D01*
X107713868Y-88359580D02*
X107761487Y-88264342D01*
X107761487Y-88264342D02*
X107761487Y-88169104D01*
X107761487Y-88169104D02*
X107713868Y-88073866D01*
X107713868Y-88073866D02*
X107666249Y-88026247D01*
X107666249Y-88026247D02*
X107571011Y-87978628D01*
X107571011Y-87978628D02*
X107380535Y-87931009D01*
X107380535Y-87931009D02*
X107285297Y-87883390D01*
X107285297Y-87883390D02*
X107237678Y-87835771D01*
X107237678Y-87835771D02*
X107190059Y-87740533D01*
X107190059Y-87740533D02*
X107190059Y-87645295D01*
X107190059Y-87645295D02*
X107237678Y-87550057D01*
X107237678Y-87550057D02*
X107285297Y-87502438D01*
X107285297Y-87502438D02*
X107380535Y-87454819D01*
X107380535Y-87454819D02*
X107618630Y-87454819D01*
X107618630Y-87454819D02*
X107761487Y-87502438D01*
X108094821Y-87454819D02*
X108332916Y-88454819D01*
X108332916Y-88454819D02*
X108523392Y-87740533D01*
X108523392Y-87740533D02*
X108713868Y-88454819D01*
X108713868Y-88454819D02*
X108951964Y-87454819D01*
X109761487Y-87788152D02*
X109761487Y-88454819D01*
X109523392Y-87407200D02*
X109285297Y-88121485D01*
X109285297Y-88121485D02*
X109904344Y-88121485D01*
X110190059Y-87454819D02*
X110809106Y-87454819D01*
X110809106Y-87454819D02*
X110475773Y-87835771D01*
X110475773Y-87835771D02*
X110618630Y-87835771D01*
X110618630Y-87835771D02*
X110713868Y-87883390D01*
X110713868Y-87883390D02*
X110761487Y-87931009D01*
X110761487Y-87931009D02*
X110809106Y-88026247D01*
X110809106Y-88026247D02*
X110809106Y-88264342D01*
X110809106Y-88264342D02*
X110761487Y-88359580D01*
X110761487Y-88359580D02*
X110713868Y-88407200D01*
X110713868Y-88407200D02*
X110618630Y-88454819D01*
X110618630Y-88454819D02*
X110332916Y-88454819D01*
X110332916Y-88454819D02*
X110237678Y-88407200D01*
X110237678Y-88407200D02*
X110190059Y-88359580D01*
X57904819Y-92404285D02*
X56904819Y-92404285D01*
X56904819Y-92404285D02*
X56904819Y-92166190D01*
X56904819Y-92166190D02*
X56952438Y-92023333D01*
X56952438Y-92023333D02*
X57047676Y-91928095D01*
X57047676Y-91928095D02*
X57142914Y-91880476D01*
X57142914Y-91880476D02*
X57333390Y-91832857D01*
X57333390Y-91832857D02*
X57476247Y-91832857D01*
X57476247Y-91832857D02*
X57666723Y-91880476D01*
X57666723Y-91880476D02*
X57761961Y-91928095D01*
X57761961Y-91928095D02*
X57857200Y-92023333D01*
X57857200Y-92023333D02*
X57904819Y-92166190D01*
X57904819Y-92166190D02*
X57904819Y-92404285D01*
X56904819Y-91499523D02*
X56904819Y-90880476D01*
X56904819Y-90880476D02*
X57285771Y-91213809D01*
X57285771Y-91213809D02*
X57285771Y-91070952D01*
X57285771Y-91070952D02*
X57333390Y-90975714D01*
X57333390Y-90975714D02*
X57381009Y-90928095D01*
X57381009Y-90928095D02*
X57476247Y-90880476D01*
X57476247Y-90880476D02*
X57714342Y-90880476D01*
X57714342Y-90880476D02*
X57809580Y-90928095D01*
X57809580Y-90928095D02*
X57857200Y-90975714D01*
X57857200Y-90975714D02*
X57904819Y-91070952D01*
X57904819Y-91070952D02*
X57904819Y-91356666D01*
X57904819Y-91356666D02*
X57857200Y-91451904D01*
X57857200Y-91451904D02*
X57809580Y-91499523D01*
X57333390Y-90309047D02*
X57285771Y-90404285D01*
X57285771Y-90404285D02*
X57238152Y-90451904D01*
X57238152Y-90451904D02*
X57142914Y-90499523D01*
X57142914Y-90499523D02*
X57095295Y-90499523D01*
X57095295Y-90499523D02*
X57000057Y-90451904D01*
X57000057Y-90451904D02*
X56952438Y-90404285D01*
X56952438Y-90404285D02*
X56904819Y-90309047D01*
X56904819Y-90309047D02*
X56904819Y-90118571D01*
X56904819Y-90118571D02*
X56952438Y-90023333D01*
X56952438Y-90023333D02*
X57000057Y-89975714D01*
X57000057Y-89975714D02*
X57095295Y-89928095D01*
X57095295Y-89928095D02*
X57142914Y-89928095D01*
X57142914Y-89928095D02*
X57238152Y-89975714D01*
X57238152Y-89975714D02*
X57285771Y-90023333D01*
X57285771Y-90023333D02*
X57333390Y-90118571D01*
X57333390Y-90118571D02*
X57333390Y-90309047D01*
X57333390Y-90309047D02*
X57381009Y-90404285D01*
X57381009Y-90404285D02*
X57428628Y-90451904D01*
X57428628Y-90451904D02*
X57523866Y-90499523D01*
X57523866Y-90499523D02*
X57714342Y-90499523D01*
X57714342Y-90499523D02*
X57809580Y-90451904D01*
X57809580Y-90451904D02*
X57857200Y-90404285D01*
X57857200Y-90404285D02*
X57904819Y-90309047D01*
X57904819Y-90309047D02*
X57904819Y-90118571D01*
X57904819Y-90118571D02*
X57857200Y-90023333D01*
X57857200Y-90023333D02*
X57809580Y-89975714D01*
X57809580Y-89975714D02*
X57714342Y-89928095D01*
X57714342Y-89928095D02*
X57523866Y-89928095D01*
X57523866Y-89928095D02*
X57428628Y-89975714D01*
X57428628Y-89975714D02*
X57381009Y-90023333D01*
X57381009Y-90023333D02*
X57333390Y-90118571D01*
X85666667Y-53407200D02*
X85809524Y-53454819D01*
X85809524Y-53454819D02*
X86047619Y-53454819D01*
X86047619Y-53454819D02*
X86142857Y-53407200D01*
X86142857Y-53407200D02*
X86190476Y-53359580D01*
X86190476Y-53359580D02*
X86238095Y-53264342D01*
X86238095Y-53264342D02*
X86238095Y-53169104D01*
X86238095Y-53169104D02*
X86190476Y-53073866D01*
X86190476Y-53073866D02*
X86142857Y-53026247D01*
X86142857Y-53026247D02*
X86047619Y-52978628D01*
X86047619Y-52978628D02*
X85857143Y-52931009D01*
X85857143Y-52931009D02*
X85761905Y-52883390D01*
X85761905Y-52883390D02*
X85714286Y-52835771D01*
X85714286Y-52835771D02*
X85666667Y-52740533D01*
X85666667Y-52740533D02*
X85666667Y-52645295D01*
X85666667Y-52645295D02*
X85714286Y-52550057D01*
X85714286Y-52550057D02*
X85761905Y-52502438D01*
X85761905Y-52502438D02*
X85857143Y-52454819D01*
X85857143Y-52454819D02*
X86095238Y-52454819D01*
X86095238Y-52454819D02*
X86238095Y-52502438D01*
X86571429Y-52454819D02*
X86809524Y-53454819D01*
X86809524Y-53454819D02*
X87000000Y-52740533D01*
X87000000Y-52740533D02*
X87190476Y-53454819D01*
X87190476Y-53454819D02*
X87428572Y-52454819D01*
X88238095Y-52454819D02*
X88047619Y-52454819D01*
X88047619Y-52454819D02*
X87952381Y-52502438D01*
X87952381Y-52502438D02*
X87904762Y-52550057D01*
X87904762Y-52550057D02*
X87809524Y-52692914D01*
X87809524Y-52692914D02*
X87761905Y-52883390D01*
X87761905Y-52883390D02*
X87761905Y-53264342D01*
X87761905Y-53264342D02*
X87809524Y-53359580D01*
X87809524Y-53359580D02*
X87857143Y-53407200D01*
X87857143Y-53407200D02*
X87952381Y-53454819D01*
X87952381Y-53454819D02*
X88142857Y-53454819D01*
X88142857Y-53454819D02*
X88238095Y-53407200D01*
X88238095Y-53407200D02*
X88285714Y-53359580D01*
X88285714Y-53359580D02*
X88333333Y-53264342D01*
X88333333Y-53264342D02*
X88333333Y-53026247D01*
X88333333Y-53026247D02*
X88285714Y-52931009D01*
X88285714Y-52931009D02*
X88238095Y-52883390D01*
X88238095Y-52883390D02*
X88142857Y-52835771D01*
X88142857Y-52835771D02*
X87952381Y-52835771D01*
X87952381Y-52835771D02*
X87857143Y-52883390D01*
X87857143Y-52883390D02*
X87809524Y-52931009D01*
X87809524Y-52931009D02*
X87761905Y-53026247D01*
X92904819Y-92904285D02*
X91904819Y-92904285D01*
X91904819Y-92904285D02*
X91904819Y-92666190D01*
X91904819Y-92666190D02*
X91952438Y-92523333D01*
X91952438Y-92523333D02*
X92047676Y-92428095D01*
X92047676Y-92428095D02*
X92142914Y-92380476D01*
X92142914Y-92380476D02*
X92333390Y-92332857D01*
X92333390Y-92332857D02*
X92476247Y-92332857D01*
X92476247Y-92332857D02*
X92666723Y-92380476D01*
X92666723Y-92380476D02*
X92761961Y-92428095D01*
X92761961Y-92428095D02*
X92857200Y-92523333D01*
X92857200Y-92523333D02*
X92904819Y-92666190D01*
X92904819Y-92666190D02*
X92904819Y-92904285D01*
X92238152Y-91475714D02*
X92904819Y-91475714D01*
X91857200Y-91713809D02*
X92571485Y-91951904D01*
X92571485Y-91951904D02*
X92571485Y-91332857D01*
X92904819Y-90428095D02*
X92904819Y-90999523D01*
X92904819Y-90713809D02*
X91904819Y-90713809D01*
X91904819Y-90713809D02*
X92047676Y-90809047D01*
X92047676Y-90809047D02*
X92142914Y-90904285D01*
X92142914Y-90904285D02*
X92190533Y-90999523D01*
D11*
%TO.C,SW36*%
X27249583Y-77000000D02*
X27249583Y-78500000D01*
X28499583Y-81000000D02*
X32999583Y-81000000D01*
X32999583Y-74500000D02*
X28499583Y-74500000D01*
X34249583Y-78500000D02*
X34249583Y-77000000D01*
D10*
%TO.C,SW3*%
X36700000Y-43300000D02*
X44600000Y-43300000D01*
X36700000Y-56500000D02*
X36700000Y-43300000D01*
X44600000Y-43300000D02*
X44600000Y-56500000D01*
X44600000Y-56500000D02*
X36700000Y-56500000D01*
X43500417Y-50000000D02*
G75*
G02*
X37499583Y-50000000I-3000417J0D01*
G01*
X37499583Y-50000000D02*
G75*
G02*
X43500417Y-50000000I3000417J0D01*
G01*
D11*
%TO.C,D32*%
X109380000Y-54070000D02*
X109380000Y-58310000D01*
X109380000Y-58310000D02*
X111620000Y-58310000D01*
X110500000Y-53580000D02*
X110500000Y-54070000D01*
X110500000Y-58780000D02*
X110500000Y-58310000D01*
X111620000Y-54070000D02*
X109380000Y-54070000D01*
X111620000Y-54670000D02*
X109380000Y-54670000D01*
X111620000Y-54790000D02*
X109380000Y-54790000D01*
X111620000Y-54910000D02*
X109380000Y-54910000D01*
X111620000Y-58310000D02*
X111620000Y-54070000D01*
%TO.C,SW2*%
X80250000Y-42000000D02*
X80250000Y-43500000D01*
X81500000Y-46000000D02*
X86000000Y-46000000D01*
X86000000Y-39500000D02*
X81500000Y-39500000D01*
X87250000Y-43500000D02*
X87250000Y-42000000D01*
%TO.C,D42*%
X111380000Y-75070000D02*
X111380000Y-79310000D01*
X111380000Y-79310000D02*
X113620000Y-79310000D01*
X112500000Y-74580000D02*
X112500000Y-75070000D01*
X112500000Y-79780000D02*
X112500000Y-79310000D01*
X113620000Y-75070000D02*
X111380000Y-75070000D01*
X113620000Y-75670000D02*
X111380000Y-75670000D01*
X113620000Y-75790000D02*
X111380000Y-75790000D01*
X113620000Y-75910000D02*
X111380000Y-75910000D01*
X113620000Y-79310000D02*
X113620000Y-75070000D01*
%TO.C,SW32*%
X100250000Y-56500000D02*
X100250000Y-58000000D01*
X101500000Y-60500000D02*
X106000000Y-60500000D01*
X106000000Y-54000000D02*
X101500000Y-54000000D01*
X107250000Y-58000000D02*
X107250000Y-56500000D01*
%TO.C,SW42*%
X102249583Y-77000000D02*
X102249583Y-78500000D01*
X103499583Y-81000000D02*
X107999583Y-81000000D01*
X107999583Y-74500000D02*
X103499583Y-74500000D01*
X109249583Y-78500000D02*
X109249583Y-77000000D01*
%TO.C,D33*%
X129380000Y-39570000D02*
X129380000Y-43810000D01*
X129380000Y-43810000D02*
X131620000Y-43810000D01*
X130500000Y-39080000D02*
X130500000Y-39570000D01*
X130500000Y-44280000D02*
X130500000Y-43810000D01*
X131620000Y-39570000D02*
X129380000Y-39570000D01*
X131620000Y-40170000D02*
X129380000Y-40170000D01*
X131620000Y-40290000D02*
X129380000Y-40290000D01*
X131620000Y-40410000D02*
X129380000Y-40410000D01*
X131620000Y-43810000D02*
X131620000Y-39570000D01*
%TO.C,D31*%
X109380000Y-39570000D02*
X109380000Y-43810000D01*
X109380000Y-43810000D02*
X111620000Y-43810000D01*
X110500000Y-39080000D02*
X110500000Y-39570000D01*
X110500000Y-44280000D02*
X110500000Y-43810000D01*
X111620000Y-39570000D02*
X109380000Y-39570000D01*
X111620000Y-40170000D02*
X109380000Y-40170000D01*
X111620000Y-40290000D02*
X109380000Y-40290000D01*
X111620000Y-40410000D02*
X109380000Y-40410000D01*
X111620000Y-43810000D02*
X111620000Y-39570000D01*
%TO.C,D30*%
X89380000Y-53880000D02*
X89380000Y-58120000D01*
X89380000Y-58120000D02*
X91620000Y-58120000D01*
X90500000Y-53390000D02*
X90500000Y-53880000D01*
X90500000Y-58590000D02*
X90500000Y-58120000D01*
X91620000Y-53880000D02*
X89380000Y-53880000D01*
X91620000Y-54480000D02*
X89380000Y-54480000D01*
X91620000Y-54600000D02*
X89380000Y-54600000D01*
X91620000Y-54720000D02*
X89380000Y-54720000D01*
X91620000Y-58120000D02*
X91620000Y-53880000D01*
%TO.C,D39*%
X71380000Y-82070000D02*
X71380000Y-86310000D01*
X71380000Y-86310000D02*
X73620000Y-86310000D01*
X72500000Y-81580000D02*
X72500000Y-82070000D01*
X72500000Y-86780000D02*
X72500000Y-86310000D01*
X73620000Y-82070000D02*
X71380000Y-82070000D01*
X73620000Y-82670000D02*
X71380000Y-82670000D01*
X73620000Y-82790000D02*
X71380000Y-82790000D01*
X73620000Y-82910000D02*
X71380000Y-82910000D01*
X73620000Y-86310000D02*
X73620000Y-82070000D01*
%TO.C,SW34*%
X120250000Y-56500000D02*
X120250000Y-58000000D01*
X121500000Y-60500000D02*
X126000000Y-60500000D01*
X126000000Y-54000000D02*
X121500000Y-54000000D01*
X127250000Y-58000000D02*
X127250000Y-56500000D01*
D10*
%TO.C,SW5*%
X56700000Y-43300000D02*
X64600000Y-43300000D01*
X56700000Y-56500000D02*
X56700000Y-43300000D01*
X64600000Y-43300000D02*
X64600000Y-56500000D01*
X64600000Y-56500000D02*
X56700000Y-56500000D01*
X63500417Y-50000000D02*
G75*
G02*
X57499583Y-50000000I-3000417J0D01*
G01*
X57499583Y-50000000D02*
G75*
G02*
X63500417Y-50000000I3000417J0D01*
G01*
D11*
%TO.C,D43*%
X111380000Y-89570000D02*
X111380000Y-93810000D01*
X111380000Y-93810000D02*
X113620000Y-93810000D01*
X112500000Y-89080000D02*
X112500000Y-89570000D01*
X112500000Y-94280000D02*
X112500000Y-93810000D01*
X113620000Y-89570000D02*
X111380000Y-89570000D01*
X113620000Y-90170000D02*
X111380000Y-90170000D01*
X113620000Y-90290000D02*
X111380000Y-90290000D01*
X113620000Y-90410000D02*
X111380000Y-90410000D01*
X113620000Y-93810000D02*
X113620000Y-89570000D01*
%TO.C,D36*%
X36380000Y-74570000D02*
X36380000Y-78810000D01*
X36380000Y-78810000D02*
X38620000Y-78810000D01*
X37500000Y-74080000D02*
X37500000Y-74570000D01*
X37500000Y-79280000D02*
X37500000Y-78810000D01*
X38620000Y-74570000D02*
X36380000Y-74570000D01*
X38620000Y-75170000D02*
X36380000Y-75170000D01*
X38620000Y-75290000D02*
X36380000Y-75290000D01*
X38620000Y-75410000D02*
X36380000Y-75410000D01*
X38620000Y-78810000D02*
X38620000Y-74570000D01*
D10*
%TO.C,SW4*%
X46700000Y-43300000D02*
X54600000Y-43300000D01*
X46700000Y-56500000D02*
X46700000Y-43300000D01*
X54600000Y-43300000D02*
X54600000Y-56500000D01*
X54600000Y-56500000D02*
X46700000Y-56500000D01*
X53500417Y-50000000D02*
G75*
G02*
X47499583Y-50000000I-3000417J0D01*
G01*
X47499583Y-50000000D02*
G75*
G02*
X53500417Y-50000000I3000417J0D01*
G01*
D11*
%TO.C,SW41*%
X82249583Y-91500000D02*
X82249583Y-93000000D01*
X83499583Y-95500000D02*
X87999583Y-95500000D01*
X87999583Y-89000000D02*
X83499583Y-89000000D01*
X89249583Y-93000000D02*
X89249583Y-91500000D01*
%TO.C,D45*%
X26380000Y-60190000D02*
X26380000Y-64430000D01*
X26380000Y-63590000D02*
X28620000Y-63590000D01*
X26380000Y-63710000D02*
X28620000Y-63710000D01*
X26380000Y-63830000D02*
X28620000Y-63830000D01*
X26380000Y-64430000D02*
X28620000Y-64430000D01*
X27500000Y-59720000D02*
X27500000Y-60190000D01*
X27500000Y-64920000D02*
X27500000Y-64430000D01*
X28620000Y-60190000D02*
X26380000Y-60190000D01*
X28620000Y-64430000D02*
X28620000Y-60190000D01*
%TO.C,D40*%
X91380000Y-74880000D02*
X91380000Y-79120000D01*
X91380000Y-79120000D02*
X93620000Y-79120000D01*
X92500000Y-74390000D02*
X92500000Y-74880000D01*
X92500000Y-79590000D02*
X92500000Y-79120000D01*
X93620000Y-74880000D02*
X91380000Y-74880000D01*
X93620000Y-75480000D02*
X91380000Y-75480000D01*
X93620000Y-75600000D02*
X91380000Y-75600000D01*
X93620000Y-75720000D02*
X91380000Y-75720000D01*
X93620000Y-79120000D02*
X93620000Y-74880000D01*
%TO.C,D35*%
X36380000Y-89570000D02*
X36380000Y-93810000D01*
X36380000Y-93810000D02*
X38620000Y-93810000D01*
X37500000Y-89080000D02*
X37500000Y-89570000D01*
X37500000Y-94280000D02*
X37500000Y-93810000D01*
X38620000Y-89570000D02*
X36380000Y-89570000D01*
X38620000Y-90170000D02*
X36380000Y-90170000D01*
X38620000Y-90290000D02*
X36380000Y-90290000D01*
X38620000Y-90410000D02*
X36380000Y-90410000D01*
X38620000Y-93810000D02*
X38620000Y-89570000D01*
%TO.C,J1*%
X126630000Y-67970000D02*
X126630000Y-93490000D01*
X126630000Y-67970000D02*
X129230000Y-67970000D01*
X126630000Y-93490000D02*
X131830000Y-93490000D01*
X129230000Y-67970000D02*
X129230000Y-70570000D01*
X129230000Y-70570000D02*
X131830000Y-70570000D01*
X130500000Y-67970000D02*
X131830000Y-67970000D01*
X131830000Y-67970000D02*
X131830000Y-69300000D01*
X131830000Y-70570000D02*
X131830000Y-93490000D01*
D10*
%TO.C,SW1*%
X26700000Y-43300000D02*
X34600000Y-43300000D01*
X26700000Y-56500000D02*
X26700000Y-43300000D01*
X34600000Y-43300000D02*
X34600000Y-56500000D01*
X34600000Y-56500000D02*
X26700000Y-56500000D01*
X33500417Y-50000000D02*
G75*
G02*
X27499583Y-50000000I-3000417J0D01*
G01*
X27499583Y-50000000D02*
G75*
G02*
X33500417Y-50000000I3000417J0D01*
G01*
D11*
%TO.C,SW35*%
X27249583Y-91500000D02*
X27249583Y-93000000D01*
X28499583Y-95500000D02*
X32999583Y-95500000D01*
X32999583Y-89000000D02*
X28499583Y-89000000D01*
X34249583Y-93000000D02*
X34249583Y-91500000D01*
%TO.C,D5*%
X89380000Y-39570000D02*
X89380000Y-43810000D01*
X89380000Y-43810000D02*
X91620000Y-43810000D01*
X90500000Y-39080000D02*
X90500000Y-39570000D01*
X90500000Y-44280000D02*
X90500000Y-43810000D01*
X91620000Y-39570000D02*
X89380000Y-39570000D01*
X91620000Y-40170000D02*
X89380000Y-40170000D01*
X91620000Y-40290000D02*
X89380000Y-40290000D01*
X91620000Y-40410000D02*
X89380000Y-40410000D01*
X91620000Y-43810000D02*
X91620000Y-39570000D01*
%TO.C,SW33*%
X120250000Y-42000000D02*
X120250000Y-43500000D01*
X121500000Y-46000000D02*
X126000000Y-46000000D01*
X126000000Y-39500000D02*
X121500000Y-39500000D01*
X127250000Y-43500000D02*
X127250000Y-42000000D01*
%TO.C,SW31*%
X100250000Y-42000000D02*
X100250000Y-43500000D01*
X101500000Y-46000000D02*
X106000000Y-46000000D01*
X106000000Y-39500000D02*
X101500000Y-39500000D01*
X107250000Y-43500000D02*
X107250000Y-42000000D01*
%TO.C,D37*%
X56380000Y-74570000D02*
X56380000Y-78810000D01*
X56380000Y-78810000D02*
X58620000Y-78810000D01*
X57500000Y-74080000D02*
X57500000Y-74570000D01*
X57500000Y-79280000D02*
X57500000Y-78810000D01*
X58620000Y-74570000D02*
X56380000Y-74570000D01*
X58620000Y-75170000D02*
X56380000Y-75170000D01*
X58620000Y-75290000D02*
X56380000Y-75290000D01*
X58620000Y-75410000D02*
X56380000Y-75410000D01*
X58620000Y-78810000D02*
X58620000Y-74570000D01*
%TO.C,SW38*%
X47249583Y-91500000D02*
X47249583Y-93000000D01*
X48499583Y-95500000D02*
X52999583Y-95500000D01*
X52999583Y-89000000D02*
X48499583Y-89000000D01*
X54249583Y-93000000D02*
X54249583Y-91500000D01*
%TO.C,D48*%
X56380000Y-60190000D02*
X56380000Y-64430000D01*
X56380000Y-63590000D02*
X58620000Y-63590000D01*
X56380000Y-63710000D02*
X58620000Y-63710000D01*
X56380000Y-63830000D02*
X58620000Y-63830000D01*
X56380000Y-64430000D02*
X58620000Y-64430000D01*
X57500000Y-59720000D02*
X57500000Y-60190000D01*
X57500000Y-64920000D02*
X57500000Y-64430000D01*
X58620000Y-60190000D02*
X56380000Y-60190000D01*
X58620000Y-64430000D02*
X58620000Y-60190000D01*
%TO.C,D46*%
X36380000Y-60190000D02*
X36380000Y-64430000D01*
X36380000Y-63590000D02*
X38620000Y-63590000D01*
X36380000Y-63710000D02*
X38620000Y-63710000D01*
X36380000Y-63830000D02*
X38620000Y-63830000D01*
X36380000Y-64430000D02*
X38620000Y-64430000D01*
X37500000Y-59720000D02*
X37500000Y-60190000D01*
X37500000Y-64920000D02*
X37500000Y-64430000D01*
X38620000Y-60190000D02*
X36380000Y-60190000D01*
X38620000Y-64430000D02*
X38620000Y-60190000D01*
%TO.C,SW37*%
X47249583Y-77000000D02*
X47249583Y-78500000D01*
X48499583Y-81000000D02*
X52999583Y-81000000D01*
X52999583Y-74500000D02*
X48499583Y-74500000D01*
X54249583Y-78500000D02*
X54249583Y-77000000D01*
%TO.C,D47*%
X46380000Y-60190000D02*
X46380000Y-64430000D01*
X46380000Y-63590000D02*
X48620000Y-63590000D01*
X46380000Y-63710000D02*
X48620000Y-63710000D01*
X46380000Y-63830000D02*
X48620000Y-63830000D01*
X46380000Y-64430000D02*
X48620000Y-64430000D01*
X47500000Y-59720000D02*
X47500000Y-60190000D01*
X47500000Y-64920000D02*
X47500000Y-64430000D01*
X48620000Y-60190000D02*
X46380000Y-60190000D01*
X48620000Y-64430000D02*
X48620000Y-60190000D01*
%TO.C,SW39*%
X62249583Y-84250000D02*
X62249583Y-85750000D01*
X63499583Y-88250000D02*
X67999583Y-88250000D01*
X67999583Y-81750000D02*
X63499583Y-81750000D01*
X69249583Y-85750000D02*
X69249583Y-84250000D01*
%TO.C,D49*%
X66380000Y-60190000D02*
X66380000Y-64430000D01*
X66380000Y-63590000D02*
X68620000Y-63590000D01*
X66380000Y-63710000D02*
X68620000Y-63710000D01*
X66380000Y-63830000D02*
X68620000Y-63830000D01*
X66380000Y-64430000D02*
X68620000Y-64430000D01*
X67500000Y-59720000D02*
X67500000Y-60190000D01*
X67500000Y-64920000D02*
X67500000Y-64430000D01*
X68620000Y-60190000D02*
X66380000Y-60190000D01*
X68620000Y-64430000D02*
X68620000Y-60190000D01*
%TO.C,D34*%
X129380000Y-54070000D02*
X129380000Y-58310000D01*
X129380000Y-58310000D02*
X131620000Y-58310000D01*
X130500000Y-53580000D02*
X130500000Y-54070000D01*
X130500000Y-58780000D02*
X130500000Y-58310000D01*
X131620000Y-54070000D02*
X129380000Y-54070000D01*
X131620000Y-54670000D02*
X129380000Y-54670000D01*
X131620000Y-54790000D02*
X129380000Y-54790000D01*
X131620000Y-54910000D02*
X129380000Y-54910000D01*
X131620000Y-58310000D02*
X131620000Y-54070000D01*
%TO.C,SW40*%
X82249583Y-77000000D02*
X82249583Y-78500000D01*
X83499583Y-81000000D02*
X87999583Y-81000000D01*
X87999583Y-74500000D02*
X83499583Y-74500000D01*
X89249583Y-78500000D02*
X89249583Y-77000000D01*
%TO.C,SW43*%
X102249583Y-91500000D02*
X102249583Y-93000000D01*
X103499583Y-95500000D02*
X107999583Y-95500000D01*
X107999583Y-89000000D02*
X103499583Y-89000000D01*
X109249583Y-93000000D02*
X109249583Y-91500000D01*
%TO.C,D38*%
X56380000Y-89070000D02*
X56380000Y-93310000D01*
X56380000Y-93310000D02*
X58620000Y-93310000D01*
X57500000Y-88580000D02*
X57500000Y-89070000D01*
X57500000Y-93780000D02*
X57500000Y-93310000D01*
X58620000Y-89070000D02*
X56380000Y-89070000D01*
X58620000Y-89670000D02*
X56380000Y-89670000D01*
X58620000Y-89790000D02*
X56380000Y-89790000D01*
X58620000Y-89910000D02*
X56380000Y-89910000D01*
X58620000Y-93310000D02*
X58620000Y-89070000D01*
%TO.C,SW6*%
X80250000Y-56500000D02*
X80250000Y-58000000D01*
X81500000Y-60500000D02*
X86000000Y-60500000D01*
X86000000Y-54000000D02*
X81500000Y-54000000D01*
X87250000Y-58000000D02*
X87250000Y-56500000D01*
%TO.C,D41*%
X91380000Y-89570000D02*
X91380000Y-93810000D01*
X91380000Y-93810000D02*
X93620000Y-93810000D01*
X92500000Y-89080000D02*
X92500000Y-89570000D01*
X92500000Y-94280000D02*
X92500000Y-93810000D01*
X93620000Y-89570000D02*
X91380000Y-89570000D01*
X93620000Y-90170000D02*
X91380000Y-90170000D01*
X93620000Y-90290000D02*
X91380000Y-90290000D01*
X93620000Y-90410000D02*
X91380000Y-90410000D01*
X93620000Y-93810000D02*
X93620000Y-89570000D01*
D10*
%TO.C,SW7*%
X66700000Y-43300000D02*
X74600000Y-43300000D01*
X66700000Y-56500000D02*
X66700000Y-43300000D01*
X74600000Y-43300000D02*
X74600000Y-56500000D01*
X74600000Y-56500000D02*
X66700000Y-56500000D01*
X73500417Y-50000000D02*
G75*
G02*
X67499583Y-50000000I-3000417J0D01*
G01*
X67499583Y-50000000D02*
G75*
G02*
X73500417Y-50000000I3000417J0D01*
G01*
%TD*%
M02*
