%TF.GenerationSoftware,KiCad,Pcbnew,9.0.7*%
%TF.CreationDate,2026-03-24T07:12:20+00:00*%
%TF.ProjectId,WEASEL_KiCad,57454153-454c-45f4-9b69-4361642e6b69,rev?*%
%TF.SameCoordinates,Original*%
%TF.FileFunction,Copper,L2,Bot*%
%TF.FilePolarity,Positive*%
%FSLAX46Y46*%
G04 Gerber Fmt 4.6, Leading zero omitted, Abs format (unit mm)*
G04 Created by KiCad (PCBNEW 9.0.7) date 2026-03-24 07:12:20*
%MOMM*%
%LPD*%
G01*
G04 APERTURE LIST*
G04 APERTURE END LIST*
%TA.AperFunction,Conductor*%
%TO.N,GND*%
G36*
X345553032Y-412500648D02*
G01*
X345886929Y-412517052D01*
X345899037Y-412518245D01*
X346002146Y-412533539D01*
X346226699Y-412566849D01*
X346238617Y-412569219D01*
X346559951Y-412649709D01*
X346571588Y-412653240D01*
X346642806Y-412678722D01*
X346883467Y-412764832D01*
X346894688Y-412769479D01*
X347194163Y-412911120D01*
X347204871Y-412916844D01*
X347488988Y-413087137D01*
X347499106Y-413093897D01*
X347765170Y-413291224D01*
X347774576Y-413298944D01*
X348020013Y-413521395D01*
X348028604Y-413529986D01*
X348215755Y-413736475D01*
X348251055Y-413775423D01*
X348258775Y-413784829D01*
X348456102Y-414050893D01*
X348462862Y-414061011D01*
X348591776Y-414276092D01*
X348633148Y-414345116D01*
X348638885Y-414355848D01*
X348780514Y-414655297D01*
X348785170Y-414666540D01*
X348896759Y-414978411D01*
X348900292Y-414990055D01*
X348980777Y-415311369D01*
X348983151Y-415323305D01*
X349031754Y-415650962D01*
X349032947Y-415663071D01*
X349049351Y-415996966D01*
X349049500Y-416003051D01*
X349049500Y-607996948D01*
X349049351Y-608003033D01*
X349032947Y-608336928D01*
X349031754Y-608349037D01*
X348983151Y-608676694D01*
X348980777Y-608688630D01*
X348900292Y-609009944D01*
X348896759Y-609021588D01*
X348785170Y-609333459D01*
X348780514Y-609344702D01*
X348638885Y-609644151D01*
X348633148Y-609654883D01*
X348462862Y-609938988D01*
X348456102Y-609949106D01*
X348258775Y-610215170D01*
X348251055Y-610224576D01*
X348028611Y-610470006D01*
X348020006Y-610478611D01*
X347774576Y-610701055D01*
X347765170Y-610708775D01*
X347499106Y-610906102D01*
X347488988Y-610912862D01*
X347204883Y-611083148D01*
X347194151Y-611088885D01*
X346894702Y-611230514D01*
X346883459Y-611235170D01*
X346571588Y-611346759D01*
X346559944Y-611350292D01*
X346238630Y-611430777D01*
X346226694Y-611433151D01*
X345899037Y-611481754D01*
X345886928Y-611482947D01*
X345571989Y-611498419D01*
X345553031Y-611499351D01*
X345546949Y-611499500D01*
X18553051Y-611499500D01*
X18546968Y-611499351D01*
X18526900Y-611498365D01*
X18213071Y-611482947D01*
X18200962Y-611481754D01*
X17873305Y-611433151D01*
X17861369Y-611430777D01*
X17540055Y-611350292D01*
X17528411Y-611346759D01*
X17216540Y-611235170D01*
X17205301Y-611230515D01*
X16905844Y-611088883D01*
X16895121Y-611083150D01*
X16611011Y-610912862D01*
X16600893Y-610906102D01*
X16334829Y-610708775D01*
X16325423Y-610701055D01*
X16286475Y-610665755D01*
X16079986Y-610478604D01*
X16071395Y-610470013D01*
X15848944Y-610224576D01*
X15841224Y-610215170D01*
X15643897Y-609949106D01*
X15637137Y-609938988D01*
X15466844Y-609654871D01*
X15461120Y-609644163D01*
X15319479Y-609344688D01*
X15314829Y-609333459D01*
X15203240Y-609021588D01*
X15199707Y-609009944D01*
X15190958Y-608975015D01*
X15119219Y-608688617D01*
X15116848Y-608676694D01*
X15068245Y-608349037D01*
X15067052Y-608336927D01*
X15050649Y-608003032D01*
X15050500Y-607996948D01*
X15050500Y-606893713D01*
X18199500Y-606893713D01*
X18199500Y-607106286D01*
X18232753Y-607316239D01*
X18298444Y-607518414D01*
X18394951Y-607707820D01*
X18519890Y-607879786D01*
X18670213Y-608030109D01*
X18842179Y-608155048D01*
X18842181Y-608155049D01*
X18842184Y-608155051D01*
X19031588Y-608251557D01*
X19233757Y-608317246D01*
X19443713Y-608350500D01*
X19443714Y-608350500D01*
X19656286Y-608350500D01*
X19656287Y-608350500D01*
X19866243Y-608317246D01*
X20068412Y-608251557D01*
X20257816Y-608155051D01*
X20279789Y-608139086D01*
X20429786Y-608030109D01*
X20429788Y-608030106D01*
X20429792Y-608030104D01*
X20580104Y-607879792D01*
X20580106Y-607879788D01*
X20580109Y-607879786D01*
X20705048Y-607707820D01*
X20705047Y-607707820D01*
X20705051Y-607707816D01*
X20801557Y-607518412D01*
X20867246Y-607316243D01*
X20900500Y-607106287D01*
X20900500Y-606893713D01*
X118199500Y-606893713D01*
X118199500Y-607106286D01*
X118232753Y-607316239D01*
X118298444Y-607518414D01*
X118394951Y-607707820D01*
X118519890Y-607879786D01*
X118670213Y-608030109D01*
X118842179Y-608155048D01*
X118842181Y-608155049D01*
X118842184Y-608155051D01*
X119031588Y-608251557D01*
X119233757Y-608317246D01*
X119443713Y-608350500D01*
X119443714Y-608350500D01*
X119656286Y-608350500D01*
X119656287Y-608350500D01*
X119866243Y-608317246D01*
X120068412Y-608251557D01*
X120257816Y-608155051D01*
X120279789Y-608139086D01*
X120429786Y-608030109D01*
X120429788Y-608030106D01*
X120429792Y-608030104D01*
X120580104Y-607879792D01*
X120580106Y-607879788D01*
X120580109Y-607879786D01*
X120705048Y-607707820D01*
X120705047Y-607707820D01*
X120705051Y-607707816D01*
X120801557Y-607518412D01*
X120867246Y-607316243D01*
X120900500Y-607106287D01*
X120900500Y-606893713D01*
X243199500Y-606893713D01*
X243199500Y-607106286D01*
X243232753Y-607316239D01*
X243298444Y-607518414D01*
X243394951Y-607707820D01*
X243519890Y-607879786D01*
X243670213Y-608030109D01*
X243842179Y-608155048D01*
X243842181Y-608155049D01*
X243842184Y-608155051D01*
X244031588Y-608251557D01*
X244233757Y-608317246D01*
X244443713Y-608350500D01*
X244443714Y-608350500D01*
X244656286Y-608350500D01*
X244656287Y-608350500D01*
X244866243Y-608317246D01*
X245068412Y-608251557D01*
X245257816Y-608155051D01*
X245279789Y-608139086D01*
X245429786Y-608030109D01*
X245429788Y-608030106D01*
X245429792Y-608030104D01*
X245580104Y-607879792D01*
X245580106Y-607879788D01*
X245580109Y-607879786D01*
X245705048Y-607707820D01*
X245705047Y-607707820D01*
X245705051Y-607707816D01*
X245801557Y-607518412D01*
X245867246Y-607316243D01*
X245900500Y-607106287D01*
X245900500Y-606893713D01*
X343199500Y-606893713D01*
X343199500Y-607106286D01*
X343232753Y-607316239D01*
X343298444Y-607518414D01*
X343394951Y-607707820D01*
X343519890Y-607879786D01*
X343670213Y-608030109D01*
X343842179Y-608155048D01*
X343842181Y-608155049D01*
X343842184Y-608155051D01*
X344031588Y-608251557D01*
X344233757Y-608317246D01*
X344443713Y-608350500D01*
X344443714Y-608350500D01*
X344656286Y-608350500D01*
X344656287Y-608350500D01*
X344866243Y-608317246D01*
X345068412Y-608251557D01*
X345257816Y-608155051D01*
X345279789Y-608139086D01*
X345429786Y-608030109D01*
X345429788Y-608030106D01*
X345429792Y-608030104D01*
X345580104Y-607879792D01*
X345580106Y-607879788D01*
X345580109Y-607879786D01*
X345705048Y-607707820D01*
X345705047Y-607707820D01*
X345705051Y-607707816D01*
X345801557Y-607518412D01*
X345867246Y-607316243D01*
X345900500Y-607106287D01*
X345900500Y-606893713D01*
X345867246Y-606683757D01*
X345801557Y-606481588D01*
X345705051Y-606292184D01*
X345705049Y-606292181D01*
X345705048Y-606292179D01*
X345580109Y-606120213D01*
X345429786Y-605969890D01*
X345257820Y-605844951D01*
X345068414Y-605748444D01*
X345068413Y-605748443D01*
X345068412Y-605748443D01*
X344866243Y-605682754D01*
X344866241Y-605682753D01*
X344866240Y-605682753D01*
X344704957Y-605657208D01*
X344656287Y-605649500D01*
X344443713Y-605649500D01*
X344395042Y-605657208D01*
X344233760Y-605682753D01*
X344031585Y-605748444D01*
X343842179Y-605844951D01*
X343670213Y-605969890D01*
X343519890Y-606120213D01*
X343394951Y-606292179D01*
X343298444Y-606481585D01*
X343232753Y-606683760D01*
X343199500Y-606893713D01*
X245900500Y-606893713D01*
X245867246Y-606683757D01*
X245801557Y-606481588D01*
X245705051Y-606292184D01*
X245705049Y-606292181D01*
X245705048Y-606292179D01*
X245580109Y-606120213D01*
X245429786Y-605969890D01*
X245257820Y-605844951D01*
X245068414Y-605748444D01*
X245068413Y-605748443D01*
X245068412Y-605748443D01*
X244866243Y-605682754D01*
X244866241Y-605682753D01*
X244866240Y-605682753D01*
X244704957Y-605657208D01*
X244656287Y-605649500D01*
X244443713Y-605649500D01*
X244395042Y-605657208D01*
X244233760Y-605682753D01*
X244031585Y-605748444D01*
X243842179Y-605844951D01*
X243670213Y-605969890D01*
X243519890Y-606120213D01*
X243394951Y-606292179D01*
X243298444Y-606481585D01*
X243232753Y-606683760D01*
X243199500Y-606893713D01*
X120900500Y-606893713D01*
X120867246Y-606683757D01*
X120801557Y-606481588D01*
X120705051Y-606292184D01*
X120705049Y-606292181D01*
X120705048Y-606292179D01*
X120580109Y-606120213D01*
X120429786Y-605969890D01*
X120257820Y-605844951D01*
X120068414Y-605748444D01*
X120068413Y-605748443D01*
X120068412Y-605748443D01*
X119866243Y-605682754D01*
X119866241Y-605682753D01*
X119866240Y-605682753D01*
X119704957Y-605657208D01*
X119656287Y-605649500D01*
X119443713Y-605649500D01*
X119395042Y-605657208D01*
X119233760Y-605682753D01*
X119031585Y-605748444D01*
X118842179Y-605844951D01*
X118670213Y-605969890D01*
X118519890Y-606120213D01*
X118394951Y-606292179D01*
X118298444Y-606481585D01*
X118232753Y-606683760D01*
X118199500Y-606893713D01*
X20900500Y-606893713D01*
X20867246Y-606683757D01*
X20801557Y-606481588D01*
X20705051Y-606292184D01*
X20705049Y-606292181D01*
X20705048Y-606292179D01*
X20580109Y-606120213D01*
X20429786Y-605969890D01*
X20257820Y-605844951D01*
X20068414Y-605748444D01*
X20068413Y-605748443D01*
X20068412Y-605748443D01*
X19866243Y-605682754D01*
X19866241Y-605682753D01*
X19866240Y-605682753D01*
X19704957Y-605657208D01*
X19656287Y-605649500D01*
X19443713Y-605649500D01*
X19395042Y-605657208D01*
X19233760Y-605682753D01*
X19031585Y-605748444D01*
X18842179Y-605844951D01*
X18670213Y-605969890D01*
X18519890Y-606120213D01*
X18394951Y-606292179D01*
X18298444Y-606481585D01*
X18232753Y-606683760D01*
X18199500Y-606893713D01*
X15050500Y-606893713D01*
X15050500Y-416893713D01*
X18199500Y-416893713D01*
X18199500Y-417106286D01*
X18232753Y-417316239D01*
X18298444Y-417518414D01*
X18394951Y-417707820D01*
X18519890Y-417879786D01*
X18670213Y-418030109D01*
X18842179Y-418155048D01*
X18842181Y-418155049D01*
X18842184Y-418155051D01*
X19031588Y-418251557D01*
X19233757Y-418317246D01*
X19443713Y-418350500D01*
X19443714Y-418350500D01*
X19656286Y-418350500D01*
X19656287Y-418350500D01*
X19866243Y-418317246D01*
X20068412Y-418251557D01*
X20257816Y-418155051D01*
X20279789Y-418139086D01*
X20429786Y-418030109D01*
X20429788Y-418030106D01*
X20429792Y-418030104D01*
X20580104Y-417879792D01*
X20580106Y-417879788D01*
X20580109Y-417879786D01*
X20705048Y-417707820D01*
X20705047Y-417707820D01*
X20705051Y-417707816D01*
X20801557Y-417518412D01*
X20867246Y-417316243D01*
X20900500Y-417106287D01*
X20900500Y-416893713D01*
X118199500Y-416893713D01*
X118199500Y-417106286D01*
X118232753Y-417316239D01*
X118298444Y-417518414D01*
X118394951Y-417707820D01*
X118519890Y-417879786D01*
X118670213Y-418030109D01*
X118842179Y-418155048D01*
X118842181Y-418155049D01*
X118842184Y-418155051D01*
X119031588Y-418251557D01*
X119233757Y-418317246D01*
X119443713Y-418350500D01*
X119443714Y-418350500D01*
X119656286Y-418350500D01*
X119656287Y-418350500D01*
X119866243Y-418317246D01*
X120068412Y-418251557D01*
X120257816Y-418155051D01*
X120279789Y-418139086D01*
X120429786Y-418030109D01*
X120429788Y-418030106D01*
X120429792Y-418030104D01*
X120580104Y-417879792D01*
X120580106Y-417879788D01*
X120580109Y-417879786D01*
X120705048Y-417707820D01*
X120705047Y-417707820D01*
X120705051Y-417707816D01*
X120801557Y-417518412D01*
X120867246Y-417316243D01*
X120900500Y-417106287D01*
X120900500Y-416893713D01*
X243199500Y-416893713D01*
X243199500Y-417106286D01*
X243232753Y-417316239D01*
X243298444Y-417518414D01*
X243394951Y-417707820D01*
X243519890Y-417879786D01*
X243670213Y-418030109D01*
X243842179Y-418155048D01*
X243842181Y-418155049D01*
X243842184Y-418155051D01*
X244031588Y-418251557D01*
X244233757Y-418317246D01*
X244443713Y-418350500D01*
X244443714Y-418350500D01*
X244656286Y-418350500D01*
X244656287Y-418350500D01*
X244866243Y-418317246D01*
X245068412Y-418251557D01*
X245257816Y-418155051D01*
X245279789Y-418139086D01*
X245429786Y-418030109D01*
X245429788Y-418030106D01*
X245429792Y-418030104D01*
X245580104Y-417879792D01*
X245580106Y-417879788D01*
X245580109Y-417879786D01*
X245705048Y-417707820D01*
X245705047Y-417707820D01*
X245705051Y-417707816D01*
X245801557Y-417518412D01*
X245867246Y-417316243D01*
X245900500Y-417106287D01*
X245900500Y-416893713D01*
X343199500Y-416893713D01*
X343199500Y-417106286D01*
X343232753Y-417316239D01*
X343298444Y-417518414D01*
X343394951Y-417707820D01*
X343519890Y-417879786D01*
X343670213Y-418030109D01*
X343842179Y-418155048D01*
X343842181Y-418155049D01*
X343842184Y-418155051D01*
X344031588Y-418251557D01*
X344233757Y-418317246D01*
X344443713Y-418350500D01*
X344443714Y-418350500D01*
X344656286Y-418350500D01*
X344656287Y-418350500D01*
X344866243Y-418317246D01*
X345068412Y-418251557D01*
X345257816Y-418155051D01*
X345279789Y-418139086D01*
X345429786Y-418030109D01*
X345429788Y-418030106D01*
X345429792Y-418030104D01*
X345580104Y-417879792D01*
X345580106Y-417879788D01*
X345580109Y-417879786D01*
X345705048Y-417707820D01*
X345705047Y-417707820D01*
X345705051Y-417707816D01*
X345801557Y-417518412D01*
X345867246Y-417316243D01*
X345900500Y-417106287D01*
X345900500Y-416893713D01*
X345867246Y-416683757D01*
X345801557Y-416481588D01*
X345705051Y-416292184D01*
X345705049Y-416292181D01*
X345705048Y-416292179D01*
X345580109Y-416120213D01*
X345429786Y-415969890D01*
X345257820Y-415844951D01*
X345068414Y-415748444D01*
X345068413Y-415748443D01*
X345068412Y-415748443D01*
X344866243Y-415682754D01*
X344866241Y-415682753D01*
X344866240Y-415682753D01*
X344703570Y-415656989D01*
X344656287Y-415649500D01*
X344443713Y-415649500D01*
X344396430Y-415656989D01*
X344233760Y-415682753D01*
X344031585Y-415748444D01*
X343842179Y-415844951D01*
X343670213Y-415969890D01*
X343519890Y-416120213D01*
X343394951Y-416292179D01*
X343298444Y-416481585D01*
X343232753Y-416683760D01*
X343199500Y-416893713D01*
X245900500Y-416893713D01*
X245867246Y-416683757D01*
X245801557Y-416481588D01*
X245705051Y-416292184D01*
X245705049Y-416292181D01*
X245705048Y-416292179D01*
X245580109Y-416120213D01*
X245429786Y-415969890D01*
X245257820Y-415844951D01*
X245068414Y-415748444D01*
X245068413Y-415748443D01*
X245068412Y-415748443D01*
X244866243Y-415682754D01*
X244866241Y-415682753D01*
X244866240Y-415682753D01*
X244703570Y-415656989D01*
X244656287Y-415649500D01*
X244443713Y-415649500D01*
X244396430Y-415656989D01*
X244233760Y-415682753D01*
X244031585Y-415748444D01*
X243842179Y-415844951D01*
X243670213Y-415969890D01*
X243519890Y-416120213D01*
X243394951Y-416292179D01*
X243298444Y-416481585D01*
X243232753Y-416683760D01*
X243199500Y-416893713D01*
X120900500Y-416893713D01*
X120867246Y-416683757D01*
X120801557Y-416481588D01*
X120705051Y-416292184D01*
X120705049Y-416292181D01*
X120705048Y-416292179D01*
X120580109Y-416120213D01*
X120429786Y-415969890D01*
X120257820Y-415844951D01*
X120068414Y-415748444D01*
X120068413Y-415748443D01*
X120068412Y-415748443D01*
X119866243Y-415682754D01*
X119866241Y-415682753D01*
X119866240Y-415682753D01*
X119703570Y-415656989D01*
X119656287Y-415649500D01*
X119443713Y-415649500D01*
X119396430Y-415656989D01*
X119233760Y-415682753D01*
X119031585Y-415748444D01*
X118842179Y-415844951D01*
X118670213Y-415969890D01*
X118519890Y-416120213D01*
X118394951Y-416292179D01*
X118298444Y-416481585D01*
X118232753Y-416683760D01*
X118199500Y-416893713D01*
X20900500Y-416893713D01*
X20867246Y-416683757D01*
X20801557Y-416481588D01*
X20705051Y-416292184D01*
X20705049Y-416292181D01*
X20705048Y-416292179D01*
X20580109Y-416120213D01*
X20429786Y-415969890D01*
X20257820Y-415844951D01*
X20068414Y-415748444D01*
X20068413Y-415748443D01*
X20068412Y-415748443D01*
X19866243Y-415682754D01*
X19866241Y-415682753D01*
X19866240Y-415682753D01*
X19703570Y-415656989D01*
X19656287Y-415649500D01*
X19443713Y-415649500D01*
X19396430Y-415656989D01*
X19233760Y-415682753D01*
X19031585Y-415748444D01*
X18842179Y-415844951D01*
X18670213Y-415969890D01*
X18519890Y-416120213D01*
X18394951Y-416292179D01*
X18298444Y-416481585D01*
X18232753Y-416683760D01*
X18199500Y-416893713D01*
X15050500Y-416893713D01*
X15050500Y-416003051D01*
X15050649Y-415996967D01*
X15067052Y-415663072D01*
X15068245Y-415650962D01*
X15068462Y-415649500D01*
X15116849Y-415323296D01*
X15119218Y-415311385D01*
X15199710Y-414990043D01*
X15203240Y-414978411D01*
X15314835Y-414666525D01*
X15319476Y-414655318D01*
X15461124Y-414355828D01*
X15466840Y-414345136D01*
X15637145Y-414060998D01*
X15643888Y-414050905D01*
X15841232Y-413784818D01*
X15848935Y-413775433D01*
X16071405Y-413529975D01*
X16079975Y-413521405D01*
X16325433Y-413298935D01*
X16334818Y-413291232D01*
X16600905Y-413093888D01*
X16610998Y-413087145D01*
X16895136Y-412916840D01*
X16905828Y-412911124D01*
X17205318Y-412769476D01*
X17216525Y-412764835D01*
X17528412Y-412653239D01*
X17540043Y-412649710D01*
X17861385Y-412569218D01*
X17873296Y-412566849D01*
X18200962Y-412518244D01*
X18213068Y-412517052D01*
X18546967Y-412500648D01*
X18553051Y-412500500D01*
X18615892Y-412500500D01*
X345484108Y-412500500D01*
X345546949Y-412500500D01*
X345553032Y-412500648D01*
G37*
%TD.AperFunction*%
%TD*%
M02*
