%TF.GenerationSoftware,KiCad,Pcbnew,9.0.1*%
%TF.CreationDate,2025-10-08T12:17:04+01:00*%
%TF.ProjectId,WEASEL_KiCad_virtualModMatrix,57454153-454c-45f4-9b69-4361645f7669,rev?*%
%TF.SameCoordinates,Original*%
%TF.FileFunction,Copper,L2,Bot*%
%TF.FilePolarity,Positive*%
%FSLAX46Y46*%
G04 Gerber Fmt 4.6, Leading zero omitted, Abs format (unit mm)*
G04 Created by KiCad (PCBNEW 9.0.1) date 2025-10-08 12:17:04*
%MOMM*%
%LPD*%
G01*
G04 APERTURE LIST*
%TA.AperFunction,ComponentPad*%
%ADD10C,2.130000*%
%TD*%
%TA.AperFunction,ComponentPad*%
%ADD11R,1.930000X1.830000*%
%TD*%
%TA.AperFunction,ComponentPad*%
%ADD12R,1.700000X1.700000*%
%TD*%
%TA.AperFunction,ComponentPad*%
%ADD13C,1.700000*%
%TD*%
%TA.AperFunction,ComponentPad*%
%ADD14R,2.000000X2.000000*%
%TD*%
%TA.AperFunction,ComponentPad*%
%ADD15O,2.000000X2.000000*%
%TD*%
%TA.AperFunction,ViaPad*%
%ADD16C,0.600000*%
%TD*%
%TA.AperFunction,Conductor*%
%ADD17C,1.000000*%
%TD*%
G04 APERTURE END LIST*
D10*
%TO.P,J15,TN*%
%TO.N,B0*%
X135500000Y-49320000D03*
%TO.P,J15,T*%
X135500000Y-57620000D03*
D11*
%TO.P,J15,S*%
X135500000Y-46220000D03*
%TD*%
%TO.P,J24,S*%
%TO.N,B3*%
X165500000Y-60720000D03*
D10*
%TO.P,J24,T*%
X165500000Y-72120000D03*
%TO.P,J24,TN*%
X165500000Y-63820000D03*
%TD*%
D11*
%TO.P,J23,S*%
%TO.N,B3*%
X120500000Y-60720000D03*
D10*
%TO.P,J23,T*%
X120500000Y-72120000D03*
%TO.P,J23,TN*%
X120500000Y-63820000D03*
%TD*%
D11*
%TO.P,J22,S*%
%TO.N,B3*%
X55500000Y-60720000D03*
D10*
%TO.P,J22,T*%
X55500000Y-72120000D03*
%TO.P,J22,TN*%
X55500000Y-63820000D03*
%TD*%
D11*
%TO.P,J21,S*%
%TO.N,B2*%
X165500000Y-46220000D03*
D10*
%TO.P,J21,T*%
X165500000Y-57620000D03*
%TO.P,J21,TN*%
X165500000Y-49320000D03*
%TD*%
D11*
%TO.P,J20,S*%
%TO.N,B2*%
X120500000Y-46220000D03*
D10*
%TO.P,J20,T*%
X120500000Y-57620000D03*
%TO.P,J20,TN*%
X120500000Y-49320000D03*
%TD*%
D11*
%TO.P,J19,S*%
%TO.N,B2*%
X55500000Y-46220000D03*
D10*
%TO.P,J19,T*%
X55500000Y-57620000D03*
%TO.P,J19,TN*%
X55500000Y-49320000D03*
%TD*%
D11*
%TO.P,J18,S*%
%TO.N,B1*%
X135500000Y-60720000D03*
D10*
%TO.P,J18,T*%
X135500000Y-72120000D03*
%TO.P,J18,TN*%
X135500000Y-63820000D03*
%TD*%
D11*
%TO.P,J17,S*%
%TO.N,B1*%
X70500000Y-60720000D03*
D10*
%TO.P,J17,T*%
X70500000Y-72120000D03*
%TO.P,J17,TN*%
X70500000Y-63820000D03*
%TD*%
D11*
%TO.P,J16,S*%
%TO.N,B1*%
X25500000Y-60720000D03*
D10*
%TO.P,J16,T*%
X25500000Y-72120000D03*
%TO.P,J16,TN*%
X25500000Y-63820000D03*
%TD*%
D11*
%TO.P,J14,S*%
%TO.N,B0*%
X70500000Y-46220000D03*
D10*
%TO.P,J14,T*%
X70500000Y-57620000D03*
%TO.P,J14,TN*%
X70500000Y-49320000D03*
%TD*%
D11*
%TO.P,J10,S*%
%TO.N,Net-(D8-A)*%
X155500000Y-53220000D03*
D10*
%TO.P,J10,T*%
X155500000Y-64620000D03*
%TO.P,J10,TN*%
X155500000Y-56320000D03*
%TD*%
D11*
%TO.P,J9,S*%
%TO.N,Net-(D7-A)*%
X145500000Y-53220000D03*
D10*
%TO.P,J9,T*%
X145500000Y-64620000D03*
%TO.P,J9,TN*%
X145500000Y-56320000D03*
%TD*%
D11*
%TO.P,J8,S*%
%TO.N,Net-(D6-A)*%
X110500000Y-53520000D03*
D10*
%TO.P,J8,T*%
X110500000Y-64920000D03*
%TO.P,J8,TN*%
X110500000Y-56620000D03*
%TD*%
D11*
%TO.P,J7,S*%
%TO.N,Net-(D4-A)*%
X100500000Y-53520000D03*
D10*
%TO.P,J7,T*%
X100500000Y-64920000D03*
%TO.P,J7,TN*%
X100500000Y-56620000D03*
%TD*%
D11*
%TO.P,J6,S*%
%TO.N,Net-(D3-A)*%
X90500000Y-53520000D03*
D10*
%TO.P,J6,T*%
X90500000Y-64920000D03*
%TO.P,J6,TN*%
X90500000Y-56620000D03*
%TD*%
D11*
%TO.P,J5,S*%
%TO.N,Net-(D2-A)*%
X80500000Y-53520000D03*
D10*
%TO.P,J5,T*%
X80500000Y-64920000D03*
%TO.P,J5,TN*%
X80500000Y-56620000D03*
%TD*%
D11*
%TO.P,J4,S*%
%TO.N,Net-(D1-A)*%
X40500000Y-52920000D03*
D10*
%TO.P,J4,T*%
X40500000Y-64320000D03*
%TO.P,J4,TN*%
X40500000Y-56020000D03*
%TD*%
D11*
%TO.P,J3,S*%
%TO.N,B0*%
X25500000Y-46220000D03*
D10*
%TO.P,J3,T*%
X25500000Y-57620000D03*
%TO.P,J3,TN*%
X25500000Y-49320000D03*
%TD*%
D12*
%TO.P,J1,1,Pin_1*%
%TO.N,B0*%
X70880000Y-33000000D03*
D13*
%TO.P,J1,2,Pin_2*%
X70880000Y-30460000D03*
%TO.P,J1,3,Pin_3*%
%TO.N,B1*%
X73420000Y-33000000D03*
%TO.P,J1,4,Pin_4*%
X73420000Y-30460000D03*
%TO.P,J1,5,Pin_5*%
%TO.N,B2*%
X75960000Y-33000000D03*
%TO.P,J1,6,Pin_6*%
X75960000Y-30460000D03*
%TO.P,J1,7,Pin_7*%
%TO.N,B3*%
X78500000Y-33000000D03*
%TO.P,J1,8,Pin_8*%
X78500000Y-30460000D03*
%TO.P,J1,9,Pin_9*%
%TO.N,unconnected-(J1-Pin_9-Pad9)*%
X81040000Y-33000000D03*
%TO.P,J1,10,Pin_10*%
%TO.N,unconnected-(J1-Pin_10-Pad10)*%
X81040000Y-30460000D03*
%TO.P,J1,11,Pin_11*%
%TO.N,A0*%
X83580000Y-33000000D03*
%TO.P,J1,12,Pin_12*%
X83580000Y-30460000D03*
%TO.P,J1,13,Pin_13*%
%TO.N,A1*%
X86120000Y-33000000D03*
%TO.P,J1,14,Pin_14*%
X86120000Y-30460000D03*
%TO.P,J1,15,Pin_15*%
%TO.N,A2*%
X88660000Y-33000000D03*
%TO.P,J1,16,Pin_16*%
X88660000Y-30460000D03*
%TO.P,J1,17,Pin_17*%
%TO.N,A3*%
X91200000Y-33000000D03*
%TO.P,J1,18,Pin_18*%
X91200000Y-30460000D03*
%TO.P,J1,19,Pin_19*%
%TO.N,A4*%
X93740000Y-33000000D03*
%TO.P,J1,20,Pin_20*%
X93740000Y-30460000D03*
%TO.P,J1,21,Pin_21*%
%TO.N,A5*%
X96280000Y-33000000D03*
%TO.P,J1,22,Pin_22*%
X96280000Y-30460000D03*
%TO.P,J1,23,Pin_23*%
%TO.N,A6*%
X98820000Y-33000000D03*
%TO.P,J1,24,Pin_24*%
X98820000Y-30460000D03*
%TD*%
D14*
%TO.P,D8,1,K*%
%TO.N,A6*%
X151380000Y-50000000D03*
D15*
%TO.P,D8,2,A*%
%TO.N,Net-(D8-A)*%
X159000000Y-50000000D03*
%TD*%
D14*
%TO.P,D7,1,K*%
%TO.N,A5*%
X143380000Y-47000000D03*
D15*
%TO.P,D7,2,A*%
%TO.N,Net-(D7-A)*%
X151000000Y-47000000D03*
%TD*%
D14*
%TO.P,D6,1,K*%
%TO.N,A4*%
X105880000Y-50500000D03*
D15*
%TO.P,D6,2,A*%
%TO.N,Net-(D6-A)*%
X113500000Y-50500000D03*
%TD*%
D14*
%TO.P,D4,1,K*%
%TO.N,A3*%
X97880000Y-47500000D03*
D15*
%TO.P,D4,2,A*%
%TO.N,Net-(D4-A)*%
X105500000Y-47500000D03*
%TD*%
D14*
%TO.P,D3,1,K*%
%TO.N,A2*%
X89880000Y-50500000D03*
D15*
%TO.P,D3,2,A*%
%TO.N,Net-(D3-A)*%
X97500000Y-50500000D03*
%TD*%
D14*
%TO.P,D2,1,K*%
%TO.N,A1*%
X82380000Y-47500000D03*
D15*
%TO.P,D2,2,A*%
%TO.N,Net-(D2-A)*%
X90000000Y-47500000D03*
%TD*%
D14*
%TO.P,D1,1,K*%
%TO.N,A0*%
X48000000Y-56690000D03*
D15*
%TO.P,D1,2,A*%
%TO.N,Net-(D1-A)*%
X48000000Y-64310000D03*
%TD*%
D16*
%TO.N,A0*%
X61500000Y-64000000D03*
X58000000Y-67500000D03*
%TD*%
D17*
%TO.N,B2*%
X161000000Y-68500000D02*
X124000000Y-68500000D01*
X162000000Y-67500000D02*
X161000000Y-68500000D01*
X162000000Y-58000000D02*
X162000000Y-67500000D01*
X162380000Y-57620000D02*
X162000000Y-58000000D01*
X165500000Y-57620000D02*
X162380000Y-57620000D01*
%TO.N,A0*%
X83500000Y-33080000D02*
X83580000Y-33000000D01*
X83500000Y-40500000D02*
X83500000Y-33080000D01*
X82500000Y-41500000D02*
X83500000Y-40500000D01*
X63500000Y-42500000D02*
X64500000Y-41500000D01*
X63500000Y-62000000D02*
X63500000Y-42500000D01*
X61500000Y-64000000D02*
X63500000Y-62000000D01*
X64500000Y-41500000D02*
X82500000Y-41500000D01*
%TO.N,B3*%
X75000000Y-39500000D02*
X78500000Y-36000000D01*
X58500000Y-39500000D02*
X75000000Y-39500000D01*
X58000000Y-53500000D02*
X58000000Y-40000000D01*
X58000000Y-40000000D02*
X58500000Y-39500000D01*
X54000000Y-55000000D02*
X56500000Y-55000000D01*
X52500000Y-56500000D02*
X54000000Y-55000000D01*
X52500000Y-59500000D02*
X52500000Y-56500000D01*
X78500000Y-36000000D02*
X78500000Y-33000000D01*
X53720000Y-60720000D02*
X52500000Y-59500000D01*
X56500000Y-55000000D02*
X58000000Y-53500000D01*
X55500000Y-60720000D02*
X53720000Y-60720000D01*
%TO.N,B2*%
X57500000Y-37500000D02*
X55500000Y-39500000D01*
X73500000Y-37500000D02*
X57500000Y-37500000D01*
X75960000Y-35040000D02*
X73500000Y-37500000D01*
X75960000Y-33000000D02*
X75960000Y-35040000D01*
X55500000Y-39500000D02*
X55500000Y-46220000D01*
%TO.N,A0*%
X53500000Y-68000000D02*
X57000000Y-68000000D01*
X57500000Y-68000000D02*
X58000000Y-67500000D01*
X52500000Y-64500000D02*
X52500000Y-67000000D01*
X52500000Y-67000000D02*
X53500000Y-68000000D01*
X49500000Y-61500000D02*
X52500000Y-64500000D01*
X48000000Y-60000000D02*
X49500000Y-61500000D01*
X57000000Y-68000000D02*
X57500000Y-68000000D01*
X48000000Y-56690000D02*
X48000000Y-60000000D01*
%TO.N,A6*%
X146500000Y-48500000D02*
X148000000Y-50000000D01*
X146500000Y-44500000D02*
X146500000Y-48500000D01*
X143000000Y-41000000D02*
X146500000Y-44500000D01*
X148000000Y-50000000D02*
X151380000Y-50000000D01*
X100500000Y-41000000D02*
X143000000Y-41000000D01*
X98820000Y-39320000D02*
X100500000Y-41000000D01*
X98820000Y-33000000D02*
X98820000Y-39320000D01*
%TO.N,A2*%
X87500000Y-45500000D02*
X88660000Y-44340000D01*
X87500000Y-49000000D02*
X87500000Y-45500000D01*
X89000000Y-50500000D02*
X87500000Y-49000000D01*
X88660000Y-44340000D02*
X88660000Y-33000000D01*
X89880000Y-50500000D02*
X89000000Y-50500000D01*
%TO.N,A4*%
X94000000Y-33260000D02*
X93740000Y-33000000D01*
X94000000Y-42000000D02*
X94000000Y-33260000D01*
X100500000Y-45000000D02*
X97000000Y-45000000D01*
X101000000Y-49500000D02*
X101000000Y-45500000D01*
X97000000Y-45000000D02*
X94000000Y-42000000D01*
X102000000Y-50500000D02*
X101000000Y-49500000D01*
X105880000Y-50500000D02*
X102000000Y-50500000D01*
X101000000Y-45500000D02*
X100500000Y-45000000D01*
%TO.N,A5*%
X117000000Y-52000000D02*
X118500000Y-53500000D01*
X136880000Y-53500000D02*
X143380000Y-47000000D01*
X117000000Y-48500000D02*
X117000000Y-52000000D01*
X99500000Y-43500000D02*
X112000000Y-43500000D01*
X112000000Y-43500000D02*
X117000000Y-48500000D01*
X96280000Y-40280000D02*
X99500000Y-43500000D01*
X118500000Y-53500000D02*
X136880000Y-53500000D01*
X96280000Y-33000000D02*
X96280000Y-40280000D01*
%TO.N,A3*%
X91200000Y-43700000D02*
X91200000Y-33000000D01*
X95000000Y-47500000D02*
X91200000Y-43700000D01*
X97880000Y-47500000D02*
X95000000Y-47500000D01*
%TO.N,A1*%
X86000000Y-46500000D02*
X86000000Y-33120000D01*
X85000000Y-47500000D02*
X86000000Y-46500000D01*
X82380000Y-47500000D02*
X85000000Y-47500000D01*
X86000000Y-33120000D02*
X86120000Y-33000000D01*
%TO.N,B1*%
X23000000Y-44000000D02*
X23000000Y-58220000D01*
X31500000Y-35500000D02*
X23000000Y-44000000D01*
X72500000Y-35500000D02*
X31500000Y-35500000D01*
X73420000Y-34580000D02*
X72500000Y-35500000D01*
X23000000Y-58220000D02*
X25500000Y-60720000D01*
X73420000Y-33000000D02*
X73420000Y-34580000D01*
%TO.N,B2*%
X120880000Y-58000000D02*
X120500000Y-57620000D01*
X124000000Y-58000000D02*
X120880000Y-58000000D01*
X125500000Y-59500000D02*
X124000000Y-58000000D01*
X125500000Y-67000000D02*
X125500000Y-59500000D01*
X124000000Y-68500000D02*
X125500000Y-67000000D01*
X60500000Y-68500000D02*
X124000000Y-68500000D01*
X60000000Y-68000000D02*
X60500000Y-68500000D01*
X60000000Y-60000000D02*
X60000000Y-68000000D01*
X57620000Y-57620000D02*
X60000000Y-60000000D01*
X55500000Y-57620000D02*
X57620000Y-57620000D01*
%TO.N,B3*%
X162620000Y-75000000D02*
X165500000Y-72120000D01*
X117620000Y-75000000D02*
X162620000Y-75000000D01*
X117620000Y-75000000D02*
X120500000Y-72120000D01*
X56500000Y-75000000D02*
X117620000Y-75000000D01*
X55500000Y-74000000D02*
X56500000Y-75000000D01*
X55500000Y-72120000D02*
X55500000Y-74000000D01*
%TD*%
M02*
