M48
; DRILL file {KiCad 9.0.1} date 2025-10-08T12:17:02+0100
; FORMAT={-:-/ absolute / metric / decimal}
; #@! TF.CreationDate,2025-10-08T12:17:02+01:00
; #@! TF.GenerationSoftware,Kicad,Pcbnew,9.0.1
; #@! TF.FileFunction,Plated,1,2,PTH
FMAT,2
METRIC
; #@! TA.AperFunction,Plated,PTH,ViaDrill
T1C0.300
; #@! TA.AperFunction,Plated,PTH,ComponentDrill
T2C0.800
; #@! TA.AperFunction,Plated,PTH,ComponentDrill
T3C1.000
; #@! TA.AperFunction,Plated,PTH,ComponentDrill
T4C1.220
; #@! TA.AperFunction,Plated,PTH,ComponentDrill
T5C1.420
; #@! TA.AperFunction,Plated,PTH,ComponentDrill
T6C1.430
%
G90
G05
T1
X58.0Y-67.5
X61.5Y-64.0
T2
X48.0Y-56.69
X48.0Y-64.31
X82.38Y-47.5
X89.88Y-50.5
X90.0Y-47.5
X97.5Y-50.5
X97.88Y-47.5
X105.5Y-47.5
X105.88Y-50.5
X113.5Y-50.5
X143.38Y-47.0
X151.0Y-47.0
X151.38Y-50.0
X159.0Y-50.0
T3
X70.88Y-30.46
X70.88Y-33.0
X73.42Y-30.46
X73.42Y-33.0
X75.96Y-30.46
X75.96Y-33.0
X78.5Y-30.46
X78.5Y-33.0
X81.04Y-30.46
X81.04Y-33.0
X83.58Y-30.46
X83.58Y-33.0
X86.12Y-30.46
X86.12Y-33.0
X88.66Y-30.46
X88.66Y-33.0
X91.2Y-30.46
X91.2Y-33.0
X93.74Y-30.46
X93.74Y-33.0
X96.28Y-30.46
X96.28Y-33.0
X98.82Y-30.46
X98.82Y-33.0
T4
X25.5Y-46.22
X25.5Y-60.72
X40.5Y-52.92
X55.5Y-46.22
X55.5Y-60.72
X70.5Y-46.22
X70.5Y-60.72
X80.5Y-53.52
X90.5Y-53.52
X100.5Y-53.52
X110.5Y-53.52
X120.5Y-46.22
X120.5Y-60.72
X135.5Y-46.22
X135.5Y-60.72
X145.5Y-53.22
X155.5Y-53.22
X165.5Y-46.22
X165.5Y-60.72
T5
X25.5Y-49.32
X25.5Y-63.82
X40.5Y-56.02
X55.5Y-49.32
X55.5Y-63.82
X70.5Y-49.32
X70.5Y-63.82
X80.5Y-56.62
X90.5Y-56.62
X100.5Y-56.62
X110.5Y-56.62
X120.5Y-49.32
X120.5Y-63.82
X135.5Y-49.32
X135.5Y-63.82
X145.5Y-56.32
X155.5Y-56.32
X165.5Y-49.32
X165.5Y-63.82
T6
X25.5Y-57.62
X25.5Y-72.12
X40.5Y-64.32
X55.5Y-57.62
X55.5Y-72.12
X70.5Y-57.62
X70.5Y-72.12
X80.5Y-64.92
X90.5Y-64.92
X100.5Y-64.92
X110.5Y-64.92
X120.5Y-57.62
X120.5Y-72.12
X135.5Y-57.62
X135.5Y-72.12
X145.5Y-64.62
X155.5Y-64.62
X165.5Y-57.62
X165.5Y-72.12
M30
