%TF.GenerationSoftware,KiCad,Pcbnew,9.0.1*%
%TF.CreationDate,2025-10-08T12:17:04+01:00*%
%TF.ProjectId,WEASEL_KiCad_virtualModMatrix,57454153-454c-45f4-9b69-4361645f7669,rev?*%
%TF.SameCoordinates,Original*%
%TF.FileFunction,Copper,L1,Top*%
%TF.FilePolarity,Positive*%
%FSLAX46Y46*%
G04 Gerber Fmt 4.6, Leading zero omitted, Abs format (unit mm)*
G04 Created by KiCad (PCBNEW 9.0.1) date 2025-10-08 12:17:04*
%MOMM*%
%LPD*%
G01*
G04 APERTURE LIST*
%TA.AperFunction,ComponentPad*%
%ADD10C,2.130000*%
%TD*%
%TA.AperFunction,ComponentPad*%
%ADD11R,1.930000X1.830000*%
%TD*%
%TA.AperFunction,ComponentPad*%
%ADD12R,1.700000X1.700000*%
%TD*%
%TA.AperFunction,ComponentPad*%
%ADD13C,1.700000*%
%TD*%
%TA.AperFunction,ComponentPad*%
%ADD14R,2.000000X2.000000*%
%TD*%
%TA.AperFunction,ComponentPad*%
%ADD15O,2.000000X2.000000*%
%TD*%
%TA.AperFunction,ViaPad*%
%ADD16C,0.600000*%
%TD*%
%TA.AperFunction,Conductor*%
%ADD17C,1.000000*%
%TD*%
G04 APERTURE END LIST*
D10*
%TO.P,J15,TN*%
%TO.N,B0*%
X135500000Y-49320000D03*
%TO.P,J15,T*%
X135500000Y-57620000D03*
D11*
%TO.P,J15,S*%
X135500000Y-46220000D03*
%TD*%
%TO.P,J24,S*%
%TO.N,B3*%
X165500000Y-60720000D03*
D10*
%TO.P,J24,T*%
X165500000Y-72120000D03*
%TO.P,J24,TN*%
X165500000Y-63820000D03*
%TD*%
D11*
%TO.P,J23,S*%
%TO.N,B3*%
X120500000Y-60720000D03*
D10*
%TO.P,J23,T*%
X120500000Y-72120000D03*
%TO.P,J23,TN*%
X120500000Y-63820000D03*
%TD*%
D11*
%TO.P,J22,S*%
%TO.N,B3*%
X55500000Y-60720000D03*
D10*
%TO.P,J22,T*%
X55500000Y-72120000D03*
%TO.P,J22,TN*%
X55500000Y-63820000D03*
%TD*%
D11*
%TO.P,J21,S*%
%TO.N,B2*%
X165500000Y-46220000D03*
D10*
%TO.P,J21,T*%
X165500000Y-57620000D03*
%TO.P,J21,TN*%
X165500000Y-49320000D03*
%TD*%
D11*
%TO.P,J20,S*%
%TO.N,B2*%
X120500000Y-46220000D03*
D10*
%TO.P,J20,T*%
X120500000Y-57620000D03*
%TO.P,J20,TN*%
X120500000Y-49320000D03*
%TD*%
D11*
%TO.P,J19,S*%
%TO.N,B2*%
X55500000Y-46220000D03*
D10*
%TO.P,J19,T*%
X55500000Y-57620000D03*
%TO.P,J19,TN*%
X55500000Y-49320000D03*
%TD*%
D11*
%TO.P,J18,S*%
%TO.N,B1*%
X135500000Y-60720000D03*
D10*
%TO.P,J18,T*%
X135500000Y-72120000D03*
%TO.P,J18,TN*%
X135500000Y-63820000D03*
%TD*%
D11*
%TO.P,J17,S*%
%TO.N,B1*%
X70500000Y-60720000D03*
D10*
%TO.P,J17,T*%
X70500000Y-72120000D03*
%TO.P,J17,TN*%
X70500000Y-63820000D03*
%TD*%
D11*
%TO.P,J16,S*%
%TO.N,B1*%
X25500000Y-60720000D03*
D10*
%TO.P,J16,T*%
X25500000Y-72120000D03*
%TO.P,J16,TN*%
X25500000Y-63820000D03*
%TD*%
D11*
%TO.P,J14,S*%
%TO.N,B0*%
X70500000Y-46220000D03*
D10*
%TO.P,J14,T*%
X70500000Y-57620000D03*
%TO.P,J14,TN*%
X70500000Y-49320000D03*
%TD*%
D11*
%TO.P,J10,S*%
%TO.N,Net-(D8-A)*%
X155500000Y-53220000D03*
D10*
%TO.P,J10,T*%
X155500000Y-64620000D03*
%TO.P,J10,TN*%
X155500000Y-56320000D03*
%TD*%
D11*
%TO.P,J9,S*%
%TO.N,Net-(D7-A)*%
X145500000Y-53220000D03*
D10*
%TO.P,J9,T*%
X145500000Y-64620000D03*
%TO.P,J9,TN*%
X145500000Y-56320000D03*
%TD*%
D11*
%TO.P,J8,S*%
%TO.N,Net-(D6-A)*%
X110500000Y-53520000D03*
D10*
%TO.P,J8,T*%
X110500000Y-64920000D03*
%TO.P,J8,TN*%
X110500000Y-56620000D03*
%TD*%
D11*
%TO.P,J7,S*%
%TO.N,Net-(D4-A)*%
X100500000Y-53520000D03*
D10*
%TO.P,J7,T*%
X100500000Y-64920000D03*
%TO.P,J7,TN*%
X100500000Y-56620000D03*
%TD*%
D11*
%TO.P,J6,S*%
%TO.N,Net-(D3-A)*%
X90500000Y-53520000D03*
D10*
%TO.P,J6,T*%
X90500000Y-64920000D03*
%TO.P,J6,TN*%
X90500000Y-56620000D03*
%TD*%
D11*
%TO.P,J5,S*%
%TO.N,Net-(D2-A)*%
X80500000Y-53520000D03*
D10*
%TO.P,J5,T*%
X80500000Y-64920000D03*
%TO.P,J5,TN*%
X80500000Y-56620000D03*
%TD*%
D11*
%TO.P,J4,S*%
%TO.N,Net-(D1-A)*%
X40500000Y-52920000D03*
D10*
%TO.P,J4,T*%
X40500000Y-64320000D03*
%TO.P,J4,TN*%
X40500000Y-56020000D03*
%TD*%
D11*
%TO.P,J3,S*%
%TO.N,B0*%
X25500000Y-46220000D03*
D10*
%TO.P,J3,T*%
X25500000Y-57620000D03*
%TO.P,J3,TN*%
X25500000Y-49320000D03*
%TD*%
D12*
%TO.P,J1,1,Pin_1*%
%TO.N,B0*%
X70880000Y-33000000D03*
D13*
%TO.P,J1,2,Pin_2*%
X70880000Y-30460000D03*
%TO.P,J1,3,Pin_3*%
%TO.N,B1*%
X73420000Y-33000000D03*
%TO.P,J1,4,Pin_4*%
X73420000Y-30460000D03*
%TO.P,J1,5,Pin_5*%
%TO.N,B2*%
X75960000Y-33000000D03*
%TO.P,J1,6,Pin_6*%
X75960000Y-30460000D03*
%TO.P,J1,7,Pin_7*%
%TO.N,B3*%
X78500000Y-33000000D03*
%TO.P,J1,8,Pin_8*%
X78500000Y-30460000D03*
%TO.P,J1,9,Pin_9*%
%TO.N,unconnected-(J1-Pin_9-Pad9)*%
X81040000Y-33000000D03*
%TO.P,J1,10,Pin_10*%
%TO.N,unconnected-(J1-Pin_10-Pad10)*%
X81040000Y-30460000D03*
%TO.P,J1,11,Pin_11*%
%TO.N,A0*%
X83580000Y-33000000D03*
%TO.P,J1,12,Pin_12*%
X83580000Y-30460000D03*
%TO.P,J1,13,Pin_13*%
%TO.N,A1*%
X86120000Y-33000000D03*
%TO.P,J1,14,Pin_14*%
X86120000Y-30460000D03*
%TO.P,J1,15,Pin_15*%
%TO.N,A2*%
X88660000Y-33000000D03*
%TO.P,J1,16,Pin_16*%
X88660000Y-30460000D03*
%TO.P,J1,17,Pin_17*%
%TO.N,A3*%
X91200000Y-33000000D03*
%TO.P,J1,18,Pin_18*%
X91200000Y-30460000D03*
%TO.P,J1,19,Pin_19*%
%TO.N,A4*%
X93740000Y-33000000D03*
%TO.P,J1,20,Pin_20*%
X93740000Y-30460000D03*
%TO.P,J1,21,Pin_21*%
%TO.N,A5*%
X96280000Y-33000000D03*
%TO.P,J1,22,Pin_22*%
X96280000Y-30460000D03*
%TO.P,J1,23,Pin_23*%
%TO.N,A6*%
X98820000Y-33000000D03*
%TO.P,J1,24,Pin_24*%
X98820000Y-30460000D03*
%TD*%
D14*
%TO.P,D8,1,K*%
%TO.N,A6*%
X151380000Y-50000000D03*
D15*
%TO.P,D8,2,A*%
%TO.N,Net-(D8-A)*%
X159000000Y-50000000D03*
%TD*%
D14*
%TO.P,D7,1,K*%
%TO.N,A5*%
X143380000Y-47000000D03*
D15*
%TO.P,D7,2,A*%
%TO.N,Net-(D7-A)*%
X151000000Y-47000000D03*
%TD*%
D14*
%TO.P,D6,1,K*%
%TO.N,A4*%
X105880000Y-50500000D03*
D15*
%TO.P,D6,2,A*%
%TO.N,Net-(D6-A)*%
X113500000Y-50500000D03*
%TD*%
D14*
%TO.P,D4,1,K*%
%TO.N,A3*%
X97880000Y-47500000D03*
D15*
%TO.P,D4,2,A*%
%TO.N,Net-(D4-A)*%
X105500000Y-47500000D03*
%TD*%
D14*
%TO.P,D3,1,K*%
%TO.N,A2*%
X89880000Y-50500000D03*
D15*
%TO.P,D3,2,A*%
%TO.N,Net-(D3-A)*%
X97500000Y-50500000D03*
%TD*%
D14*
%TO.P,D2,1,K*%
%TO.N,A1*%
X82380000Y-47500000D03*
D15*
%TO.P,D2,2,A*%
%TO.N,Net-(D2-A)*%
X90000000Y-47500000D03*
%TD*%
D14*
%TO.P,D1,1,K*%
%TO.N,A0*%
X48000000Y-56690000D03*
D15*
%TO.P,D1,2,A*%
%TO.N,Net-(D1-A)*%
X48000000Y-64310000D03*
%TD*%
D16*
%TO.N,A0*%
X61500000Y-64000000D03*
X58000000Y-67500000D03*
%TD*%
D17*
%TO.N,A0*%
X58000000Y-67500000D02*
X61500000Y-64000000D01*
%TO.N,B0*%
X60380000Y-43500000D02*
X26500000Y-43500000D01*
X70880000Y-33000000D02*
X60380000Y-43500000D01*
X132780000Y-43500000D02*
X135500000Y-46220000D01*
X67780000Y-43500000D02*
X132780000Y-43500000D01*
X67780000Y-43500000D02*
X70500000Y-46220000D01*
X26500000Y-43500000D02*
X67780000Y-43500000D01*
X25500000Y-44500000D02*
X26500000Y-43500000D01*
X25500000Y-46220000D02*
X25500000Y-44500000D01*
%TO.N,B1*%
X132620000Y-75000000D02*
X135500000Y-72120000D01*
X67620000Y-75000000D02*
X132620000Y-75000000D01*
X27500000Y-75000000D02*
X67620000Y-75000000D01*
X67620000Y-75000000D02*
X70500000Y-72120000D01*
X25500000Y-73000000D02*
X27500000Y-75000000D01*
X25500000Y-72120000D02*
X25500000Y-73000000D01*
%TO.N,Net-(D1-A)*%
X40510000Y-64310000D02*
X40500000Y-64320000D01*
X48000000Y-64310000D02*
X40510000Y-64310000D01*
%TO.N,Net-(D2-A)*%
X86500000Y-47500000D02*
X90000000Y-47500000D01*
X80500000Y-53500000D02*
X86500000Y-47500000D01*
X80500000Y-53520000D02*
X80500000Y-53500000D01*
%TO.N,Net-(D3-A)*%
X94480000Y-53520000D02*
X97500000Y-50500000D01*
X90500000Y-53520000D02*
X94480000Y-53520000D01*
%TO.N,Net-(D4-A)*%
X103500000Y-47500000D02*
X105500000Y-47500000D01*
X100500000Y-50500000D02*
X103500000Y-47500000D01*
X100500000Y-53520000D02*
X100500000Y-50500000D01*
%TO.N,Net-(D6-A)*%
X110500000Y-53500000D02*
X113500000Y-50500000D01*
X110500000Y-53520000D02*
X110500000Y-53500000D01*
%TO.N,Net-(D7-A)*%
X145500000Y-53220000D02*
X145500000Y-52500000D01*
X145500000Y-52500000D02*
X151000000Y-47000000D01*
%TO.N,Net-(D8-A)*%
X155500000Y-53220000D02*
X155780000Y-53220000D01*
X155780000Y-53220000D02*
X159000000Y-50000000D01*
%TO.N,B3*%
X165500000Y-60720000D02*
X165500000Y-72120000D01*
%TO.N,B2*%
X165500000Y-46220000D02*
X165500000Y-57620000D01*
%TO.N,Net-(D8-A)*%
X155500000Y-53220000D02*
X155500000Y-64620000D01*
%TO.N,Net-(D7-A)*%
X145500000Y-53220000D02*
X145500000Y-64620000D01*
%TO.N,B1*%
X135500000Y-60720000D02*
X135500000Y-72120000D01*
%TO.N,B2*%
X120500000Y-46220000D02*
X120500000Y-57620000D01*
%TO.N,Net-(D6-A)*%
X110500000Y-53520000D02*
X110500000Y-64920000D01*
%TO.N,B2*%
X55500000Y-46220000D02*
X55500000Y-57620000D01*
%TO.N,Net-(D4-A)*%
X100500000Y-53520000D02*
X100500000Y-64920000D01*
%TO.N,Net-(D3-A)*%
X90500000Y-53520000D02*
X90500000Y-64920000D01*
%TO.N,Net-(D2-A)*%
X80500000Y-53520000D02*
X80500000Y-64920000D01*
%TO.N,Net-(D1-A)*%
X40500000Y-52920000D02*
X40500000Y-64320000D01*
%TO.N,B3*%
X120500000Y-60720000D02*
X120500000Y-72120000D01*
X55500000Y-60720000D02*
X55500000Y-72120000D01*
%TO.N,B1*%
X70500000Y-60720000D02*
X70500000Y-72120000D01*
X25500000Y-60720000D02*
X25500000Y-72120000D01*
%TO.N,B0*%
X135500000Y-46220000D02*
X135500000Y-57620000D01*
X70500000Y-46220000D02*
X70500000Y-57620000D01*
X25500000Y-46220000D02*
X25500000Y-57620000D01*
%TO.N,A6*%
X98820000Y-30460000D02*
X98820000Y-33000000D01*
%TO.N,A5*%
X96280000Y-30460000D02*
X96280000Y-33000000D01*
%TO.N,A4*%
X93740000Y-30460000D02*
X93740000Y-33000000D01*
%TO.N,A3*%
X91200000Y-30460000D02*
X91200000Y-33000000D01*
%TO.N,A2*%
X88660000Y-30460000D02*
X88660000Y-33000000D01*
%TO.N,A1*%
X86120000Y-30460000D02*
X86120000Y-33000000D01*
%TO.N,A0*%
X83580000Y-30460000D02*
X83580000Y-33000000D01*
%TO.N,B3*%
X78500000Y-30460000D02*
X78500000Y-33000000D01*
%TO.N,B2*%
X75960000Y-30460000D02*
X75960000Y-33000000D01*
%TO.N,B1*%
X73420000Y-30460000D02*
X73420000Y-33000000D01*
%TO.N,B0*%
X70880000Y-30460000D02*
X70880000Y-33000000D01*
%TD*%
%TA.AperFunction,NonConductor*%
G36*
X72221444Y-31113999D02*
G01*
X72260486Y-31159056D01*
X72264951Y-31167820D01*
X72392759Y-31343734D01*
X72391888Y-31344366D01*
X72418357Y-31403401D01*
X72419500Y-31420199D01*
X72419500Y-31879140D01*
X72399815Y-31946179D01*
X72347011Y-31991934D01*
X72277853Y-32001878D01*
X72214297Y-31972853D01*
X72179318Y-31922473D01*
X72173797Y-31907671D01*
X72173793Y-31907664D01*
X72087547Y-31792455D01*
X72087544Y-31792452D01*
X71972335Y-31706206D01*
X71972332Y-31706205D01*
X71972331Y-31706204D01*
X71961161Y-31702038D01*
X71943437Y-31688768D01*
X71923297Y-31679571D01*
X71916014Y-31668238D01*
X71905231Y-31660166D01*
X71897493Y-31639420D01*
X71885523Y-31620793D01*
X71882370Y-31598870D01*
X71880816Y-31594701D01*
X71880500Y-31585858D01*
X71880500Y-31420199D01*
X71900185Y-31353160D01*
X71909471Y-31340664D01*
X72035048Y-31167820D01*
X72035047Y-31167820D01*
X72035051Y-31167816D01*
X72039514Y-31159054D01*
X72087488Y-31108259D01*
X72155308Y-31091463D01*
X72221444Y-31113999D01*
G37*
%TD.AperFunction*%
%TA.AperFunction,NonConductor*%
G36*
X97621444Y-31113999D02*
G01*
X97660486Y-31159056D01*
X97664951Y-31167820D01*
X97792759Y-31343734D01*
X97791888Y-31344366D01*
X97818357Y-31403401D01*
X97819500Y-31420199D01*
X97819500Y-32039800D01*
X97799815Y-32106839D01*
X97790506Y-32119365D01*
X97664949Y-32292182D01*
X97660484Y-32300946D01*
X97612509Y-32351742D01*
X97544688Y-32368536D01*
X97478553Y-32345998D01*
X97439516Y-32300946D01*
X97435050Y-32292182D01*
X97307241Y-32116266D01*
X97308108Y-32115635D01*
X97281641Y-32056581D01*
X97280500Y-32039800D01*
X97280500Y-31420199D01*
X97300185Y-31353160D01*
X97309471Y-31340664D01*
X97435048Y-31167820D01*
X97435047Y-31167820D01*
X97435051Y-31167816D01*
X97439514Y-31159054D01*
X97487488Y-31108259D01*
X97555308Y-31091463D01*
X97621444Y-31113999D01*
G37*
%TD.AperFunction*%
%TA.AperFunction,NonConductor*%
G36*
X95081444Y-31113999D02*
G01*
X95120486Y-31159056D01*
X95124951Y-31167820D01*
X95252759Y-31343734D01*
X95251888Y-31344366D01*
X95278357Y-31403401D01*
X95279500Y-31420199D01*
X95279500Y-32039800D01*
X95259815Y-32106839D01*
X95250506Y-32119365D01*
X95124949Y-32292182D01*
X95120484Y-32300946D01*
X95072509Y-32351742D01*
X95004688Y-32368536D01*
X94938553Y-32345998D01*
X94899516Y-32300946D01*
X94895050Y-32292182D01*
X94767241Y-32116266D01*
X94768108Y-32115635D01*
X94741641Y-32056581D01*
X94740500Y-32039800D01*
X94740500Y-31420199D01*
X94760185Y-31353160D01*
X94769471Y-31340664D01*
X94895048Y-31167820D01*
X94895047Y-31167820D01*
X94895051Y-31167816D01*
X94899514Y-31159054D01*
X94947488Y-31108259D01*
X95015308Y-31091463D01*
X95081444Y-31113999D01*
G37*
%TD.AperFunction*%
%TA.AperFunction,NonConductor*%
G36*
X92541444Y-31113999D02*
G01*
X92580486Y-31159056D01*
X92584951Y-31167820D01*
X92712759Y-31343734D01*
X92711888Y-31344366D01*
X92738357Y-31403401D01*
X92739500Y-31420199D01*
X92739500Y-32039800D01*
X92719815Y-32106839D01*
X92710506Y-32119365D01*
X92584949Y-32292182D01*
X92580484Y-32300946D01*
X92532509Y-32351742D01*
X92464688Y-32368536D01*
X92398553Y-32345998D01*
X92359516Y-32300946D01*
X92355050Y-32292182D01*
X92227241Y-32116266D01*
X92228108Y-32115635D01*
X92201641Y-32056581D01*
X92200500Y-32039800D01*
X92200500Y-31420199D01*
X92220185Y-31353160D01*
X92229471Y-31340664D01*
X92355048Y-31167820D01*
X92355047Y-31167820D01*
X92355051Y-31167816D01*
X92359514Y-31159054D01*
X92407488Y-31108259D01*
X92475308Y-31091463D01*
X92541444Y-31113999D01*
G37*
%TD.AperFunction*%
%TA.AperFunction,NonConductor*%
G36*
X90001444Y-31113999D02*
G01*
X90040486Y-31159056D01*
X90044951Y-31167820D01*
X90172759Y-31343734D01*
X90171888Y-31344366D01*
X90198357Y-31403401D01*
X90199500Y-31420199D01*
X90199500Y-32039800D01*
X90179815Y-32106839D01*
X90170506Y-32119365D01*
X90044949Y-32292182D01*
X90040484Y-32300946D01*
X89992509Y-32351742D01*
X89924688Y-32368536D01*
X89858553Y-32345998D01*
X89819516Y-32300946D01*
X89815050Y-32292182D01*
X89687241Y-32116266D01*
X89688108Y-32115635D01*
X89661641Y-32056581D01*
X89660500Y-32039800D01*
X89660500Y-31420199D01*
X89680185Y-31353160D01*
X89689471Y-31340664D01*
X89815048Y-31167820D01*
X89815047Y-31167820D01*
X89815051Y-31167816D01*
X89819514Y-31159054D01*
X89867488Y-31108259D01*
X89935308Y-31091463D01*
X90001444Y-31113999D01*
G37*
%TD.AperFunction*%
%TA.AperFunction,NonConductor*%
G36*
X87461444Y-31113999D02*
G01*
X87500486Y-31159056D01*
X87504951Y-31167820D01*
X87632759Y-31343734D01*
X87631888Y-31344366D01*
X87658357Y-31403401D01*
X87659500Y-31420199D01*
X87659500Y-32039800D01*
X87639815Y-32106839D01*
X87630506Y-32119365D01*
X87504949Y-32292182D01*
X87500484Y-32300946D01*
X87452509Y-32351742D01*
X87384688Y-32368536D01*
X87318553Y-32345998D01*
X87279516Y-32300946D01*
X87275050Y-32292182D01*
X87147241Y-32116266D01*
X87148108Y-32115635D01*
X87121641Y-32056581D01*
X87120500Y-32039800D01*
X87120500Y-31420199D01*
X87140185Y-31353160D01*
X87149471Y-31340664D01*
X87275048Y-31167820D01*
X87275047Y-31167820D01*
X87275051Y-31167816D01*
X87279514Y-31159054D01*
X87327488Y-31108259D01*
X87395308Y-31091463D01*
X87461444Y-31113999D01*
G37*
%TD.AperFunction*%
%TA.AperFunction,NonConductor*%
G36*
X84921444Y-31113999D02*
G01*
X84960486Y-31159056D01*
X84964951Y-31167820D01*
X85092759Y-31343734D01*
X85091888Y-31344366D01*
X85118357Y-31403401D01*
X85119500Y-31420199D01*
X85119500Y-32039800D01*
X85099815Y-32106839D01*
X85090506Y-32119365D01*
X84964949Y-32292182D01*
X84960484Y-32300946D01*
X84912509Y-32351742D01*
X84844688Y-32368536D01*
X84778553Y-32345998D01*
X84739516Y-32300946D01*
X84735050Y-32292182D01*
X84607241Y-32116266D01*
X84608108Y-32115635D01*
X84581641Y-32056581D01*
X84580500Y-32039800D01*
X84580500Y-31420199D01*
X84600185Y-31353160D01*
X84609471Y-31340664D01*
X84735048Y-31167820D01*
X84735047Y-31167820D01*
X84735051Y-31167816D01*
X84739514Y-31159054D01*
X84787488Y-31108259D01*
X84855308Y-31091463D01*
X84921444Y-31113999D01*
G37*
%TD.AperFunction*%
%TA.AperFunction,NonConductor*%
G36*
X82381444Y-31113999D02*
G01*
X82420486Y-31159056D01*
X82424951Y-31167820D01*
X82552759Y-31343734D01*
X82551888Y-31344366D01*
X82578357Y-31403401D01*
X82579500Y-31420199D01*
X82579500Y-32039800D01*
X82559815Y-32106839D01*
X82550506Y-32119365D01*
X82424949Y-32292182D01*
X82420484Y-32300946D01*
X82372509Y-32351742D01*
X82304688Y-32368536D01*
X82238553Y-32345998D01*
X82199516Y-32300946D01*
X82195050Y-32292182D01*
X82070109Y-32120213D01*
X81919786Y-31969890D01*
X81747820Y-31844951D01*
X81747115Y-31844591D01*
X81739054Y-31840485D01*
X81688259Y-31792512D01*
X81671463Y-31724692D01*
X81693999Y-31658556D01*
X81739054Y-31619515D01*
X81747816Y-31615051D01*
X81787997Y-31585858D01*
X81919786Y-31490109D01*
X81919788Y-31490106D01*
X81919792Y-31490104D01*
X82070104Y-31339792D01*
X82070106Y-31339788D01*
X82070109Y-31339786D01*
X82195048Y-31167820D01*
X82195047Y-31167820D01*
X82195051Y-31167816D01*
X82199514Y-31159054D01*
X82247488Y-31108259D01*
X82315308Y-31091463D01*
X82381444Y-31113999D01*
G37*
%TD.AperFunction*%
%TA.AperFunction,NonConductor*%
G36*
X79841444Y-31113999D02*
G01*
X79880486Y-31159056D01*
X79884951Y-31167820D01*
X80009890Y-31339786D01*
X80160213Y-31490109D01*
X80332182Y-31615050D01*
X80340946Y-31619516D01*
X80391742Y-31667491D01*
X80408536Y-31735312D01*
X80385998Y-31801447D01*
X80340946Y-31840484D01*
X80332182Y-31844949D01*
X80160213Y-31969890D01*
X80009890Y-32120213D01*
X79884949Y-32292182D01*
X79880484Y-32300946D01*
X79832509Y-32351742D01*
X79764688Y-32368536D01*
X79698553Y-32345998D01*
X79659516Y-32300946D01*
X79655050Y-32292182D01*
X79527241Y-32116266D01*
X79528108Y-32115635D01*
X79501641Y-32056581D01*
X79500500Y-32039800D01*
X79500500Y-31420199D01*
X79520185Y-31353160D01*
X79529471Y-31340664D01*
X79655048Y-31167820D01*
X79655047Y-31167820D01*
X79655051Y-31167816D01*
X79659514Y-31159054D01*
X79707488Y-31108259D01*
X79775308Y-31091463D01*
X79841444Y-31113999D01*
G37*
%TD.AperFunction*%
%TA.AperFunction,NonConductor*%
G36*
X77301444Y-31113999D02*
G01*
X77340486Y-31159056D01*
X77344951Y-31167820D01*
X77472759Y-31343734D01*
X77471888Y-31344366D01*
X77498357Y-31403401D01*
X77499500Y-31420199D01*
X77499500Y-32039800D01*
X77479815Y-32106839D01*
X77470506Y-32119365D01*
X77344949Y-32292182D01*
X77340484Y-32300946D01*
X77292509Y-32351742D01*
X77224688Y-32368536D01*
X77158553Y-32345998D01*
X77119516Y-32300946D01*
X77115050Y-32292182D01*
X76987241Y-32116266D01*
X76988108Y-32115635D01*
X76961641Y-32056581D01*
X76960500Y-32039800D01*
X76960500Y-31420199D01*
X76980185Y-31353160D01*
X76989471Y-31340664D01*
X77115048Y-31167820D01*
X77115047Y-31167820D01*
X77115051Y-31167816D01*
X77119514Y-31159054D01*
X77167488Y-31108259D01*
X77235308Y-31091463D01*
X77301444Y-31113999D01*
G37*
%TD.AperFunction*%
%TA.AperFunction,NonConductor*%
G36*
X74761444Y-31113999D02*
G01*
X74800486Y-31159056D01*
X74804951Y-31167820D01*
X74932759Y-31343734D01*
X74931888Y-31344366D01*
X74958357Y-31403401D01*
X74959500Y-31420199D01*
X74959500Y-32039800D01*
X74939815Y-32106839D01*
X74930506Y-32119365D01*
X74804949Y-32292182D01*
X74800484Y-32300946D01*
X74752509Y-32351742D01*
X74684688Y-32368536D01*
X74618553Y-32345998D01*
X74579516Y-32300946D01*
X74575050Y-32292182D01*
X74447241Y-32116266D01*
X74448108Y-32115635D01*
X74421641Y-32056581D01*
X74420500Y-32039800D01*
X74420500Y-31420199D01*
X74440185Y-31353160D01*
X74449471Y-31340664D01*
X74575048Y-31167820D01*
X74575047Y-31167820D01*
X74575051Y-31167816D01*
X74579514Y-31159054D01*
X74627488Y-31108259D01*
X74695308Y-31091463D01*
X74761444Y-31113999D01*
G37*
%TD.AperFunction*%
%TA.AperFunction,NonConductor*%
G36*
X132381257Y-44520185D02*
G01*
X132401899Y-44536819D01*
X133998181Y-46133101D01*
X134031666Y-46194424D01*
X134034500Y-46220782D01*
X134034500Y-47182870D01*
X134034501Y-47182876D01*
X134040908Y-47242483D01*
X134091202Y-47377328D01*
X134091206Y-47377335D01*
X134177452Y-47492544D01*
X134177455Y-47492547D01*
X134292664Y-47578793D01*
X134292671Y-47578797D01*
X134418833Y-47625852D01*
X134474767Y-47667723D01*
X134499184Y-47733187D01*
X134499500Y-47742034D01*
X134499500Y-48055185D01*
X134479815Y-48122224D01*
X134463182Y-48142866D01*
X134305902Y-48300146D01*
X134161064Y-48499498D01*
X134049192Y-48719059D01*
X133973048Y-48953406D01*
X133973048Y-48953409D01*
X133934500Y-49196792D01*
X133934500Y-49443207D01*
X133973048Y-49686590D01*
X133973048Y-49686593D01*
X134049192Y-49920940D01*
X134102764Y-50026080D01*
X134161064Y-50140501D01*
X134305903Y-50339855D01*
X134305905Y-50339857D01*
X134463181Y-50497133D01*
X134496666Y-50558456D01*
X134499500Y-50584814D01*
X134499500Y-51525988D01*
X134479815Y-51593027D01*
X134465148Y-51611657D01*
X134330289Y-51752779D01*
X134330279Y-51752792D01*
X134191287Y-51956547D01*
X134191285Y-51956552D01*
X134087439Y-52180268D01*
X134087436Y-52180276D01*
X134021520Y-52417960D01*
X134021519Y-52417967D01*
X133995307Y-52663225D01*
X134009507Y-52909474D01*
X134009507Y-52909479D01*
X134063731Y-53150092D01*
X134156533Y-53378636D01*
X134285412Y-53588947D01*
X134421969Y-53746591D01*
X134446908Y-53775382D01*
X134454702Y-53781853D01*
X134493711Y-53839818D01*
X134499500Y-53877262D01*
X134499500Y-56355185D01*
X134479815Y-56422224D01*
X134463182Y-56442866D01*
X134305902Y-56600146D01*
X134161064Y-56799498D01*
X134049192Y-57019059D01*
X133973048Y-57253406D01*
X133973048Y-57253409D01*
X133934500Y-57496792D01*
X133934500Y-57743207D01*
X133973048Y-57986590D01*
X133973048Y-57986593D01*
X134049192Y-58220940D01*
X134095415Y-58311657D01*
X134161064Y-58440501D01*
X134305903Y-58639855D01*
X134480145Y-58814097D01*
X134679499Y-58958936D01*
X134897505Y-59070015D01*
X134948301Y-59117989D01*
X134965096Y-59185810D01*
X134942559Y-59251945D01*
X134887844Y-59295397D01*
X134841210Y-59304500D01*
X134487129Y-59304500D01*
X134487123Y-59304501D01*
X134427516Y-59310908D01*
X134292671Y-59361202D01*
X134292664Y-59361206D01*
X134177455Y-59447452D01*
X134177452Y-59447455D01*
X134091206Y-59562664D01*
X134091202Y-59562671D01*
X134040908Y-59697517D01*
X134034818Y-59754168D01*
X134034501Y-59757123D01*
X134034500Y-59757135D01*
X134034500Y-61682870D01*
X134034501Y-61682876D01*
X134040908Y-61742483D01*
X134091202Y-61877328D01*
X134091206Y-61877335D01*
X134177452Y-61992544D01*
X134177455Y-61992547D01*
X134292664Y-62078793D01*
X134292671Y-62078797D01*
X134418833Y-62125852D01*
X134474767Y-62167723D01*
X134499184Y-62233187D01*
X134499500Y-62242034D01*
X134499500Y-62555185D01*
X134479815Y-62622224D01*
X134463182Y-62642866D01*
X134305902Y-62800146D01*
X134161064Y-62999498D01*
X134049192Y-63219059D01*
X133973048Y-63453406D01*
X133973048Y-63453409D01*
X133934500Y-63696792D01*
X133934500Y-63943207D01*
X133973048Y-64186590D01*
X133973048Y-64186593D01*
X134049192Y-64420940D01*
X134159678Y-64637781D01*
X134161064Y-64640501D01*
X134305903Y-64839855D01*
X134305905Y-64839857D01*
X134463181Y-64997133D01*
X134496666Y-65058456D01*
X134499500Y-65084814D01*
X134499500Y-66025988D01*
X134479815Y-66093027D01*
X134465148Y-66111657D01*
X134330289Y-66252779D01*
X134330279Y-66252792D01*
X134191287Y-66456547D01*
X134191285Y-66456552D01*
X134087439Y-66680268D01*
X134087436Y-66680276D01*
X134021520Y-66917960D01*
X134021519Y-66917967D01*
X133995307Y-67163225D01*
X134009507Y-67409474D01*
X134009507Y-67409479D01*
X134063731Y-67650092D01*
X134063734Y-67650099D01*
X134153586Y-67871380D01*
X134156533Y-67878636D01*
X134285412Y-68088947D01*
X134360398Y-68175512D01*
X134446908Y-68275382D01*
X134454702Y-68281853D01*
X134493711Y-68339818D01*
X134499500Y-68377262D01*
X134499500Y-70855185D01*
X134479815Y-70922224D01*
X134463182Y-70942866D01*
X134305902Y-71100146D01*
X134161064Y-71299498D01*
X134049192Y-71519059D01*
X133973048Y-71753406D01*
X133973048Y-71753409D01*
X133934500Y-71996792D01*
X133934500Y-72219217D01*
X133914815Y-72286256D01*
X133898181Y-72306898D01*
X132241899Y-73963181D01*
X132180576Y-73996666D01*
X132154218Y-73999500D01*
X70334781Y-73999500D01*
X70313535Y-73993261D01*
X70291447Y-73991682D01*
X70280663Y-73983609D01*
X70267742Y-73979815D01*
X70253242Y-73963081D01*
X70235514Y-73949810D01*
X70230806Y-73937189D01*
X70221987Y-73927011D01*
X70218835Y-73905093D01*
X70211097Y-73884346D01*
X70213959Y-73871185D01*
X70212043Y-73857853D01*
X70221242Y-73837709D01*
X70225949Y-73816073D01*
X70239217Y-73798347D01*
X70241068Y-73794297D01*
X70247100Y-73787819D01*
X70313100Y-73721819D01*
X70374423Y-73688334D01*
X70400781Y-73685500D01*
X70623207Y-73685500D01*
X70623208Y-73685500D01*
X70866589Y-73646952D01*
X70866592Y-73646951D01*
X70866593Y-73646951D01*
X71100940Y-73570807D01*
X71100940Y-73570806D01*
X71100943Y-73570806D01*
X71320501Y-73458936D01*
X71519855Y-73314097D01*
X71694097Y-73139855D01*
X71838936Y-72940501D01*
X71950806Y-72720943D01*
X72026952Y-72486589D01*
X72065500Y-72243208D01*
X72065500Y-71996792D01*
X72026952Y-71753411D01*
X72026951Y-71753407D01*
X72026951Y-71753406D01*
X71950807Y-71519059D01*
X71838935Y-71299498D01*
X71694097Y-71100145D01*
X71536818Y-70942866D01*
X71503334Y-70881543D01*
X71500500Y-70855185D01*
X71500500Y-68372216D01*
X71520185Y-68305177D01*
X71536972Y-68284382D01*
X71539510Y-68281853D01*
X71646223Y-68175512D01*
X71790158Y-67975205D01*
X71899445Y-67754079D01*
X71971149Y-67518074D01*
X72003344Y-67273526D01*
X72005141Y-67200000D01*
X71984930Y-66954171D01*
X71924841Y-66714945D01*
X71826486Y-66488744D01*
X71692508Y-66281645D01*
X71532784Y-66106112D01*
X71502227Y-66043282D01*
X71500500Y-66022660D01*
X71500500Y-65084814D01*
X71520185Y-65017775D01*
X71536819Y-64997133D01*
X71613012Y-64920940D01*
X71694097Y-64839855D01*
X71838936Y-64640501D01*
X71950806Y-64420943D01*
X71992758Y-64291828D01*
X72026951Y-64186593D01*
X72026951Y-64186592D01*
X72026952Y-64186589D01*
X72065500Y-63943208D01*
X72065500Y-63696792D01*
X72026952Y-63453411D01*
X72026951Y-63453407D01*
X72026951Y-63453406D01*
X71950807Y-63219059D01*
X71858526Y-63037947D01*
X71838936Y-62999499D01*
X71694097Y-62800145D01*
X71536818Y-62642866D01*
X71503334Y-62581543D01*
X71500500Y-62555185D01*
X71500500Y-62242034D01*
X71520185Y-62174995D01*
X71572989Y-62129240D01*
X71581167Y-62125852D01*
X71707328Y-62078797D01*
X71707327Y-62078797D01*
X71707331Y-62078796D01*
X71822546Y-61992546D01*
X71908796Y-61877331D01*
X71959091Y-61742483D01*
X71965500Y-61682873D01*
X71965499Y-59757128D01*
X71959091Y-59697517D01*
X71946301Y-59663226D01*
X71908797Y-59562671D01*
X71908793Y-59562664D01*
X71822547Y-59447455D01*
X71822544Y-59447452D01*
X71707335Y-59361206D01*
X71707328Y-59361202D01*
X71572482Y-59310908D01*
X71572483Y-59310908D01*
X71512883Y-59304501D01*
X71512881Y-59304500D01*
X71512873Y-59304500D01*
X71512865Y-59304500D01*
X71158790Y-59304500D01*
X71091751Y-59284815D01*
X71045996Y-59232011D01*
X71036052Y-59162853D01*
X71065077Y-59099297D01*
X71102495Y-59070015D01*
X71320501Y-58958936D01*
X71519855Y-58814097D01*
X71694097Y-58639855D01*
X71838936Y-58440501D01*
X71950806Y-58220943D01*
X72026952Y-57986589D01*
X72065500Y-57743208D01*
X72065500Y-57496792D01*
X72026952Y-57253411D01*
X72026951Y-57253407D01*
X72026951Y-57253406D01*
X71950807Y-57019059D01*
X71934263Y-56986589D01*
X71838936Y-56799499D01*
X71694097Y-56600145D01*
X71590744Y-56496792D01*
X78934500Y-56496792D01*
X78934500Y-56743207D01*
X78973048Y-56986590D01*
X78973048Y-56986593D01*
X79049192Y-57220940D01*
X79109782Y-57339855D01*
X79161064Y-57440501D01*
X79305903Y-57639855D01*
X79305905Y-57639857D01*
X79463181Y-57797133D01*
X79496666Y-57858456D01*
X79499500Y-57884814D01*
X79499500Y-58825988D01*
X79479815Y-58893027D01*
X79465148Y-58911657D01*
X79330289Y-59052779D01*
X79330279Y-59052792D01*
X79191287Y-59256547D01*
X79191285Y-59256552D01*
X79087439Y-59480268D01*
X79087436Y-59480276D01*
X79026503Y-59699992D01*
X79021519Y-59717965D01*
X79017650Y-59754168D01*
X78995307Y-59963225D01*
X79009507Y-60209474D01*
X79009507Y-60209479D01*
X79063731Y-60450092D01*
X79156533Y-60678636D01*
X79285412Y-60888947D01*
X79421969Y-61046591D01*
X79446908Y-61075382D01*
X79454702Y-61081853D01*
X79493711Y-61139818D01*
X79499500Y-61177262D01*
X79499500Y-63655185D01*
X79479815Y-63722224D01*
X79463182Y-63742866D01*
X79305902Y-63900146D01*
X79161064Y-64099498D01*
X79049192Y-64319059D01*
X78973048Y-64553406D01*
X78973048Y-64553409D01*
X78934500Y-64796792D01*
X78934500Y-65043207D01*
X78973048Y-65286590D01*
X78973048Y-65286593D01*
X79049192Y-65520940D01*
X79109782Y-65639855D01*
X79161064Y-65740501D01*
X79305903Y-65939855D01*
X79480145Y-66114097D01*
X79679499Y-66258936D01*
X79899057Y-66370806D01*
X79899059Y-66370807D01*
X80133407Y-66446951D01*
X80133408Y-66446951D01*
X80133411Y-66446952D01*
X80376792Y-66485500D01*
X80376793Y-66485500D01*
X80623207Y-66485500D01*
X80623208Y-66485500D01*
X80866589Y-66446952D01*
X80866592Y-66446951D01*
X80866593Y-66446951D01*
X81100940Y-66370807D01*
X81100940Y-66370806D01*
X81100943Y-66370806D01*
X81320501Y-66258936D01*
X81519855Y-66114097D01*
X81694097Y-65939855D01*
X81838936Y-65740501D01*
X81950806Y-65520943D01*
X82026652Y-65287512D01*
X82026951Y-65286593D01*
X82026951Y-65286592D01*
X82026952Y-65286589D01*
X82065500Y-65043208D01*
X82065500Y-64796792D01*
X82026952Y-64553411D01*
X82026951Y-64553407D01*
X82026951Y-64553406D01*
X81950807Y-64319059D01*
X81888509Y-64196792D01*
X81838936Y-64099499D01*
X81694097Y-63900145D01*
X81536818Y-63742866D01*
X81503334Y-63681543D01*
X81500500Y-63655185D01*
X81500500Y-61172216D01*
X81520185Y-61105177D01*
X81536972Y-61084382D01*
X81539511Y-61081852D01*
X81646223Y-60975512D01*
X81790158Y-60775205D01*
X81899445Y-60554079D01*
X81971149Y-60318074D01*
X82003344Y-60073526D01*
X82005141Y-60000000D01*
X81984930Y-59754171D01*
X81924841Y-59514945D01*
X81874863Y-59400004D01*
X81826487Y-59288746D01*
X81805660Y-59256552D01*
X81692508Y-59081645D01*
X81532785Y-58906113D01*
X81502227Y-58843282D01*
X81500500Y-58822660D01*
X81500500Y-57884814D01*
X81520185Y-57817775D01*
X81536819Y-57797133D01*
X81596088Y-57737864D01*
X81694097Y-57639855D01*
X81838936Y-57440501D01*
X81950806Y-57220943D01*
X82026952Y-56986589D01*
X82065500Y-56743208D01*
X82065500Y-56496792D01*
X82026952Y-56253411D01*
X82026951Y-56253407D01*
X82026951Y-56253406D01*
X81950807Y-56019059D01*
X81838935Y-55799498D01*
X81780493Y-55719059D01*
X81694097Y-55600145D01*
X81536818Y-55442866D01*
X81503334Y-55381543D01*
X81500500Y-55355185D01*
X81500500Y-55042034D01*
X81520185Y-54974995D01*
X81572989Y-54929240D01*
X81581167Y-54925852D01*
X81707328Y-54878797D01*
X81707327Y-54878797D01*
X81707331Y-54878796D01*
X81822546Y-54792546D01*
X81908796Y-54677331D01*
X81959091Y-54542483D01*
X81965500Y-54482873D01*
X81965499Y-53500780D01*
X81985183Y-53433742D01*
X82001813Y-53413105D01*
X86878102Y-48536819D01*
X86939425Y-48503334D01*
X86965783Y-48500500D01*
X88827111Y-48500500D01*
X88894150Y-48520185D01*
X88914792Y-48536819D01*
X89022490Y-48644517D01*
X89202335Y-48775183D01*
X89245000Y-48830512D01*
X89250979Y-48900126D01*
X89218373Y-48961920D01*
X89157534Y-48996278D01*
X89129449Y-48999500D01*
X88832130Y-48999500D01*
X88832123Y-48999501D01*
X88772516Y-49005908D01*
X88637671Y-49056202D01*
X88637664Y-49056206D01*
X88522455Y-49142452D01*
X88522452Y-49142455D01*
X88436206Y-49257664D01*
X88436202Y-49257671D01*
X88385908Y-49392517D01*
X88382523Y-49424008D01*
X88379501Y-49452123D01*
X88379500Y-49452135D01*
X88379500Y-51547870D01*
X88379501Y-51547876D01*
X88385908Y-51607483D01*
X88436202Y-51742328D01*
X88436206Y-51742335D01*
X88522452Y-51857544D01*
X88522455Y-51857547D01*
X88637664Y-51943793D01*
X88637671Y-51943797D01*
X88772517Y-51994091D01*
X88772516Y-51994091D01*
X88779444Y-51994835D01*
X88832127Y-52000500D01*
X89134787Y-52000499D01*
X89201824Y-52020183D01*
X89247579Y-52072987D01*
X89257523Y-52142146D01*
X89228498Y-52205701D01*
X89209098Y-52223764D01*
X89177454Y-52247453D01*
X89177452Y-52247455D01*
X89091206Y-52362664D01*
X89091202Y-52362671D01*
X89040908Y-52497517D01*
X89038545Y-52519500D01*
X89034501Y-52557123D01*
X89034500Y-52557135D01*
X89034500Y-54482870D01*
X89034501Y-54482876D01*
X89040908Y-54542483D01*
X89091202Y-54677328D01*
X89091206Y-54677335D01*
X89177452Y-54792544D01*
X89177455Y-54792547D01*
X89292664Y-54878793D01*
X89292671Y-54878797D01*
X89418833Y-54925852D01*
X89474767Y-54967723D01*
X89499184Y-55033187D01*
X89499500Y-55042034D01*
X89499500Y-55355185D01*
X89479815Y-55422224D01*
X89463182Y-55442866D01*
X89305902Y-55600146D01*
X89161064Y-55799498D01*
X89049192Y-56019059D01*
X88973048Y-56253406D01*
X88973048Y-56253409D01*
X88934500Y-56496792D01*
X88934500Y-56743207D01*
X88973048Y-56986590D01*
X88973048Y-56986593D01*
X89049192Y-57220940D01*
X89109782Y-57339855D01*
X89161064Y-57440501D01*
X89305903Y-57639855D01*
X89305905Y-57639857D01*
X89463181Y-57797133D01*
X89496666Y-57858456D01*
X89499500Y-57884814D01*
X89499500Y-58825988D01*
X89479815Y-58893027D01*
X89465148Y-58911657D01*
X89330289Y-59052779D01*
X89330279Y-59052792D01*
X89191287Y-59256547D01*
X89191285Y-59256552D01*
X89087439Y-59480268D01*
X89087436Y-59480276D01*
X89026503Y-59699992D01*
X89021519Y-59717965D01*
X89017650Y-59754168D01*
X88995307Y-59963225D01*
X89009507Y-60209474D01*
X89009507Y-60209479D01*
X89063731Y-60450092D01*
X89156533Y-60678636D01*
X89285412Y-60888947D01*
X89421969Y-61046591D01*
X89446908Y-61075382D01*
X89454702Y-61081853D01*
X89493711Y-61139818D01*
X89499500Y-61177262D01*
X89499500Y-63655185D01*
X89479815Y-63722224D01*
X89463182Y-63742866D01*
X89305902Y-63900146D01*
X89161064Y-64099498D01*
X89049192Y-64319059D01*
X88973048Y-64553406D01*
X88973048Y-64553409D01*
X88934500Y-64796792D01*
X88934500Y-65043207D01*
X88973048Y-65286590D01*
X88973048Y-65286593D01*
X89049192Y-65520940D01*
X89109782Y-65639855D01*
X89161064Y-65740501D01*
X89305903Y-65939855D01*
X89480145Y-66114097D01*
X89679499Y-66258936D01*
X89899057Y-66370806D01*
X89899059Y-66370807D01*
X90133407Y-66446951D01*
X90133408Y-66446951D01*
X90133411Y-66446952D01*
X90376792Y-66485500D01*
X90376793Y-66485500D01*
X90623207Y-66485500D01*
X90623208Y-66485500D01*
X90866589Y-66446952D01*
X90866592Y-66446951D01*
X90866593Y-66446951D01*
X91100940Y-66370807D01*
X91100940Y-66370806D01*
X91100943Y-66370806D01*
X91320501Y-66258936D01*
X91519855Y-66114097D01*
X91694097Y-65939855D01*
X91838936Y-65740501D01*
X91950806Y-65520943D01*
X92026652Y-65287512D01*
X92026951Y-65286593D01*
X92026951Y-65286592D01*
X92026952Y-65286589D01*
X92065500Y-65043208D01*
X92065500Y-64796792D01*
X92026952Y-64553411D01*
X92026951Y-64553407D01*
X92026951Y-64553406D01*
X91950807Y-64319059D01*
X91888509Y-64196792D01*
X91838936Y-64099499D01*
X91694097Y-63900145D01*
X91536818Y-63742866D01*
X91503334Y-63681543D01*
X91500500Y-63655185D01*
X91500500Y-61172216D01*
X91520185Y-61105177D01*
X91536972Y-61084382D01*
X91539511Y-61081852D01*
X91646223Y-60975512D01*
X91790158Y-60775205D01*
X91899445Y-60554079D01*
X91971149Y-60318074D01*
X92003344Y-60073526D01*
X92005141Y-60000000D01*
X91984930Y-59754171D01*
X91924841Y-59514945D01*
X91874863Y-59400004D01*
X91826487Y-59288746D01*
X91805660Y-59256552D01*
X91692508Y-59081645D01*
X91532785Y-58906113D01*
X91502227Y-58843282D01*
X91500500Y-58822660D01*
X91500500Y-57884814D01*
X91520185Y-57817775D01*
X91536819Y-57797133D01*
X91596088Y-57737864D01*
X91694097Y-57639855D01*
X91838936Y-57440501D01*
X91950806Y-57220943D01*
X92026952Y-56986589D01*
X92065500Y-56743208D01*
X92065500Y-56496792D01*
X98934500Y-56496792D01*
X98934500Y-56743207D01*
X98973048Y-56986590D01*
X98973048Y-56986593D01*
X99049192Y-57220940D01*
X99109782Y-57339855D01*
X99161064Y-57440501D01*
X99305903Y-57639855D01*
X99305905Y-57639857D01*
X99463181Y-57797133D01*
X99496666Y-57858456D01*
X99499500Y-57884814D01*
X99499500Y-58825988D01*
X99479815Y-58893027D01*
X99465148Y-58911657D01*
X99330289Y-59052779D01*
X99330279Y-59052792D01*
X99191287Y-59256547D01*
X99191285Y-59256552D01*
X99087439Y-59480268D01*
X99087436Y-59480276D01*
X99026503Y-59699992D01*
X99021519Y-59717965D01*
X99017650Y-59754168D01*
X98995307Y-59963225D01*
X99009507Y-60209474D01*
X99009507Y-60209479D01*
X99063731Y-60450092D01*
X99156533Y-60678636D01*
X99285412Y-60888947D01*
X99421969Y-61046591D01*
X99446908Y-61075382D01*
X99454702Y-61081853D01*
X99493711Y-61139818D01*
X99499500Y-61177262D01*
X99499500Y-63655185D01*
X99479815Y-63722224D01*
X99463182Y-63742866D01*
X99305902Y-63900146D01*
X99161064Y-64099498D01*
X99049192Y-64319059D01*
X98973048Y-64553406D01*
X98973048Y-64553409D01*
X98934500Y-64796792D01*
X98934500Y-65043207D01*
X98973048Y-65286590D01*
X98973048Y-65286593D01*
X99049192Y-65520940D01*
X99109782Y-65639855D01*
X99161064Y-65740501D01*
X99305903Y-65939855D01*
X99480145Y-66114097D01*
X99679499Y-66258936D01*
X99899057Y-66370806D01*
X99899059Y-66370807D01*
X100133407Y-66446951D01*
X100133408Y-66446951D01*
X100133411Y-66446952D01*
X100376792Y-66485500D01*
X100376793Y-66485500D01*
X100623207Y-66485500D01*
X100623208Y-66485500D01*
X100866589Y-66446952D01*
X100866592Y-66446951D01*
X100866593Y-66446951D01*
X101100940Y-66370807D01*
X101100940Y-66370806D01*
X101100943Y-66370806D01*
X101320501Y-66258936D01*
X101519855Y-66114097D01*
X101694097Y-65939855D01*
X101838936Y-65740501D01*
X101950806Y-65520943D01*
X102026652Y-65287512D01*
X102026951Y-65286593D01*
X102026951Y-65286592D01*
X102026952Y-65286589D01*
X102065500Y-65043208D01*
X102065500Y-64796792D01*
X102026952Y-64553411D01*
X102026951Y-64553407D01*
X102026951Y-64553406D01*
X101950807Y-64319059D01*
X101888509Y-64196792D01*
X101838936Y-64099499D01*
X101694097Y-63900145D01*
X101536818Y-63742866D01*
X101503334Y-63681543D01*
X101500500Y-63655185D01*
X101500500Y-61172216D01*
X101520185Y-61105177D01*
X101536972Y-61084382D01*
X101539511Y-61081852D01*
X101646223Y-60975512D01*
X101790158Y-60775205D01*
X101899445Y-60554079D01*
X101971149Y-60318074D01*
X102003344Y-60073526D01*
X102005141Y-60000000D01*
X101984930Y-59754171D01*
X101924841Y-59514945D01*
X101874863Y-59400004D01*
X101826487Y-59288746D01*
X101805660Y-59256552D01*
X101692508Y-59081645D01*
X101532785Y-58906113D01*
X101502227Y-58843282D01*
X101500500Y-58822660D01*
X101500500Y-57884814D01*
X101520185Y-57817775D01*
X101536819Y-57797133D01*
X101596088Y-57737864D01*
X101694097Y-57639855D01*
X101838936Y-57440501D01*
X101950806Y-57220943D01*
X102026952Y-56986589D01*
X102065500Y-56743208D01*
X102065500Y-56496792D01*
X108934500Y-56496792D01*
X108934500Y-56743207D01*
X108973048Y-56986590D01*
X108973048Y-56986593D01*
X109049192Y-57220940D01*
X109109782Y-57339855D01*
X109161064Y-57440501D01*
X109305903Y-57639855D01*
X109305905Y-57639857D01*
X109463181Y-57797133D01*
X109496666Y-57858456D01*
X109499500Y-57884814D01*
X109499500Y-58825988D01*
X109479815Y-58893027D01*
X109465148Y-58911657D01*
X109330289Y-59052779D01*
X109330279Y-59052792D01*
X109191287Y-59256547D01*
X109191285Y-59256552D01*
X109087439Y-59480268D01*
X109087436Y-59480276D01*
X109026503Y-59699992D01*
X109021519Y-59717965D01*
X109017650Y-59754168D01*
X108995307Y-59963225D01*
X109009507Y-60209474D01*
X109009507Y-60209479D01*
X109063731Y-60450092D01*
X109156533Y-60678636D01*
X109285412Y-60888947D01*
X109421969Y-61046591D01*
X109446908Y-61075382D01*
X109454702Y-61081853D01*
X109493711Y-61139818D01*
X109499500Y-61177262D01*
X109499500Y-63655185D01*
X109479815Y-63722224D01*
X109463182Y-63742866D01*
X109305902Y-63900146D01*
X109161064Y-64099498D01*
X109049192Y-64319059D01*
X108973048Y-64553406D01*
X108973048Y-64553409D01*
X108934500Y-64796792D01*
X108934500Y-65043207D01*
X108973048Y-65286590D01*
X108973048Y-65286593D01*
X109049192Y-65520940D01*
X109109782Y-65639855D01*
X109161064Y-65740501D01*
X109305903Y-65939855D01*
X109480145Y-66114097D01*
X109679499Y-66258936D01*
X109899057Y-66370806D01*
X109899059Y-66370807D01*
X110133407Y-66446951D01*
X110133408Y-66446951D01*
X110133411Y-66446952D01*
X110376792Y-66485500D01*
X110376793Y-66485500D01*
X110623207Y-66485500D01*
X110623208Y-66485500D01*
X110866589Y-66446952D01*
X110866592Y-66446951D01*
X110866593Y-66446951D01*
X111100940Y-66370807D01*
X111100940Y-66370806D01*
X111100943Y-66370806D01*
X111320501Y-66258936D01*
X111519855Y-66114097D01*
X111694097Y-65939855D01*
X111838936Y-65740501D01*
X111950806Y-65520943D01*
X112026652Y-65287512D01*
X112026951Y-65286593D01*
X112026951Y-65286592D01*
X112026952Y-65286589D01*
X112065500Y-65043208D01*
X112065500Y-64796792D01*
X112026952Y-64553411D01*
X112026951Y-64553407D01*
X112026951Y-64553406D01*
X111950807Y-64319059D01*
X111888509Y-64196792D01*
X111838936Y-64099499D01*
X111694097Y-63900145D01*
X111536818Y-63742866D01*
X111503334Y-63681543D01*
X111500500Y-63655185D01*
X111500500Y-61172216D01*
X111520185Y-61105177D01*
X111536972Y-61084382D01*
X111539511Y-61081852D01*
X111646223Y-60975512D01*
X111790158Y-60775205D01*
X111899445Y-60554079D01*
X111971149Y-60318074D01*
X112003344Y-60073526D01*
X112005141Y-60000000D01*
X111984930Y-59754171D01*
X111924841Y-59514945D01*
X111874863Y-59400004D01*
X111826487Y-59288746D01*
X111805660Y-59256552D01*
X111692508Y-59081645D01*
X111532785Y-58906113D01*
X111502227Y-58843282D01*
X111500500Y-58822660D01*
X111500500Y-57884814D01*
X111520185Y-57817775D01*
X111536819Y-57797133D01*
X111596088Y-57737864D01*
X111694097Y-57639855D01*
X111838936Y-57440501D01*
X111950806Y-57220943D01*
X112026952Y-56986589D01*
X112065500Y-56743208D01*
X112065500Y-56496792D01*
X112026952Y-56253411D01*
X112026951Y-56253407D01*
X112026951Y-56253406D01*
X111950807Y-56019059D01*
X111838935Y-55799498D01*
X111780493Y-55719059D01*
X111694097Y-55600145D01*
X111536818Y-55442866D01*
X111503334Y-55381543D01*
X111500500Y-55355185D01*
X111500500Y-55042034D01*
X111520185Y-54974995D01*
X111572989Y-54929240D01*
X111581167Y-54925852D01*
X111707328Y-54878797D01*
X111707327Y-54878797D01*
X111707331Y-54878796D01*
X111822546Y-54792546D01*
X111908796Y-54677331D01*
X111959091Y-54542483D01*
X111965500Y-54482873D01*
X111965499Y-53500781D01*
X111985183Y-53433743D01*
X112001818Y-53413101D01*
X113378102Y-52036819D01*
X113439425Y-52003334D01*
X113465783Y-52000500D01*
X113618097Y-52000500D01*
X113851368Y-51963553D01*
X113853522Y-51962853D01*
X114075992Y-51890568D01*
X114286433Y-51783343D01*
X114477510Y-51644517D01*
X114644517Y-51477510D01*
X114783343Y-51286433D01*
X114890568Y-51075992D01*
X114963553Y-50851368D01*
X114973838Y-50786433D01*
X115000500Y-50618097D01*
X115000500Y-50381902D01*
X114963553Y-50148631D01*
X114926377Y-50034217D01*
X114890568Y-49924008D01*
X114890566Y-49924005D01*
X114890566Y-49924003D01*
X114788079Y-49722862D01*
X114783343Y-49713567D01*
X114644517Y-49522490D01*
X114477510Y-49355483D01*
X114286433Y-49216657D01*
X114260686Y-49203538D01*
X114247446Y-49196792D01*
X118934500Y-49196792D01*
X118934500Y-49443207D01*
X118973048Y-49686590D01*
X118973048Y-49686593D01*
X119049192Y-49920940D01*
X119102764Y-50026080D01*
X119161064Y-50140501D01*
X119305903Y-50339855D01*
X119305905Y-50339857D01*
X119463181Y-50497133D01*
X119496666Y-50558456D01*
X119499500Y-50584814D01*
X119499500Y-51525988D01*
X119479815Y-51593027D01*
X119465148Y-51611657D01*
X119330289Y-51752779D01*
X119330279Y-51752792D01*
X119191287Y-51956547D01*
X119191285Y-51956552D01*
X119087439Y-52180268D01*
X119087436Y-52180276D01*
X119021520Y-52417960D01*
X119021519Y-52417967D01*
X118995307Y-52663225D01*
X119009507Y-52909474D01*
X119009507Y-52909479D01*
X119063731Y-53150092D01*
X119156533Y-53378636D01*
X119285412Y-53588947D01*
X119360398Y-53675512D01*
X119446908Y-53775382D01*
X119454702Y-53781853D01*
X119493711Y-53839818D01*
X119499500Y-53877262D01*
X119499500Y-56355185D01*
X119479815Y-56422224D01*
X119463182Y-56442866D01*
X119305902Y-56600146D01*
X119161064Y-56799498D01*
X119049192Y-57019059D01*
X118973048Y-57253406D01*
X118973048Y-57253409D01*
X118934500Y-57496792D01*
X118934500Y-57743207D01*
X118973048Y-57986590D01*
X118973048Y-57986593D01*
X119049192Y-58220940D01*
X119095415Y-58311657D01*
X119161064Y-58440501D01*
X119305903Y-58639855D01*
X119480145Y-58814097D01*
X119679499Y-58958936D01*
X119897505Y-59070015D01*
X119948301Y-59117989D01*
X119965096Y-59185810D01*
X119942559Y-59251945D01*
X119887844Y-59295397D01*
X119841210Y-59304500D01*
X119487129Y-59304500D01*
X119487123Y-59304501D01*
X119427516Y-59310908D01*
X119292671Y-59361202D01*
X119292664Y-59361206D01*
X119177455Y-59447452D01*
X119177452Y-59447455D01*
X119091206Y-59562664D01*
X119091202Y-59562671D01*
X119040908Y-59697517D01*
X119034818Y-59754168D01*
X119034501Y-59757123D01*
X119034500Y-59757135D01*
X119034500Y-61682870D01*
X119034501Y-61682876D01*
X119040908Y-61742483D01*
X119091202Y-61877328D01*
X119091206Y-61877335D01*
X119177452Y-61992544D01*
X119177455Y-61992547D01*
X119292664Y-62078793D01*
X119292671Y-62078797D01*
X119418833Y-62125852D01*
X119474767Y-62167723D01*
X119499184Y-62233187D01*
X119499500Y-62242034D01*
X119499500Y-62555185D01*
X119479815Y-62622224D01*
X119463182Y-62642866D01*
X119305902Y-62800146D01*
X119161064Y-62999498D01*
X119049192Y-63219059D01*
X118973048Y-63453406D01*
X118973048Y-63453409D01*
X118934500Y-63696792D01*
X118934500Y-63943207D01*
X118973048Y-64186590D01*
X118973048Y-64186593D01*
X119049192Y-64420940D01*
X119159678Y-64637781D01*
X119161064Y-64640501D01*
X119305903Y-64839855D01*
X119305905Y-64839857D01*
X119463181Y-64997133D01*
X119496666Y-65058456D01*
X119499500Y-65084814D01*
X119499500Y-66025988D01*
X119479815Y-66093027D01*
X119465148Y-66111657D01*
X119330289Y-66252779D01*
X119330279Y-66252792D01*
X119191287Y-66456547D01*
X119191285Y-66456552D01*
X119087439Y-66680268D01*
X119087436Y-66680276D01*
X119021520Y-66917960D01*
X119021519Y-66917967D01*
X118995307Y-67163225D01*
X119009507Y-67409474D01*
X119009507Y-67409479D01*
X119063731Y-67650092D01*
X119063734Y-67650099D01*
X119153586Y-67871380D01*
X119156533Y-67878636D01*
X119285412Y-68088947D01*
X119360398Y-68175512D01*
X119446908Y-68275382D01*
X119454702Y-68281853D01*
X119493711Y-68339818D01*
X119499500Y-68377262D01*
X119499500Y-70855185D01*
X119479815Y-70922224D01*
X119463182Y-70942866D01*
X119305902Y-71100146D01*
X119161064Y-71299498D01*
X119049192Y-71519059D01*
X118973048Y-71753406D01*
X118973048Y-71753409D01*
X118973048Y-71753411D01*
X118934500Y-71996792D01*
X118934500Y-72243208D01*
X118941318Y-72286256D01*
X118973048Y-72486590D01*
X118973048Y-72486593D01*
X119049192Y-72720940D01*
X119049194Y-72720943D01*
X119161064Y-72940501D01*
X119305903Y-73139855D01*
X119480145Y-73314097D01*
X119679499Y-73458936D01*
X119899057Y-73570806D01*
X119899059Y-73570807D01*
X120133407Y-73646951D01*
X120133408Y-73646951D01*
X120133411Y-73646952D01*
X120376792Y-73685500D01*
X120376793Y-73685500D01*
X120623207Y-73685500D01*
X120623208Y-73685500D01*
X120866589Y-73646952D01*
X120866592Y-73646951D01*
X120866593Y-73646951D01*
X121100940Y-73570807D01*
X121100940Y-73570806D01*
X121100943Y-73570806D01*
X121320501Y-73458936D01*
X121519855Y-73314097D01*
X121694097Y-73139855D01*
X121838936Y-72940501D01*
X121950806Y-72720943D01*
X122026952Y-72486589D01*
X122065500Y-72243208D01*
X122065500Y-71996792D01*
X122026952Y-71753411D01*
X122026951Y-71753407D01*
X122026951Y-71753406D01*
X121950807Y-71519059D01*
X121838935Y-71299498D01*
X121694097Y-71100145D01*
X121536818Y-70942866D01*
X121503334Y-70881543D01*
X121500500Y-70855185D01*
X121500500Y-68372216D01*
X121520185Y-68305177D01*
X121536972Y-68284382D01*
X121539510Y-68281853D01*
X121646223Y-68175512D01*
X121790158Y-67975205D01*
X121899445Y-67754079D01*
X121971149Y-67518074D01*
X122003344Y-67273526D01*
X122005141Y-67200000D01*
X121984930Y-66954171D01*
X121924841Y-66714945D01*
X121826486Y-66488744D01*
X121692508Y-66281645D01*
X121532784Y-66106112D01*
X121502227Y-66043282D01*
X121500500Y-66022660D01*
X121500500Y-65084814D01*
X121520185Y-65017775D01*
X121536819Y-64997133D01*
X121613012Y-64920940D01*
X121694097Y-64839855D01*
X121838936Y-64640501D01*
X121950806Y-64420943D01*
X121992758Y-64291828D01*
X122026951Y-64186593D01*
X122026951Y-64186592D01*
X122026952Y-64186589D01*
X122065500Y-63943208D01*
X122065500Y-63696792D01*
X122026952Y-63453411D01*
X122026951Y-63453407D01*
X122026951Y-63453406D01*
X121950807Y-63219059D01*
X121858526Y-63037947D01*
X121838936Y-62999499D01*
X121694097Y-62800145D01*
X121536818Y-62642866D01*
X121503334Y-62581543D01*
X121500500Y-62555185D01*
X121500500Y-62242034D01*
X121520185Y-62174995D01*
X121572989Y-62129240D01*
X121581167Y-62125852D01*
X121707328Y-62078797D01*
X121707327Y-62078797D01*
X121707331Y-62078796D01*
X121822546Y-61992546D01*
X121908796Y-61877331D01*
X121959091Y-61742483D01*
X121965500Y-61682873D01*
X121965499Y-59757128D01*
X121959091Y-59697517D01*
X121946301Y-59663226D01*
X121908797Y-59562671D01*
X121908793Y-59562664D01*
X121822547Y-59447455D01*
X121822544Y-59447452D01*
X121707335Y-59361206D01*
X121707328Y-59361202D01*
X121572482Y-59310908D01*
X121572483Y-59310908D01*
X121512883Y-59304501D01*
X121512881Y-59304500D01*
X121512873Y-59304500D01*
X121512865Y-59304500D01*
X121158790Y-59304500D01*
X121091751Y-59284815D01*
X121045996Y-59232011D01*
X121036052Y-59162853D01*
X121065077Y-59099297D01*
X121102495Y-59070015D01*
X121320501Y-58958936D01*
X121519855Y-58814097D01*
X121694097Y-58639855D01*
X121838936Y-58440501D01*
X121950806Y-58220943D01*
X122026952Y-57986589D01*
X122065500Y-57743208D01*
X122065500Y-57496792D01*
X122026952Y-57253411D01*
X122026951Y-57253407D01*
X122026951Y-57253406D01*
X121950807Y-57019059D01*
X121934263Y-56986589D01*
X121838936Y-56799499D01*
X121694097Y-56600145D01*
X121536818Y-56442866D01*
X121503334Y-56381543D01*
X121500500Y-56355185D01*
X121500500Y-53872216D01*
X121520185Y-53805177D01*
X121536972Y-53784382D01*
X121539511Y-53781852D01*
X121646223Y-53675512D01*
X121790158Y-53475205D01*
X121899445Y-53254079D01*
X121971149Y-53018074D01*
X122003344Y-52773526D01*
X122005141Y-52700000D01*
X121984930Y-52454171D01*
X121924841Y-52214945D01*
X121831597Y-52000498D01*
X121826487Y-51988746D01*
X121806033Y-51957129D01*
X121806032Y-51957128D01*
X121692508Y-51781645D01*
X121532784Y-51606112D01*
X121502227Y-51543282D01*
X121500500Y-51522660D01*
X121500500Y-50584814D01*
X121520185Y-50517775D01*
X121536819Y-50497133D01*
X121694097Y-50339855D01*
X121838936Y-50140501D01*
X121950806Y-49920943D01*
X121981676Y-49825935D01*
X122026951Y-49686593D01*
X122026951Y-49686592D01*
X122026952Y-49686589D01*
X122065500Y-49443208D01*
X122065500Y-49196792D01*
X122026952Y-48953411D01*
X122026951Y-48953407D01*
X122026951Y-48953406D01*
X121950807Y-48719059D01*
X121912826Y-48644517D01*
X121838936Y-48499499D01*
X121694097Y-48300145D01*
X121536818Y-48142866D01*
X121503334Y-48081543D01*
X121500500Y-48055185D01*
X121500500Y-47742034D01*
X121520185Y-47674995D01*
X121572989Y-47629240D01*
X121581167Y-47625852D01*
X121707328Y-47578797D01*
X121707327Y-47578797D01*
X121707331Y-47578796D01*
X121822546Y-47492546D01*
X121908796Y-47377331D01*
X121959091Y-47242483D01*
X121965500Y-47182873D01*
X121965499Y-45257128D01*
X121959091Y-45197517D01*
X121908796Y-45062669D01*
X121908795Y-45062668D01*
X121908793Y-45062664D01*
X121822547Y-44947455D01*
X121822544Y-44947452D01*
X121707335Y-44861206D01*
X121707328Y-44861202D01*
X121572482Y-44810908D01*
X121572483Y-44810908D01*
X121512883Y-44804501D01*
X121512881Y-44804500D01*
X121512873Y-44804500D01*
X121512864Y-44804500D01*
X119487129Y-44804500D01*
X119487123Y-44804501D01*
X119427516Y-44810908D01*
X119292671Y-44861202D01*
X119292664Y-44861206D01*
X119177455Y-44947452D01*
X119177452Y-44947455D01*
X119091206Y-45062664D01*
X119091202Y-45062671D01*
X119040908Y-45197517D01*
X119034501Y-45257116D01*
X119034501Y-45257123D01*
X119034500Y-45257135D01*
X119034500Y-47182870D01*
X119034501Y-47182876D01*
X119040908Y-47242483D01*
X119091202Y-47377328D01*
X119091206Y-47377335D01*
X119177452Y-47492544D01*
X119177455Y-47492547D01*
X119292664Y-47578793D01*
X119292671Y-47578797D01*
X119418833Y-47625852D01*
X119474767Y-47667723D01*
X119499184Y-47733187D01*
X119499500Y-47742034D01*
X119499500Y-48055185D01*
X119479815Y-48122224D01*
X119463182Y-48142866D01*
X119305902Y-48300146D01*
X119161064Y-48499498D01*
X119049192Y-48719059D01*
X118973048Y-48953406D01*
X118973048Y-48953409D01*
X118934500Y-49196792D01*
X114247446Y-49196792D01*
X114075996Y-49109433D01*
X113851368Y-49036446D01*
X113618097Y-48999500D01*
X113618092Y-48999500D01*
X113381908Y-48999500D01*
X113381903Y-48999500D01*
X113148631Y-49036446D01*
X112924003Y-49109433D01*
X112713566Y-49216657D01*
X112657119Y-49257669D01*
X112522490Y-49355483D01*
X112522488Y-49355485D01*
X112522487Y-49355485D01*
X112355485Y-49522487D01*
X112355485Y-49522488D01*
X112355483Y-49522490D01*
X112346089Y-49535420D01*
X112216657Y-49713566D01*
X112109433Y-49924003D01*
X112036446Y-50148631D01*
X111999500Y-50381902D01*
X111999500Y-50534217D01*
X111979815Y-50601256D01*
X111963181Y-50621898D01*
X110516897Y-52068181D01*
X110455574Y-52101666D01*
X110429216Y-52104500D01*
X109487129Y-52104500D01*
X109487123Y-52104501D01*
X109427516Y-52110908D01*
X109292671Y-52161202D01*
X109292664Y-52161206D01*
X109177455Y-52247452D01*
X109177452Y-52247455D01*
X109091206Y-52362664D01*
X109091202Y-52362671D01*
X109040908Y-52497517D01*
X109038545Y-52519500D01*
X109034501Y-52557123D01*
X109034500Y-52557135D01*
X109034500Y-54482870D01*
X109034501Y-54482876D01*
X109040908Y-54542483D01*
X109091202Y-54677328D01*
X109091206Y-54677335D01*
X109177452Y-54792544D01*
X109177455Y-54792547D01*
X109292664Y-54878793D01*
X109292671Y-54878797D01*
X109418833Y-54925852D01*
X109474767Y-54967723D01*
X109499184Y-55033187D01*
X109499500Y-55042034D01*
X109499500Y-55355185D01*
X109479815Y-55422224D01*
X109463182Y-55442866D01*
X109305902Y-55600146D01*
X109161064Y-55799498D01*
X109049192Y-56019059D01*
X108973048Y-56253406D01*
X108973048Y-56253409D01*
X108934500Y-56496792D01*
X102065500Y-56496792D01*
X102026952Y-56253411D01*
X102026951Y-56253407D01*
X102026951Y-56253406D01*
X101950807Y-56019059D01*
X101838935Y-55799498D01*
X101780493Y-55719059D01*
X101694097Y-55600145D01*
X101536818Y-55442866D01*
X101503334Y-55381543D01*
X101500500Y-55355185D01*
X101500500Y-55042034D01*
X101520185Y-54974995D01*
X101572989Y-54929240D01*
X101581167Y-54925852D01*
X101707328Y-54878797D01*
X101707327Y-54878797D01*
X101707331Y-54878796D01*
X101822546Y-54792546D01*
X101908796Y-54677331D01*
X101959091Y-54542483D01*
X101965500Y-54482873D01*
X101965499Y-52557128D01*
X101959091Y-52497517D01*
X101941152Y-52449421D01*
X101908797Y-52362671D01*
X101908793Y-52362664D01*
X101822547Y-52247455D01*
X101822544Y-52247452D01*
X101707335Y-52161206D01*
X101707328Y-52161202D01*
X101581167Y-52114147D01*
X101525233Y-52072276D01*
X101500816Y-52006811D01*
X101500500Y-51997965D01*
X101500500Y-50965782D01*
X101520185Y-50898743D01*
X101536819Y-50878101D01*
X103878102Y-48536819D01*
X103939425Y-48503334D01*
X103965783Y-48500500D01*
X104327111Y-48500500D01*
X104394150Y-48520185D01*
X104414792Y-48536819D01*
X104522490Y-48644517D01*
X104713567Y-48783343D01*
X104739311Y-48796460D01*
X104790107Y-48844433D01*
X104806903Y-48912254D01*
X104784367Y-48978389D01*
X104729652Y-49021841D01*
X104726351Y-49023127D01*
X104637669Y-49056203D01*
X104637664Y-49056206D01*
X104522455Y-49142452D01*
X104522452Y-49142455D01*
X104436206Y-49257664D01*
X104436202Y-49257671D01*
X104385908Y-49392517D01*
X104382523Y-49424008D01*
X104379501Y-49452123D01*
X104379500Y-49452135D01*
X104379500Y-51547870D01*
X104379501Y-51547876D01*
X104385908Y-51607483D01*
X104436202Y-51742328D01*
X104436206Y-51742335D01*
X104522452Y-51857544D01*
X104522455Y-51857547D01*
X104637664Y-51943793D01*
X104637671Y-51943797D01*
X104772517Y-51994091D01*
X104772516Y-51994091D01*
X104779444Y-51994835D01*
X104832127Y-52000500D01*
X106927872Y-52000499D01*
X106987483Y-51994091D01*
X107122331Y-51943796D01*
X107237546Y-51857546D01*
X107323796Y-51742331D01*
X107374091Y-51607483D01*
X107380500Y-51547873D01*
X107380499Y-49452128D01*
X107374091Y-49392517D01*
X107360278Y-49355483D01*
X107323797Y-49257671D01*
X107323793Y-49257664D01*
X107237547Y-49142455D01*
X107237544Y-49142452D01*
X107122335Y-49056206D01*
X107122328Y-49056202D01*
X106987482Y-49005908D01*
X106987483Y-49005908D01*
X106927883Y-48999501D01*
X106927881Y-48999500D01*
X106927873Y-48999500D01*
X106927865Y-48999500D01*
X106370551Y-48999500D01*
X106303512Y-48979815D01*
X106257757Y-48927011D01*
X106247813Y-48857853D01*
X106276838Y-48794297D01*
X106297662Y-48775184D01*
X106477510Y-48644517D01*
X106644517Y-48477510D01*
X106783343Y-48286433D01*
X106890568Y-48075992D01*
X106963553Y-47851368D01*
X106991488Y-47674995D01*
X107000500Y-47618097D01*
X107000500Y-47381902D01*
X106963553Y-47148631D01*
X106890566Y-46924003D01*
X106834002Y-46812991D01*
X106783343Y-46713567D01*
X106644517Y-46522490D01*
X106477510Y-46355483D01*
X106286433Y-46216657D01*
X106280367Y-46213566D01*
X106075996Y-46109433D01*
X105851368Y-46036446D01*
X105618097Y-45999500D01*
X105618092Y-45999500D01*
X105381908Y-45999500D01*
X105381903Y-45999500D01*
X105148631Y-46036446D01*
X104924003Y-46109433D01*
X104713566Y-46216657D01*
X104657119Y-46257669D01*
X104522490Y-46355483D01*
X104522488Y-46355485D01*
X104522487Y-46355485D01*
X104414792Y-46463181D01*
X104353469Y-46496666D01*
X104327111Y-46499500D01*
X103401454Y-46499500D01*
X103369391Y-46505876D01*
X103369392Y-46505877D01*
X103208170Y-46537946D01*
X103208164Y-46537948D01*
X103026088Y-46613366D01*
X103026079Y-46613371D01*
X102862219Y-46722859D01*
X102862217Y-46722861D01*
X101342751Y-48242328D01*
X99862220Y-49722859D01*
X99862218Y-49722861D01*
X99824608Y-49760471D01*
X99722859Y-49862219D01*
X99613371Y-50026080D01*
X99613364Y-50026093D01*
X99584944Y-50094706D01*
X99584939Y-50094720D01*
X99583357Y-50098540D01*
X99537949Y-50208164D01*
X99527108Y-50262666D01*
X99525540Y-50270544D01*
X99525540Y-50270547D01*
X99499500Y-50401456D01*
X99499500Y-51997965D01*
X99479815Y-52065004D01*
X99427011Y-52110759D01*
X99418833Y-52114147D01*
X99292671Y-52161202D01*
X99292664Y-52161206D01*
X99177455Y-52247452D01*
X99177452Y-52247455D01*
X99091206Y-52362664D01*
X99091202Y-52362671D01*
X99040908Y-52497517D01*
X99038545Y-52519500D01*
X99034501Y-52557123D01*
X99034500Y-52557135D01*
X99034500Y-54482870D01*
X99034501Y-54482876D01*
X99040908Y-54542483D01*
X99091202Y-54677328D01*
X99091206Y-54677335D01*
X99177452Y-54792544D01*
X99177455Y-54792547D01*
X99292664Y-54878793D01*
X99292671Y-54878797D01*
X99418833Y-54925852D01*
X99474767Y-54967723D01*
X99499184Y-55033187D01*
X99499500Y-55042034D01*
X99499500Y-55355185D01*
X99479815Y-55422224D01*
X99463182Y-55442866D01*
X99305902Y-55600146D01*
X99161064Y-55799498D01*
X99049192Y-56019059D01*
X98973048Y-56253406D01*
X98973048Y-56253409D01*
X98934500Y-56496792D01*
X92065500Y-56496792D01*
X92026952Y-56253411D01*
X92026951Y-56253407D01*
X92026951Y-56253406D01*
X91950807Y-56019059D01*
X91838935Y-55799498D01*
X91780493Y-55719059D01*
X91694097Y-55600145D01*
X91536818Y-55442866D01*
X91503334Y-55381543D01*
X91500500Y-55355185D01*
X91500500Y-55042034D01*
X91520185Y-54974995D01*
X91572989Y-54929240D01*
X91581167Y-54925852D01*
X91707328Y-54878797D01*
X91707327Y-54878797D01*
X91707331Y-54878796D01*
X91822546Y-54792546D01*
X91908796Y-54677331D01*
X91937203Y-54601168D01*
X91979073Y-54545234D01*
X92044537Y-54520816D01*
X92053385Y-54520500D01*
X94578543Y-54520500D01*
X94613695Y-54513507D01*
X94719074Y-54492546D01*
X94771836Y-54482051D01*
X94825165Y-54459961D01*
X94953914Y-54406632D01*
X95117782Y-54297139D01*
X95257139Y-54157782D01*
X95257140Y-54157779D01*
X95264206Y-54150714D01*
X95264208Y-54150710D01*
X97378101Y-52036819D01*
X97439424Y-52003334D01*
X97465782Y-52000500D01*
X97618097Y-52000500D01*
X97851368Y-51963553D01*
X97853522Y-51962853D01*
X98075992Y-51890568D01*
X98286433Y-51783343D01*
X98477510Y-51644517D01*
X98644517Y-51477510D01*
X98783343Y-51286433D01*
X98890568Y-51075992D01*
X98963553Y-50851368D01*
X98973838Y-50786433D01*
X99000500Y-50618097D01*
X99000500Y-50381902D01*
X98963553Y-50148631D01*
X98926377Y-50034217D01*
X98890568Y-49924008D01*
X98890566Y-49924005D01*
X98890566Y-49924003D01*
X98788079Y-49722862D01*
X98783343Y-49713567D01*
X98644517Y-49522490D01*
X98477510Y-49355483D01*
X98297663Y-49224816D01*
X98254999Y-49169487D01*
X98249020Y-49099873D01*
X98281626Y-49038078D01*
X98342465Y-49003721D01*
X98370550Y-49000499D01*
X98927871Y-49000499D01*
X98927872Y-49000499D01*
X98987483Y-48994091D01*
X99122331Y-48943796D01*
X99237546Y-48857546D01*
X99323796Y-48742331D01*
X99374091Y-48607483D01*
X99380500Y-48547873D01*
X99380499Y-46452128D01*
X99374091Y-46392517D01*
X99360278Y-46355483D01*
X99323797Y-46257671D01*
X99323793Y-46257664D01*
X99237547Y-46142455D01*
X99237544Y-46142452D01*
X99122335Y-46056206D01*
X99122328Y-46056202D01*
X98987482Y-46005908D01*
X98987483Y-46005908D01*
X98927883Y-45999501D01*
X98927881Y-45999500D01*
X98927873Y-45999500D01*
X98927864Y-45999500D01*
X96832129Y-45999500D01*
X96832123Y-45999501D01*
X96772516Y-46005908D01*
X96637671Y-46056202D01*
X96637664Y-46056206D01*
X96522455Y-46142452D01*
X96522452Y-46142455D01*
X96436206Y-46257664D01*
X96436202Y-46257671D01*
X96385908Y-46392517D01*
X96382523Y-46424008D01*
X96379501Y-46452123D01*
X96379500Y-46452135D01*
X96379500Y-48547870D01*
X96379501Y-48547876D01*
X96385908Y-48607483D01*
X96436202Y-48742328D01*
X96436206Y-48742335D01*
X96522452Y-48857544D01*
X96522455Y-48857547D01*
X96637664Y-48943793D01*
X96637671Y-48943797D01*
X96726350Y-48976872D01*
X96782284Y-49018743D01*
X96806701Y-49084207D01*
X96791850Y-49152480D01*
X96742445Y-49201886D01*
X96739313Y-49203538D01*
X96713569Y-49216655D01*
X96670131Y-49248215D01*
X96522490Y-49355483D01*
X96522488Y-49355485D01*
X96522487Y-49355485D01*
X96355485Y-49522487D01*
X96355485Y-49522488D01*
X96355483Y-49522490D01*
X96346089Y-49535420D01*
X96216657Y-49713566D01*
X96109433Y-49924003D01*
X96036446Y-50148631D01*
X95999500Y-50381902D01*
X95999500Y-50534218D01*
X95979815Y-50601257D01*
X95963181Y-50621899D01*
X94101899Y-52483181D01*
X94040576Y-52516666D01*
X94014218Y-52519500D01*
X92053386Y-52519500D01*
X91986347Y-52499815D01*
X91940592Y-52447011D01*
X91937204Y-52438833D01*
X91908797Y-52362671D01*
X91908793Y-52362664D01*
X91822547Y-52247455D01*
X91822544Y-52247452D01*
X91707335Y-52161206D01*
X91707328Y-52161202D01*
X91572482Y-52110908D01*
X91572483Y-52110908D01*
X91512883Y-52104501D01*
X91512881Y-52104500D01*
X91512873Y-52104500D01*
X91512865Y-52104500D01*
X91280214Y-52104500D01*
X91213175Y-52084815D01*
X91167420Y-52032011D01*
X91157476Y-51962853D01*
X91186501Y-51899297D01*
X91205897Y-51881237D01*
X91237546Y-51857546D01*
X91323796Y-51742331D01*
X91374091Y-51607483D01*
X91380500Y-51547873D01*
X91380499Y-49452128D01*
X91374091Y-49392517D01*
X91360278Y-49355483D01*
X91323797Y-49257671D01*
X91323793Y-49257664D01*
X91237547Y-49142455D01*
X91237544Y-49142452D01*
X91122335Y-49056206D01*
X91122328Y-49056202D01*
X90987482Y-49005908D01*
X90987483Y-49005908D01*
X90927883Y-48999501D01*
X90927881Y-48999500D01*
X90927873Y-48999500D01*
X90927865Y-48999500D01*
X90870551Y-48999500D01*
X90803512Y-48979815D01*
X90757757Y-48927011D01*
X90747813Y-48857853D01*
X90776838Y-48794297D01*
X90797662Y-48775184D01*
X90977510Y-48644517D01*
X91144517Y-48477510D01*
X91283343Y-48286433D01*
X91390568Y-48075992D01*
X91463553Y-47851368D01*
X91491488Y-47674995D01*
X91500500Y-47618097D01*
X91500500Y-47381902D01*
X91463553Y-47148631D01*
X91390566Y-46924003D01*
X91334002Y-46812991D01*
X91283343Y-46713567D01*
X91144517Y-46522490D01*
X90977510Y-46355483D01*
X90786433Y-46216657D01*
X90780367Y-46213566D01*
X90575996Y-46109433D01*
X90351368Y-46036446D01*
X90118097Y-45999500D01*
X90118092Y-45999500D01*
X89881908Y-45999500D01*
X89881903Y-45999500D01*
X89648631Y-46036446D01*
X89424003Y-46109433D01*
X89213566Y-46216657D01*
X89157119Y-46257669D01*
X89022490Y-46355483D01*
X89022488Y-46355485D01*
X89022487Y-46355485D01*
X88914792Y-46463181D01*
X88853469Y-46496666D01*
X88827111Y-46499500D01*
X86401456Y-46499500D01*
X86208171Y-46537946D01*
X86208167Y-46537948D01*
X86208165Y-46537948D01*
X86208164Y-46537949D01*
X86132745Y-46569188D01*
X86132743Y-46569189D01*
X86026089Y-46613366D01*
X86026079Y-46613371D01*
X85862219Y-46722859D01*
X85862218Y-46722861D01*
X84092180Y-48492898D01*
X84030857Y-48526383D01*
X83961165Y-48521399D01*
X83905232Y-48479527D01*
X83880815Y-48414063D01*
X83880499Y-48405243D01*
X83880499Y-46452128D01*
X83874091Y-46392517D01*
X83860278Y-46355483D01*
X83823797Y-46257671D01*
X83823793Y-46257664D01*
X83737547Y-46142455D01*
X83737544Y-46142452D01*
X83622335Y-46056206D01*
X83622328Y-46056202D01*
X83487482Y-46005908D01*
X83487483Y-46005908D01*
X83427883Y-45999501D01*
X83427881Y-45999500D01*
X83427873Y-45999500D01*
X83427864Y-45999500D01*
X81332129Y-45999500D01*
X81332123Y-45999501D01*
X81272516Y-46005908D01*
X81137671Y-46056202D01*
X81137664Y-46056206D01*
X81022455Y-46142452D01*
X81022452Y-46142455D01*
X80936206Y-46257664D01*
X80936202Y-46257671D01*
X80885908Y-46392517D01*
X80882523Y-46424008D01*
X80879501Y-46452123D01*
X80879500Y-46452135D01*
X80879500Y-48547870D01*
X80879501Y-48547876D01*
X80885908Y-48607483D01*
X80936202Y-48742328D01*
X80936206Y-48742335D01*
X81022452Y-48857544D01*
X81022455Y-48857547D01*
X81137664Y-48943793D01*
X81137671Y-48943797D01*
X81272517Y-48994091D01*
X81272516Y-48994091D01*
X81279444Y-48994835D01*
X81332127Y-49000500D01*
X83285217Y-49000499D01*
X83352256Y-49020184D01*
X83398011Y-49072987D01*
X83407955Y-49142146D01*
X83378930Y-49205702D01*
X83372898Y-49212180D01*
X80516897Y-52068181D01*
X80455574Y-52101666D01*
X80429216Y-52104500D01*
X79487129Y-52104500D01*
X79487123Y-52104501D01*
X79427516Y-52110908D01*
X79292671Y-52161202D01*
X79292664Y-52161206D01*
X79177455Y-52247452D01*
X79177452Y-52247455D01*
X79091206Y-52362664D01*
X79091202Y-52362671D01*
X79040908Y-52497517D01*
X79038545Y-52519500D01*
X79034501Y-52557123D01*
X79034500Y-52557135D01*
X79034500Y-54482870D01*
X79034501Y-54482876D01*
X79040908Y-54542483D01*
X79091202Y-54677328D01*
X79091206Y-54677335D01*
X79177452Y-54792544D01*
X79177455Y-54792547D01*
X79292664Y-54878793D01*
X79292671Y-54878797D01*
X79418833Y-54925852D01*
X79474767Y-54967723D01*
X79499184Y-55033187D01*
X79499500Y-55042034D01*
X79499500Y-55355185D01*
X79479815Y-55422224D01*
X79463182Y-55442866D01*
X79305902Y-55600146D01*
X79161064Y-55799498D01*
X79049192Y-56019059D01*
X78973048Y-56253406D01*
X78973048Y-56253409D01*
X78934500Y-56496792D01*
X71590744Y-56496792D01*
X71536818Y-56442866D01*
X71503334Y-56381543D01*
X71500500Y-56355185D01*
X71500500Y-53872216D01*
X71520185Y-53805177D01*
X71536972Y-53784382D01*
X71539511Y-53781852D01*
X71646223Y-53675512D01*
X71790158Y-53475205D01*
X71899445Y-53254079D01*
X71971149Y-53018074D01*
X72003344Y-52773526D01*
X72005141Y-52700000D01*
X71984930Y-52454171D01*
X71924841Y-52214945D01*
X71831597Y-52000498D01*
X71826487Y-51988746D01*
X71806033Y-51957129D01*
X71806032Y-51957128D01*
X71692508Y-51781645D01*
X71532784Y-51606112D01*
X71502227Y-51543282D01*
X71500500Y-51522660D01*
X71500500Y-50584814D01*
X71520185Y-50517775D01*
X71536819Y-50497133D01*
X71694097Y-50339855D01*
X71838936Y-50140501D01*
X71950806Y-49920943D01*
X71981676Y-49825935D01*
X72026951Y-49686593D01*
X72026951Y-49686592D01*
X72026952Y-49686589D01*
X72065500Y-49443208D01*
X72065500Y-49196792D01*
X72026952Y-48953411D01*
X72026951Y-48953407D01*
X72026951Y-48953406D01*
X71950807Y-48719059D01*
X71912826Y-48644517D01*
X71838936Y-48499499D01*
X71694097Y-48300145D01*
X71536818Y-48142866D01*
X71503334Y-48081543D01*
X71500500Y-48055185D01*
X71500500Y-47742034D01*
X71520185Y-47674995D01*
X71572989Y-47629240D01*
X71581167Y-47625852D01*
X71707328Y-47578797D01*
X71707327Y-47578797D01*
X71707331Y-47578796D01*
X71822546Y-47492546D01*
X71908796Y-47377331D01*
X71959091Y-47242483D01*
X71965500Y-47182873D01*
X71965499Y-45257128D01*
X71959091Y-45197517D01*
X71908796Y-45062669D01*
X71908795Y-45062668D01*
X71908793Y-45062664D01*
X71822547Y-44947455D01*
X71822544Y-44947452D01*
X71707335Y-44861206D01*
X71707328Y-44861202D01*
X71572482Y-44810908D01*
X71572483Y-44810908D01*
X71512883Y-44804501D01*
X71512881Y-44804500D01*
X71512873Y-44804500D01*
X71512865Y-44804500D01*
X70550782Y-44804500D01*
X70521341Y-44795855D01*
X70491355Y-44789332D01*
X70486339Y-44785577D01*
X70483743Y-44784815D01*
X70463101Y-44768181D01*
X70407101Y-44712181D01*
X70373616Y-44650858D01*
X70378600Y-44581166D01*
X70420472Y-44525233D01*
X70485936Y-44500816D01*
X70494782Y-44500500D01*
X132314218Y-44500500D01*
X132381257Y-44520185D01*
G37*
%TD.AperFunction*%
%TA.AperFunction,NonConductor*%
G36*
X67381257Y-44520185D02*
G01*
X67401899Y-44536819D01*
X68998181Y-46133101D01*
X69031666Y-46194424D01*
X69034500Y-46220782D01*
X69034500Y-47182870D01*
X69034501Y-47182876D01*
X69040908Y-47242483D01*
X69091202Y-47377328D01*
X69091206Y-47377335D01*
X69177452Y-47492544D01*
X69177455Y-47492547D01*
X69292664Y-47578793D01*
X69292671Y-47578797D01*
X69418833Y-47625852D01*
X69474767Y-47667723D01*
X69499184Y-47733187D01*
X69499500Y-47742034D01*
X69499500Y-48055185D01*
X69479815Y-48122224D01*
X69463182Y-48142866D01*
X69305902Y-48300146D01*
X69161064Y-48499498D01*
X69049192Y-48719059D01*
X68973048Y-48953406D01*
X68973048Y-48953409D01*
X68934500Y-49196792D01*
X68934500Y-49443207D01*
X68973048Y-49686590D01*
X68973048Y-49686593D01*
X69049192Y-49920940D01*
X69102764Y-50026080D01*
X69161064Y-50140501D01*
X69305903Y-50339855D01*
X69305905Y-50339857D01*
X69463181Y-50497133D01*
X69496666Y-50558456D01*
X69499500Y-50584814D01*
X69499500Y-51525988D01*
X69479815Y-51593027D01*
X69465148Y-51611657D01*
X69330289Y-51752779D01*
X69330279Y-51752792D01*
X69191287Y-51956547D01*
X69191285Y-51956552D01*
X69087439Y-52180268D01*
X69087436Y-52180276D01*
X69021520Y-52417960D01*
X69021519Y-52417967D01*
X68995307Y-52663225D01*
X69009507Y-52909474D01*
X69009507Y-52909479D01*
X69063731Y-53150092D01*
X69156533Y-53378636D01*
X69285412Y-53588947D01*
X69360398Y-53675512D01*
X69446908Y-53775382D01*
X69454702Y-53781853D01*
X69493711Y-53839818D01*
X69499500Y-53877262D01*
X69499500Y-56355185D01*
X69479815Y-56422224D01*
X69463182Y-56442866D01*
X69305902Y-56600146D01*
X69161064Y-56799498D01*
X69049192Y-57019059D01*
X68973048Y-57253406D01*
X68973048Y-57253409D01*
X68934500Y-57496792D01*
X68934500Y-57743207D01*
X68973048Y-57986590D01*
X68973048Y-57986593D01*
X69049192Y-58220940D01*
X69095415Y-58311657D01*
X69161064Y-58440501D01*
X69305903Y-58639855D01*
X69480145Y-58814097D01*
X69679499Y-58958936D01*
X69897505Y-59070015D01*
X69948301Y-59117989D01*
X69965096Y-59185810D01*
X69942559Y-59251945D01*
X69887844Y-59295397D01*
X69841210Y-59304500D01*
X69487129Y-59304500D01*
X69487123Y-59304501D01*
X69427516Y-59310908D01*
X69292671Y-59361202D01*
X69292664Y-59361206D01*
X69177455Y-59447452D01*
X69177452Y-59447455D01*
X69091206Y-59562664D01*
X69091202Y-59562671D01*
X69040908Y-59697517D01*
X69034818Y-59754168D01*
X69034501Y-59757123D01*
X69034500Y-59757135D01*
X69034500Y-61682870D01*
X69034501Y-61682876D01*
X69040908Y-61742483D01*
X69091202Y-61877328D01*
X69091206Y-61877335D01*
X69177452Y-61992544D01*
X69177455Y-61992547D01*
X69292664Y-62078793D01*
X69292671Y-62078797D01*
X69418833Y-62125852D01*
X69474767Y-62167723D01*
X69499184Y-62233187D01*
X69499500Y-62242034D01*
X69499500Y-62555185D01*
X69479815Y-62622224D01*
X69463182Y-62642866D01*
X69305902Y-62800146D01*
X69161064Y-62999498D01*
X69049192Y-63219059D01*
X68973048Y-63453406D01*
X68973048Y-63453409D01*
X68934500Y-63696792D01*
X68934500Y-63943207D01*
X68973048Y-64186590D01*
X68973048Y-64186593D01*
X69049192Y-64420940D01*
X69159678Y-64637781D01*
X69161064Y-64640501D01*
X69305903Y-64839855D01*
X69305905Y-64839857D01*
X69463181Y-64997133D01*
X69496666Y-65058456D01*
X69499500Y-65084814D01*
X69499500Y-66025988D01*
X69479815Y-66093027D01*
X69465148Y-66111657D01*
X69330289Y-66252779D01*
X69330279Y-66252792D01*
X69191287Y-66456547D01*
X69191285Y-66456552D01*
X69087439Y-66680268D01*
X69087436Y-66680276D01*
X69021520Y-66917960D01*
X69021519Y-66917967D01*
X68995307Y-67163225D01*
X69009507Y-67409474D01*
X69009507Y-67409479D01*
X69063731Y-67650092D01*
X69063734Y-67650099D01*
X69153586Y-67871380D01*
X69156533Y-67878636D01*
X69285412Y-68088947D01*
X69360398Y-68175512D01*
X69446908Y-68275382D01*
X69454702Y-68281853D01*
X69493711Y-68339818D01*
X69499500Y-68377262D01*
X69499500Y-70855185D01*
X69479815Y-70922224D01*
X69463182Y-70942866D01*
X69305902Y-71100146D01*
X69161064Y-71299498D01*
X69049192Y-71519059D01*
X68973048Y-71753406D01*
X68973048Y-71753409D01*
X68934500Y-71996792D01*
X68934500Y-72219217D01*
X68914815Y-72286256D01*
X68898181Y-72306898D01*
X67241899Y-73963181D01*
X67180576Y-73996666D01*
X67154218Y-73999500D01*
X27965782Y-73999500D01*
X27898743Y-73979815D01*
X27878101Y-73963181D01*
X26908204Y-72993284D01*
X26874719Y-72931961D01*
X26879703Y-72862269D01*
X26885395Y-72849317D01*
X26950806Y-72720943D01*
X27026952Y-72486589D01*
X27065500Y-72243208D01*
X27065500Y-71996792D01*
X27026952Y-71753411D01*
X27026951Y-71753407D01*
X27026951Y-71753406D01*
X26950807Y-71519059D01*
X26838935Y-71299498D01*
X26694097Y-71100145D01*
X26536818Y-70942866D01*
X26503334Y-70881543D01*
X26500500Y-70855185D01*
X26500500Y-68372216D01*
X26520185Y-68305177D01*
X26536972Y-68284382D01*
X26539510Y-68281853D01*
X26646223Y-68175512D01*
X26790158Y-67975205D01*
X26899445Y-67754079D01*
X26971149Y-67518074D01*
X27003344Y-67273526D01*
X27005141Y-67200000D01*
X26984930Y-66954171D01*
X26924841Y-66714945D01*
X26826486Y-66488744D01*
X26692508Y-66281645D01*
X26532784Y-66106112D01*
X26502227Y-66043282D01*
X26500500Y-66022660D01*
X26500500Y-65084814D01*
X26520185Y-65017775D01*
X26536819Y-64997133D01*
X26613012Y-64920940D01*
X26694097Y-64839855D01*
X26838936Y-64640501D01*
X26950806Y-64420943D01*
X26992758Y-64291828D01*
X27026951Y-64186593D01*
X27026951Y-64186592D01*
X27026952Y-64186589D01*
X27065500Y-63943208D01*
X27065500Y-63696792D01*
X27026952Y-63453411D01*
X27026951Y-63453407D01*
X27026951Y-63453406D01*
X26950807Y-63219059D01*
X26858526Y-63037947D01*
X26838936Y-62999499D01*
X26694097Y-62800145D01*
X26536818Y-62642866D01*
X26503334Y-62581543D01*
X26500500Y-62555185D01*
X26500500Y-62242034D01*
X26520185Y-62174995D01*
X26572989Y-62129240D01*
X26581167Y-62125852D01*
X26707328Y-62078797D01*
X26707327Y-62078797D01*
X26707331Y-62078796D01*
X26822546Y-61992546D01*
X26908796Y-61877331D01*
X26959091Y-61742483D01*
X26965500Y-61682873D01*
X26965499Y-59757128D01*
X26959091Y-59697517D01*
X26946301Y-59663226D01*
X26908797Y-59562671D01*
X26908793Y-59562664D01*
X26822547Y-59447455D01*
X26822544Y-59447452D01*
X26707335Y-59361206D01*
X26707328Y-59361202D01*
X26572482Y-59310908D01*
X26572483Y-59310908D01*
X26512883Y-59304501D01*
X26512881Y-59304500D01*
X26512873Y-59304500D01*
X26512865Y-59304500D01*
X26158790Y-59304500D01*
X26091751Y-59284815D01*
X26045996Y-59232011D01*
X26036052Y-59162853D01*
X26065077Y-59099297D01*
X26102495Y-59070015D01*
X26320501Y-58958936D01*
X26519855Y-58814097D01*
X26694097Y-58639855D01*
X26838936Y-58440501D01*
X26950806Y-58220943D01*
X27026952Y-57986589D01*
X27065500Y-57743208D01*
X27065500Y-57496792D01*
X27026952Y-57253411D01*
X27026951Y-57253407D01*
X27026951Y-57253406D01*
X26950807Y-57019059D01*
X26934263Y-56986589D01*
X26838936Y-56799499D01*
X26694097Y-56600145D01*
X26536818Y-56442866D01*
X26503334Y-56381543D01*
X26500500Y-56355185D01*
X26500500Y-55896792D01*
X38934500Y-55896792D01*
X38934500Y-56143207D01*
X38973048Y-56386590D01*
X38973048Y-56386593D01*
X39049192Y-56620940D01*
X39161064Y-56840501D01*
X39305903Y-57039855D01*
X39305905Y-57039857D01*
X39463181Y-57197133D01*
X39496666Y-57258456D01*
X39499500Y-57284814D01*
X39499500Y-58225988D01*
X39479815Y-58293027D01*
X39465148Y-58311657D01*
X39330289Y-58452779D01*
X39330279Y-58452792D01*
X39191287Y-58656547D01*
X39191285Y-58656552D01*
X39087439Y-58880268D01*
X39087436Y-58880276D01*
X39026696Y-59099297D01*
X39021519Y-59117965D01*
X39018421Y-59146952D01*
X38995307Y-59363225D01*
X39009507Y-59609474D01*
X39009507Y-59609479D01*
X39063731Y-59850092D01*
X39063734Y-59850099D01*
X39109669Y-59963225D01*
X39156533Y-60078636D01*
X39285412Y-60288947D01*
X39363102Y-60378634D01*
X39446908Y-60475382D01*
X39454702Y-60481853D01*
X39493711Y-60539818D01*
X39499500Y-60577262D01*
X39499500Y-63055185D01*
X39479815Y-63122224D01*
X39463182Y-63142866D01*
X39305902Y-63300146D01*
X39161064Y-63499498D01*
X39049192Y-63719059D01*
X38973048Y-63953406D01*
X38973048Y-63953409D01*
X38935274Y-64191908D01*
X38934500Y-64196792D01*
X38934500Y-64443208D01*
X38942987Y-64496792D01*
X38973048Y-64686590D01*
X38973048Y-64686593D01*
X39049192Y-64920940D01*
X39096658Y-65014097D01*
X39161064Y-65140501D01*
X39305903Y-65339855D01*
X39480145Y-65514097D01*
X39679499Y-65658936D01*
X39761203Y-65700566D01*
X39899059Y-65770807D01*
X40133407Y-65846951D01*
X40133408Y-65846951D01*
X40133411Y-65846952D01*
X40376792Y-65885500D01*
X40376793Y-65885500D01*
X40623207Y-65885500D01*
X40623208Y-65885500D01*
X40866589Y-65846952D01*
X40866592Y-65846951D01*
X40866593Y-65846951D01*
X41100940Y-65770807D01*
X41100940Y-65770806D01*
X41100943Y-65770806D01*
X41320501Y-65658936D01*
X41519855Y-65514097D01*
X41687133Y-65346819D01*
X41748456Y-65313334D01*
X41774814Y-65310500D01*
X46827111Y-65310500D01*
X46894150Y-65330185D01*
X46914792Y-65346819D01*
X47022490Y-65454517D01*
X47213567Y-65593343D01*
X47304852Y-65639855D01*
X47424003Y-65700566D01*
X47424005Y-65700566D01*
X47424008Y-65700568D01*
X47544412Y-65739689D01*
X47648631Y-65773553D01*
X47881903Y-65810500D01*
X47881908Y-65810500D01*
X48118097Y-65810500D01*
X48351368Y-65773553D01*
X48359822Y-65770806D01*
X48575992Y-65700568D01*
X48786433Y-65593343D01*
X48977510Y-65454517D01*
X49144517Y-65287510D01*
X49283343Y-65096433D01*
X49390568Y-64885992D01*
X49463553Y-64661368D01*
X49480652Y-64553409D01*
X49500500Y-64428097D01*
X49500500Y-64191902D01*
X49463553Y-63958631D01*
X49390566Y-63734003D01*
X49322361Y-63600145D01*
X49283343Y-63523567D01*
X49144517Y-63332490D01*
X48977510Y-63165483D01*
X48786433Y-63026657D01*
X48575996Y-62919433D01*
X48351368Y-62846446D01*
X48118097Y-62809500D01*
X48118092Y-62809500D01*
X47881908Y-62809500D01*
X47881903Y-62809500D01*
X47648631Y-62846446D01*
X47424003Y-62919433D01*
X47213566Y-63026657D01*
X47138023Y-63081543D01*
X47022490Y-63165483D01*
X47022488Y-63165485D01*
X47022487Y-63165485D01*
X46914792Y-63273181D01*
X46853469Y-63306666D01*
X46827111Y-63309500D01*
X41754815Y-63309500D01*
X41725374Y-63300855D01*
X41695388Y-63294332D01*
X41690372Y-63290577D01*
X41687776Y-63289815D01*
X41667134Y-63273181D01*
X41536819Y-63142866D01*
X41503334Y-63081543D01*
X41500500Y-63055185D01*
X41500500Y-60572216D01*
X41520185Y-60505177D01*
X41536972Y-60484382D01*
X41539511Y-60481852D01*
X41646223Y-60375512D01*
X41790158Y-60175205D01*
X41899445Y-59954079D01*
X41971149Y-59718074D01*
X42003344Y-59473526D01*
X42005141Y-59400000D01*
X41984930Y-59154171D01*
X41924841Y-58914945D01*
X41826486Y-58688744D01*
X41692508Y-58481645D01*
X41532785Y-58306113D01*
X41502227Y-58243282D01*
X41500500Y-58222660D01*
X41500500Y-57284814D01*
X41520185Y-57217775D01*
X41536819Y-57197133D01*
X41593451Y-57140501D01*
X41694097Y-57039855D01*
X41838936Y-56840501D01*
X41950806Y-56620943D01*
X41957565Y-56600142D01*
X42026951Y-56386593D01*
X42026951Y-56386592D01*
X42026952Y-56386589D01*
X42065500Y-56143208D01*
X42065500Y-55896792D01*
X42026952Y-55653411D01*
X42023288Y-55642135D01*
X46499500Y-55642135D01*
X46499500Y-57737870D01*
X46499501Y-57737876D01*
X46505908Y-57797483D01*
X46556202Y-57932328D01*
X46556206Y-57932335D01*
X46642452Y-58047544D01*
X46642455Y-58047547D01*
X46757664Y-58133793D01*
X46757671Y-58133797D01*
X46892517Y-58184091D01*
X46892516Y-58184091D01*
X46899444Y-58184835D01*
X46952127Y-58190500D01*
X49047872Y-58190499D01*
X49107483Y-58184091D01*
X49242331Y-58133796D01*
X49357546Y-58047546D01*
X49443796Y-57932331D01*
X49494091Y-57797483D01*
X49500500Y-57737873D01*
X49500499Y-55642128D01*
X49494091Y-55582517D01*
X49463127Y-55499499D01*
X49443797Y-55447671D01*
X49443793Y-55447664D01*
X49357547Y-55332455D01*
X49357544Y-55332452D01*
X49242335Y-55246206D01*
X49242328Y-55246202D01*
X49107482Y-55195908D01*
X49107483Y-55195908D01*
X49047883Y-55189501D01*
X49047881Y-55189500D01*
X49047873Y-55189500D01*
X49047864Y-55189500D01*
X46952129Y-55189500D01*
X46952123Y-55189501D01*
X46892516Y-55195908D01*
X46757671Y-55246202D01*
X46757664Y-55246206D01*
X46642455Y-55332452D01*
X46642452Y-55332455D01*
X46556206Y-55447664D01*
X46556202Y-55447671D01*
X46505908Y-55582517D01*
X46499501Y-55642116D01*
X46499501Y-55642123D01*
X46499500Y-55642135D01*
X42023288Y-55642135D01*
X41950807Y-55419059D01*
X41906680Y-55332454D01*
X41838936Y-55199499D01*
X41694097Y-55000145D01*
X41536818Y-54842866D01*
X41503334Y-54781543D01*
X41500500Y-54755185D01*
X41500500Y-54442034D01*
X41520185Y-54374995D01*
X41572989Y-54329240D01*
X41581167Y-54325852D01*
X41707328Y-54278797D01*
X41707327Y-54278797D01*
X41707331Y-54278796D01*
X41822546Y-54192546D01*
X41908796Y-54077331D01*
X41959091Y-53942483D01*
X41965500Y-53882873D01*
X41965499Y-51957128D01*
X41959091Y-51897517D01*
X41956499Y-51890568D01*
X41908797Y-51762671D01*
X41908793Y-51762664D01*
X41822547Y-51647455D01*
X41822544Y-51647452D01*
X41707335Y-51561206D01*
X41707328Y-51561202D01*
X41572482Y-51510908D01*
X41572483Y-51510908D01*
X41512883Y-51504501D01*
X41512881Y-51504500D01*
X41512873Y-51504500D01*
X41512864Y-51504500D01*
X39487129Y-51504500D01*
X39487123Y-51504501D01*
X39427516Y-51510908D01*
X39292671Y-51561202D01*
X39292664Y-51561206D01*
X39177455Y-51647452D01*
X39177452Y-51647455D01*
X39091206Y-51762664D01*
X39091202Y-51762671D01*
X39040908Y-51897517D01*
X39035933Y-51943796D01*
X39034501Y-51957123D01*
X39034500Y-51957135D01*
X39034500Y-53882870D01*
X39034501Y-53882876D01*
X39040908Y-53942483D01*
X39091202Y-54077328D01*
X39091206Y-54077335D01*
X39177452Y-54192544D01*
X39177455Y-54192547D01*
X39292664Y-54278793D01*
X39292671Y-54278797D01*
X39418833Y-54325852D01*
X39474767Y-54367723D01*
X39499184Y-54433187D01*
X39499500Y-54442034D01*
X39499500Y-54755185D01*
X39479815Y-54822224D01*
X39463182Y-54842866D01*
X39305902Y-55000146D01*
X39161064Y-55199498D01*
X39049192Y-55419059D01*
X38973048Y-55653406D01*
X38973048Y-55653409D01*
X38934500Y-55896792D01*
X26500500Y-55896792D01*
X26500500Y-53872216D01*
X26520185Y-53805177D01*
X26536972Y-53784382D01*
X26539511Y-53781852D01*
X26646223Y-53675512D01*
X26790158Y-53475205D01*
X26899445Y-53254079D01*
X26971149Y-53018074D01*
X27003344Y-52773526D01*
X27005141Y-52700000D01*
X26984930Y-52454171D01*
X26924841Y-52214945D01*
X26831597Y-52000498D01*
X26826487Y-51988746D01*
X26806033Y-51957129D01*
X26692508Y-51781645D01*
X26532785Y-51606113D01*
X26502227Y-51543282D01*
X26500500Y-51522660D01*
X26500500Y-50584814D01*
X26520185Y-50517775D01*
X26536819Y-50497133D01*
X26694097Y-50339855D01*
X26838936Y-50140501D01*
X26950806Y-49920943D01*
X26981676Y-49825935D01*
X27026951Y-49686593D01*
X27026951Y-49686592D01*
X27026952Y-49686589D01*
X27065500Y-49443208D01*
X27065500Y-49196792D01*
X53934500Y-49196792D01*
X53934500Y-49443207D01*
X53973048Y-49686590D01*
X53973048Y-49686593D01*
X54049192Y-49920940D01*
X54102764Y-50026080D01*
X54161064Y-50140501D01*
X54305903Y-50339855D01*
X54305905Y-50339857D01*
X54463181Y-50497133D01*
X54496666Y-50558456D01*
X54499500Y-50584814D01*
X54499500Y-51525988D01*
X54479815Y-51593027D01*
X54465148Y-51611657D01*
X54330289Y-51752779D01*
X54330279Y-51752792D01*
X54191287Y-51956547D01*
X54191285Y-51956552D01*
X54087439Y-52180268D01*
X54087436Y-52180276D01*
X54021520Y-52417960D01*
X54021519Y-52417967D01*
X53995307Y-52663225D01*
X54009507Y-52909474D01*
X54009507Y-52909479D01*
X54063731Y-53150092D01*
X54156533Y-53378636D01*
X54285412Y-53588947D01*
X54360398Y-53675512D01*
X54446908Y-53775382D01*
X54454702Y-53781853D01*
X54493711Y-53839818D01*
X54499500Y-53877262D01*
X54499500Y-56355185D01*
X54479815Y-56422224D01*
X54463182Y-56442866D01*
X54305902Y-56600146D01*
X54161064Y-56799498D01*
X54049192Y-57019059D01*
X53973048Y-57253406D01*
X53973048Y-57253409D01*
X53934500Y-57496792D01*
X53934500Y-57743207D01*
X53973048Y-57986590D01*
X53973048Y-57986593D01*
X54049192Y-58220940D01*
X54095415Y-58311657D01*
X54161064Y-58440501D01*
X54305903Y-58639855D01*
X54480145Y-58814097D01*
X54679499Y-58958936D01*
X54897505Y-59070015D01*
X54948301Y-59117989D01*
X54965096Y-59185810D01*
X54942559Y-59251945D01*
X54887844Y-59295397D01*
X54841210Y-59304500D01*
X54487129Y-59304500D01*
X54487123Y-59304501D01*
X54427516Y-59310908D01*
X54292671Y-59361202D01*
X54292664Y-59361206D01*
X54177455Y-59447452D01*
X54177452Y-59447455D01*
X54091206Y-59562664D01*
X54091202Y-59562671D01*
X54040908Y-59697517D01*
X54034818Y-59754168D01*
X54034501Y-59757123D01*
X54034500Y-59757135D01*
X54034500Y-61682870D01*
X54034501Y-61682876D01*
X54040908Y-61742483D01*
X54091202Y-61877328D01*
X54091206Y-61877335D01*
X54177452Y-61992544D01*
X54177455Y-61992547D01*
X54292664Y-62078793D01*
X54292671Y-62078797D01*
X54418833Y-62125852D01*
X54474767Y-62167723D01*
X54499184Y-62233187D01*
X54499500Y-62242034D01*
X54499500Y-62555185D01*
X54479815Y-62622224D01*
X54463182Y-62642866D01*
X54305902Y-62800146D01*
X54161064Y-62999498D01*
X54049192Y-63219059D01*
X53973048Y-63453406D01*
X53973048Y-63453409D01*
X53934500Y-63696792D01*
X53934500Y-63943207D01*
X53973048Y-64186590D01*
X53973048Y-64186593D01*
X54049192Y-64420940D01*
X54159678Y-64637781D01*
X54161064Y-64640501D01*
X54305903Y-64839855D01*
X54305905Y-64839857D01*
X54463181Y-64997133D01*
X54496666Y-65058456D01*
X54499500Y-65084814D01*
X54499500Y-66025988D01*
X54479815Y-66093027D01*
X54465148Y-66111657D01*
X54330289Y-66252779D01*
X54330279Y-66252792D01*
X54191287Y-66456547D01*
X54191285Y-66456552D01*
X54087439Y-66680268D01*
X54087436Y-66680276D01*
X54021520Y-66917960D01*
X54021519Y-66917967D01*
X53995307Y-67163225D01*
X54009507Y-67409474D01*
X54009507Y-67409479D01*
X54063731Y-67650092D01*
X54063734Y-67650099D01*
X54153586Y-67871380D01*
X54156533Y-67878636D01*
X54285412Y-68088947D01*
X54360398Y-68175512D01*
X54446908Y-68275382D01*
X54454702Y-68281853D01*
X54493711Y-68339818D01*
X54499500Y-68377262D01*
X54499500Y-70855185D01*
X54479815Y-70922224D01*
X54463182Y-70942866D01*
X54305902Y-71100146D01*
X54161064Y-71299498D01*
X54049192Y-71519059D01*
X53973048Y-71753406D01*
X53973048Y-71753409D01*
X53973048Y-71753411D01*
X53934500Y-71996792D01*
X53934500Y-72243208D01*
X53941318Y-72286256D01*
X53973048Y-72486590D01*
X53973048Y-72486593D01*
X54049192Y-72720940D01*
X54049194Y-72720943D01*
X54161064Y-72940501D01*
X54305903Y-73139855D01*
X54480145Y-73314097D01*
X54679499Y-73458936D01*
X54899057Y-73570806D01*
X54899059Y-73570807D01*
X55133407Y-73646951D01*
X55133408Y-73646951D01*
X55133411Y-73646952D01*
X55376792Y-73685500D01*
X55376793Y-73685500D01*
X55623207Y-73685500D01*
X55623208Y-73685500D01*
X55866589Y-73646952D01*
X55866592Y-73646951D01*
X55866593Y-73646951D01*
X56100940Y-73570807D01*
X56100940Y-73570806D01*
X56100943Y-73570806D01*
X56320501Y-73458936D01*
X56519855Y-73314097D01*
X56694097Y-73139855D01*
X56838936Y-72940501D01*
X56950806Y-72720943D01*
X57026952Y-72486589D01*
X57065500Y-72243208D01*
X57065500Y-71996792D01*
X57026952Y-71753411D01*
X57026951Y-71753407D01*
X57026951Y-71753406D01*
X56950807Y-71519059D01*
X56838935Y-71299498D01*
X56694097Y-71100145D01*
X56536818Y-70942866D01*
X56503334Y-70881543D01*
X56500500Y-70855185D01*
X56500500Y-68372216D01*
X56520185Y-68305177D01*
X56536972Y-68284382D01*
X56539510Y-68281853D01*
X56646223Y-68175512D01*
X56790158Y-67975205D01*
X56845173Y-67863889D01*
X56892521Y-67812514D01*
X56960132Y-67794891D01*
X57026537Y-67816619D01*
X57070654Y-67870798D01*
X57070897Y-67871380D01*
X57113367Y-67973910D01*
X57113372Y-67973920D01*
X57222860Y-68137780D01*
X57222863Y-68137784D01*
X57362215Y-68277136D01*
X57362219Y-68277139D01*
X57526079Y-68386627D01*
X57526083Y-68386629D01*
X57526086Y-68386631D01*
X57708164Y-68462051D01*
X57901455Y-68500499D01*
X57901458Y-68500500D01*
X57901460Y-68500500D01*
X58098542Y-68500500D01*
X58098543Y-68500499D01*
X58291836Y-68462051D01*
X58473914Y-68386631D01*
X58637781Y-68277139D01*
X62277139Y-64637782D01*
X62386631Y-64473915D01*
X62462051Y-64291836D01*
X62500500Y-64098541D01*
X62500500Y-63901460D01*
X62500500Y-63901457D01*
X62500499Y-63901455D01*
X62500238Y-63900145D01*
X62462051Y-63708165D01*
X62386631Y-63526086D01*
X62386630Y-63526085D01*
X62386627Y-63526079D01*
X62277139Y-63362219D01*
X62277136Y-63362215D01*
X62137784Y-63222863D01*
X62137780Y-63222860D01*
X61973920Y-63113372D01*
X61973911Y-63113367D01*
X61791835Y-63037949D01*
X61791827Y-63037947D01*
X61598543Y-62999500D01*
X61598540Y-62999500D01*
X61401459Y-62999500D01*
X61401456Y-62999500D01*
X61208171Y-63037947D01*
X61208163Y-63037949D01*
X61026087Y-63113367D01*
X61026078Y-63113372D01*
X60862218Y-63222860D01*
X60862214Y-63222863D01*
X57222863Y-66862215D01*
X57222860Y-66862219D01*
X57188427Y-66913752D01*
X57134814Y-66958557D01*
X57065489Y-66967264D01*
X57002462Y-66937109D01*
X56965743Y-66877666D01*
X56965061Y-66875069D01*
X56961832Y-66862215D01*
X56924841Y-66714945D01*
X56826486Y-66488744D01*
X56692508Y-66281645D01*
X56532785Y-66106113D01*
X56502227Y-66043282D01*
X56500500Y-66022660D01*
X56500500Y-65084814D01*
X56520185Y-65017775D01*
X56536819Y-64997133D01*
X56613012Y-64920940D01*
X56694097Y-64839855D01*
X56838936Y-64640501D01*
X56950806Y-64420943D01*
X56992758Y-64291828D01*
X57026951Y-64186593D01*
X57026951Y-64186592D01*
X57026952Y-64186589D01*
X57065500Y-63943208D01*
X57065500Y-63696792D01*
X57026952Y-63453411D01*
X57026951Y-63453407D01*
X57026951Y-63453406D01*
X56950807Y-63219059D01*
X56858526Y-63037947D01*
X56838936Y-62999499D01*
X56694097Y-62800145D01*
X56536818Y-62642866D01*
X56503334Y-62581543D01*
X56500500Y-62555185D01*
X56500500Y-62242034D01*
X56520185Y-62174995D01*
X56572989Y-62129240D01*
X56581167Y-62125852D01*
X56707328Y-62078797D01*
X56707327Y-62078797D01*
X56707331Y-62078796D01*
X56822546Y-61992546D01*
X56908796Y-61877331D01*
X56959091Y-61742483D01*
X56965500Y-61682873D01*
X56965499Y-59757128D01*
X56959091Y-59697517D01*
X56946301Y-59663226D01*
X56908797Y-59562671D01*
X56908793Y-59562664D01*
X56822547Y-59447455D01*
X56822544Y-59447452D01*
X56707335Y-59361206D01*
X56707328Y-59361202D01*
X56572482Y-59310908D01*
X56572483Y-59310908D01*
X56512883Y-59304501D01*
X56512881Y-59304500D01*
X56512873Y-59304500D01*
X56512865Y-59304500D01*
X56158790Y-59304500D01*
X56091751Y-59284815D01*
X56045996Y-59232011D01*
X56036052Y-59162853D01*
X56065077Y-59099297D01*
X56102495Y-59070015D01*
X56320501Y-58958936D01*
X56519855Y-58814097D01*
X56694097Y-58639855D01*
X56838936Y-58440501D01*
X56950806Y-58220943D01*
X57026952Y-57986589D01*
X57065500Y-57743208D01*
X57065500Y-57496792D01*
X57026952Y-57253411D01*
X57026951Y-57253407D01*
X57026951Y-57253406D01*
X56950807Y-57019059D01*
X56934263Y-56986589D01*
X56838936Y-56799499D01*
X56694097Y-56600145D01*
X56536818Y-56442866D01*
X56503334Y-56381543D01*
X56500500Y-56355185D01*
X56500500Y-53872216D01*
X56520185Y-53805177D01*
X56536972Y-53784382D01*
X56539511Y-53781852D01*
X56646223Y-53675512D01*
X56790158Y-53475205D01*
X56899445Y-53254079D01*
X56971149Y-53018074D01*
X57003344Y-52773526D01*
X57005141Y-52700000D01*
X56984930Y-52454171D01*
X56924841Y-52214945D01*
X56831597Y-52000498D01*
X56826487Y-51988746D01*
X56806033Y-51957129D01*
X56806032Y-51957128D01*
X56692508Y-51781645D01*
X56532784Y-51606112D01*
X56502227Y-51543282D01*
X56500500Y-51522660D01*
X56500500Y-50584814D01*
X56520185Y-50517775D01*
X56536819Y-50497133D01*
X56694097Y-50339855D01*
X56838936Y-50140501D01*
X56950806Y-49920943D01*
X56981676Y-49825935D01*
X57026951Y-49686593D01*
X57026951Y-49686592D01*
X57026952Y-49686589D01*
X57065500Y-49443208D01*
X57065500Y-49196792D01*
X57026952Y-48953411D01*
X57026951Y-48953407D01*
X57026951Y-48953406D01*
X56950807Y-48719059D01*
X56912826Y-48644517D01*
X56838936Y-48499499D01*
X56694097Y-48300145D01*
X56536818Y-48142866D01*
X56503334Y-48081543D01*
X56500500Y-48055185D01*
X56500500Y-47742034D01*
X56520185Y-47674995D01*
X56572989Y-47629240D01*
X56581167Y-47625852D01*
X56707328Y-47578797D01*
X56707327Y-47578797D01*
X56707331Y-47578796D01*
X56822546Y-47492546D01*
X56908796Y-47377331D01*
X56959091Y-47242483D01*
X56965500Y-47182873D01*
X56965499Y-45257128D01*
X56959091Y-45197517D01*
X56908796Y-45062669D01*
X56908795Y-45062668D01*
X56908793Y-45062664D01*
X56822547Y-44947455D01*
X56822544Y-44947452D01*
X56707335Y-44861206D01*
X56707328Y-44861202D01*
X56572482Y-44810908D01*
X56572483Y-44810908D01*
X56512883Y-44804501D01*
X56512881Y-44804500D01*
X56512873Y-44804500D01*
X56512864Y-44804500D01*
X54487129Y-44804500D01*
X54487123Y-44804501D01*
X54427516Y-44810908D01*
X54292671Y-44861202D01*
X54292664Y-44861206D01*
X54177455Y-44947452D01*
X54177452Y-44947455D01*
X54091206Y-45062664D01*
X54091202Y-45062671D01*
X54040908Y-45197517D01*
X54034501Y-45257116D01*
X54034501Y-45257123D01*
X54034500Y-45257135D01*
X54034500Y-47182870D01*
X54034501Y-47182876D01*
X54040908Y-47242483D01*
X54091202Y-47377328D01*
X54091206Y-47377335D01*
X54177452Y-47492544D01*
X54177455Y-47492547D01*
X54292664Y-47578793D01*
X54292671Y-47578797D01*
X54418833Y-47625852D01*
X54474767Y-47667723D01*
X54499184Y-47733187D01*
X54499500Y-47742034D01*
X54499500Y-48055185D01*
X54479815Y-48122224D01*
X54463182Y-48142866D01*
X54305902Y-48300146D01*
X54161064Y-48499498D01*
X54049192Y-48719059D01*
X53973048Y-48953406D01*
X53973048Y-48953409D01*
X53934500Y-49196792D01*
X27065500Y-49196792D01*
X27026952Y-48953411D01*
X27026951Y-48953407D01*
X27026951Y-48953406D01*
X26950807Y-48719059D01*
X26912826Y-48644517D01*
X26838936Y-48499499D01*
X26694097Y-48300145D01*
X26536818Y-48142866D01*
X26503334Y-48081543D01*
X26500500Y-48055185D01*
X26500500Y-47742034D01*
X26520185Y-47674995D01*
X26572989Y-47629240D01*
X26581167Y-47625852D01*
X26707328Y-47578797D01*
X26707327Y-47578797D01*
X26707331Y-47578796D01*
X26822546Y-47492546D01*
X26908796Y-47377331D01*
X26959091Y-47242483D01*
X26965500Y-47182873D01*
X26965499Y-45257128D01*
X26959091Y-45197517D01*
X26908796Y-45062669D01*
X26908795Y-45062668D01*
X26908793Y-45062664D01*
X26822547Y-44947455D01*
X26734039Y-44881197D01*
X26723355Y-44866925D01*
X26709083Y-44856241D01*
X26702852Y-44839534D01*
X26692169Y-44825263D01*
X26690897Y-44807480D01*
X26684667Y-44790776D01*
X26688456Y-44773354D01*
X26687185Y-44755571D01*
X26695729Y-44739923D01*
X26699519Y-44722503D01*
X26720667Y-44694252D01*
X26878103Y-44536818D01*
X26939427Y-44503334D01*
X26965784Y-44500500D01*
X60281460Y-44500500D01*
X60478540Y-44500500D01*
X67314218Y-44500500D01*
X67381257Y-44520185D01*
G37*
%TD.AperFunction*%
%TA.AperFunction,NonConductor*%
G36*
X168516177Y-28520185D02*
G01*
X168536819Y-28536819D01*
X170463181Y-30463181D01*
X170496666Y-30524504D01*
X170499500Y-30550862D01*
X170499500Y-73949138D01*
X170479815Y-74016177D01*
X170463181Y-74036819D01*
X168536819Y-75963181D01*
X168475496Y-75996666D01*
X168449138Y-75999500D01*
X133333392Y-75999500D01*
X133311892Y-75993186D01*
X133289548Y-75991490D01*
X133279015Y-75983533D01*
X133266353Y-75979815D01*
X133251680Y-75962881D01*
X133233799Y-75949373D01*
X133229240Y-75936984D01*
X133220598Y-75927011D01*
X133217409Y-75904833D01*
X133209670Y-75883802D01*
X133212532Y-75870916D01*
X133210654Y-75857853D01*
X133219962Y-75837470D01*
X133224822Y-75815595D01*
X133236197Y-75801920D01*
X133239679Y-75794297D01*
X133246097Y-75787434D01*
X133253796Y-75779802D01*
X133257782Y-75777139D01*
X133397139Y-75637782D01*
X133397141Y-75637778D01*
X135313100Y-73721819D01*
X135374423Y-73688334D01*
X135400781Y-73685500D01*
X135623207Y-73685500D01*
X135623208Y-73685500D01*
X135866589Y-73646952D01*
X135866592Y-73646951D01*
X135866593Y-73646951D01*
X136100940Y-73570807D01*
X136100940Y-73570806D01*
X136100943Y-73570806D01*
X136320501Y-73458936D01*
X136519855Y-73314097D01*
X136694097Y-73139855D01*
X136838936Y-72940501D01*
X136950806Y-72720943D01*
X137026952Y-72486589D01*
X137065500Y-72243208D01*
X137065500Y-71996792D01*
X137026952Y-71753411D01*
X137026951Y-71753407D01*
X137026951Y-71753406D01*
X136950807Y-71519059D01*
X136838935Y-71299498D01*
X136694097Y-71100145D01*
X136536818Y-70942866D01*
X136503334Y-70881543D01*
X136500500Y-70855185D01*
X136500500Y-68372216D01*
X136520185Y-68305177D01*
X136536972Y-68284382D01*
X136539510Y-68281853D01*
X136646223Y-68175512D01*
X136790158Y-67975205D01*
X136899445Y-67754079D01*
X136971149Y-67518074D01*
X137003344Y-67273526D01*
X137005141Y-67200000D01*
X136984930Y-66954171D01*
X136924841Y-66714945D01*
X136826486Y-66488744D01*
X136692508Y-66281645D01*
X136532784Y-66106112D01*
X136502227Y-66043282D01*
X136500500Y-66022660D01*
X136500500Y-65084814D01*
X136520185Y-65017775D01*
X136536819Y-64997133D01*
X136613012Y-64920940D01*
X136694097Y-64839855D01*
X136838936Y-64640501D01*
X136950806Y-64420943D01*
X136992758Y-64291828D01*
X137026951Y-64186593D01*
X137026951Y-64186592D01*
X137026952Y-64186589D01*
X137065500Y-63943208D01*
X137065500Y-63696792D01*
X137026952Y-63453411D01*
X137026951Y-63453407D01*
X137026951Y-63453406D01*
X136950807Y-63219059D01*
X136858526Y-63037947D01*
X136838936Y-62999499D01*
X136694097Y-62800145D01*
X136536818Y-62642866D01*
X136503334Y-62581543D01*
X136500500Y-62555185D01*
X136500500Y-62242034D01*
X136520185Y-62174995D01*
X136572989Y-62129240D01*
X136581167Y-62125852D01*
X136707328Y-62078797D01*
X136707327Y-62078797D01*
X136707331Y-62078796D01*
X136822546Y-61992546D01*
X136908796Y-61877331D01*
X136959091Y-61742483D01*
X136965500Y-61682873D01*
X136965499Y-59757128D01*
X136959091Y-59697517D01*
X136946301Y-59663226D01*
X136908797Y-59562671D01*
X136908793Y-59562664D01*
X136822547Y-59447455D01*
X136822544Y-59447452D01*
X136707335Y-59361206D01*
X136707328Y-59361202D01*
X136572482Y-59310908D01*
X136572483Y-59310908D01*
X136512883Y-59304501D01*
X136512881Y-59304500D01*
X136512873Y-59304500D01*
X136512865Y-59304500D01*
X136158790Y-59304500D01*
X136091751Y-59284815D01*
X136045996Y-59232011D01*
X136036052Y-59162853D01*
X136065077Y-59099297D01*
X136102495Y-59070015D01*
X136320501Y-58958936D01*
X136519855Y-58814097D01*
X136694097Y-58639855D01*
X136838936Y-58440501D01*
X136950806Y-58220943D01*
X137026952Y-57986589D01*
X137065500Y-57743208D01*
X137065500Y-57496792D01*
X137026952Y-57253411D01*
X137026951Y-57253407D01*
X137026951Y-57253406D01*
X136950807Y-57019059D01*
X136934263Y-56986589D01*
X136838936Y-56799499D01*
X136694097Y-56600145D01*
X136536818Y-56442866D01*
X136522111Y-56415932D01*
X136505523Y-56390120D01*
X136504631Y-56383919D01*
X136503334Y-56381543D01*
X136500500Y-56355185D01*
X136500500Y-56196792D01*
X143934500Y-56196792D01*
X143934500Y-56443207D01*
X143973048Y-56686590D01*
X143973048Y-56686593D01*
X144049192Y-56920940D01*
X144082644Y-56986593D01*
X144161064Y-57140501D01*
X144305903Y-57339855D01*
X144305905Y-57339857D01*
X144463181Y-57497133D01*
X144496666Y-57558456D01*
X144499500Y-57584814D01*
X144499500Y-58525988D01*
X144479815Y-58593027D01*
X144465148Y-58611657D01*
X144330289Y-58752779D01*
X144330279Y-58752792D01*
X144191287Y-58956547D01*
X144191285Y-58956552D01*
X144087439Y-59180268D01*
X144087436Y-59180276D01*
X144021520Y-59417960D01*
X144021519Y-59417967D01*
X143995307Y-59663225D01*
X144009507Y-59909474D01*
X144009507Y-59909479D01*
X144063731Y-60150092D01*
X144156533Y-60378636D01*
X144285412Y-60588947D01*
X144363102Y-60678634D01*
X144446908Y-60775382D01*
X144454702Y-60781853D01*
X144493711Y-60839818D01*
X144499500Y-60877262D01*
X144499500Y-63355185D01*
X144479815Y-63422224D01*
X144463182Y-63442866D01*
X144305902Y-63600146D01*
X144161064Y-63799498D01*
X144049192Y-64019059D01*
X143973048Y-64253406D01*
X143973048Y-64253409D01*
X143962650Y-64319059D01*
X143934500Y-64496792D01*
X143934500Y-64743208D01*
X143949808Y-64839857D01*
X143973048Y-64986590D01*
X143973048Y-64986593D01*
X144049192Y-65220940D01*
X144082644Y-65286593D01*
X144161064Y-65440501D01*
X144305903Y-65639855D01*
X144480145Y-65814097D01*
X144679499Y-65958936D01*
X144845038Y-66043282D01*
X144899059Y-66070807D01*
X145133407Y-66146951D01*
X145133408Y-66146951D01*
X145133411Y-66146952D01*
X145376792Y-66185500D01*
X145376793Y-66185500D01*
X145623207Y-66185500D01*
X145623208Y-66185500D01*
X145866589Y-66146952D01*
X145866592Y-66146951D01*
X145866593Y-66146951D01*
X146100940Y-66070807D01*
X146100940Y-66070806D01*
X146100943Y-66070806D01*
X146320501Y-65958936D01*
X146519855Y-65814097D01*
X146694097Y-65639855D01*
X146838936Y-65440501D01*
X146950806Y-65220943D01*
X147003601Y-65058456D01*
X147026951Y-64986593D01*
X147026951Y-64986592D01*
X147026952Y-64986589D01*
X147065500Y-64743208D01*
X147065500Y-64496792D01*
X147026952Y-64253411D01*
X147026951Y-64253407D01*
X147026951Y-64253406D01*
X146950807Y-64019059D01*
X146920018Y-63958632D01*
X146838936Y-63799499D01*
X146694097Y-63600145D01*
X146536818Y-63442866D01*
X146503334Y-63381543D01*
X146500500Y-63355185D01*
X146500500Y-60872216D01*
X146520185Y-60805177D01*
X146536972Y-60784382D01*
X146539511Y-60781852D01*
X146646223Y-60675512D01*
X146790158Y-60475205D01*
X146899445Y-60254079D01*
X146971149Y-60018074D01*
X147003344Y-59773526D01*
X147005141Y-59700000D01*
X146984930Y-59454171D01*
X146924841Y-59214945D01*
X146826486Y-58988744D01*
X146692508Y-58781645D01*
X146532785Y-58606113D01*
X146502227Y-58543282D01*
X146500500Y-58522660D01*
X146500500Y-57584814D01*
X146520185Y-57517775D01*
X146536819Y-57497133D01*
X146593451Y-57440501D01*
X146694097Y-57339855D01*
X146838936Y-57140501D01*
X146950806Y-56920943D01*
X146976943Y-56840501D01*
X147026951Y-56686593D01*
X147026951Y-56686592D01*
X147026952Y-56686589D01*
X147065500Y-56443208D01*
X147065500Y-56196792D01*
X153934500Y-56196792D01*
X153934500Y-56443207D01*
X153973048Y-56686590D01*
X153973048Y-56686593D01*
X154049192Y-56920940D01*
X154082644Y-56986593D01*
X154161064Y-57140501D01*
X154305903Y-57339855D01*
X154305905Y-57339857D01*
X154463181Y-57497133D01*
X154496666Y-57558456D01*
X154499500Y-57584814D01*
X154499500Y-58525988D01*
X154479815Y-58593027D01*
X154465148Y-58611657D01*
X154330289Y-58752779D01*
X154330279Y-58752792D01*
X154191287Y-58956547D01*
X154191285Y-58956552D01*
X154087439Y-59180268D01*
X154087436Y-59180276D01*
X154021520Y-59417960D01*
X154021519Y-59417967D01*
X153995307Y-59663225D01*
X154009507Y-59909474D01*
X154009507Y-59909479D01*
X154063731Y-60150092D01*
X154156533Y-60378636D01*
X154285412Y-60588947D01*
X154363102Y-60678634D01*
X154446908Y-60775382D01*
X154454702Y-60781853D01*
X154493711Y-60839818D01*
X154499500Y-60877262D01*
X154499500Y-63355185D01*
X154479815Y-63422224D01*
X154463182Y-63442866D01*
X154305902Y-63600146D01*
X154161064Y-63799498D01*
X154049192Y-64019059D01*
X153973048Y-64253406D01*
X153973048Y-64253409D01*
X153962650Y-64319059D01*
X153934500Y-64496792D01*
X153934500Y-64743208D01*
X153949808Y-64839857D01*
X153973048Y-64986590D01*
X153973048Y-64986593D01*
X154049192Y-65220940D01*
X154082644Y-65286593D01*
X154161064Y-65440501D01*
X154305903Y-65639855D01*
X154480145Y-65814097D01*
X154679499Y-65958936D01*
X154845038Y-66043282D01*
X154899059Y-66070807D01*
X155133407Y-66146951D01*
X155133408Y-66146951D01*
X155133411Y-66146952D01*
X155376792Y-66185500D01*
X155376793Y-66185500D01*
X155623207Y-66185500D01*
X155623208Y-66185500D01*
X155866589Y-66146952D01*
X155866592Y-66146951D01*
X155866593Y-66146951D01*
X156100940Y-66070807D01*
X156100940Y-66070806D01*
X156100943Y-66070806D01*
X156320501Y-65958936D01*
X156519855Y-65814097D01*
X156694097Y-65639855D01*
X156838936Y-65440501D01*
X156950806Y-65220943D01*
X157003601Y-65058456D01*
X157026951Y-64986593D01*
X157026951Y-64986592D01*
X157026952Y-64986589D01*
X157065500Y-64743208D01*
X157065500Y-64496792D01*
X157026952Y-64253411D01*
X157026951Y-64253407D01*
X157026951Y-64253406D01*
X156950807Y-64019059D01*
X156920018Y-63958632D01*
X156838936Y-63799499D01*
X156694097Y-63600145D01*
X156536818Y-63442866D01*
X156503334Y-63381543D01*
X156500500Y-63355185D01*
X156500500Y-60872216D01*
X156520185Y-60805177D01*
X156536972Y-60784382D01*
X156539511Y-60781852D01*
X156646223Y-60675512D01*
X156790158Y-60475205D01*
X156899445Y-60254079D01*
X156971149Y-60018074D01*
X157003344Y-59773526D01*
X157005141Y-59700000D01*
X156984930Y-59454171D01*
X156924841Y-59214945D01*
X156826486Y-58988744D01*
X156692508Y-58781645D01*
X156532785Y-58606113D01*
X156502227Y-58543282D01*
X156500500Y-58522660D01*
X156500500Y-57584814D01*
X156520185Y-57517775D01*
X156536819Y-57497133D01*
X156593451Y-57440501D01*
X156694097Y-57339855D01*
X156838936Y-57140501D01*
X156950806Y-56920943D01*
X156976943Y-56840501D01*
X157026951Y-56686593D01*
X157026951Y-56686592D01*
X157026952Y-56686589D01*
X157065500Y-56443208D01*
X157065500Y-56196792D01*
X157026952Y-55953411D01*
X157026951Y-55953407D01*
X157026951Y-55953406D01*
X156950807Y-55719059D01*
X156890218Y-55600146D01*
X156838936Y-55499499D01*
X156694097Y-55300145D01*
X156536818Y-55142866D01*
X156503334Y-55081543D01*
X156500500Y-55055185D01*
X156500500Y-54742034D01*
X156520185Y-54674995D01*
X156572989Y-54629240D01*
X156581167Y-54625852D01*
X156707331Y-54578796D01*
X156822546Y-54492546D01*
X156908796Y-54377331D01*
X156959091Y-54242483D01*
X156965500Y-54182873D01*
X156965499Y-53500780D01*
X156985183Y-53433742D01*
X157001813Y-53413105D01*
X158878102Y-51536819D01*
X158939425Y-51503334D01*
X158965783Y-51500500D01*
X159118097Y-51500500D01*
X159351368Y-51463553D01*
X159575992Y-51390568D01*
X159786433Y-51283343D01*
X159977510Y-51144517D01*
X160144517Y-50977510D01*
X160283343Y-50786433D01*
X160390568Y-50575992D01*
X160463553Y-50351368D01*
X160465376Y-50339857D01*
X160500500Y-50118097D01*
X160500500Y-49881902D01*
X160463553Y-49648631D01*
X160399705Y-49452129D01*
X160390568Y-49424008D01*
X160390566Y-49424005D01*
X160390566Y-49424003D01*
X160300997Y-49248215D01*
X160283342Y-49213566D01*
X160282335Y-49212180D01*
X160271155Y-49196792D01*
X163934500Y-49196792D01*
X163934500Y-49443207D01*
X163973048Y-49686590D01*
X163973048Y-49686593D01*
X164049192Y-49920940D01*
X164102764Y-50026080D01*
X164161064Y-50140501D01*
X164305903Y-50339855D01*
X164305905Y-50339857D01*
X164463181Y-50497133D01*
X164496666Y-50558456D01*
X164499500Y-50584814D01*
X164499500Y-51525988D01*
X164479815Y-51593027D01*
X164465148Y-51611657D01*
X164330289Y-51752779D01*
X164330279Y-51752792D01*
X164191287Y-51956547D01*
X164191285Y-51956552D01*
X164087439Y-52180268D01*
X164087436Y-52180276D01*
X164021520Y-52417960D01*
X164021519Y-52417967D01*
X163995307Y-52663225D01*
X164009507Y-52909474D01*
X164009507Y-52909479D01*
X164063731Y-53150092D01*
X164156533Y-53378636D01*
X164285412Y-53588947D01*
X164360398Y-53675512D01*
X164446908Y-53775382D01*
X164454702Y-53781853D01*
X164493711Y-53839818D01*
X164499500Y-53877262D01*
X164499500Y-56355185D01*
X164479815Y-56422224D01*
X164463182Y-56442866D01*
X164305902Y-56600146D01*
X164161064Y-56799498D01*
X164049192Y-57019059D01*
X163973048Y-57253406D01*
X163973048Y-57253409D01*
X163934500Y-57496792D01*
X163934500Y-57743207D01*
X163973048Y-57986590D01*
X163973048Y-57986593D01*
X164049192Y-58220940D01*
X164095415Y-58311657D01*
X164161064Y-58440501D01*
X164305903Y-58639855D01*
X164480145Y-58814097D01*
X164679499Y-58958936D01*
X164897505Y-59070015D01*
X164948301Y-59117989D01*
X164965096Y-59185810D01*
X164942559Y-59251945D01*
X164887844Y-59295397D01*
X164841210Y-59304500D01*
X164487129Y-59304500D01*
X164487123Y-59304501D01*
X164427516Y-59310908D01*
X164292671Y-59361202D01*
X164292664Y-59361206D01*
X164177455Y-59447452D01*
X164177452Y-59447455D01*
X164091206Y-59562664D01*
X164091202Y-59562671D01*
X164040908Y-59697517D01*
X164034818Y-59754168D01*
X164034501Y-59757123D01*
X164034500Y-59757135D01*
X164034500Y-61682870D01*
X164034501Y-61682876D01*
X164040908Y-61742483D01*
X164091202Y-61877328D01*
X164091206Y-61877335D01*
X164177452Y-61992544D01*
X164177455Y-61992547D01*
X164292664Y-62078793D01*
X164292671Y-62078797D01*
X164418833Y-62125852D01*
X164474767Y-62167723D01*
X164499184Y-62233187D01*
X164499500Y-62242034D01*
X164499500Y-62555185D01*
X164479815Y-62622224D01*
X164463182Y-62642866D01*
X164305902Y-62800146D01*
X164161064Y-62999498D01*
X164049192Y-63219059D01*
X163973048Y-63453406D01*
X163973048Y-63453409D01*
X163934500Y-63696792D01*
X163934500Y-63943207D01*
X163973048Y-64186590D01*
X163973048Y-64186593D01*
X164049192Y-64420940D01*
X164159678Y-64637781D01*
X164161064Y-64640501D01*
X164305903Y-64839855D01*
X164305905Y-64839857D01*
X164463181Y-64997133D01*
X164496666Y-65058456D01*
X164499500Y-65084814D01*
X164499500Y-66025988D01*
X164479815Y-66093027D01*
X164465148Y-66111657D01*
X164330289Y-66252779D01*
X164330279Y-66252792D01*
X164191287Y-66456547D01*
X164191285Y-66456552D01*
X164087439Y-66680268D01*
X164087436Y-66680276D01*
X164021520Y-66917960D01*
X164021519Y-66917967D01*
X163995307Y-67163225D01*
X164009507Y-67409474D01*
X164009507Y-67409479D01*
X164063731Y-67650092D01*
X164063734Y-67650099D01*
X164153586Y-67871380D01*
X164156533Y-67878636D01*
X164285412Y-68088947D01*
X164421969Y-68246591D01*
X164446908Y-68275382D01*
X164454702Y-68281853D01*
X164493711Y-68339818D01*
X164499500Y-68377262D01*
X164499500Y-70855185D01*
X164479815Y-70922224D01*
X164463182Y-70942866D01*
X164305902Y-71100146D01*
X164161064Y-71299498D01*
X164049192Y-71519059D01*
X163973048Y-71753406D01*
X163973048Y-71753409D01*
X163973048Y-71753411D01*
X163934500Y-71996792D01*
X163934500Y-72243208D01*
X163941318Y-72286256D01*
X163973048Y-72486590D01*
X163973048Y-72486593D01*
X164049192Y-72720940D01*
X164049194Y-72720943D01*
X164161064Y-72940501D01*
X164305903Y-73139855D01*
X164480145Y-73314097D01*
X164679499Y-73458936D01*
X164899057Y-73570806D01*
X164899059Y-73570807D01*
X165133407Y-73646951D01*
X165133408Y-73646951D01*
X165133411Y-73646952D01*
X165376792Y-73685500D01*
X165376793Y-73685500D01*
X165623207Y-73685500D01*
X165623208Y-73685500D01*
X165866589Y-73646952D01*
X165866592Y-73646951D01*
X165866593Y-73646951D01*
X166100940Y-73570807D01*
X166100940Y-73570806D01*
X166100943Y-73570806D01*
X166320501Y-73458936D01*
X166519855Y-73314097D01*
X166694097Y-73139855D01*
X166838936Y-72940501D01*
X166950806Y-72720943D01*
X167026952Y-72486589D01*
X167065500Y-72243208D01*
X167065500Y-71996792D01*
X167026952Y-71753411D01*
X167026951Y-71753407D01*
X167026951Y-71753406D01*
X166950807Y-71519059D01*
X166838935Y-71299498D01*
X166694097Y-71100145D01*
X166536818Y-70942866D01*
X166503334Y-70881543D01*
X166500500Y-70855185D01*
X166500500Y-68372216D01*
X166520185Y-68305177D01*
X166536972Y-68284382D01*
X166544243Y-68277136D01*
X166646223Y-68175512D01*
X166790158Y-67975205D01*
X166899445Y-67754079D01*
X166971149Y-67518074D01*
X167003344Y-67273526D01*
X167005141Y-67200000D01*
X166984930Y-66954171D01*
X166924841Y-66714945D01*
X166826486Y-66488744D01*
X166692508Y-66281645D01*
X166532785Y-66106113D01*
X166502227Y-66043282D01*
X166500500Y-66022660D01*
X166500500Y-65084814D01*
X166520185Y-65017775D01*
X166536819Y-64997133D01*
X166613012Y-64920940D01*
X166694097Y-64839855D01*
X166838936Y-64640501D01*
X166950806Y-64420943D01*
X166992758Y-64291828D01*
X167026951Y-64186593D01*
X167026951Y-64186592D01*
X167026952Y-64186589D01*
X167065500Y-63943208D01*
X167065500Y-63696792D01*
X167026952Y-63453411D01*
X167026951Y-63453407D01*
X167026951Y-63453406D01*
X166950807Y-63219059D01*
X166858526Y-63037947D01*
X166838936Y-62999499D01*
X166694097Y-62800145D01*
X166536818Y-62642866D01*
X166503334Y-62581543D01*
X166500500Y-62555185D01*
X166500500Y-62242034D01*
X166520185Y-62174995D01*
X166572989Y-62129240D01*
X166581167Y-62125852D01*
X166707328Y-62078797D01*
X166707327Y-62078797D01*
X166707331Y-62078796D01*
X166822546Y-61992546D01*
X166908796Y-61877331D01*
X166959091Y-61742483D01*
X166965500Y-61682873D01*
X166965499Y-59757128D01*
X166959091Y-59697517D01*
X166946301Y-59663226D01*
X166908797Y-59562671D01*
X166908793Y-59562664D01*
X166822547Y-59447455D01*
X166822544Y-59447452D01*
X166707335Y-59361206D01*
X166707328Y-59361202D01*
X166572482Y-59310908D01*
X166572483Y-59310908D01*
X166512883Y-59304501D01*
X166512881Y-59304500D01*
X166512873Y-59304500D01*
X166512865Y-59304500D01*
X166158790Y-59304500D01*
X166091751Y-59284815D01*
X166045996Y-59232011D01*
X166036052Y-59162853D01*
X166065077Y-59099297D01*
X166102495Y-59070015D01*
X166320501Y-58958936D01*
X166519855Y-58814097D01*
X166694097Y-58639855D01*
X166838936Y-58440501D01*
X166950806Y-58220943D01*
X167026952Y-57986589D01*
X167065500Y-57743208D01*
X167065500Y-57496792D01*
X167026952Y-57253411D01*
X167026951Y-57253407D01*
X167026951Y-57253406D01*
X166950807Y-57019059D01*
X166934263Y-56986589D01*
X166838936Y-56799499D01*
X166694097Y-56600145D01*
X166536818Y-56442866D01*
X166503334Y-56381543D01*
X166500500Y-56355185D01*
X166500500Y-53872216D01*
X166520185Y-53805177D01*
X166536972Y-53784382D01*
X166539511Y-53781852D01*
X166646223Y-53675512D01*
X166790158Y-53475205D01*
X166899445Y-53254079D01*
X166971149Y-53018074D01*
X167003344Y-52773526D01*
X167005141Y-52700000D01*
X166984930Y-52454171D01*
X166924841Y-52214945D01*
X166831597Y-52000498D01*
X166826487Y-51988746D01*
X166806033Y-51957129D01*
X166806032Y-51957128D01*
X166692508Y-51781645D01*
X166532784Y-51606112D01*
X166502227Y-51543282D01*
X166500500Y-51522660D01*
X166500500Y-50584814D01*
X166520185Y-50517775D01*
X166536819Y-50497133D01*
X166694097Y-50339855D01*
X166838936Y-50140501D01*
X166950806Y-49920943D01*
X166981676Y-49825935D01*
X167026951Y-49686593D01*
X167026951Y-49686592D01*
X167026952Y-49686589D01*
X167065500Y-49443208D01*
X167065500Y-49196792D01*
X167026952Y-48953411D01*
X167026951Y-48953407D01*
X167026951Y-48953406D01*
X166950807Y-48719059D01*
X166912826Y-48644517D01*
X166838936Y-48499499D01*
X166694097Y-48300145D01*
X166536818Y-48142866D01*
X166503334Y-48081543D01*
X166500500Y-48055185D01*
X166500500Y-47742034D01*
X166520185Y-47674995D01*
X166572989Y-47629240D01*
X166581167Y-47625852D01*
X166707328Y-47578797D01*
X166707327Y-47578797D01*
X166707331Y-47578796D01*
X166822546Y-47492546D01*
X166908796Y-47377331D01*
X166959091Y-47242483D01*
X166965500Y-47182873D01*
X166965499Y-45257128D01*
X166959091Y-45197517D01*
X166908796Y-45062669D01*
X166908795Y-45062668D01*
X166908793Y-45062664D01*
X166822547Y-44947455D01*
X166822544Y-44947452D01*
X166707335Y-44861206D01*
X166707328Y-44861202D01*
X166572482Y-44810908D01*
X166572483Y-44810908D01*
X166512883Y-44804501D01*
X166512881Y-44804500D01*
X166512873Y-44804500D01*
X166512864Y-44804500D01*
X164487129Y-44804500D01*
X164487123Y-44804501D01*
X164427516Y-44810908D01*
X164292671Y-44861202D01*
X164292664Y-44861206D01*
X164177455Y-44947452D01*
X164177452Y-44947455D01*
X164091206Y-45062664D01*
X164091202Y-45062671D01*
X164040908Y-45197517D01*
X164034501Y-45257116D01*
X164034501Y-45257123D01*
X164034500Y-45257135D01*
X164034500Y-47182870D01*
X164034501Y-47182876D01*
X164040908Y-47242483D01*
X164091202Y-47377328D01*
X164091206Y-47377335D01*
X164177452Y-47492544D01*
X164177455Y-47492547D01*
X164292664Y-47578793D01*
X164292671Y-47578797D01*
X164418833Y-47625852D01*
X164474767Y-47667723D01*
X164499184Y-47733187D01*
X164499500Y-47742034D01*
X164499500Y-48055185D01*
X164479815Y-48122224D01*
X164463182Y-48142866D01*
X164305902Y-48300146D01*
X164161064Y-48499498D01*
X164049192Y-48719059D01*
X163973048Y-48953406D01*
X163973048Y-48953409D01*
X163934500Y-49196792D01*
X160271155Y-49196792D01*
X160144517Y-49022490D01*
X159977510Y-48855483D01*
X159786433Y-48716657D01*
X159575996Y-48609433D01*
X159351368Y-48536446D01*
X159118097Y-48499500D01*
X159118092Y-48499500D01*
X158881908Y-48499500D01*
X158881903Y-48499500D01*
X158648631Y-48536446D01*
X158424003Y-48609433D01*
X158213566Y-48716657D01*
X158157119Y-48757669D01*
X158022490Y-48855483D01*
X158022488Y-48855485D01*
X158022487Y-48855485D01*
X157855485Y-49022487D01*
X157855485Y-49022488D01*
X157855483Y-49022490D01*
X157830987Y-49056206D01*
X157716657Y-49213566D01*
X157609433Y-49424003D01*
X157536446Y-49648631D01*
X157499500Y-49881902D01*
X157499500Y-50034217D01*
X157479815Y-50101256D01*
X157463181Y-50121898D01*
X155816897Y-51768181D01*
X155755574Y-51801666D01*
X155729216Y-51804500D01*
X154487129Y-51804500D01*
X154487123Y-51804501D01*
X154427516Y-51810908D01*
X154292671Y-51861202D01*
X154292664Y-51861206D01*
X154177455Y-51947452D01*
X154177452Y-51947455D01*
X154091206Y-52062664D01*
X154091202Y-52062671D01*
X154040908Y-52197517D01*
X154034501Y-52257116D01*
X154034500Y-52257135D01*
X154034500Y-54182870D01*
X154034501Y-54182876D01*
X154040908Y-54242483D01*
X154091202Y-54377328D01*
X154091206Y-54377335D01*
X154177452Y-54492544D01*
X154177454Y-54492546D01*
X154292664Y-54578793D01*
X154292671Y-54578797D01*
X154418833Y-54625852D01*
X154474767Y-54667723D01*
X154499184Y-54733187D01*
X154499500Y-54742034D01*
X154499500Y-55055185D01*
X154479815Y-55122224D01*
X154463182Y-55142866D01*
X154305902Y-55300146D01*
X154161064Y-55499498D01*
X154049192Y-55719059D01*
X153973048Y-55953406D01*
X153973048Y-55953409D01*
X153934500Y-56196792D01*
X147065500Y-56196792D01*
X147026952Y-55953411D01*
X147026951Y-55953407D01*
X147026951Y-55953406D01*
X146950807Y-55719059D01*
X146890218Y-55600146D01*
X146838936Y-55499499D01*
X146694097Y-55300145D01*
X146536818Y-55142866D01*
X146503334Y-55081543D01*
X146500500Y-55055185D01*
X146500500Y-54742034D01*
X146520185Y-54674995D01*
X146572989Y-54629240D01*
X146581167Y-54625852D01*
X146707331Y-54578796D01*
X146822546Y-54492546D01*
X146908796Y-54377331D01*
X146959091Y-54242483D01*
X146965500Y-54182873D01*
X146965499Y-52500781D01*
X146985184Y-52433743D01*
X147001813Y-52413106D01*
X149667821Y-49747098D01*
X149729142Y-49713615D01*
X149798834Y-49718599D01*
X149854767Y-49760471D01*
X149879184Y-49825935D01*
X149879500Y-49834781D01*
X149879500Y-51047870D01*
X149879501Y-51047876D01*
X149885908Y-51107483D01*
X149936202Y-51242328D01*
X149936206Y-51242335D01*
X150022452Y-51357544D01*
X150022455Y-51357547D01*
X150137664Y-51443793D01*
X150137671Y-51443797D01*
X150272517Y-51494091D01*
X150272516Y-51494091D01*
X150279444Y-51494835D01*
X150332127Y-51500500D01*
X152427872Y-51500499D01*
X152487483Y-51494091D01*
X152622331Y-51443796D01*
X152737546Y-51357546D01*
X152823796Y-51242331D01*
X152874091Y-51107483D01*
X152880500Y-51047873D01*
X152880499Y-48952128D01*
X152874091Y-48892517D01*
X152861162Y-48857853D01*
X152823797Y-48757671D01*
X152823793Y-48757664D01*
X152737547Y-48642455D01*
X152737544Y-48642452D01*
X152622335Y-48556206D01*
X152622328Y-48556202D01*
X152487482Y-48505908D01*
X152487483Y-48505908D01*
X152427883Y-48499501D01*
X152427881Y-48499500D01*
X152427873Y-48499500D01*
X152427865Y-48499500D01*
X151870551Y-48499500D01*
X151803512Y-48479815D01*
X151757757Y-48427011D01*
X151747813Y-48357853D01*
X151776838Y-48294297D01*
X151797662Y-48275184D01*
X151977510Y-48144517D01*
X152144517Y-47977510D01*
X152283343Y-47786433D01*
X152390568Y-47575992D01*
X152463553Y-47351368D01*
X152480799Y-47242482D01*
X152500500Y-47118097D01*
X152500500Y-46881902D01*
X152463553Y-46648631D01*
X152417169Y-46505877D01*
X152390568Y-46424008D01*
X152390566Y-46424005D01*
X152390566Y-46424003D01*
X152305814Y-46257669D01*
X152283343Y-46213567D01*
X152144517Y-46022490D01*
X151977510Y-45855483D01*
X151786433Y-45716657D01*
X151575996Y-45609433D01*
X151351368Y-45536446D01*
X151118097Y-45499500D01*
X151118092Y-45499500D01*
X150881908Y-45499500D01*
X150881903Y-45499500D01*
X150648631Y-45536446D01*
X150424003Y-45609433D01*
X150213566Y-45716657D01*
X150157119Y-45757669D01*
X150022490Y-45855483D01*
X150022488Y-45855485D01*
X150022487Y-45855485D01*
X149855485Y-46022487D01*
X149855485Y-46022488D01*
X149855483Y-46022490D01*
X149830987Y-46056206D01*
X149716657Y-46213566D01*
X149609433Y-46424003D01*
X149536446Y-46648631D01*
X149499500Y-46881902D01*
X149499500Y-47034217D01*
X149479815Y-47101256D01*
X149463181Y-47121898D01*
X144862218Y-51722861D01*
X144816894Y-51768183D01*
X144800063Y-51777373D01*
X144755572Y-51801667D01*
X144729216Y-51804500D01*
X144487130Y-51804500D01*
X144487123Y-51804501D01*
X144427516Y-51810908D01*
X144292671Y-51861202D01*
X144292664Y-51861206D01*
X144177455Y-51947452D01*
X144177452Y-51947455D01*
X144091206Y-52062664D01*
X144091202Y-52062671D01*
X144040908Y-52197517D01*
X144034501Y-52257116D01*
X144034500Y-52257135D01*
X144034500Y-54182870D01*
X144034501Y-54182876D01*
X144040908Y-54242483D01*
X144091202Y-54377328D01*
X144091206Y-54377335D01*
X144177452Y-54492544D01*
X144177454Y-54492546D01*
X144292664Y-54578793D01*
X144292671Y-54578797D01*
X144418833Y-54625852D01*
X144474767Y-54667723D01*
X144499184Y-54733187D01*
X144499500Y-54742034D01*
X144499500Y-55055185D01*
X144479815Y-55122224D01*
X144463182Y-55142866D01*
X144305902Y-55300146D01*
X144161064Y-55499498D01*
X144049192Y-55719059D01*
X143973048Y-55953406D01*
X143973048Y-55953409D01*
X143934500Y-56196792D01*
X136500500Y-56196792D01*
X136500500Y-53872216D01*
X136520185Y-53805177D01*
X136536972Y-53784382D01*
X136539511Y-53781852D01*
X136646223Y-53675512D01*
X136790158Y-53475205D01*
X136899445Y-53254079D01*
X136971149Y-53018074D01*
X137003344Y-52773526D01*
X137005141Y-52700000D01*
X136984930Y-52454171D01*
X136924841Y-52214945D01*
X136831597Y-52000498D01*
X136826487Y-51988746D01*
X136806033Y-51957129D01*
X136692508Y-51781645D01*
X136532785Y-51606113D01*
X136502227Y-51543282D01*
X136500500Y-51522660D01*
X136500500Y-50584814D01*
X136520185Y-50517775D01*
X136536819Y-50497133D01*
X136694097Y-50339855D01*
X136838936Y-50140501D01*
X136950806Y-49920943D01*
X136981676Y-49825935D01*
X137026951Y-49686593D01*
X137026951Y-49686592D01*
X137026952Y-49686589D01*
X137065500Y-49443208D01*
X137065500Y-49196792D01*
X137026952Y-48953411D01*
X137026951Y-48953407D01*
X137026951Y-48953406D01*
X136950807Y-48719059D01*
X136912826Y-48644517D01*
X136838936Y-48499499D01*
X136694097Y-48300145D01*
X136536818Y-48142866D01*
X136503334Y-48081543D01*
X136500500Y-48055185D01*
X136500500Y-47742034D01*
X136520185Y-47674995D01*
X136572989Y-47629240D01*
X136581167Y-47625852D01*
X136707328Y-47578797D01*
X136707327Y-47578797D01*
X136707331Y-47578796D01*
X136822546Y-47492546D01*
X136908796Y-47377331D01*
X136959091Y-47242483D01*
X136965500Y-47182873D01*
X136965499Y-45952135D01*
X141879500Y-45952135D01*
X141879500Y-48047870D01*
X141879501Y-48047876D01*
X141885908Y-48107483D01*
X141936202Y-48242328D01*
X141936206Y-48242335D01*
X142022452Y-48357544D01*
X142022455Y-48357547D01*
X142137664Y-48443793D01*
X142137671Y-48443797D01*
X142272517Y-48494091D01*
X142272516Y-48494091D01*
X142279444Y-48494835D01*
X142332127Y-48500500D01*
X144427872Y-48500499D01*
X144487483Y-48494091D01*
X144622331Y-48443796D01*
X144737546Y-48357546D01*
X144823796Y-48242331D01*
X144874091Y-48107483D01*
X144880500Y-48047873D01*
X144880499Y-45952128D01*
X144874091Y-45892517D01*
X144860278Y-45855483D01*
X144823797Y-45757671D01*
X144823793Y-45757664D01*
X144737547Y-45642455D01*
X144737544Y-45642452D01*
X144622335Y-45556206D01*
X144622328Y-45556202D01*
X144487482Y-45505908D01*
X144487483Y-45505908D01*
X144427883Y-45499501D01*
X144427881Y-45499500D01*
X144427873Y-45499500D01*
X144427864Y-45499500D01*
X142332129Y-45499500D01*
X142332123Y-45499501D01*
X142272516Y-45505908D01*
X142137671Y-45556202D01*
X142137664Y-45556206D01*
X142022455Y-45642452D01*
X142022452Y-45642455D01*
X141936206Y-45757664D01*
X141936202Y-45757671D01*
X141885908Y-45892517D01*
X141879501Y-45952116D01*
X141879501Y-45952123D01*
X141879500Y-45952135D01*
X136965499Y-45952135D01*
X136965499Y-45257128D01*
X136959091Y-45197517D01*
X136908796Y-45062669D01*
X136908795Y-45062668D01*
X136908793Y-45062664D01*
X136822547Y-44947455D01*
X136822544Y-44947452D01*
X136707335Y-44861206D01*
X136707328Y-44861202D01*
X136572482Y-44810908D01*
X136572483Y-44810908D01*
X136512883Y-44804501D01*
X136512881Y-44804500D01*
X136512873Y-44804500D01*
X136512865Y-44804500D01*
X135550782Y-44804500D01*
X135483743Y-44784815D01*
X135463101Y-44768181D01*
X133561479Y-42866559D01*
X133561459Y-42866537D01*
X133417785Y-42722863D01*
X133417781Y-42722860D01*
X133253920Y-42613371D01*
X133253911Y-42613366D01*
X133181315Y-42583296D01*
X133125165Y-42560038D01*
X133071836Y-42537949D01*
X133071832Y-42537948D01*
X133071828Y-42537946D01*
X132975188Y-42518724D01*
X132878544Y-42499500D01*
X132878541Y-42499500D01*
X67878541Y-42499500D01*
X63094782Y-42499500D01*
X63027743Y-42479815D01*
X62981988Y-42427011D01*
X62972044Y-42357853D01*
X63001069Y-42294297D01*
X63007101Y-42287819D01*
X70908102Y-34386818D01*
X70969425Y-34353333D01*
X70995783Y-34350499D01*
X71777871Y-34350499D01*
X71777872Y-34350499D01*
X71837483Y-34344091D01*
X71972331Y-34293796D01*
X72087546Y-34207546D01*
X72173796Y-34092331D01*
X72222810Y-33960916D01*
X72264681Y-33904984D01*
X72330145Y-33880566D01*
X72398418Y-33895417D01*
X72426673Y-33916569D01*
X72540213Y-34030109D01*
X72712179Y-34155048D01*
X72712181Y-34155049D01*
X72712184Y-34155051D01*
X72901588Y-34251557D01*
X73103757Y-34317246D01*
X73313713Y-34350500D01*
X73313714Y-34350500D01*
X73526286Y-34350500D01*
X73526287Y-34350500D01*
X73736243Y-34317246D01*
X73938412Y-34251557D01*
X74127816Y-34155051D01*
X74214138Y-34092335D01*
X74299786Y-34030109D01*
X74299788Y-34030106D01*
X74299792Y-34030104D01*
X74450104Y-33879792D01*
X74450106Y-33879788D01*
X74450109Y-33879786D01*
X74575048Y-33707820D01*
X74575047Y-33707820D01*
X74575051Y-33707816D01*
X74579514Y-33699054D01*
X74627488Y-33648259D01*
X74695308Y-33631463D01*
X74761444Y-33653999D01*
X74800486Y-33699056D01*
X74804951Y-33707820D01*
X74929890Y-33879786D01*
X75080213Y-34030109D01*
X75252179Y-34155048D01*
X75252181Y-34155049D01*
X75252184Y-34155051D01*
X75441588Y-34251557D01*
X75643757Y-34317246D01*
X75853713Y-34350500D01*
X75853714Y-34350500D01*
X76066286Y-34350500D01*
X76066287Y-34350500D01*
X76276243Y-34317246D01*
X76478412Y-34251557D01*
X76667816Y-34155051D01*
X76754138Y-34092335D01*
X76839786Y-34030109D01*
X76839788Y-34030106D01*
X76839792Y-34030104D01*
X76990104Y-33879792D01*
X76990106Y-33879788D01*
X76990109Y-33879786D01*
X77115048Y-33707820D01*
X77115047Y-33707820D01*
X77115051Y-33707816D01*
X77119514Y-33699054D01*
X77167488Y-33648259D01*
X77235308Y-33631463D01*
X77301444Y-33653999D01*
X77340486Y-33699056D01*
X77344951Y-33707820D01*
X77469890Y-33879786D01*
X77620213Y-34030109D01*
X77792179Y-34155048D01*
X77792181Y-34155049D01*
X77792184Y-34155051D01*
X77981588Y-34251557D01*
X78183757Y-34317246D01*
X78393713Y-34350500D01*
X78393714Y-34350500D01*
X78606286Y-34350500D01*
X78606287Y-34350500D01*
X78816243Y-34317246D01*
X79018412Y-34251557D01*
X79207816Y-34155051D01*
X79294138Y-34092335D01*
X79379786Y-34030109D01*
X79379788Y-34030106D01*
X79379792Y-34030104D01*
X79530104Y-33879792D01*
X79530106Y-33879788D01*
X79530109Y-33879786D01*
X79655048Y-33707820D01*
X79655047Y-33707820D01*
X79655051Y-33707816D01*
X79659514Y-33699054D01*
X79707488Y-33648259D01*
X79775308Y-33631463D01*
X79841444Y-33653999D01*
X79880486Y-33699056D01*
X79884951Y-33707820D01*
X80009890Y-33879786D01*
X80160213Y-34030109D01*
X80332179Y-34155048D01*
X80332181Y-34155049D01*
X80332184Y-34155051D01*
X80521588Y-34251557D01*
X80723757Y-34317246D01*
X80933713Y-34350500D01*
X80933714Y-34350500D01*
X81146286Y-34350500D01*
X81146287Y-34350500D01*
X81356243Y-34317246D01*
X81558412Y-34251557D01*
X81747816Y-34155051D01*
X81834138Y-34092335D01*
X81919786Y-34030109D01*
X81919788Y-34030106D01*
X81919792Y-34030104D01*
X82070104Y-33879792D01*
X82070106Y-33879788D01*
X82070109Y-33879786D01*
X82195048Y-33707820D01*
X82195047Y-33707820D01*
X82195051Y-33707816D01*
X82199514Y-33699054D01*
X82247488Y-33648259D01*
X82315308Y-33631463D01*
X82381444Y-33653999D01*
X82420486Y-33699056D01*
X82424951Y-33707820D01*
X82549890Y-33879786D01*
X82700213Y-34030109D01*
X82872179Y-34155048D01*
X82872181Y-34155049D01*
X82872184Y-34155051D01*
X83061588Y-34251557D01*
X83263757Y-34317246D01*
X83473713Y-34350500D01*
X83473714Y-34350500D01*
X83686286Y-34350500D01*
X83686287Y-34350500D01*
X83896243Y-34317246D01*
X84098412Y-34251557D01*
X84287816Y-34155051D01*
X84374138Y-34092335D01*
X84459786Y-34030109D01*
X84459788Y-34030106D01*
X84459792Y-34030104D01*
X84610104Y-33879792D01*
X84610106Y-33879788D01*
X84610109Y-33879786D01*
X84735048Y-33707820D01*
X84735047Y-33707820D01*
X84735051Y-33707816D01*
X84739514Y-33699054D01*
X84787488Y-33648259D01*
X84855308Y-33631463D01*
X84921444Y-33653999D01*
X84960486Y-33699056D01*
X84964951Y-33707820D01*
X85089890Y-33879786D01*
X85240213Y-34030109D01*
X85412179Y-34155048D01*
X85412181Y-34155049D01*
X85412184Y-34155051D01*
X85601588Y-34251557D01*
X85803757Y-34317246D01*
X86013713Y-34350500D01*
X86013714Y-34350500D01*
X86226286Y-34350500D01*
X86226287Y-34350500D01*
X86436243Y-34317246D01*
X86638412Y-34251557D01*
X86827816Y-34155051D01*
X86914138Y-34092335D01*
X86999786Y-34030109D01*
X86999788Y-34030106D01*
X86999792Y-34030104D01*
X87150104Y-33879792D01*
X87150106Y-33879788D01*
X87150109Y-33879786D01*
X87275048Y-33707820D01*
X87275047Y-33707820D01*
X87275051Y-33707816D01*
X87279514Y-33699054D01*
X87327488Y-33648259D01*
X87395308Y-33631463D01*
X87461444Y-33653999D01*
X87500486Y-33699056D01*
X87504951Y-33707820D01*
X87629890Y-33879786D01*
X87780213Y-34030109D01*
X87952179Y-34155048D01*
X87952181Y-34155049D01*
X87952184Y-34155051D01*
X88141588Y-34251557D01*
X88343757Y-34317246D01*
X88553713Y-34350500D01*
X88553714Y-34350500D01*
X88766286Y-34350500D01*
X88766287Y-34350500D01*
X88976243Y-34317246D01*
X89178412Y-34251557D01*
X89367816Y-34155051D01*
X89454138Y-34092335D01*
X89539786Y-34030109D01*
X89539788Y-34030106D01*
X89539792Y-34030104D01*
X89690104Y-33879792D01*
X89690106Y-33879788D01*
X89690109Y-33879786D01*
X89815048Y-33707820D01*
X89815047Y-33707820D01*
X89815051Y-33707816D01*
X89819514Y-33699054D01*
X89867488Y-33648259D01*
X89935308Y-33631463D01*
X90001444Y-33653999D01*
X90040486Y-33699056D01*
X90044951Y-33707820D01*
X90169890Y-33879786D01*
X90320213Y-34030109D01*
X90492179Y-34155048D01*
X90492181Y-34155049D01*
X90492184Y-34155051D01*
X90681588Y-34251557D01*
X90883757Y-34317246D01*
X91093713Y-34350500D01*
X91093714Y-34350500D01*
X91306286Y-34350500D01*
X91306287Y-34350500D01*
X91516243Y-34317246D01*
X91718412Y-34251557D01*
X91907816Y-34155051D01*
X91994138Y-34092335D01*
X92079786Y-34030109D01*
X92079788Y-34030106D01*
X92079792Y-34030104D01*
X92230104Y-33879792D01*
X92230106Y-33879788D01*
X92230109Y-33879786D01*
X92355048Y-33707820D01*
X92355047Y-33707820D01*
X92355051Y-33707816D01*
X92359514Y-33699054D01*
X92407488Y-33648259D01*
X92475308Y-33631463D01*
X92541444Y-33653999D01*
X92580486Y-33699056D01*
X92584951Y-33707820D01*
X92709890Y-33879786D01*
X92860213Y-34030109D01*
X93032179Y-34155048D01*
X93032181Y-34155049D01*
X93032184Y-34155051D01*
X93221588Y-34251557D01*
X93423757Y-34317246D01*
X93633713Y-34350500D01*
X93633714Y-34350500D01*
X93846286Y-34350500D01*
X93846287Y-34350500D01*
X94056243Y-34317246D01*
X94258412Y-34251557D01*
X94447816Y-34155051D01*
X94534138Y-34092335D01*
X94619786Y-34030109D01*
X94619788Y-34030106D01*
X94619792Y-34030104D01*
X94770104Y-33879792D01*
X94770106Y-33879788D01*
X94770109Y-33879786D01*
X94895048Y-33707820D01*
X94895047Y-33707820D01*
X94895051Y-33707816D01*
X94899514Y-33699054D01*
X94947488Y-33648259D01*
X95015308Y-33631463D01*
X95081444Y-33653999D01*
X95120486Y-33699056D01*
X95124951Y-33707820D01*
X95249890Y-33879786D01*
X95400213Y-34030109D01*
X95572179Y-34155048D01*
X95572181Y-34155049D01*
X95572184Y-34155051D01*
X95761588Y-34251557D01*
X95963757Y-34317246D01*
X96173713Y-34350500D01*
X96173714Y-34350500D01*
X96386286Y-34350500D01*
X96386287Y-34350500D01*
X96596243Y-34317246D01*
X96798412Y-34251557D01*
X96987816Y-34155051D01*
X97074138Y-34092335D01*
X97159786Y-34030109D01*
X97159788Y-34030106D01*
X97159792Y-34030104D01*
X97310104Y-33879792D01*
X97310106Y-33879788D01*
X97310109Y-33879786D01*
X97435048Y-33707820D01*
X97435047Y-33707820D01*
X97435051Y-33707816D01*
X97439514Y-33699054D01*
X97487488Y-33648259D01*
X97555308Y-33631463D01*
X97621444Y-33653999D01*
X97660486Y-33699056D01*
X97664951Y-33707820D01*
X97789890Y-33879786D01*
X97940213Y-34030109D01*
X98112179Y-34155048D01*
X98112181Y-34155049D01*
X98112184Y-34155051D01*
X98301588Y-34251557D01*
X98503757Y-34317246D01*
X98713713Y-34350500D01*
X98713714Y-34350500D01*
X98926286Y-34350500D01*
X98926287Y-34350500D01*
X99136243Y-34317246D01*
X99338412Y-34251557D01*
X99527816Y-34155051D01*
X99614138Y-34092335D01*
X99699786Y-34030109D01*
X99699788Y-34030106D01*
X99699792Y-34030104D01*
X99850104Y-33879792D01*
X99850106Y-33879788D01*
X99850109Y-33879786D01*
X99975048Y-33707820D01*
X99975047Y-33707820D01*
X99975051Y-33707816D01*
X100071557Y-33518412D01*
X100137246Y-33316243D01*
X100170500Y-33106287D01*
X100170500Y-32893713D01*
X100137246Y-32683757D01*
X100071557Y-32481588D01*
X99975051Y-32292184D01*
X99975049Y-32292181D01*
X99975048Y-32292179D01*
X99847241Y-32116266D01*
X99848108Y-32115635D01*
X99821641Y-32056581D01*
X99820500Y-32039800D01*
X99820500Y-31420199D01*
X99840185Y-31353160D01*
X99849471Y-31340664D01*
X99975048Y-31167820D01*
X99975047Y-31167820D01*
X99975051Y-31167816D01*
X100071557Y-30978412D01*
X100137246Y-30776243D01*
X100170500Y-30566287D01*
X100170500Y-30353713D01*
X100137246Y-30143757D01*
X100071557Y-29941588D01*
X99975051Y-29752184D01*
X99975049Y-29752181D01*
X99975048Y-29752179D01*
X99850109Y-29580213D01*
X99699786Y-29429890D01*
X99527820Y-29304951D01*
X99338414Y-29208444D01*
X99338413Y-29208443D01*
X99338412Y-29208443D01*
X99136243Y-29142754D01*
X99136241Y-29142753D01*
X99136240Y-29142753D01*
X98974957Y-29117208D01*
X98926287Y-29109500D01*
X98713713Y-29109500D01*
X98665042Y-29117208D01*
X98503760Y-29142753D01*
X98301585Y-29208444D01*
X98112179Y-29304951D01*
X97940213Y-29429890D01*
X97789890Y-29580213D01*
X97664949Y-29752182D01*
X97660484Y-29760946D01*
X97612509Y-29811742D01*
X97544688Y-29828536D01*
X97478553Y-29805998D01*
X97439516Y-29760946D01*
X97435050Y-29752182D01*
X97310109Y-29580213D01*
X97159786Y-29429890D01*
X96987820Y-29304951D01*
X96798414Y-29208444D01*
X96798413Y-29208443D01*
X96798412Y-29208443D01*
X96596243Y-29142754D01*
X96596241Y-29142753D01*
X96596240Y-29142753D01*
X96434957Y-29117208D01*
X96386287Y-29109500D01*
X96173713Y-29109500D01*
X96125042Y-29117208D01*
X95963760Y-29142753D01*
X95761585Y-29208444D01*
X95572179Y-29304951D01*
X95400213Y-29429890D01*
X95249890Y-29580213D01*
X95124949Y-29752182D01*
X95120484Y-29760946D01*
X95072509Y-29811742D01*
X95004688Y-29828536D01*
X94938553Y-29805998D01*
X94899516Y-29760946D01*
X94895050Y-29752182D01*
X94770109Y-29580213D01*
X94619786Y-29429890D01*
X94447820Y-29304951D01*
X94258414Y-29208444D01*
X94258413Y-29208443D01*
X94258412Y-29208443D01*
X94056243Y-29142754D01*
X94056241Y-29142753D01*
X94056240Y-29142753D01*
X93894957Y-29117208D01*
X93846287Y-29109500D01*
X93633713Y-29109500D01*
X93585042Y-29117208D01*
X93423760Y-29142753D01*
X93221585Y-29208444D01*
X93032179Y-29304951D01*
X92860213Y-29429890D01*
X92709890Y-29580213D01*
X92584949Y-29752182D01*
X92580484Y-29760946D01*
X92532509Y-29811742D01*
X92464688Y-29828536D01*
X92398553Y-29805998D01*
X92359516Y-29760946D01*
X92355050Y-29752182D01*
X92230109Y-29580213D01*
X92079786Y-29429890D01*
X91907820Y-29304951D01*
X91718414Y-29208444D01*
X91718413Y-29208443D01*
X91718412Y-29208443D01*
X91516243Y-29142754D01*
X91516241Y-29142753D01*
X91516240Y-29142753D01*
X91354957Y-29117208D01*
X91306287Y-29109500D01*
X91093713Y-29109500D01*
X91045042Y-29117208D01*
X90883760Y-29142753D01*
X90681585Y-29208444D01*
X90492179Y-29304951D01*
X90320213Y-29429890D01*
X90169890Y-29580213D01*
X90044949Y-29752182D01*
X90040484Y-29760946D01*
X89992509Y-29811742D01*
X89924688Y-29828536D01*
X89858553Y-29805998D01*
X89819516Y-29760946D01*
X89815050Y-29752182D01*
X89690109Y-29580213D01*
X89539786Y-29429890D01*
X89367820Y-29304951D01*
X89178414Y-29208444D01*
X89178413Y-29208443D01*
X89178412Y-29208443D01*
X88976243Y-29142754D01*
X88976241Y-29142753D01*
X88976240Y-29142753D01*
X88814957Y-29117208D01*
X88766287Y-29109500D01*
X88553713Y-29109500D01*
X88505042Y-29117208D01*
X88343760Y-29142753D01*
X88141585Y-29208444D01*
X87952179Y-29304951D01*
X87780213Y-29429890D01*
X87629890Y-29580213D01*
X87504949Y-29752182D01*
X87500484Y-29760946D01*
X87452509Y-29811742D01*
X87384688Y-29828536D01*
X87318553Y-29805998D01*
X87279516Y-29760946D01*
X87275050Y-29752182D01*
X87150109Y-29580213D01*
X86999786Y-29429890D01*
X86827820Y-29304951D01*
X86638414Y-29208444D01*
X86638413Y-29208443D01*
X86638412Y-29208443D01*
X86436243Y-29142754D01*
X86436241Y-29142753D01*
X86436240Y-29142753D01*
X86274957Y-29117208D01*
X86226287Y-29109500D01*
X86013713Y-29109500D01*
X85965042Y-29117208D01*
X85803760Y-29142753D01*
X85601585Y-29208444D01*
X85412179Y-29304951D01*
X85240213Y-29429890D01*
X85089890Y-29580213D01*
X84964949Y-29752182D01*
X84960484Y-29760946D01*
X84912509Y-29811742D01*
X84844688Y-29828536D01*
X84778553Y-29805998D01*
X84739516Y-29760946D01*
X84735050Y-29752182D01*
X84610109Y-29580213D01*
X84459786Y-29429890D01*
X84287820Y-29304951D01*
X84098414Y-29208444D01*
X84098413Y-29208443D01*
X84098412Y-29208443D01*
X83896243Y-29142754D01*
X83896241Y-29142753D01*
X83896240Y-29142753D01*
X83734957Y-29117208D01*
X83686287Y-29109500D01*
X83473713Y-29109500D01*
X83425042Y-29117208D01*
X83263760Y-29142753D01*
X83061585Y-29208444D01*
X82872179Y-29304951D01*
X82700213Y-29429890D01*
X82549890Y-29580213D01*
X82424949Y-29752182D01*
X82420484Y-29760946D01*
X82372509Y-29811742D01*
X82304688Y-29828536D01*
X82238553Y-29805998D01*
X82199516Y-29760946D01*
X82195050Y-29752182D01*
X82070109Y-29580213D01*
X81919786Y-29429890D01*
X81747820Y-29304951D01*
X81558414Y-29208444D01*
X81558413Y-29208443D01*
X81558412Y-29208443D01*
X81356243Y-29142754D01*
X81356241Y-29142753D01*
X81356240Y-29142753D01*
X81194957Y-29117208D01*
X81146287Y-29109500D01*
X80933713Y-29109500D01*
X80885042Y-29117208D01*
X80723760Y-29142753D01*
X80521585Y-29208444D01*
X80332179Y-29304951D01*
X80160213Y-29429890D01*
X80009890Y-29580213D01*
X79884949Y-29752182D01*
X79880484Y-29760946D01*
X79832509Y-29811742D01*
X79764688Y-29828536D01*
X79698553Y-29805998D01*
X79659516Y-29760946D01*
X79655050Y-29752182D01*
X79530109Y-29580213D01*
X79379786Y-29429890D01*
X79207820Y-29304951D01*
X79018414Y-29208444D01*
X79018413Y-29208443D01*
X79018412Y-29208443D01*
X78816243Y-29142754D01*
X78816241Y-29142753D01*
X78816240Y-29142753D01*
X78654957Y-29117208D01*
X78606287Y-29109500D01*
X78393713Y-29109500D01*
X78345042Y-29117208D01*
X78183760Y-29142753D01*
X77981585Y-29208444D01*
X77792179Y-29304951D01*
X77620213Y-29429890D01*
X77469890Y-29580213D01*
X77344949Y-29752182D01*
X77340484Y-29760946D01*
X77292509Y-29811742D01*
X77224688Y-29828536D01*
X77158553Y-29805998D01*
X77119516Y-29760946D01*
X77115050Y-29752182D01*
X76990109Y-29580213D01*
X76839786Y-29429890D01*
X76667820Y-29304951D01*
X76478414Y-29208444D01*
X76478413Y-29208443D01*
X76478412Y-29208443D01*
X76276243Y-29142754D01*
X76276241Y-29142753D01*
X76276240Y-29142753D01*
X76114957Y-29117208D01*
X76066287Y-29109500D01*
X75853713Y-29109500D01*
X75805042Y-29117208D01*
X75643760Y-29142753D01*
X75441585Y-29208444D01*
X75252179Y-29304951D01*
X75080213Y-29429890D01*
X74929890Y-29580213D01*
X74804949Y-29752182D01*
X74800484Y-29760946D01*
X74752509Y-29811742D01*
X74684688Y-29828536D01*
X74618553Y-29805998D01*
X74579516Y-29760946D01*
X74575050Y-29752182D01*
X74450109Y-29580213D01*
X74299786Y-29429890D01*
X74127820Y-29304951D01*
X73938414Y-29208444D01*
X73938413Y-29208443D01*
X73938412Y-29208443D01*
X73736243Y-29142754D01*
X73736241Y-29142753D01*
X73736240Y-29142753D01*
X73574957Y-29117208D01*
X73526287Y-29109500D01*
X73313713Y-29109500D01*
X73265042Y-29117208D01*
X73103760Y-29142753D01*
X72901585Y-29208444D01*
X72712179Y-29304951D01*
X72540213Y-29429890D01*
X72389890Y-29580213D01*
X72264949Y-29752182D01*
X72260484Y-29760946D01*
X72212509Y-29811742D01*
X72144688Y-29828536D01*
X72078553Y-29805998D01*
X72039516Y-29760946D01*
X72035050Y-29752182D01*
X71910109Y-29580213D01*
X71759786Y-29429890D01*
X71587820Y-29304951D01*
X71398414Y-29208444D01*
X71398413Y-29208443D01*
X71398412Y-29208443D01*
X71196243Y-29142754D01*
X71196241Y-29142753D01*
X71196240Y-29142753D01*
X71034957Y-29117208D01*
X70986287Y-29109500D01*
X70773713Y-29109500D01*
X70725042Y-29117208D01*
X70563760Y-29142753D01*
X70361585Y-29208444D01*
X70172179Y-29304951D01*
X70000213Y-29429890D01*
X69849890Y-29580213D01*
X69724951Y-29752179D01*
X69628444Y-29941585D01*
X69562753Y-30143760D01*
X69529500Y-30353713D01*
X69529500Y-30566286D01*
X69562753Y-30776239D01*
X69628444Y-30978414D01*
X69724951Y-31167820D01*
X69852759Y-31343734D01*
X69851888Y-31344366D01*
X69860413Y-31363380D01*
X69874477Y-31385264D01*
X69876484Y-31399223D01*
X69878357Y-31403401D01*
X69879500Y-31420199D01*
X69879500Y-31585858D01*
X69859815Y-31652897D01*
X69807011Y-31698652D01*
X69798847Y-31702034D01*
X69787669Y-31706204D01*
X69787664Y-31706206D01*
X69672455Y-31792452D01*
X69672452Y-31792455D01*
X69586206Y-31907664D01*
X69586202Y-31907671D01*
X69535908Y-32042517D01*
X69529501Y-32102116D01*
X69529500Y-32102135D01*
X69529500Y-32884216D01*
X69509815Y-32951255D01*
X69493181Y-32971897D01*
X60001899Y-42463181D01*
X59940576Y-42496666D01*
X59914218Y-42499500D01*
X26604675Y-42499500D01*
X26604655Y-42499499D01*
X26598541Y-42499499D01*
X26401460Y-42499499D01*
X26401457Y-42499499D01*
X26208172Y-42537946D01*
X26208164Y-42537948D01*
X26026088Y-42613366D01*
X26026079Y-42613371D01*
X25862219Y-42722859D01*
X25862215Y-42722862D01*
X24862220Y-43722859D01*
X24862218Y-43722861D01*
X24792538Y-43792540D01*
X24722859Y-43862219D01*
X24613371Y-44026079D01*
X24613364Y-44026092D01*
X24537950Y-44208160D01*
X24537947Y-44208170D01*
X24499500Y-44401456D01*
X24499500Y-44697965D01*
X24479815Y-44765004D01*
X24427011Y-44810759D01*
X24418833Y-44814147D01*
X24292671Y-44861202D01*
X24292664Y-44861206D01*
X24177455Y-44947452D01*
X24177452Y-44947455D01*
X24091206Y-45062664D01*
X24091202Y-45062671D01*
X24040908Y-45197517D01*
X24034501Y-45257116D01*
X24034501Y-45257123D01*
X24034500Y-45257135D01*
X24034500Y-47182870D01*
X24034501Y-47182876D01*
X24040908Y-47242483D01*
X24091202Y-47377328D01*
X24091206Y-47377335D01*
X24177452Y-47492544D01*
X24177455Y-47492547D01*
X24292664Y-47578793D01*
X24292671Y-47578797D01*
X24418833Y-47625852D01*
X24474767Y-47667723D01*
X24499184Y-47733187D01*
X24499500Y-47742034D01*
X24499500Y-48055185D01*
X24479815Y-48122224D01*
X24463182Y-48142866D01*
X24305902Y-48300146D01*
X24161064Y-48499498D01*
X24049192Y-48719059D01*
X23973048Y-48953406D01*
X23973048Y-48953409D01*
X23934500Y-49196792D01*
X23934500Y-49443207D01*
X23973048Y-49686590D01*
X23973048Y-49686593D01*
X24049192Y-49920940D01*
X24102764Y-50026080D01*
X24161064Y-50140501D01*
X24305903Y-50339855D01*
X24305905Y-50339857D01*
X24463181Y-50497133D01*
X24496666Y-50558456D01*
X24499500Y-50584814D01*
X24499500Y-51525988D01*
X24479815Y-51593027D01*
X24465148Y-51611657D01*
X24330289Y-51752779D01*
X24330279Y-51752792D01*
X24191287Y-51956547D01*
X24191285Y-51956552D01*
X24087439Y-52180268D01*
X24087436Y-52180276D01*
X24021520Y-52417960D01*
X24021519Y-52417967D01*
X23995307Y-52663225D01*
X24009507Y-52909474D01*
X24009507Y-52909479D01*
X24063731Y-53150092D01*
X24156533Y-53378636D01*
X24285412Y-53588947D01*
X24421969Y-53746591D01*
X24446908Y-53775382D01*
X24454702Y-53781853D01*
X24493711Y-53839818D01*
X24499500Y-53877262D01*
X24499500Y-56355185D01*
X24479815Y-56422224D01*
X24463182Y-56442866D01*
X24305902Y-56600146D01*
X24161064Y-56799498D01*
X24049192Y-57019059D01*
X23973048Y-57253406D01*
X23973048Y-57253409D01*
X23934500Y-57496792D01*
X23934500Y-57743207D01*
X23973048Y-57986590D01*
X23973048Y-57986593D01*
X24049192Y-58220940D01*
X24095415Y-58311657D01*
X24161064Y-58440501D01*
X24305903Y-58639855D01*
X24480145Y-58814097D01*
X24679499Y-58958936D01*
X24897505Y-59070015D01*
X24948301Y-59117989D01*
X24965096Y-59185810D01*
X24942559Y-59251945D01*
X24887844Y-59295397D01*
X24841210Y-59304500D01*
X24487129Y-59304500D01*
X24487123Y-59304501D01*
X24427516Y-59310908D01*
X24292671Y-59361202D01*
X24292664Y-59361206D01*
X24177455Y-59447452D01*
X24177452Y-59447455D01*
X24091206Y-59562664D01*
X24091202Y-59562671D01*
X24040908Y-59697517D01*
X24034818Y-59754168D01*
X24034501Y-59757123D01*
X24034500Y-59757135D01*
X24034500Y-61682870D01*
X24034501Y-61682876D01*
X24040908Y-61742483D01*
X24091202Y-61877328D01*
X24091206Y-61877335D01*
X24177452Y-61992544D01*
X24177455Y-61992547D01*
X24292664Y-62078793D01*
X24292671Y-62078797D01*
X24418833Y-62125852D01*
X24474767Y-62167723D01*
X24499184Y-62233187D01*
X24499500Y-62242034D01*
X24499500Y-62555185D01*
X24479815Y-62622224D01*
X24463182Y-62642866D01*
X24305902Y-62800146D01*
X24161064Y-62999498D01*
X24049192Y-63219059D01*
X23973048Y-63453406D01*
X23973048Y-63453409D01*
X23934500Y-63696792D01*
X23934500Y-63943207D01*
X23973048Y-64186590D01*
X23973048Y-64186593D01*
X24049192Y-64420940D01*
X24159678Y-64637781D01*
X24161064Y-64640501D01*
X24305903Y-64839855D01*
X24305905Y-64839857D01*
X24463181Y-64997133D01*
X24496666Y-65058456D01*
X24499500Y-65084814D01*
X24499500Y-66025988D01*
X24479815Y-66093027D01*
X24465148Y-66111657D01*
X24330289Y-66252779D01*
X24330279Y-66252792D01*
X24191287Y-66456547D01*
X24191285Y-66456552D01*
X24087439Y-66680268D01*
X24087436Y-66680276D01*
X24021520Y-66917960D01*
X24021519Y-66917967D01*
X23995307Y-67163225D01*
X24009507Y-67409474D01*
X24009507Y-67409479D01*
X24063731Y-67650092D01*
X24063734Y-67650099D01*
X24153586Y-67871380D01*
X24156533Y-67878636D01*
X24285412Y-68088947D01*
X24360398Y-68175512D01*
X24446908Y-68275382D01*
X24454702Y-68281853D01*
X24493711Y-68339818D01*
X24499500Y-68377262D01*
X24499500Y-70855185D01*
X24479815Y-70922224D01*
X24463182Y-70942866D01*
X24305902Y-71100146D01*
X24161064Y-71299498D01*
X24049192Y-71519059D01*
X23973048Y-71753406D01*
X23973048Y-71753409D01*
X23973048Y-71753411D01*
X23934500Y-71996792D01*
X23934500Y-72243208D01*
X23941318Y-72286256D01*
X23973048Y-72486590D01*
X23973048Y-72486593D01*
X24049192Y-72720940D01*
X24049194Y-72720943D01*
X24161064Y-72940501D01*
X24305903Y-73139855D01*
X24305905Y-73139857D01*
X24480148Y-73314100D01*
X24547730Y-73363200D01*
X24589407Y-73416067D01*
X24613364Y-73473908D01*
X24613371Y-73473920D01*
X24722860Y-73637781D01*
X24722863Y-73637785D01*
X24866537Y-73781459D01*
X24866559Y-73781479D01*
X26722858Y-75637778D01*
X26722861Y-75637782D01*
X26862218Y-75777139D01*
X26866195Y-75779796D01*
X26873892Y-75787424D01*
X26888077Y-75813125D01*
X26904608Y-75837395D01*
X26904767Y-75843365D01*
X26907654Y-75848595D01*
X26905691Y-75877889D01*
X26906477Y-75907239D01*
X26903383Y-75912348D01*
X26902984Y-75918308D01*
X26885497Y-75941888D01*
X26870289Y-75967007D01*
X26864923Y-75969633D01*
X26861366Y-75974430D01*
X26833905Y-75984814D01*
X26807532Y-75997722D01*
X26797521Y-75998572D01*
X26796013Y-75999143D01*
X26794528Y-75998826D01*
X26786608Y-75999500D01*
X22550862Y-75999500D01*
X22483823Y-75979815D01*
X22463181Y-75963181D01*
X20536819Y-74036819D01*
X20503334Y-73975496D01*
X20500500Y-73949138D01*
X20500500Y-30550862D01*
X20520185Y-30483823D01*
X20536819Y-30463181D01*
X22463181Y-28536819D01*
X22524504Y-28503334D01*
X22550862Y-28500500D01*
X168449138Y-28500500D01*
X168516177Y-28520185D01*
G37*
%TD.AperFunction*%
M02*
