%TF.GenerationSoftware,KiCad,Pcbnew,9.0.1*%
%TF.CreationDate,2025-10-08T12:17:04+01:00*%
%TF.ProjectId,WEASEL_KiCad_virtualModMatrix,57454153-454c-45f4-9b69-4361645f7669,rev?*%
%TF.SameCoordinates,Original*%
%TF.FileFunction,Soldermask,Bot*%
%TF.FilePolarity,Negative*%
%FSLAX46Y46*%
G04 Gerber Fmt 4.6, Leading zero omitted, Abs format (unit mm)*
G04 Created by KiCad (PCBNEW 9.0.1) date 2025-10-08 12:17:04*
%MOMM*%
%LPD*%
G01*
G04 APERTURE LIST*
%ADD10C,2.130000*%
%ADD11R,1.930000X1.830000*%
%ADD12R,1.700000X1.700000*%
%ADD13C,1.700000*%
%ADD14R,2.000000X2.000000*%
%ADD15O,2.000000X2.000000*%
G04 APERTURE END LIST*
D10*
%TO.C,J15*%
X135500000Y-49320000D03*
X135500000Y-57620000D03*
D11*
X135500000Y-46220000D03*
%TD*%
%TO.C,J24*%
X165500000Y-60720000D03*
D10*
X165500000Y-72120000D03*
X165500000Y-63820000D03*
%TD*%
D11*
%TO.C,J23*%
X120500000Y-60720000D03*
D10*
X120500000Y-72120000D03*
X120500000Y-63820000D03*
%TD*%
D11*
%TO.C,J22*%
X55500000Y-60720000D03*
D10*
X55500000Y-72120000D03*
X55500000Y-63820000D03*
%TD*%
D11*
%TO.C,J21*%
X165500000Y-46220000D03*
D10*
X165500000Y-57620000D03*
X165500000Y-49320000D03*
%TD*%
D11*
%TO.C,J20*%
X120500000Y-46220000D03*
D10*
X120500000Y-57620000D03*
X120500000Y-49320000D03*
%TD*%
D11*
%TO.C,J19*%
X55500000Y-46220000D03*
D10*
X55500000Y-57620000D03*
X55500000Y-49320000D03*
%TD*%
D11*
%TO.C,J18*%
X135500000Y-60720000D03*
D10*
X135500000Y-72120000D03*
X135500000Y-63820000D03*
%TD*%
D11*
%TO.C,J17*%
X70500000Y-60720000D03*
D10*
X70500000Y-72120000D03*
X70500000Y-63820000D03*
%TD*%
D11*
%TO.C,J16*%
X25500000Y-60720000D03*
D10*
X25500000Y-72120000D03*
X25500000Y-63820000D03*
%TD*%
D11*
%TO.C,J14*%
X70500000Y-46220000D03*
D10*
X70500000Y-57620000D03*
X70500000Y-49320000D03*
%TD*%
D11*
%TO.C,J10*%
X155500000Y-53220000D03*
D10*
X155500000Y-64620000D03*
X155500000Y-56320000D03*
%TD*%
D11*
%TO.C,J9*%
X145500000Y-53220000D03*
D10*
X145500000Y-64620000D03*
X145500000Y-56320000D03*
%TD*%
D11*
%TO.C,J8*%
X110500000Y-53520000D03*
D10*
X110500000Y-64920000D03*
X110500000Y-56620000D03*
%TD*%
D11*
%TO.C,J7*%
X100500000Y-53520000D03*
D10*
X100500000Y-64920000D03*
X100500000Y-56620000D03*
%TD*%
D11*
%TO.C,J6*%
X90500000Y-53520000D03*
D10*
X90500000Y-64920000D03*
X90500000Y-56620000D03*
%TD*%
D11*
%TO.C,J5*%
X80500000Y-53520000D03*
D10*
X80500000Y-64920000D03*
X80500000Y-56620000D03*
%TD*%
D11*
%TO.C,J4*%
X40500000Y-52920000D03*
D10*
X40500000Y-64320000D03*
X40500000Y-56020000D03*
%TD*%
D11*
%TO.C,J3*%
X25500000Y-46220000D03*
D10*
X25500000Y-57620000D03*
X25500000Y-49320000D03*
%TD*%
D12*
%TO.C,J1*%
X70880000Y-33000000D03*
D13*
X70880000Y-30460000D03*
X73420000Y-33000000D03*
X73420000Y-30460000D03*
X75960000Y-33000000D03*
X75960000Y-30460000D03*
X78500000Y-33000000D03*
X78500000Y-30460000D03*
X81040000Y-33000000D03*
X81040000Y-30460000D03*
X83580000Y-33000000D03*
X83580000Y-30460000D03*
X86120000Y-33000000D03*
X86120000Y-30460000D03*
X88660000Y-33000000D03*
X88660000Y-30460000D03*
X91200000Y-33000000D03*
X91200000Y-30460000D03*
X93740000Y-33000000D03*
X93740000Y-30460000D03*
X96280000Y-33000000D03*
X96280000Y-30460000D03*
X98820000Y-33000000D03*
X98820000Y-30460000D03*
%TD*%
D14*
%TO.C,D8*%
X151380000Y-50000000D03*
D15*
X159000000Y-50000000D03*
%TD*%
D14*
%TO.C,D7*%
X143380000Y-47000000D03*
D15*
X151000000Y-47000000D03*
%TD*%
D14*
%TO.C,D6*%
X105880000Y-50500000D03*
D15*
X113500000Y-50500000D03*
%TD*%
D14*
%TO.C,D4*%
X97880000Y-47500000D03*
D15*
X105500000Y-47500000D03*
%TD*%
D14*
%TO.C,D3*%
X89880000Y-50500000D03*
D15*
X97500000Y-50500000D03*
%TD*%
D14*
%TO.C,D2*%
X82380000Y-47500000D03*
D15*
X90000000Y-47500000D03*
%TD*%
D14*
%TO.C,D1*%
X48000000Y-56690000D03*
D15*
X48000000Y-64310000D03*
%TD*%
M02*
