M48
; DRILL file {KiCad 9.0.7} date 2026-02-06T18:57:13+0000
; FORMAT={-:-/ absolute / inch / decimal}
; #@! TF.CreationDate,2026-02-06T18:57:13+00:00
; #@! TF.GenerationSoftware,Kicad,Pcbnew,9.0.7
; #@! TF.FileFunction,Plated,1,2,PTH
FMAT,2
INCH
; #@! TA.AperFunction,Plated,PTH,ViaDrill
T1C0.0118
; #@! TA.AperFunction,Plated,PTH,ComponentDrill
T2C0.0157
; #@! TA.AperFunction,Plated,PTH,ViaDrill
T3C0.0197
; #@! TA.AperFunction,Plated,PTH,ComponentDrill
T4C0.0315
; #@! TA.AperFunction,Plated,PTH,ComponentDrill
T5C0.0320
; #@! TA.AperFunction,Plated,PTH,ComponentDrill
T6C0.0354
; #@! TA.AperFunction,Plated,PTH,ComponentDrill
T7C0.0394
; #@! TA.AperFunction,Plated,PTH,ComponentDrill
T8C0.0433
; #@! TA.AperFunction,Plated,PTH,ComponentDrill
T9C0.0472
; #@! TA.AperFunction,Plated,PTH,ComponentDrill
T10C0.0480
; #@! TA.AperFunction,Plated,PTH,ComponentDrill
T11C0.0559
; #@! TA.AperFunction,Plated,PTH,ComponentDrill
T12C0.0563
; #@! TA.AperFunction,Plated,PTH,ComponentDrill
T13C0.0669
; #@! TA.AperFunction,Plated,PTH,ComponentDrill
T14C0.0906
; #@! TA.AperFunction,Plated,PTH,ComponentDrill
T15C0.1260
%
G90
G05
T1
X2.0472Y-2.7264
X2.0866Y-2.7362
X2.2047Y-2.126
X3.622Y-2.0571
X3.622Y-2.185
X3.622Y-3.3169
X3.8681Y-5.7087
X3.8681Y-5.7579
X3.8681Y-5.8071
X3.9469Y-6.1811
X3.9469Y-6.3287
X3.9862Y-6.1811
X3.9862Y-6.3583
X4.0256Y-6.1811
X4.0256Y-6.3878
X4.065Y-6.1811
X4.065Y-6.4173
X4.065Y-7.0571
X4.1043Y-6.1811
X4.1043Y-6.4173
X4.1043Y-7.0571
X4.1437Y-6.1811
X4.1437Y-6.4075
X4.1535Y-7.0571
X4.1831Y-6.1811
X4.1831Y-6.3976
X4.2224Y-6.1811
X4.2224Y-6.3878
X4.2618Y-6.1811
X4.2618Y-6.378
X4.3012Y-6.1811
X4.3012Y-6.3681
X4.3406Y-6.1811
X4.3406Y-6.3583
X4.4094Y-5.7087
X4.4094Y-5.7579
X4.4094Y-5.8071
X4.4882Y-5.4823
X4.5276Y-5.502
X6.0581Y-1.4715
X6.6634Y-2.1358
X6.7323Y-2.0669
X7.6575Y-5.6594
X7.7264Y-5.9941
X7.7461Y-5.6398
X7.8346Y-3.8091
X7.8445Y-6.1122
X8.2776Y-4.8425
X8.3465Y-4.7736
X8.7795Y-1.378
X8.8976Y-1.4173
X9.3898Y-1.4173
X9.4193Y-3.6909
X9.4488Y-3.5531
X9.4685Y-1.4173
X9.5866Y-2.3031
X9.7047Y-2.185
X10.0197Y-4.4783
X10.0787Y-4.4783
X10.1181Y-4.3799
X10.1575Y-4.4783
X10.1772Y-4.3799
X10.2313Y-4.4833
X10.2559Y-4.3799
X10.3248Y-4.3701
X10.4331Y-4.9902
X11.0925Y-4.0157
T3
X3.248Y-4.3898
X3.4382Y-4.3965
T4
X4.3579Y-7.2276
X4.5079Y-1.1075
X4.5079Y-1.4075
X4.6579Y-7.2276
X4.6722Y-0.9134
X4.6722Y-1.0134
X4.6722Y-1.1134
X4.6722Y-1.2134
X4.9722Y-0.9134
X4.9722Y-1.0134
X4.9722Y-1.1134
X4.9722Y-1.2134
X5.389Y-4.4587
X5.689Y-4.4587
X5.7185Y-1.5898
X5.7185Y-1.8898
X6.0311Y-7.2079
X6.122Y-4.4587
X6.2008Y-1.0335
X6.2008Y-1.3335
X6.2106Y-1.5898
X6.2106Y-1.8898
X6.3311Y-7.2079
X6.422Y-4.4587
X6.5232Y-7.2079
X6.7028Y-1.5898
X6.7028Y-1.8898
X6.8232Y-7.2079
X7.0154Y-7.2079
X7.185Y-1.0335
X7.185Y-1.3335
X7.1949Y-1.5898
X7.1949Y-1.8898
X7.3154Y-7.2079
X7.5075Y-7.2079
X7.6772Y-1.5898
X7.6772Y-1.8898
X7.8075Y-7.2079
X8.9469Y-1.0335
X8.9469Y-1.3335
X8.9469Y-1.7224
X8.9469Y-2.0224
X9.1807Y-7.2079
X9.4807Y-7.2079
X9.6728Y-7.2079
X9.9728Y-7.2079
X10.2362Y-1.0335
X10.2362Y-1.3335
X10.2362Y-1.7224
X10.2362Y-2.0224
X10.935Y-4.0354
X10.935Y-4.3354
X10.935Y-4.7244
X10.935Y-5.0244
X10.935Y-5.4232
X10.935Y-5.7232
X11.3091Y-1.6732
X11.6091Y-1.6732
X12.2146Y-4.0406
X12.2146Y-4.3406
X12.2146Y-5.4185
X12.2146Y-5.7185
X12.2933Y-1.6732
X12.5933Y-1.6732
T5
X4.3504Y-1.1122
X4.3504Y-1.4122
X5.1378Y-0.913
X5.1378Y-1.213
T7
X3.872Y-2.6587
X3.872Y-2.7587
X3.872Y-2.8587
X3.872Y-2.9587
X3.872Y-3.0587
X3.872Y-3.1587
X3.872Y-3.2587
X3.872Y-3.3587
X3.872Y-4.2965
X3.872Y-4.3965
X3.872Y-4.4965
X3.872Y-4.5965
X3.872Y-4.6965
X3.872Y-4.7965
X3.872Y-4.8965
X3.872Y-4.9965
X4.4075Y-2.2492
X4.4075Y-2.3492
X4.4075Y-2.4492
X4.4075Y-2.5492
X4.4075Y-2.6492
X4.4075Y-2.7492
X4.4075Y-2.8492
X4.4075Y-2.9492
X4.4075Y-3.0492
X4.4075Y-3.1492
X4.4075Y-3.2492
X4.4075Y-3.3492
X4.4075Y-3.4492
X4.4075Y-3.5492
X4.4075Y-3.6492
X4.4075Y-3.7492
X4.4075Y-3.887
X4.4075Y-3.987
X4.4075Y-4.087
X4.4075Y-4.187
X4.4075Y-4.287
X4.4075Y-4.387
X4.4075Y-4.487
X4.4075Y-4.587
X4.4075Y-4.687
X4.4075Y-4.787
X4.4075Y-4.887
X4.4075Y-4.987
X4.4075Y-5.087
X4.4075Y-5.187
X4.4075Y-5.287
X4.4075Y-5.387
X6.8404Y-4.5459
X6.9389Y-4.5459
X7.0373Y-4.5459
X8.12Y-4.5459
X8.2184Y-4.5459
X8.3168Y-4.5459
X9.5964Y-4.5459
X9.6948Y-4.5459
X9.7932Y-4.5459
X12.6475Y-4.5459
X12.6475Y-5.727
X12.746Y-4.5459
X12.746Y-5.727
X12.8444Y-4.5459
X12.8444Y-5.727
T8
X2.4098Y-0.6102
X2.4098Y-0.7102
X2.4098Y-0.8102
X2.4098Y-0.9102
X2.4098Y-1.0102
X2.4098Y-1.1102
X2.4098Y-1.2102
X2.4098Y-1.3102
X2.4098Y-1.4102
X2.4098Y-1.5102
X2.4098Y-1.6102
X2.4098Y-1.7102
X2.4098Y-1.8102
X2.4098Y-1.9102
X2.4098Y-2.0102
X2.4098Y-2.1102
X2.4098Y-2.2102
X2.4098Y-2.3102
X2.4098Y-2.4102
X2.4098Y-2.5102
X3.0098Y-0.6102
X3.0098Y-0.7102
X3.0098Y-0.8102
X3.0098Y-0.9102
X3.0098Y-1.0102
X3.0098Y-1.1102
X3.0098Y-1.2102
X3.0098Y-1.3102
X3.0098Y-1.4102
X3.0098Y-1.5102
X3.0098Y-1.6102
X3.0098Y-1.7102
X3.0098Y-1.8102
X3.0098Y-1.9102
X3.0098Y-2.0102
X3.0098Y-2.1102
X3.0098Y-2.2102
X3.0098Y-2.3102
X3.0098Y-2.4102
X3.0098Y-2.5102
X5.433Y-4.162
X5.433Y-4.3392
X5.6889Y-4.162
X5.6889Y-4.3392
X6.1219Y-4.162
X6.1219Y-4.3392
X6.3189Y-1.0287
X6.3189Y-1.2059
X6.3778Y-4.162
X6.3778Y-4.3392
X6.5748Y-1.0287
X6.5748Y-1.2059
X7.3031Y-1.0287
X7.3031Y-1.2059
X7.5591Y-1.0287
X7.5591Y-1.2059
X9.0748Y-1.0287
X9.0748Y-1.2059
X9.0748Y-1.7177
X9.0748Y-1.8949
X9.3307Y-1.0287
X9.3307Y-1.2059
X9.3307Y-1.7177
X9.3307Y-1.8949
X10.3543Y-1.0287
X10.3543Y-1.2059
X10.3543Y-1.7177
X10.3543Y-1.8949
X10.5511Y-4.162
X10.5511Y-4.3392
X10.5511Y-4.851
X10.5511Y-5.0282
X10.5511Y-5.54
X10.5511Y-5.7172
X10.6102Y-1.0287
X10.6102Y-1.2059
X10.6102Y-1.7177
X10.6102Y-1.8949
X10.807Y-4.162
X10.807Y-4.3392
X10.807Y-4.851
X10.807Y-5.0282
X10.807Y-5.54
X10.807Y-5.7172
X11.3484Y-1.3681
X11.3484Y-1.5453
X11.6043Y-1.3681
X11.6043Y-1.5453
X11.8306Y-4.1634
X11.8306Y-4.3406
X11.8306Y-5.54
X11.8306Y-5.7172
X12.0865Y-4.1634
X12.0865Y-4.3406
X12.0865Y-5.54
X12.0865Y-5.7172
X12.3327Y-1.3681
X12.3327Y-1.5453
X12.5886Y-1.3681
X12.5886Y-1.5453
T9
X5.3937Y-2.2441
X5.3937Y-3.5433
X5.3937Y-4.8031
X5.3937Y-6.1024
X5.5315Y-3.5433
X5.5315Y-6.1024
X5.8858Y-2.2441
X5.8858Y-3.5433
X5.8858Y-4.8031
X5.8858Y-6.1024
X6.0236Y-3.5433
X6.0236Y-6.1024
X6.378Y-2.2441
X6.378Y-3.5433
X6.378Y-4.8031
X6.378Y-6.1024
X6.5157Y-3.5433
X6.5157Y-6.1024
X6.8701Y-2.2441
X6.8701Y-3.5433
X6.8701Y-4.8031
X6.8701Y-6.1024
X7.0079Y-3.5433
X7.0079Y-6.1024
X7.3622Y-2.2441
X7.3622Y-3.5433
X7.5Y-3.5433
X8.1496Y-2.2441
X8.1496Y-3.5433
X8.1496Y-4.8031
X8.1496Y-6.1024
X8.2874Y-3.5433
X8.2874Y-6.1024
X8.6417Y-2.2441
X8.6417Y-3.5433
X8.6417Y-4.8031
X8.6417Y-6.1024
X8.7795Y-3.5433
X8.7795Y-6.1024
X9.1339Y-2.2441
X9.1339Y-3.5433
X9.1339Y-4.8031
X9.1339Y-6.1024
X9.2717Y-3.5433
X9.2717Y-6.1024
X9.626Y-4.8031
X9.626Y-6.1024
X9.7638Y-6.1024
X9.9213Y-2.2441
X9.9213Y-3.5433
X10.0591Y-3.5433
X10.4134Y-2.2441
X10.4134Y-3.5433
X10.5512Y-3.5433
X11.2008Y-2.2441
X11.2008Y-3.5433
X11.3386Y-3.5433
X11.6929Y-2.2441
X11.6929Y-3.5433
X11.8307Y-3.5433
X12.185Y-2.2441
X12.185Y-3.5433
X12.3228Y-3.5433
X12.6772Y-2.2441
X12.6772Y-3.5433
X12.815Y-3.5433
T10
X3.9173Y-7.0787
X3.9174Y-7.6496
X4.508Y-7.3543
X5.0985Y-7.0787
X5.0985Y-7.6496
X5.5907Y-7.0787
X5.5907Y-7.6496
X6.1812Y-7.3346
X6.6733Y-7.3346
X7.1655Y-7.3346
X7.6576Y-7.3346
X8.2481Y-7.0787
X8.2481Y-7.6496
X8.7403Y-7.0787
X8.7403Y-7.6496
X9.3308Y-7.3346
X9.8229Y-7.3346
X10.4135Y-7.0776
X10.4135Y-7.6496
T11
X3.9173Y-7.2008
X3.9174Y-7.7717
X4.508Y-7.4764
X5.0985Y-7.2008
X5.0985Y-7.7717
X5.5907Y-7.2008
X5.5907Y-7.7717
X6.1812Y-7.4567
X6.6733Y-7.4567
X7.1655Y-7.4567
X7.6576Y-7.4567
X8.2481Y-7.2008
X8.2481Y-7.7717
X8.7403Y-7.2008
X8.7403Y-7.7717
X9.3308Y-7.4567
X9.8229Y-7.4567
X10.4135Y-7.1996
X10.4135Y-7.7717
T12
X3.9173Y-7.5276
X3.9174Y-8.0984
X4.508Y-7.8031
X5.0985Y-7.5276
X5.0985Y-8.0984
X5.5907Y-7.5276
X5.5907Y-8.0984
X6.1812Y-7.7835
X6.6733Y-7.7835
X7.1655Y-7.7835
X7.6576Y-7.7835
X8.2481Y-7.5276
X8.2481Y-8.0984
X8.7403Y-7.5276
X8.7403Y-8.0984
X9.3308Y-7.7835
X9.8229Y-7.7835
X10.4135Y-7.5264
X10.4135Y-8.0984
T13
X5.2972Y-2.4449
X5.2972Y-3.3425
X5.2972Y-5.0039
X5.2972Y-5.9016
X5.628Y-2.3976
X5.628Y-3.3898
X5.628Y-4.9567
X5.628Y-5.9488
X5.7894Y-2.4449
X5.7894Y-3.3425
X5.7894Y-5.0039
X5.7894Y-5.9016
X6.1201Y-2.3976
X6.1201Y-3.3898
X6.1201Y-4.9567
X6.1201Y-5.9488
X6.2815Y-2.4449
X6.2815Y-3.3425
X6.2815Y-5.0039
X6.2815Y-5.9016
X6.6122Y-2.3976
X6.6122Y-3.3898
X6.6122Y-4.9567
X6.6122Y-5.9488
X6.7736Y-2.4449
X6.7736Y-3.3425
X6.7736Y-5.0039
X6.7736Y-5.9016
X7.1043Y-2.3976
X7.1043Y-3.3898
X7.1043Y-4.9567
X7.1043Y-5.9488
X7.2657Y-2.4449
X7.2657Y-3.3425
X7.5965Y-2.3976
X7.5965Y-3.3898
X8.0531Y-2.4449
X8.0531Y-3.3425
X8.0531Y-5.0039
X8.0531Y-5.9016
X8.3839Y-2.3976
X8.3839Y-3.3898
X8.3839Y-4.9567
X8.3839Y-5.9488
X8.5453Y-2.4449
X8.5453Y-3.3425
X8.5453Y-5.0039
X8.5453Y-5.9016
X8.876Y-2.3976
X8.876Y-3.3898
X8.876Y-4.9567
X8.876Y-5.9488
X9.0374Y-2.4449
X9.0374Y-3.3425
X9.0374Y-5.0039
X9.0374Y-5.9016
X9.3681Y-2.3976
X9.3681Y-3.3898
X9.3681Y-4.9567
X9.3681Y-5.9488
X9.5295Y-5.0039
X9.5295Y-5.9016
X9.8248Y-2.4449
X9.8248Y-3.3425
X9.8602Y-4.9567
X9.8602Y-5.9488
X10.1555Y-2.3976
X10.1555Y-3.3898
X10.3169Y-2.4449
X10.3169Y-3.3425
X10.6476Y-2.3976
X10.6476Y-3.3898
X11.1043Y-2.4449
X11.1043Y-3.3425
X11.435Y-2.3976
X11.435Y-3.3898
X11.5965Y-2.4449
X11.5965Y-3.3425
X11.9272Y-2.3976
X11.9272Y-3.3898
X12.0886Y-2.4449
X12.0886Y-3.3425
X12.4193Y-2.3976
X12.4193Y-3.3898
X12.5807Y-2.4449
X12.5807Y-3.3425
X12.9114Y-2.3976
X12.9114Y-3.3898
T15
X0.8465Y-0.748
X0.8465Y-8.0709
X0.8465Y-8.622
X0.8465Y-15.9449
X0.8465Y-16.4961
X0.8465Y-23.8189
X7.1654Y-0.748
X7.1654Y-8.0709
X7.1654Y-8.0709
X7.1654Y-8.622
X7.1654Y-15.9449
X7.1654Y-16.4961
X7.1654Y-23.8189
X13.4744Y-8.0709
X13.4744Y-15.9449
X13.4744Y-23.8189
X13.4843Y-0.748
X13.4843Y-8.622
X13.4843Y-16.4961
T2
G00X1.1024Y-0.9272
M15
G01X1.1024Y-0.9665
M16
G05
G00X1.3189Y-0.75
M15
G01X1.2795Y-0.75
M16
G05
G00X1.4961Y-0.9665
M15
G01X1.4961Y-0.9272
M16
G05
G00X3.9567Y-0.9272
M15
G01X3.9567Y-0.9665
M16
G05
G00X4.1732Y-0.75
M15
G01X4.1339Y-0.75
M16
G05
G00X4.3504Y-0.9665
M15
G01X4.3504Y-0.9272
M16
G05
T6
G00X5.437Y-1.6213
M15
G01X5.4882Y-1.6213
M16
G05
G00X5.437Y-1.8063
M15
G01X5.4882Y-1.8063
M16
G05
G00X5.437Y-1.9913
M15
G01X5.4882Y-1.9913
M16
G05
G00X5.9291Y-1.6213
M15
G01X5.9803Y-1.6213
M16
G05
G00X5.9291Y-1.8063
M15
G01X5.9803Y-1.8063
M16
G05
G00X5.9291Y-1.9913
M15
G01X5.9803Y-1.9913
M16
G05
G00X6.4213Y-1.6213
M15
G01X6.4724Y-1.6213
M16
G05
G00X6.4213Y-1.8063
M15
G01X6.4724Y-1.8063
M16
G05
G00X6.4213Y-1.9913
M15
G01X6.4724Y-1.9913
M16
G05
G00X6.9134Y-1.6213
M15
G01X6.9646Y-1.6213
M16
G05
G00X6.9134Y-1.8063
M15
G01X6.9646Y-1.8063
M16
G05
G00X6.9134Y-1.9913
M15
G01X6.9646Y-1.9913
M16
G05
G00X7.4055Y-1.6213
M15
G01X7.4567Y-1.6213
M16
G05
G00X7.4055Y-1.8063
M15
G01X7.4567Y-1.8063
M16
G05
G00X7.4055Y-1.9913
M15
G01X7.4567Y-1.9913
M16
G05
T8
G00X6.7499Y-4.2742
M15
G01X6.7499Y-4.227
M16
G05
G00X7.1278Y-4.2742
M15
G01X7.1278Y-4.227
M16
G05
G00X8.0294Y-4.2742
M15
G01X8.0294Y-4.227
M16
G05
G00X8.4074Y-4.2742
M15
G01X8.4074Y-4.227
M16
G05
G00X9.5058Y-4.2742
M15
G01X9.5058Y-4.227
M16
G05
G00X9.8838Y-4.2742
M15
G01X9.8838Y-4.227
M16
G05
G00X12.557Y-4.2742
M15
G01X12.557Y-4.227
M16
G05
G00X12.557Y-5.4553
M15
G01X12.557Y-5.4081
M16
G05
G00X12.9349Y-4.2742
M15
G01X12.9349Y-4.227
M16
G05
G00X12.9349Y-5.4553
M15
G01X12.9349Y-5.4081
M16
G05
T14
G00X5.4626Y-10.3406
M15
G01X5.4626Y-11.1949
M16
G05
G00X5.4626Y-12.8996
M15
G01X5.4626Y-13.7539
M16
G05
G00X5.9547Y-10.3406
M15
G01X5.9547Y-11.1949
M16
G05
G00X5.9547Y-12.8996
M15
G01X5.9547Y-13.7539
M16
G05
G00X6.4469Y-10.3406
M15
G01X6.4469Y-11.1949
M16
G05
G00X6.4469Y-12.8996
M15
G01X6.4469Y-13.7539
M16
G05
G00X6.939Y-10.3406
M15
G01X6.939Y-11.1949
M16
G05
G00X6.939Y-12.8996
M15
G01X6.939Y-13.7539
M16
G05
G00X7.4311Y-10.3406
M15
G01X7.4311Y-11.1949
M16
G05
G00X8.2185Y-10.3406
M15
G01X8.2185Y-11.1949
M16
G05
G00X8.2185Y-12.8996
M15
G01X8.2185Y-13.7539
M16
G05
G00X8.7106Y-10.3406
M15
G01X8.7106Y-11.1949
M16
G05
G00X8.7106Y-12.8996
M15
G01X8.7106Y-13.7539
M16
G05
G00X9.2028Y-10.3406
M15
G01X9.2028Y-11.1949
M16
G05
G00X9.2028Y-12.8996
M15
G01X9.2028Y-13.7539
M16
G05
G00X9.6949Y-12.8996
M15
G01X9.6949Y-13.7539
M16
G05
G00X9.9902Y-10.3406
M15
G01X9.9902Y-11.1949
M16
G05
G00X10.4823Y-10.3406
M15
G01X10.4823Y-11.1949
M16
G05
G00X11.2697Y-10.3406
M15
G01X11.2697Y-11.1949
M16
G05
G00X11.7618Y-10.3406
M15
G01X11.7618Y-11.1949
M16
G05
G00X12.2539Y-10.3406
M15
G01X12.2539Y-11.1949
M16
G05
G00X12.7461Y-10.3406
M15
G01X12.7461Y-11.1949
M16
G05
M30
