M48
; DRILL file {KiCad 9.0.1} date 2025-10-30T11:03:02+0000
; FORMAT={-:-/ absolute / metric / decimal}
; #@! TF.CreationDate,2025-10-30T11:03:02+00:00
; #@! TF.GenerationSoftware,Kicad,Pcbnew,9.0.1
; #@! TF.FileFunction,Plated,1,2,PTH
FMAT,2
METRIC
; #@! TA.AperFunction,Plated,PTH,ViaDrill
T1C0.300
; #@! TA.AperFunction,Plated,PTH,ComponentDrill
T2C0.400
; #@! TA.AperFunction,Plated,PTH,ViaDrill
T3C0.500
; #@! TA.AperFunction,Plated,PTH,ComponentDrill
T4C0.800
; #@! TA.AperFunction,Plated,PTH,ComponentDrill
T5C0.813
; #@! TA.AperFunction,Plated,PTH,ComponentDrill
T6C0.900
; #@! TA.AperFunction,Plated,PTH,ComponentDrill
T7C1.000
; #@! TA.AperFunction,Plated,PTH,ComponentDrill
T8C1.100
; #@! TA.AperFunction,Plated,PTH,ComponentDrill
T9C1.200
; #@! TA.AperFunction,Plated,PTH,ComponentDrill
T10C1.220
; #@! TA.AperFunction,Plated,PTH,ComponentDrill
T11C1.420
; #@! TA.AperFunction,Plated,PTH,ComponentDrill
T12C1.430
; #@! TA.AperFunction,Plated,PTH,ComponentDrill
T13C1.700
; #@! TA.AperFunction,Plated,PTH,ComponentDrill
T14C2.300
; #@! TA.AperFunction,Plated,PTH,ComponentDrill
T15C3.200
%
G90
G05
T1
X52.0Y-69.25
X53.0Y-69.5
X56.0Y-54.0
X92.0Y-52.25
X92.0Y-55.5
X92.0Y-84.25
X98.25Y-145.0
X98.25Y-146.25
X98.25Y-147.5
X100.25Y-157.0
X100.25Y-160.75
X101.25Y-157.0
X101.25Y-161.5
X102.25Y-157.0
X102.25Y-162.25
X103.25Y-157.0
X103.25Y-163.0
X103.25Y-179.25
X104.25Y-157.0
X104.25Y-163.0
X104.25Y-179.25
X105.25Y-157.0
X105.25Y-162.75
X105.5Y-179.25
X106.25Y-157.0
X106.25Y-162.5
X107.25Y-157.0
X107.25Y-162.25
X108.25Y-157.0
X108.25Y-162.0
X109.25Y-157.0
X109.25Y-161.75
X110.25Y-157.0
X110.25Y-161.5
X112.0Y-145.0
X112.0Y-146.25
X112.0Y-147.5
X114.0Y-139.25
X115.0Y-139.75
X153.875Y-37.375
X169.25Y-54.25
X171.0Y-52.5
X194.5Y-143.75
X196.25Y-152.25
X196.75Y-143.25
X199.0Y-96.75
X199.25Y-155.25
X210.25Y-123.0
X212.0Y-121.25
X223.0Y-35.0
X226.0Y-36.0
X238.5Y-36.0
X239.25Y-93.75
X240.0Y-90.25
X240.5Y-36.0
X243.5Y-58.5
X246.5Y-55.5
X254.5Y-113.75
X256.0Y-113.75
X257.0Y-111.25
X258.0Y-113.75
X258.5Y-111.25
X259.875Y-113.875
X260.5Y-111.25
X262.25Y-111.0
X265.0Y-126.75
X281.75Y-102.0
T3
X82.5Y-111.5
X87.33Y-111.67
T4
X94.7Y-85.44
X94.7Y-90.52
X94.7Y-127.23
X94.7Y-132.31
X110.69Y-183.58
X114.5Y-28.13
X114.5Y-35.75
X118.31Y-183.58
X118.675Y-23.2
X118.675Y-25.74
X118.675Y-28.28
X118.675Y-30.82
X126.295Y-23.2
X126.295Y-25.74
X126.295Y-28.28
X126.295Y-30.82
X136.88Y-113.25
X144.5Y-113.25
X145.25Y-40.38
X145.25Y-48.0
X153.19Y-183.08
X155.5Y-113.25
X157.5Y-26.25
X157.5Y-33.87
X157.75Y-40.38
X157.75Y-48.0
X160.81Y-183.08
X163.12Y-113.25
X165.69Y-183.08
X170.25Y-40.38
X170.25Y-48.0
X173.31Y-183.08
X178.19Y-183.08
X182.5Y-26.25
X182.5Y-33.87
X182.75Y-40.38
X182.75Y-48.0
X185.81Y-183.08
X190.69Y-183.08
X195.0Y-40.38
X195.0Y-48.0
X198.31Y-183.08
X227.25Y-26.25
X227.25Y-33.87
X227.25Y-43.75
X227.25Y-51.37
X233.19Y-183.08
X240.81Y-183.08
X245.69Y-183.08
X253.31Y-183.08
X260.0Y-26.25
X260.0Y-33.87
X260.0Y-43.75
X260.0Y-51.37
X277.75Y-102.5
X277.75Y-110.12
X277.75Y-120.0
X277.75Y-127.62
X277.75Y-137.75
X277.75Y-145.37
X287.25Y-42.5
X294.87Y-42.5
X310.25Y-102.63
X310.25Y-110.25
X310.25Y-137.63
X310.25Y-145.25
X312.25Y-42.5
X319.87Y-42.5
T5
X110.5Y-28.25
X110.5Y-35.87
X130.5Y-23.19
X130.5Y-30.81
T7
X98.35Y-67.53
X98.35Y-70.07
X98.35Y-72.61
X98.35Y-75.15
X98.35Y-77.69
X98.35Y-80.23
X98.35Y-82.77
X98.35Y-85.31
X98.35Y-109.13
X98.35Y-111.67
X98.35Y-114.21
X98.35Y-116.75
X98.35Y-119.29
X98.35Y-121.83
X98.35Y-124.37
X98.35Y-126.91
X111.95Y-57.13
X111.95Y-59.67
X111.95Y-62.21
X111.95Y-64.75
X111.95Y-67.29
X111.95Y-69.83
X111.95Y-72.37
X111.95Y-74.91
X111.95Y-77.45
X111.95Y-79.99
X111.95Y-82.53
X111.95Y-85.07
X111.95Y-87.61
X111.95Y-90.15
X111.95Y-92.69
X111.95Y-95.23
X111.95Y-98.73
X111.95Y-101.27
X111.95Y-103.81
X111.95Y-106.35
X111.95Y-108.89
X111.95Y-111.43
X111.95Y-113.97
X111.95Y-116.51
X111.95Y-119.05
X111.95Y-121.59
X111.95Y-124.13
X111.95Y-126.67
X111.95Y-129.21
X111.95Y-131.75
X111.95Y-134.29
X111.95Y-136.83
X173.747Y-115.466
X176.247Y-115.466
X178.747Y-115.466
X206.247Y-115.466
X208.747Y-115.466
X211.247Y-115.466
X243.747Y-115.466
X246.247Y-115.466
X248.747Y-115.466
X321.247Y-115.466
X321.247Y-145.466
X323.747Y-115.466
X323.747Y-145.466
X326.247Y-115.466
X326.247Y-145.466
T8
X61.21Y-15.5
X61.21Y-18.04
X61.21Y-20.58
X61.21Y-23.12
X61.21Y-25.66
X61.21Y-28.2
X61.21Y-30.74
X61.21Y-33.28
X61.21Y-35.82
X61.21Y-38.36
X61.21Y-40.9
X61.21Y-43.44
X61.21Y-45.98
X61.21Y-48.52
X61.21Y-51.06
X61.21Y-53.6
X61.21Y-56.14
X61.21Y-58.68
X61.21Y-61.22
X61.21Y-63.76
X76.45Y-15.5
X76.45Y-18.04
X76.45Y-20.58
X76.45Y-23.12
X76.45Y-25.66
X76.45Y-28.2
X76.45Y-30.74
X76.45Y-33.28
X76.45Y-35.82
X76.45Y-38.36
X76.45Y-40.9
X76.45Y-43.44
X76.45Y-45.98
X76.45Y-48.52
X76.45Y-51.06
X76.45Y-53.6
X76.45Y-56.14
X76.45Y-58.68
X76.45Y-61.22
X76.45Y-63.76
X137.997Y-105.716
X137.997Y-110.216
X144.497Y-105.716
X144.497Y-110.216
X155.497Y-105.716
X155.497Y-110.216
X160.5Y-26.13
X160.5Y-30.63
X161.997Y-105.716
X161.997Y-110.216
X167.0Y-26.13
X167.0Y-30.63
X185.5Y-26.13
X185.5Y-30.63
X192.0Y-26.13
X192.0Y-30.63
X230.5Y-26.13
X230.5Y-30.63
X230.5Y-43.63
X230.5Y-48.13
X237.0Y-26.13
X237.0Y-30.63
X237.0Y-43.63
X237.0Y-48.13
X263.0Y-26.13
X263.0Y-30.63
X263.0Y-43.63
X263.0Y-48.13
X267.997Y-105.716
X267.997Y-110.216
X267.997Y-123.216
X267.997Y-127.716
X267.997Y-140.716
X267.997Y-145.216
X269.5Y-26.13
X269.5Y-30.63
X269.5Y-43.63
X269.5Y-48.13
X274.497Y-105.716
X274.497Y-110.216
X274.497Y-123.216
X274.497Y-127.716
X274.497Y-140.716
X274.497Y-145.216
X288.25Y-34.75
X288.25Y-39.25
X294.75Y-34.75
X294.75Y-39.25
X300.497Y-105.75
X300.497Y-110.25
X300.497Y-140.716
X300.497Y-145.216
X306.997Y-105.75
X306.997Y-110.25
X306.997Y-140.716
X306.997Y-145.216
X313.25Y-34.75
X313.25Y-39.25
X319.75Y-34.75
X319.75Y-39.25
T9
X137.0Y-57.0
X137.0Y-90.0
X137.0Y-122.0
X137.0Y-155.0
X140.5Y-90.0
X140.5Y-155.0
X149.5Y-57.0
X149.5Y-90.0
X149.5Y-122.0
X149.5Y-155.0
X153.0Y-90.0
X153.0Y-155.0
X162.0Y-57.0
X162.0Y-90.0
X162.0Y-122.0
X162.0Y-155.0
X165.5Y-90.0
X165.5Y-155.0
X174.5Y-57.0
X174.5Y-90.0
X174.5Y-122.0
X174.5Y-155.0
X178.0Y-90.0
X178.0Y-155.0
X187.0Y-57.0
X187.0Y-90.0
X190.5Y-90.0
X207.0Y-57.0
X207.0Y-90.0
X207.0Y-122.0
X207.0Y-155.0
X210.5Y-90.0
X210.5Y-155.0
X219.5Y-57.0
X219.5Y-90.0
X219.5Y-122.0
X219.5Y-155.0
X223.0Y-90.0
X223.0Y-155.0
X232.0Y-57.0
X232.0Y-90.0
X232.0Y-122.0
X232.0Y-155.0
X235.5Y-90.0
X235.5Y-155.0
X244.5Y-122.0
X244.5Y-155.0
X248.0Y-155.0
X252.0Y-57.0
X252.0Y-90.0
X255.5Y-90.0
X264.5Y-57.0
X264.5Y-90.0
X268.0Y-90.0
X284.5Y-57.0
X284.5Y-90.0
X288.0Y-90.0
X297.0Y-57.0
X297.0Y-90.0
X300.5Y-90.0
X309.5Y-57.0
X309.5Y-90.0
X313.0Y-90.0
X322.0Y-57.0
X322.0Y-90.0
X325.5Y-90.0
T10
X99.5Y-179.8
X99.503Y-194.3
X114.503Y-186.8
X129.503Y-179.8
X129.503Y-194.3
X142.003Y-179.8
X142.003Y-194.3
X157.003Y-186.3
X169.503Y-186.3
X182.003Y-186.3
X194.503Y-186.3
X209.503Y-179.8
X209.503Y-194.3
X222.003Y-179.8
X222.003Y-194.3
X237.003Y-186.3
X249.503Y-186.3
X264.503Y-179.77
X264.503Y-194.3
T11
X99.5Y-182.9
X99.503Y-197.4
X114.503Y-189.9
X129.503Y-182.9
X129.503Y-197.4
X142.003Y-182.9
X142.003Y-197.4
X157.003Y-189.4
X169.503Y-189.4
X182.003Y-189.4
X194.503Y-189.4
X209.503Y-182.9
X209.503Y-197.4
X222.003Y-182.9
X222.003Y-197.4
X237.003Y-189.4
X249.503Y-189.4
X264.503Y-182.87
X264.503Y-197.4
T12
X99.5Y-191.2
X99.503Y-205.7
X114.503Y-198.2
X129.503Y-191.2
X129.503Y-205.7
X142.003Y-191.2
X142.003Y-205.7
X157.003Y-197.7
X169.503Y-197.7
X182.003Y-197.7
X194.503Y-197.7
X209.503Y-191.2
X209.503Y-205.7
X222.003Y-191.2
X222.003Y-205.7
X237.003Y-197.7
X249.503Y-197.7
X264.503Y-191.17
X264.503Y-205.7
T13
X134.55Y-62.1
X134.55Y-84.9
X134.55Y-127.1
X134.55Y-149.9
X142.95Y-60.9
X142.95Y-86.1
X142.95Y-125.9
X142.95Y-151.1
X147.05Y-62.1
X147.05Y-84.9
X147.05Y-127.1
X147.05Y-149.9
X155.45Y-60.9
X155.45Y-86.1
X155.45Y-125.9
X155.45Y-151.1
X159.55Y-62.1
X159.55Y-84.9
X159.55Y-127.1
X159.55Y-149.9
X167.95Y-60.9
X167.95Y-86.1
X167.95Y-125.9
X167.95Y-151.1
X172.05Y-62.1
X172.05Y-84.9
X172.05Y-127.1
X172.05Y-149.9
X180.45Y-60.9
X180.45Y-86.1
X180.45Y-125.9
X180.45Y-151.1
X184.55Y-62.1
X184.55Y-84.9
X192.95Y-60.9
X192.95Y-86.1
X204.55Y-62.1
X204.55Y-84.9
X204.55Y-127.1
X204.55Y-149.9
X212.95Y-60.9
X212.95Y-86.1
X212.95Y-125.9
X212.95Y-151.1
X217.05Y-62.1
X217.05Y-84.9
X217.05Y-127.1
X217.05Y-149.9
X225.45Y-60.9
X225.45Y-86.1
X225.45Y-125.9
X225.45Y-151.1
X229.55Y-62.1
X229.55Y-84.9
X229.55Y-127.1
X229.55Y-149.9
X237.95Y-60.9
X237.95Y-86.1
X237.95Y-125.9
X237.95Y-151.1
X242.05Y-127.1
X242.05Y-149.9
X249.55Y-62.1
X249.55Y-84.9
X250.45Y-125.9
X250.45Y-151.1
X257.95Y-60.9
X257.95Y-86.1
X262.05Y-62.1
X262.05Y-84.9
X270.45Y-60.9
X270.45Y-86.1
X282.05Y-62.1
X282.05Y-84.9
X290.45Y-60.9
X290.45Y-86.1
X294.55Y-62.1
X294.55Y-84.9
X302.95Y-60.9
X302.95Y-86.1
X307.05Y-62.1
X307.05Y-84.9
X315.45Y-60.9
X315.45Y-86.1
X319.55Y-62.1
X319.55Y-84.9
X327.95Y-60.9
X327.95Y-86.1
T15
X21.5Y-19.0
X21.5Y-205.0
X21.5Y-219.0
X21.5Y-405.0
X21.5Y-419.0
X21.5Y-605.0
X182.0Y-19.0
X182.0Y-205.0
X182.0Y-205.0
X182.0Y-219.0
X182.0Y-405.0
X182.0Y-419.0
X182.0Y-605.0
X342.25Y-205.0
X342.25Y-405.0
X342.25Y-605.0
X342.5Y-19.0
X342.5Y-219.0
X342.5Y-419.0
T2
G00X28.0Y-23.55
M15
G01X28.0Y-24.55
M16
G05
G00X33.5Y-19.05
M15
G01X32.5Y-19.05
M16
G05
G00X38.0Y-24.55
M15
G01X38.0Y-23.55
M16
G05
G00X100.5Y-23.55
M15
G01X100.5Y-24.55
M16
G05
G00X106.0Y-19.05
M15
G01X105.0Y-19.05
M16
G05
G00X110.5Y-24.55
M15
G01X110.5Y-23.55
M16
G05
T6
G00X138.1Y-41.18
M15
G01X139.4Y-41.18
M16
G05
G00X138.1Y-45.88
M15
G01X139.4Y-45.88
M16
G05
G00X138.1Y-50.58
M15
G01X139.4Y-50.58
M16
G05
G00X150.6Y-41.18
M15
G01X151.9Y-41.18
M16
G05
G00X150.6Y-45.88
M15
G01X151.9Y-45.88
M16
G05
G00X150.6Y-50.58
M15
G01X151.9Y-50.58
M16
G05
G00X163.1Y-41.18
M15
G01X164.4Y-41.18
M16
G05
G00X163.1Y-45.88
M15
G01X164.4Y-45.88
M16
G05
G00X163.1Y-50.58
M15
G01X164.4Y-50.58
M16
G05
G00X175.6Y-41.18
M15
G01X176.9Y-41.18
M16
G05
G00X175.6Y-45.88
M15
G01X176.9Y-45.88
M16
G05
G00X175.6Y-50.58
M15
G01X176.9Y-50.58
M16
G05
G00X188.1Y-41.18
M15
G01X189.4Y-41.18
M16
G05
G00X188.1Y-45.88
M15
G01X189.4Y-45.88
M16
G05
G00X188.1Y-50.58
M15
G01X189.4Y-50.58
M16
G05
T8
G00X171.447Y-108.566
M15
G01X171.447Y-107.366
M16
G05
G00X181.047Y-108.566
M15
G01X181.047Y-107.366
M16
G05
G00X203.947Y-108.566
M15
G01X203.947Y-107.366
M16
G05
G00X213.547Y-108.566
M15
G01X213.547Y-107.366
M16
G05
G00X241.447Y-108.566
M15
G01X241.447Y-107.366
M16
G05
G00X251.047Y-108.566
M15
G01X251.047Y-107.366
M16
G05
G00X318.947Y-108.566
M15
G01X318.947Y-107.366
M16
G05
G00X318.947Y-138.566
M15
G01X318.947Y-137.366
M16
G05
G00X328.547Y-108.566
M15
G01X328.547Y-107.366
M16
G05
G00X328.547Y-138.566
M15
G01X328.547Y-137.366
M16
G05
T14
G00X138.75Y-262.65
M15
G01X138.75Y-284.35
M16
G05
G00X138.75Y-327.65
M15
G01X138.75Y-349.35
M16
G05
G00X151.25Y-262.65
M15
G01X151.25Y-284.35
M16
G05
G00X151.25Y-327.65
M15
G01X151.25Y-349.35
M16
G05
G00X163.75Y-262.65
M15
G01X163.75Y-284.35
M16
G05
G00X163.75Y-327.65
M15
G01X163.75Y-349.35
M16
G05
G00X176.25Y-262.65
M15
G01X176.25Y-284.35
M16
G05
G00X176.25Y-327.65
M15
G01X176.25Y-349.35
M16
G05
G00X188.75Y-262.65
M15
G01X188.75Y-284.35
M16
G05
G00X208.75Y-262.65
M15
G01X208.75Y-284.35
M16
G05
G00X208.75Y-327.65
M15
G01X208.75Y-349.35
M16
G05
G00X221.25Y-262.65
M15
G01X221.25Y-284.35
M16
G05
G00X221.25Y-327.65
M15
G01X221.25Y-349.35
M16
G05
G00X233.75Y-262.65
M15
G01X233.75Y-284.35
M16
G05
G00X233.75Y-327.65
M15
G01X233.75Y-349.35
M16
G05
G00X246.25Y-327.65
M15
G01X246.25Y-349.35
M16
G05
G00X253.75Y-262.65
M15
G01X253.75Y-284.35
M16
G05
G00X266.25Y-262.65
M15
G01X266.25Y-284.35
M16
G05
G00X286.25Y-262.65
M15
G01X286.25Y-284.35
M16
G05
G00X298.75Y-262.65
M15
G01X298.75Y-284.35
M16
G05
G00X311.25Y-262.65
M15
G01X311.25Y-284.35
M16
G05
G00X323.75Y-262.65
M15
G01X323.75Y-284.35
M16
G05
M30
