M48
; DRILL file {KiCad 9.0.7} date 2026-02-12T11:35:50+0000
; FORMAT={-:-/ absolute / inch / decimal}
; #@! TF.CreationDate,2026-02-12T11:35:50+00:00
; #@! TF.GenerationSoftware,Kicad,Pcbnew,9.0.7
; #@! TF.FileFunction,NonPlated,1,2,NPTH
FMAT,2
INCH
; #@! TA.AperFunction,NonPlated,NPTH,ComponentDrill
T1C0.0472
; #@! TA.AperFunction,NonPlated,NPTH,ComponentDrill
T2C0.0866
%
G90
G05
T1
X1.1024Y-0.6516
X1.1024Y-0.75
X1.2992Y-0.9469
X1.4961Y-0.6516
X1.4961Y-0.75
X3.9567Y-0.6516
X3.9567Y-0.75
X4.1535Y-0.9469
X4.3504Y-0.6516
X4.3504Y-0.75
T2
X0.7677Y-0.6693
X0.7677Y-8.1496
X0.7677Y-8.5433
X0.7677Y-16.0236
X0.7697Y-16.4173
X0.7697Y-23.8976
X4.7047Y-0.6693
X4.7047Y-8.1496
X4.7047Y-8.5433
X4.7047Y-16.0236
X4.7067Y-16.4173
X4.7067Y-23.8976
X9.626Y-0.6693
X9.626Y-8.1496
X9.626Y-8.5433
X9.626Y-16.0236
X9.628Y-16.4173
X9.628Y-23.8976
X13.563Y-0.6693
X13.563Y-8.1496
X13.563Y-8.5433
X13.563Y-16.0236
X13.565Y-16.4173
X13.565Y-23.8976
M30
