%TF.GenerationSoftware,KiCad,Pcbnew,9.0.1*%
%TF.CreationDate,2025-10-30T11:02:59+00:00*%
%TF.ProjectId,WEASEL_KiCad,57454153-454c-45f4-9b69-4361642e6b69,rev?*%
%TF.SameCoordinates,Original*%
%TF.FileFunction,Soldermask,Bot*%
%TF.FilePolarity,Negative*%
%FSLAX46Y46*%
G04 Gerber Fmt 4.6, Leading zero omitted, Abs format (unit mm)*
G04 Created by KiCad (PCBNEW 9.0.1) date 2025-10-30 11:02:59*
%MOMM*%
%LPD*%
G01*
G04 APERTURE LIST*
%ADD10C,5.000000*%
%ADD11R,1.750000X1.750000*%
%ADD12C,1.750000*%
%ADD13C,2.700000*%
%ADD14C,4.200000*%
%ADD15R,1.930000X1.830000*%
%ADD16C,2.130000*%
%ADD17R,2.000000X2.000000*%
%ADD18O,2.000000X2.000000*%
%ADD19C,7.000000*%
%ADD20O,3.300000X25.000000*%
%ADD21C,1.700000*%
%ADD22R,1.700000X1.700000*%
%ADD23O,2.780000X3.240000*%
%ADD24C,2.000000*%
%ADD25C,8.000000*%
%ADD26C,7.400000*%
%ADD27C,1.397000*%
%ADD28R,2.400000X1.600000*%
%ADD29O,2.400000X1.600000*%
%ADD30C,1.200000*%
%ADD31O,1.200000X2.200000*%
%ADD32O,2.200000X1.200000*%
%ADD33O,3.800000X2.400000*%
%ADD34C,1.600000*%
G04 APERTURE END LIST*
D10*
%TO.C,*%
X182000000Y-419000000D03*
%TD*%
%TO.C,*%
X182000000Y-605000000D03*
%TD*%
%TO.C,REF\u002A\u002A*%
X21500000Y-419000000D03*
%TD*%
%TO.C,*%
X342500000Y-419000000D03*
%TD*%
%TO.C,*%
X342250000Y-605000000D03*
%TD*%
%TO.C,*%
X21500000Y-605000000D03*
%TD*%
D11*
%TO.C,RV10*%
X264500000Y-90000000D03*
D12*
X268000000Y-90000000D03*
X264500000Y-57000000D03*
D13*
X270450000Y-86100000D03*
X262050000Y-84900000D03*
X262050000Y-62100000D03*
X270450000Y-60900000D03*
%TD*%
D14*
%TO.C,REF\u002A\u002A*%
X303747300Y-308000000D03*
%TD*%
D15*
%TO.C,J16*%
X157002700Y-186300000D03*
D16*
X157002700Y-197700000D03*
X157002700Y-189400000D03*
%TD*%
D15*
%TO.C,J21*%
X249502700Y-186300000D03*
D16*
X249502700Y-197700000D03*
X249502700Y-189400000D03*
%TD*%
D17*
%TO.C,D3*%
X157500000Y-26250000D03*
D18*
X157500000Y-33870000D03*
%TD*%
D19*
%TO.C,REF\u002A\u002A*%
X182000000Y-392750000D03*
%TD*%
D11*
%TO.C,RV9*%
X252000000Y-90000000D03*
D12*
X255500000Y-90000000D03*
X252000000Y-57000000D03*
D13*
X257950000Y-86100000D03*
X249550000Y-84900000D03*
X249550000Y-62100000D03*
X257950000Y-60900000D03*
%TD*%
D20*
%TO.C,REF\u002A\u002A*%
X138750000Y-338500000D03*
%TD*%
D15*
%TO.C,J7*%
X142002700Y-194300000D03*
D16*
X142002700Y-205700000D03*
X142002700Y-197400000D03*
%TD*%
D10*
%TO.C,*%
X21500000Y-205000000D03*
%TD*%
D17*
%TO.C,D1*%
X114500000Y-35750000D03*
D18*
X114500000Y-28130000D03*
%TD*%
D15*
%TO.C,J18*%
X182002700Y-186300000D03*
D16*
X182002700Y-197700000D03*
X182002700Y-189400000D03*
%TD*%
D20*
%TO.C,REF\u002A\u002A*%
X253750000Y-273500000D03*
%TD*%
D14*
%TO.C,REF\u002A\u002A*%
X266250000Y-245880000D03*
%TD*%
D19*
%TO.C,REF\u002A\u002A*%
X129502700Y-400800000D03*
%TD*%
%TO.C,REF\u002A\u002A*%
X264502700Y-400800000D03*
%TD*%
D21*
%TO.C,U2*%
X98350000Y-126910000D03*
X111950000Y-116510000D03*
X111950000Y-113970000D03*
X111950000Y-111430000D03*
X111950000Y-108890000D03*
X111950000Y-106350000D03*
X111950000Y-103810000D03*
X111950000Y-101270000D03*
X111950000Y-98730000D03*
X98350000Y-116750000D03*
X98350000Y-119290000D03*
D22*
X98350000Y-109130000D03*
D21*
X98350000Y-124370000D03*
X98350000Y-121830000D03*
X98350000Y-114210000D03*
X111950000Y-136830000D03*
X111950000Y-134290000D03*
X111950000Y-131750000D03*
X111950000Y-129210000D03*
X111950000Y-126670000D03*
X111950000Y-124130000D03*
X111950000Y-121590000D03*
X111950000Y-119050000D03*
X98350000Y-111670000D03*
%TD*%
D15*
%TO.C,J12*%
X129502700Y-194300000D03*
D16*
X129502700Y-205700000D03*
X129502700Y-197400000D03*
%TD*%
D11*
%TO.C,RV8*%
X232000000Y-90000000D03*
D12*
X235500000Y-90000000D03*
X232000000Y-57000000D03*
D13*
X237950000Y-86100000D03*
X229550000Y-84900000D03*
X229550000Y-62100000D03*
X237950000Y-60900000D03*
%TD*%
D23*
%TO.C,RV26*%
X318947300Y-107965800D03*
X328547300Y-107965800D03*
D17*
X321247300Y-115465800D03*
D24*
X323747300Y-115465800D03*
X326247300Y-115465800D03*
%TD*%
D17*
%TO.C,D13*%
X277750000Y-137750000D03*
D18*
X277750000Y-145370000D03*
%TD*%
D19*
%TO.C,REF\u002A\u002A*%
X209502700Y-400800000D03*
%TD*%
D25*
%TO.C,REF\u002A\u002A*%
X176247300Y-307965800D03*
%TD*%
D17*
%TO.C,D16*%
X310250000Y-137630000D03*
D18*
X310250000Y-145250000D03*
%TD*%
D14*
%TO.C,REF\u002A\u002A*%
X303747300Y-342965800D03*
%TD*%
D11*
%TO.C,RV22*%
X284500000Y-90000000D03*
D12*
X288000000Y-90000000D03*
X284500000Y-57000000D03*
D13*
X290450000Y-86100000D03*
X282050000Y-84900000D03*
X282050000Y-62100000D03*
X290450000Y-60900000D03*
%TD*%
D24*
%TO.C,SW2*%
X185500000Y-26130000D03*
X192000000Y-26130000D03*
X185500000Y-30630000D03*
X192000000Y-30630000D03*
%TD*%
D17*
%TO.C,D8*%
X260000000Y-43750000D03*
D18*
X260000000Y-51370000D03*
%TD*%
D20*
%TO.C,REF\u002A\u002A*%
X151250000Y-273500000D03*
%TD*%
D15*
%TO.C,J8*%
X222002700Y-194300000D03*
D16*
X222002700Y-205700000D03*
X222002700Y-197400000D03*
%TD*%
D17*
%TO.C,D26*%
X185810000Y-183080000D03*
D18*
X178190000Y-183080000D03*
%TD*%
D19*
%TO.C,REF\u002A\u002A*%
X157002700Y-392800000D03*
%TD*%
D10*
%TO.C,*%
X182000000Y-219000000D03*
%TD*%
D26*
%TO.C,REF\u002A\u002A*%
X138900000Y-245780000D03*
%TD*%
D14*
%TO.C,REF\u002A\u002A*%
X271247300Y-307965800D03*
%TD*%
D17*
%TO.C,D6*%
X227250000Y-43750000D03*
D18*
X227250000Y-51370000D03*
%TD*%
D15*
%TO.C,J17*%
X169502700Y-186300000D03*
D16*
X169502700Y-197700000D03*
X169502700Y-189400000D03*
%TD*%
D11*
%TO.C,RV3*%
X162000000Y-90000000D03*
D12*
X165500000Y-90000000D03*
X162000000Y-57000000D03*
D13*
X167950000Y-86100000D03*
X159550000Y-84900000D03*
X159550000Y-62100000D03*
X167950000Y-60900000D03*
%TD*%
D10*
%TO.C,*%
X21500000Y-405000000D03*
%TD*%
D15*
%TO.C,J13*%
X209502700Y-194300000D03*
D16*
X209502700Y-205700000D03*
X209502700Y-197400000D03*
%TD*%
D17*
%TO.C,D23*%
X118310000Y-183580000D03*
D18*
X110690000Y-183580000D03*
%TD*%
D14*
%TO.C,REF\u002A\u002A*%
X188750000Y-228380000D03*
%TD*%
D17*
%TO.C,D22*%
X195000000Y-40380000D03*
D18*
X195000000Y-48000000D03*
%TD*%
D27*
%TO.C,R2*%
X130500000Y-23190000D03*
X130500000Y-30810000D03*
%TD*%
D20*
%TO.C,REF\u002A\u002A*%
X208750000Y-338500000D03*
%TD*%
D17*
%TO.C,D9*%
X155500000Y-113250000D03*
D18*
X163120000Y-113250000D03*
%TD*%
D11*
%TO.C,RV13*%
X162000000Y-155000000D03*
D12*
X165500000Y-155000000D03*
X162000000Y-122000000D03*
D13*
X167950000Y-151100000D03*
X159550000Y-149900000D03*
X159550000Y-127100000D03*
X167950000Y-125900000D03*
%TD*%
D24*
%TO.C,SW15*%
X300497300Y-105750000D03*
X306997300Y-105750000D03*
X300497300Y-110250000D03*
X306997300Y-110250000D03*
%TD*%
D14*
%TO.C,REF\u002A\u002A*%
X163750000Y-228250000D03*
%TD*%
D19*
%TO.C,REF\u002A\u002A*%
X209502700Y-386300000D03*
%TD*%
D26*
%TO.C,REF\u002A\u002A*%
X163900000Y-245780000D03*
%TD*%
D24*
%TO.C,SW3*%
X230500000Y-26130000D03*
X237000000Y-26130000D03*
X230500000Y-30630000D03*
X237000000Y-30630000D03*
%TD*%
D23*
%TO.C,RV27*%
X318947300Y-137965800D03*
X328547300Y-137965800D03*
D17*
X321247300Y-145465800D03*
D24*
X323747300Y-145465800D03*
X326247300Y-145465800D03*
%TD*%
D20*
%TO.C,REF\u002A\u002A*%
X246250000Y-338500000D03*
%TD*%
%TO.C,REF\u002A\u002A*%
X151250000Y-338500000D03*
%TD*%
D11*
%TO.C,RV19*%
X232000000Y-155000000D03*
D12*
X235500000Y-155000000D03*
X232000000Y-122000000D03*
D13*
X237950000Y-151100000D03*
X229550000Y-149900000D03*
X229550000Y-127100000D03*
X237950000Y-125900000D03*
%TD*%
D17*
%TO.C,D29*%
X253310000Y-183080000D03*
D18*
X245690000Y-183080000D03*
%TD*%
D19*
%TO.C,REF\u002A\u002A*%
X222002700Y-400800000D03*
%TD*%
D24*
%TO.C,SW9*%
X267997300Y-105715800D03*
X274497300Y-105715800D03*
X267997300Y-110215800D03*
X274497300Y-110215800D03*
%TD*%
D11*
%TO.C,RV23*%
X297000000Y-90000000D03*
D12*
X300500000Y-90000000D03*
X297000000Y-57000000D03*
D13*
X302950000Y-86100000D03*
X294550000Y-84900000D03*
X294550000Y-62100000D03*
X302950000Y-60900000D03*
%TD*%
D23*
%TO.C,RV21*%
X241447300Y-107965800D03*
X251047300Y-107965800D03*
D17*
X243747300Y-115465800D03*
D24*
X246247300Y-115465800D03*
X248747300Y-115465800D03*
%TD*%
D19*
%TO.C,REF\u002A\u002A*%
X99500000Y-386300000D03*
%TD*%
D15*
%TO.C,J10*%
X209502700Y-179800000D03*
D16*
X209502700Y-191200000D03*
X209502700Y-182900000D03*
%TD*%
D15*
%TO.C,J6*%
X99502700Y-194300000D03*
D16*
X99502700Y-205700000D03*
X99502700Y-197400000D03*
%TD*%
D24*
%TO.C,SW5*%
X263000000Y-26130000D03*
X269500000Y-26130000D03*
X263000000Y-30630000D03*
X269500000Y-30630000D03*
%TD*%
D15*
%TO.C,J19*%
X194502700Y-186300000D03*
D16*
X194502700Y-197700000D03*
X194502700Y-189400000D03*
%TD*%
D20*
%TO.C,REF\u002A\u002A*%
X163750000Y-273500000D03*
%TD*%
D24*
%TO.C,SW8*%
X137997300Y-105715800D03*
X144497300Y-105715800D03*
X137997300Y-110215800D03*
X144497300Y-110215800D03*
%TD*%
D20*
%TO.C,REF\u002A\u002A*%
X176250000Y-338500000D03*
%TD*%
D15*
%TO.C,J5*%
X222002700Y-179800000D03*
D16*
X222002700Y-191200000D03*
X222002700Y-182900000D03*
%TD*%
D20*
%TO.C,REF\u002A\u002A*%
X163750000Y-338500000D03*
%TD*%
D14*
%TO.C,REF\u002A\u002A*%
X158747300Y-307965800D03*
%TD*%
D17*
%TO.C,D12*%
X277750000Y-120000000D03*
D18*
X277750000Y-127620000D03*
%TD*%
D10*
%TO.C,*%
X342500000Y-219000000D03*
%TD*%
D26*
%TO.C,REF\u002A\u002A*%
X151400000Y-245780000D03*
%TD*%
%TO.C,REF\u002A\u002A*%
X176400000Y-245780000D03*
%TD*%
D11*
%TO.C,RV20*%
X244500000Y-155000000D03*
D12*
X248000000Y-155000000D03*
X244500000Y-122000000D03*
D13*
X250450000Y-151100000D03*
X242050000Y-149900000D03*
X242050000Y-127100000D03*
X250450000Y-125900000D03*
%TD*%
D15*
%TO.C,J9*%
X129502700Y-179800000D03*
D16*
X129502700Y-191200000D03*
X129502700Y-182900000D03*
%TD*%
D11*
%TO.C,RV11*%
X137000000Y-155000000D03*
D12*
X140500000Y-155000000D03*
X137000000Y-122000000D03*
D13*
X142950000Y-151100000D03*
X134550000Y-149900000D03*
X134550000Y-127100000D03*
X142950000Y-125900000D03*
%TD*%
D27*
%TO.C,R1*%
X110500000Y-28250000D03*
X110500000Y-35870000D03*
%TD*%
D11*
%TO.C,RV6*%
X207000000Y-90000000D03*
D12*
X210500000Y-90000000D03*
X207000000Y-57000000D03*
D13*
X212950000Y-86100000D03*
X204550000Y-84900000D03*
X204550000Y-62100000D03*
X212950000Y-60900000D03*
%TD*%
D28*
%TO.C,U3*%
X118675000Y-23200000D03*
D29*
X118675000Y-25740000D03*
X118675000Y-28280000D03*
X118675000Y-30820000D03*
X126295000Y-30820000D03*
X126295000Y-28280000D03*
X126295000Y-25740000D03*
X126295000Y-23200000D03*
%TD*%
D24*
%TO.C,SW13*%
X313250000Y-34750000D03*
X319750000Y-34750000D03*
X313250000Y-39250000D03*
X319750000Y-39250000D03*
%TD*%
D11*
%TO.C,RV25*%
X322000000Y-90000000D03*
D12*
X325500000Y-90000000D03*
X322000000Y-57000000D03*
D13*
X327950000Y-86100000D03*
X319550000Y-84900000D03*
X319550000Y-62100000D03*
X327950000Y-60900000D03*
%TD*%
D23*
%TO.C,RV18*%
X203947300Y-107965800D03*
X213547300Y-107965800D03*
D17*
X206247300Y-115465800D03*
D24*
X208747300Y-115465800D03*
X211247300Y-115465800D03*
%TD*%
D20*
%TO.C,REF\u002A\u002A*%
X176250000Y-273500000D03*
%TD*%
D25*
%TO.C,REF\u002A\u002A*%
X208747300Y-307965800D03*
%TD*%
D20*
%TO.C,REF\u002A\u002A*%
X311250000Y-273500000D03*
%TD*%
D10*
%TO.C,*%
X342250000Y-205000000D03*
%TD*%
D20*
%TO.C,REF\u002A\u002A*%
X323750000Y-273500000D03*
%TD*%
D30*
%TO.C,J2*%
X38000000Y-19050000D03*
X38000000Y-16550000D03*
X33000000Y-24050000D03*
X28000000Y-19050000D03*
X28000000Y-16550000D03*
D31*
X38000000Y-24050000D03*
D32*
X33000000Y-19050000D03*
D31*
X28000000Y-24050000D03*
%TD*%
D14*
%TO.C,REF\u002A\u002A*%
X233750000Y-245880000D03*
%TD*%
%TO.C,REF\u002A\u002A*%
X271247300Y-342965800D03*
%TD*%
D15*
%TO.C,J3*%
X99500000Y-179800000D03*
D16*
X99500000Y-191200000D03*
X99500000Y-182900000D03*
%TD*%
D23*
%TO.C,RV15*%
X171447300Y-107965800D03*
X181047300Y-107965800D03*
D17*
X173747300Y-115465800D03*
D24*
X176247300Y-115465800D03*
X178747300Y-115465800D03*
%TD*%
D15*
%TO.C,J20*%
X237002700Y-186300000D03*
D16*
X237002700Y-197700000D03*
X237002700Y-189400000D03*
%TD*%
D19*
%TO.C,REF\u002A\u002A*%
X169502700Y-392800000D03*
%TD*%
D17*
%TO.C,D18*%
X145250000Y-40380000D03*
D18*
X145250000Y-48000000D03*
%TD*%
D20*
%TO.C,REF\u002A\u002A*%
X233750000Y-338500000D03*
%TD*%
D11*
%TO.C,RV24*%
X309500000Y-90000000D03*
D12*
X313000000Y-90000000D03*
X309500000Y-57000000D03*
D13*
X315450000Y-86100000D03*
X307050000Y-84900000D03*
X307050000Y-62100000D03*
X315450000Y-60900000D03*
%TD*%
D19*
%TO.C,REF\u002A\u002A*%
X129502700Y-386300000D03*
%TD*%
%TO.C,REF\u002A\u002A*%
X99500000Y-400750000D03*
%TD*%
D33*
%TO.C,SW19*%
X176250000Y-41180000D03*
X176250000Y-45880000D03*
X176250000Y-50580000D03*
%TD*%
D17*
%TO.C,D24*%
X160810000Y-183080000D03*
D18*
X153190000Y-183080000D03*
%TD*%
D19*
%TO.C,REF\u002A\u002A*%
X222002700Y-386300000D03*
%TD*%
D17*
%TO.C,D20*%
X170250000Y-40380000D03*
D18*
X170250000Y-48000000D03*
%TD*%
D20*
%TO.C,REF\u002A\u002A*%
X286250000Y-273500000D03*
%TD*%
D10*
%TO.C,REF\u002A\u002A*%
X21500000Y-219000000D03*
%TD*%
D21*
%TO.C,U1*%
X98350000Y-85310000D03*
X111950000Y-74910000D03*
X111950000Y-72370000D03*
X111950000Y-69830000D03*
X111950000Y-67290000D03*
X111950000Y-64750000D03*
X111950000Y-62210000D03*
X111950000Y-59670000D03*
X111950000Y-57130000D03*
X98350000Y-75150000D03*
X98350000Y-77690000D03*
D22*
X98350000Y-67530000D03*
D21*
X98350000Y-82770000D03*
X98350000Y-80230000D03*
X98350000Y-72610000D03*
X111950000Y-95230000D03*
X111950000Y-92690000D03*
X111950000Y-90150000D03*
X111950000Y-87610000D03*
X111950000Y-85070000D03*
X111950000Y-82530000D03*
X111950000Y-79990000D03*
X111950000Y-77450000D03*
X98350000Y-70070000D03*
%TD*%
D17*
%TO.C,D7*%
X260000000Y-26250000D03*
D18*
X260000000Y-33870000D03*
%TD*%
D14*
%TO.C,REF\u002A\u002A*%
X316500000Y-237000000D03*
%TD*%
D24*
%TO.C,SW6*%
X263000000Y-43630000D03*
X269500000Y-43630000D03*
X263000000Y-48130000D03*
X269500000Y-48130000D03*
%TD*%
D19*
%TO.C,REF\u002A\u002A*%
X264502700Y-386270000D03*
%TD*%
D34*
%TO.C,C1*%
X94700000Y-85440000D03*
X94700000Y-90520000D03*
%TD*%
D20*
%TO.C,REF\u002A\u002A*%
X188750000Y-273500000D03*
%TD*%
D17*
%TO.C,D11*%
X277750000Y-102500000D03*
D18*
X277750000Y-110120000D03*
%TD*%
D15*
%TO.C,J4*%
X142002700Y-179800000D03*
D16*
X142002700Y-191200000D03*
X142002700Y-182900000D03*
%TD*%
D34*
%TO.C,C2*%
X94700000Y-127230000D03*
X94700000Y-132310000D03*
%TD*%
D10*
%TO.C,*%
X21500000Y-19000000D03*
%TD*%
D24*
%TO.C,SW1*%
X160500000Y-26130000D03*
X167000000Y-26130000D03*
X160500000Y-30630000D03*
X167000000Y-30630000D03*
%TD*%
D10*
%TO.C,*%
X182000000Y-405000000D03*
%TD*%
D30*
%TO.C,J1*%
X110500000Y-19050000D03*
X110500000Y-16550000D03*
X105500000Y-24050000D03*
X100500000Y-19050000D03*
X100500000Y-16550000D03*
D31*
X110500000Y-24050000D03*
D32*
X105500000Y-19050000D03*
D31*
X100500000Y-24050000D03*
%TD*%
D25*
%TO.C,REF\u002A\u002A*%
X323747300Y-337965800D03*
%TD*%
D24*
%TO.C,SW4*%
X230500000Y-43630000D03*
X237000000Y-43630000D03*
X230500000Y-48130000D03*
X237000000Y-48130000D03*
%TD*%
D20*
%TO.C,REF\u002A\u002A*%
X138750000Y-273500000D03*
%TD*%
D19*
%TO.C,REF\u002A\u002A*%
X142002700Y-386300000D03*
%TD*%
D11*
%TO.C,RV14*%
X174500000Y-155000000D03*
D12*
X178000000Y-155000000D03*
X174500000Y-122000000D03*
D13*
X180450000Y-151100000D03*
X172050000Y-149900000D03*
X172050000Y-127100000D03*
X180450000Y-125900000D03*
%TD*%
D17*
%TO.C,D25*%
X173310000Y-183080000D03*
D18*
X165690000Y-183080000D03*
%TD*%
D17*
%TO.C,D21*%
X182750000Y-40380000D03*
D18*
X182750000Y-48000000D03*
%TD*%
D11*
%TO.C,RV7*%
X219500000Y-90000000D03*
D12*
X223000000Y-90000000D03*
X219500000Y-57000000D03*
D13*
X225450000Y-86100000D03*
X217050000Y-84900000D03*
X217050000Y-62100000D03*
X225450000Y-60900000D03*
%TD*%
D15*
%TO.C,J15*%
X114502700Y-186800000D03*
D16*
X114502700Y-198200000D03*
X114502700Y-189900000D03*
%TD*%
D11*
%TO.C,RV17*%
X219500000Y-155000000D03*
D12*
X223000000Y-155000000D03*
X219500000Y-122000000D03*
D13*
X225450000Y-151100000D03*
X217050000Y-149900000D03*
X217050000Y-127100000D03*
X225450000Y-125900000D03*
%TD*%
D15*
%TO.C,J11*%
X264502700Y-179770000D03*
D16*
X264502700Y-191170000D03*
X264502700Y-182870000D03*
%TD*%
D19*
%TO.C,REF\u002A\u002A*%
X249502700Y-392800000D03*
%TD*%
D14*
%TO.C,REF\u002A\u002A*%
X291500000Y-237000000D03*
%TD*%
D10*
%TO.C,*%
X182000000Y-205000000D03*
%TD*%
D11*
%TO.C,RV5*%
X187000000Y-90000000D03*
D12*
X190500000Y-90000000D03*
X187000000Y-57000000D03*
D13*
X192950000Y-86100000D03*
X184550000Y-84900000D03*
X184550000Y-62100000D03*
X192950000Y-60900000D03*
%TD*%
D24*
%TO.C,SW14*%
X300497300Y-140715800D03*
X306997300Y-140715800D03*
X300497300Y-145215800D03*
X306997300Y-145215800D03*
%TD*%
D19*
%TO.C,REF\u002A\u002A*%
X114500000Y-393250000D03*
%TD*%
D14*
%TO.C,REF\u002A\u002A*%
X141247300Y-307965800D03*
%TD*%
%TO.C,REF\u002A\u002A*%
X266250000Y-228380000D03*
%TD*%
D24*
%TO.C,SW10*%
X267997300Y-123215800D03*
X274497300Y-123215800D03*
X267997300Y-127715800D03*
X274497300Y-127715800D03*
%TD*%
D20*
%TO.C,REF\u002A\u002A*%
X221250000Y-273500000D03*
%TD*%
D10*
%TO.C,*%
X342250000Y-405000000D03*
%TD*%
D11*
%TO.C,RV1*%
X137000000Y-90000000D03*
D12*
X140500000Y-90000000D03*
X137000000Y-57000000D03*
D13*
X142950000Y-86100000D03*
X134550000Y-84900000D03*
X134550000Y-62100000D03*
X142950000Y-60900000D03*
%TD*%
D24*
%TO.C,SW11*%
X267997300Y-140715800D03*
X274497300Y-140715800D03*
X267997300Y-145215800D03*
X274497300Y-145215800D03*
%TD*%
%TO.C,SW7*%
X155497300Y-105715800D03*
X161997300Y-105715800D03*
X155497300Y-110215800D03*
X161997300Y-110215800D03*
%TD*%
D19*
%TO.C,REF\u002A\u002A*%
X237002700Y-392800000D03*
%TD*%
D20*
%TO.C,REF\u002A\u002A*%
X233750000Y-273500000D03*
%TD*%
D14*
%TO.C,REF\u002A\u002A*%
X233750000Y-228380000D03*
%TD*%
D33*
%TO.C,SW18*%
X163750000Y-41180000D03*
X163750000Y-45880000D03*
X163750000Y-50580000D03*
%TD*%
D22*
%TO.C,A1*%
X61210000Y-15500000D03*
D21*
X61210000Y-18040000D03*
X61210000Y-20580000D03*
X61210000Y-23120000D03*
X61210000Y-25660000D03*
X61210000Y-28200000D03*
X61210000Y-30740000D03*
X61210000Y-33280000D03*
X61210000Y-35820000D03*
X61210000Y-38360000D03*
X61210000Y-40900000D03*
X61210000Y-43440000D03*
X61210000Y-45980000D03*
X61210000Y-48520000D03*
X61210000Y-51060000D03*
X61210000Y-53600000D03*
X61210000Y-56140000D03*
X61210000Y-58680000D03*
X61210000Y-61220000D03*
X61210000Y-63760000D03*
X76450000Y-63760000D03*
X76450000Y-61220000D03*
X76450000Y-58680000D03*
X76450000Y-56140000D03*
X76450000Y-53600000D03*
X76450000Y-51060000D03*
X76450000Y-48520000D03*
X76450000Y-45980000D03*
X76450000Y-43440000D03*
X76450000Y-40900000D03*
X76450000Y-38360000D03*
X76450000Y-35820000D03*
X76450000Y-33280000D03*
X76450000Y-30740000D03*
X76450000Y-28200000D03*
X76450000Y-25660000D03*
X76450000Y-23120000D03*
X76450000Y-20580000D03*
X76450000Y-18040000D03*
X76450000Y-15500000D03*
%TD*%
D25*
%TO.C,REF\u002A\u002A*%
X323747300Y-307965800D03*
%TD*%
D11*
%TO.C,RV16*%
X207000000Y-155000000D03*
D12*
X210500000Y-155000000D03*
X207000000Y-122000000D03*
D13*
X212950000Y-151100000D03*
X204550000Y-149900000D03*
X204550000Y-127100000D03*
X212950000Y-125900000D03*
%TD*%
D10*
%TO.C,*%
X342500000Y-19000000D03*
%TD*%
D17*
%TO.C,D4*%
X182500000Y-26250000D03*
D18*
X182500000Y-33870000D03*
%TD*%
D17*
%TO.C,D19*%
X157750000Y-40380000D03*
D18*
X157750000Y-48000000D03*
%TD*%
D33*
%TO.C,SW16*%
X138750000Y-41180000D03*
X138750000Y-45880000D03*
X138750000Y-50580000D03*
%TD*%
D15*
%TO.C,J14*%
X264502700Y-194300000D03*
D16*
X264502700Y-205700000D03*
X264502700Y-197400000D03*
%TD*%
D10*
%TO.C,*%
X182000000Y-205000000D03*
%TD*%
D17*
%TO.C,D27*%
X198310000Y-183080000D03*
D18*
X190690000Y-183080000D03*
%TD*%
D10*
%TO.C,*%
X182000000Y-19000000D03*
%TD*%
D11*
%TO.C,RV2*%
X149500000Y-90000000D03*
D12*
X153000000Y-90000000D03*
X149500000Y-57000000D03*
D13*
X155450000Y-86100000D03*
X147050000Y-84900000D03*
X147050000Y-62100000D03*
X155450000Y-60900000D03*
%TD*%
D20*
%TO.C,REF\u002A\u002A*%
X208750000Y-273500000D03*
%TD*%
D19*
%TO.C,REF\u002A\u002A*%
X194502700Y-392800000D03*
%TD*%
D20*
%TO.C,REF\u002A\u002A*%
X266250000Y-273500000D03*
%TD*%
%TO.C,REF\u002A\u002A*%
X221250000Y-338500000D03*
%TD*%
D24*
%TO.C,SW12*%
X288250000Y-34750000D03*
X294750000Y-34750000D03*
X288250000Y-39250000D03*
X294750000Y-39250000D03*
%TD*%
D19*
%TO.C,REF\u002A\u002A*%
X142002700Y-400800000D03*
%TD*%
D14*
%TO.C,REF\u002A\u002A*%
X271247300Y-325465800D03*
%TD*%
D17*
%TO.C,D14*%
X287250000Y-42500000D03*
D18*
X294870000Y-42500000D03*
%TD*%
D11*
%TO.C,RV12*%
X149500000Y-155000000D03*
D12*
X153000000Y-155000000D03*
X149500000Y-122000000D03*
D13*
X155450000Y-151100000D03*
X147050000Y-149900000D03*
X147050000Y-127100000D03*
X155450000Y-125900000D03*
%TD*%
D17*
%TO.C,D28*%
X240810000Y-183080000D03*
D18*
X233190000Y-183080000D03*
%TD*%
D17*
%TO.C,D17*%
X310250000Y-102630000D03*
D18*
X310250000Y-110250000D03*
%TD*%
D33*
%TO.C,SW17*%
X151250000Y-41180000D03*
X151250000Y-45880000D03*
X151250000Y-50580000D03*
%TD*%
D11*
%TO.C,RV4*%
X174500000Y-90000000D03*
D12*
X178000000Y-90000000D03*
X174500000Y-57000000D03*
D13*
X180450000Y-86100000D03*
X172050000Y-84900000D03*
X172050000Y-62100000D03*
X180450000Y-60900000D03*
%TD*%
D17*
%TO.C,D10*%
X144500000Y-113250000D03*
D18*
X136880000Y-113250000D03*
%TD*%
D17*
%TO.C,D5*%
X227250000Y-26250000D03*
D18*
X227250000Y-33870000D03*
%TD*%
D20*
%TO.C,REF\u002A\u002A*%
X298750000Y-273500000D03*
%TD*%
D33*
%TO.C,SW20*%
X188750000Y-41180000D03*
X188750000Y-45880000D03*
X188750000Y-50580000D03*
%TD*%
D25*
%TO.C,REF\u002A\u002A*%
X246247300Y-307965800D03*
%TD*%
D17*
%TO.C,D15*%
X312250000Y-42500000D03*
D18*
X319870000Y-42500000D03*
%TD*%
D26*
%TO.C,REF\u002A\u002A*%
X188900000Y-245780000D03*
%TD*%
M02*
